<svg xmlns="http://www.w3.org/2000/svg" width="85" height="85" viewBox="0 0 85 85">
  <g id="Grupo_1067328" data-name="Grupo 1067328" transform="translate(-180 -429)">
    <g id="Grupo_1063897" data-name="Grupo 1063897" transform="translate(0 -17)">
      <rect id="Rectángulo_373435" data-name="Rectángulo 373435" width="85" height="85" rx="5" transform="translate(180 446)" fill="#92df98"/>
    </g>
    <g id="idea" transform="translate(159.597 437.238)">
      <path id="Trazado_807349" data-name="Trazado 807349" d="M136.318,118.75a16.075,16.075,0,0,1,4.854-7.424,19.5,19.5,0,0,0,7-14.99,19.7,19.7,0,1,0-32.406,14.99,15.317,15.317,0,0,1,5,7.424Z" transform="translate(-65.563 -66.357)" fill="#f7a781"/>
      <path id="Trazado_807350" data-name="Trazado 807350" d="M204.815,240.232H206.1l-5.71-21.271h.428a2.818,2.818,0,0,0,2-.857,1.38,1.38,0,0,1,2,0,2.439,2.439,0,0,0,3.712,0,1.3,1.3,0,0,1,1-.428,1.543,1.543,0,0,1,1,.428,2.592,2.592,0,0,0,2,.857h.428l-5.568,21.271h1.285l5.853-22.27c0-.285,0-.571-.285-.714a.628.628,0,0,0-.714.143,1.234,1.234,0,0,1-.857.428,1.9,1.9,0,0,1-1.142-.428,2.439,2.439,0,0,0-3.712,0,1.38,1.38,0,0,1-2,0,2.3,2.3,0,0,0-1.856-.857h0a2.3,2.3,0,0,0-1.856.857,1.621,1.621,0,0,1-1.142.428,1.018,1.018,0,0,1-.857-.428.628.628,0,0,0-.714-.143.521.521,0,0,0-.285.714Z" transform="translate(-143.768 -187.554)" fill="#fff"/>
      <g id="Grupo_1067150" data-name="Grupo 1067150" transform="translate(55.194 52.25)">
        <path id="Trazado_807351" data-name="Trazado 807351" d="M222.933,489.6a4.765,4.765,0,0,0,8.851,0Z" transform="translate(-219.65 -476.323)" fill="#1969d5"/>
        <path id="Trazado_807352" data-name="Trazado 807352" d="M211.391,403.819H200.97a2.559,2.559,0,0,1-2.57-2.57V390.4h15.561v10.85A2.559,2.559,0,0,1,211.391,403.819Z" transform="translate(-198.4 -390.4)" fill="#1969d5"/>
      </g>
      <g id="Grupo_1067151" data-name="Grupo 1067151" transform="translate(53.623 54.534)">
        <path id="Trazado_807353" data-name="Trazado 807353" d="M203.655,410.608H188.237a1.584,1.584,0,0,1-1.57-1.57h0a1.584,1.584,0,0,1,1.57-1.57h15.418a1.584,1.584,0,0,1,1.57,1.57h0A1.584,1.584,0,0,1,203.655,410.608Z" transform="translate(-186.667 -407.467)" fill="#59bee2"/>
        <path id="Trazado_807354" data-name="Trazado 807354" d="M203.655,447.942H188.237a1.584,1.584,0,0,1-1.57-1.57h0a1.584,1.584,0,0,1,1.57-1.57h15.418a1.584,1.584,0,0,1,1.57,1.57h0A1.584,1.584,0,0,1,203.655,447.942Z" transform="translate(-186.667 -439.804)" fill="#59bee2"/>
      </g>
      <g id="Grupo_1067152" data-name="Grupo 1067152" transform="translate(33.066)">
        <path id="Trazado_807355" data-name="Trazado 807355" d="M246.761,0a1.431,1.431,0,0,0-1.428,1.428V6.281a1.431,1.431,0,0,0,1.428,1.428,1.349,1.349,0,0,0,1.428-1.428V1.428A1.431,1.431,0,0,0,246.761,0Z" transform="translate(-216.924)" fill="#f7a781"/>
        <path id="Trazado_807356" data-name="Trazado 807356" d="M97.361,62.3a1.413,1.413,0,0,0-2,2l3.426,3.426a1.413,1.413,0,0,0,2-2Z" transform="translate(-86.654 -53.587)" fill="#f7a781"/>
        <path id="Trazado_807357" data-name="Trazado 807357" d="M39.347,212.267H34.494a1.431,1.431,0,0,0-1.428,1.428h0a1.431,1.431,0,0,0,1.428,1.428h4.854a1.431,1.431,0,0,0,1.428-1.428h0A1.535,1.535,0,0,0,39.347,212.267Z" transform="translate(-33.066 -183.858)" fill="#f7a781"/>
        <path id="Trazado_807358" data-name="Trazado 807358" d="M98.787,337.5l-3.426,3.426a1.413,1.413,0,0,0,2,2l3.426-3.426a1.413,1.413,0,0,0-2-2Z" transform="translate(-86.653 -291.955)" fill="#f7a781"/>
        <path id="Trazado_807359" data-name="Trazado 807359" d="M372.56,337.5a1.413,1.413,0,1,0-2,2l3.426,3.426a1.413,1.413,0,0,0,2-2Z" transform="translate(-325.021 -291.955)" fill="#f7a781"/>
        <path id="Trazado_807360" data-name="Trazado 807360" d="M427.615,212.267h-4.854a1.431,1.431,0,0,0-1.428,1.428h0a1.431,1.431,0,0,0,1.428,1.428h4.854a1.431,1.431,0,0,0,1.428-1.428h0A1.431,1.431,0,0,0,427.615,212.267Z" transform="translate(-369.369 -183.858)" fill="#f7a781"/>
        <path id="Trazado_807361" data-name="Trazado 807361" d="M373.987,62.3l-3.426,3.426a1.413,1.413,0,0,0,2,2l3.426-3.426a1.413,1.413,0,1,0-2-2Z" transform="translate(-325.021 -53.587)" fill="#f7a781"/>
      </g>
    </g>
  </g>
</svg>
