<svg xmlns="http://www.w3.org/2000/svg" xmlns:xlink="http://www.w3.org/1999/xlink" width="502" height="708.5" viewBox="0 0 502 708.5">
  <defs>
    <clipPath id="clip-path">
      <rect id="Rectángulo_375162" data-name="Rectángulo 375162" width="457.222" height="677.5" fill="none"/>
    </clipPath>
    <clipPath id="clip-path-3">
      <rect id="Rectángulo_375127" data-name="Rectángulo 375127" width="326.113" height="422.897" fill="none"/>
    </clipPath>
    <clipPath id="clip-path-4">
      <rect id="Rectángulo_375142" data-name="Rectángulo 375142" width="15.244" height="27.427" fill="none"/>
    </clipPath>
    <clipPath id="clip-path-5">
      <rect id="Rectángulo_375143" data-name="Rectángulo 375143" width="7.442" height="42.074" fill="none"/>
    </clipPath>
    <clipPath id="clip-path-8">
      <rect id="Rectángulo_375146" data-name="Rectángulo 375146" width="16.858" height="17.527" fill="none"/>
    </clipPath>
    <clipPath id="clip-path-9">
      <rect id="Rectángulo_375147" data-name="Rectángulo 375147" width="42.515" height="57.089" fill="none"/>
    </clipPath>
    <clipPath id="clip-path-11">
      <rect id="Rectángulo_375149" data-name="Rectángulo 375149" width="71.078" height="62.735" fill="#f3f9ff"/>
    </clipPath>
    <clipPath id="clip-path-12">
      <rect id="Rectángulo_375150" data-name="Rectángulo 375150" width="13.585" height="41.316" fill="none"/>
    </clipPath>
    <clipPath id="clip-path-13">
      <rect id="Rectángulo_375151" data-name="Rectángulo 375151" width="13.338" height="3.596" fill="none"/>
    </clipPath>
    <clipPath id="clip-path-14">
      <rect id="Rectángulo_375152" data-name="Rectángulo 375152" width="13.444" height="3.607" fill="none"/>
    </clipPath>
    <clipPath id="clip-path-15">
      <rect id="Rectángulo_375153" data-name="Rectángulo 375153" width="10.765" height="71.263" fill="none"/>
    </clipPath>
    <clipPath id="clip-path-16">
      <rect id="Rectángulo_375154" data-name="Rectángulo 375154" width="67.81" height="100.192" fill="#f3f9ff"/>
    </clipPath>
    <clipPath id="clip-path-17">
      <rect id="Rectángulo_375155" data-name="Rectángulo 375155" width="53.864" height="32.141" fill="none"/>
    </clipPath>
    <clipPath id="clip-path-18">
      <rect id="Rectángulo_375156" data-name="Rectángulo 375156" width="9.069" height="31.582" fill="none"/>
    </clipPath>
    <clipPath id="clip-path-19">
      <rect id="Rectángulo_375157" data-name="Rectángulo 375157" width="63.244" height="77.162" fill="#f3f9ff"/>
    </clipPath>
    <clipPath id="clip-path-20">
      <rect id="Rectángulo_375158" data-name="Rectángulo 375158" width="11.592" height="13.563" fill="none"/>
    </clipPath>
    <clipPath id="clip-path-21">
      <rect id="Rectángulo_375159" data-name="Rectángulo 375159" width="7.73" height="13.05" fill="none"/>
    </clipPath>
    <clipPath id="clip-path-22">
      <rect id="Rectángulo_375160" data-name="Rectángulo 375160" width="4.091" height="6.09" fill="none"/>
    </clipPath>
  </defs>
  <g id="Grupo_1067310" data-name="Grupo 1067310" transform="translate(-918 -1482.5)">
    <g id="Grupo_1065838" data-name="Grupo 1065838" transform="translate(780 -3160.5)">
      <g id="Grupo_1065354" data-name="Grupo 1065354" transform="translate(180 4644)">
        <g id="Grupo_171324" data-name="Grupo 171324" transform="translate(262.703 81.239)">
          <path id="Trazado_207509" data-name="Trazado 207509" d="M2664.158,1357.9a.589.589,0,0,0-.024-.107,87.973,87.973,0,0,0-25.478-39.759c-10.145-9.031-22.625-16-37.093-20.718-25.409-8.282-52.525-7.9-66.967-4.038a.679.679,0,0,0-.5.85.751.751,0,0,0,.916.471c25.409-6.793,106.173-4.328,127.709,63.576a.751.751,0,0,0,.917.468A.685.685,0,0,0,2664.158,1357.9Z" transform="translate(-2534.064 -1290.642)" fill="#f3f9ff"/>
        </g>
        <g id="Grupo_171325" data-name="Grupo 171325" transform="translate(35.002 161.091)">
          <path id="Trazado_207510" data-name="Trazado 207510" d="M903.892,1604.272a.828.828,0,0,0-.116.025c-17.132,4.982-31.535,13.161-42.811,24.31a91.188,91.188,0,0,0-21.7,34.44c-8.4,23.439-7.29,48.218-2.7,61.321a.766.766,0,0,0,.942.437.668.668,0,0,0,.491-.849c-8.077-23.055-7.45-96.949,66.231-118.375a.667.667,0,0,0,.488-.85A.756.756,0,0,0,903.892,1604.272Z" transform="translate(-833.026 -1604.264)" fill="#f3f9ff"/>
        </g>
      </g>
      <path id="Rectángulo_374328" data-name="Rectángulo 374328" d="M0,0H364a30,30,0,0,1,30,30V242a0,0,0,0,1,0,0H30A30,30,0,0,1,0,212V0A0,0,0,0,1,0,0Z" transform="translate(246 4917)" fill="#92df98"/>
      <path id="Rectángulo_374329" data-name="Rectángulo 374329" d="M0,0H364a30,30,0,0,1,30,30V242a0,0,0,0,1,0,0H30A30,30,0,0,1,0,212V0A0,0,0,0,1,0,0Z" transform="translate(601 4885) rotate(180)" fill="#92df98"/>
      <path id="Rectángulo_374327" data-name="Rectángulo 374327" d="M0,0H370a30,30,0,0,1,30,30V489a0,0,0,0,1,0,0H30A30,30,0,0,1,0,459V0A0,0,0,0,1,0,0Z" transform="translate(223 4655)" fill="#edfdee"/>
    </g>
    <g id="Grupo_1067012" data-name="Grupo 1067012" transform="translate(918 1513.5)">
      <g id="Grupo_1067011" data-name="Grupo 1067011" clip-path="url(#clip-path)">
        <g id="Grupo_1066962" data-name="Grupo 1066962">
          <g id="Grupo_1066961" data-name="Grupo 1066961" clip-path="url(#clip-path)">
            <path id="Trazado_806757" data-name="Trazado 806757" d="M422.751,517.865H90.5a9.7,9.7,0,0,1-9.705-9.7V37.465a9.7,9.7,0,0,1,9.705-9.7H422.751a9.7,9.7,0,0,1,9.7,9.7v470.7a9.7,9.7,0,0,1-9.7,9.7" transform="translate(24.767 8.51)" fill="#1969d5"/>
            <g id="Grupo_1066954" data-name="Grupo 1066954" transform="translate(118.335 85.147)" opacity="0.3">
              <g id="Grupo_1066953" data-name="Grupo 1066953">
                <g id="Grupo_1066952" data-name="Grupo 1066952" clip-path="url(#clip-path-3)">
                  <rect id="Rectángulo_375126" data-name="Rectángulo 375126" width="326.113" height="422.896" transform="translate(0 0.001)"/>
                </g>
              </g>
            </g>
            <path id="Trazado_806837" data-name="Trazado 806837" d="M0,0H326.113V440.854H0Z" transform="translate(118.925 54.266)" fill="#fff"/>
            <rect id="Rectángulo_375129" data-name="Rectángulo 375129" width="251.092" height="13.563" transform="translate(156.435 96.17)" fill="#e0e0e0"/>
            <rect id="Rectángulo_375130" data-name="Rectángulo 375130" width="251.093" height="13.563" transform="translate(155.844 455.446)" fill="#e0e0e0"/>
            <rect id="Rectángulo_375131" data-name="Rectángulo 375131" width="182.107" height="1.307" transform="translate(166.174 266.939)" fill="#263238"/>
            <rect id="Rectángulo_375132" data-name="Rectángulo 375132" width="182.107" height="1.307" transform="translate(166.174 286.072)" fill="#263238"/>
            <path id="Trazado_806758" data-name="Trazado 806758" d="M318.813,233.773H284.367V199.327h34.446Zm-33.138-1.307h31.833V200.634H285.675Z" transform="translate(87.174 61.104)" fill="#263238"/>
            <path id="Trazado_806759" data-name="Trazado 806759" d="M305.066,229.784l-18.138-13.506,4.713-6.329,12.163,9.056,16.711-19.935,6.047,5.069Z" transform="translate(87.959 61.025)" fill="#1969d5"/>
            <rect id="Rectángulo_375133" data-name="Rectángulo 375133" width="182.107" height="1.307" transform="translate(166.174 206.408)" fill="#263238"/>
            <rect id="Rectángulo_375134" data-name="Rectángulo 375134" width="182.107" height="1.307" transform="translate(166.174 225.54)" fill="#263238"/>
            <path id="Trazado_806760" data-name="Trazado 806760" d="M318.813,187.443H284.367V153h34.446Zm-33.138-1.307h31.833V154.3H285.675Z" transform="translate(87.174 46.902)" fill="#263238"/>
            <path id="Trazado_806761" data-name="Trazado 806761" d="M305.066,183.455l-18.138-13.506,4.713-6.329,12.163,9.056,16.711-19.935,6.047,5.069Z" transform="translate(87.959 46.823)" fill="#1969d5"/>
            <rect id="Rectángulo_375135" data-name="Rectángulo 375135" width="182.107" height="1.307" transform="translate(166.174 145.877)" fill="#263238"/>
            <rect id="Rectángulo_375136" data-name="Rectángulo 375136" width="182.107" height="1.307" transform="translate(166.174 165.008)" fill="#263238"/>
            <path id="Trazado_806762" data-name="Trazado 806762" d="M318.813,141.114H284.367V106.668h34.446Zm-33.138-1.307h31.833V107.975H285.675Z" transform="translate(87.174 32.699)" fill="#263238"/>
            <path id="Trazado_806763" data-name="Trazado 806763" d="M305.066,137.125,286.928,123.62l4.713-6.329,12.163,9.056,16.711-19.935,6.047,5.069Z" transform="translate(87.959 32.621)" fill="#1969d5"/>
            <rect id="Rectángulo_375137" data-name="Rectángulo 375137" width="182.107" height="1.307" transform="translate(166.174 326.433)" fill="#263238"/>
            <rect id="Rectángulo_375138" data-name="Rectángulo 375138" width="182.107" height="1.307" transform="translate(166.174 345.566)" fill="#263238"/>
            <path id="Trazado_806764" data-name="Trazado 806764" d="M318.813,279.307H284.367V244.862h34.446ZM285.675,278h31.833V246.169H285.675Z" transform="translate(87.174 75.063)" fill="#263238"/>
            <rect id="Rectángulo_375139" data-name="Rectángulo 375139" width="182.107" height="1.307" transform="translate(166.174 385.927)" fill="#263238"/>
            <rect id="Rectángulo_375140" data-name="Rectángulo 375140" width="182.107" height="1.307" transform="translate(166.174 405.059)" fill="#263238"/>
            <path id="Trazado_806765" data-name="Trazado 806765" d="M318.813,324.842H284.367V290.4h34.446Zm-33.138-1.307h31.833V291.7H285.675Z" transform="translate(87.174 89.022)" fill="#263238"/>
            <rect id="Rectángulo_375141" data-name="Rectángulo 375141" width="111.553" height="42.074" transform="translate(225.614 27.792)" fill="#263238"/>
            <path id="Trazado_806766" data-name="Trazado 806766" d="M259.413,32.038H194.18L186.906,0h81.435Z" transform="translate(57.297 0)" fill="#263238"/>
            <g id="Grupo_1066957" data-name="Grupo 1066957" transform="translate(310.501)" opacity="0.3">
              <g id="Grupo_1066956" data-name="Grupo 1066956">
                <g id="Grupo_1066955" data-name="Grupo 1066955" clip-path="url(#clip-path-4)">
                  <path id="Trazado_806767" data-name="Trazado 806767" d="M246.13,0c-.076.2-8.689,27.427-8.477,27.427h7.4L252.893,0Z" transform="translate(-237.649)"/>
                </g>
              </g>
            </g>
            <g id="Grupo_1066960" data-name="Grupo 1066960" transform="translate(329.726 27.792)" opacity="0.3">
              <g id="Grupo_1066959" data-name="Grupo 1066959">
                <g id="Grupo_1066958" data-name="Grupo 1066958" clip-path="url(#clip-path-5)">
                  <path id="Trazado_806768" data-name="Trazado 806768" d="M252.6,21.271s-.538,42.074,0,42.074h7.2V21.271Z" transform="translate(-252.363 -21.271)"/>
                </g>
              </g>
            </g>
          </g>
        </g>
        <g id="Grupo_1066964" data-name="Grupo 1066964">
          <g id="Grupo_1066963" data-name="Grupo 1066963" clip-path="url(#clip-path)">
            <path id="Trazado_806769" data-name="Trazado 806769" d="M17.609,192.852H50.848a15.433,15.433,0,0,1,15.433,15.433V226.91a15.434,15.434,0,0,1-15.433,15.434h-7.56l-1.209,8.606-9.173-8.606h-15.3A15.433,15.433,0,0,1,2.176,226.91V208.285a15.432,15.432,0,0,1,15.433-15.433" transform="translate(0.667 59.119)" fill="#74c67b"/>
            <path id="Trazado_806770" data-name="Trazado 806770" d="M21.117,212.77a3.973,3.973,0,1,1-3.973-3.973,3.972,3.972,0,0,1,3.973,3.973" transform="translate(4.038 64.007)" fill="#fff"/>
            <path id="Trazado_806771" data-name="Trazado 806771" d="M31.476,212.77A3.973,3.973,0,1,1,27.5,208.8a3.972,3.972,0,0,1,3.972,3.973" transform="translate(7.213 64.007)" fill="#fff"/>
            <path id="Trazado_806772" data-name="Trazado 806772" d="M42.108,212.77a3.973,3.973,0,1,1-3.972-3.973,3.972,3.972,0,0,1,3.972,3.973" transform="translate(10.473 64.007)" fill="#fff"/>
          </g>
        </g>
        <g id="Grupo_1066972" data-name="Grupo 1066972">
          <g id="Grupo_1066971" data-name="Grupo 1066971" clip-path="url(#clip-path)">
            <path id="Trazado_806773" data-name="Trazado 806773" d="M18.555,530.177c0-.553-5.759-55.982,6.96-103.133l1.628.422c-12.621,46.858-6.963,101.995-6.963,102.549Z" transform="translate(5.289 130.912)" fill="#263238"/>
            <path id="Trazado_806774" data-name="Trazado 806774" d="M32.2,436.193s-17.517,32.529-14.019,70.865c0,0,7.285-47.1,14.019-70.865" transform="translate(5.433 133.716)" fill="#288640"/>
            <path id="Trazado_806775" data-name="Trazado 806775" d="M2.154,423.869s25.568,35.96,21.144,81.875c-.033.05-9.97-57.69-21.144-81.875" transform="translate(0.66 129.938)" fill="#288640"/>
            <path id="Trazado_806776" data-name="Trazado 806776" d="M23.845,509.38S29.373,461.9,0,448.193c-.082,0,15.581,11.58,23.845,61.187" transform="translate(0 137.395)" fill="#288640"/>
            <path id="Trazado_806777" data-name="Trazado 806777" d="M20.951,429.661l-.537.1a1.414,1.414,0,0,0-1.139,1.644,1.066,1.066,0,0,0,.034.145l.651,2.358a1.414,1.414,0,0,0,2.358.634l.878-.845a1.432,1.432,0,0,1,2.024.054,1.411,1.411,0,0,1,.3.483l1.188,3.253a1.414,1.414,0,0,0,1.81.853,1.432,1.432,0,0,0,.256-.121l2.733-1.627a1.419,1.419,0,0,0,.291-2.2l-.439-.455a1.43,1.43,0,0,1,.071-2.023,1.415,1.415,0,0,1,.921-.384h2.375a1.415,1.415,0,0,0,1.381-1.448,1.169,1.169,0,0,0-.016-.179l-.26-2.033a1.414,1.414,0,0,0-2.033-1.09l-.162.081a1.431,1.431,0,0,1-1.919-1.854l.78-1.79a1.416,1.416,0,0,0-.732-1.862,1.454,1.454,0,0,0-.391-.106l-2.52-.341a1.415,1.415,0,0,0-1.611,1.186,1.38,1.38,0,0,0-.016.179,1.431,1.431,0,0,1-2.667.651l-.325-.585a1.431,1.431,0,0,0-1.953-.53,1.369,1.369,0,0,0-.259.189l-1.871,1.756a1.432,1.432,0,0,0-.059,2.024l.059.059,1.5,1.382a1.431,1.431,0,0,1-.7,2.439" transform="translate(5.902 129.026)" fill="#407bff"/>
            <g id="Grupo_1066967" data-name="Grupo 1066967" transform="translate(25.153 549.921)" opacity="0.7" style="isolation: isolate">
              <g id="Grupo_1066966" data-name="Grupo 1066966">
                <g id="Grupo_1066965" data-name="Grupo 1066965" clip-path="url(#clip-path-8)">
                  <path id="Trazado_806778" data-name="Trazado 806778" d="M20.951,429.661l-.537.1a1.414,1.414,0,0,0-1.139,1.644,1.066,1.066,0,0,0,.034.145l.651,2.358a1.414,1.414,0,0,0,2.358.634l.878-.845a1.432,1.432,0,0,1,2.024.054,1.411,1.411,0,0,1,.3.483l1.188,3.253a1.414,1.414,0,0,0,1.81.853,1.432,1.432,0,0,0,.256-.121l2.733-1.627a1.419,1.419,0,0,0,.291-2.2l-.439-.455a1.43,1.43,0,0,1,.071-2.023,1.415,1.415,0,0,1,.921-.384h2.375a1.415,1.415,0,0,0,1.381-1.448,1.169,1.169,0,0,0-.016-.179l-.26-2.033a1.414,1.414,0,0,0-2.033-1.09l-.162.081a1.431,1.431,0,0,1-1.919-1.854l.78-1.79a1.416,1.416,0,0,0-.732-1.862,1.454,1.454,0,0,0-.391-.106l-2.52-.341a1.415,1.415,0,0,0-1.611,1.186,1.38,1.38,0,0,0-.016.179,1.431,1.431,0,0,1-2.667.651l-.325-.585a1.431,1.431,0,0,0-1.953-.53,1.369,1.369,0,0,0-.259.189l-1.871,1.756a1.432,1.432,0,0,0-.059,2.024l.059.059,1.5,1.382a1.431,1.431,0,0,1-.7,2.439" transform="translate(-19.252 -420.894)" fill="#fff"/>
                </g>
              </g>
            </g>
            <path id="Trazado_806779" data-name="Trazado 806779" d="M28.943,489.4l2.049-15.858H13.1L15.134,489.4A21.222,21.222,0,0,0,.822,509.434,35.073,35.073,0,0,0,4.3,523.568a12.393,12.393,0,0,0,11.27,7.059H28.585a12.347,12.347,0,0,0,11.255-7.059,34.859,34.859,0,0,0,3.5-14.134A21.146,21.146,0,0,0,28.943,489.4" transform="translate(0.252 145.165)" fill="#407bff"/>
            <g id="Grupo_1066970" data-name="Grupo 1066970" transform="translate(1.074 618.703)" opacity="0.7" style="isolation: isolate">
              <g id="Grupo_1066969" data-name="Grupo 1066969">
                <g id="Grupo_1066968" data-name="Grupo 1066968" clip-path="url(#clip-path-9)">
                  <path id="Trazado_806780" data-name="Trazado 806780" d="M28.943,489.4l2.049-15.858H13.1L15.134,489.4A21.222,21.222,0,0,0,.822,509.434,35.073,35.073,0,0,0,4.3,523.568a12.393,12.393,0,0,0,11.27,7.059H28.585a12.347,12.347,0,0,0,11.255-7.059,34.859,34.859,0,0,0,3.5-14.134A21.146,21.146,0,0,0,28.943,489.4" transform="translate(-0.822 -473.538)" fill="#fff"/>
                </g>
              </g>
            </g>
          </g>
        </g>
        <g id="Grupo_1067010" data-name="Grupo 1067010">
          <g id="Grupo_1067009" data-name="Grupo 1067009" clip-path="url(#clip-path)">
            <path id="Trazado_806781" data-name="Trazado 806781" d="M90.893,278.2s17.619,41.725,19.871,41.94,31.053-11.009,31.053-11.009l4.48,5.062s-15.084,20.171-38.963,26.573c-4.289,1.152-9.705-3.707-14.869-10.351-1.011-1.291-2-2.658-2.985-4.062a207.078,207.078,0,0,1-14.262-24.638Z" transform="translate(23.058 85.283)" fill="#407bff"/>
            <g id="Grupo_1066975" data-name="Grupo 1066975" transform="translate(98.277 363.483)" opacity="0.6">
              <g id="Grupo_1066974" data-name="Grupo 1066974">
                <g id="Grupo_1066973" data-name="Grupo 1066973" clip-path="url(#clip-path-11)">
                  <path id="Trazado_806782" data-name="Trazado 806782" d="M90.893,278.2s17.619,41.725,19.871,41.94,31.053-11.009,31.053-11.009l4.48,5.062s-15.084,20.171-38.963,26.573c-4.289,1.152-9.705-3.707-14.869-10.351-1.011-1.291-2-2.658-2.985-4.062a207.078,207.078,0,0,1-14.262-24.638Z" transform="translate(-75.219 -278.2)" fill="#f3f9ff"/>
                </g>
              </g>
            </g>
            <g id="Grupo_1066978" data-name="Grupo 1066978" transform="translate(110.336 374.381)" opacity="0.2" style="isolation: isolate">
              <g id="Grupo_1066977" data-name="Grupo 1066977">
                <g id="Grupo_1066976" data-name="Grupo 1066976" clip-path="url(#clip-path-12)">
                  <path id="Trazado_806783" data-name="Trazado 806783" d="M91.485,286.541a142.576,142.576,0,0,0,5.776,17.544,9.993,9.993,0,0,1,.651,5.329c-.888,5.173-5.359,6.828-6.846,10.952a26.77,26.77,0,0,0-1.428,7.49c-1.013-1.291-2-2.657-2.988-4.062l-2.2-8.706Z" transform="translate(-84.448 -286.541)"/>
                </g>
              </g>
            </g>
            <path id="Trazado_806784" data-name="Trazado 806784" d="M52.306,518.084l10.748-.482,3.986-27.958-16.376.557Z" transform="translate(15.531 150.102)" fill="#b97964"/>
            <path id="Trazado_806785" data-name="Trazado 806785" d="M65.194,507.29H61.371a2.717,2.717,0,0,0-2.177,1.135c-2.2,3.01-3.861,1.872-6.258-.958-1.525-.178-1.935,1.572-2.059,2.042L48.019,519.9a1.634,1.634,0,0,0,1.122,2.021,1.615,1.615,0,0,0,.474.063H79.9c4.817,0,5.815-4.854,3.831-5.3-8.922-1.972-15.241-4.6-18-7.194-.512-.455.013-.794-.542-2.2" transform="translate(14.701 155.511)" fill="#263238"/>
            <path id="Trazado_806786" data-name="Trazado 806786" d="M68.357,510.446a1.557,1.557,0,0,0,.649-1.248.7.7,0,0,0-.312-.674c-1.2-.848-5.977,1.385-6.514,1.648a.212.212,0,0,0,0,.4,17.328,17.328,0,0,0,3.583.463,4.269,4.269,0,0,0,2.595-.587m.038-1.56a.277.277,0,0,1,.125.287,1.252,1.252,0,0,1-.476.911c-1.084.811-3.705.461-5.116.2,1.985-.874,4.806-1.861,5.467-1.4" transform="translate(19.018 155.831)" fill="#407bff"/>
            <path id="Trazado_806787" data-name="Trazado 806787" d="M62.351,511.229c1.435-.6,4.442-2.958,4.28-4.206-.025-.261-.212-.574-.861-.661-2.621-.3-3.745,4.406-3.745,4.606a.212.212,0,0,0,.063.223.267.267,0,0,0,.15,0Zm3.332-4.48c.487.05.487.225.487.287.137.76-2.047,2.72-3.607,3.543.324-1.1,1.286-3.844,2.945-3.844Z" transform="translate(19.011 155.223)" fill="#407bff"/>
            <path id="Trazado_806788" data-name="Trazado 806788" d="M60.15,512.439a.334.334,0,0,1-.174-.05.328.328,0,0,1-.1-.451,4.947,4.947,0,0,1,3.479-2.241.327.327,0,0,1,.088.648,4.287,4.287,0,0,0-3.014,1.94.323.323,0,0,1-.276.153" transform="translate(18.339 156.249)" fill="#407bff"/>
            <path id="Trazado_806789" data-name="Trazado 806789" d="M61.968,513.809a.335.335,0,0,1-.174-.05.327.327,0,0,1-.1-.451,4.952,4.952,0,0,1,3.478-2.242.337.337,0,0,1,.367.28.326.326,0,0,1-.278.368,4.292,4.292,0,0,0-3.016,1.942.323.323,0,0,1-.276.153" transform="translate(18.896 156.668)" fill="#407bff"/>
            <path id="Trazado_806790" data-name="Trazado 806790" d="M64.231,514.96a.334.334,0,0,1-.174-.05.327.327,0,0,1-.1-.451,4.947,4.947,0,0,1,3.478-2.242.335.335,0,0,1,.367.28.328.328,0,0,1-.28.37,4.282,4.282,0,0,0-3.014,1.94.322.322,0,0,1-.276.153" transform="translate(19.59 157.021)" fill="#407bff"/>
            <g id="Grupo_1066981" data-name="Grupo 1066981" transform="translate(67.06 654.988)" opacity="0.3">
              <g id="Grupo_1066980" data-name="Grupo 1066980">
                <g id="Grupo_1066979" data-name="Grupo 1066979" clip-path="url(#clip-path-13)">
                  <path id="Trazado_806791" data-name="Trazado 806791" d="M64.664,501.31l-.513,3.6-12.625-.222-.2-3.375Z" transform="translate(-51.326 -501.31)"/>
                </g>
              </g>
            </g>
            <path id="Trazado_806792" data-name="Trazado 806792" d="M86.612,515.931l11.666-1.478,2.57-26.356-16-.447Z" transform="translate(26.01 149.491)" fill="#b97964"/>
            <path id="Trazado_806793" data-name="Trazado 806793" d="M99.625,506.48H95.8a2.712,2.712,0,0,0-2.175,1.135c-2.205,3.01-3.862,1.872-6.26-.958-1.525-.178-1.935,1.572-2.059,2.042L82.45,519.095a1.634,1.634,0,0,0,1.122,2.021,1.615,1.615,0,0,0,.474.063h30.289c4.817,0,5.815-4.854,3.831-5.3-8.922-1.972-15.241-4.6-18-7.194-.512-.455.014-.794-.542-2.2" transform="translate(25.256 155.263)" fill="#263238"/>
            <path id="Trazado_806794" data-name="Trazado 806794" d="M103.411,509.238a1.557,1.557,0,0,0,.649-1.248.7.7,0,0,0-.312-.674c-1.2-.848-5.977,1.385-6.514,1.648a.212.212,0,0,0,0,.4,17.422,17.422,0,0,0,3.583.461,4.269,4.269,0,0,0,2.595-.587m.038-1.56a.275.275,0,0,1,.125.287,1.255,1.255,0,0,1-.474.911c-1.086.811-3.707.461-5.118.2,1.985-.874,4.805-1.859,5.467-1.4" transform="translate(29.764 155.461)" fill="#407bff"/>
            <path id="Trazado_806795" data-name="Trazado 806795" d="M97.4,510.021c1.435-.6,4.442-2.958,4.28-4.206-.025-.261-.212-.574-.861-.661-2.621-.3-3.745,4.406-3.745,4.6a.213.213,0,0,0,.063.225.267.267,0,0,0,.15,0Zm3.332-4.48c.487.05.487.225.487.287.137.76-2.047,2.72-3.607,3.543.325-1.1,1.286-3.844,2.945-3.844Z" transform="translate(29.757 154.852)" fill="#407bff"/>
            <path id="Trazado_806796" data-name="Trazado 806796" d="M95.2,511.231a.334.334,0,0,1-.174-.05.328.328,0,0,1-.1-.451,4.953,4.953,0,0,1,3.479-2.242.333.333,0,0,1,.367.28.328.328,0,0,1-.28.37,4.287,4.287,0,0,0-3.014,1.94.323.323,0,0,1-.276.153" transform="translate(29.085 155.878)" fill="#407bff"/>
            <path id="Trazado_806797" data-name="Trazado 806797" d="M97.022,512.6a.334.334,0,0,1-.174-.05.327.327,0,0,1-.1-.451,4.947,4.947,0,0,1,3.478-2.242.338.338,0,0,1,.367.28.326.326,0,0,1-.278.368,4.282,4.282,0,0,0-3.014,1.942.326.326,0,0,1-.277.153" transform="translate(29.642 156.298)" fill="#407bff"/>
            <path id="Trazado_806798" data-name="Trazado 806798" d="M99.284,513.752a.334.334,0,0,1-.174-.05.327.327,0,0,1-.1-.451,4.952,4.952,0,0,1,3.478-2.242.335.335,0,0,1,.367.28.326.326,0,0,1-.278.368,4.29,4.29,0,0,0-3.016,1.942.323.323,0,0,1-.276.153" transform="translate(30.336 156.651)" fill="#407bff"/>
            <g id="Grupo_1066984" data-name="Grupo 1066984" transform="translate(111.872 653.41)" opacity="0.3">
              <g id="Grupo_1066983" data-name="Grupo 1066983">
                <g id="Grupo_1066982" data-name="Grupo 1066982" clip-path="url(#clip-path-14)">
                  <path id="Trazado_806799" data-name="Trazado 806799" d="M99.067,500.1l-.351,3.607-12.872-.084-.219-3.524Z" transform="translate(-85.624 -500.102)"/>
                </g>
              </g>
            </g>
            <path id="Trazado_806800" data-name="Trazado 806800" d="M43.943,330.368c6.79-10.6-2.659-21.1-2.443-33.459s5.514-24.608,6.176-36.953c.317-5.938,1.141-11.95,3.658-17.41s7.17-11.253,13.018-13.489l29.5,12.6c4.615,21.49,4.394,35.3,3.8,48.623a258.767,258.767,0,0,1-4.657,41.533,12.149,12.149,0,0,1-2.1,5.471c-1.716,2.1-4.581,2.978-7.268,3.745-6.841,1.952-13.732,3.914-20.833,4.634s-8.405-.037-14.808-2.989c-2.162-1-5.467-3.046-5.765-5.3a13.229,13.229,0,0,1,1.727-7.008" transform="translate(12.721 70.218)" fill="#263238"/>
            <path id="Trazado_806801" data-name="Trazado 806801" d="M67.893,340.294l29.966.123s10.469,52.709,9.855,111.806c1.223,34.694.243,98.489.243,98.489H88.468S76.052,498.9,81.024,457.849c-1.808-7.079-4.224-19.336-5.644-25.591A446.629,446.629,0,0,1,66.414,381.1c-3.422-32.26,1.479-40.806,1.479-40.806" transform="translate(19.987 104.318)" fill="#263238"/>
            <g id="Grupo_1066987" data-name="Grupo 1066987" transform="translate(86.402 465.312)" opacity="0.2" style="isolation: isolate">
              <g id="Grupo_1066986" data-name="Grupo 1066986">
                <g id="Grupo_1066985" data-name="Grupo 1066985" clip-path="url(#clip-path-15)">
                  <path id="Trazado_806802" data-name="Trazado 806802" d="M70.263,356.137s10.8,48.525,4.832,71.262a446.319,446.319,0,0,1-8.964-51.155Z" transform="translate(-66.13 -356.137)"/>
                </g>
              </g>
            </g>
            <path id="Trazado_806803" data-name="Trazado 806803" d="M51.61,329.729c-2.616,11.709-12.864,26.012-14.938,40.99-3.541,25.584,11.839,57.4,15.864,87.42-6.077,44.391,3.24,98.223,2.006,97.059l19.564.018c.594-3.969,4.606-64.119,6.6-99.757,1.688-31.189,4.385-109.634,4.385-109.634Z" transform="translate(11.081 101.079)" fill="#263238"/>
            <path id="Trazado_806804" data-name="Trazado 806804" d="M102.965,321.45c-1.506,10.339.73,32.426,5.067,47.659,1.542,5.416-42.3,4.691-66.9-3.432l8.216-25.454c-.025-2.1-4.09-17.165-4.191-19.38a248.44,248.44,0,0,0-3.581-32.028,13.365,13.365,0,0,1-.171-1.388c-.4-5.749-.551-10.2,4.454-12.365a42.551,42.551,0,0,1,7.814-1.748c2.1-.153,4.557-.477,6.835-.54s2.34-.366,4.441-.366a160.319,160.319,0,0,1,19.057,1.36l1.265.165c2.139.278,4.316.634,6.416.988,0,0,5.322.763,8.358,3.308s9.97,28.851,8.758,35.712a9.5,9.5,0,0,1-5.842,7.509" transform="translate(12.61 83.504)" fill="#407bff"/>
            <g id="Grupo_1066990" data-name="Grupo 1066990" transform="translate(53.747 355.902)" opacity="0.6">
              <g id="Grupo_1066989" data-name="Grupo 1066989">
                <g id="Grupo_1066988" data-name="Grupo 1066988" clip-path="url(#clip-path-16)">
                  <path id="Trazado_806805" data-name="Trazado 806805" d="M102.965,321.45c-1.506,10.339.73,32.426,5.067,47.659,1.542,5.416-42.3,4.691-66.9-3.432l8.216-25.454c-.025-2.1-4.09-17.165-4.191-19.38a248.44,248.44,0,0,0-3.581-32.028,13.365,13.365,0,0,1-.171-1.388c-.4-5.749-.551-10.2,4.454-12.365a42.551,42.551,0,0,1,7.814-1.748c2.1-.153,4.557-.477,6.835-.54s2.34-.366,4.441-.366a160.319,160.319,0,0,1,19.057,1.36l1.265.165c2.139.278,4.316.634,6.416.988,0,0,5.322.763,8.358,3.308s9.97,28.851,8.758,35.712a9.5,9.5,0,0,1-5.842,7.509" transform="translate(-41.137 -272.398)" fill="#f3f9ff"/>
                </g>
              </g>
            </g>
            <g id="Grupo_1066993" data-name="Grupo 1066993" transform="translate(56.567 408.302)" opacity="0.2" style="isolation: isolate">
              <g id="Grupo_1066992" data-name="Grupo 1066992">
                <g id="Grupo_1066991" data-name="Grupo 1066991" clip-path="url(#clip-path-17)">
                  <path id="Trazado_806806" data-name="Trazado 806806" d="M45.963,336.379,43.3,344.645S73.13,339.4,88.084,326.033c10.646-9.521,8.981-13.531,8.981-13.531l-12.059,1.165Z" transform="translate(-43.295 -312.503)"/>
                </g>
              </g>
            </g>
            <g id="Grupo_1066996" data-name="Grupo 1066996" transform="translate(57.742 386.218)" opacity="0.2" style="isolation: isolate">
              <g id="Grupo_1066995" data-name="Grupo 1066995">
                <g id="Grupo_1066994" data-name="Grupo 1066994" clip-path="url(#clip-path-18)">
                  <path id="Trazado_806807" data-name="Trazado 806807" d="M52.685,295.6l.577,28.644c-4.5,2.865-5.92,4.619-6.6.516l-2.464-11.637Z" transform="translate(-44.194 -295.601)"/>
                </g>
              </g>
            </g>
            <path id="Trazado_806808" data-name="Trazado 806808" d="M58.124,302.193s-11.3,27.979-9.258,29.269,34.554-7.6,34.554-7.6l6.277,8.3c-1.1,4.834-58.36,34.343-62.941,8.87-2.784-15.476,14.524-57.039,14.524-57.039,4.357-7.762,10.416-11.466,12.8-9.258,6.247,5.779,4.04,27.466,4.04,27.466" transform="translate(8.109 84.025)" fill="#407bff"/>
            <g id="Grupo_1066999" data-name="Grupo 1066999" transform="translate(34.562 358.121)" opacity="0.6">
              <g id="Grupo_1066998" data-name="Grupo 1066998">
                <g id="Grupo_1066997" data-name="Grupo 1066997" clip-path="url(#clip-path-19)">
                  <path id="Trazado_806809" data-name="Trazado 806809" d="M58.124,302.193s-11.3,27.979-9.258,29.269,34.554-7.6,34.554-7.6l6.277,8.3c-1.1,4.834-58.36,34.343-62.941,8.87-2.784-15.476,14.524-57.039,14.524-57.039,4.357-7.762,10.416-11.466,12.8-9.258,6.247,5.779,4.04,27.466,4.04,27.466" transform="translate(-26.453 -274.096)" fill="#f3f9ff"/>
                </g>
              </g>
            </g>
            <path id="Trazado_806810" data-name="Trazado 806810" d="M76.45,324.05c3.844.3,3.98-5.486,5.979-5.714a11.372,11.372,0,0,0,3.379-.86s-1.266,3.479,0,3.2,5.327-.481,6.326-3.8-2.62-10.4-3.441-11.388-5.15-.683-5.15-.683,4.657-1.2,7.213-1.557,3.04-3.274-.525-2.629c-1.465.265-13.028.351-14.281,1.54s-5.9,12.88-5.9,12.88c-1.721.986,2.652,10.791,6.4,9.006" transform="translate(21.356 92.129)" fill="#b97964"/>
            <g id="Grupo_1067002" data-name="Grupo 1067002" transform="translate(101.067 396.539)" opacity="0.3">
              <g id="Grupo_1067001" data-name="Grupo 1067001">
                <g id="Grupo_1067000" data-name="Grupo 1067000" clip-path="url(#clip-path-20)">
                  <path id="Trazado_806811" data-name="Trazado 806811" d="M81.14,303.533a13.32,13.32,0,0,0-3.543.227.329.329,0,0,0,.114.645,13.015,13.015,0,0,1,3.354-.227c.418,0,.494-.621.076-.645" transform="translate(-77.354 -303.5)"/>
                  <path id="Trazado_806812" data-name="Trazado 806812" d="M86.325,306.48c.367.189.746-.341.38-.532-2.165-1.151-4.442-.506-6.631.229-.393.125-.115.721.278.594,1.923-.645,4.049-1.266,5.972-.291" transform="translate(-76.579 -302.942)"/>
                  <path id="Trazado_806813" data-name="Trazado 806813" d="M87.585,308.611a6.451,6.451,0,0,0-6.125-.265.329.329,0,0,0,.267.594,5.831,5.831,0,0,1,5.491.2c.354.214.734-.316.367-.532" transform="translate(-76.143 -302.213)"/>
                  <path id="Trazado_806814" data-name="Trazado 806814" d="M84.328,312.465a5.261,5.261,0,0,0,.393-1.069c.089-.405-.519-.634-.621-.229a4.592,4.592,0,0,1-2.138,2.974c-.367.2-.089.8.265.594h-.038a5.234,5.234,0,0,0,1.705-1.56c.043,0,.081.022.129,0a1.76,1.76,0,0,1,1.911.507c.278.316.772-.1.493-.418a2.411,2.411,0,0,0-2.1-.8" transform="translate(-75.994 -301.215)"/>
                </g>
              </g>
            </g>
            <path id="Trazado_806815" data-name="Trazado 806815" d="M99.924,331.868a3.1,3.1,0,0,1-1.578-3.773l11.783-47.462a4.934,4.934,0,0,1,4.464-3.773l30.878.645a2.147,2.147,0,0,1,1,.136,3.1,3.1,0,0,1,1.577,3.775l-11.8,47.461a4.931,4.931,0,0,1-4.464,3.772L100.906,332a2.154,2.154,0,0,1-.981-.136" transform="translate(30.106 84.872)" fill="#263238"/>
            <path id="Trazado_806816" data-name="Trazado 806816" d="M132.375,297.378c-.608-.051-3.189,1.227-4.4.38s-.077-1.544-.077-1.544c2.228-.544,4.67-3.328,6.025-2.531s3.593,1.8,3.264,3.063a28.025,28.025,0,0,1-1.341,3.428,1.992,1.992,0,0,1,.127,1.874,2.215,2.215,0,0,1-1.633,1.354,2.112,2.112,0,0,1,.608,1.62c-.1.962-2.631,2.228-2.631,2.228s.493,1.505-.089,2.087a4.059,4.059,0,0,1-3.543.81c-1.48-.354-2.493-.86-2.392-2.353s2.773-1.493,2.773-1.493-5.012-1.518-3.948-2.468,5.062-.835,5.062-.835-6.782-1.342-5.707-2.733,7.833-1.013,7.833-1.013.683-1.821.076-1.872" transform="translate(38.12 89.986)" fill="#b97964"/>
            <path id="Trazado_806817" data-name="Trazado 806817" d="M134,276.02l-17.006-.3-1.47,3.758,17.295.34Z" transform="translate(35.414 84.524)" fill="#263238"/>
            <path id="Trazado_806818" data-name="Trazado 806818" d="M121.133,276.882v-3.044h8.139l-1.853,3.508Z" transform="translate(37.134 83.946)" fill="#263238"/>
            <path id="Trazado_806819" data-name="Trazado 806819" d="M70.688,236.032s9.45,17.028,9.9,22.326c3.617,3.08,6.188-3.166,6.053-11.534-.111-6.85-3.684-14.244-9.6-16.905-8.316-3.739-6.346,6.113-6.346,6.113" transform="translate(21.607 70.223)" fill="#263238"/>
            <path id="Trazado_806820" data-name="Trazado 806820" d="M73.647,278.007c-1.584-1.581-1.2-3.482-.905-5.783a23.305,23.305,0,0,1,1.459-5.4l-2.361-2.566L59.556,252.732c.587,7.975,1.563,21.669-4.522,26.23l25.678,16.324-2.374-15.622a15.464,15.464,0,0,1-4.691-1.657" transform="translate(16.871 77.476)" fill="#b97964"/>
            <g id="Grupo_1067005" data-name="Grupo 1067005" transform="translate(82.788 337.335)" opacity="0.2">
              <g id="Grupo_1067004" data-name="Grupo 1067004">
                <g id="Grupo_1067003" data-name="Grupo 1067003" clip-path="url(#clip-path-21)">
                  <path id="Trazado_806821" data-name="Trazado 806821" d="M70.118,271.237c-3.33-1.816-7.028-5.042-6.738-8.892a17.888,17.888,0,0,1,.777-4.157l6.935,8.524a22.1,22.1,0,0,0-.975,4.526" transform="translate(-63.364 -258.187)"/>
                </g>
              </g>
            </g>
            <path id="Trazado_806822" data-name="Trazado 806822" d="M55.605,247.239c1.557,12.135,1.959,17.29,8.473,23.446,9.8,9.261,24.222,5.5,26.287-6.657,1.859-10.944-1-28.949-13.137-33.633-11.959-4.613-23.18,4.709-21.622,16.844" transform="translate(17.001 70.26)" fill="#b97964"/>
            <path id="Trazado_806823" data-name="Trazado 806823" d="M68.21,246.742c.009,1.142.666,2.113,1.466,2.166s1.439-.827,1.429-1.969-.666-2.113-1.466-2.168-1.439.828-1.429,1.97" transform="translate(20.91 75.035)" fill="#263238"/>
            <path id="Trazado_806824" data-name="Trazado 806824" d="M77.078,246.028a1.971,1.971,0,0,0,1.338,2.186c.792.1,1.478-.712,1.533-1.817a1.973,1.973,0,0,0-1.338-2.187c-.792-.1-1.479.713-1.533,1.819" transform="translate(23.627 74.86)" fill="#263238"/>
            <path id="Trazado_806825" data-name="Trazado 806825" d="M65.869,243.919a.544.544,0,0,0,.426-.159,4.392,4.392,0,0,1,3.959-1.3.55.55,0,0,0,.683-.438.651.651,0,0,0-.48-.729,5.484,5.484,0,0,0-5.024,1.59.611.611,0,0,0,.027.849.626.626,0,0,0,.408.191" transform="translate(20.01 73.935)" fill="#263238"/>
            <path id="Trazado_806826" data-name="Trazado 806826" d="M81.538,241.786a.545.545,0,0,0,.328-.281.592.592,0,0,0-.3-.783,6.287,6.287,0,0,0-5.569-.14.546.546,0,0,0-.187.789.648.648,0,0,0,.841.222,5.023,5.023,0,0,1,4.41.158.642.642,0,0,0,.48.034" transform="translate(23.21 73.576)" fill="#263238"/>
            <path id="Trazado_806827" data-name="Trazado 806827" d="M53.24,252.451a9.8,9.8,0,0,0,6.085,4.387c3.252.691,4.728-4.551,3.511-7.739a6.482,6.482,0,0,0-7.446-3.933c-3.066.737-3.9,4.489-2.149,7.284" transform="translate(16.044 75.105)" fill="#b97964"/>
            <path id="Trazado_806828" data-name="Trazado 806828" d="M74.424,244.876a41.309,41.309,0,0,0,4.322,7.251.941.941,0,0,1-.389,1.453,6.035,6.035,0,0,1-3.261.171Z" transform="translate(22.815 75.067)" fill="#c15854"/>
            <path id="Trazado_806829" data-name="Trazado 806829" d="M69.119,244.865l2.825-.528s-1.625,2.011-2.825.528" transform="translate(21.189 74.902)" fill="#263238"/>
            <path id="Trazado_806830" data-name="Trazado 806830" d="M77.936,244.3l2.851-.359c-1.388,1.521-2.493.86-2.851.359" transform="translate(23.892 74.781)" fill="#263238"/>
            <path id="Trazado_806831" data-name="Trazado 806831" d="M53.164,238.665c-1.651,2.386,1.637,9.318,1.637,9.318s5.839-1.736,6.158,7.061c2.155.357,4.572-7.858,4.22-16.114-.432-4.666-9.1-4.478-12.015-.265" transform="translate(16.155 72.183)" fill="#263238"/>
            <g id="Grupo_1067008" data-name="Grupo 1067008" transform="translate(70.873 322.858)" opacity="0.2">
              <g id="Grupo_1067007" data-name="Grupo 1067007">
                <g id="Grupo_1067006" data-name="Grupo 1067006" clip-path="url(#clip-path-22)">
                  <path id="Trazado_806832" data-name="Trazado 806832" d="M58.008,253.2a.3.3,0,0,1-.076-.009,4.691,4.691,0,0,1-3.3-2.311,2.9,2.9,0,0,1-.246-2.307,2.285,2.285,0,0,1,2.864-1.324.328.328,0,0,1,.187.422.324.324,0,0,1-.422.188,1.641,1.641,0,0,0-2.021.954,2.251,2.251,0,0,0,.217,1.765,4.071,4.071,0,0,0,2.874,1.978.327.327,0,0,1-.076.644" transform="translate(-54.244 -247.107)"/>
                </g>
              </g>
            </g>
            <path id="Trazado_806833" data-name="Trazado 806833" d="M77.693,255.522a30.687,30.687,0,0,0-2.034,3.959c-.255-.059-.51-.118-.762-.189-3.441-.883-4.747-2.431-5.15-3.878a4.585,4.585,0,0,1-.024-2.169,4.449,4.449,0,0,1,.406-1.173c1.546,1.559,4.691,2.629,6.394,3.13.712.218,1.169.32,1.169.32" transform="translate(21.337 77.273)" fill="#263238"/>
            <path id="Trazado_806834" data-name="Trazado 806834" d="M76.5,255.2l-.63,1.151c-3.24-.84-5.409-1.866-6.172-3.11a4.477,4.477,0,0,1,.408-1.173c1.544,1.559,4.691,2.63,6.394,3.132" transform="translate(21.365 77.273)" fill="#fff"/>
            <path id="Trazado_806835" data-name="Trazado 806835" d="M74.863,258.507c-3.443-.883-4.748-2.431-5.15-3.878a11.426,11.426,0,0,1,3.628,1.739,4.286,4.286,0,0,1,1.522,2.139" transform="translate(21.371 78.057)" fill="#dc5753"/>
            <path id="Trazado_806836" data-name="Trazado 806836" d="M87.778,234.453C85.2,229.1,74.708,224.125,62.644,229.3c-10.9,4.654-14.049,20.523-6.171,21.12S73.641,243.3,73.641,243.3Z" transform="translate(15.968 69.623)" fill="#263238"/>
          </g>
        </g>
      </g>
    </g>
  </g>
</svg>
