<svg xmlns="http://www.w3.org/2000/svg" xmlns:xlink="http://www.w3.org/1999/xlink" width="141" height="141" viewBox="0 0 141 141">
  <defs>
    <clipPath id="clip-path">
      <path id="Trazado_802001" data-name="Trazado 802001" d="M66.382,0A66.382,66.382,0,1,1,0,66.382,66.382,66.382,0,0,1,66.382,0Z" transform="translate(144 2214.611)" fill="#fff" stroke="#1969d5" stroke-width="4"/>
    </clipPath>
    <clipPath id="clip-path-2">
      <path id="path312" d="M0-141H95.1v95.1H0Z" transform="translate(0 141)" fill="#12263f"/>
    </clipPath>
  </defs>
  <g id="Grupo_1067333" data-name="Grupo 1067333" transform="translate(-355.325 -2106.521)">
    <g id="Trazado_802000" data-name="Trazado 802000" transform="translate(355.325 2106.521)" fill="#fff">
      <path d="M 70.5 139 C 61.25167846679688 139 52.28105926513672 137.1891632080078 43.83731842041016 133.6177673339844 C 39.77883911132812 131.9011535644531 35.86428070068359 129.7763977050781 32.20240020751953 127.3024597167969 C 28.57476043701172 124.851676940918 25.1634407043457 122.0370788574219 22.06318092346191 118.9368209838867 C 18.96291923522949 115.8365631103516 16.14831924438477 112.4252395629883 13.69754028320312 108.7975997924805 C 11.22360038757324 105.1357192993164 9.09883975982666 101.2211608886719 7.382239818572998 97.16268157958984 C 3.810839891433716 88.71894073486328 2 79.74832153320312 2 70.5 C 2 61.25167846679688 3.810839891433716 52.28105926513672 7.382239818572998 43.83731842041016 C 9.09883975982666 39.77883911132812 11.22360038757324 35.86428070068359 13.69754028320312 32.20240020751953 C 16.14831924438477 28.57476043701172 18.96291923522949 25.1634407043457 22.06318092346191 22.06318092346191 C 25.1634407043457 18.96291923522949 28.57476043701172 16.14831924438477 32.20240020751953 13.69754028320312 C 35.86428070068359 11.22360038757324 39.77883911132812 9.09883975982666 43.83731842041016 7.382239818572998 C 52.28105926513672 3.810839891433716 61.25167846679688 2 70.5 2 C 79.74832153320312 2 88.71894073486328 3.810839891433716 97.16268157958984 7.382239818572998 C 101.2211608886719 9.09883975982666 105.1357192993164 11.22360038757324 108.7975997924805 13.69754028320312 C 112.4252395629883 16.14831924438477 115.8365631103516 18.96291923522949 118.9368209838867 22.06318092346191 C 122.0370788574219 25.1634407043457 124.851676940918 28.57476043701172 127.3024597167969 32.20240020751953 C 129.7763977050781 35.86428070068359 131.9011535644531 39.77883911132812 133.6177673339844 43.83731842041016 C 137.1891632080078 52.28105926513672 139 61.25167846679688 139 70.5 C 139 79.74832153320312 137.1891632080078 88.71894073486328 133.6177673339844 97.16268157958984 C 131.9011535644531 101.2211608886719 129.7763977050781 105.1357192993164 127.3024597167969 108.7975997924805 C 124.851676940918 112.4252395629883 122.0370788574219 115.8365631103516 118.9368209838867 118.9368209838867 C 115.8365631103516 122.0370788574219 112.4252395629883 124.851676940918 108.7975997924805 127.3024597167969 C 105.1357192993164 129.7763977050781 101.2211608886719 131.9011535644531 97.16268157958984 133.6177673339844 C 88.71894073486328 137.1891632080078 79.74832153320312 139 70.5 139 Z" stroke="none"/>
      <path d="M 70.5 4 C 61.52080535888672 4 52.81230163574219 5.7576904296875 44.61643218994141 9.224258422851562 C 40.67688751220703 10.89054870605469 36.87689208984375 12.95315551757812 33.322021484375 15.35478210449219 C 29.79987335205078 17.73430633544922 26.48765563964844 20.46715545654297 23.47740936279297 23.47740936279297 C 20.46715545654297 26.48765563964844 17.73430633544922 29.79987335205078 15.35478210449219 33.322021484375 C 12.95315551757812 36.87689208984375 10.89054870605469 40.67688751220703 9.224258422851562 44.61643218994141 C 5.7576904296875 52.81230163574219 4 61.52080535888672 4 70.5 C 4 79.47919464111328 5.7576904296875 88.18769836425781 9.224258422851562 96.38356018066406 C 10.89054870605469 100.3231048583984 12.95315551757812 104.1231079101562 15.35478210449219 107.677978515625 C 17.73430633544922 111.2001342773438 20.46715545654297 114.5123443603516 23.47740936279297 117.5225830078125 C 26.48765563964844 120.5328521728516 29.79987335205078 123.2656936645508 33.322021484375 125.6452178955078 C 36.87689208984375 128.0468444824219 40.67688751220703 130.1094512939453 44.61643218994141 131.7757415771484 C 52.81230163574219 135.2423095703125 61.52080535888672 137 70.5 137 C 79.47919464111328 137 88.18769836425781 135.2423095703125 96.38356018066406 131.7757415771484 C 100.3231048583984 130.1094512939453 104.1231079101562 128.0468444824219 107.677978515625 125.6452178955078 C 111.2001342773438 123.2656936645508 114.5123443603516 120.5328521728516 117.5225830078125 117.5225830078125 C 120.5328521728516 114.5123443603516 123.2656936645508 111.2001342773438 125.6452178955078 107.677978515625 C 128.0468444824219 104.1231079101562 130.1094512939453 100.3231048583984 131.7757415771484 96.38356018066406 C 135.2423095703125 88.18769836425781 137 79.47919464111328 137 70.5 C 137 61.52080535888672 135.2423095703125 52.81230163574219 131.7757415771484 44.61643218994141 C 130.1094512939453 40.67688751220703 128.0468444824219 36.87689208984375 125.6452178955078 33.322021484375 C 123.2656936645508 29.79987335205078 120.5328521728516 26.48765563964844 117.5225830078125 23.47740936279297 C 114.5123443603516 20.46715545654297 111.2001342773438 17.73430633544922 107.677978515625 15.35478210449219 C 104.1231079101562 12.95315551757812 100.3231048583984 10.89054870605469 96.38356018066406 9.224258422851562 C 88.18769836425781 5.7576904296875 79.47919464111328 4 70.5 4 M 70.5 0 C 109.4360656738281 0 141 31.56393432617188 141 70.5 C 141 109.4360656738281 109.4360656738281 141 70.5 141 C 31.56393432617188 141 0 109.4360656738281 0 70.5 C 0 31.56393432617188 31.56393432617188 0 70.5 0 Z" stroke="none" fill="#59bee2"/>
    </g>
    <g id="Enmascarar_grupo_1064378" data-name="Enmascarar grupo 1064378" transform="translate(215.443 -103.972)" clip-path="url(#clip-path)">
      <g id="g306" transform="translate(162.832 2227.443)">
        <g id="g308">
          <g id="g310" clip-path="url(#clip-path-2)">
            <g id="g316" transform="translate(47.548 3.065)">
              <path id="path318" d="M0,0V19.391" fill="none" stroke="#12263f" stroke-linecap="round" stroke-linejoin="round" stroke-miterlimit="10" stroke-width="3"/>
            </g>
            <g id="g320" transform="translate(39.15 66.871)">
              <path id="path322" d="M0-9.166H16.8V-27.173a.986.986,0,0,0-.985-.984H.99a.991.991,0,0,0-.99.984Z" transform="translate(0 28.157)" fill="none" stroke="#12263f" stroke-linecap="round" stroke-linejoin="round" stroke-miterlimit="10" stroke-width="3"/>
            </g>
            <g id="g324" transform="translate(47.548 66.871)">
              <path id="path326" d="M0,0V18.991" fill="none" stroke="#12263f" stroke-linecap="round" stroke-linejoin="round" stroke-miterlimit="10" stroke-width="3"/>
            </g>
            <g id="g328" transform="translate(47.548 47.495)">
              <path id="path330" d="M0,0H3.107" fill="none" stroke="#12263f" stroke-linecap="round" stroke-linejoin="round" stroke-miterlimit="10" stroke-width="3"/>
            </g>
            <g id="g332" transform="translate(47.548 42.342)">
              <path id="path334" d="M0-2.487V-7.64" transform="translate(0 7.64)" fill="none" stroke="#12263f" stroke-linecap="round" stroke-linejoin="round" stroke-miterlimit="10" stroke-width="3"/>
            </g>
            <g id="g336" transform="translate(10.149 51.469)">
              <path id="path338" d="M-.323,0H12.551a.667.667,0,0,1,.663.663V7.074a.667.667,0,0,1-.663.663H-.323a.668.668,0,0,1-.669-.663V.663A.668.668,0,0,1-.323,0Z" transform="translate(0.991)" fill="none" stroke="#12263f" stroke-linecap="round" stroke-linejoin="round" stroke-miterlimit="10" stroke-width="3"/>
            </g>
            <g id="g340" transform="translate(17.252 51.469)">
              <path id="path342" d="M0,0V7.738" transform="translate(0 0)" fill="none" stroke="#12263f" stroke-linecap="round" stroke-linejoin="round" stroke-miterlimit="10" stroke-width="3"/>
            </g>
            <g id="g344" transform="translate(10.149 65.397)">
              <path id="path346" d="M-.323,0H12.551a.668.668,0,0,1,.663.668V7.074a.668.668,0,0,1-.663.669H-.323a.67.67,0,0,1-.669-.669V.668A.67.67,0,0,1-.323,0Z" transform="translate(0.991)" fill="none" stroke="#12263f" stroke-linecap="round" stroke-linejoin="round" stroke-miterlimit="10" stroke-width="3"/>
            </g>
            <g id="g348" transform="translate(17.252 65.397)">
              <path id="path350" d="M0,0V7.743" fill="none" stroke="#12263f" stroke-linecap="round" stroke-linejoin="round" stroke-miterlimit="10" stroke-width="3"/>
            </g>
            <g id="g352" transform="translate(70.741 51.469)">
              <path id="path354" d="M-6.536,0H-19.409a.668.668,0,0,0-.668.663V7.074a.668.668,0,0,0,.668.663H-6.536a.667.667,0,0,0,.663-.663V.663A.667.667,0,0,0-6.536,0Z" transform="translate(20.078)" fill="none" stroke="#12263f" stroke-linecap="round" stroke-linejoin="round" stroke-miterlimit="10" stroke-width="3"/>
            </g>
            <g id="g356" transform="translate(77.844 51.469)">
              <path id="path358" d="M0,0V7.738" transform="translate(0 0)" fill="none" stroke="#12263f" stroke-linecap="round" stroke-linejoin="round" stroke-miterlimit="10" stroke-width="3"/>
            </g>
            <g id="g360" transform="translate(70.741 65.397)">
              <path id="path362" d="M-6.536,0H-19.409a.669.669,0,0,0-.668.668V7.074a.67.67,0,0,0,.668.669H-6.536a.668.668,0,0,0,.663-.669V.668A.668.668,0,0,0-6.536,0Z" transform="translate(20.078)" fill="none" stroke="#12263f" stroke-linecap="round" stroke-linejoin="round" stroke-miterlimit="10" stroke-width="3"/>
            </g>
            <g id="g364" transform="translate(77.844 65.397)">
              <path id="path366" d="M0,0V7.743" fill="none" stroke="#12263f" stroke-linecap="round" stroke-linejoin="round" stroke-miterlimit="10" stroke-width="3"/>
            </g>
            <g id="g368" transform="translate(37.291 35.826)">
              <path id="path370" d="M-4.95-9.948A10.3,10.3,0,0,0,5.307-20.254,10.3,10.3,0,0,0-4.95-30.561,10.3,10.3,0,0,0-15.207-20.254,10.3,10.3,0,0,0-4.95-9.948Z" transform="translate(15.207 30.561)" fill="none" stroke="#12263f" stroke-linecap="round" stroke-linejoin="round" stroke-miterlimit="10" stroke-width="3"/>
            </g>
            <g id="g372" transform="translate(47.548 5.291)">
              <path id="path374" d="M0,0H12.436a1.127,1.127,0,0,1,1.122,1.126V9.153a1.127,1.127,0,0,1-1.122,1.127H0Z" fill="none" stroke="#12263f" stroke-linecap="round" stroke-linejoin="round" stroke-miterlimit="10" stroke-width="3"/>
            </g>
            <g id="g376" transform="translate(1.393 36.494)">
              <path id="path378" d="M-13.87-2.822H-42.133a.476.476,0,0,1-.474-.479v-4.89a.476.476,0,0,1,.474-.479H-13.87Z" transform="translate(42.607 8.67)" fill="none" stroke="#12263f" stroke-linecap="round" stroke-linejoin="round" stroke-miterlimit="10" stroke-width="3"/>
            </g>
            <g id="g380" transform="translate(64.97 36.494)">
              <path id="path382" d="M0-2.822H28.258a.481.481,0,0,0,.479-.479v-4.89a.481.481,0,0,0-.479-.479H0Z" transform="translate(0 8.67)" fill="none" stroke="#12263f" stroke-linecap="round" stroke-linejoin="round" stroke-miterlimit="10" stroke-width="3"/>
            </g>
            <g id="g384" transform="translate(26.387 22.456)">
              <path id="path386" d="M-8.576-3.419H-25.7a.641.641,0,0,1-.642-.642v-5.8A.645.645,0,0,1-25.7-10.5H15.338a.64.64,0,0,1,.637.642v5.8a.637.637,0,0,1-.637.642H-2.374" transform="translate(26.346 10.504)" fill="none" stroke="#12263f" stroke-linecap="round" stroke-linejoin="round" stroke-miterlimit="10" stroke-width="3"/>
            </g>
            <g id="g388" transform="translate(4.163 42.342)">
              <path id="path390" d="M0-12.738V9.722a.846.846,0,0,0,.848.842H25.968M0-39.129v19.96" transform="translate(0 39.129)" fill="none" stroke="#12263f" stroke-linecap="round" stroke-linejoin="round" stroke-miterlimit="10" stroke-width="3"/>
            </g>
            <g id="g392" transform="translate(64.97 42.342)">
              <path id="path394" d="M0,0H25.963V48.852a.845.845,0,0,1-.842.842H0Z" fill="none" stroke="#12263f" stroke-linecap="round" stroke-linejoin="round" stroke-miterlimit="10" stroke-width="3"/>
            </g>
            <g id="g396" transform="translate(36.522 85.862)">
              <path id="path398" d="M0-2.98V-7.944A1.269,1.269,0,0,1,1.311-9.154H20.745a1.268,1.268,0,0,1,1.306,1.211V-2.98" transform="translate(0 9.154)" fill="none" stroke="#12263f" stroke-linecap="round" stroke-linejoin="round" stroke-miterlimit="10" stroke-width="3"/>
            </g>
            <g id="g400" transform="translate(30.131 29.541)">
              <path id="path402" d="M0,0V62.5H34.84V0" fill="none" stroke="#12263f" stroke-linecap="round" stroke-linejoin="round" stroke-miterlimit="10" stroke-width="3"/>
            </g>
          </g>
        </g>
      </g>
    </g>
  </g>
</svg>
