<svg xmlns="http://www.w3.org/2000/svg" xmlns:xlink="http://www.w3.org/1999/xlink" width="141" height="141" viewBox="0 0 141 141">
  <defs>
    <clipPath id="clip-path">
      <path id="Trazado_802007" data-name="Trazado 802007" d="M70.5,0A70.5,70.5,0,1,1,0,70.5,70.5,70.5,0,0,1,70.5,0Z" transform="translate(180 2759.926)" fill="#fff" stroke="#1969d5" stroke-width="4"/>
    </clipPath>
  </defs>
  <g id="Grupo_1067335" data-name="Grupo 1067335" transform="translate(-355.325 -2657.836)">
    <g id="Trazado_802006" data-name="Trazado 802006" transform="translate(355.325 2657.836)" fill="#fff">
      <path d="M 70.5 139 C 61.25167846679688 139 52.28105926513672 137.1891632080078 43.83731842041016 133.6177673339844 C 39.77883911132812 131.9011535644531 35.86428070068359 129.7763977050781 32.20240020751953 127.3024597167969 C 28.57476043701172 124.851676940918 25.1634407043457 122.0370788574219 22.06318092346191 118.9368209838867 C 18.96291923522949 115.8365631103516 16.14831924438477 112.4252395629883 13.69754028320312 108.7975997924805 C 11.22360038757324 105.1357192993164 9.09883975982666 101.2211608886719 7.382239818572998 97.16268157958984 C 3.810839891433716 88.71894073486328 2 79.74832153320312 2 70.5 C 2 61.25167846679688 3.810839891433716 52.28105926513672 7.382239818572998 43.83731842041016 C 9.09883975982666 39.77883911132812 11.22360038757324 35.86428070068359 13.69754028320312 32.20240020751953 C 16.14831924438477 28.57476043701172 18.96291923522949 25.1634407043457 22.06318092346191 22.06318092346191 C 25.1634407043457 18.96291923522949 28.57476043701172 16.14831924438477 32.20240020751953 13.69754028320312 C 35.86428070068359 11.22360038757324 39.77883911132812 9.09883975982666 43.83731842041016 7.382239818572998 C 52.28105926513672 3.810839891433716 61.25167846679688 2 70.5 2 C 79.74832153320312 2 88.71894073486328 3.810839891433716 97.16268157958984 7.382239818572998 C 101.2211608886719 9.09883975982666 105.1357192993164 11.22360038757324 108.7975997924805 13.69754028320312 C 112.4252395629883 16.14831924438477 115.8365631103516 18.96291923522949 118.9368209838867 22.06318092346191 C 122.0370788574219 25.1634407043457 124.851676940918 28.57476043701172 127.3024597167969 32.20240020751953 C 129.7763977050781 35.86428070068359 131.9011535644531 39.77883911132812 133.6177673339844 43.83731842041016 C 137.1891632080078 52.28105926513672 139 61.25167846679688 139 70.5 C 139 79.74832153320312 137.1891632080078 88.71894073486328 133.6177673339844 97.16268157958984 C 131.9011535644531 101.2211608886719 129.7763977050781 105.1357192993164 127.3024597167969 108.7975997924805 C 124.851676940918 112.4252395629883 122.0370788574219 115.8365631103516 118.9368209838867 118.9368209838867 C 115.8365631103516 122.0370788574219 112.4252395629883 124.851676940918 108.7975997924805 127.3024597167969 C 105.1357192993164 129.7763977050781 101.2211608886719 131.9011535644531 97.16268157958984 133.6177673339844 C 88.71894073486328 137.1891632080078 79.74832153320312 139 70.5 139 Z" stroke="none"/>
      <path d="M 70.5 4 C 61.52080535888672 4 52.81230163574219 5.7576904296875 44.61643218994141 9.224258422851562 C 40.67688751220703 10.89054870605469 36.87689208984375 12.95315551757812 33.322021484375 15.35478210449219 C 29.79987335205078 17.73430633544922 26.48765563964844 20.46715545654297 23.47740936279297 23.47740936279297 C 20.46715545654297 26.48765563964844 17.73430633544922 29.79987335205078 15.35478210449219 33.322021484375 C 12.95315551757812 36.87689208984375 10.89054870605469 40.67688751220703 9.224258422851562 44.61643218994141 C 5.7576904296875 52.81230163574219 4 61.52080535888672 4 70.5 C 4 79.47919464111328 5.7576904296875 88.18769836425781 9.224258422851562 96.38356018066406 C 10.89054870605469 100.3231048583984 12.95315551757812 104.1231079101562 15.35478210449219 107.677978515625 C 17.73430633544922 111.2001342773438 20.46715545654297 114.5123443603516 23.47740936279297 117.5225830078125 C 26.48765563964844 120.5328521728516 29.79987335205078 123.2656936645508 33.322021484375 125.6452178955078 C 36.87689208984375 128.0468444824219 40.67688751220703 130.1094512939453 44.61643218994141 131.7757415771484 C 52.81230163574219 135.2423095703125 61.52080535888672 137 70.5 137 C 79.47919464111328 137 88.18769836425781 135.2423095703125 96.38356018066406 131.7757415771484 C 100.3231048583984 130.1094512939453 104.1231079101562 128.0468444824219 107.677978515625 125.6452178955078 C 111.2001342773438 123.2656936645508 114.5123443603516 120.5328521728516 117.5225830078125 117.5225830078125 C 120.5328521728516 114.5123443603516 123.2656936645508 111.2001342773438 125.6452178955078 107.677978515625 C 128.0468444824219 104.1231079101562 130.1094512939453 100.3231048583984 131.7757415771484 96.38356018066406 C 135.2423095703125 88.18769836425781 137 79.47919464111328 137 70.5 C 137 61.52080535888672 135.2423095703125 52.81230163574219 131.7757415771484 44.61643218994141 C 130.1094512939453 40.67688751220703 128.0468444824219 36.87689208984375 125.6452178955078 33.322021484375 C 123.2656936645508 29.79987335205078 120.5328521728516 26.48765563964844 117.5225830078125 23.47740936279297 C 114.5123443603516 20.46715545654297 111.2001342773438 17.73430633544922 107.677978515625 15.35478210449219 C 104.1231079101562 12.95315551757812 100.3231048583984 10.89054870605469 96.38356018066406 9.224258422851562 C 88.18769836425781 5.7576904296875 79.47919464111328 4 70.5 4 M 70.5 0 C 109.4360656738281 0 141 31.56393432617188 141 70.5 C 141 109.4360656738281 109.4360656738281 141 70.5 141 C 31.56393432617188 141 0 109.4360656738281 0 70.5 C 0 31.56393432617188 31.56393432617188 0 70.5 0 Z" stroke="none" fill="#59bee2"/>
    </g>
    <g id="Enmascarar_grupo_1064380" data-name="Enmascarar grupo 1064380" transform="translate(175.325 -102.09)" clip-path="url(#clip-path)">
      <g id="Outline" transform="translate(202.512 2780.441)">
        <path id="Trazado_802008" data-name="Trazado 802008" d="M77.157,59.043a18.113,18.113,0,0,0-3.3.315,54.274,54.274,0,0,0,1.731-12.392h4.584a1.51,1.51,0,1,0,0-3.019H75.614a15.115,15.115,0,0,0,5.777-9.116,11.925,11.925,0,0,0,1.6-.284,35.939,35.939,0,0,1,.353,20.729,1.51,1.51,0,0,0,1.043,1.863,1.488,1.488,0,0,0,.411.057,1.51,1.51,0,0,0,1.452-1.1,38.955,38.955,0,0,0-.435-22.614,12.076,12.076,0,1,0-13.909-19.46A38.7,38.7,0,0,0,49.961,6.271c-.492-.038-.987-.062-1.485-.062A39,39,0,0,0,34.339,8.85a18.08,18.08,0,0,0-21.79-.957,1.51,1.51,0,1,0,1.713,2.486A15.076,15.076,0,0,1,34.89,31.835a9.071,9.071,0,0,0-6.4-8.623,7.548,7.548,0,1,0-11.343,0,9.071,9.071,0,0,0-6.406,8.623,15.024,15.024,0,0,1-.358-17.573,1.51,1.51,0,1,0-2.486-1.713A18.053,18.053,0,0,0,10.411,35.98a38.8,38.8,0,0,0-.092,18.647,1.51,1.51,0,0,0,2.936-.7,36.531,36.531,0,0,1-.963-6.957h9.057a52.727,52.727,0,0,0,3.6,18.146c-.213-.009-.415-.032-.623-.032a15.018,15.018,0,0,0-5.563,1.075,36.287,36.287,0,0,1-3.706-6.724A1.51,1.51,0,0,0,12.269,60.6a39.439,39.439,0,0,0,3.789,6.962A15.086,15.086,0,1,0,39.03,83.526a38.477,38.477,0,0,0,20.983-.587A18.134,18.134,0,0,0,77.157,95.272c.2,0,.394-.012.589-.026l.239-.014a1.51,1.51,0,0,0,1.437-1.579,1.535,1.535,0,0,0-1.577-1.437l-.3.018c-.128.009-.255.018-.385.018A15,15,0,0,1,68.1,89.2v-2.99a6.038,6.038,0,0,1,6.038-6.038h6.038a6.038,6.038,0,0,1,6.038,6.038v2.965A15.026,15.026,0,0,1,83.2,90.991,1.512,1.512,0,0,0,84.4,93.762a18.115,18.115,0,0,0-7.246-34.719Zm-6.7,1.3a18.157,18.157,0,0,0-6.16,4.076c-1.629-.5-3.288-.906-4.971-1.244.545-3.727.906-7.67,1.087-11.607a1.51,1.51,0,0,0-1.44-1.58,1.547,1.547,0,0,0-1.576,1.44,112.075,112.075,0,0,1-1.046,11.213,54.947,54.947,0,0,0-15.764-.02,117.65,117.65,0,0,1-1.149-15.652H72.572A50.852,50.852,0,0,1,70.461,60.341ZM48.627,81.656h-.3c-2.432-.232-5.422-6.025-7.246-16.049a51.863,51.863,0,0,1,14.794.018C53.987,75.924,50.909,81.425,48.627,81.656Zm8.944-37.708H39.441a117.732,117.732,0,0,1,1.152-15.681,55.663,55.663,0,0,0,7.883.586c1.057,0,2.166-.042,3.353-.122a15.024,15.024,0,0,0,5.742,15.218Zm6-15.1a3.019,3.019,0,1,1,3.019,3.019A3.019,3.019,0,0,1,63.571,28.852Zm0,6.038h6.038a3.019,3.019,0,0,1,3.019,3.019v4.4a11.978,11.978,0,0,1-12.076,0v-4.4A3.019,3.019,0,0,1,63.571,34.89Zm12.076,4.942V37.909a6.028,6.028,0,0,0-4.058-5.677,6.038,6.038,0,1,0-10,0,6.028,6.028,0,0,0-4.058,5.677v1.923a12.076,12.076,0,1,1,18.115,0ZM63.455,17.108a15.012,15.012,0,0,0-5.711,2.557,35.138,35.138,0,0,0-3.6-9.38,22.239,22.239,0,0,1,9.315,6.823ZM84.7,30.663a8.894,8.894,0,0,1-1.174.574.121.121,0,0,0-.056.009c-.018.009-.035.024-.054.032a8.866,8.866,0,0,1-1.734.468,15.1,15.1,0,0,0-.7-4.4h.7A3.019,3.019,0,0,1,84.7,30.361Zm-4.529-6.34a2.192,2.192,0,0,1-.584-.083,15.076,15.076,0,0,0-1.661-2.307,2.264,2.264,0,1,1,2.245,2.39Zm0-10.567a9.047,9.047,0,0,1,7.172,14.575,6.028,6.028,0,0,0-2.833-3.271,5.27,5.27,0,1,0-9.038-5.365A15.1,15.1,0,0,0,72.526,18,9,9,0,0,1,80.176,13.756Zm-10.182,2.6c-.151.232-.279.474-.411.719a15.039,15.039,0,0,0-2.532-.276A31.4,31.4,0,0,0,63,12.26a36.26,36.26,0,0,1,7,4.1ZM55.2,22a15.124,15.124,0,0,0-2.331,3.623c-1.621.14-3.036.211-4.394.211a52.566,52.566,0,0,1-7.4-.545c1.864-10.221,4.941-16.06,7.4-16.06C50.4,9.228,53.19,13.195,55.2,22ZM36.7,11.2a35.8,35.8,0,0,1,6.642-1.6,27.821,27.821,0,0,0-3.357,7.468A18.074,18.074,0,0,0,36.7,11.2Zm.2,22.986c-.282,3.2-.453,6.491-.485,9.762H24.365q.042-1.553.177-3.107a18.1,18.1,0,0,0,12.353-6.656ZM22.813,13.756a4.529,4.529,0,1,1-4.529,4.529,4.529,4.529,0,0,1,4.529-4.529ZM19.794,25.833h6.038a6.038,6.038,0,0,1,6.038,6.038v2.99a14.982,14.982,0,0,1-18.115,0v-2.99a6.038,6.038,0,0,1,6.038-6.038Zm1.718,15.029q-.124,1.544-.166,3.086H12.3a36.159,36.159,0,0,1,.726-5.916,17.954,17.954,0,0,0,8.488,2.83Zm2.85,6.1H36.41a122.461,122.461,0,0,0,1.232,16.166,50.036,50.036,0,0,0-8.856,2.624c-.1-.032-.207-.051-.3-.08A48.868,48.868,0,0,1,24.362,46.966ZM18.285,90.619v-4.4A3.019,3.019,0,0,1,21.3,83.2h6.038a3.019,3.019,0,0,1,3.019,3.019v4.4A11.978,11.978,0,0,1,18.285,90.619ZM21.3,77.157a3.019,3.019,0,1,1,3.019,3.019A3.019,3.019,0,0,1,21.3,77.157ZM33.38,88.138V86.214a6.028,6.028,0,0,0-4.058-5.677,6.038,6.038,0,1,0-10,0,6.028,6.028,0,0,0-4.058,5.677v1.923a12.076,12.076,0,1,1,18.115,0Zm-.768-20.563a48.3,48.3,0,0,1,5.519-1.461c1.164,6.428,2.9,11.876,5.184,15.181A35.847,35.847,0,0,1,39.4,80.5c0-.11.017-.216.017-.326A15.086,15.086,0,0,0,32.612,67.575Zm21.079,13.7c2.295-3.321,4.011-8.786,5.152-15.129q1.7.346,3.357.808a17.722,17.722,0,0,0-2.91,13.052,36.193,36.193,0,0,1-5.6,1.27Zm23.466-4.12a4.529,4.529,0,1,1,4.529-4.529,4.529,4.529,0,0,1-4.529,4.529ZM89.233,86.15a9.071,9.071,0,0,0-6.4-8.594,7.548,7.548,0,1,0-11.343,0,9.071,9.071,0,0,0-6.408,8.623,15.108,15.108,0,1,1,24.153-.029Z" transform="translate(0 0)" fill="#12263f"/>
      </g>
    </g>
  </g>
</svg>
