<svg xmlns="http://www.w3.org/2000/svg" xmlns:xlink="http://www.w3.org/1999/xlink" width="270.989" height="257.783" viewBox="0 0 270.989 257.783">
  <defs>
    <clipPath id="clip-path">
      <rect id="Rectángulo_373880" data-name="Rectángulo 373880" width="261.865" height="254.504" fill="none"/>
    </clipPath>
    <clipPath id="clip-path-3">
      <rect id="Rectángulo_374429" data-name="Rectángulo 374429" width="204.989" height="243.407" fill="none"/>
    </clipPath>
    <clipPath id="clip-path-5">
      <rect id="Rectángulo_374425" data-name="Rectángulo 374425" width="42.156" height="42.154" fill="none"/>
    </clipPath>
    <clipPath id="clip-path-6">
      <rect id="Rectángulo_374426" data-name="Rectángulo 374426" width="16.117" height="14.764" fill="none"/>
    </clipPath>
  </defs>
  <g id="Grupo_1067329" data-name="Grupo 1067329" transform="translate(-265 -405.924)">
    <g id="Grupo_1064906" data-name="Grupo 1064906" transform="translate(265 405.924)">
      <g id="Grupo_1065845" data-name="Grupo 1065845" transform="translate(0)">
        <g id="Grupo_1064883" data-name="Grupo 1064883">
          <g id="Grupo_1064882" data-name="Grupo 1064882" clip-path="url(#clip-path)">
            <path id="Trazado_798734" data-name="Trazado 798734" d="M24.676,214.16a12.4,12.4,0,0,0-3.026-1.315l-.624-3-5.062-.089-.728,2.972a12.367,12.367,0,0,0-3.071,1.208l-2.558-1.677-3.642,3.516,1.585,2.615a12.391,12.391,0,0,0-1.315,3.027l-3,.623-.089,5.062,2.972.728a12.409,12.409,0,0,0,1.208,3.071l-1.676,2.558,3.516,3.642,2.615-1.585a12.4,12.4,0,0,0,3.027,1.315l.624,3,5.061.089.729-2.972A12.411,12.411,0,0,0,24.3,235.74l2.558,1.677L30.5,233.9l-1.586-2.615a12.369,12.369,0,0,0,1.315-3.027l3-.623.089-5.061-2.972-.729a12.436,12.436,0,0,0-1.208-3.071l1.677-2.558-3.516-3.642Zm-2.7,6.743a5.43,5.43,0,1,1-7.679-.135,5.43,5.43,0,0,1,7.679.135" transform="translate(226.559 -76.91)" fill="#f5f5f5"/>
            <path id="Trazado_798735" data-name="Trazado 798735" d="M27.974,226.336a4.1,4.1,0,0,0-1.011-.887,5.408,5.408,0,0,0-3.543-.838,5.467,5.467,0,0,0-2.408.856,5.557,5.557,0,0,0-1.948,2.194,5.566,5.566,0,0,0-.524,3.2,5.54,5.54,0,0,0,4.584,4.749,5.565,5.565,0,0,0,3.213-.412,5.561,5.561,0,0,0,2.261-1.869,5.478,5.478,0,0,0,.94-2.377,5.4,5.4,0,0,0-.713-3.57,4.1,4.1,0,0,0-.851-1.042c-.029.025.328.357.746,1.1a5.415,5.415,0,0,1,.6,3.476,5.307,5.307,0,0,1-3.1,4.017,5.292,5.292,0,0,1-3.044.373,5.263,5.263,0,0,1-4.333-4.488,5.306,5.306,0,0,1,.48-3.029,5.306,5.306,0,0,1,4.123-2.957,5.418,5.418,0,0,1,3.454.722c.73.445,1.049.813,1.075.785" transform="translate(220.563 -82.343)" fill="#f5f5f5"/>
            <path id="Trazado_798736" data-name="Trazado 798736" d="M24.65,214.106a1.125,1.125,0,0,0,.168-.089l.5-.289,1.972-1.164-.061-.008,3.495,3.662-.01-.1-1.687,2.552-.03.046.027.049a12.394,12.394,0,0,1,1.189,3.051l.015.06.06.015,2.97.737-.084-.11c-.032,1.594-.065,3.285-.1,5.061l.1-.118-3,.617-.077.016-.022.075a12.337,12.337,0,0,1-1.306,2.993l-.042.069.042.07,1.581,2.617.022-.172-3.646,3.512.181-.017-2.557-1.68-.075-.049-.079.044a12.333,12.333,0,0,1-3.034,1.191l-.089.022-.022.089c-.229.931-.479,1.946-.731,2.972l.151-.117-5.061-.091.148.124c-.2-.946-.409-1.967-.623-3l-.019-.092-.091-.025a12.306,12.306,0,0,1-2.986-1.3h0l-.082-.048-.08.048-2.615,1.586.193.025L5.739,233.3l.018.192,1.676-2.559.051-.077-.045-.08a12.249,12.249,0,0,1-1.2-3.032l-.022-.089-.089-.022-2.972-.726.113.146q.043-2.592.084-5.061l-.114.137,2.994-.627.083-.018.023-.081a12.318,12.318,0,0,1,1.3-3l.042-.07-.042-.07-1.59-2.613-.021.16,3.635-3.523-.148.014,2.563,1.67.057.037.058-.033a12.355,12.355,0,0,1,3.041-1.207l.061-.015.014-.06c.262-1.081.5-2.055.719-2.974l-.091.07,5.062.066-.067-.055c.257,1.194.467,2.175.642,2.991l.007.03.029.008a12.832,12.832,0,0,1,2.315.89l.544.284a1.208,1.208,0,0,0,.182.092,1.563,1.563,0,0,0-.168-.115c-.116-.072-.291-.178-.534-.308a11.975,11.975,0,0,0-2.31-.941l.035.038-.6-3-.011-.054H21l-5.061-.111-.073,0-.018.072c-.229.918-.47,1.891-.738,2.969l.075-.075a12.491,12.491,0,0,0-3.1,1.21l.115,0-2.554-1.683-.079-.052-.069.066-3.649,3.509-.074.072.054.089,1.581,2.618v-.139a12.521,12.521,0,0,0-1.334,3.059l.105-.1-3,.62-.112.023,0,.115q-.046,2.468-.094,5.061l0,.118.115.028,2.971.731-.11-.11a12.567,12.567,0,0,0,1.221,3.109l.006-.158L5.5,233.326l-.067.1.085.089,3.516,3.643.086.089.106-.065L11.84,235.6h-.158a12.572,12.572,0,0,0,3.062,1.33l-.11-.118.624,3,.025.122.124,0,5.062.087.122,0,.029-.118.726-2.972-.11.11a12.6,12.6,0,0,0,3.107-1.225l-.153-.006,2.56,1.675.1.063.083-.08,3.638-3.521.08-.077-.058-.094L29,231.162v.139a12.535,12.535,0,0,0,1.324-3.061l-.1.091,2.994-.63.1-.02v-.1c.027-1.776.053-3.468.077-5.062v-.089l-.086-.021-2.974-.72.075.075a12.5,12.5,0,0,0-1.227-3.091l0,.094,1.666-2.565.034-.053-.044-.045L27.3,212.485l-.028-.029-.034.021-1.927,1.2-.5.315a1.428,1.428,0,0,0-.168.115" transform="translate(226.584 -76.855)" fill="#f5f5f5"/>
            <path id="Trazado_798737" data-name="Trazado 798737" d="M352.65,137.9a8.485,8.485,0,0,0-2.067-.9l-.426-2.045L346.7,134.9l-.5,2.029a8.444,8.444,0,0,0-2.1.825l-1.747-1.144-2.487,2.4,1.082,1.785a8.489,8.489,0,0,0-.9,2.067l-2.045.426-.061,3.456,2.029.5a8.476,8.476,0,0,0,.825,2.1l-1.145,1.746,2.4,2.487,1.785-1.082a8.465,8.465,0,0,0,2.067.9l.426,2.045,3.456.061.5-2.029a8.488,8.488,0,0,0,2.1-.825l1.746,1.144,2.487-2.4-1.082-1.785a8.462,8.462,0,0,0,.9-2.067l2.045-.426.061-3.456-2.029-.5a8.472,8.472,0,0,0-.825-2.1l1.144-1.746-2.4-2.487Zm-1.842,4.6a3.708,3.708,0,1,1-5.243-.092,3.707,3.707,0,0,1,5.243.092" transform="translate(-310.72 -49.461)" fill="#f5f5f5"/>
            <path id="Trazado_798738" data-name="Trazado 798738" d="M354.9,146.217a2.811,2.811,0,0,0-.69-.606,3.692,3.692,0,0,0-2.419-.572,3.737,3.737,0,0,0-1.644.585,3.788,3.788,0,0,0-1.329,1.5,3.791,3.791,0,0,0-.358,2.182,3.783,3.783,0,0,0,3.129,3.242,3.794,3.794,0,0,0,2.194-.281,3.8,3.8,0,0,0,1.543-1.276,3.734,3.734,0,0,0,.642-1.623,3.69,3.69,0,0,0-.486-2.437,2.794,2.794,0,0,0-.581-.711c-.02.017.224.243.509.752a3.7,3.7,0,0,1,.41,2.373,3.623,3.623,0,0,1-2.117,2.743,3.624,3.624,0,0,1-2.079.255,3.593,3.593,0,0,1-2.958-3.065,3.629,3.629,0,0,1,.328-2.068,3.622,3.622,0,0,1,2.815-2.019,3.7,3.7,0,0,1,2.358.493c.5.3.716.555.734.536" transform="translate(-314.814 -53.171)" fill="#f5f5f5"/>
            <path id="Trazado_798739" data-name="Trazado 798739" d="M352.63,137.866a.732.732,0,0,0,.115-.061l.343-.2,1.345-.8-.042-.005,2.386,2.5-.006-.067-1.152,1.742-.021.032.018.033a8.474,8.474,0,0,1,.812,2.083l.01.041.041.01,2.028.5-.058-.075c-.022,1.088-.044,2.243-.068,3.456l.066-.08-2.046.422-.052.011-.015.051a8.422,8.422,0,0,1-.892,2.043l-.029.047.029.048,1.08,1.787.015-.117-2.49,2.4.123-.012-1.746-1.146-.051-.034-.054.03a8.39,8.39,0,0,1-2.072.813l-.06.015-.015.06c-.156.636-.327,1.329-.5,2.029l.1-.08-3.456-.062.1.084c-.134-.646-.279-1.343-.425-2.045l-.013-.063-.061-.018a8.383,8.383,0,0,1-2.039-.885h0l-.056-.033-.054.033-1.785,1.083.131.017-2.4-2.486.012.13,1.144-1.747.035-.053-.03-.055a8.351,8.351,0,0,1-.816-2.07l-.015-.061-.06-.015-2.029-.5.077.1q.029-1.769.057-3.456l-.078.094,2.044-.428.057-.012.015-.056a8.388,8.388,0,0,1,.885-2.045l.029-.048-.029-.048-1.086-1.784-.015.109,2.481-2.405-.1.01,1.749,1.141.039.025.041-.023a8.445,8.445,0,0,1,2.076-.824l.041-.01.009-.041c.179-.738.339-1.4.491-2.03l-.062.047,3.456.046-.046-.038c.175.816.319,1.485.438,2.043l0,.02.02.006a8.73,8.73,0,0,1,1.58.608l.372.194a.843.843,0,0,0,.124.063,1.094,1.094,0,0,0-.115-.079c-.079-.048-.2-.122-.364-.21a8.21,8.21,0,0,0-1.578-.643l.024.026c-.113-.559-.248-1.23-.412-2.048l-.008-.037h-.039l-3.455-.075h-.05l-.013.049c-.156.627-.32,1.291-.5,2.027l.051-.051a8.557,8.557,0,0,0-2.117.827l.079,0-1.744-1.149-.054-.035-.047.045-2.492,2.4-.051.049.037.06,1.079,1.787v-.1a8.6,8.6,0,0,0-.911,2.088l.072-.067-2.046.423-.077.016v.079q-.031,1.685-.064,3.456l0,.08.079.02,2.029.5-.075-.075a8.54,8.54,0,0,0,.833,2.122l0-.108-1.146,1.746-.046.07.058.061,2.4,2.487.059.061.072-.044,1.786-1.082h-.108a8.61,8.61,0,0,0,2.091.908l-.075-.08c.146.7.291,1.4.426,2.045l.017.082.084,0,3.456.059h.084l.02-.08.5-2.029-.075.075a8.589,8.589,0,0,0,2.121-.836l-.1,0,1.747,1.143.066.043.056-.055,2.483-2.4.055-.053-.039-.065-1.086-1.784v.094a8.564,8.564,0,0,0,.9-2.09l-.066.062,2.044-.429.065-.014v-.066c.018-1.213.036-2.367.053-3.456v-.06l-.059-.015-2.03-.491.051.051a8.57,8.57,0,0,0-.839-2.11l0,.065,1.138-1.751.023-.036-.03-.03-2.415-2.473-.019-.02-.023.015-1.315.818-.338.215a1.028,1.028,0,0,0-.115.079" transform="translate(-310.701 -49.424)" fill="#f5f5f5"/>
            <path id="Trazado_798740" data-name="Trazado 798740" d="M333.93,54.505a19.952,19.952,0,0,0-4.862-2.113l-1-4.812-8.131-.143-1.17,4.774a19.926,19.926,0,0,0-4.934,1.941l-4.109-2.694-5.851,5.649,2.547,4.2a19.926,19.926,0,0,0-2.113,4.863l-4.812,1-.142,8.131,4.773,1.17a19.923,19.923,0,0,0,1.941,4.933l-2.694,4.11,5.648,5.851,4.2-2.548a19.929,19.929,0,0,0,4.863,2.113l1,4.813,8.131.143,1.17-4.774a19.921,19.921,0,0,0,4.933-1.941l4.109,2.694,5.851-5.649-2.547-4.2a19.921,19.921,0,0,0,2.113-4.863l4.812-1,.142-8.131-4.774-1.171a19.978,19.978,0,0,0-1.941-4.933l2.693-4.109-5.648-5.851ZM329.6,65.337a8.724,8.724,0,1,1-12.335-.217,8.724,8.724,0,0,1,12.335.217" transform="translate(-275.528 -17.393)" fill="#ebebeb"/>
            <path id="Trazado_798741" data-name="Trazado 798741" d="M339.228,74.066A6.593,6.593,0,0,0,337.6,72.64a8.681,8.681,0,0,0-5.691-1.345,8.8,8.8,0,0,0-3.868,1.374,8.937,8.937,0,0,0-3.129,3.525,8.957,8.957,0,0,0-.842,5.135,8.9,8.9,0,0,0,7.364,7.628,8.946,8.946,0,0,0,5.162-.661,8.937,8.937,0,0,0,3.633-3,8.8,8.8,0,0,0,1.509-3.818,8.682,8.682,0,0,0-1.145-5.735,6.587,6.587,0,0,0-1.367-1.673c-.047.04.527.573,1.2,1.77a8.7,8.7,0,0,1,.964,5.584,8.522,8.522,0,0,1-4.98,6.453,8.517,8.517,0,0,1-4.891.6,8.453,8.453,0,0,1-6.96-7.211,8.532,8.532,0,0,1,.771-4.866,8.524,8.524,0,0,1,6.624-4.75,8.7,8.7,0,0,1,5.547,1.16c1.174.714,1.686,1.307,1.727,1.26" transform="translate(-285.161 -26.122)" fill="#ebebeb"/>
            <path id="Trazado_798742" data-name="Trazado 798742" d="M333.887,54.418a1.874,1.874,0,0,0,.271-.143l.806-.466,3.167-1.87-.1-.013,5.614,5.883-.015-.157-2.71,4.1-.049.073.043.079a19.9,19.9,0,0,1,1.91,4.9l.023.1.1.024,4.771,1.184-.136-.176c-.051,2.56-.105,5.277-.162,8.13l.156-.189-4.814.992-.122.025-.034.121a19.811,19.811,0,0,1-2.1,4.807l-.068.111.068.112,2.541,4.2.035-.276-5.857,5.642.289-.027-4.107-2.7-.121-.079-.125.07a19.806,19.806,0,0,1-4.875,1.914l-.143.034-.035.143c-.367,1.5-.769,3.126-1.174,4.773l.243-.186-8.131-.146.239.2c-.316-1.52-.657-3.16-1-4.812l-.03-.148-.146-.041a19.745,19.745,0,0,1-4.8-2.084l0,0-.131-.077-.128.077-4.2,2.548.309.04-5.65-5.849.029.307,2.692-4.11.081-.125-.072-.129a19.7,19.7,0,0,1-1.92-4.872l-.035-.142-.142-.035-4.775-1.167.182.236q.068-4.163.134-8.131l-.183.221,4.811-1.007.133-.028.037-.13a19.76,19.76,0,0,1,2.082-4.812l.068-.113-.068-.111-2.554-4.2-.033.257,5.838-5.66-.238.023,4.115,2.683.092.06.094-.053a19.841,19.841,0,0,1,4.886-1.939l.1-.024.023-.1c.42-1.736.8-3.3,1.155-4.777l-.146.113,8.131.106-.108-.089,1.032,4.806.011.048.046.013a20.647,20.647,0,0,1,3.718,1.43l.874.457a1.989,1.989,0,0,0,.292.148,2.61,2.61,0,0,0-.271-.184c-.186-.115-.467-.286-.857-.494a19.274,19.274,0,0,0-3.712-1.512l.056.061-.97-4.819-.018-.087-.09,0L319.9,47.2l-.118,0-.029.115-1.186,4.769.12-.12a20.085,20.085,0,0,0-4.981,1.944l.186.006-4.1-2.7-.127-.084-.11.106-5.862,5.637-.119.115.086.143,2.54,4.2v-.224a20.159,20.159,0,0,0-2.143,4.913l.17-.158-4.813,1-.18.037,0,.184q-.073,3.965-.151,8.13l0,.19.185.046,4.774,1.174-.177-.177a20.158,20.158,0,0,0,1.961,4.995l.01-.254-2.7,4.109-.108.165.137.143,5.646,5.852.139.143.17-.1,4.2-2.547h-.259l.005,0a20.19,20.19,0,0,0,4.919,2.136L317.8,90.9c.344,1.652.686,3.293,1,4.812l.041.194.2,0,8.131.139.2,0,.047-.19c.4-1.648.8-3.279,1.167-4.775l-.177.177a20.24,20.24,0,0,0,4.991-1.968l-.246-.009,4.112,2.689.156.1.134-.13,5.843-5.655.129-.124-.092-.152-2.554-4.2v.224A20.2,20.2,0,0,0,343,77.124l-.156.146,4.81-1.011.154-.032,0-.157c.044-2.853.085-5.57.124-8.131l0-.143-.138-.034L343.024,66.6l.12.12a20.112,20.112,0,0,0-1.972-4.965l-.006.152,2.677-4.12.055-.086-.07-.072-5.682-5.817-.046-.047-.053.034-3.1,1.926-.8.505a2.425,2.425,0,0,0-.27.184" transform="translate(-275.486 -17.306)" fill="#ebebeb"/>
            <path id="Trazado_798743" data-name="Trazado 798743" d="M29.795,176.23l-.7,1.165a7.979,7.979,0,0,1-3.3,3.04l-1.219.6,1.165.7a7.979,7.979,0,0,1,3.04,3.3l.6,1.219.7-1.165a7.982,7.982,0,0,1,3.3-3.04l1.219-.6-1.165-.7a7.982,7.982,0,0,1-3.04-3.3Z" transform="translate(211.699 -64.616)" fill="#e0e0e0"/>
            <path id="Trazado_798744" data-name="Trazado 798744" d="M284.208,28.446l-.35.583a3.985,3.985,0,0,1-1.651,1.52l-.609.3.583.351a3.988,3.988,0,0,1,1.52,1.65l.3.61.35-.583A3.99,3.99,0,0,1,286,31.359l.609-.3-.583-.351a3.99,3.99,0,0,1-1.52-1.651Z" transform="translate(-203.096 -10.43)" fill="#e0e0e0"/>
            <path id="Trazado_798745" data-name="Trazado 798745" d="M265.264,0l-1.079,1.794A12.285,12.285,0,0,1,259.1,6.472l-1.876.927,1.793,1.079a12.278,12.278,0,0,1,4.678,5.08l.928,1.876,1.079-1.793a12.274,12.274,0,0,1,5.08-4.678l1.876-.928-1.794-1.079a12.286,12.286,0,0,1-4.678-5.08Z" transform="translate(-173.712)" fill="#e0e0e0"/>
            <path id="Trazado_798746" data-name="Trazado 798746" d="M316.276,359.1l-.351.583a3.985,3.985,0,0,1-1.65,1.52l-.609.3.583.351a3.989,3.989,0,0,1,1.52,1.651l.3.61.35-.583a3.99,3.99,0,0,1,1.651-1.52l.609-.3-.583-.35a3.99,3.99,0,0,1-1.52-1.651Z" transform="translate(-255.473 -131.666)" fill="#e0e0e0"/>
            <path id="Trazado_798747" data-name="Trazado 798747" d="M371.539,196.683l-1.079,1.794a12.285,12.285,0,0,1-5.079,4.678l-1.876.927,1.793,1.079a12.278,12.278,0,0,1,4.678,5.08l.928,1.876,1.079-1.794a12.277,12.277,0,0,1,5.08-4.677l1.876-.928-1.794-1.079a12.286,12.286,0,0,1-4.678-5.08Z" transform="translate(-347.296 -72.115)" fill="#e0e0e0"/>
          </g>
        </g>
        <g id="Grupo_1064885" data-name="Grupo 1064885">
          <g id="Grupo_1064884" data-name="Grupo 1064884" clip-path="url(#clip-path)">
            <path id="Trazado_798748" data-name="Trazado 798748" d="M0,401.486c0,.091,54.853.165,122.5.165,67.672,0,122.513-.073,122.513-.165s-54.841-.165-122.513-.165c-67.648,0-122.5.073-122.5.165" transform="translate(16.851 -147.146)" fill="#263238"/>
          </g>
        </g>
      </g>
    </g>
    <g id="Grupo_1065857" data-name="Grupo 1065857" transform="translate(331 429.3)">
      <g id="Grupo_1065856" data-name="Grupo 1065856" transform="translate(0 -9)" clip-path="url(#clip-path-3)">
        <g id="Grupo_1065853" data-name="Grupo 1065853">
          <g id="Grupo_1065852" data-name="Grupo 1065852" clip-path="url(#clip-path-3)">
            <path id="Trazado_801848" data-name="Trazado 801848" d="M99.117,59.75l7.251-8.4a35.709,35.709,0,1,1,3.487,12.31l0,.019Z" transform="translate(27.212 3.38)" fill="#fff"/>
            <path id="Trazado_801849" data-name="Trazado 801849" d="M99.117,59.8s.213.092.664.264c.475.182,1.15.437,2.027.771l8.009,3.012a.124.124,0,0,0,.159-.073.141.141,0,0,0,.005-.069l0-.019-.233.079a35.683,35.683,0,0,0,11.3,13.432,34.839,34.839,0,0,0,4.751,2.873,39.328,39.328,0,0,0,5.533,2.2,35.637,35.637,0,0,0,26.656-2.2,36.119,36.119,0,0,0,11.99-9.7,35.61,35.61,0,0,0,6.984-14.806,35.2,35.2,0,0,0-.5-17.125l-.625-2.125-.812-2.049-.4-1.021-.495-.979-.994-1.944c-.353-.633-.77-1.227-1.151-1.84a17.881,17.881,0,0,0-1.215-1.786,32.8,32.8,0,0,0-2.756-3.278,35.539,35.539,0,0,0-29.081-11.154,35.84,35.84,0,0,0-23.974,12.086,39.118,39.118,0,0,0-3.567,4.786,46.83,46.83,0,0,0-2.54,4.947,35.5,35.5,0,0,0-2.6,17.333l.029-.092-5.366,6.329c-.585.7-1.035,1.232-1.355,1.611-.3.359-.437.538-.437.538s.18-.189.5-.551l1.419-1.6c1.246-1.416,3.065-3.485,5.424-6.168a.123.123,0,0,0,.029-.092,35.534,35.534,0,0,1,2.7-17.159,46.831,46.831,0,0,1,2.539-4.88,39.03,39.03,0,0,1,3.546-4.711,35.545,35.545,0,0,1,38.815-9.806,35.89,35.89,0,0,1,13.492,8.978,32.048,32.048,0,0,1,2.708,3.227,17.088,17.088,0,0,1,1.194,1.756c.375.6.785,1.188,1.133,1.811l.976,1.914.487.961.4,1.006.8,2.016.613,2.09a34.684,34.684,0,0,1,.5,16.848,35.1,35.1,0,0,1-6.86,14.581,35.609,35.609,0,0,1-25.37,13.3,35.232,35.232,0,0,1-12.708-1.477,39,39,0,0,1-5.478-2.145,34.582,34.582,0,0,1-4.713-2.815,35.708,35.708,0,0,1-11.3-13.23.124.124,0,0,0-.233.079l0,.019.164-.14-7.98-2.838-2.079-.732c-.472-.163-.726-.243-.726-.243" transform="translate(27.212 3.331)" fill="#263238"/>
            <path id="Trazado_801850" data-name="Trazado 801850" d="M158.209,46.528a21.078,21.078,0,1,1-21.077-21.077,21.077,21.077,0,0,1,21.077,21.077" transform="translate(31.862 6.987)" fill="#ff725e"/>
            <g id="Grupo_1065848" data-name="Grupo 1065848" transform="translate(147.915 32.438)" opacity="0.3">
              <g id="Grupo_1065847" data-name="Grupo 1065847">
                <g id="Grupo_1065846" data-name="Grupo 1065846" clip-path="url(#clip-path-5)">
                  <path id="Trazado_801851" data-name="Trazado 801851" d="M158.209,46.528a21.078,21.078,0,1,1-21.077-21.077,21.077,21.077,0,0,1,21.077,21.077" transform="translate(-116.053 -25.451)"/>
                </g>
              </g>
            </g>
            <path id="Trazado_801852" data-name="Trazado 801852" d="M158.209,44.7a21.078,21.078,0,1,1-21.077-21.077A21.077,21.077,0,0,1,158.209,44.7" transform="translate(31.862 6.486)" fill="#f7a781"/>
            <path id="Trazado_801853" data-name="Trazado 801853" d="M149.75,43.2a14.118,14.118,0,1,1-14.118-14.118A14.118,14.118,0,0,1,149.75,43.2" transform="translate(33.361 7.985)" fill="#fff"/>
            <path id="Trazado_801854" data-name="Trazado 801854" d="M140.987,41.65a6.909,6.909,0,1,1-6.909-6.909,6.909,6.909,0,0,1,6.909,6.909" transform="translate(34.914 9.538)" fill="#f7a781"/>
            <path id="Trazado_801855" data-name="Trazado 801855" d="M144.24,30.079l-.572-4.5,4.577-4.9.329,4.853Z" transform="translate(39.443 5.678)" fill="#455a64"/>
            <path id="Trazado_801856" data-name="Trazado 801856" d="M153.828,25.329l-4.643-.379-4.655,4.477,4.655.5Z" transform="translate(39.68 6.85)" fill="#455a64"/>
            <g id="Grupo_1065851" data-name="Grupo 1065851" transform="translate(169.916 36.322)" opacity="0.3">
              <g id="Grupo_1065850" data-name="Grupo 1065850">
                <g id="Grupo_1065849" data-name="Grupo 1065849" clip-path="url(#clip-path-6)">
                  <path id="Trazado_801857" data-name="Trazado 801857" d="M133.315,43.263l16.117-12.3a19.818,19.818,0,0,0-2.018-2.461l-14.1,13.669Z" transform="translate(-133.315 -28.498)"/>
                </g>
              </g>
            </g>
            <path id="Trazado_801858" data-name="Trazado 801858" d="M151.889,24.011l-6.561,6.563L134.918,40.985l-2.394,2.394c-.758.758.426,1.93,1.185,1.17l6.561-6.563L150.68,27.575l2.394-2.394a.833.833,0,0,0-1.185-1.17" transform="translate(36.317 6.524)" fill="#263238"/>
          </g>
        </g>
        <g id="Grupo_1065855" data-name="Grupo 1065855">
          <g id="Grupo_1065854" data-name="Grupo 1065854" clip-path="url(#clip-path-3)">
            <path id="Trazado_801859" data-name="Trazado 801859" d="M116.2,168.7l-88.81-5.709-8.109,35.669H118.41A95.491,95.491,0,0,0,116.2,168.7" transform="translate(5.295 44.748)" fill="#263238"/>
            <path id="Trazado_801860" data-name="Trazado 801860" d="M55.164,4.044A6.156,6.156,0,0,1,61.78,1.359,8.388,8.388,0,0,1,72.12,2.3a7.614,7.614,0,0,1,7.387.387,7.7,7.7,0,0,1,3.457,6.575,6.426,6.426,0,0,1,6.292,3.783,6.507,6.507,0,0,1-1.594,7.2,6.279,6.279,0,0,1,3.511,7.315,6.24,6.24,0,0,1-6.886,4.254L55.777,11.192a6.23,6.23,0,0,1-.613-7.148" transform="translate(14.912 0)" fill="#263238"/>
            <path id="Trazado_801861" data-name="Trazado 801861" d="M88.62,31.168a25.612,25.612,0,0,0-23.714-25.4l-1.32-.1C49.293,5.488,43.857,18.345,44.055,32.721l-2.561,53.2,21.2,21.282,7.759-14.159,2.671-14.108s13.836-1.157,14.995-14.9c.558-6.64.6-20.405.5-32.864" transform="translate(11.392 1.557)" fill="#ae7461"/>
            <path id="Trazado_801862" data-name="Trazado 801862" d="M70.18,64.56A33.109,33.109,0,0,1,52.635,58s2.988,10.551,16.727,10.292Z" transform="translate(14.451 15.922)" fill="#6f4439"/>
            <path id="Trazado_801863" data-name="Trazado 801863" d="M75.485,35.16a1.965,1.965,0,0,1-2.027,1.847,1.877,1.877,0,0,1-1.886-1.916A1.968,1.968,0,0,1,73.6,33.242a1.879,1.879,0,0,1,1.889,1.918" transform="translate(19.649 9.126)" fill="#263238"/>
            <path id="Trazado_801864" data-name="Trazado 801864" d="M77.523,31.857c-.26.238-1.661-.97-3.764-1.114-2.1-.176-3.719.8-3.928.526-.1-.124.176-.568.883-1.012a5.353,5.353,0,0,1,3.167-.738,5.14,5.14,0,0,1,2.974,1.207c.611.546.8,1.025.668,1.131" transform="translate(19.166 8.1)" fill="#263238"/>
            <path id="Trazado_801865" data-name="Trazado 801865" d="M61.292,34.424a1.965,1.965,0,0,1-2.027,1.847,1.877,1.877,0,0,1-1.886-1.917A1.968,1.968,0,0,1,59.4,32.506a1.878,1.878,0,0,1,1.888,1.918" transform="translate(15.753 8.924)" fill="#263238"/>
            <path id="Trazado_801866" data-name="Trazado 801866" d="M61.762,30.493c-.261.24-1.663-.969-3.765-1.114-2.1-.175-3.719.8-3.928.526-.1-.122.173-.567.883-1.011a5.345,5.345,0,0,1,3.167-.739,5.14,5.14,0,0,1,2.974,1.207c.609.546.8,1.025.669,1.131" transform="translate(14.838 7.726)" fill="#263238"/>
            <path id="Trazado_801867" data-name="Trazado 801867" d="M64.649,46.482a13.831,13.831,0,0,1,3.459-.375c.54-.017,1.057-.088,1.173-.45a2.767,2.767,0,0,0-.242-1.626q-.618-2.015-1.292-4.225c-1.784-6.012-3.033-10.941-2.793-11.011s1.884,4.745,3.667,10.757q.64,2.223,1.224,4.246a3.147,3.147,0,0,1,.126,2.14,1.351,1.351,0,0,1-.939.725,3.624,3.624,0,0,1-.92.062,13.736,13.736,0,0,1-3.462-.243" transform="translate(17.749 7.905)" fill="#263238"/>
            <path id="Trazado_801868" data-name="Trazado 801868" d="M59.805,43.471c.343,0,.184,2.3,2.019,4.07s4.284,1.69,4.279,2.013c.02.147-.575.407-1.6.362a5.679,5.679,0,0,1-3.58-1.551,5,5,0,0,1-1.546-3.4c-.019-.966.277-1.517.432-1.491" transform="translate(16.3 11.935)" fill="#263238"/>
            <path id="Trazado_801869" data-name="Trazado 801869" d="M62.3,25.759c-.289.53-2.065-.092-4.267-.213-2.2-.172-4.067.208-4.254-.356-.08-.268.324-.742,1.129-1.153a6.552,6.552,0,0,1,3.325-.632A6.314,6.314,0,0,1,61.4,24.471c.718.514,1.03,1.035.9,1.289" transform="translate(14.761 6.422)" fill="#263238"/>
            <path id="Trazado_801870" data-name="Trazado 801870" d="M77.362,27.237c-.366.486-1.823,0-3.569,0-1.746-.066-3.221.358-3.566-.141-.152-.242.076-.728.718-1.19a5.142,5.142,0,0,1,5.749.116c.622.488.83.981.668,1.218" transform="translate(19.268 6.886)" fill="#263238"/>
            <path id="Trazado_801871" data-name="Trazado 801871" d="M88.51,25.111s-2.989-8.876-6.976-11.183c-4.825-2.794-7.376,2.573-12.046.891s-9.276-4.36-14.413-1c-5.622,3.673-3.329,6.7-4.1,12.78-3.114,24.656-8.11,31.333-8.551,19.582-.048-1.286-3.5-2.555-3.635-7.989-.173-7.047.17-15.563,2.079-20.418,1.61-4.093,4.191-6.814,8.675-9.7,7.079-4.551,16.312-4,22.533-2.914s17.777,9.2,16.431,19.952" transform="translate(10.639 1.209)" fill="#263238"/>
            <path id="Trazado_801872" data-name="Trazado 801872" d="M45.746,37.871a3.731,3.731,0,0,0-3.751-3.887c-2.568.061-5.512,1.315-5.725,6.63-.377,9.428,9.112,7.855,9.14,7.586.018-.184.213-6.382.336-10.329" transform="translate(9.955 9.33)" fill="#ae7461"/>
            <path id="Trazado_801873" data-name="Trazado 801873" d="M42.821,43.912c-.041-.032-.17.108-.449.226a1.63,1.63,0,0,1-1.222-.024c-.978-.4-1.747-2.019-1.724-3.72a5.458,5.458,0,0,1,.551-2.332,1.892,1.892,0,0,1,1.28-1.212.829.829,0,0,1,.946.488c.116.269.047.454.1.473.023.024.205-.15.145-.543a1.038,1.038,0,0,0-.344-.605,1.227,1.227,0,0,0-.893-.275,2.3,2.3,0,0,0-1.764,1.394,5.606,5.606,0,0,0-.672,2.605c-.017,1.9.881,3.718,2.22,4.165a1.737,1.737,0,0,0,1.5-.19c.3-.222.357-.431.326-.449" transform="translate(10.645 9.989)" fill="#6f4439"/>
            <path id="Trazado_801874" data-name="Trazado 801874" d="M45.349,28.3a8.864,8.864,0,0,0,3.829,2.123c1.453.251,3.188-.474,3.539-1.914.158-.647.054-1.419.517-1.894.554-.567,1.484-.31,2.261-.17A5.989,5.989,0,0,0,62,22.588c.618,1.094,2.241,1.165,3.339.56a13.543,13.543,0,0,0,2.743-2.557,3.845,3.845,0,0,1,3.327-1.385,9.2,9.2,0,0,0,2,.6c1.236-.022,1.939-1.425,2.213-2.638s.521-2.632,1.61-3.225c1.008-.548,2.232-.1,3.351.148s2.6.085,2.967-1.006a2.252,2.252,0,0,0-.3-1.736,6.054,6.054,0,0,0-6.984-2.819A8.214,8.214,0,0,0,61.3,5.842a8.331,8.331,0,0,0-13.538,2.1,6.184,6.184,0,0,0-6.464,1.7,6.271,6.271,0,0,0-.98,6.647,5.784,5.784,0,0,0-3.485,4.367c-.176,1.945,1.572,4.02,3.476,3.641a3.512,3.512,0,0,0,1,4.516,3.466,3.466,0,0,0,4.542-.744" transform="translate(10.109 0.559)" fill="#263238"/>
            <path id="Trazado_801875" data-name="Trazado 801875" d="M39.034,19.448a2.27,2.27,0,0,0,.452,1.851,3.009,3.009,0,0,0,1.793,1.258A3.237,3.237,0,0,0,44,21.969l-.391-.088a9.426,9.426,0,0,0,1.7,2.479,5.35,5.35,0,0,0,1.628,1.188,3.633,3.633,0,0,0,1.87.312,3.691,3.691,0,0,0,2.81-1.364,5.458,5.458,0,0,0,.9-1.9,1.872,1.872,0,0,0,.126-.755c-.04-.013-.138.241-.325.686a6.379,6.379,0,0,1-.993,1.727,3.81,3.81,0,0,1-5.63-.271,9.467,9.467,0,0,1-1.622-2.326l-.144-.289-.247.2a2.838,2.838,0,0,1-2.307.561,2.762,2.762,0,0,1-1.628-1.018,4.576,4.576,0,0,1-.712-1.661" transform="translate(10.703 5.339)" fill="#455a64"/>
            <path id="Trazado_801876" data-name="Trazado 801876" d="M54.1,4.187c-.008.032.238.083.644.292a3.212,3.212,0,0,1,1.364,1.346l.1.187.141-.166a11.705,11.705,0,0,1,4.787-3.358,9.08,9.08,0,0,1,3.741-.548,7.591,7.591,0,0,1,3.878,1.422,7.774,7.774,0,0,1,2.2,2.418,6.384,6.384,0,0,1,.825,2.91l.009.3.289-.059a5.233,5.233,0,0,1,3.852.755,5.152,5.152,0,0,1,1.963,2.445,7.1,7.1,0,0,1,.382,2.828,1.935,1.935,0,0,0,.168-.761,5.253,5.253,0,0,0-.268-2.172,5.35,5.35,0,0,0-2.013-2.688,5.606,5.606,0,0,0-4.182-.9l.3.241a6.842,6.842,0,0,0-.862-3.163,8.179,8.179,0,0,0-2.344-2.6,8,8,0,0,0-4.156-1.5,9.37,9.37,0,0,0-3.941.627A11.434,11.434,0,0,0,56.122,5.66l.241.022a3.182,3.182,0,0,0-1.555-1.346,1.4,1.4,0,0,0-.709-.149" transform="translate(14.852 0.384)" fill="#455a64"/>
            <path id="Trazado_801877" data-name="Trazado 801877" d="M32.048,168.089a3.05,3.05,0,0,0,.623.3l1.832.739c1.591.642,3.928,1.482,6.844,2.437s6.426,1.976,10.362,2.963c3.943.957,8.314,1.874,12.94,2.61,4.63.715,9.072,1.183,13.12,1.48,4.051.265,7.7.377,10.774.352s5.551-.1,7.261-.223l1.969-.143a3.022,3.022,0,0,0,.684-.09,3,3,0,0,0-.691-.029c-.515.008-1.169.018-1.972.032-1.712.052-4.191.071-7.25.033s-6.7-.185-10.735-.478c-4.031-.326-8.455-.808-13.069-1.521-4.609-.734-8.965-1.63-12.9-2.555-3.929-.955-7.443-1.922-10.366-2.832s-5.278-1.679-6.89-2.253l-1.868-.633a3.024,3.024,0,0,0-.667-.184" transform="translate(8.799 46.147)" fill="#263238"/>
            <path id="Trazado_801878" data-name="Trazado 801878" d="M95.829,70.709,80.2,68.148s-.828,6.547-11.435,6.763c-12.219.25-20.778-10.205-20.778-10.205S20.889,72.531,15.555,76.53s12.094,87.55,12.094,87.55l1.582,24.884s-3.553,4.441-3.553,8.76a9.736,9.736,0,0,1-2.143,6.533c32.566,9.133,67.787,17.294,97.52,8.453,0,0-.741-14.68-2.461-18.678s-1.4-4.368-1.4-4.368L112.315,146.1l-4.684-42.382Z" transform="translate(3.992 17.764)" fill="#e8e8e8"/>
            <path id="Trazado_801879" data-name="Trazado 801879" d="M78.319,69.416s7.726,2.357,12.214,7.219,14.409,21.777,14.409,21.777L96.3,126.343l-12.5-6.049Z" transform="translate(21.502 19.058)" fill="#e8e8e8"/>
            <path id="Trazado_801880" data-name="Trazado 801880" d="M85.858,94.181a23.387,23.387,0,0,1,.83,3.923c.424,2.437.956,5.812,1.48,9.549s.934,7.134,1.175,9.6a22.382,22.382,0,0,1,.226,4,25.937,25.937,0,0,1-.692-3.947c-.377-2.646-.848-5.929-1.366-9.56-.488-3.636-.93-6.923-1.286-9.573a24.549,24.549,0,0,1-.366-3.992" transform="translate(23.564 25.857)" fill="#263238"/>
            <path id="Trazado_801881" data-name="Trazado 801881" d="M58.7,124.606a6.739,6.739,0,0,1-7.144,6.308A6.642,6.642,0,0,1,46.8,128.5c-1.854-2.284-5.207-5.549-9.37-5.808-6.456-.4-11.29,4.483-11.745,11.8s3.737,12.762,10.193,13.163c4.165.259,7.895-2.566,10.018-4.6a6.644,6.644,0,0,1,5.023-1.807,6.739,6.739,0,0,1,6.308,7.144L54.35,194.032l101.579,4.323,2.2-47.989a6.622,6.622,0,0,1,7.141-6.162,6.214,6.214,0,0,1,4.521,2.473c1.854,2.285,4.3,5.777,9.614,5.605,7.27-.236,11.289-4.483,11.744-11.8s-3.736-12.762-10.191-13.163c-4.165-.259-7.9,2.383-10.024,4.421a6.8,6.8,0,0,1-5.017,1.99c-3.715-.232-7.178-3.044-6.948-6.758L160.7,86.218l-100.6-4.282Z" transform="translate(7.041 22.495)" fill="#59bee2"/>
            <path id="Trazado_801882" data-name="Trazado 801882" d="M15.838,75.738S9.259,90.064,8.6,94.678c-.533,3.722-4.65,51.192-5.015,58.166s-2.694,21.522,6.129,26.55c6.072,3.459,36.727,8.415,34.911,8.144,3.109-6.059-1.118-9.936,4.465-15L28.253,157.5l4.105-50.584Z" transform="translate(0.833 20.793)" fill="#ae7461"/>
            <path id="Trazado_801883" data-name="Trazado 801883" d="M13.758,147.056a12.551,12.551,0,0,1,4.776-5.078,12.531,12.531,0,0,1,6.578-2.306c.05.187-3.073.715-6.249,2.81-3.2,2.055-4.953,4.694-5.1,4.573" transform="translate(3.775 38.338)" fill="#6f4439"/>
            <path id="Trazado_801884" data-name="Trazado 801884" d="M43.14,152.678s3.412-3.04,6.08-3.341,6.227.5,6.9.108,2.2-2.039,3.332-.823,2.736,5.78-2.758,7.443l-3.838.265s.73,3.806,1.765,5.254,15.19,16.946,15.19,16.946,1.74,1.515,1.039,3.2-4.254,1-4.254,1-2.29,2.377-5.153,1.523a19.6,19.6,0,0,1-4.082-1.588,5.184,5.184,0,0,1-6.28.433c-3.425-2.218-17.517-17.334-17.517-17.334l5.126-13.243Z" transform="translate(9.215 40.682)" fill="#ae7461"/>
            <path id="Trazado_801885" data-name="Trazado 801885" d="M51.011,167.473c.148-.13,2.279,2.352,5.254,5.013,3,2.634,5.72,4.452,5.608,4.615a7.1,7.1,0,0,1-1.881-1.035,35.341,35.341,0,0,1-4.127-3.129,35.78,35.78,0,0,1-3.6-3.72,7.1,7.1,0,0,1-1.253-1.744" transform="translate(14.003 45.977)" fill="#6f4439"/>
            <path id="Trazado_801886" data-name="Trazado 801886" d="M46.12,170.377c.144-.14,1.712,1.5,3.969,3.079,2.325,1.543,4.025,3.1,3.91,3.226a34.451,34.451,0,0,1-4.257-2.734,11.887,11.887,0,0,1-3.622-3.571" transform="translate(12.661 46.774)" fill="#6f4439"/>
            <path id="Trazado_801887" data-name="Trazado 801887" d="M0,127.5l30.968,5.909,9.015-28.729L32.616,70.534s-16.484.6-21.9,14.077S0,127.5,0,127.5" transform="translate(0 19.365)" fill="#e8e8e8"/>
            <path id="Trazado_801888" data-name="Trazado 801888" d="M125.658,91.987s3.655-.8,1.847-8.492c-1.134-4.817-4.112-2.043-4.112-2.043a2.986,2.986,0,0,0-4.836.874l-.415-.478s-2.219-3.743-5.44-.15a3.415,3.415,0,0,0-3.872.724c-1.555,1.793.975,5.817.975,5.817s.517,5.911,2.1,6.134a2.147,2.147,0,0,0,2.331-1.346,31.685,31.685,0,0,0,.208-4.165s.422,5.167,1.473,5.565c1.865.7,3.695.357,3.019-5.885,0,0,.426,4.647,1.441,5.115,1.167.538,2.469-.3,3.13-2.029a6.954,6.954,0,0,0,.433-3.218s-.582,4.414,1.713,3.578" transform="translate(29.74 22.002)" fill="#ae7461"/>
            <path id="Trazado_801889" data-name="Trazado 801889" d="M120.151,81.355a27.008,27.008,0,0,0,.157,4.22,27.118,27.118,0,0,0,.256,4.216,11.5,11.5,0,0,0,.307-4.243,11.487,11.487,0,0,0-.72-4.193" transform="translate(32.971 22.335)" fill="#6f4439"/>
            <path id="Trazado_801890" data-name="Trazado 801890" d="M116.215,81.8a25.7,25.7,0,0,0,.311,3.971,25.52,25.52,0,0,0,.372,3.968,10.04,10.04,0,0,0,.191-4.015,10.024,10.024,0,0,0-.874-3.924" transform="translate(31.893 22.456)" fill="#6f4439"/>
            <path id="Trazado_801891" data-name="Trazado 801891" d="M111.547,81.3c-.148.083.748,1.787,1.282,4.066.554,2.275.525,4.2.695,4.207a8.31,8.31,0,0,0-.145-4.339,8.317,8.317,0,0,0-1.832-3.935" transform="translate(30.62 22.32)" fill="#6f4439"/>
            <path id="Trazado_801892" data-name="Trazado 801892" d="M25.3,92.738a5.63,5.63,0,0,1,.115,1.387c.032.892.048,2.185.051,3.78,0,3.191-.088,7.6-.263,12.465-.175,4.782-.334,9.105-.456,12.454q-.094,2.218-.159,3.774a5.63,5.63,0,0,1-.144,1.383,5.613,5.613,0,0,1-.115-1.385c-.032-.893-.048-2.185-.051-3.78,0-3.193.088-7.6.263-12.468.175-4.781.334-9.1.456-12.451q.094-2.218.159-3.774a5.649,5.649,0,0,1,.144-1.384" transform="translate(6.665 25.461)" fill="#263238"/>
          </g>
        </g>
      </g>
    </g>
  </g>
</svg>
