<svg xmlns="http://www.w3.org/2000/svg" xmlns:xlink="http://www.w3.org/1999/xlink" width="141" height="141" viewBox="0 0 141 141">
  <defs>
    <clipPath id="clip-path">
      <path id="Trazado_802004" data-name="Trazado 802004" d="M70.5,0A70.5,70.5,0,1,1,0,70.5,70.5,70.5,0,0,1,70.5,0Z" transform="translate(895 2504.32)" fill="#fff" stroke="#1969d5" stroke-width="4"/>
    </clipPath>
  </defs>
  <g id="Grupo_1067334" data-name="Grupo 1067334" transform="translate(-1109.325 -2402.23)">
    <g id="Trazado_802003" data-name="Trazado 802003" transform="translate(1109.325 2402.23)" fill="#fff">
      <path d="M 70.5 139 C 61.25167846679688 139 52.28105926513672 137.1891632080078 43.83731842041016 133.6177673339844 C 39.77883911132812 131.9011535644531 35.86428070068359 129.7763977050781 32.20240020751953 127.3024597167969 C 28.57476043701172 124.851676940918 25.1634407043457 122.0370788574219 22.06318092346191 118.9368209838867 C 18.96291923522949 115.8365631103516 16.14831924438477 112.4252395629883 13.69754028320312 108.7975997924805 C 11.22360038757324 105.1357192993164 9.09883975982666 101.2211608886719 7.382239818572998 97.16268157958984 C 3.810839891433716 88.71894073486328 2 79.74832153320312 2 70.5 C 2 61.25167846679688 3.810839891433716 52.28105926513672 7.382239818572998 43.83731842041016 C 9.09883975982666 39.77883911132812 11.22360038757324 35.86428070068359 13.69754028320312 32.20240020751953 C 16.14831924438477 28.57476043701172 18.96291923522949 25.1634407043457 22.06318092346191 22.06318092346191 C 25.1634407043457 18.96291923522949 28.57476043701172 16.14831924438477 32.20240020751953 13.69754028320312 C 35.86428070068359 11.22360038757324 39.77883911132812 9.09883975982666 43.83731842041016 7.382239818572998 C 52.28105926513672 3.810839891433716 61.25167846679688 2 70.5 2 C 79.74832153320312 2 88.71894073486328 3.810839891433716 97.16268157958984 7.382239818572998 C 101.2211608886719 9.09883975982666 105.1357192993164 11.22360038757324 108.7975997924805 13.69754028320312 C 112.4252395629883 16.14831924438477 115.8365631103516 18.96291923522949 118.9368209838867 22.06318092346191 C 122.0370788574219 25.1634407043457 124.851676940918 28.57476043701172 127.3024597167969 32.20240020751953 C 129.7763977050781 35.86428070068359 131.9011535644531 39.77883911132812 133.6177673339844 43.83731842041016 C 137.1891632080078 52.28105926513672 139 61.25167846679688 139 70.5 C 139 79.74832153320312 137.1891632080078 88.71894073486328 133.6177673339844 97.16268157958984 C 131.9011535644531 101.2211608886719 129.7763977050781 105.1357192993164 127.3024597167969 108.7975997924805 C 124.851676940918 112.4252395629883 122.0370788574219 115.8365631103516 118.9368209838867 118.9368209838867 C 115.8365631103516 122.0370788574219 112.4252395629883 124.851676940918 108.7975997924805 127.3024597167969 C 105.1357192993164 129.7763977050781 101.2211608886719 131.9011535644531 97.16268157958984 133.6177673339844 C 88.71894073486328 137.1891632080078 79.74832153320312 139 70.5 139 Z" stroke="none"/>
      <path d="M 70.5 4 C 61.52080535888672 4 52.81230163574219 5.7576904296875 44.61643218994141 9.224258422851562 C 40.67688751220703 10.89054870605469 36.87689208984375 12.95315551757812 33.322021484375 15.35478210449219 C 29.79987335205078 17.73430633544922 26.48765563964844 20.46715545654297 23.47740936279297 23.47740936279297 C 20.46715545654297 26.48765563964844 17.73430633544922 29.79987335205078 15.35478210449219 33.322021484375 C 12.95315551757812 36.87689208984375 10.89054870605469 40.67688751220703 9.224258422851562 44.61643218994141 C 5.7576904296875 52.81230163574219 4 61.52080535888672 4 70.5 C 4 79.47919464111328 5.7576904296875 88.18769836425781 9.224258422851562 96.38356018066406 C 10.89054870605469 100.3231048583984 12.95315551757812 104.1231079101562 15.35478210449219 107.677978515625 C 17.73430633544922 111.2001342773438 20.46715545654297 114.5123443603516 23.47740936279297 117.5225830078125 C 26.48765563964844 120.5328521728516 29.79987335205078 123.2656936645508 33.322021484375 125.6452178955078 C 36.87689208984375 128.0468444824219 40.67688751220703 130.1094512939453 44.61643218994141 131.7757415771484 C 52.81230163574219 135.2423095703125 61.52080535888672 137 70.5 137 C 79.47919464111328 137 88.18769836425781 135.2423095703125 96.38356018066406 131.7757415771484 C 100.3231048583984 130.1094512939453 104.1231079101562 128.0468444824219 107.677978515625 125.6452178955078 C 111.2001342773438 123.2656936645508 114.5123443603516 120.5328521728516 117.5225830078125 117.5225830078125 C 120.5328521728516 114.5123443603516 123.2656936645508 111.2001342773438 125.6452178955078 107.677978515625 C 128.0468444824219 104.1231079101562 130.1094512939453 100.3231048583984 131.7757415771484 96.38356018066406 C 135.2423095703125 88.18769836425781 137 79.47919464111328 137 70.5 C 137 61.52080535888672 135.2423095703125 52.81230163574219 131.7757415771484 44.61643218994141 C 130.1094512939453 40.67688751220703 128.0468444824219 36.87689208984375 125.6452178955078 33.322021484375 C 123.2656936645508 29.79987335205078 120.5328521728516 26.48765563964844 117.5225830078125 23.47740936279297 C 114.5123443603516 20.46715545654297 111.2001342773438 17.73430633544922 107.677978515625 15.35478210449219 C 104.1231079101562 12.95315551757812 100.3231048583984 10.89054870605469 96.38356018066406 9.224258422851562 C 88.18769836425781 5.7576904296875 79.47919464111328 4 70.5 4 M 70.5 0 C 109.4360656738281 0 141 31.56393432617188 141 70.5 C 141 109.4360656738281 109.4360656738281 141 70.5 141 C 31.56393432617188 141 0 109.4360656738281 0 70.5 C 0 31.56393432617188 31.56393432617188 0 70.5 0 Z" stroke="none" fill="#59bee2"/>
    </g>
    <g id="Enmascarar_grupo_1064379" data-name="Enmascarar grupo 1064379" transform="translate(214.325 -102.09)" clip-path="url(#clip-path)">
      <g id="layer1" transform="translate(915.113 36.925)">
        <path id="path9073" d="M64.161,2547.033h-9.2v-3.046H62.57a4.582,4.582,0,0,0,4.283-3.046h14v41.112a1.523,1.523,0,0,0,1.517,1.529h6.092a1.523,1.523,0,0,0,1.517-1.529v-41.112h4.575a1.523,1.523,0,0,0,1.523-1.523v-6.092a1.523,1.523,0,0,0-1.523-1.523H89.976v-1.517a4.6,4.6,0,0,0-4.563-4.577H82.368a4.6,4.6,0,0,0-4.566,4.577v1.517H67.139v-4.569c0-.514-.035-1.021-.077-1.523h3.123a4.593,4.593,0,0,0,4.569-4.569v-24.366a4.593,4.593,0,0,0-4.569-4.569H30.59a4.593,4.593,0,0,0-4.569,4.569v24.366a4.593,4.593,0,0,0,4.569,4.569h3.123c-.046.5-.077,1.009-.077,1.523v4.569H22.975v-16.752a1.523,1.523,0,0,0-1.529-1.529H16.884v-3.034a1.523,1.523,0,0,0-1.517-1.529H9.272a1.523,1.523,0,0,0-1.529,1.529V2531.8H6.223a1.523,1.523,0,0,0-1.523,1.523v6.092a1.523,1.523,0,0,0,1.523,1.523h4.569v12.189a1.523,1.523,0,1,0,3.046,0v-12.189h3.046v39.6H13.838v-13.7a1.523,1.523,0,1,0-3.046,0v15.22a1.523,1.523,0,0,0,1.529,1.529H18.4a1.523,1.523,0,0,0,1.529-1.529v-41.112H33.921a4.582,4.582,0,0,0,4.283,3.046h7.614v3.046H36.613a4.569,4.569,0,0,0,0,9.138h6.16v4.569a1.523,1.523,0,0,0,1.517,1.517h1.529v6.094H39.727a4.592,4.592,0,0,0-4.563,4.574v1.8a4.565,4.565,0,1,0,3.046.006v-1.806a1.487,1.487,0,0,1,1.517-1.529h9.14v3.328a4.573,4.573,0,1,0,3.046,0V2571.4h9.14a1.487,1.487,0,0,1,1.517,1.529v1.8a4.573,4.573,0,1,0,3.046,0v-1.8a4.593,4.593,0,0,0-4.563-4.574H54.959v-6.094h1.52a1.524,1.524,0,0,0,1.529-1.517v-4.569h6.154a4.569,4.569,0,0,0,0-9.138Zm-33.572-51.779h39.6a1.487,1.487,0,0,1,1.523,1.523v19.8h-8.4a16.755,16.755,0,0,0-25.848,0h-8.4v-19.8A1.487,1.487,0,0,1,30.589,2495.254Zm-19.8,16.752h3.046v19.8H10.792Zm39.6,1.523a13.643,13.643,0,0,1,13.706,13.706v12.183a1.488,1.488,0,0,1-1.523,1.523H54.959V2531.8a4.57,4.57,0,0,0-9.14,0v9.137H38.2a1.487,1.487,0,0,1-1.523-1.523v-12.183A13.643,13.643,0,0,1,50.387,2513.529Zm-33.5,3.04h3.046V2531.8H16.883Zm12.183,3.052h6.413a16.625,16.625,0,0,0-1.2,3.046H30.589a1.488,1.488,0,0,1-1.523-1.523Zm36.228,0h6.413v1.523a1.487,1.487,0,0,1-1.523,1.523H66.493A16.659,16.659,0,0,0,65.295,2519.621Zm17.073,9.134h3.046a1.49,1.49,0,0,1,1.517,1.532v1.517h-6.08v-1.517A1.49,1.49,0,0,1,82.368,2528.755Zm-31.984,1.532a1.487,1.487,0,0,1,1.529,1.517v21.326H48.867V2531.8A1.478,1.478,0,0,1,50.384,2530.287ZM7.746,2534.85H33.635v3.046H7.746Zm59.393,0H93.028v3.046H67.139Zm16.758,6.092H86.93v39.6H83.9Zm-47.284,9.137h9.206v3.046H36.612a1.524,1.524,0,0,1,0-3.046Zm27.549,3.046h-9.2v-3.046h9.2a1.524,1.524,0,0,1,0,3.046Zm-18.343,3.052h9.14v3.034h-9.14ZM12.3,2557.669a1.524,1.524,0,0,0-1.505,1.541v1.529a1.523,1.523,0,1,0,3.046,0v-1.529a1.522,1.522,0,0,0-1.541-1.541Zm36.57,4.587h3.046v6.094H48.867Zm-12.186,15.235a1.523,1.523,0,1,1,0,3.046,1.523,1.523,0,0,1,0-3.046Zm13.7,0a1.523,1.523,0,1,1,0,3.046,1.523,1.523,0,0,1,0-3.046Zm13.7,0a1.523,1.523,0,1,1,0,3.046,1.523,1.523,0,0,1,0-3.046Z" transform="translate(0 0)" fill="#12263f"/>
      </g>
    </g>
  </g>
</svg>
