<svg xmlns="http://www.w3.org/2000/svg" width="141" height="141" viewBox="0 0 141 141">
  <g id="Grupo_1067343" data-name="Grupo 1067343" transform="translate(-2829 7487)">
    <g id="Trazado_802293" data-name="Trazado 802293" transform="translate(2829 -7487)" fill="#fff">
      <path d="M 70.5 139 C 61.25167846679688 139 52.28105926513672 137.1891632080078 43.83731842041016 133.6177673339844 C 39.77883911132812 131.9011535644531 35.86428070068359 129.7763977050781 32.20240020751953 127.3024597167969 C 28.57476043701172 124.851676940918 25.1634407043457 122.0370788574219 22.06318092346191 118.9368209838867 C 18.96291923522949 115.8365631103516 16.14831924438477 112.4252395629883 13.69754028320312 108.7975997924805 C 11.22360038757324 105.1357192993164 9.09883975982666 101.2211608886719 7.382239818572998 97.16268157958984 C 3.810839891433716 88.71894073486328 2 79.74832153320312 2 70.5 C 2 61.25167846679688 3.810839891433716 52.28105926513672 7.382239818572998 43.83731842041016 C 9.09883975982666 39.77883911132812 11.22360038757324 35.86428070068359 13.69754028320312 32.20240020751953 C 16.14831924438477 28.57476043701172 18.96291923522949 25.1634407043457 22.06318092346191 22.06318092346191 C 25.1634407043457 18.96291923522949 28.57476043701172 16.14831924438477 32.20240020751953 13.69754028320312 C 35.86428070068359 11.22360038757324 39.77883911132812 9.09883975982666 43.83731842041016 7.382239818572998 C 52.28105926513672 3.810839891433716 61.25167846679688 2 70.5 2 C 79.74832153320312 2 88.71894073486328 3.810839891433716 97.16268157958984 7.382239818572998 C 101.2211608886719 9.09883975982666 105.1357192993164 11.22360038757324 108.7975997924805 13.69754028320312 C 112.4252395629883 16.14831924438477 115.8365631103516 18.96291923522949 118.9368209838867 22.06318092346191 C 122.0370788574219 25.1634407043457 124.851676940918 28.57476043701172 127.3024597167969 32.20240020751953 C 129.7763977050781 35.86428070068359 131.9011535644531 39.77883911132812 133.6177673339844 43.83731842041016 C 137.1891632080078 52.28105926513672 139 61.25167846679688 139 70.5 C 139 79.74832153320312 137.1891632080078 88.71894073486328 133.6177673339844 97.16268157958984 C 131.9011535644531 101.2211608886719 129.7763977050781 105.1357192993164 127.3024597167969 108.7975997924805 C 124.851676940918 112.4252395629883 122.0370788574219 115.8365631103516 118.9368209838867 118.9368209838867 C 115.8365631103516 122.0370788574219 112.4252395629883 124.851676940918 108.7975997924805 127.3024597167969 C 105.1357192993164 129.7763977050781 101.2211608886719 131.9011535644531 97.16268157958984 133.6177673339844 C 88.71894073486328 137.1891632080078 79.74832153320312 139 70.5 139 Z" stroke="none"/>
      <path d="M 70.5 4 C 61.52080535888672 4 52.81230163574219 5.7576904296875 44.61643218994141 9.224258422851562 C 40.67688751220703 10.89054870605469 36.87689208984375 12.95315551757812 33.322021484375 15.35478210449219 C 29.79987335205078 17.73430633544922 26.48765563964844 20.46715545654297 23.47740936279297 23.47740936279297 C 20.46715545654297 26.48765563964844 17.73430633544922 29.79987335205078 15.35478210449219 33.322021484375 C 12.95315551757812 36.87689208984375 10.89054870605469 40.67688751220703 9.224258422851562 44.61643218994141 C 5.7576904296875 52.81230163574219 4 61.52080535888672 4 70.5 C 4 79.47919464111328 5.7576904296875 88.18769836425781 9.224258422851562 96.38356018066406 C 10.89054870605469 100.3231048583984 12.95315551757812 104.1231079101562 15.35478210449219 107.677978515625 C 17.73430633544922 111.2001342773438 20.46715545654297 114.5123443603516 23.47740936279297 117.5225830078125 C 26.48765563964844 120.5328521728516 29.79987335205078 123.2656936645508 33.322021484375 125.6452178955078 C 36.87689208984375 128.0468444824219 40.67688751220703 130.1094512939453 44.61643218994141 131.7757415771484 C 52.81230163574219 135.2423095703125 61.52080535888672 137 70.5 137 C 79.47919464111328 137 88.18769836425781 135.2423095703125 96.38356018066406 131.7757415771484 C 100.3231048583984 130.1094512939453 104.1231079101562 128.0468444824219 107.677978515625 125.6452178955078 C 111.2001342773438 123.2656936645508 114.5123443603516 120.5328521728516 117.5225830078125 117.5225830078125 C 120.5328521728516 114.5123443603516 123.2656936645508 111.2001342773438 125.6452178955078 107.677978515625 C 128.0468444824219 104.1231079101562 130.1094512939453 100.3231048583984 131.7757415771484 96.38356018066406 C 135.2423095703125 88.18769836425781 137 79.47919464111328 137 70.5 C 137 61.52080535888672 135.2423095703125 52.81230163574219 131.7757415771484 44.61643218994141 C 130.1094512939453 40.67688751220703 128.0468444824219 36.87689208984375 125.6452178955078 33.322021484375 C 123.2656936645508 29.79987335205078 120.5328521728516 26.48765563964844 117.5225830078125 23.47740936279297 C 114.5123443603516 20.46715545654297 111.2001342773438 17.73430633544922 107.677978515625 15.35478210449219 C 104.1231079101562 12.95315551757812 100.3231048583984 10.89054870605469 96.38356018066406 9.224258422851562 C 88.18769836425781 5.7576904296875 79.47919464111328 4 70.5 4 M 70.5 0 C 109.4360656738281 0 141 31.56393432617188 141 70.5 C 141 109.4360656738281 109.4360656738281 141 70.5 141 C 31.56393432617188 141 0 109.4360656738281 0 70.5 C 0 31.56393432617188 31.56393432617188 0 70.5 0 Z" stroke="none" fill="#288640"/>
    </g>
    <path id="alianza" d="M51.214,51.32a1.609,1.609,0,1,1-1.533-1.682A1.609,1.609,0,0,1,51.214,51.32ZM115.5,78.245l-4.829,1.872a3.883,3.883,0,0,1-5.025-2.217l-.361-.932-3.66,1.527a5.2,5.2,0,0,1-3.739,5.765h0a5.213,5.213,0,0,1-5.508,6.682,5.238,5.238,0,0,1-6.131,5.277,5.182,5.182,0,0,1-.643,2.461,5.294,5.294,0,0,1-3.193,2.528,5.229,5.229,0,0,1-1.412.2,5.051,5.051,0,0,1-2.525-.675l-1.205-.692a5.309,5.309,0,0,1-2.718,1.892,5.388,5.388,0,0,1-1.563.233,5.341,5.341,0,0,1-4.91-3.271,5.324,5.324,0,0,1-6.711-2.563,5.336,5.336,0,0,1-7.7-5.393,5.345,5.345,0,0,1-4.637-7.858l1.265-2.364a11.146,11.146,0,0,1-.552-2.144c-.239-1.283-.421-2.077-.935-2.277-.34-.132-1.2-.506-2.67-1.16l-.457,1.033a3.884,3.884,0,0,1-5.122,1.982l-4.737-2.094a3.889,3.889,0,0,1-1.982-5.123L44.705,46.323a3.891,3.891,0,0,1,5.123-1.982l4.737,2.094a3.889,3.889,0,0,1,1.982,5.123l-.752,1.7,2.939,1.356q.056.026.109.056c1.64.923,3.382.514,5.588,0,2.934-.688,6.54-1.533,10.757.909,5.827-3.56,10.3-1.736,13.607-.384,2.408.984,3.838,1.5,5.25.771l2.561-1.371-.688-1.776a3.889,3.889,0,0,1,2.217-5.025l4.829-1.872a3.889,3.889,0,0,1,5.025,2.217l9.725,25.085a3.889,3.889,0,0,1-2.218,5.025Zm-72.6-3.308L53.769,50.329a.858.858,0,0,0-.432-1.116L48.6,47.119a.822.822,0,0,0-.335-.071.873.873,0,0,0-.312.059.843.843,0,0,0-.47.445L36.607,72.158a.858.858,0,0,0,.432,1.116l4.737,2.094a.858.858,0,0,0,1.116-.432ZM55.124,87.429,58.2,82.1a2.3,2.3,0,0,0-4.148-2L51.7,84.508a2.317,2.317,0,0,0,.946,3.12,2.315,2.315,0,0,0,2.481-.2ZM61,92.635l3.418-6.619a2.3,2.3,0,0,0-3.67-2.254l-3.821,6.71A2.306,2.306,0,1,0,61,92.635Zm6.945,2.692,3.023-5.809a2.3,2.3,0,0,0-3.861-2.087l-3.283,6.358a2.3,2.3,0,0,0,4.122,1.538Zm7.082,2.58,2.261-4.228a2.327,2.327,0,0,0-.185-2.463,2.259,2.259,0,0,0-.761-.657,2.336,2.336,0,0,0-2.688.376L70.7,96.613a2.306,2.306,0,0,0,4.327,1.293Zm7.036-3.686c-.076-.043-1.522-.887-1.522-.887a5.288,5.288,0,0,1-.575,1.777l-1.218,2.277,1.229.706a2.071,2.071,0,0,0,1.6.188,2.207,2.207,0,0,0,.481-4.062ZM98.415,78.279a2.276,2.276,0,0,0-.925-.987L84.647,69.972c-2.113-1.2-4.8-.115-7.92,1.146-4.713,1.908-10.579,4.283-15.621-2.2a1.963,1.963,0,0,1,.561-2.9,43.727,43.727,0,0,0,9.058-6.832q.847-.856,1.7-1.587c-2.634-1.066-4.916-.532-7.3.028-2.49.583-5.064,1.187-7.715-.276l-2.842-1.311L47.355,72.353c1.4.622,2.251.994,2.542,1.107,1.772.688,2.345,2.3,2.657,3.722a5.339,5.339,0,0,1,8.8,3.126,5.336,5.336,0,0,1,5.889,3.641,5.347,5.347,0,0,1,6.549,3.5,5.33,5.33,0,0,1,3.981.429,5.266,5.266,0,0,1,1.589,1.3l6.73,3.809,0,0a2.151,2.151,0,0,0,1.653.182,2.185,2.185,0,0,0,1.322-1.051,2.22,2.22,0,0,0-.878-2.988L78.7,83.765a1.519,1.519,0,1,1,1.489-2.647l11.618,6.537h0a2.2,2.2,0,0,0,2.981-.865,2.22,2.22,0,0,0-.878-2.988h0c-2.726-1.527-5.815-3.257-8.847-4.993a1.519,1.519,0,1,1,1.509-2.636c3.022,1.73,6.106,3.458,8.827,4.982a2.133,2.133,0,0,0,1.641.183,2.191,2.191,0,0,0,1.329-1.054,2.154,2.154,0,0,0,.041-2Zm5.767-4.145L97.712,57.443l-2.25,1.2c-2.744,1.428-5.323.374-7.816-.646-3.29-1.344-6.691-2.735-11.581.62a22.031,22.031,0,0,0-3.18,2.7A45.473,45.473,0,0,1,64.3,67.975c3.408,3.515,7.079,2.029,11.282.328,3.525-1.427,7.171-2.9,10.563-.97l12.843,7.321a5.325,5.325,0,0,1,1.343,1.085Zm10.7.183-9.725-25.085a.86.86,0,0,0-.8-.539.821.821,0,0,0-.3.055l-4.829,1.872a.858.858,0,0,0-.483,1.1L108.474,76.8a.858.858,0,0,0,1.1.483l4.829-1.872A.858.858,0,0,0,114.881,74.318Zm-12.017-23.1a1.609,1.609,0,1,0,1.609,1.609A1.612,1.612,0,0,0,102.864,51.216ZM43.587,30V25.12a1.519,1.519,0,0,1,.973-1.417l2.265-.872a16.883,16.883,0,0,1,1.436-3.464l-.986-2.22a1.519,1.519,0,0,1,.314-1.69L51.044,12a1.518,1.518,0,0,1,1.69-.314l2.22.986a16.876,16.876,0,0,1,3.464-1.436l.872-2.266A1.518,1.518,0,0,1,60.708,8h4.884a1.519,1.519,0,0,1,1.417.973l.872,2.266a16.885,16.885,0,0,1,3.464,1.436l2.22-.986a1.52,1.52,0,0,1,1.69.314l2.379,2.38L80.015,12a1.518,1.518,0,0,1,1.69-.314l2.22.986a16.88,16.88,0,0,1,3.464-1.436l.872-2.266A1.518,1.518,0,0,1,89.679,8h4.884a1.519,1.519,0,0,1,1.417.973l.872,2.266a16.885,16.885,0,0,1,3.464,1.436l2.22-.986a1.519,1.519,0,0,1,1.69.314l3.454,3.453a1.519,1.519,0,0,1,.314,1.69l-.986,2.219a16.87,16.87,0,0,1,1.436,3.465l2.265.872a1.519,1.519,0,0,1,.973,1.417V30a1.519,1.519,0,0,1-.973,1.417l-2.266.872a16.885,16.885,0,0,1-1.436,3.464l.986,2.22a1.518,1.518,0,0,1-.314,1.69l-3.453,3.454a1.519,1.519,0,0,1-1.69.314l-2.219-.986a16.863,16.863,0,0,1-3.465,1.436l-.872,2.265a1.519,1.519,0,0,1-1.417.973H89.679a1.519,1.519,0,0,1-1.417-.973l-.872-2.266a16.883,16.883,0,0,1-3.464-1.436l-2.22.986a1.518,1.518,0,0,1-1.69-.314l-2.38-2.379-2.379,2.379a1.518,1.518,0,0,1-1.69.314l-2.219-.986a16.867,16.867,0,0,1-3.465,1.436l-.872,2.265a1.519,1.519,0,0,1-1.417.973H60.708a1.519,1.519,0,0,1-1.417-.973l-.872-2.266a16.885,16.885,0,0,1-3.464-1.436l-2.22.986a1.518,1.518,0,0,1-1.69-.314l-3.454-3.453a1.519,1.519,0,0,1-.314-1.69l.986-2.219a16.868,16.868,0,0,1-1.436-3.465l-2.265-.872A1.519,1.519,0,0,1,43.587,30ZM78.908,17.4l-.871,1.961a16.883,16.883,0,0,1,1.437,3.465l2.265.872a1.516,1.516,0,0,1,.831.78,10.036,10.036,0,1,1,0,6.158,1.516,1.516,0,0,1-.831.78l-2.266.872a16.885,16.885,0,0,1-1.436,3.464l.872,1.963,2.516,2.516,1.977-.878a1.517,1.517,0,0,1,1.413.095,13.866,13.866,0,0,0,4.064,1.685,1.518,1.518,0,0,1,1.066.932l.776,2.017h2.8l.776-2.016a1.519,1.519,0,0,1,1.066-.932,13.856,13.856,0,0,0,4.065-1.685,1.518,1.518,0,0,1,1.413-.095l1.976.878,1.979-1.979-.878-1.977a1.518,1.518,0,0,1,.095-1.413A13.859,13.859,0,0,0,105.7,30.8a1.519,1.519,0,0,1,.932-1.066l2.017-.776v-2.8l-2.016-.776a1.519,1.519,0,0,1-.932-1.066,13.855,13.855,0,0,0-1.685-4.065,1.519,1.519,0,0,1-.095-1.413l.878-1.976-1.979-1.979-1.977.878a1.518,1.518,0,0,1-1.413-.095,13.866,13.866,0,0,0-4.064-1.685,1.518,1.518,0,0,1-1.066-.932l-.777-2.018h-2.8l-.776,2.017a1.518,1.518,0,0,1-1.066.932,13.867,13.867,0,0,0-4.065,1.685,1.518,1.518,0,0,1-1.413.095l-1.977-.878ZM92.121,34.561a7,7,0,1,0-7-7A7.006,7.006,0,0,0,92.121,34.561Zm-45.5-5.6,2.016.776a1.519,1.519,0,0,1,.932,1.066,13.863,13.863,0,0,0,1.685,4.066,1.519,1.519,0,0,1,.095,1.413l-.878,1.976,1.979,1.979,1.977-.878a1.519,1.519,0,0,1,1.413.095,13.867,13.867,0,0,0,4.065,1.685,1.518,1.518,0,0,1,1.066.932l.776,2.017h2.8l.776-2.016a1.519,1.519,0,0,1,1.066-.932,13.856,13.856,0,0,0,4.065-1.685,1.518,1.518,0,0,1,1.413-.095l1.976.878,1.979-1.979-.878-1.977a1.518,1.518,0,0,1,.095-1.413A13.859,13.859,0,0,0,76.726,30.8a1.519,1.519,0,0,1,.932-1.066l2.017-.776v-2.8l-2.016-.776a1.519,1.519,0,0,1-.932-1.066,13.861,13.861,0,0,0-1.685-4.065,1.518,1.518,0,0,1-.095-1.413l.878-1.976-1.979-1.979-1.977.878a1.518,1.518,0,0,1-1.413-.095,13.867,13.867,0,0,0-4.065-1.685,1.518,1.518,0,0,1-1.066-.932l-.776-2.017h-2.8l-.776,2.017a1.518,1.518,0,0,1-1.066.932,13.864,13.864,0,0,0-4.064,1.685,1.518,1.518,0,0,1-1.413.095l-1.977-.878-1.979,1.979.878,1.977a1.518,1.518,0,0,1-.095,1.413,13.862,13.862,0,0,0-1.685,4.065,1.519,1.519,0,0,1-.932,1.066l-2.017.776v2.8Zm6.489-1.4A10.036,10.036,0,1,1,63.15,37.6,10.047,10.047,0,0,1,53.114,27.562Zm3.037,0a7,7,0,1,0,7-7A7.006,7.006,0,0,0,56.151,27.562Z" transform="translate(2822.821 -7468.561)" fill="#12263f"/>
  </g>
</svg>
