<svg xmlns="http://www.w3.org/2000/svg" width="141" height="141" viewBox="0 0 141 141">
  <g id="Grupo_1067342" data-name="Grupo 1067342" transform="translate(-2470 7487)">
    <g id="Trazado_802279" data-name="Trazado 802279" transform="translate(2470 -7487)" fill="#fff">
      <path d="M 70.5 139 C 61.25167846679688 139 52.28105926513672 137.1891632080078 43.83731842041016 133.6177673339844 C 39.77883911132812 131.9011535644531 35.86428070068359 129.7763977050781 32.20240020751953 127.3024597167969 C 28.57476043701172 124.851676940918 25.1634407043457 122.0370788574219 22.06318092346191 118.9368209838867 C 18.96291923522949 115.8365631103516 16.14831924438477 112.4252395629883 13.69754028320312 108.7975997924805 C 11.22360038757324 105.1357192993164 9.09883975982666 101.2211608886719 7.382239818572998 97.16268157958984 C 3.810839891433716 88.71894073486328 2 79.74832153320312 2 70.5 C 2 61.25167846679688 3.810839891433716 52.28105926513672 7.382239818572998 43.83731842041016 C 9.09883975982666 39.77883911132812 11.22360038757324 35.86428070068359 13.69754028320312 32.20240020751953 C 16.14831924438477 28.57476043701172 18.96291923522949 25.1634407043457 22.06318092346191 22.06318092346191 C 25.1634407043457 18.96291923522949 28.57476043701172 16.14831924438477 32.20240020751953 13.69754028320312 C 35.86428070068359 11.22360038757324 39.77883911132812 9.09883975982666 43.83731842041016 7.382239818572998 C 52.28105926513672 3.810839891433716 61.25167846679688 2 70.5 2 C 79.74832153320312 2 88.71894073486328 3.810839891433716 97.16268157958984 7.382239818572998 C 101.2211608886719 9.09883975982666 105.1357192993164 11.22360038757324 108.7975997924805 13.69754028320312 C 112.4252395629883 16.14831924438477 115.8365631103516 18.96291923522949 118.9368209838867 22.06318092346191 C 122.0370788574219 25.1634407043457 124.851676940918 28.57476043701172 127.3024597167969 32.20240020751953 C 129.7763977050781 35.86428070068359 131.9011535644531 39.77883911132812 133.6177673339844 43.83731842041016 C 137.1891632080078 52.28105926513672 139 61.25167846679688 139 70.5 C 139 79.74832153320312 137.1891632080078 88.71894073486328 133.6177673339844 97.16268157958984 C 131.9011535644531 101.2211608886719 129.7763977050781 105.1357192993164 127.3024597167969 108.7975997924805 C 124.851676940918 112.4252395629883 122.0370788574219 115.8365631103516 118.9368209838867 118.9368209838867 C 115.8365631103516 122.0370788574219 112.4252395629883 124.851676940918 108.7975997924805 127.3024597167969 C 105.1357192993164 129.7763977050781 101.2211608886719 131.9011535644531 97.16268157958984 133.6177673339844 C 88.71894073486328 137.1891632080078 79.74832153320312 139 70.5 139 Z" stroke="none"/>
      <path d="M 70.5 4 C 61.52080535888672 4 52.81230163574219 5.7576904296875 44.61643218994141 9.224258422851562 C 40.67688751220703 10.89054870605469 36.87689208984375 12.95315551757812 33.322021484375 15.35478210449219 C 29.79987335205078 17.73430633544922 26.48765563964844 20.46715545654297 23.47740936279297 23.47740936279297 C 20.46715545654297 26.48765563964844 17.73430633544922 29.79987335205078 15.35478210449219 33.322021484375 C 12.95315551757812 36.87689208984375 10.89054870605469 40.67688751220703 9.224258422851562 44.61643218994141 C 5.7576904296875 52.81230163574219 4 61.52080535888672 4 70.5 C 4 79.47919464111328 5.7576904296875 88.18769836425781 9.224258422851562 96.38356018066406 C 10.89054870605469 100.3231048583984 12.95315551757812 104.1231079101562 15.35478210449219 107.677978515625 C 17.73430633544922 111.2001342773438 20.46715545654297 114.5123443603516 23.47740936279297 117.5225830078125 C 26.48765563964844 120.5328521728516 29.79987335205078 123.2656936645508 33.322021484375 125.6452178955078 C 36.87689208984375 128.0468444824219 40.67688751220703 130.1094512939453 44.61643218994141 131.7757415771484 C 52.81230163574219 135.2423095703125 61.52080535888672 137 70.5 137 C 79.47919464111328 137 88.18769836425781 135.2423095703125 96.38356018066406 131.7757415771484 C 100.3231048583984 130.1094512939453 104.1231079101562 128.0468444824219 107.677978515625 125.6452178955078 C 111.2001342773438 123.2656936645508 114.5123443603516 120.5328521728516 117.5225830078125 117.5225830078125 C 120.5328521728516 114.5123443603516 123.2656936645508 111.2001342773438 125.6452178955078 107.677978515625 C 128.0468444824219 104.1231079101562 130.1094512939453 100.3231048583984 131.7757415771484 96.38356018066406 C 135.2423095703125 88.18769836425781 137 79.47919464111328 137 70.5 C 137 61.52080535888672 135.2423095703125 52.81230163574219 131.7757415771484 44.61643218994141 C 130.1094512939453 40.67688751220703 128.0468444824219 36.87689208984375 125.6452178955078 33.322021484375 C 123.2656936645508 29.79987335205078 120.5328521728516 26.48765563964844 117.5225830078125 23.47740936279297 C 114.5123443603516 20.46715545654297 111.2001342773438 17.73430633544922 107.677978515625 15.35478210449219 C 104.1231079101562 12.95315551757812 100.3231048583984 10.89054870605469 96.38356018066406 9.224258422851562 C 88.18769836425781 5.7576904296875 79.47919464111328 4 70.5 4 M 70.5 0 C 109.4360656738281 0 141 31.56393432617188 141 70.5 C 141 109.4360656738281 109.4360656738281 141 70.5 141 C 31.56393432617188 141 0 109.4360656738281 0 70.5 C 0 31.56393432617188 31.56393432617188 0 70.5 0 Z" stroke="none" fill="#288640"/>
    </g>
    <g id="auto-crecimiento" transform="translate(2422.203 -7472.061)">
      <path id="Trazado_802280" data-name="Trazado 802280" d="M176.153,32.738v-5.4a8.268,8.268,0,0,0-8.268-8.268h0a8.268,8.268,0,0,0-5.847,2.422l-4.05,4.05" transform="translate(-57.602 -9.421)" fill="none" stroke="#12263f" stroke-linecap="round" stroke-linejoin="round" stroke-miterlimit="10" stroke-width="3"/>
      <path id="Trazado_802281" data-name="Trazado 802281" d="M255.99,62.858V56.489A8.27,8.27,0,0,1,270.1,50.641l4.05,4.052" transform="translate(-137.438 -33.172)" fill="none" stroke="#12263f" stroke-linecap="round" stroke-linejoin="round" stroke-miterlimit="10" stroke-width="3"/>
      <path id="Trazado_802282" data-name="Trazado 802282" d="M203.262,134.684a6.579,6.579,0,0,0-9.905-4.317,6.577,6.577,0,0,0-11.26,0,6.578,6.578,0,0,0-9.9,4.317" transform="translate(-69.173 -97.505)" fill="none" stroke="#12263f" stroke-linecap="round" stroke-linejoin="round" stroke-miterlimit="10" stroke-width="3"/>
      <path id="Trazado_802283" data-name="Trazado 802283" d="M316.647,35.153h0a4.994,4.994,0,0,0-4.993,4.994v.65H311a4.994,4.994,0,0,0-4.993,4.994h0A4.994,4.994,0,0,0,311,50.784h10.637V40.147A4.994,4.994,0,0,0,316.647,35.153Z" transform="translate(-178.187 -22.527)" fill="none" stroke="#12263f" stroke-linecap="round" stroke-linejoin="round" stroke-miterlimit="10" stroke-width="3"/>
      <path id="Trazado_802284" data-name="Trazado 802284" d="M133.845,22.076a4.826,4.826,0,0,0,.463-.408,4.994,4.994,0,0,0-3.531-8.525h-.651v-.651a4.994,4.994,0,0,0-9.987,0V23.131h7.394" transform="translate(-26.769 0)" fill="none" stroke="#12263f" stroke-linecap="round" stroke-linejoin="round" stroke-miterlimit="10" stroke-width="3"/>
      <path id="Trazado_802285" data-name="Trazado 802285" d="M141.993,419.346a31.33,31.33,0,0,1,19.946,15.779H106.532A31.325,31.325,0,0,1,126.5,419.34" transform="translate(-15.684 -335.503)" fill="none" stroke="#12263f" stroke-linecap="round" stroke-linejoin="round" stroke-miterlimit="10" stroke-width="3"/>
      <path id="Trazado_802286" data-name="Trazado 802286" d="M111.8,216.886a8.06,8.06,0,0,1-1.118-4.1v-1.961a23.921,23.921,0,0,1-15.833-19.481,10.17,10.17,0,0,1-7.566-9.831,6.6,6.6,0,0,1,6.6-6.6h.767v-7.3h47.815v7.3h.767a6.546,6.546,0,0,1,1.88.272" transform="translate(0 -130.441)" fill="none" stroke="#12263f" stroke-linecap="round" stroke-linejoin="round" stroke-miterlimit="10" stroke-width="3"/>
      <path id="Trazado_802287" data-name="Trazado 802287" d="M280.459,232.44a6.556,6.556,0,0,1,.272,1.88,10.17,10.17,0,0,1-7.566,9.831,23.926,23.926,0,0,1-15.833,19.483v2.089a7.876,7.876,0,0,1-8.009,7.872,7.711,7.711,0,0,1-1.353-.141" transform="translate(-130.905 -183.246)" fill="none" stroke="#12263f" stroke-linecap="round" stroke-linejoin="round" stroke-miterlimit="10" stroke-width="3"/>
      <g id="Grupo_1065978" data-name="Grupo 1065978" transform="translate(102.916 55.65)">
        <path id="Trazado_802288" data-name="Trazado 802288" d="M288.726,269.25a6.768,6.768,0,0,1,9.572,0" transform="translate(-267.022 -267.268)" fill="none" stroke="#12263f" stroke-linecap="round" stroke-linejoin="round" stroke-miterlimit="10" stroke-width="3"/>
        <path id="Trazado_802289" data-name="Trazado 802289" d="M171.634,269.25a6.768,6.768,0,0,1,9.572,0" transform="translate(-171.634 -267.268)" fill="none" stroke="#12263f" stroke-linecap="round" stroke-linejoin="round" stroke-miterlimit="10" stroke-width="3"/>
      </g>
      <g id="Grupo_1065979" data-name="Grupo 1065979" transform="translate(92.497 49.72)">
        <path id="Trazado_802290" data-name="Trazado 802290" d="M388.1,239.117a5.628,5.628,0,0,1,1.57-3.842" transform="translate(-337.557 -235.275)" fill="none" stroke="#12263f" stroke-linecap="round" stroke-linejoin="round" stroke-miterlimit="10" stroke-width="3"/>
        <path id="Trazado_802291" data-name="Trazado 802291" d="M117,239.117a5.628,5.628,0,0,0-1.57-3.842" transform="translate(-115.428 -235.275)" fill="none" stroke="#12263f" stroke-linecap="round" stroke-linejoin="round" stroke-miterlimit="10" stroke-width="3"/>
      </g>
      <path id="Trazado_802292" data-name="Trazado 802292" d="M242.17,340.167a6.378,6.378,0,0,1-9.02,0" transform="translate(-118.832 -271.005)" fill="none" stroke="#12263f" stroke-linecap="round" stroke-linejoin="round" stroke-miterlimit="10" stroke-width="3"/>
    </g>
  </g>
</svg>
