<svg xmlns="http://www.w3.org/2000/svg" xmlns:xlink="http://www.w3.org/1999/xlink" width="397.7" height="229.834" viewBox="0 0 397.7 229.834">
  <defs>
    <clipPath id="clip-path">
      <rect id="Rectángulo_374766" data-name="Rectángulo 374766" width="28.652" height="89.432" fill="none"/>
    </clipPath>
    <clipPath id="clip-path-2">
      <rect id="Rectángulo_374767" data-name="Rectángulo 374767" width="10.083" height="47.271" fill="none"/>
    </clipPath>
    <clipPath id="clip-path-3">
      <rect id="Rectángulo_374769" data-name="Rectángulo 374769" width="9.559" height="53.142" fill="none"/>
    </clipPath>
    <clipPath id="clip-path-4">
      <rect id="Rectángulo_374770" data-name="Rectángulo 374770" width="23.43" height="24.606" fill="none"/>
    </clipPath>
  </defs>
  <g id="Grupo_1067193" data-name="Grupo 1067193" transform="translate(-953 -12116.286)">
    <path id="Trazado_804202" data-name="Trazado 804202" d="M622.478,114.705a6.727,6.727,0,0,0,4.008-6.223,6.322,6.322,0,1,0-12.618-.059,6.718,6.718,0,0,0,4.02,6.282c-9.709,1.463-9.268,12.015-9.268,12.015l22.959.105s.524-10.667-9.1-12.121" transform="translate(691.301 12048.823)" fill="#ebebeb"/>
    <path id="Trazado_804203" data-name="Trazado 804203" d="M609.7,131.356a25.27,25.27,0,1,1,25.27-25.27,25.3,25.3,0,0,1-25.27,25.27m0-49.821a24.55,24.55,0,1,0,24.55,24.55,24.578,24.578,0,0,0-24.55-24.55" transform="translate(701.701 12057.813)" fill="#ebebeb"/>
    <path id="Trazado_804204" data-name="Trazado 804204" d="M135.914,54.581a4.04,4.04,0,0,0,2.408-3.738,3.8,3.8,0,1,0-7.578-.035,4.034,4.034,0,0,0,2.415,3.773c-5.831.878-5.567,7.216-5.567,7.216l13.788.063s.314-6.406-5.466-7.279" transform="translate(893.827 12084.503)" fill="#ebebeb"/>
    <path id="Trazado_804205" data-name="Trazado 804205" d="M120.662,58.047a15.2,15.2,0,1,1,15.2-15.2,15.214,15.214,0,0,1-15.2,15.2m0-29.92A14.723,14.723,0,1,0,135.385,42.85a14.74,14.74,0,0,0-14.723-14.723" transform="translate(907.651 12096.456)" fill="#ebebeb"/>
    <path id="Trazado_804206" data-name="Trazado 804206" d="M494.52,46.654a2.641,2.641,0,0,0,1.574-2.443,2.482,2.482,0,1,0-4.954-.023,2.637,2.637,0,0,0,1.578,2.466c-3.812.574-3.639,4.717-3.639,4.717l9.014.042s.206-4.188-3.573-4.759" transform="translate(738.222 12087.144)" fill="#ebebeb"/>
    <path id="Trazado_804207" data-name="Trazado 804207" d="M481.6,46.346a9.978,9.978,0,1,1,9.978-9.978,9.989,9.989,0,0,1-9.978,9.978m0-19.56a9.582,9.582,0,1,0,9.582,9.582,9.593,9.593,0,0,0-9.582-9.582" transform="translate(750.205 12097.557)" fill="#ebebeb"/>
    <path id="Trazado_804208" data-name="Trazado 804208" d="M385.666,120.717a3.391,3.391,0,0,0,2.021-3.137,3.187,3.187,0,1,0-6.361-.03,3.387,3.387,0,0,0,2.027,3.167c-4.895.738-4.672,6.057-4.672,6.057l11.574.054s.264-5.377-4.588-6.111" transform="translate(790.172 12043.471)" fill="#ebebeb"/>
    <path id="Trazado_804209" data-name="Trazado 804209" d="M379.144,129.138a12.846,12.846,0,1,1,12.846-12.846,12.86,12.86,0,0,1-12.846,12.846m0-25.116a12.27,12.27,0,1,0,12.27,12.27,12.283,12.283,0,0,0-12.27-12.27" transform="translate(795.495 12048.082)" fill="#ebebeb"/>
    <path id="Trazado_804210" data-name="Trazado 804210" d="M39.966,219.169a3.087,3.087,0,0,0,1.839-2.856,2.9,2.9,0,1,0-5.79-.027,3.082,3.082,0,0,0,1.845,2.883c-4.455.671-4.253,5.514-4.253,5.514l10.536.048s.24-4.9-4.176-5.562" transform="translate(938.55 12000.885)" fill="#ebebeb"/>
    <path id="Trazado_804211" data-name="Trazado 804211" d="M33.955,226.858a11.791,11.791,0,1,1,11.791-11.791,11.8,11.8,0,0,1-11.791,11.791m0-22.862a11.071,11.071,0,1,0,11.071,11.071A11.084,11.084,0,0,0,33.955,204" transform="translate(943.47 12005.156)" fill="#ebebeb"/>
    <path id="Trazado_804212" data-name="Trazado 804212" d="M56.719,161.757c-.086-.057,8.994-13.9,20.278-30.915S97.5,100.073,97.588,100.131s-8.991,13.9-20.28,30.918-20.5,30.765-20.59,30.708" transform="translate(928.612 12049.508)" fill="#ebebeb"/>
    <path id="Trazado_804213" data-name="Trazado 804213" d="M409.733,102.036c-.044-.07,8.771-5.705,19.685-12.586s19.8-12.406,19.845-12.337-8.768,5.7-19.686,12.588-19.8,12.405-19.843,12.336" transform="translate(776.819 12059.406)" fill="#ebebeb"/>
    <path id="Trazado_804214" data-name="Trazado 804214" d="M286.8,112.05c-.014.081-23.918-3.988-53.385-9.088s-53.354-9.3-53.339-9.381,23.913,3.988,53.39,9.089,53.348,9.3,53.334,9.38" transform="translate(875.569 12052.325)" fill="#ebebeb"/>
    <path id="Trazado_804215" data-name="Trazado 804215" d="M565.25,90.822c-.043.07-7.423-4.329-16.483-9.824S532.394,70.99,532.437,70.92s7.422,4.328,16.484,9.824,16.372,10.008,16.329,10.078" transform="translate(724.057 12062.069)" fill="#ebebeb"/>
    <path id="Trazado_804216" data-name="Trazado 804216" d="M82.2,74.562c0,.082-6.871.231-15.346.333s-15.351.118-15.352.036,6.87-.231,15.348-.333S82.2,74.48,82.2,74.562" transform="translate(930.856 12060.524)" fill="#ebebeb"/>
    <path id="Trazado_804217" data-name="Trazado 804217" d="M34.844,71.692A1.937,1.937,0,0,0,36,69.9a1.822,1.822,0,1,0-3.637-.017,1.934,1.934,0,0,0,1.159,1.81c-2.8.422-2.672,3.464-2.672,3.464l6.618.031s.15-3.075-2.624-3.495" transform="translate(939.735 12063.345)" fill="#ebebeb"/>
    <path id="Trazado_804218" data-name="Trazado 804218" d="M30.968,76.554a7.541,7.541,0,1,1,7.541-7.541,7.55,7.55,0,0,1-7.541,7.541m0-14.361a6.821,6.821,0,1,0,6.821,6.821,6.828,6.828,0,0,0-6.821-6.821" transform="translate(942.927 12066.131)" fill="#ebebeb"/>
    <path id="Trazado_804220" data-name="Trazado 804220" d="M366.027,79.287a2.179,2.179,0,0,1-.153-.383l-.385-1.117-1.4-4.11c-1.192-3.466-2.9-8.232-4.951-13.435s-4.055-9.855-5.548-13.2l-1.781-3.959L351.331,42a2.137,2.137,0,0,1-.149-.385,2.153,2.153,0,0,1,.2.359l.531,1.055c.457.918,1.1,2.257,1.867,3.922,1.543,3.327,3.579,7.972,5.633,13.18s3.731,9.992,4.874,13.477c.572,1.743,1.018,3.158,1.31,4.141l.332,1.134a2.2,2.2,0,0,1,.1.4" transform="translate(801.996 12074.669)" fill="#ebebeb"/>
    <path id="Trazado_804221" data-name="Trazado 804221" d="M3.49,367.237v19.979H.154v2.169H3.49v13.371H65.844V390.589H61.225v-2.651h4.619v-3.975H67.9v-1.807H65.459V367.237Z" transform="translate(952.934 11934.655)" fill="#f5f5f5"/>
    <path id="Trazado_804222" data-name="Trazado 804222" d="M86.348,367.3v35.239h16.558V390.367H98.287v-2.428l4.619.083v-3.976l2.093,0-.04-2.054-2.438-.06v-14.7Z" transform="translate(915.871 11934.655)" fill="#e0e0e0"/>
    <path id="Trazado_804223" data-name="Trazado 804223" d="M50.4,405.421c0,.123-11.283.221-25.2.221s-25.2-.1-25.2-.221,11.281-.221,25.2-.221,25.2.1,25.2.221" transform="translate(953 11918.331)" fill="#e0e0e0"/>
    <path id="Trazado_804224" data-name="Trazado 804224" d="M50.4,401.861c0,.123-11.283.222-25.2.222s-25.2-.1-25.2-.222,11.281-.221,25.2-.221,25.2.1,25.2.221" transform="translate(953 11919.861)" fill="#e0e0e0"/>
    <path id="Trazado_804225" data-name="Trazado 804225" d="M56.077,392.279c0,.123-11.283.221-25.2.221s-25.2-.1-25.2-.221,11.28-.221,25.2-.221,25.2.1,25.2.221" transform="translate(950.558 11923.982)" fill="#e0e0e0"/>
    <path id="Trazado_804226" data-name="Trazado 804226" d="M56.623,418.39c0,.123-11.283.222-25.2.222s-25.2-.1-25.2-.222,11.281-.221,25.2-.221,25.2.1,25.2.221" transform="translate(950.324 11912.755)" fill="#e0e0e0"/>
    <path id="Trazado_804227" data-name="Trazado 804227" d="M15.674,305.536v19.979H12.338v2.168h3.336v13.372H78.028V328.888H73.409v-2.651h4.619v-3.975h2.053v-1.807H77.643V305.536Z" transform="translate(947.695 11961.187)" fill="#f5f5f5"/>
    <path id="Trazado_804228" data-name="Trazado 804228" d="M98.532,305.594v35.239H115.09V328.665h-4.619v-2.428l4.619.083v-3.976l2.093,0-.04-2.054-2.438-.06v-14.7Z" transform="translate(910.632 11961.187)" fill="#e0e0e0"/>
    <path id="Trazado_804229" data-name="Trazado 804229" d="M62.583,343.72c0,.123-11.283.221-25.2.221s-25.2-.1-25.2-.221,11.281-.221,25.2-.221,25.2.1,25.2.221" transform="translate(947.761 11944.862)" fill="#e0e0e0"/>
    <path id="Trazado_804230" data-name="Trazado 804230" d="M62.583,340.159c0,.123-11.283.222-25.2.222s-25.2-.1-25.2-.222,11.281-.221,25.2-.221,25.2.1,25.2.221" transform="translate(947.761 11946.394)" fill="#e0e0e0"/>
    <path id="Trazado_804231" data-name="Trazado 804231" d="M68.261,330.577c0,.123-11.283.222-25.2.222s-25.2-.1-25.2-.222,11.281-.221,25.2-.221,25.2.1,25.2.221" transform="translate(945.32 11950.514)" fill="#e0e0e0"/>
    <path id="Trazado_804232" data-name="Trazado 804232" d="M68.807,356.689c0,.123-11.283.222-25.2.222s-25.2-.1-25.2-.222,11.28-.221,25.2-.221,25.2.1,25.2.221" transform="translate(945.085 11939.285)" fill="#e0e0e0"/>
    <path id="Trazado_804233" data-name="Trazado 804233" d="M660.7,304.833a19.39,19.39,0,0,1,12.032-1.462c2.183.361,4.459,1.014,5.944,2.653s1.767,4.525.062,5.934a5.7,5.7,0,0,1-3.748.951c-3.181-.037-6.71-.6-9.251,1.317-1.45,1.092-2.415,2.907-4.149,3.444a4.1,4.1,0,0,1-4.509-2.006,7,7,0,0,1-.51-5.168,7.891,7.891,0,0,1,4.128-5.663" transform="translate(670.792 11962.263)" fill="#ebebeb"/>
    <path id="Trazado_804234" data-name="Trazado 804234" d="M647.706,252.752c2.238,3.2,6.588,2.138,8.6.187s2.869-4.778,3.645-7.475c1.773-6.161,3.56-12.625,2.242-18.9a10.5,10.5,0,0,0-2.413-5.138,5.486,5.486,0,0,0-5.2-1.73c-2.193.58-3.556,2.727-4.541,4.771a45.053,45.053,0,0,0-4.452,19.332c-.011,3.114.356,6.38,2.113,8.951" transform="translate(675.401 11998.156)" fill="#ebebeb"/>
    <path id="Trazado_804235" data-name="Trazado 804235" d="M619.076,265.1c2.43-2.884,2.891-7.09,1.81-10.7a20.63,20.63,0,0,0-6.339-9.2,34.121,34.121,0,0,0-11.352-6.7,12.105,12.105,0,0,0-5.1-.867,5.358,5.358,0,0,0-4.284,2.592c-1.195,2.278-.049,5.042,1.19,7.3a86.491,86.491,0,0,0,7.456,11.353c2.235,2.881,4.794,5.723,8.2,7.025s6.943,1.149,8.749-1.213" transform="translate(697.886 11990.398)" fill="#ebebeb"/>
    <path id="Trazado_804236" data-name="Trazado 804236" d="M649,340.211a6.975,6.975,0,0,0,.2-1.452c.1-1.057.232-2.384.386-3.964a57.215,57.215,0,0,1,.891-5.814,44.9,44.9,0,0,1,2.113-6.862,25.3,25.3,0,0,1,3.5-6.209,13.089,13.089,0,0,1,4.43-3.683,12.4,12.4,0,0,1,3.731-1.162,7.015,7.015,0,0,0,1.446-.209,6.813,6.813,0,0,0-1.472-.023,11.317,11.317,0,0,0-3.89,1.012,13.059,13.059,0,0,0-4.673,3.715,24.689,24.689,0,0,0-3.632,6.333,41.937,41.937,0,0,0-2.1,6.975,49.1,49.1,0,0,0-.773,5.887c-.126,1.683-.173,3.046-.2,3.988a6.823,6.823,0,0,0,.031,1.467" transform="translate(673.952 11958.915)" fill="#e0e0e0"/>
    <path id="Trazado_804237" data-name="Trazado 804237" d="M649.277,307.607a2.87,2.87,0,0,0,.039-.674c0-.506,0-1.144-.005-1.927,0-1.672,0-4.093.086-7.081.148-5.978.662-12.411,1.656-21.48.942-8.529,2.205-18.453,3.539-24.907.286-1.468.574-2.788.845-3.944s.479-2.159.693-2.967l.45-1.874a.338.338,0,1,0-.116-.033l-.56,1.847c-.248.8-.5,1.794-.793,2.949s-.62,2.469-.933,3.934a218.507,218.507,0,0,0-3.72,23.111c-1,9.089-1.445,17.364-1.484,23.357-.036,3,.028,5.421.1,7.1.048.783.087,1.42.118,1.926a2.837,2.837,0,0,0,.082.669" transform="translate(673.952 11988.468)" fill="#e0e0e0"/>
    <path id="Trazado_804238" data-name="Trazado 804238" d="M633.478,295.328a12.838,12.838,0,0,0-.014-2.013c-.074-1.294-.252-3.164-.616-5.454a72.054,72.054,0,0,0-1.774-7.947,65.144,65.144,0,0,0-3.323-9.4,50.092,50.092,0,0,0-9.759-15.2,24.819,24.819,0,0,0-2.3-2.134c-.352-.3-.663-.594-.981-.83l-.89-.614a12.942,12.942,0,0,0-1.695-1.085,60.2,60.2,0,0,1,5.555,4.956,52.79,52.79,0,0,1,9.515,15.141,74.4,74.4,0,0,1,3.342,9.317,80.743,80.743,0,0,1,1.887,7.868c.416,2.268.657,4.118.8,5.4a13.008,13.008,0,0,0,.247,1.994" transform="translate(689.791 11984.787)" fill="#e0e0e0"/>
    <path id="Trazado_804239" data-name="Trazado 804239" d="M622.519,378.425l1.6,21.911h28.148l1.6-21.911Z" transform="translate(685.323 11929.845)" fill="#e0e0e0"/>
    <rect id="Rectángulo_374762" data-name="Rectángulo 374762" width="37.425" height="8.636" transform="translate(1305.124 12299.633)" fill="#e0e0e0"/>
    <path id="Trazado_804240" data-name="Trazado 804240" d="M617.75,415.394v2.394h36.806v-2.394Z" transform="translate(687.374 11913.948)" fill="#ebebeb"/>
    <path id="Trazado_804241" data-name="Trazado 804241" d="M622.558,423.807l-1.724-4.214h33.707l-2.011,4.214Z" transform="translate(686.047 11912.142)" fill="#e0e0e0"/>
    <path id="Trazado_804242" data-name="Trazado 804242" d="M653.7,388.666a.9.9,0,0,1-.131.2l-.421.558-1.64,2.1-.073.093-.07-.1-4.029-5.572h.231l-3.966,5.616-.124.176-.139-.165-4.7-5.6.271,0-.259.325-4.206,5.273-.14.176-.129-.183-3.968-5.615.231.011-4.887,5.568-.087.1-.066-.111-1.53-2.571-.392-.685a.137.137,0,1,1,.043-.027l.435.659,1.606,2.524-.153-.013,4.809-5.636.121-.143.109.153,4,5.589-.27-.007,4.2-5.281.259-.325.133-.168.138.165,4.691,5.607-.263.011,4.006-5.588.117-.164.115.164c1.586,2.267,2.934,4.192,3.943,5.632l-.143,0,1.705-2.045.457-.528a.9.9,0,0,1,.169-.171" transform="translate(684.965 11926.764)" fill="#f5f5f5"/>
    <path id="Trazado_804243" data-name="Trazado 804243" d="M654.435,378.039c0,.1-7.054.176-15.752.176s-15.753-.079-15.753-.176,7.052-.175,15.753-.175,15.752.078,15.752.175" transform="translate(685.146 11930.086)" fill="#f5f5f5"/>
    <path id="Trazado_804244" data-name="Trazado 804244" d="M654.866,419.876c0,.1-7.666.175-17.119.175s-17.121-.078-17.121-.175,7.664-.175,17.121-.175,17.119.078,17.119.175" transform="translate(686.136 11912.097)" fill="#f5f5f5"/>
    <path id="Trazado_804245" data-name="Trazado 804245" d="M403.536,328.129s6.021-3.752,8.292-3.5l13.038,3.036s1.117,1.218-1.147,2.343c-2.228,1.108-5.129-.491-5.129-.491l-3.172.447,2.189,1.829,8.649,2.658s6.265,1.771,5.505,2.7-2.642,1.033-5.346.27l-6.133-1.733s-1.073-.233.652.967,9.318,3.061,10.318,3.557,3.73.911,3.433,2.466-3.717.3-3.717.3l-11.228-2.6s4.432,1.913,5.187,2.269,3.21,1.031,4.52,1.686,1.941,1.524,1.79,2.213a1.311,1.311,0,0,1-1.419,1.1l-9.5-3.263s-4.311-1.717-4.6-1.656,1.683,1.9,1.683,1.9l3.032,1.553s4.375,1.467,4.389,2.681-.9,1.17-.9,1.17l-7.981-2.754-8.908-4.512-6.676-4.094s1.2-4.707.975-4.913,2.207-5.625,2.207-5.625" transform="translate(780.852 11952.981)" fill="#ffbe9d"/>
    <path id="Trazado_804246" data-name="Trazado 804246" d="M411.418,340.637a14.141,14.141,0,0,1,2.149-.788,7.194,7.194,0,0,0,4.114-3.178,3.858,3.858,0,0,0,.433-2.489l-.056-.284.314-.04c1.382-.177,2.672-.479,3.545-.6a3.277,3.277,0,0,1,1.432-.08,7.361,7.361,0,0,1-1.364.406,36.289,36.289,0,0,1-3.6.813l.257-.325a4.262,4.262,0,0,1-.45,2.864,5.9,5.9,0,0,1-2.167,2.292,9.389,9.389,0,0,1-2.333,1.008,6.752,6.752,0,0,1-2.278.4" transform="translate(776.094 11949.318)" fill="#eb996e"/>
    <path id="Trazado_804247" data-name="Trazado 804247" d="M195.7,401.924l-1.059-39.343,68.995,1.334,9.392,36.529Z" transform="translate(869.306 11936.656)" fill="#263238"/>
    <path id="Trazado_804248" data-name="Trazado 804248" d="M231.517,169.714l-5.187,4.912s-19.4,4.82-22.784,8.209-5.159,55.647-4.933,59.262-.011,35.021-.011,35.021-1.141,11.975,0,12.653,22.893.968,33.738,1.195,33.847.863,35.2-.267-3.366-24.553-3.366-24.553l-1.878-10.8.583-18.891,3.967-25.985,2.937-26.887s-7.908-4.745-11.749-5.649-26.517-8.217-26.517-8.217" transform="translate(867.821 12019.588)" fill="#afafaf"/>
    <path id="Trazado_804249" data-name="Trazado 804249" d="M335.3,255.606l-10.541-44.259a49.414,49.414,0,0,0-3.625-10.175c-1.635-3.36-3.659-7.021-4.772-7.149-6.536-.753-9.942,19.2-9.942,19.2v25.306l6.171,27.406a12.137,12.137,0,0,0,8.16,8.9l41.834,13.315,4.848-20.767Z" transform="translate(821.242 12009.144)" fill="#afafaf"/>
    <path id="Trazado_804250" data-name="Trazado 804250" d="M199.91,185.792s-15.895,2.246-21.029,14.375c0,0-15.887,61.836-13.232,69.981s23.193,39.575,23.193,39.575l18-9.505s-17.594-36.522-17.594-40.547,10.657-73.878,10.657-73.878" transform="translate(881.901 12012.675)" fill="#afafaf"/>
    <path id="Trazado_804251" data-name="Trazado 804251" d="M224.926,325.556a1.246,1.246,0,0,1-.1-.2l-.268-.591-1-2.282-3.635-8.418-11.89-27.814-.621-1.46-.013-.031v-.024a15.255,15.255,0,0,1,.333-2.14c.152-.692.3-1.379.468-2.056.32-1.357.662-2.685,1-3.991l1.965-7.5c1.261-4.772,2.385-9.06,3.3-12.663s1.611-6.521,2.093-8.536c.231-1,.412-1.776.539-2.322.062-.253.111-.453.146-.6a.106.106,0,1,1,.029.006c-.029.151-.068.352-.118.608l-.486,2.335c-.447,2.024-1.108,4.952-2,8.561s-1.989,7.906-3.236,12.682l-1.947,7.506c-.331,1.3-.671,2.633-.989,3.987a30.342,30.342,0,0,0-.791,4.122l-.011-.055.621,1.46,11.81,27.848c1.493,3.558,2.7,6.443,3.548,8.454.408.989.727,1.762.951,2.3l.241.6a1.233,1.233,0,0,1,.072.209" transform="translate(863.822 11987.335)" fill="#263238"/>
    <path id="Trazado_804252" data-name="Trazado 804252" d="M315.5,233.04a1.654,1.654,0,0,1,0,.36c-.014.266-.031.607-.052,1.027-.06.929-.144,2.209-.246,3.774-.227,3.185-.5,7.588-1.006,12.438S312.975,259.85,312.43,263c-.275,1.573-.508,2.844-.681,3.72l-.2,1.008a1.621,1.621,0,0,1-.091.348,1.627,1.627,0,0,1,.032-.359c.038-.263.087-.6.148-1.017.144-.919.343-2.186.587-3.735.491-3.154,1.174-7.512,1.683-12.354s.812-9.243,1.092-12.424c.141-1.562.256-2.839.34-3.767.044-.418.08-.758.108-1.023a1.659,1.659,0,0,1,.058-.355" transform="translate(819.078 11992.358)" fill="#263238"/>
    <path id="Trazado_804253" data-name="Trazado 804253" d="M210.729,395.824l1.782,3.287s8.843-3.369,13.046-9.046l-1.161-1.117Z" transform="translate(862.389 11925.32)" fill="#ffbe9d"/>
    <path id="Trazado_804254" data-name="Trazado 804254" d="M226.18,385.274a6.177,6.177,0,0,1-.507.838c-.169.266-.38.59-.654.945s-.56.78-.933,1.2-.756.911-1.221,1.386c-.446.494-.961.983-1.5,1.5a32.6,32.6,0,0,1-3.822,3,34.12,34.12,0,0,1-7.908,3.869c-.53.194-1.023.329-1.452.459s-.8.229-1.109.3a6.132,6.132,0,0,1-.958.2,6.218,6.218,0,0,1,.927-.314c.3-.089.669-.2,1.09-.348s.908-.292,1.431-.5c1.056-.378,2.289-.9,3.628-1.533a38.717,38.717,0,0,0,4.186-2.385,34.549,34.549,0,0,0,3.8-2.954c.544-.5,1.061-.98,1.511-1.463.47-.463.868-.931,1.239-1.352s.677-.825.962-1.169.508-.656.692-.911a6.178,6.178,0,0,1,.6-.772" transform="translate(864.374 11926.9)" fill="#455a64"/>
    <path id="Trazado_804255" data-name="Trazado 804255" d="M219.431,212.9c-.068-.01.171-1.044.121-2.729a10.78,10.78,0,0,0-.118-1.369,14.26,14.26,0,0,0-.288-1.55,14.89,14.89,0,0,0-3.339-6.329,14.151,14.151,0,0,0-1.115-1.113,10.634,10.634,0,0,0-1.064-.87c-1.362-.993-2.35-1.38-2.32-1.442a3.544,3.544,0,0,1,.689.27,5.415,5.415,0,0,1,.775.392,9.116,9.116,0,0,1,.978.609,10.249,10.249,0,0,1,1.1.857,13.593,13.593,0,0,1,1.156,1.115,14.422,14.422,0,0,1,3.4,6.449,13.459,13.459,0,0,1,.267,1.583,10.164,10.164,0,0,1,.083,1.4,9.028,9.028,0,0,1-.05,1.151,5.438,5.438,0,0,1-.114.861,3.534,3.534,0,0,1-.166.721" transform="translate(862.14 12007.642)" fill="#263238"/>
    <path id="Trazado_804256" data-name="Trazado 804256" d="M203.738,250.156c-.019.08-5.265-1.115-11.715-2.668s-11.666-2.877-11.647-2.957,5.264,1.115,11.717,2.669,11.665,2.877,11.646,2.957" transform="translate(875.44 11987.42)" fill="#fff"/>
    <path id="Trazado_804257" data-name="Trazado 804257" d="M276.786,248.652c0,.082-11.809.35-26.376.6s-26.382.384-26.383.3,11.807-.35,26.378-.6,26.38-.384,26.381-.3" transform="translate(856.671 11985.656)" fill="#fff"/>
    <path id="Trazado_804258" data-name="Trazado 804258" d="M333.746,253.857a2.781,2.781,0,0,1-.641.139c-.416.07-1.017.16-1.763.262-1.491.2-3.555.452-5.839.677s-4.358.384-5.86.474c-.751.046-1.359.075-1.78.087a2.776,2.776,0,0,1-.656-.011,2.8,2.8,0,0,1,.648-.1l1.772-.181,5.848-.56,5.844-.591,1.773-.168a2.767,2.767,0,0,1,.655-.024" transform="translate(816.604 11983.411)" fill="#fff"/>
    <path id="Trazado_804259" data-name="Trazado 804259" d="M191.122,308.382c-.013.081-5.077-.579-11.31-1.475s-11.281-1.688-11.269-1.769,5.075.579,11.31,1.475,11.279,1.688,11.268,1.769" transform="translate(880.528 11961.36)" fill="#fff"/>
    <path id="Trazado_804260" data-name="Trazado 804260" d="M267.849,318.921c.006.082-12.238.992-27.342,2.033s-27.36,1.819-27.366,1.737,12.235-.992,27.345-2.033,27.357-1.819,27.363-1.737" transform="translate(861.352 11955.433)" fill="#fff"/>
    <path id="Trazado_804261" data-name="Trazado 804261" d="M341.548,303.322a5.628,5.628,0,0,1-.7.621l-1.957,1.618c-1.655,1.363-3.934,3.255-6.417,5.384s-4.7,4.1-6.3,5.526l-1.9,1.689a5.634,5.634,0,0,1-.719.594,5.52,5.52,0,0,1,.641-.678c.425-.424,1.052-1.025,1.833-1.76,1.564-1.47,3.76-3.462,6.246-5.6s4.789-4,6.479-5.323c.845-.662,1.535-1.189,2.018-1.545a5.649,5.649,0,0,1,.768-.531" transform="translate(813.871 11962.139)" fill="#fff"/>
    <path id="Trazado_804262" data-name="Trazado 804262" d="M215.532,373.669a4.107,4.107,0,0,1-.724.34l-2.01.831-6.637,2.721-6.616,2.774-2.008.835a4.064,4.064,0,0,1-.752.272,4.2,4.2,0,0,1,.705-.377c.462-.226,1.135-.541,1.971-.922,1.672-.763,4-1.782,6.587-2.856s4.953-2,6.674-2.643c.861-.322,1.56-.576,2.045-.743a4.108,4.108,0,0,1,.766-.232" transform="translate(868.385 11931.891)" fill="#fff"/>
    <path id="Trazado_804263" data-name="Trazado 804263" d="M392.245,318.377a4.423,4.423,0,0,1-.113.819c-.09.524-.241,1.278-.446,2.206-.409,1.857-1.061,4.4-1.945,7.168s-1.836,5.217-2.582,6.964c-.373.874-.688,1.576-.919,2.055a4.382,4.382,0,0,1-.384.732,4.436,4.436,0,0,1,.278-.778l.831-2.088c.695-1.765,1.61-4.22,2.494-6.976s1.564-5.285,2.024-7.125l.538-2.182a4.4,4.4,0,0,1,.226-.8" transform="translate(787.087 11955.664)" fill="#fff"/>
    <path id="Trazado_804264" data-name="Trazado 804264" d="M238.963,188.569a5.441,5.441,0,0,1-.914.185l-2.5.429c-2.108.369-5.013.933-8.188,1.7s-6.016,1.594-8.061,2.229l-2.42.762a5.756,5.756,0,0,1-.9.253,5.521,5.521,0,0,1,.86-.362c.559-.218,1.377-.51,2.393-.853,2.032-.688,4.872-1.547,8.055-2.318s6.1-1.3,8.224-1.618c1.061-.159,1.922-.272,2.518-.335a5.674,5.674,0,0,1,.93-.071" transform="translate(860.129 12011.483)" fill="#fff"/>
    <path id="Trazado_804265" data-name="Trazado 804265" d="M289.548,84.911c4.226,3.642,1.859,9.352,1.011,14.866s.14,11.562.364,17.137c.119,2.948.843,5.993-.115,8.783-1,2.918-3.618,4.915-5.65,7.236s-3.555,5.775-1.953,8.412a2.8,2.8,0,0,1-2.657-.368,3.241,3.241,0,0,1-3.722,1.195,9.485,9.485,0,0,1-3.491-2.306,1.973,1.973,0,0,1-2.384,1.351,5.288,5.288,0,0,1-2.522-1.663,6.87,6.87,0,0,0-2.417-1.841c-2.138-.756-4.636.865-6.708-.055-2.846-1.264-2.574-6.185-5.519-7.2-1.386-.476-2.876.178-4.333.338a2.54,2.54,0,0,1-2.817-2.578c-2.5,1.045-5.723,1.542-8.267.608a2.925,2.925,0,0,0,1.035-2.817,9.564,9.564,0,0,1-5.5-.674,5.627,5.627,0,0,0,3.644-2.891,4.8,4.8,0,0,1-4.3-1.53c3.17.03,5.384-3.251,6.05-6.351s.434-6.418,1.7-9.326c1.374-3.165,4.315-5.369,6.1-8.322,2.49-4.115,2.562-9.368,5.138-13.429a22.777,22.777,0,0,1,5.85-6.777c3.226-2.336,5.076-3.547,9.058-3.495,3.339.044,9.053.975,11.9,2.72,5.065,3.1,10.439,6.56,12.687,12.057" transform="translate(852.705 12061.083)" fill="#263238"/>
    <path id="Trazado_804266" data-name="Trazado 804266" d="M266.1,114.376a76.567,76.567,0,0,1,.069-13.214,26.761,26.761,0,0,1,4.37-12.345c.386-.545,3.387-4.1,4.013-3.863.447.168-1.744,3.643-1.618,4.1A22.681,22.681,0,0,1,272,102.5a59.745,59.745,0,0,1-5.9,11.879" transform="translate(838.687 12056.039)" fill="#263238"/>
    <path id="Trazado_804267" data-name="Trazado 804267" d="M271.682,156.862c-6.57-1.9-18.939-14.765-17.185-21.375L265.057,95.71c2.5-10.776,10.849-18.305,21.552-15.512l.974.316a19.778,19.778,0,0,1,13.14,23.385c-2.216,9.327-4.782,19.6-6.424,24.457-3.4,10.056-14.007,8.35-14.007,8.35-.023-.006-.69,2.361-1.522,5.363-1.87,6.743-5.81,13.354-7.088,14.793" transform="translate(843.641 12058.331)" fill="#ffbe9d"/>
    <path id="Trazado_804268" data-name="Trazado 804268" d="M290.914,173.627a25.642,25.642,0,0,1-11.885-8.151s.7,8.616,11.069,10.975Z" transform="translate(833.02 12021.41)" fill="#eb996e"/>
    <path id="Trazado_804269" data-name="Trazado 804269" d="M322.531,135.322a1.516,1.516,0,0,1-1.862,1,1.45,1.45,0,0,1-1.064-1.782,1.516,1.516,0,0,1,1.861-1,1.451,1.451,0,0,1,1.066,1.784" transform="translate(815.596 12035.166)" fill="#263238"/>
    <path id="Trazado_804270" data-name="Trazado 804270" d="M325.139,126.818c-.24.13-1.07-1.033-2.623-1.532-1.544-.521-2.942-.092-3.048-.336-.055-.111.237-.392.85-.592a4.154,4.154,0,0,1,2.516.037,3.994,3.994,0,0,1,2.012,1.454c.358.521.41.913.294.969" transform="translate(815.635 12039.166)" fill="#263238"/>
    <path id="Trazado_804271" data-name="Trazado 804271" d="M297.674,128.123a1.515,1.515,0,0,1-1.862,1,1.449,1.449,0,0,1-1.064-1.782,1.517,1.517,0,0,1,1.861-1,1.451,1.451,0,0,1,1.065,1.784" transform="translate(826.284 12038.262)" fill="#263238"/>
    <path id="Trazado_804272" data-name="Trazado 804272" d="M298.253,118.794c-.24.13-1.072-1.033-2.623-1.532-1.544-.521-2.941-.092-3.048-.337-.055-.111.235-.392.85-.591a4.158,4.158,0,0,1,2.515.036,4,4,0,0,1,2.012,1.454c.357.52.409.913.294.969" transform="translate(827.196 12042.616)" fill="#263238"/>
    <path id="Trazado_804273" data-name="Trazado 804273" d="M305.516,134.941a10.769,10.769,0,0,1,2.667.363c.41.088.811.131.964-.118a2.117,2.117,0,0,0,.117-1.26q-.092-1.619-.193-3.4c-.234-4.823-.266-8.737-.072-8.745s.542,3.895.775,8.718c.049,1.186.1,2.317.138,3.4a2.407,2.407,0,0,1-.3,1.621,1.044,1.044,0,0,1-.839.368,2.834,2.834,0,0,1-.7-.125,10.583,10.583,0,0,1-2.555-.825" transform="translate(821.631 12040.197)" fill="#263238"/>
    <path id="Trazado_804274" data-name="Trazado 804274" d="M300.295,108.145c-.339.328-1.71-.577-3.53-1.211-1.807-.671-3.44-.846-3.493-1.314-.018-.221.407-.478,1.157-.589a6.484,6.484,0,0,1,5.35,1.924c.507.563.671,1.032.516,1.19" transform="translate(826.896 12047.422)" fill="#263238"/>
    <path id="Trazado_804275" data-name="Trazado 804275" d="M326.169,120.079c-.433.255-1.589-.5-3.11-.991-1.506-.532-2.892-.63-3.075-1.092-.075-.219.237-.512.905-.673a5.141,5.141,0,0,1,2.715.2A5.063,5.063,0,0,1,325.873,119c.427.53.492.949.3,1.077" transform="translate(815.415 12042.158)" fill="#263238"/>
    <path id="Trazado_804276" data-name="Trazado 804276" d="M263.827,120.415c-.148-.131-6.272-4.3-8.29,2.672s5.4,7.562,5.469,7.366,2.821-10.037,2.821-10.037" transform="translate(843.271 12041.369)" fill="#ffbe9d"/>
    <path id="Trazado_804277" data-name="Trazado 804277" d="M261.087,128.845c-.024-.031-.146.05-.378.084a1.266,1.266,0,0,1-.914-.244,3.13,3.13,0,0,1-.611-3.1,4.184,4.184,0,0,1,.844-1.641,1.463,1.463,0,0,1,1.184-.668.644.644,0,0,1,.621.541c.037.222-.048.348-.014.371.014.023.184-.074.211-.378a.808.808,0,0,0-.148-.516.953.953,0,0,0-.62-.372,1.777,1.777,0,0,0-1.582.714,4.289,4.289,0,0,0-.984,1.822c-.362,1.418-.023,2.941.9,3.524a1.355,1.355,0,0,0,1.165.137c.266-.11.348-.255.327-.275" transform="translate(841.825 12039.719)" fill="#eb996e"/>
    <path id="Trazado_804278" data-name="Trazado 804278" d="M304.83,89.859c1.306-.308-1.064-4.923-3.491-6.962-3.669-3.083-9.757-6.053-13.94-6.039-5.035.017-9.561,1.253-13.092,4.843a28.558,28.558,0,0,0-7.017,13.177,8.672,8.672,0,0,0-.21,4.547c.544,1.819,2.145,3.317,1.466,5.426a3.039,3.039,0,0,0,.129,2.337c.9,1.72,2.821.879,3.9-.2,2.3-2.309,3.389-5.53,4.4-8.629a21.242,21.242,0,0,0,1.419-6.773c-.016-1.261-.257-2.515-.2-3.776a4.362,4.362,0,0,1,1.472-3.352,4.521,4.521,0,0,1,.728-.416,7.572,7.572,0,0,1,7.619.648c3.547,2.494,9.688,6.456,11.818,5.612a11.193,11.193,0,0,0,4.02-2.3Z" transform="translate(838.255 12059.516)" fill="#263238"/>
    <path id="Trazado_804279" data-name="Trazado 804279" d="M297.3,144.23c-.1-.013-.262.352-.3.995a4.054,4.054,0,0,0,.689,2.405,6.72,6.72,0,0,0,1.71,1.751c.5.359.851.522.919.443s-.159-.393-.556-.844a15.07,15.07,0,0,1-1.43-1.764c-.974-1.431-.8-2.973-1.035-2.986" transform="translate(825.293 12030.546)" fill="#263238"/>
    <path id="Trazado_804280" data-name="Trazado 804280" d="M270.089,123.118c.006.14.01.284.008.442,0,0-.006-.158-.008-.442" transform="translate(836.864 12039.624)" fill="#ff725e"/>
    <path id="Trazado_804281" data-name="Trazado 804281" d="M266.8,100.309s1.731-1.008,1.858,1.971c-.031-3.845.66-31.582,27.262-24.183,0,0-8.583-5.122-15.986-2.866,0,0-13.986,2.047-13.134,25.079" transform="translate(838.294 12060.462)" fill="#455a64"/>
    <path id="Trazado_804282" data-name="Trazado 804282" d="M297.36,169.095c.058.106.8-.211,1.5-.911s1.007-1.444.9-1.5-.573.534-1.223,1.182-1.24,1.119-1.174,1.23" transform="translate(825.14 12020.894)" fill="#263238"/>
    <path id="Trazado_804283" data-name="Trazado 804283" d="M294.821,167.657c.093.083.7-.454,1.364-1.2s1.119-1.416,1.025-1.5-.7.454-1.364,1.2-1.118,1.417-1.025,1.5" transform="translate(826.235 12021.637)" fill="#263238"/>
    <path id="Trazado_804284" data-name="Trazado 804284" d="M293.262,165.776c.118.041.452-.613.745-1.46s.435-1.568.317-1.608-.452.613-.745,1.46-.435,1.568-.317,1.609" transform="translate(826.918 12022.602)" fill="#263238"/>
    <path id="Trazado_804285" data-name="Trazado 804285" d="M290.717,164.853c.129-.03.006-.867.178-1.865s.542-1.753.43-1.823c-.092-.075-.7.642-.877,1.75a2.444,2.444,0,0,0,.269,1.939" transform="translate(828.134 12023.268)" fill="#263238"/>
    <path id="Trazado_804286" data-name="Trazado 804286" d="M287.472,162.942a8.569,8.569,0,0,0,.2-1.817,8.581,8.581,0,0,0,.238-1.812c-.107-.054-.563.7-.687,1.758a2.635,2.635,0,0,0,.251,1.871" transform="translate(829.513 12024.062)" fill="#263238"/>
    <path id="Trazado_804287" data-name="Trazado 804287" d="M285.441,324.616a1.007,1.007,0,0,1-.216.178l-.651.463c-.568.4-1.4.959-2.438,1.639-2.073,1.362-4.977,3.184-8.25,5.087s-6.3,3.522-8.507,4.648c-1.1.564-2,1.009-2.631,1.306l-.725.336a.141.141,0,1,1-.027-.054l.7-.385,2.586-1.389c2.183-1.173,5.185-2.82,8.456-4.719s6.186-3.691,8.287-5.006l2.488-1.559.681-.417a1,1,0,0,1,.249-.128" transform="translate(840.445 11952.981)" fill="#263238"/>
    <path id="Trazado_804288" data-name="Trazado 804288" d="M351.688,301.95a21.121,21.121,0,0,0-7.1,6.684,5.173,5.173,0,0,1,.691-1.282,15.171,15.171,0,0,1,5.087-4.789,5.186,5.186,0,0,1,1.321-.613" transform="translate(804.831 11962.729)" fill="#263238"/>
    <path id="Trazado_804289" data-name="Trazado 804289" d="M324.423,288.966s-20.252,2.4-27.74,8.385a25.616,25.616,0,0,0-3.29,3.2,34.346,34.346,0,0,0-8.149,19.467l-2.714,29.786.218,4.917a14.4,14.4,0,0,0,14.342,13.763l83.687.586a40.274,40.274,0,0,0,8.115-31.294c-.678-4.48-1.761-19.824-6-29.265-2.243-4.994-5.672-11.161-14.732-13.57l-21.138-5.977Z" transform="translate(831.514 11968.311)" fill="#1969d5"/>
    <path id="Trazado_804290" data-name="Trazado 804290" d="M317.567,319.517a3.01,3.01,0,0,1-.174-.665c-.088-.432-.23-1.053-.421-1.815a37.374,37.374,0,0,0-4.846-11.225c-.425-.662-.779-1.191-1.033-1.552a3.042,3.042,0,0,1-.365-.583,3.025,3.025,0,0,1,.457.514c.283.34.666.853,1.115,1.5a32.159,32.159,0,0,1,4.876,11.293c.166.774.276,1.4.331,1.843a3.175,3.175,0,0,1,.06.685" transform="translate(819.391 11961.985)" fill="#455a64"/>
    <path id="Trazado_804291" data-name="Trazado 804291" d="M326.091,369.1c-.081.01-.976-6.5-2-14.54s-1.786-14.569-1.7-14.58.976,6.5,2,14.542,1.786,14.568,1.7,14.578" transform="translate(814.379 11946.374)" fill="#455a64"/>
    <path id="Trazado_804292" data-name="Trazado 804292" d="M315.927,331.4a6.552,6.552,0,0,1-1.426-.6,25.867,25.867,0,0,1-6.095-4.29,6.5,6.5,0,0,1-1.049-1.138,10.432,10.432,0,0,1,1.19.983c.721.618,1.739,1.445,2.922,2.279s2.306,1.511,3.13,1.982a10.259,10.259,0,0,1,1.326.789" transform="translate(820.84 11952.659)" fill="#455a64"/>
    <path id="Trazado_804293" data-name="Trazado 804293" d="M417.518,329.3a6.6,6.6,0,0,1,0-1.017,10.685,10.685,0,0,1,.078-1.191c.052-.463.085-.994.2-1.57.095-.579.2-1.212.381-1.88.144-.676.375-1.377.6-2.119a26.484,26.484,0,0,1,4.929-8.755c.516-.58,1-1.142,1.5-1.615.48-.5.964-.92,1.411-1.3s.869-.7,1.238-.985a10.555,10.555,0,0,1,.978-.684,6.478,6.478,0,0,1,.871-.525,6.769,6.769,0,0,1-.805.62c-.267.187-.589.422-.943.721s-.781.608-1.2,1.012c-.434.388-.906.816-1.374,1.316-.491.476-.959,1.039-1.464,1.618a27.531,27.531,0,0,0-4.879,8.667c-.233.732-.471,1.424-.624,2.091-.185.659-.306,1.284-.413,1.857-.127.569-.174,1.094-.242,1.552s-.106.855-.127,1.18a6.632,6.632,0,0,1-.113,1.01" transform="translate(773.478 11960.276)" fill="#455a64"/>
    <path id="Trazado_804294" data-name="Trazado 804294" d="M402.848,382.7a3.071,3.071,0,0,1-.064-1.05,3.168,3.168,0,0,1,1.5-2.45l-.025.018a25.782,25.782,0,0,1,8.579-5.971l-.088.117c.117-1.072.235-2.185.319-3.328a98.43,98.43,0,0,0,.172-12.545c-.075-1.606-.186-2.9-.253-3.8-.034-.423-.062-.765-.084-1.032a1.635,1.635,0,0,1-.01-.363,1.656,1.656,0,0,1,.069.356c.036.266.083.607.14,1.028.1.894.245,2.19.347,3.8a87.886,87.886,0,0,1-.086,12.581c-.085,1.146-.2,2.264-.325,3.339l-.01.084-.078.033a26.616,26.616,0,0,0-8.558,5.832l-.01.01-.015.009a3.022,3.022,0,0,0-1.111,1.143,3.145,3.145,0,0,0-.376,1.153c-.08.666,0,1.037-.036,1.039" transform="translate(779.812 11941.079)" fill="#455a64"/>
    <path id="Trazado_804295" data-name="Trazado 804295" d="M434.361,395.948c-.047.028-.484-.793-1.435-1.932a14.7,14.7,0,0,0-4.469-3.6,14.049,14.049,0,0,0-2.954-1.151,10.9,10.9,0,0,0-2.564-.338c-1.482-.01-2.4.171-2.4.114a2.514,2.514,0,0,1,.634-.153,11.7,11.7,0,0,1,1.769-.171,10.3,10.3,0,0,1,2.63.282,13.454,13.454,0,0,1,3.025,1.153,13.8,13.8,0,0,1,4.5,3.732,12.04,12.04,0,0,1,.991,1.475,2.5,2.5,0,0,1,.28.589" transform="translate(772.174 11925.42)" fill="#455a64"/>
    <path id="Trazado_804296" data-name="Trazado 804296" d="M434.322,386.767c-.023.051-.7-.267-1.853-.553a14.963,14.963,0,0,0-2.056-.355,19.956,19.956,0,0,0-2.555-.064,22.684,22.684,0,0,0-4.6.7c-1.156.3-1.854.553-1.871.507a1.777,1.777,0,0,1,.47-.233,12.968,12.968,0,0,1,1.345-.477,19.053,19.053,0,0,1,4.639-.8,17.75,17.75,0,0,1,2.6.09,12.85,12.85,0,0,1,2.081.424,7.194,7.194,0,0,1,.773.26,4.4,4.4,0,0,1,.567.239,1.763,1.763,0,0,1,.458.257" transform="translate(771.806 11926.809)" fill="#455a64"/>
    <path id="Trazado_804297" data-name="Trazado 804297" d="M379.618,211.962c-1.668-7.093-4.654-14.339-10.531-18.646-5.236-3.838-12.873-5.3-19.348-4.818a22.979,22.979,0,0,0-9.474,3.492c-3.742,2.282-5.214,6.711-6.924,10.747-3.426,8.086-2.608,18.856-.015,21.773l33.857,16.495c5.792-3.258,12.069-7.646,13.419-14.153.919-4.431.053-10.485-.983-14.891" transform="translate(810.645 12011.549)" fill="#ff725e"/>
    <path id="Trazado_804298" data-name="Trazado 804298" d="M368.475,203.472l-21.149-5.5c-6.78-.764-11.348,7.56-11.824,14.366-.528,7.562-.875,16.815-.017,22.465,1.725,11.363,10.42,14.059,10.42,14.059,0-.038.02,9.867.062,13.24l9.863,30.05,14.031-30.05,2.158-54.557a3.993,3.993,0,0,0-3.544-4.073" transform="translate(808.968 12007.458)" fill="#ffbe9d"/>
    <path id="Trazado_804299" data-name="Trazado 804299" d="M342.534,238.3a1.456,1.456,0,0,0,1.394,1.478,1.392,1.392,0,0,0,1.509-1.3,1.456,1.456,0,0,0-1.392-1.479,1.394,1.394,0,0,0-1.511,1.3" transform="translate(805.714 11990.659)" fill="#263238"/>
    <path id="Trazado_804300" data-name="Trazado 804300" d="M339.354,230.543c.179.191,1.288-.617,2.854-.6,1.565-.007,2.709.807,2.88.616.084-.084-.1-.428-.6-.8a4,4,0,0,0-2.3-.727,3.834,3.834,0,0,0-2.273.717c-.484.366-.65.709-.561.794" transform="translate(807.091 11994.082)" fill="#263238"/>
    <path id="Trazado_804301" data-name="Trazado 804301" d="M367.47,238.3a1.456,1.456,0,0,0,1.394,1.478,1.393,1.393,0,0,0,1.509-1.3,1.456,1.456,0,0,0-1.393-1.479,1.393,1.393,0,0,0-1.511,1.3" transform="translate(794.992 11990.659)" fill="#263238"/>
    <path id="Trazado_804302" data-name="Trazado 804302" d="M366.362,231.24c.18.191,1.289-.617,2.855-.6,1.565-.008,2.709.806,2.88.616.083-.085-.1-.429-.6-.8a3.992,3.992,0,0,0-2.3-.728,3.841,3.841,0,0,0-2.274.717c-.483.366-.649.709-.561.794" transform="translate(795.478 11993.782)" fill="#263238"/>
    <path id="Trazado_804303" data-name="Trazado 804303" d="M353.263,242.849a10.371,10.371,0,0,0-2.541-.477c-.4-.044-.778-.126-.843-.4a2.034,2.034,0,0,1,.275-1.184q.575-1.448,1.2-3.038c1.672-4.325,2.885-7.883,2.711-7.949s-1.672,3.387-3.344,7.712q-.6,1.6-1.154,3.056a2.316,2.316,0,0,0-.218,1.569,1,1,0,0,0,.654.589,2.7,2.7,0,0,0,.679.1,10.192,10.192,0,0,0,2.579.021" transform="translate(802.813 11993.75)" fill="#263238"/>
    <path id="Trazado_804304" data-name="Trazado 804304" d="M354.111,284.459l.064,2.826c11.352,1.139,15.165-6.777,15.165-6.777a28.875,28.875,0,0,1-15.228,3.951" transform="translate(800.736 11971.947)" fill="#eb996e"/>
    <path id="Trazado_804305" data-name="Trazado 804305" d="M361.318,257.009a2.517,2.517,0,0,0-2.085-1.154,3.271,3.271,0,0,0-2.992,1.457,2.036,2.036,0,0,0-.142,1.468c.108.25.024.127.216.3a5.72,5.72,0,0,0,2.331,1.467,2.457,2.457,0,0,0,2.6-.937,2.507,2.507,0,0,0,.071-2.6" transform="translate(799.912 11982.551)" fill="#eb996e"/>
    <path id="Trazado_804306" data-name="Trazado 804306" d="M360.554,254.647c-.255-.017-.27,1.684-1.733,2.88s-3.272,1-3.287,1.235c-.024.107.4.333,1.166.359a4.228,4.228,0,0,0,2.743-.935,3.685,3.685,0,0,0,1.344-2.416c.07-.71-.117-1.133-.233-1.124" transform="translate(800.124 11983.067)" fill="#263238"/>
    <path id="Trazado_804307" data-name="Trazado 804307" d="M365.142,222.7c.152.427,1.717.236,3.553.47,1.841.2,3.319.745,3.566.365.11-.182-.146-.584-.742-1a6.233,6.233,0,0,0-5.424-.636c-.676.267-1.018.6-.953.8" transform="translate(795.996 11997.299)" fill="#ff725e"/>
    <path id="Trazado_804308" data-name="Trazado 804308" d="M340.406,220.982c.273.357,1.354,0,2.652-.013,1.3-.054,2.395.255,2.65-.115.112-.18-.058-.538-.536-.878a3.842,3.842,0,0,0-4.273.1c-.461.363-.614.728-.494.9" transform="translate(806.646 11998.233)" fill="#ff725e"/>
    <path id="Trazado_804309" data-name="Trazado 804309" d="M394.5,238.781c.156-.072,6.319-2.029,6.263,4.306s-6.405,4.973-6.415,4.791.152-9.1.152-9.1" transform="translate(783.435 11990.036)" fill="#ffbe9d"/>
    <path id="Trazado_804310" data-name="Trazado 804310" d="M397.774,247.044c.028-.02.11.078.3.165a1.1,1.1,0,0,0,.824.025,2.73,2.73,0,0,0,1.285-2.439,3.64,3.64,0,0,0-.295-1.583,1.274,1.274,0,0,0-.822-.854.562.562,0,0,0-.654.3c-.086.177-.047.3-.081.314-.018.015-.135-.107-.081-.369a.7.7,0,0,1,.253-.394.833.833,0,0,1,.612-.156,1.552,1.552,0,0,1,1.145.992,3.75,3.75,0,0,1,.367,1.769,2.865,2.865,0,0,1-1.634,2.722,1.184,1.184,0,0,1-1.008-.176c-.194-.158-.227-.3-.2-.312" transform="translate(781.964 11988.487)" fill="#eb996e"/>
    <path id="Trazado_804311" data-name="Trazado 804311" d="M399.718,254.1c.029-.03.274.267.238.834a1.184,1.184,0,0,1-.449.888,1.313,1.313,0,0,1-1.216.087,1.283,1.283,0,0,1-.842-.878,1.321,1.321,0,0,1,.173-.974c.315-.49.713-.537.71-.5.026.047-.3.171-.511.611a1.167,1.167,0,0,0-.086.792,1.027,1.027,0,0,0,.669.65,1.063,1.063,0,0,0,.934-.031,1,1,0,0,0,.391-.672,3.49,3.49,0,0,0-.013-.806" transform="translate(782.113 11983.54)" fill="#263238"/>
    <path id="Trazado_804312" data-name="Trazado 804312" d="M334.347,212.26a9.9,9.9,0,0,1,4.275-4.179c1.76-1,3.666-1.731,5.417-2.747a19.035,19.035,0,0,0,8.513-10.649,11.428,11.428,0,0,0-10.144.132,15.49,15.49,0,0,0-7.009,7.574,24.281,24.281,0,0,0-1.935,10.262" transform="translate(809.615 12009.334)" fill="#ff725e"/>
    <path id="Trazado_804313" data-name="Trazado 804313" d="M382.345,200.48c-4.684-4.451-13.536-6.908-19.644-4.823.907,5.334,4.931,11.323,8.473,15.413,3.564,4.116,5.714,11.328,13.466,8.878.534-.169,1.144.317,1.627.034a1.984,1.984,0,0,0,.748-1.174,18.171,18.171,0,0,0-4.669-18.328" transform="translate(797.042 12008.757)" fill="#ff725e"/>
    <path id="Trazado_804314" data-name="Trazado 804314" d="M332.207,222.373a2.335,2.335,0,0,1-1.113-.063,4.358,4.358,0,0,1-2.435-1.791,6.648,6.648,0,0,1-.961-4.378,16.324,16.324,0,0,1,.446-2.632,27.533,27.533,0,0,1,5.734-11.413,25.738,25.738,0,0,1,2.083-2.2l.62-.543a.985.985,0,0,1,.231-.173,7.394,7.394,0,0,1-.764.8c-.485.522-1.206,1.26-2,2.258a29.436,29.436,0,0,0-4.807,8.632c-.309.917-.592,1.821-.8,2.711a16.5,16.5,0,0,0-.457,2.582,6.513,6.513,0,0,0,.854,4.227,4.345,4.345,0,0,0,2.281,1.8,5.747,5.747,0,0,0,1.079.184" transform="translate(812.108 12006.919)" fill="#ff725e"/>
    <path id="Trazado_804315" data-name="Trazado 804315" d="M414.863,197.569A12.164,12.164,0,0,0,412,189.34a9.759,9.759,0,0,0-11.378-1.782,11.051,11.051,0,0,0-5.612,10.278,12.764,12.764,0,0,0,6.385,10.02l2.612-.3c2.623,1.38,6.061.4,8.081-1.766a11.881,11.881,0,0,0,2.774-8.223" transform="translate(783.157 12012.378)" fill="#ff725e"/>
    <path id="Trazado_804316" data-name="Trazado 804316" d="M386.15,202.009a.805.805,0,0,1-.133.213,7.119,7.119,0,0,1-.437.57,11.461,11.461,0,0,1-1.924,1.815,12.471,12.471,0,0,1-16.109-.885,11.428,11.428,0,0,1-1.713-2.014,7.1,7.1,0,0,1-.373-.614.808.808,0,0,1-.108-.226,17.347,17.347,0,0,0,2.336,2.7,12.965,12.965,0,0,0,3.214,2.124,12.1,12.1,0,0,0,9.2.506,12.969,12.969,0,0,0,3.427-1.76,17.316,17.316,0,0,0,2.618-2.429" transform="translate(795.902 12006.193)" fill="#fff"/>
    <path id="Trazado_804317" data-name="Trazado 804317" d="M389.173,210.928a1.172,1.172,0,0,1-.211.216,6.611,6.611,0,0,1-.664.56,9.937,9.937,0,0,1-2.826,1.481,12.612,12.612,0,0,1-4.689.633,14.5,14.5,0,0,1-5.609-1.443,18.39,18.39,0,0,1-4.695-3.4,24.105,24.105,0,0,1-3.014-3.646,28.692,28.692,0,0,1-1.647-2.727c-.18-.33-.3-.6-.389-.773a1.155,1.155,0,0,1-.116-.279,1.17,1.17,0,0,1,.169.251l.437.745c.379.646.946,1.572,1.718,2.664a25.33,25.33,0,0,0,3.034,3.571,18.592,18.592,0,0,0,4.634,3.328,14.534,14.534,0,0,0,5.492,1.436,12.738,12.738,0,0,0,4.609-.559,10.6,10.6,0,0,0,2.824-1.376c.61-.428.922-.705.942-.682" transform="translate(795.919 12005.899)" fill="#fff"/>
    <path id="Trazado_804318" data-name="Trazado 804318" d="M417.292,201.036c.016.013-.081.15-.271.388a7.7,7.7,0,0,1-.893.929,10.431,10.431,0,0,1-1.537,1.144,11.041,11.041,0,0,1-4.41,1.534,10.394,10.394,0,0,1-1.915.056,7.731,7.731,0,0,1-1.276-.174,1.467,1.467,0,0,1-.453-.136c.01-.054.667.081,1.738.1a11.89,11.89,0,0,0,7.716-2.684c.827-.68,1.259-1.194,1.3-1.158" transform="translate(778.193 12006.12)" fill="#fff"/>
    <path id="Trazado_804319" data-name="Trazado 804319" d="M421.283,208.008a.918.918,0,0,1,.08.512,2.434,2.434,0,0,1-.488,1.33,4.185,4.185,0,0,1-1.671,1.269,12.606,12.606,0,0,1-2.419.8,12.962,12.962,0,0,1-4.6.2,10.624,10.624,0,0,1-1.37-.28,1.741,1.741,0,0,1-.482-.177c.013-.051.716.141,1.876.249a14.442,14.442,0,0,0,4.513-.277c1.708-.407,3.286-1,3.987-1.911a2.509,2.509,0,0,0,.541-1.212c.045-.318.009-.5.035-.5" transform="translate(776.562 12003.122)" fill="#fff"/>
    <path id="Trazado_804320" data-name="Trazado 804320" d="M387.463,397.913a1.256,1.256,0,0,1-.313.029c-.206,0-.511.029-.9.014a20.576,20.576,0,0,1-3.306-.319,22.251,22.251,0,0,1-16.6-13.026,20.543,20.543,0,0,1-1.1-3.134c-.107-.377-.156-.678-.2-.879a1.272,1.272,0,0,1-.047-.312c.025-.006.133.414.359,1.16a23.962,23.962,0,0,0,1.177,3.079A22.7,22.7,0,0,0,382.98,397.43a23.918,23.918,0,0,0,3.271.41c.779.042,1.211.047,1.212.072" transform="translate(796.056 11929.044)" fill="#455a64"/>
    <path id="Trazado_804321" data-name="Trazado 804321" d="M338.41,399.956a1.033,1.033,0,0,1-.251-.138l-.687-.444-2.5-1.662a73.219,73.219,0,0,0-8.532-5,33.148,33.148,0,0,0-9.373-2.995,25.943,25.943,0,0,0-2.981-.275,9.849,9.849,0,0,1-1.1-.047,1.03,1.03,0,0,1,.284-.035c.187-.009.463-.036.818-.034a21.3,21.3,0,0,1,3.008.182,31.353,31.353,0,0,1,9.473,2.935,64.026,64.026,0,0,1,8.522,5.09c1.044.723,1.879,1.322,2.452,1.741l.655.489a1.044,1.044,0,0,1,.217.188" transform="translate(818.421 11925.156)" fill="#455a64"/>
    <path id="Trazado_804322" data-name="Trazado 804322" d="M378.521,405.382l-38.912,1.972,3.012,11.458,51.862.242Z" transform="translate(806.971 11918.254)" fill="#ffbe9d"/>
    <path id="Trazado_804323" data-name="Trazado 804323" d="M322.116,403.9s-12.574-6.282-14.132-6.335c-1.192-.041-8.1,1.129-11.278,1.681a2.307,2.307,0,0,0-1.95,2.561,1.339,1.339,0,0,0,.056.222,2.1,2.1,0,0,0,1.754,1.344,2.444,2.444,0,0,0-1.332,2.527c.248,1.8,2.483,1.85,2.483,1.85a3.158,3.158,0,0,0-.27.324,2.171,2.171,0,0,0,1.6,3.441l1.016.074a2.149,2.149,0,0,0-1.038,1.986c.4,2.362,5.79,2.005,5.79,2.005l18.5-.131Z" transform="translate(826.27 11921.614)" fill="#ffbe9d"/>
    <path id="Trazado_804324" data-name="Trazado 804324" d="M299.577,394.3c.177.772.613,2.4,2.055,2.955l7.29-1.4s-5.748-1.053-6.666-1.866a6.391,6.391,0,0,0-1.2-.864,1.048,1.048,0,0,0-1.476,1.179" transform="translate(824.197 11923.575)" fill="#ffbe9d"/>
    <path id="Trazado_804325" data-name="Trazado 804325" d="M304.872,398.755a10.9,10.9,0,0,1-3.312.747,13.746,13.746,0,0,1-3.378.271,10.91,10.91,0,0,1,3.313-.747,13.725,13.725,0,0,1,3.377-.272" transform="translate(824.785 11921.124)" fill="#eb996e"/>
    <path id="Trazado_804326" data-name="Trazado 804326" d="M303.758,406.382a10.739,10.739,0,0,1-5.784.671,54.766,54.766,0,0,1,5.784-.671" transform="translate(824.874 11917.841)" fill="#eb996e"/>
    <path id="Trazado_804327" data-name="Trazado 804327" d="M313.643,404.493c.119.051.039.471-.335.8s-.8.361-.836.237.227-.333.518-.6.531-.5.653-.443" transform="translate(818.642 11918.639)" fill="#eb996e"/>
    <path id="Trazado_804328" data-name="Trazado 804328" d="M306,414.3a21.33,21.33,0,0,1-6.336.752A21.386,21.386,0,0,1,306,414.3" transform="translate(824.147 11914.45)" fill="#eb996e"/>
    <path id="Trazado_804329" data-name="Trazado 804329" d="M316.676,409.788c.056-.026.193.1.271.388A1.525,1.525,0,0,1,315.913,412c-.283.078-.465.028-.472-.034-.023-.129.6-.307.937-.91s.177-1.224.3-1.271" transform="translate(817.364 11916.359)" fill="#eb996e"/>
    <path id="Trazado_804330" data-name="Trazado 804330" d="M309.6,421.9a17.349,17.349,0,0,1-5.75.162,17.39,17.39,0,0,1,5.75-.162" transform="translate(822.347 11911.223)" fill="#eb996e"/>
    <path id="Trazado_804331" data-name="Trazado 804331" d="M319.643,416.882c.06-.018.174.129.209.415a1.794,1.794,0,0,1-.241,1.056c-.438.731-1,1.059-1.085.981-.111-.1.307-.6.666-1.214s.332-1.2.451-1.237" transform="translate(816.045 11913.309)" fill="#eb996e"/>
    <path id="Trazado_804332" data-name="Trazado 804332" d="M231.342,393.086c-2.552-1.214-11.075-4.534-11.075-4.534l-4.166-28.5L199.128,362.6s9.878,36.328,12.515,36.576,17.8.02,17.8.02l4.938-.076s-1.252-5.179-3.042-6.03" transform="translate(867.377 11937.746)" fill="#9b6e65"/>
    <path id="Trazado_804333" data-name="Trazado 804333" d="M230.735,425.983a1.858,1.858,0,0,1-.85.315,4.952,4.952,0,0,1-4.13-1.1c-.424-.375-.607-.675-.581-.7s.274.215.711.532a5.73,5.73,0,0,0,3.968,1.059,5.4,5.4,0,0,1,.881-.107" transform="translate(856.178 11910.034)" fill="#704c45"/>
    <path id="Trazado_804334" data-name="Trazado 804334" d="M244.725,423.518c-.043.027-.4-.559-1.043-1.433a6.994,6.994,0,0,0-1.309-1.355,7.335,7.335,0,0,0-2.071-1.009,20.215,20.215,0,0,1-3.887-1.839,9.57,9.57,0,0,1-1.484-.982,11.71,11.71,0,0,1,1.587.8,25.5,25.5,0,0,0,3.885,1.743,7.159,7.159,0,0,1,2.138,1.072,6.589,6.589,0,0,1,1.312,1.45,12.11,12.11,0,0,1,.675,1.118,1.492,1.492,0,0,1,.2.438" transform="translate(851.982 11913.302)" fill="#704c45"/>
    <path id="Trazado_804335" data-name="Trazado 804335" d="M121.425,194.921l-6.284,4.325s-7.811-.471-13.478,1.46a25.287,25.287,0,0,0-11.071,6.539A31.033,31.033,0,0,0,82.7,220.963l-7.566,63.193L63.62,328.749h76.652V272.326l7.336-25.886s-1.906-2.982-1.845-4.175,4.335-28.775,4.335-28.775l-8.737-10.453Z" transform="translate(925.644 12008.749)" fill="#92df98"/>
    <path id="Trazado_804336" data-name="Trazado 804336" d="M204.415,225.188s4.336,2.022,5.4,9.6,8.745,66.041,8.745,66.041-8.487,1.958-16.234,2.86l-9.751,1.658-.246-39.09Z" transform="translate(870.302 11995.734)" fill="#92df98"/>
    <g id="Grupo_1066442" data-name="Grupo 1066442" transform="translate(1016.039 12246.291)" opacity="0.2">
      <g id="Grupo_1066441" data-name="Grupo 1066441">
        <g id="Grupo_1066440" data-name="Grupo 1066440" clip-path="url(#clip-path)">
          <path id="Trazado_804337" data-name="Trazado 804337" d="M110.976,359.125c13.027-15.619,15.076-38.272,28.269-53.751l-8.072,4.534c1.43-13.46,2.8-27.451-1.7-40.215a353.091,353.091,0,0,1-18.88,89.371" transform="translate(-110.593 -269.693)"/>
        </g>
      </g>
    </g>
    <path id="Trazado_804338" data-name="Trazado 804338" d="M124.94,227.33q-.441,36.154-3.314,72.225a30.283,30.283,0,0,1-1.233,5.511,4,4,0,0,1-4.414,2.754l-15.725-2.372c-2.735-.462-3.771-.825-4.593-2.591a8.65,8.65,0,0,1-.756-3.9c.608-21.52-1.273-32.92.023-53.262" transform="translate(912.382 11994.813)" fill="#92df98"/>
    <path id="Trazado_804339" data-name="Trazado 804339" d="M94.866,245.7s0,.142-.008.42-.031.7-.054,1.229c-.057,1.08-.13,2.673-.193,4.727s-.113,4.565-.127,7.482c0,2.917.05,6.239.152,9.91.2,7.341.588,16.087.425,25.805q-.038,1.821-.079,3.687a8.635,8.635,0,0,0,.65,3.625,4.147,4.147,0,0,0,1.021,1.526,4.072,4.072,0,0,0,1.67.806,37.181,37.181,0,0,0,3.849.683l7.97,1.2,4.076.615c.679.1,1.381.223,2.048.294a3.857,3.857,0,0,0,3.453-1.71,6.455,6.455,0,0,0,.742-1.887,32.119,32.119,0,0,0,.89-4c.251-2.7.435-5.4.633-8.028.385-5.271.718-10.358,1.007-15.206.572-9.7.961-18.435,1.226-25.776s.412-13.283.5-17.39c.044-2.047.079-3.638.1-4.729.014-.534.025-.943.032-1.23s.021-.418.021-.418.008.142.009.419,0,.7,0,1.23c-.011,1.091-.027,2.683-.048,4.731-.055,4.108-.168,10.053-.409,17.4s-.605,16.085-1.162,25.784c-.282,4.85-.609,9.939-.99,15.212-.2,2.639-.377,5.312-.63,8.047a32.469,32.469,0,0,1-.9,4.043,6.722,6.722,0,0,1-.779,1.97,4.152,4.152,0,0,1-3.72,1.842c-.717-.076-1.383-.2-2.073-.3l-4.077-.616-7.971-1.205a37.456,37.456,0,0,1-3.879-.693,4.345,4.345,0,0,1-1.782-.869,4.423,4.423,0,0,1-1.094-1.63,8.915,8.915,0,0,1-.668-3.744q.043-1.864.084-3.684c.178-9.709-.187-18.451-.361-25.8-.089-3.673-.12-7-.108-9.916.029-2.919.089-5.433.177-7.486s.173-3.646.249-4.725q.055-.8.083-1.228c.021-.276.039-.418.039-.418" transform="translate(912.445 11994.813)" fill="#263238"/>
    <path id="Trazado_804340" data-name="Trazado 804340" d="M198.09,315.824a.8.8,0,0,1-.006-.182c0-.136.006-.312.011-.534.017-.489.04-1.175.071-2.05.034-1.783.254-4.355.626-7.521.233-1.577.428-3.314.8-5.152.174-.921.327-1.879.535-2.855s.426-1.98.647-3.01c.925-4.111,2.1-8.59,3.205-13.318a97.54,97.54,0,0,0,2.919-24.618c-.058-1.587-.111-3.024-.157-4.29-.067-1.262-.194-2.344-.26-3.231-.071-.872-.127-1.557-.166-2.043-.015-.221-.027-.4-.036-.533a.854.854,0,0,1,0-.182.822.822,0,0,1,.033.179c.017.135.038.31.065.53.053.486.128,1.169.222,2.039.083.887.227,1.969.311,3.232.059,1.268.127,2.708.2,4.3a94.881,94.881,0,0,1-2.839,24.688c-1.1,4.736-2.29,9.21-3.228,13.312q-.338,1.541-.658,3c-.212.974-.369,1.928-.548,2.847-.377,1.833-.584,3.564-.829,5.136-.4,3.155-.65,5.721-.719,7.5-.054.873-.1,1.559-.126,2.046-.017.221-.03.4-.04.532a.839.839,0,0,1-.024.181" transform="translate(867.826 11986.655)" fill="#263238"/>
    <path id="Trazado_804341" data-name="Trazado 804341" d="M177.278,300.919a1.46,1.46,0,0,1-.221.261l-.676.707c-.589.612-1.464,1.477-2.564,2.526-2.2,2.1-5.336,4.9-8.983,7.764s-7.112,5.253-9.671,6.892c-1.279.82-2.326,1.465-3.06,1.893l-.847.49a1.518,1.518,0,0,1-.306.153,1.463,1.463,0,0,1,.275-.2l.818-.536c.715-.458,1.744-1.129,3.006-1.971,2.526-1.682,5.96-4.091,9.6-6.95s6.792-5.628,9.023-7.684c1.117-1.027,2.013-1.868,2.626-2.454l.715-.668a1.484,1.484,0,0,1,.264-.218" transform="translate(888.094 11963.171)" fill="#263238"/>
    <g id="Grupo_1066445" data-name="Grupo 1066445" transform="translate(1065.916 12251.86)" opacity="0.2">
      <g id="Grupo_1066444" data-name="Grupo 1066444">
        <g id="Grupo_1066443" data-name="Grupo 1066443" clip-path="url(#clip-path-2)">
          <path id="Trazado_804342" data-name="Trazado 804342" d="M206.692,279.464c-1.87,17.356-8.052,36.322-8.6,47.271,2.452-7.8,5.553-15.26,7.833-23.116s3.3-16.381.764-24.156" transform="translate(-198.095 -279.464)"/>
        </g>
      </g>
    </g>
    <path id="Trazado_804343" data-name="Trazado 804343" d="M206.657,89.235a4.459,4.459,0,0,0,2.216-6.706c-.594-.878-1.489-1.529-2.023-2.445a14.361,14.361,0,0,1-.9-2.473,9.007,9.007,0,0,0-6.072-5.433,11.619,11.619,0,0,0-8.221.963,8.876,8.876,0,0,1-3.1,1.244,12.19,12.19,0,0,1-3.2-.541,7.383,7.383,0,0,0-8.306,9.723,6.355,6.355,0,0,0-.074,12.524,13.67,13.67,0,0,0,5.426-.553,96.73,96.73,0,0,1,22.067-2.466" transform="translate(879.154 12061.685)" fill="#263238"/>
    <path id="Trazado_804344" data-name="Trazado 804344" d="M164.894,137.611a22.726,22.726,0,0,1-2.95-15.238c.845-5.213,2.965-11.509,6.984-14.936-1.748-2.868-.283-5.374,1.894-7.931s5.42-3.967,8.665-4.834a36.132,36.132,0,0,1,14.875-.785c4.03.633,9.221,2.374,9.187,5.36a4.325,4.325,0,0,1-2.256,4.068,20.186,20.186,0,0,1,6.545,5.937c4.036,5.784,5.015,11.009,3.272,16.268s-3.744,9.227-7.659,12" transform="translate(883.488 12052.379)" fill="#74c67b"/>
    <path id="Trazado_804345" data-name="Trazado 804345" d="M225.854,180.112a5.065,5.065,0,0,1,2.264-.826l-.148-.044a3.015,3.015,0,0,1,.437.028,2,2,0,0,1,1.486.552l-.014,0a3.727,3.727,0,0,1,1.574,2.194,4.407,4.407,0,0,1-1.551,4.3,3.369,3.369,0,0,1-5.749-2.549,4.181,4.181,0,0,1,1.7-3.65" transform="translate(856.618 12015.492)" fill="#455a64"/>
    <path id="Trazado_804346" data-name="Trazado 804346" d="M164.52,167.473l6.341-41.815a4.108,4.108,0,0,1,4.443-3.336l22.463-.983c6.985.69,9.791,10.048,8.806,17-1.1,7.722-2.737,17.107-4.817,22.607-4.18,11.062-13.246,10.7-13.246,10.7.005-.039-1.7,7.921-2.6,12.068l-4.632,16.406Z" transform="translate(882.258 12040.389)" fill="#9b6e65"/>
    <path id="Trazado_804347" data-name="Trazado 804347" d="M228.3,165.771a1.5,1.5,0,0,1-1.72,1.188,1.432,1.432,0,0,1-1.239-1.635,1.5,1.5,0,0,1,1.719-1.189,1.434,1.434,0,0,1,1.24,1.636" transform="translate(856.115 12021.995)" fill="#263238"/>
    <path id="Trazado_804348" data-name="Trazado 804348" d="M228.624,157.262c-.221.154-1.163-.9-2.742-1.22-1.572-.344-2.9.228-3.03,0-.067-.1.19-.41.77-.673a4.112,4.112,0,0,1,2.475-.237,3.945,3.945,0,0,1,2.133,1.211c.408.473.5.853.394.919" transform="translate(857.181 12025.896)" fill="#263238"/>
    <path id="Trazado_804349" data-name="Trazado 804349" d="M202.247,161.008a1.5,1.5,0,0,1-1.72,1.187,1.432,1.432,0,0,1-1.238-1.635,1.5,1.5,0,0,1,1.719-1.188,1.433,1.433,0,0,1,1.24,1.636" transform="translate(867.317 12024.043)" fill="#263238"/>
    <path id="Trazado_804350" data-name="Trazado 804350" d="M201.3,152.153c-.222.153-1.165-.9-2.742-1.22-1.573-.344-2.9.228-3.031,0-.066-.1.189-.41.771-.673a4.1,4.1,0,0,1,2.474-.237,3.95,3.95,0,0,1,2.133,1.21c.407.473.5.853.394.92" transform="translate(868.93 12028.094)" fill="#263238"/>
    <path id="Trazado_804351" data-name="Trazado 804351" d="M211.465,166.407a10.662,10.662,0,0,1,2.659.067c.412.042.81.04.935-.22a2.1,2.1,0,0,0-.022-1.251q-.266-1.58-.557-3.315c-.752-4.712-1.207-8.552-1.017-8.581s.954,3.767,1.705,8.479q.263,1.74.5,3.323a2.384,2.384,0,0,1-.118,1.625,1.035,1.035,0,0,1-.785.453,2.787,2.787,0,0,1-.7-.047,10.469,10.469,0,0,1-2.6-.534" transform="translate(862.072 12026.729)" fill="#263238"/>
    <path id="Trazado_804352" data-name="Trazado 804352" d="M195.688,204.132a29.714,29.714,0,0,1-14.473-7.252s2.092,8.624,13.76,9.92Z" transform="translate(875.079 12007.907)" fill="#704c45"/>
    <path id="Trazado_804353" data-name="Trazado 804353" d="M205.311,181.131a3.968,3.968,0,0,0-2.847-2.357,2.582,2.582,0,0,0-2.31.7,2.366,2.366,0,0,0,1.881,4.009,5.885,5.885,0,0,0,2.621-.957,1.833,1.833,0,0,0,.621-.487.823.823,0,0,0,.1-.813" transform="translate(867.217 12015.71)" fill="#704c45"/>
    <path id="Trazado_804354" data-name="Trazado 804354" d="M202.546,176.669c.259.038-.092,1.752,1.123,3.271s3.077,1.708,3.041,1.95c0,.112-.475.249-1.249.11a4.357,4.357,0,0,1-2.56-1.53,3.792,3.792,0,0,1-.832-2.72c.083-.73.361-1.115.477-1.081" transform="translate(866.121 12016.599)" fill="#263238"/>
    <path id="Trazado_804355" data-name="Trazado 804355" d="M202.78,145.078c-.245.4-1.778-.132-3.676-.292-1.895-.2-3.5.036-3.666-.4-.071-.206.272-.556.962-.847a6.412,6.412,0,0,1,5.594.527c.623.415.9.823.787,1.012" transform="translate(868.968 12031.02)" fill="#263238"/>
    <path id="Trazado_804356" data-name="Trazado 804356" d="M229.61,148.987c-.352.3-1.362-.3-2.666-.584-1.293-.333-2.464-.258-2.642-.686-.074-.205.175-.528.728-.768a3.953,3.953,0,0,1,4.277,1.023c.386.464.461.864.3,1.014" transform="translate(856.558 12029.484)" fill="#263238"/>
    <path id="Trazado_804357" data-name="Trazado 804357" d="M200.385,123.06S189.7,120.609,179,130.975c-7.052,6.831-10.32,16.6-10.32,16.6l-.063-19.936,4.962-8.022,8.3-2.607,14.222,2.214,4.74,3.76" transform="translate(880.495 12042.25)" fill="#74c67b"/>
    <path id="Trazado_804358" data-name="Trazado 804358" d="M186.683,118.134c17.948-.461,30.385,8.11,30.028,22.031l5.356-8.064-6.6-12.6-9.174-4.607-20.212-1.21Z" transform="translate(872.986 12043.679)" fill="#74c67b"/>
    <path id="Trazado_804359" data-name="Trazado 804359" d="M163.235,166.77a5.454,5.454,0,0,1,2.437-.889l-.16-.048a3.217,3.217,0,0,1,.47.03,2.155,2.155,0,0,1,1.6.593l-.015,0a4.013,4.013,0,0,1,1.694,2.361,4.745,4.745,0,0,1-1.67,4.628A3.625,3.625,0,0,1,161.4,170.7a4.5,4.5,0,0,1,1.831-3.928" transform="translate(883.6 12021.257)" fill="#455a64"/>
    <path id="Trazado_804360" data-name="Trazado 804360" d="M170.712,144.579a1.761,1.761,0,0,1-.7-.442,4.4,4.4,0,0,1-1.232-1.9,4.459,4.459,0,0,1,.192-3.353c.269-.579.626-1.129.857-1.725a1.9,1.9,0,0,0-.091-1.794,6.688,6.688,0,0,0-1.439-1.394,4.99,4.99,0,0,1-1.3-1.543,5.519,5.519,0,0,1-.58-3.313,4.849,4.849,0,0,1,.8-2.115,1.823,1.823,0,0,1,.563-.605,6.408,6.408,0,0,0-1.026,2.759,5.361,5.361,0,0,0,.63,3.063,4.628,4.628,0,0,0,1.214,1.4,6.8,6.8,0,0,1,1.546,1.5,2.368,2.368,0,0,1,.122,2.213c-.266.662-.634,1.206-.9,1.747a4.207,4.207,0,0,0-.266,3.063,4.668,4.668,0,0,0,1.04,1.866c.352.375.594.539.571.575" transform="translate(881.464 12038.215)" fill="#fff"/>
    <path id="Trazado_804361" data-name="Trazado 804361" d="M176.313,116.413a7.366,7.366,0,0,0-1.081,2.56,5.494,5.494,0,0,0,.28,2.934,10.448,10.448,0,0,0,2.21,2.956,4.913,4.913,0,0,1,1.035,1.764,3.379,3.379,0,0,1-.037,1.927,26,26,0,0,0-1.02,2.9,2.7,2.7,0,0,0,.3,1.918c.261.394.542.488.515.532-.006.015-.074,0-.2-.054a1.368,1.368,0,0,1-.463-.366,2.75,2.75,0,0,1-.492-2.075,20.4,20.4,0,0,1,.931-2.967,2.971,2.971,0,0,0,.013-1.679,4.575,4.575,0,0,0-.951-1.589,10.221,10.221,0,0,1-2.256-3.107,5.612,5.612,0,0,1-.2-3.156,5.024,5.024,0,0,1,.867-1.94c.3-.406.531-.569.544-.555" transform="translate(877.854 12042.507)" fill="#fff"/>
    <path id="Trazado_804362" data-name="Trazado 804362" d="M193.153,127.7c.018.018-.169.149-.488.009a.967.967,0,0,1-.427-.418,1.2,1.2,0,0,1-.1-.789c.091-.585.543-1.117.7-1.711a1.76,1.76,0,0,0-.842-1.706,4.962,4.962,0,0,1-1.56-1.742,4.064,4.064,0,0,1-.4-1.886,2.429,2.429,0,0,1,.532-1.655,9.55,9.55,0,0,0-.2,1.653,4.1,4.1,0,0,0,.455,1.689,4.864,4.864,0,0,0,1.477,1.577,3.206,3.206,0,0,1,.816.957,1.639,1.639,0,0,1,.143,1.223c-.242.75-.691,1.2-.792,1.672a.875.875,0,0,0,.29.976c.214.154.389.112.4.152" transform="translate(871.289 12041.911)" fill="#fff"/>
    <path id="Trazado_804363" data-name="Trazado 804363" d="M204.045,120.081c.015-.023.12-.006.223.14a.841.841,0,0,1,.064.707,4.655,4.655,0,0,1-.467.828,1.889,1.889,0,0,0-.214.964,4.065,4.065,0,0,0,.607,1.815c.253.452.41.746.353.787s-.3-.18-.634-.6a3.44,3.44,0,0,1-.8-1.988,2.115,2.115,0,0,1,.315-1.2c.217-.32.433-.522.53-.724a.942.942,0,0,0,.027-.724" transform="translate(865.637 12040.934)" fill="#fff"/>
    <path id="Trazado_804364" data-name="Trazado 804364" d="M232.034,115.549c.024.021-.07.178-.284.422s-.56.561-.9.989a2.412,2.412,0,0,0-.519,1.748,9.526,9.526,0,0,1,.035,2.5,4.381,4.381,0,0,1-1.216,2.252,4.163,4.163,0,0,1-1.806,1.039,2.729,2.729,0,0,1-1.881,0,9.58,9.58,0,0,0,1.779-.325,4.088,4.088,0,0,0,2.656-3.063,10.632,10.632,0,0,0-.006-2.4,2.686,2.686,0,0,1,.7-1.974,9.13,9.13,0,0,1,1.033-.906c.249-.2.386-.31.412-.287" transform="translate(856.055 12042.88)" fill="#fff"/>
    <path id="Trazado_804365" data-name="Trazado 804365" d="M242.52,132.6c.053.09-.581.233-.971,1.03-.194.413-.521.891-.793,1.406a10.438,10.438,0,0,1-1.028,1.744,3.771,3.771,0,0,1-3.42,1.3,2.1,2.1,0,0,1-1.4-.62,13.108,13.108,0,0,0,1.43.284,3.671,3.671,0,0,0,3.016-1.269,12.745,12.745,0,0,0,1.013-1.656c.323-.552.65-.963.889-1.367a1.862,1.862,0,0,1,.853-.766c.249-.1.4-.117.408-.09" transform="translate(851.991 12035.551)" fill="#fff"/>
    <path id="Trazado_804366" data-name="Trazado 804366" d="M243.672,153.238c.049.034-.046.3-.367.6a2.5,2.5,0,0,1-3.195.153c-.348-.272-.467-.524-.422-.563a3.247,3.247,0,0,0,3.983-.19" transform="translate(849.94 12026.676)" fill="#fff"/>
    <path id="Trazado_804367" data-name="Trazado 804367" d="M216.6,108.749a10.8,10.8,0,0,0-1.186.891,3.578,3.578,0,0,0-.984,3.171,4.413,4.413,0,0,1,.231,2.085,2.8,2.8,0,0,1-.97,1.452,2.749,2.749,0,0,1-1.373.724c-.042-.07.492-.341,1.146-.974a2.645,2.645,0,0,0,.768-1.3,4.432,4.432,0,0,0-.269-1.89,3.561,3.561,0,0,1,.209-2.117,3.805,3.805,0,0,1,1.011-1.4,2.1,2.1,0,0,1,1.416-.645" transform="translate(861.708 12045.808)" fill="#fff"/>
    <path id="Trazado_804368" data-name="Trazado 804368" d="M197.865,115.61c-.116-.079.451-1.021.733-2.313.3-1.288.189-2.383.329-2.4a4.61,4.61,0,0,1-1.062,4.716" transform="translate(867.927 12044.881)" fill="#fff"/>
    <path id="Trazado_804369" data-name="Trazado 804369" d="M183.73,107.181c-.014-.036.125-.1.272-.306a1.74,1.74,0,0,0,.3-1c.027-.922-.652-2.108-1.131-3.545a5.463,5.463,0,0,1-.276-2.152,3.111,3.111,0,0,1,.64-1.676,1.879,1.879,0,0,1,1-.694c.291-.06.45,0,.446.029s-.154.045-.387.148a1.972,1.972,0,0,0-.784.716,4.039,4.039,0,0,0-.181,3.486c.446,1.365,1.125,2.627,1.013,3.708a1.718,1.718,0,0,1-.5,1.11c-.223.2-.406.207-.41.181" transform="translate(874.363 12050.52)" fill="#fff"/>
    <path id="Trazado_804370" data-name="Trazado 804370" d="M204.194,102.531c-.018-.028.1-.133.319-.3.2-.168.584-.393.689-.779a2.429,2.429,0,0,0-.482-1.467c-.326-.535-.8-1.063-1.251-1.683a3.384,3.384,0,0,1-.825-2.072,3.047,3.047,0,0,1,.793-1.64,3.831,3.831,0,0,1,1.217-1.062,9.2,9.2,0,0,1-.951,1.27,2.939,2.939,0,0,0-.62,1.461,3.181,3.181,0,0,0,.773,1.764c.864,1.153,1.9,2.315,1.669,3.526a1.656,1.656,0,0,1-.914.841c-.253.119-.4.168-.416.14" transform="translate(865.867 12052.349)" fill="#fff"/>
    <path id="Trazado_804371" data-name="Trazado 804371" d="M224.629,104.2c-.029-.068.528-.18.836-.9a2.18,2.18,0,0,0,.115-1.3,9.616,9.616,0,0,0-.528-1.634,4.513,4.513,0,0,1-.356-1.807,2.31,2.31,0,0,1,.636-1.4c.581-.68,1.235-.688,1.214-.607a2.844,2.844,0,0,0-.951.82,2.126,2.126,0,0,0-.459,1.207,4.6,4.6,0,0,0,.365,1.626,8.1,8.1,0,0,1,.515,1.732,2.371,2.371,0,0,1-.249,1.515,1.562,1.562,0,0,1-.76.705c-.234.088-.373.067-.377.039" transform="translate(856.412 12051.061)" fill="#fff"/>
    <path id="Trazado_804372" data-name="Trazado 804372" d="M206.428,109.51a7.187,7.187,0,0,1-1.317-.222c-.834-.191-2.057-.4-3.567-.623a39.668,39.668,0,0,0-11.871.177,59.727,59.727,0,0,0-11.446,3.328l-3.37,1.345a7.138,7.138,0,0,1-1.255.455,7.175,7.175,0,0,1,1.18-.625c.771-.378,1.9-.892,3.32-1.488a53.12,53.12,0,0,1,11.493-3.486,36.856,36.856,0,0,1,12-.04,34.411,34.411,0,0,1,3.56.776,7.12,7.12,0,0,1,1.274.4" transform="translate(878.353 12046.185)" fill="#263238"/>
    <path id="Trazado_804373" data-name="Trazado 804373" d="M179.972,118.608a.4.4,0,0,0,.121-.014l.348-.067.563-.116.774-.121a21.488,21.488,0,0,1,4.976-.127,29.94,29.94,0,0,1,7.208,1.576c1.318.448,2.673,1,4.064,1.615s2.807,1.291,4.209,2.076c5.685,3.051,9.539,7.865,10.892,11.836a16.885,16.885,0,0,1,.92,4.878c.032.589.027,1.047.022,1.358,0,.141,0,.258,0,.354a.414.414,0,0,0,.01.121.392.392,0,0,0,.018-.12c.007-.1.015-.212.025-.353a13.5,13.5,0,0,0,.03-1.363,16.245,16.245,0,0,0-.844-4.938c-1.322-4.04-5.207-8.935-10.941-12.011-1.412-.791-2.84-1.468-4.235-2.082s-2.759-1.163-4.09-1.609a29.391,29.391,0,0,0-7.274-1.53,20.429,20.429,0,0,0-5.008.214l-.774.147-.559.142-.342.093a.412.412,0,0,0-.114.041" transform="translate(875.614 12041.864)" fill="#263238"/>
    <path id="Trazado_804374" data-name="Trazado 804374" d="M198.233,127.44a2.033,2.033,0,0,0-.374-.066,10.324,10.324,0,0,0-1.086-.087,15.4,15.4,0,0,0-3.981.447,27.606,27.606,0,0,0-11.5,6.312,42.4,42.4,0,0,0-4.922,5.356,51.451,51.451,0,0,0-3.452,4.832,27.357,27.357,0,0,0-1.9,3.527c-.186.435-.323.776-.4,1.013a2.035,2.035,0,0,0-.112.363,2.019,2.019,0,0,0,.164-.343c.094-.23.246-.563.446-.989a31.094,31.094,0,0,1,1.961-3.468,55.18,55.18,0,0,1,3.485-4.778,43.781,43.781,0,0,1,4.908-5.31,28.18,28.18,0,0,1,11.367-6.329,16.4,16.4,0,0,1,3.932-.528c.47,0,.836.014,1.083.036a1.975,1.975,0,0,0,.38.011" transform="translate(879.684 12037.833)" fill="#263238"/>
    <path id="Trazado_804375" data-name="Trazado 804375" d="M49.111,399.628s3.489-1.146,5.73-1.789c1.237-.356,6.355-2.622,9.47-3.206,2.6-.489,9.8-4.17,10.915-4.919s5.529-25.337,5.529-25.337L97.4,366.887s-8.876,23.707-9.433,25.974-2.665,8.116-2.665,8.116H49.111Z" transform="translate(931.883 11935.885)" fill="#9b6e65"/>
    <path id="Trazado_804376" data-name="Trazado 804376" d="M100.248,422.187c-.008-.053.547-.1,1.351-.437a5.4,5.4,0,0,0,3.349-5.367c-.048-.871-.253-1.389-.2-1.406.017-.006.086.115.174.35a4.512,4.512,0,0,1,.237,1.038,5.273,5.273,0,0,1-3.482,5.58,4.49,4.49,0,0,1-1.036.243.9.9,0,0,1-.391,0" transform="translate(909.894 11914.127)" fill="#704c45"/>
    <path id="Trazado_804377" data-name="Trazado 804377" d="M82.744,420.491a1.778,1.778,0,0,1-.338.15,6.049,6.049,0,0,1-1.028.267,23.316,23.316,0,0,1-3.894.083,9.123,9.123,0,0,0-2.627.318c-.914.27-1.823.776-2.874,1.125a9.433,9.433,0,0,1-7.011-.533l-.352-.172.38-.1.336-.093a12.839,12.839,0,0,0,3.352-1.524,21.9,21.9,0,0,0,2.694-2.165A13.791,13.791,0,0,1,76.552,415a30.959,30.959,0,0,1,3.874-.922l1.066-.178a1.791,1.791,0,0,1,.376-.04,1.847,1.847,0,0,1-.365.1l-1.055.232a36.656,36.656,0,0,0-3.831,1.008,13.82,13.82,0,0,0-5.055,2.846,21.672,21.672,0,0,1-2.716,2.2,13.008,13.008,0,0,1-3.426,1.565l-.344.1.028-.277a9.229,9.229,0,0,0,6.8.542c1.02-.33,1.94-.831,2.888-1.1a9.16,9.16,0,0,1,2.7-.292,26.471,26.471,0,0,0,3.875.011,12.519,12.519,0,0,0,1.383-.3" transform="translate(925.214 11914.607)" fill="#704c45"/>
    <path id="Trazado_804378" data-name="Trazado 804378" d="M513.466,346.731l-9.67,22.386-8.973,28.832,86.932.409-1.481-54.606L537.548,339.4Z" transform="translate(740.231 11946.627)" fill="#263238"/>
    <path id="Trazado_804379" data-name="Trazado 804379" d="M417.843,358.3s-7,2.661-12.478,4.276-15.257,7.646-15.257,7.646-9.937,8.967-9.591,10.141,1.538,1.756,3.051.545,8.969-5.621,8.969-5.621.481,2.493,2.1,2.782a4.339,4.339,0,0,0,2.46-.116s.662,2.341,1.822,3.1a6.666,6.666,0,0,0,2.237.955,1.885,1.885,0,0,0,1.538,1.757,9.832,9.832,0,0,0,3.084.365s5.193-3.147,6.02-4.666,1.836-3.561,1.836-3.561l2.14-1.074,6.583-1.12Z" transform="translate(789.385 11938.499)" fill="#c78976"/>
    <path id="Trazado_804380" data-name="Trazado 804380" d="M419.841,377.477a4.183,4.183,0,0,1-.643.791,8.335,8.335,0,0,1-2.315,1.629,11.711,11.711,0,0,1-4.141,1.169,9.09,9.09,0,0,1-2.612-.111,6.807,6.807,0,0,1-2.651-1.089l.168-.231a17.219,17.219,0,0,1,1.838,1.556,6.886,6.886,0,0,1,.829.965,3.277,3.277,0,0,1,.5,1.224,3.76,3.76,0,0,1-.714,2.981l-.068.086-.1-.039a14.108,14.108,0,0,1-2.8-1.562c-.844-.584-1.617-1.188-2.344-1.766s-1.407-1.113-2.05-1.652a2.557,2.557,0,0,1-.763-2.148,3.681,3.681,0,0,1,.295-.959c.12-.288.243-.555.367-.8a13.041,13.041,0,0,1,.692-1.214c.207-.322.382-.56.5-.718a1.144,1.144,0,0,1,.2-.229,1.5,1.5,0,0,1-.158.26c-.108.167-.267.414-.459.74s-.416.735-.645,1.226c-.115.245-.23.511-.341.8a3.545,3.545,0,0,0-.264.917,2.36,2.36,0,0,0,.729,1.96c.616.5,1.33,1.043,2.052,1.615s1.5,1.166,2.343,1.738a13.992,13.992,0,0,0,2.743,1.519l-.168.047a3.477,3.477,0,0,0,.653-2.745,2.993,2.993,0,0,0-.453-1.114,6.648,6.648,0,0,0-.791-.922,17.238,17.238,0,0,0-1.8-1.533l.168-.231a6.57,6.57,0,0,0,2.534,1.056,8.929,8.929,0,0,0,2.539.131,11.787,11.787,0,0,0,4.083-1.086,8.819,8.819,0,0,0,2.327-1.536c.48-.443.686-.741.711-.72" transform="translate(780.162 11931.162)" fill="#925b4c"/>
    <path id="Trazado_804381" data-name="Trazado 804381" d="M416.9,389.034a5.156,5.156,0,0,1,.855-.34,6.264,6.264,0,0,0,1.857-1.1,1.92,1.92,0,0,0,.585-.955,1.339,1.339,0,0,0-.131-.885c-.254-.483-.657-.516-.64-.563,0-.015.1-.036.261.009a1.056,1.056,0,0,1,.559.446,1.476,1.476,0,0,1,.219,1.043,2.075,2.075,0,0,1-.649,1.119,5.215,5.215,0,0,1-1.993,1.081,2.053,2.053,0,0,1-.924.142" transform="translate(773.735 11926.941)" fill="#925b4c"/>
    <path id="Trazado_804382" data-name="Trazado 804382" d="M419.463,394.42a12.519,12.519,0,0,1,1.263-.821c.389-.251.845-.561,1.334-.927a9.907,9.907,0,0,0,1.484-1.285,2,2,0,0,0,.449-.843,1.326,1.326,0,0,0-.1-.85,1.856,1.856,0,0,0-1.142-.954,3.21,3.21,0,0,0-1.059-.128,1.519,1.519,0,0,1-.405,0c0-.018.133-.073.394-.116a2.786,2.786,0,0,1,1.127.042,2.026,2.026,0,0,1,1.33,1.036,1.582,1.582,0,0,1,.142,1.029,2.232,2.232,0,0,1-.506.975,9.038,9.038,0,0,1-1.55,1.315,16.257,16.257,0,0,1-1.387.886,5.511,5.511,0,0,1-1.371.641" transform="translate(772.635 11925.53)" fill="#925b4c"/>
    <path id="Trazado_804383" data-name="Trazado 804383" d="M429.452,395.824a5.6,5.6,0,0,0,.246-.77,1.673,1.673,0,0,0-2.393-1.838c-.453.194-.64.469-.68.436-.028-.008.1-.351.587-.624A1.825,1.825,0,0,1,429.9,395.1c-.139.538-.436.754-.451.728" transform="translate(769.557 11923.668)" fill="#925b4c"/>
    <path id="Trazado_804384" data-name="Trazado 804384" d="M482.468,411.294l-1.826,2.7L467,413.968l-17.369,7,44.87,0c.379-.473,1.548-2.265,1.548-2.265l-13.578-7.409" transform="translate(759.664 11915.711)" fill="#c78976"/>
    <path id="Trazado_804385" data-name="Trazado 804385" d="M544.118,236.356c-9.8-15.853-30.851-35.224-32.639-36.119s-30.568-2.7-30.568-2.7l-22.733,16.127-7.547,11.281c-1.032,3.211-2.845,8.155-2.017,11.425l.7,5.563,23.711,15.307,11.794,6.882,6.569,9.315-.526,15.551,9.292-1.765s14.31,1.413,28.023,1.748,32.575-4.016,32.575-4.016-5.708-30.916-16.635-48.6" transform="translate(760.191 12007.624)" fill="#59bee2"/>
    <path id="Trazado_804386" data-name="Trazado 804386" d="M513.845,230.123l8.049,44.652L505.2,324.033l16.694,9.109s11.924-20.984,17.29-33.678a181.046,181.046,0,0,0,7.326-19.786s-.025-48.261-1.738-53.824-7.377-16.594-13.339-16-20.03,6.719-17.588,20.266" transform="translate(735.769 12002.337)" fill="#59bee2"/>
    <path id="Trazado_804387" data-name="Trazado 804387" d="M446.032,275.423l14.384,35.219a14.6,14.6,0,0,0-1.732,4.143l-17.918,8.875,5.266,16.956s22.378-7.434,25.548-9.146,12.312-8.224,13.9-13.5-7.2-24-7.2-24Z" transform="translate(763.475 11974.135)" fill="#59bee2"/>
    <path id="Trazado_804388" data-name="Trazado 804388" d="M492.193,299.139a1.491,1.491,0,0,1-.307-.149l-.851-.477c-.736-.421-1.8-1.037-3.092-1.822s-2.828-1.741-4.483-2.876c-.826-.57-1.682-1.186-2.535-1.872l-2.6-2.153-9.074-7.6-2.729-2.33-.732-.645a.171.171,0,1,1,.038-.046l.767.6,2.788,2.257,9.129,7.534,2.592,2.157c.842.682,1.691,1.3,2.508,1.874,1.64,1.142,3.16,2.112,4.438,2.921l3.041,1.9.823.525a1.461,1.461,0,0,1,.276.2" transform="translate(752.818 11972.608)" fill="#263238"/>
    <path id="Trazado_804389" data-name="Trazado 804389" d="M494.415,201.157a7.98,7.98,0,0,1,1.1,1.656,11.887,11.887,0,0,1,1.28,5.246,14.177,14.177,0,0,1-.449,3.729,15.7,15.7,0,0,1-1.7,3.963,21.634,21.634,0,0,1-6.929,6.937,18.381,18.381,0,0,1-9.285,3.084,12.2,12.2,0,0,1-7.615-2.3,10.176,10.176,0,0,1-3.419-4.164,6.255,6.255,0,0,1-.3-.8,3.879,3.879,0,0,1-.164-.6l-.077-.376a.42.42,0,0,1-.017-.129,15.87,15.87,0,0,0,.661,1.859,10.293,10.293,0,0,0,3.435,4.041,12.076,12.076,0,0,0,7.485,2.2,18.268,18.268,0,0,0,9.133-3.062,21.57,21.57,0,0,0,6.854-6.828,15.63,15.63,0,0,0,1.692-3.886,14.16,14.16,0,0,0,.477-3.662,12.108,12.108,0,0,0-1.173-5.2,8.122,8.122,0,0,0-.4-.746c-.122-.213-.226-.392-.324-.528l-.21-.319a.442.442,0,0,1-.063-.115" transform="translate(752.262 12006.068)" fill="#263238"/>
    <path id="Trazado_804390" data-name="Trazado 804390" d="M502.428,234.462c-.081.032-.494-.892-1.2-1.908s-1.412-1.736-1.353-1.8a6.671,6.671,0,0,1,2.55,3.708" transform="translate(738.059 11993.344)" fill="#263238"/>
    <path id="Trazado_804391" data-name="Trazado 804391" d="M510.744,226.695a8.01,8.01,0,0,0-4.145-2.17,4.56,4.56,0,0,1,4.145,2.17" transform="translate(735.167 11996.039)" fill="#263238"/>
    <path id="Trazado_804392" data-name="Trazado 804392" d="M516.174,217.231a38.148,38.148,0,0,0-3.86-.543,5.658,5.658,0,0,1,3.86.543" transform="translate(732.71 11999.449)" fill="#263238"/>
    <path id="Trazado_804393" data-name="Trazado 804393" d="M515.59,205.354a122.164,122.164,0,0,0-3.439.976,5.309,5.309,0,0,1,3.439-.976" transform="translate(732.781 12004.283)" fill="#263238"/>
    <path id="Trazado_804394" data-name="Trazado 804394" d="M487.9,240.5a3.924,3.924,0,0,1,.021-3.653c.083.029-.164.822-.164,1.826s.227,1.8.144,1.827" transform="translate(743.399 11990.72)" fill="#263238"/>
    <path id="Trazado_804395" data-name="Trazado 804395" d="M472.1,238.449c-.062-.054.3-.584.82-1.186s.983-1.047,1.045-.993a3.6,3.6,0,0,1-.82,1.186c-.515.6-.983,1.046-1.045.993" transform="translate(750.004 11990.972)" fill="#263238"/>
    <path id="Trazado_804396" data-name="Trazado 804396" d="M544.637,237.939s.026.079.068.239a6.585,6.585,0,0,1,.16.719c.128.638.239,1.6.367,2.849.237,2.507.453,6.2.631,10.9.353,9.411.586,22.885.638,39.115v.018l0,.015c-1.2,4.086-2.722,8.274-4.394,12.593-1.689,4.309-3.5,8.77-5.65,13.236-4.276,8.943-9.244,18.2-14.565,27.675l-.071.127-.129-.07-1.542-.841-15.151-8.27-.108-.059.04-.117,16.721-49.249,0,.059c-2.435-13.627-4.429-24.791-5.816-32.556l-1.584-8.967c-.177-1.025-.313-1.81-.405-2.347s-.127-.8-.127-.8.061.27.162.8l.44,2.34c.379,2.062.935,5.084,1.647,8.955,1.411,7.761,3.44,18.918,5.917,32.537l.005.03-.01.029L505.2,336.165l-.068-.176,15.153,8.266,1.542.842-.2.057c5.317-9.47,10.289-18.722,14.566-27.651,2.151-4.457,3.963-8.908,5.656-13.212,1.674-4.31,3.2-8.5,4.4-12.562l0,.034c-.025-16.228-.223-29.7-.532-39.109-.156-4.7-.349-8.393-.561-10.9-.115-1.252-.215-2.211-.329-2.849-.042-.323-.106-.56-.14-.721s-.049-.244-.049-.244" transform="translate(735.904 11990.252)" fill="#263238"/>
    <path id="Trazado_804397" data-name="Trazado 804397" d="M542.036,215.046a25.013,25.013,0,0,0-2.7-1.148,13.486,13.486,0,0,0-13.21,2.7,24.873,24.873,0,0,0-2.034,2.118,3.5,3.5,0,0,1,.434-.667,11.931,11.931,0,0,1,1.46-1.607A13.162,13.162,0,0,1,539.4,213.7a11.872,11.872,0,0,1,1.974.9,3.5,3.5,0,0,1,.662.442" transform="translate(727.648 12001.006)" fill="#263238"/>
    <g id="Grupo_1066450" data-name="Grupo 1066450" transform="translate(1276.46 12245.135)" opacity="0.3">
      <g id="Grupo_1066449" data-name="Grupo 1066449">
        <g id="Grupo_1066448" data-name="Grupo 1066448" clip-path="url(#clip-path-3)">
          <path id="Trazado_804398" data-name="Trazado 804398" d="M567.464,360.356c.089-.237.178-.475.268-.713-.05.033-.1.07-.148.1Z" transform="translate(-567.464 -307.215)"/>
          <path id="Trazado_804399" data-name="Trazado 804399" d="M576.672,289.4a134.094,134.094,0,0,0-3.569-21.739c-1.609,12.333,1.553,24.98-.559,37.236a83.826,83.826,0,0,1-4.609,15.193c4.662-3.048,7.472-8.383,8.583-13.847,1.122-5.523.705-11.233.154-16.843" transform="translate(-567.667 -267.665)"/>
        </g>
      </g>
    </g>
    <g id="Grupo_1066453" data-name="Grupo 1066453" transform="translate(1223.289 12255.65)" opacity="0.3">
      <g id="Grupo_1066452" data-name="Grupo 1066452">
        <g id="Grupo_1066451" data-name="Grupo 1066451" clip-path="url(#clip-path-4)">
          <path id="Trazado_804400" data-name="Trazado 804400" d="M493.977,301.054l-19.795-14.939c.221,5.57,4.459,10.142,8.863,13.559s10.391,7.353,14.568,11.046c-1.378-3.078-2.258-6.588-3.636-9.666" transform="translate(-474.183 -286.114)"/>
        </g>
      </g>
    </g>
    <path id="Trazado_804401" data-name="Trazado 804401" d="M492.454,264.391a3.1,3.1,0,0,1-.32.378c-.217.241-.543.591-.972,1.032a23.726,23.726,0,0,1-3.986,3.368,11.469,11.469,0,0,1-3.3,1.493,8.342,8.342,0,0,1-4.15-.01,15.44,15.44,0,0,1-4.164-1.926c-1.355-.828-2.685-1.789-4.163-2.559a10.725,10.725,0,0,0-4.589-1.377,6.737,6.737,0,0,0-4.175,1.362,33.055,33.055,0,0,0-3.116,2.679,13,13,0,0,1-2.935,2.114,5.431,5.431,0,0,1-2.916.609,4.458,4.458,0,0,1-2.136-.712,3.015,3.015,0,0,1-.983-1.028,2,2,0,0,1-.2-.453c.016-.007.079.153.253.421a3.107,3.107,0,0,0,1,.963,4.411,4.411,0,0,0,2.085.644,5.3,5.3,0,0,0,2.811-.632,12.981,12.981,0,0,0,2.863-2.108,32.4,32.4,0,0,1,3.125-2.721,8.229,8.229,0,0,1,2-1.065,6.434,6.434,0,0,1,2.34-.364,10.949,10.949,0,0,1,4.72,1.4c1.5.784,2.835,1.752,4.178,2.575a15.289,15.289,0,0,0,4.08,1.908,7.449,7.449,0,0,0,2.067.268,8.116,8.116,0,0,0,1.954-.232,11.37,11.37,0,0,0,3.244-1.431,25.335,25.335,0,0,0,4.016-3.273l1.011-.991a3.1,3.1,0,0,1,.363-.336" transform="translate(759.354 11978.878)" fill="#fff"/>
    <path id="Trazado_804402" data-name="Trazado 804402" d="M552.881,254.534a1.369,1.369,0,0,1-.238.228,3.382,3.382,0,0,1-.819.475,5.352,5.352,0,0,1-3.438.1c-2.966-.686-5.6-4.313-10.041-5.135a15.874,15.874,0,0,0-3.181-.4,16.919,16.919,0,0,0-2.981.229,15.981,15.981,0,0,0-4.788,1.609,17.027,17.027,0,0,0-3.764,2.771,1.338,1.338,0,0,1,.21-.251l.647-.683c.311-.264.681-.6,1.144-.956l.764-.533c.269-.192.584-.345.9-.533a15.715,15.715,0,0,1,4.842-1.693,16.85,16.85,0,0,1,3.032-.251,15.869,15.869,0,0,1,3.242.405A14.856,14.856,0,0,1,541.5,251c.46.262.927.494,1.356.767s.833.559,1.225.841a14.914,14.914,0,0,0,4.365,2.535,5.378,5.378,0,0,0,3.339-.009,5.294,5.294,0,0,0,1.1-.6" transform="translate(727.844 11985.275)" fill="#fff"/>
    <path id="Trazado_804403" data-name="Trazado 804403" d="M590.865,244.294c.013.026-.263.147-.685.473a5.474,5.474,0,0,0-1.415,1.727,11.487,11.487,0,0,0-1.08,3.16,21.613,21.613,0,0,1-1.091,4.021,6.857,6.857,0,0,1-2.745,3.133,7.64,7.64,0,0,1-3.233,1.09,6.456,6.456,0,0,1-2.292-.18,3.882,3.882,0,0,1-.593-.2c-.133-.052-.2-.084-.2-.093.009-.028.292.072.816.177a7.006,7.006,0,0,0,2.244.084,7.674,7.674,0,0,0,3.111-1.113,6.694,6.694,0,0,0,2.618-3.02,22.778,22.778,0,0,0,1.095-3.963,11.177,11.177,0,0,1,1.164-3.2,5.216,5.216,0,0,1,1.53-1.716,3.1,3.1,0,0,1,.546-.308c.132-.056.2-.081.207-.072" transform="translate(704.666 11987.521)" fill="#fff"/>
    <path id="Trazado_804404" data-name="Trazado 804404" d="M475.393,293.814a2.437,2.437,0,0,1-.113.606,4.858,4.858,0,0,1-.2.694,8.225,8.225,0,0,1-.347.894,9.237,9.237,0,0,1-.526,1.039,11.146,11.146,0,0,1-.723,1.126,13.083,13.083,0,0,1-2.094,2.235,13.279,13.279,0,0,1-2.579,1.655,11.292,11.292,0,0,1-2.364.813,7.365,7.365,0,0,1-.946.165,4.481,4.481,0,0,1-.721.06,2.433,2.433,0,0,1-.616-.014c0-.063.878-.066,2.233-.415a12.342,12.342,0,0,0,2.295-.856,13.969,13.969,0,0,0,2.508-1.637,13.781,13.781,0,0,0,2.064-2.169,11.942,11.942,0,0,0,.73-1.088,9.876,9.876,0,0,0,.547-1c.606-1.263.795-2.123.855-2.106" transform="translate(753.416 11966.227)" fill="#fff"/>
    <path id="Trazado_804405" data-name="Trazado 804405" d="M624.939,369.917a5.69,5.69,0,0,1-.934.165,8.9,8.9,0,0,1-1.109.112,14.575,14.575,0,0,1-1.476.047,16.311,16.311,0,0,1-1.789-.088c-.645-.038-1.322-.162-2.038-.276a22.539,22.539,0,0,1-8.652-3.592c-.587-.427-1.153-.82-1.635-1.249a16.474,16.474,0,0,1-1.325-1.2c-.4-.37-.717-.756-1.009-1.078a9,9,0,0,1-.7-.864,5.742,5.742,0,0,1-.543-.778,5.885,5.885,0,0,1,.633.706,10.574,10.574,0,0,0,.736.825c.3.309.621.682,1.031,1.039a17.593,17.593,0,0,0,1.336,1.165c.483.417,1.049.8,1.632,1.213a23.374,23.374,0,0,0,8.551,3.549c.706.12,1.374.251,2.01.3a17.528,17.528,0,0,0,1.768.123c.542.038,1.033,0,1.464,0a10.7,10.7,0,0,0,1.1-.061,5.809,5.809,0,0,1,.947-.05" transform="translate(693.404 11937.289)" fill="#455a64"/>
    <path id="Trazado_804406" data-name="Trazado 804406" d="M560.77,408.066c-.08-.018,1.142-5.67,2.728-12.621s2.938-12.575,3.018-12.557-1.142,5.669-2.728,12.623-2.938,12.573-3.018,12.555" transform="translate(711.876 11927.925)" fill="#455a64"/>
    <path id="Trazado_804407" data-name="Trazado 804407" d="M471.385,170.786h0a6.564,6.564,0,0,0-.577-3.2l-17.3-37.867c-4.032-10.874-13.721-17.59-24.479-13.258l-.971.458a20.734,20.734,0,0,0-10.549,26.067c3.547,9.4,7.586,19.747,9.94,24.579,4.876,10,15.679,6.817,15.679,6.817l2.015,3.852s2.108,7.261,11.128,6.242c6.934-.783,12.068-7.516,14.072-10.589a6.525,6.525,0,0,0,1.037-3.1" transform="translate(774.049 12043.061)" fill="#c78976"/>
    <path id="Trazado_804408" data-name="Trazado 804408" d="M463.31,211.51a26.994,26.994,0,0,0,11.363-10.085s.318,8.706-10.15,12.541Z" transform="translate(753.781 12005.953)" fill="#925b4c"/>
    <path id="Trazado_804409" data-name="Trazado 804409" d="M429.756,175.7a1.589,1.589,0,0,0,2.07.8,1.52,1.52,0,0,0,.869-2,1.59,1.59,0,0,0-2.069-.8,1.522,1.522,0,0,0-.87,2" transform="translate(768.26 12017.925)" fill="#263238"/>
    <path id="Trazado_804410" data-name="Trazado 804410" d="M426.334,168.378c.266.1.975-1.216,2.523-1.943,1.536-.748,3.047-.488,3.125-.756.043-.123-.3-.375-.962-.5a4.359,4.359,0,0,0-2.611.373,4.19,4.19,0,0,0-1.9,1.78c-.3.59-.3,1-.177,1.047" transform="translate(769.715 12021.565)" fill="#263238"/>
    <path id="Trazado_804411" data-name="Trazado 804411" d="M454.678,164.149a1.589,1.589,0,0,0,2.07.8,1.519,1.519,0,0,0,.869-2,1.59,1.59,0,0,0-2.069-.8,1.521,1.521,0,0,0-.87,2" transform="translate(757.544 12022.893)" fill="#263238"/>
    <path id="Trazado_804412" data-name="Trazado 804412" d="M453.24,156.293c.267.1.976-1.217,2.524-1.943,1.536-.747,3.046-.487,3.125-.756.043-.123-.3-.376-.963-.5a4.361,4.361,0,0,0-2.611.373,4.188,4.188,0,0,0-1.9,1.781c-.3.588-.3,1-.177,1.047" transform="translate(758.145 12026.762)" fill="#263238"/>
    <path id="Trazado_804413" data-name="Trazado 804413" d="M448.832,173.552a11.274,11.274,0,0,0-2.725.732c-.414.146-.825.244-1.019.006a2.226,2.226,0,0,1-.289-1.3q-.12-1.7-.252-3.558c-.4-5.047-.888-9.121-1.091-9.1s-.044,4.123.356,9.17q.162,1.86.31,3.553a2.524,2.524,0,0,0,.527,1.646,1.093,1.093,0,0,0,.922.271,2.947,2.947,0,0,0,.715-.223,11.127,11.127,0,0,0,2.547-1.2" transform="translate(762.356 12023.622)" fill="#263238"/>
    <path id="Trazado_804414" data-name="Trazado 804414" d="M459.563,181.623c-.258.1.531,1.784-.343,3.654s-2.748,2.529-2.651,2.77c.027.116.552.138,1.318-.2a4.623,4.623,0,0,0,2.257-2.217,4.025,4.025,0,0,0,.18-3.012c-.267-.732-.651-1.06-.761-1" transform="translate(756.681 12014.471)" fill="#263238"/>
    <path id="Trazado_804415" data-name="Trazado 804415" d="M447.536,146.009c.351.348,1.8-.58,3.718-1.218,1.9-.677,3.618-.836,3.681-1.327.022-.231-.42-.506-1.2-.634a6.8,6.8,0,0,0-5.637,1.939c-.539.583-.719,1.071-.559,1.24" transform="translate(760.588 12031.175)" fill="#263238"/>
    <path id="Trazado_804416" data-name="Trazado 804416" d="M423.571,160.04c.438.223,1.331-.645,2.6-1.267,1.251-.667,2.477-.881,2.553-1.366.026-.23-.311-.5-.942-.61a4.191,4.191,0,0,0-4.155,2.122c-.282.575-.26,1.007-.059,1.121" transform="translate(770.934 12025.16)" fill="#263238"/>
    <path id="Trazado_804417" data-name="Trazado 804417" d="M415.384,136.561s-.322-7.555,2.023-10.46c2.838-3.517,6.328-.227,9.371-2.862s5.749-6,10.611-4.984c5.322,1.114,4.467,4.063,6.818,8.413,9.529,17.638,15.252,21.2,12.166,12.226-.338-.983,1.9-2.95.424-7.078-1.918-5.352-4.655-11.66-7.513-14.752-2.408-2.607-5.152-3.9-9.382-4.752-6.679-1.348-13.5,1.777-17.893,4.418s-10.771,12.138-6.625,19.831" transform="translate(774.966 12044.409)" fill="#263238"/>
    <path id="Trazado_804418" data-name="Trazado 804418" d="M486.77,155.947a3.021,3.021,0,0,1,1.706-4.025c1.961-.707,4.553-.628,6.26,3.308,3.028,6.983-4.607,8.584-4.706,8.389-.067-.133-2.018-4.739-3.26-7.672" transform="translate(743.798 12027.386)" fill="#c78976"/>
    <path id="Trazado_804419" data-name="Trazado 804419" d="M492.082,162.26c.021-.036.159.032.405.038a1.327,1.327,0,0,0,.917-.376c.621-.591.734-2.032.222-3.3a4.377,4.377,0,0,0-1.1-1.594,1.531,1.531,0,0,0-1.32-.537.675.675,0,0,0-.573.645c-.009.236.1.356.064.384-.012.026-.2-.052-.27-.365a.849.849,0,0,1,.085-.557,1,1,0,0,1,.6-.47,1.864,1.864,0,0,1,1.74.532,4.509,4.509,0,0,1,1.266,1.763c.565,1.427.416,3.056-.467,3.785a1.42,1.42,0,0,1-1.193.3c-.291-.079-.4-.219-.377-.242" transform="translate(742.126 12025.459)" fill="#925b4c"/>
    <path id="Trazado_804420" data-name="Trazado 804420" d="M450.3,123.6a7.226,7.226,0,0,1-2.278,2.721,2.482,2.482,0,0,1-3.235-.4c-.308-.441-.453-1.051-.943-1.272-.584-.264-1.212.2-1.76.535a4.857,4.857,0,0,1-6.044-1,2.038,2.038,0,0,1-2.362,1.4,10.935,10.935,0,0,1-2.82-1.12,3.13,3.13,0,0,0-2.919-.067c-.474.312-.808.84-1.341,1.036-.941.347-1.882-.5-2.442-1.336s-1.161-1.828-2.156-1.954c-.922-.117-1.718.578-2.492,1.093s-1.94.827-2.537.115a1.806,1.806,0,0,1-.281-1.393,4.927,4.927,0,0,1,4.463-4.17,6.678,6.678,0,0,1,10.542-6.41,6.778,6.778,0,0,1,10.852-2.391,4.913,4.913,0,0,1,8.06,4.1,4.665,4.665,0,0,1,3.907,2.264c.7,1.412-.019,3.486-1.57,3.76a2.72,2.72,0,0,1-3.1,4.463" transform="translate(773.836 12046.466)" fill="#263238"/>
    <path id="Trazado_804421" data-name="Trazado 804421" d="M425.323,127.312c-.005,0,.015.046.061.125s.112.2.218.347a4.792,4.792,0,0,0,1.125,1.09,5.453,5.453,0,0,0,2.293.906,5.072,5.072,0,0,0,3.2-.527l-.189-.1a2.757,2.757,0,0,0,1.035,1.835,7.876,7.876,0,0,0,1.976,1.135,5.681,5.681,0,0,0,1.142.426,2.659,2.659,0,0,0,1.281-.11,2.778,2.778,0,0,0,1.84-1.839l-.292.048a5.706,5.706,0,0,0,3.874,2.537,4.16,4.16,0,0,0,2.609-.327,7.51,7.51,0,0,0,2-1.54l-.222.006a6,6,0,0,0,2.631,1.355,3.191,3.191,0,0,0,2.7-.479,4.189,4.189,0,0,0,1.517-4.343l-.121.146a3.921,3.921,0,0,0,2.528-.769,4.263,4.263,0,0,0,1.3-1.513,3.692,3.692,0,0,0,.372-1.2,1.827,1.827,0,0,0,.006-.438,4.573,4.573,0,0,1-.491,1.582,4.217,4.217,0,0,1-1.3,1.423,3.752,3.752,0,0,1-2.4.687l-.163-.012.042.158a3.952,3.952,0,0,1-1.464,4.052,2.9,2.9,0,0,1-2.467.41,5.718,5.718,0,0,1-2.481-1.293l-.114-.1-.108.107a7.236,7.236,0,0,1-1.91,1.471,3.839,3.839,0,0,1-2.412.3,5.4,5.4,0,0,1-3.658-2.387l-.2-.3-.1.353a2.468,2.468,0,0,1-1.625,1.624,2.358,2.358,0,0,1-1.132.105,5.518,5.518,0,0,1-1.075-.4,7.675,7.675,0,0,1-1.916-1.075,2.5,2.5,0,0,1-.961-1.648l-.021-.191-.168.093a4.89,4.89,0,0,1-3.044.547,5.411,5.411,0,0,1-2.243-.823,5.888,5.888,0,0,1-1.483-1.444" transform="translate(770.115 12039.21)" fill="#455a64"/>
    <path id="Trazado_804422" data-name="Trazado 804422" d="M430.907,169.134a13.746,13.746,0,0,0-.42-1.8,7.492,7.492,0,0,0-3.025-3.864,7.388,7.388,0,0,0-7.053-.538,7.4,7.4,0,0,0-3.229,2.812,7.343,7.343,0,0,0,.621,8.689,7.394,7.394,0,0,0,3.6,2.323,7.447,7.447,0,0,0,9.348-5.791,13.719,13.719,0,0,0,.16-1.837,2.852,2.852,0,0,1,.04.479,3.456,3.456,0,0,1,0,.584,5.265,5.265,0,0,1-.084.794,7.568,7.568,0,0,1-5.507,6.063,7.644,7.644,0,0,1-4.029-.029,7.645,7.645,0,0,1-3.744-2.4,7.608,7.608,0,0,1-.646-9.033,7.646,7.646,0,0,1,3.364-2.906,7.646,7.646,0,0,1,3.983-.6A7.567,7.567,0,0,1,430.6,167.3a5.271,5.271,0,0,1,.2.774,3.439,3.439,0,0,1,.087.577,2.914,2.914,0,0,1,.029.48" transform="translate(774.231 12022.889)" fill="#263238"/>
    <path id="Trazado_804423" data-name="Trazado 804423" d="M461.985,154.35a13.947,13.947,0,0,0-.421-1.8,7.492,7.492,0,0,0-3.025-3.864,7.387,7.387,0,0,0-7.053-.538,7.413,7.413,0,0,0-3.229,2.812,7.34,7.34,0,0,0,.621,8.689,7.4,7.4,0,0,0,3.6,2.323,7.448,7.448,0,0,0,9.348-5.791,13.838,13.838,0,0,0,.16-1.837,2.9,2.9,0,0,1,.039.479,3.4,3.4,0,0,1,0,.584,5.243,5.243,0,0,1-.083.793,7.569,7.569,0,0,1-5.508,6.063,7.644,7.644,0,0,1-4.029-.029,7.647,7.647,0,0,1-3.743-2.4,7.608,7.608,0,0,1-.646-9.033,7.637,7.637,0,0,1,3.364-2.906,7.643,7.643,0,0,1,3.983-.6,7.565,7.565,0,0,1,6.315,5.217,5.277,5.277,0,0,1,.2.774,3.381,3.381,0,0,1,.087.577,2.967,2.967,0,0,1,.029.48" transform="translate(760.868 12029.246)" fill="#263238"/>
    <path id="Trazado_804424" data-name="Trazado 804424" d="M444.227,164.34a5.154,5.154,0,0,0-4.184,2.029c-.031-.015.061-.288.336-.657A3.913,3.913,0,0,1,443.5,164.2c.46.013.731.11.724.144" transform="translate(763.788 12021.961)" fill="#263238"/>
    <path id="Trazado_804425" data-name="Trazado 804425" d="M480.444,155.515a51.15,51.15,0,0,1-7.8.2,51.344,51.344,0,0,1,7.8-.2" transform="translate(749.766 12025.729)" fill="#263238"/>
    <rect id="Rectángulo_374773" data-name="Rectángulo 374773" width="383.907" height="9.438" transform="translate(957.639 12336.682)" fill="#455a64"/>
  </g>
</svg>
