<svg xmlns="http://www.w3.org/2000/svg" xmlns:xlink="http://www.w3.org/1999/xlink" width="505" height="473.405" viewBox="0 0 505 473.405">
  <defs>
    <clipPath id="clip-path">
      <rect id="Rectángulo_374761" data-name="Rectángulo 374761" width="475.942" height="458.113" fill="none"/>
    </clipPath>
    <clipPath id="clip-path-5">
      <rect id="Rectángulo_374741" data-name="Rectángulo 374741" width="12.287" height="25.93" transform="translate(332.223 322.442)" fill="none"/>
    </clipPath>
    <clipPath id="clip-path-7">
      <rect id="Rectángulo_374743" data-name="Rectángulo 374743" width="3.013" height="2.954" transform="translate(454.631 391.854)" fill="none"/>
    </clipPath>
    <clipPath id="clip-path-8">
      <rect id="Rectángulo_374744" data-name="Rectángulo 374744" width="22.667" height="34.29" transform="translate(441.882 391.449)" fill="none"/>
    </clipPath>
    <clipPath id="clip-path-9">
      <rect id="Rectángulo_374745" data-name="Rectángulo 374745" width="3.046" height="3.046" transform="translate(384.196 439.479)" fill="none"/>
    </clipPath>
    <clipPath id="clip-path-10">
      <rect id="Rectángulo_374746" data-name="Rectángulo 374746" width="39.265" height="4.609" transform="translate(350.946 443.594)" fill="none"/>
    </clipPath>
    <clipPath id="clip-path-11">
      <rect id="Rectángulo_374747" data-name="Rectángulo 374747" width="16.755" height="73.717" transform="translate(401.332 171.172)" fill="none"/>
    </clipPath>
    <clipPath id="clip-path-13">
      <rect id="Rectángulo_374749" data-name="Rectángulo 374749" width="30.53" height="29.592" transform="translate(176.39 417.959)" fill="none"/>
    </clipPath>
    <clipPath id="clip-path-14">
      <rect id="Rectángulo_374750" data-name="Rectángulo 374750" width="3.796" height="3.796" transform="translate(194.157 417.166)" fill="none"/>
    </clipPath>
    <clipPath id="clip-path-15">
      <rect id="Rectángulo_374751" data-name="Rectángulo 374751" width="39.045" height="16.035" transform="translate(15.425 426.006)" fill="none"/>
    </clipPath>
    <clipPath id="clip-path-17">
      <rect id="Rectángulo_374753" data-name="Rectángulo 374753" width="41.64" height="17.034" transform="translate(294.787 426.889)" fill="none"/>
    </clipPath>
    <clipPath id="clip-path-18">
      <rect id="Rectángulo_374754" data-name="Rectángulo 374754" width="30.53" height="29.592" transform="translate(134.867 418.822)" fill="none"/>
    </clipPath>
    <clipPath id="clip-path-19">
      <rect id="Rectángulo_374755" data-name="Rectángulo 374755" width="3.796" height="3.796" transform="translate(143.835 418.029)" fill="none"/>
    </clipPath>
    <clipPath id="clip-path-20">
      <rect id="Rectángulo_374756" data-name="Rectángulo 374756" width="50.085" height="31.376" transform="translate(187.788 251.897)" fill="none"/>
    </clipPath>
  </defs>
  <g id="Grupo_1067171" data-name="Grupo 1067171" transform="translate(-915 -9113)">
    <g id="Grupo_1067170" data-name="Grupo 1067170">
      <g id="Grupo_1066347" data-name="Grupo 1066347" transform="translate(749 4470.405)">
        <g id="Grupo_1065354" data-name="Grupo 1065354" transform="translate(215.002 4714.061)">
          <g id="Grupo_171324" data-name="Grupo 171324" transform="translate(227.701)">
            <path id="Trazado_207509" data-name="Trazado 207509" d="M2664.158,1357.9a.589.589,0,0,0-.024-.107,87.973,87.973,0,0,0-25.478-39.759c-10.145-9.031-22.625-16-37.093-20.718-25.409-8.282-52.525-7.9-66.967-4.038a.679.679,0,0,0-.5.85.751.751,0,0,0,.916.471c25.409-6.793,106.173-4.328,127.709,63.576a.751.751,0,0,0,.917.468A.685.685,0,0,0,2664.158,1357.9Z" transform="translate(-2534.064 -1290.642)" fill="#f3f9ff"/>
          </g>
          <g id="Grupo_171325" data-name="Grupo 171325" transform="translate(0 79.852)">
            <path id="Trazado_207510" data-name="Trazado 207510" d="M903.892,1604.272a.828.828,0,0,0-.116.025c-17.132,4.982-31.535,13.161-42.811,24.31a91.188,91.188,0,0,0-21.7,34.44c-8.4,23.439-7.29,48.218-2.7,61.321a.766.766,0,0,0,.942.437.668.668,0,0,0,.491-.849c-8.077-23.055-7.45-96.949,66.231-118.375a.667.667,0,0,0,.488-.85A.756.756,0,0,0,903.892,1604.272Z" transform="translate(-833.026 -1604.264)" fill="#f3f9ff"/>
          </g>
        </g>
        <path id="Rectángulo_374328" data-name="Rectángulo 374328" d="M0,0H364a30,30,0,0,1,30,30V242a0,0,0,0,1,0,0H30A30,30,0,0,1,0,212V0A0,0,0,0,1,0,0Z" transform="translate(246 4874)" fill="#92df98"/>
        <path id="Rectángulo_374329" data-name="Rectángulo 374329" d="M0,0H364a30,30,0,0,1,30,30V242a0,0,0,0,1,0,0H30A30,30,0,0,1,0,212V0A0,0,0,0,1,0,0Z" transform="translate(601 4885) rotate(180)" fill="#92df98"/>
        <path id="Rectángulo_374327" data-name="Rectángulo 374327" d="M0,0H370a30,30,0,0,1,30,30V446a0,0,0,0,1,0,0H30A30,30,0,0,1,0,416V0A0,0,0,0,1,0,0Z" transform="translate(223 4655)" fill="#edfdee"/>
      </g>
      <g id="Grupo_1066405" data-name="Grupo 1066405" transform="translate(944.058 9123.45)">
        <g id="Grupo_1066404" data-name="Grupo 1066404" clip-path="url(#clip-path)">
          <rect id="Rectángulo_374734" data-name="Rectángulo 374734" width="48.653" height="12.871" transform="translate(250.661 141.168)" fill="#fafafa"/>
          <g id="Grupo_1066349" data-name="Grupo 1066349">
            <g id="Grupo_1066348" data-name="Grupo 1066348" clip-path="url(#clip-path)">
              <path id="Trazado_803925" data-name="Trazado 803925" d="M278.741,167.6a1.552,1.552,0,0,1-.015-.234c0-.172-.009-.389-.016-.66q-.014-.909-.036-2.533c-.02-2.222-.048-5.416-.084-9.444l.151.151-48.65.1c.11-.111-.25.247.245-.248v3.292q0,1.637,0,3.248,0,3.222,0,6.331l-.243-.242,34.672.11,10.234.069,2.767.032.724.015a1.934,1.934,0,0,1,.256.016,1.192,1.192,0,0,1-.225.016l-.694.015-2.715.032-10.178.069-34.841.11h-.242V167.6q0-3.1,0-6.331,0-1.611,0-3.248,0-.817,0-1.642v-1.65c.5-.5.14-.137.251-.248l48.65.1h.152v.15c-.036,4.066-.064,7.291-.084,9.534q-.023,1.6-.036,2.5c-.007.26-.012.468-.016.634a.945.945,0,0,1-.015.2" fill="#e0e0e0"/>
              <path id="Trazado_803926" data-name="Trazado 803926" d="M449.831,95.865a1.557,1.557,0,0,1-.015-.234c0-.172-.009-.389-.016-.66q-.014-.909-.036-2.533c-.02-2.222-.048-5.416-.084-9.444l.151.151-48.65.1c.11-.111-.25.247.245-.248v3.292q0,1.636,0,3.248,0,3.222,0,6.331l-.243-.243,34.672.111,10.234.069,2.767.032.724.015a1.933,1.933,0,0,1,.256.016,1.193,1.193,0,0,1-.225.016l-.694.015-2.715.032L436.019,96l-34.841.11h-.242v-.243q0-3.1,0-6.331,0-1.611,0-3.248,0-.818,0-1.642v-1.65c.5-.5.14-.137.251-.248l48.65.1h.152v.151c-.036,4.066-.064,7.291-.083,9.534q-.024,1.6-.037,2.5c-.007.26-.012.468-.016.634a.945.945,0,0,1-.015.2" fill="#e0e0e0"/>
              <path id="Trazado_803927" data-name="Trazado 803927" d="M456.427,82.994a1.506,1.506,0,0,1-.019-.245c0-.185-.011-.409-.019-.682q-.017-.95-.044-2.581c-.023-2.256-.056-5.444-.1-9.363l.178.178-29.23.07c-.223.221.3-.3.246-.247v3.353q0,1.659,0,3.276c0,2.153-.005,4.241-.008,6.241l-.236-.236,20.911.112,6.091.065,1.643.03a4.992,4.992,0,0,1,.587.029,3.427,3.427,0,0,1-.531.029l-1.593.03-6.038.065-21.07.112h-.236v-.237c0-2-.006-4.088-.009-6.241q0-1.615,0-3.276V70.124c-.055.053.47-.471.25-.249l29.23.07h.18l0,.178c-.04,3.965-.073,7.189-.1,9.472q-.029,1.6-.044,2.54a7.589,7.589,0,0,1-.038.859" fill="#e0e0e0"/>
              <rect id="Rectángulo_374735" data-name="Rectángulo 374735" width="48.653" height="12.871" transform="translate(274.459 295.363)" fill="#e0e0e0"/>
              <rect id="Rectángulo_374736" data-name="Rectángulo 374736" width="48.653" height="12.871" transform="translate(309.44 268.935)" fill="#fafafa"/>
              <path id="Trazado_803928" data-name="Trazado 803928" d="M337.52,295.363a1.562,1.562,0,0,1-.015-.234c0-.172-.009-.389-.016-.66q-.014-.909-.036-2.533c-.02-2.222-.048-5.416-.084-9.444l.151.151-48.65.1c.11-.111-.25.247.245-.248v3.292q0,1.637,0,3.248,0,3.222,0,6.331l-.243-.242,34.672.11,10.234.069,2.767.032.724.015a1.929,1.929,0,0,1,.256.016,1.2,1.2,0,0,1-.225.016l-.694.015-2.715.032-10.178.069-34.841.11h-.242v-.243q0-3.105,0-6.331,0-1.611,0-3.248,0-.817,0-1.642v-1.65c.5-.5.14-.137.251-.248l48.65.1h.152v.15c-.036,4.066-.064,7.291-.084,9.534q-.023,1.6-.036,2.5c-.007.26-.012.468-.016.634a.946.946,0,0,1-.015.2" fill="#e0e0e0"/>
              <rect id="Rectángulo_374737" data-name="Rectángulo 374737" width="48.653" height="12.871" transform="translate(48.406 76.599)" fill="#e0e0e0"/>
              <rect id="Rectángulo_374738" data-name="Rectángulo 374738" width="48.653" height="12.871" transform="translate(83.387 50.171)" fill="#fafafa"/>
              <path id="Trazado_803929" data-name="Trazado 803929" d="M111.467,76.6a1.554,1.554,0,0,1-.015-.234c0-.172-.009-.389-.016-.66q-.013-.909-.036-2.533c-.02-2.222-.048-5.416-.084-9.444l.151.151-48.65.1c.11-.111-.25.247.246-.248V67.02q0,1.637,0,3.248,0,3.222-.005,6.331l-.243-.243,34.672.111,10.234.069,2.767.032.724.015a1.932,1.932,0,0,1,.256.016,1.194,1.194,0,0,1-.225.016l-.694.015-2.715.032-10.178.069-34.841.11h-.242V76.6q0-3.1,0-6.331,0-1.611,0-3.248,0-.817,0-1.642v-1.65c.5-.5.14-.137.251-.248l48.65.1h.152v.151c-.036,4.066-.064,7.29-.084,9.534q-.022,1.6-.036,2.5c-.007.26-.012.468-.016.634a.947.947,0,0,1-.015.2" fill="#e0e0e0"/>
              <path id="Trazado_803930" data-name="Trazado 803930" d="M74.852,293.855l12.023,1.974v19.38l-12.023,2.333Z" fill="#f5f5f5"/>
              <path id="Trazado_803931" data-name="Trazado 803931" d="M88.172,317.19h-.4a1.327,1.327,0,0,1-1.326-1.327V294.829a1.326,1.326,0,0,1,1.326-1.326h.4a1.326,1.326,0,0,1,1.325,1.326v21.035a1.326,1.326,0,0,1-1.325,1.326" fill="#f5f5f5"/>
              <path id="Trazado_803932" data-name="Trazado 803932" d="M89.967,309.014H88.88v-9.151h1.087a3.978,3.978,0,0,1,3.979,3.979v1.193a3.978,3.978,0,0,1-3.979,3.979" fill="#f5f5f5"/>
              <path id="Trazado_803933" data-name="Trazado 803933" d="M86.359,315.291c-.165,0-.3-4.348-.3-9.71s.134-9.711.3-9.711.3,4.347.3,9.711-.134,9.71-.3,9.71" fill="#e0e0e0"/>
              <path id="Trazado_803934" data-name="Trazado 803934" d="M89.335,315.423c-.165,0-.3-4.348-.3-9.71s.134-9.711.3-9.711.3,4.347.3,9.711-.134,9.71-.3,9.71" fill="#e0e0e0"/>
              <path id="Trazado_803935" data-name="Trazado 803935" d="M31.7,369.495V271.1a21.577,21.577,0,0,1,43.155,0v98.395Z" fill="#f5f5f5"/>
              <path id="Trazado_803936" data-name="Trazado 803936" d="M76.892,285.376H30.085a5.187,5.187,0,0,1-5.187-5.187v-1.555a5.186,5.186,0,0,1,5.187-5.186H76.892a5.187,5.187,0,0,1,5.187,5.186v1.555a5.187,5.187,0,0,1-5.187,5.187" fill="#f5f5f5"/>
              <path id="Trazado_803937" data-name="Trazado 803937" d="M46.615,251.079l-.043-.854a6.18,6.18,0,0,1,5.808-6.531l1.68-.085a6.181,6.181,0,0,1,6.435,5.915L60.569,251Z" fill="#f5f5f5"/>
              <path id="Trazado_803938" data-name="Trazado 803938" d="M55.614,244.666H51.519v-2.018a1.436,1.436,0,0,1,1.436-1.436h1.223a1.436,1.436,0,0,1,1.436,1.436Z" fill="#f5f5f5"/>
              <path id="Trazado_803939" data-name="Trazado 803939" d="M74.852,273.26c0,.165-9.642.3-21.533.3s-21.534-.134-21.534-.3,9.639-.3,21.534-.3,21.533.134,21.533.3" fill="#e0e0e0"/>
              <path id="Trazado_803940" data-name="Trazado 803940" d="M47.217,251.88c.037.091-1.242.606-3.183,1.656a21.789,21.789,0,0,0-6.624,5.334,19.1,19.1,0,0,0-3.54,7.7c-.462,2.151-.364,3.535-.471,3.537a2.7,2.7,0,0,1-.131-.966,13.228,13.228,0,0,1,.186-2.649,17.82,17.82,0,0,1,3.488-7.993,20,20,0,0,1,6.9-5.337,23.4,23.4,0,0,1,2.438-1.026,2.911,2.911,0,0,1,.939-.254" fill="#fafafa"/>
              <path id="Trazado_803941" data-name="Trazado 803941" d="M60.569,250.628c-.059.213-3.114-1.02-7.049-1.082-3.943-.04-6.988,1.238-7.047,1.028a5.931,5.931,0,0,1,1.953-.856,16.486,16.486,0,0,1,5.1-.77,17.665,17.665,0,0,1,5.085.837,6.153,6.153,0,0,1,1.958.843" fill="#e0e0e0"/>
              <path id="Trazado_803942" data-name="Trazado 803942" d="M56.045,243.986c-.066.161-1.065-.132-2.315-.155-1.25-.039-2.262.205-2.32.041-.066-.143.953-.678,2.335-.639s2.373.614,2.3.753" fill="#e0e0e0"/>
              <path id="Trazado_803943" data-name="Trazado 803943" d="M68.574,308.285a14.909,14.909,0,1,1-14.909-14.909,14.909,14.909,0,0,1,14.909,14.909" fill="#e0e0e0"/>
              <path id="Trazado_803944" data-name="Trazado 803944" d="M68.574,305.7A14.909,14.909,0,1,1,53.665,290.79,14.909,14.909,0,0,1,68.574,305.7" fill="#f5f5f5"/>
              <path id="Trazado_803945" data-name="Trazado 803945" d="M68.574,305.7A27.415,27.415,0,0,0,68,302.087a14.858,14.858,0,0,0-5.438-8.07,14.646,14.646,0,0,0-13.877-2.061,14.67,14.67,0,0,0-6.785,5.1,14.559,14.559,0,0,0,0,17.276,14.67,14.67,0,0,0,6.786,5.106A14.771,14.771,0,0,0,68,309.31a27.418,27.418,0,0,0,.579-3.611,5.633,5.633,0,0,1,.012.954,6.708,6.708,0,0,1-.088,1.155,10.386,10.386,0,0,1-.277,1.559,15.019,15.019,0,0,1-11.758,11.221,15.171,15.171,0,0,1-7.971-.627,15.178,15.178,0,0,1-7.071-5.277,15.1,15.1,0,0,1,0-17.972,15.183,15.183,0,0,1,7.07-5.275,15.167,15.167,0,0,1,7.97-.627,15.018,15.018,0,0,1,11.759,11.22,10.4,10.4,0,0,1,.277,1.56,6.708,6.708,0,0,1,.088,1.155,5.633,5.633,0,0,1-.012.954" fill="#e0e0e0"/>
              <path id="Trazado_803946" data-name="Trazado 803946" d="M59.783,302.561a6.875,6.875,0,1,1-9.256-2.98,6.876,6.876,0,0,1,9.256,2.98" fill="#e0e0e0"/>
              <path id="Trazado_803947" data-name="Trazado 803947" d="M58.364,305.7a4.7,4.7,0,1,1-4.7-4.7,4.7,4.7,0,0,1,4.7,4.7" fill="#f5f5f5"/>
              <path id="Trazado_803948" data-name="Trazado 803948" d="M58.364,305.7c-.056,0-.055-.418-.26-1.119a4.692,4.692,0,0,0-1.724-2.448,4.442,4.442,0,1,0,0,7.133,4.694,4.694,0,0,0,1.724-2.447c.2-.7.2-1.121.26-1.119a2.437,2.437,0,0,1-.034,1.175,4.678,4.678,0,0,1-1.693,2.728,4.894,4.894,0,0,1-4.667.77,4.957,4.957,0,0,1,0-9.346,4.889,4.889,0,0,1,4.666.77,4.673,4.673,0,0,1,1.694,2.727,2.441,2.441,0,0,1,.034,1.176" fill="#e0e0e0"/>
              <path id="Trazado_803949" data-name="Trazado 803949" d="M74.852,285.535c0,.165-9.741.3-21.754.3s-21.756-.134-21.756-.3,9.739-.3,21.756-.3,21.754.134,21.754.3" fill="#e0e0e0"/>
              <path id="Trazado_803950" data-name="Trazado 803950" d="M31.341,274.8a12.942,12.942,0,0,1-1.407.377,5.3,5.3,0,0,0-3.754,5.085,12.857,12.857,0,0,1,.054,1.455c-.062.028-.378-.486-.477-1.438a5.123,5.123,0,0,1,4.069-5.511c.938-.186,1.523-.036,1.515.032" fill="#fafafa"/>
              <path id="Trazado_803951" data-name="Trazado 803951" d="M46.763,294.414c.052.093-.985.605-2.33,1.831a12.768,12.768,0,0,0-3.807,12.867c.462,1.761,1.053,2.754.959,2.8-.032.019-.214-.207-.479-.657a10.31,10.31,0,0,1-.887-2.029,12.283,12.283,0,0,1,3.937-13.305A10.351,10.351,0,0,1,46,294.7c.468-.234.743-.324.76-.291" fill="#fafafa"/>
              <path id="Trazado_803952" data-name="Trazado 803952" d="M74.852,326.119c-.165,0-.3-9.143-.3-20.419s.134-20.421.3-20.421.3,9.141.3,20.421-.134,20.419-.3,20.419" fill="#e0e0e0"/>
              <path id="Trazado_803953" data-name="Trazado 803953" d="M17.691,381.558v-4.769a3.576,3.576,0,0,1,3.576-3.576v-1.531a6.814,6.814,0,0,1,6.814-6.814H76.443c3.764,0,6.76,4.253,6.76,8.016h1.719c1.975,0,3.581.4,3.581,2.375v6.3Z" fill="#e0e0e0"/>
              <path id="Trazado_803954" data-name="Trazado 803954" d="M84.922,372.884c0,.165-14.29.3-31.914.3s-31.916-.134-31.916-.3,14.287-.3,31.916-.3,31.914.134,31.914.3" fill="#f5f5f5"/>
              <path id="Trazado_803955" data-name="Trazado 803955" d="M31.785,317.014,19.762,315.04V295.66l12.023-2.333Z" fill="#f5f5f5"/>
              <path id="Trazado_803956" data-name="Trazado 803956" d="M18.466,293.679h.4a1.327,1.327,0,0,1,1.326,1.327V316.04a1.326,1.326,0,0,1-1.326,1.326h-.4a1.327,1.327,0,0,1-1.327-1.326V295.006a1.327,1.327,0,0,1,1.327-1.327" fill="#f5f5f5"/>
              <path id="Trazado_803957" data-name="Trazado 803957" d="M16.67,301.856h1.087v9.151H16.67a3.978,3.978,0,0,1-3.979-3.979v-1.193a3.978,3.978,0,0,1,3.979-3.979" fill="#f5f5f5"/>
              <path id="Trazado_803958" data-name="Trazado 803958" d="M20.278,295.578c.165,0,.3,4.348.3,9.71s-.135,9.711-.3,9.711-.3-4.347-.3-9.711.134-9.71.3-9.71" fill="#e0e0e0"/>
              <path id="Trazado_803959" data-name="Trazado 803959" d="M17.3,295.447c.165,0,.3,4.348.3,9.71s-.134,9.711-.3,9.711-.3-4.347-.3-9.711.134-9.71.3-9.71" fill="#e0e0e0"/>
              <path id="Trazado_803960" data-name="Trazado 803960" d="M31.789,338.162c-.166,0-.3-11.555-.3-25.806s.134-25.809.3-25.809.3,11.553.3,25.809-.134,25.806-.3,25.806" fill="#e0e0e0"/>
              <path id="Trazado_803961" data-name="Trazado 803961" d="M124.009,426.684c.051.135-12.357,4.958-27.71,10.772s-27.847,10.42-27.9,10.285,12.354-4.956,27.713-10.772,27.844-10.419,27.9-10.285" fill="#e0e0e0"/>
              <path id="Trazado_803962" data-name="Trazado 803962" d="M273.479,429.278c.059.131-12.43,5.82-27.89,12.7s-28.046,12.36-28.105,12.228,12.428-5.818,27.893-12.7,28.044-12.359,28.1-12.228" fill="#e0e0e0"/>
              <path id="Trazado_803963" data-name="Trazado 803963" d="M440.911,423.892a2.811,2.811,0,0,1-.447.44l-1.35,1.184c-1.175,1.025-2.909,2.467-5.082,4.214-4.342,3.5-10.5,8.143-17.562,12.885s-13.71,8.663-18.594,11.352c-2.441,1.345-4.434,2.4-5.828,3.1l-1.608.8a2.816,2.816,0,0,1-.577.246,2.882,2.882,0,0,1,.528-.339l1.562-.884c1.363-.753,3.328-1.857,5.743-3.242,4.831-2.768,11.424-6.736,18.484-11.464s13.228-9.323,17.624-12.741c2.2-1.707,3.967-3.105,5.181-4.081l1.411-1.108a2.759,2.759,0,0,1,.515-.36" fill="#e0e0e0"/>
              <path id="Trazado_803964" data-name="Trazado 803964" d="M81.631,180.931a1.557,1.557,0,0,1-.015-.234c0-.172-.009-.389-.016-.66q-.013-.909-.036-2.533c-.02-2.222-.048-5.416-.084-9.444l.151.151-48.65.1c.11-.111-.25.247.245-.248v3.292q0,1.636,0,3.248,0,3.222,0,6.331l-.243-.242,34.672.11,10.234.069,2.767.032.724.015a1.932,1.932,0,0,1,.256.016,1.194,1.194,0,0,1-.225.016l-.694.015L78,180.994l-10.178.069-34.841.11h-.242v-.243q0-3.105,0-6.331,0-1.611,0-3.248,0-.817,0-1.642v-1.65c.5-.5.14-.137.251-.248l48.65.1h.152v.15c-.036,4.066-.064,7.291-.084,9.534q-.022,1.6-.036,2.5c-.007.26-.012.468-.016.634a.946.946,0,0,1-.015.2" fill="#e0e0e0"/>
              <path id="Trazado_803965" data-name="Trazado 803965" d="M240.46,49.077a1.553,1.553,0,0,1-.015-.234c0-.172-.009-.389-.016-.66q-.014-.909-.036-2.533c-.02-2.222-.048-5.416-.084-9.444l.151.151-48.65.1c.11-.11-.25.247.245-.248V39.5q0,1.636,0,3.248,0,3.222,0,6.331l-.242-.242,34.671.11,10.234.069,2.767.032.724.015a1.932,1.932,0,0,1,.256.016,1.194,1.194,0,0,1-.225.016l-.694.015-2.715.032-10.178.069-34.84.111h-.243v-.243q0-3.1,0-6.331,0-1.611,0-3.248V36.206c.495-.5.139-.137.25-.248l48.65.1h.152v.15c-.036,4.066-.064,7.291-.083,9.534q-.024,1.6-.037,2.5c-.007.26-.012.468-.016.634a.948.948,0,0,1-.015.2" fill="#e0e0e0"/>
              <path id="Trazado_803966" data-name="Trazado 803966" d="M247.057,36.206a1.5,1.5,0,0,1-.019-.245c0-.185-.011-.409-.019-.682q-.017-.949-.044-2.581c-.023-2.256-.056-5.444-.1-9.363l.178.178-29.23.07c-.223.221.3-.3.246-.247v3.353q0,1.659,0,3.276c0,2.153-.006,4.241-.009,6.241l-.236-.236,20.911.112,6.091.065,1.643.03a4.972,4.972,0,0,1,.587.029,3.427,3.427,0,0,1-.531.029l-1.593.03-6.038.065-21.07.112h-.236v-.237c0-2-.006-4.088-.009-6.241q0-1.615,0-3.276,0-.829,0-1.669V23.336c-.055.053.47-.47.25-.249l29.23.07h.18l0,.178c-.04,3.965-.073,7.189-.1,9.472q-.027,1.6-.044,2.54a7.589,7.589,0,0,1-.038.859" fill="#e0e0e0"/>
              <path id="Trazado_803967" data-name="Trazado 803967" d="M392.126,182.892a1.554,1.554,0,0,1-.015-.234c0-.172-.009-.389-.016-.66q-.014-.909-.036-2.533c-.02-2.222-.048-5.416-.084-9.444l.151.151-48.65.1c.11-.11-.25.247.245-.248v3.292q0,1.637,0,3.248,0,3.222,0,6.331l-.243-.242,34.672.11,10.234.069,2.767.032.724.015a1.931,1.931,0,0,1,.256.016,1.089,1.089,0,0,1-.225.016l-.694.015-2.715.032-10.178.069-34.841.111h-.242v-.243q0-3.1,0-6.331,0-1.611,0-3.248,0-.817,0-1.642v-1.65c.5-.5.14-.137.251-.248l48.65.1h.152v.15c-.036,4.066-.064,7.291-.084,9.534q-.022,1.6-.036,2.5c-.007.26-.012.468-.016.634a.947.947,0,0,1-.015.2" fill="#e0e0e0"/>
              <path id="Trazado_803968" data-name="Trazado 803968" d="M398.722,170.021a1.508,1.508,0,0,1-.019-.245c-.005-.185-.011-.409-.019-.682q-.016-.949-.044-2.581c-.023-2.257-.056-5.444-.1-9.363l.178.178-29.23.07c-.223.221.3-.3.246-.247V160.5q0,1.659,0,3.276c0,2.153-.006,4.241-.009,6.241l-.236-.236,20.911.112,6.091.065,1.643.03a4.973,4.973,0,0,1,.587.029,3.425,3.425,0,0,1-.531.029l-1.593.03-6.038.065-21.07.112h-.236v-.237c0-2-.006-4.088-.009-6.241q0-1.615,0-3.276,0-.829,0-1.669v-1.684c-.055.053.47-.471.25-.249l29.23.07h.18l0,.178c-.04,3.965-.073,7.189-.1,9.472q-.027,1.6-.044,2.54a7.572,7.572,0,0,1-.038.859" fill="#e0e0e0"/>
            </g>
          </g>
          <g id="Grupo_1066351" data-name="Grupo 1066351">
            <g id="Grupo_1066350" data-name="Grupo 1066350" clip-path="url(#clip-path)">
              <path id="Trazado_803969" data-name="Trazado 803969" d="M475.942,399.362c0,.144-106.552.228-237.959.189C106.529,399.511,0,399.362,0,399.218s106.529-.228,237.983-.188c131.407.04,237.959.188,237.959.332" fill="#263238"/>
              <path id="Trazado_803970" data-name="Trazado 803970" d="M475.942,382.1c0,.144-106.552.228-237.959.188C106.529,382.244,0,382.1,0,381.951s106.529-.228,237.983-.188c131.407.039,237.959.188,237.959.332" fill="#263238"/>
              <path id="Trazado_803971" data-name="Trazado 803971" d="M21.232,399.919a81.047,81.047,0,0,1-.26-9.19,81.032,81.032,0,0,1,.26-9.19,81.753,81.753,0,0,1,.259,9.19,81.768,81.768,0,0,1-.259,9.19" fill="#263238"/>
              <path id="Trazado_803972" data-name="Trazado 803972" d="M75.954,399.919a81.326,81.326,0,0,1-.26-9.19,81.312,81.312,0,0,1,.26-9.19,81.315,81.315,0,0,1,.26,9.19,81.33,81.33,0,0,1-.26,9.19" fill="#263238"/>
              <path id="Trazado_803973" data-name="Trazado 803973" d="M130.676,399.919a81.33,81.33,0,0,1-.26-9.19,81.315,81.315,0,0,1,.26-9.19,81.308,81.308,0,0,1,.26,9.19,81.323,81.323,0,0,1-.26,9.19" fill="#263238"/>
              <path id="Trazado_803974" data-name="Trazado 803974" d="M185.4,399.919a81.33,81.33,0,0,1-.26-9.19,81.315,81.315,0,0,1,.26-9.19,81.315,81.315,0,0,1,.26,9.19,81.33,81.33,0,0,1-.26,9.19" fill="#263238"/>
              <path id="Trazado_803975" data-name="Trazado 803975" d="M240.121,399.919a81.327,81.327,0,0,1-.26-9.19,81.313,81.313,0,0,1,.26-9.19,81.315,81.315,0,0,1,.26,9.19,81.33,81.33,0,0,1-.26,9.19" fill="#263238"/>
              <path id="Trazado_803976" data-name="Trazado 803976" d="M294.844,399.919a81.336,81.336,0,0,1-.26-9.19,81.322,81.322,0,0,1,.26-9.19,81.308,81.308,0,0,1,.26,9.19,81.323,81.323,0,0,1-.26,9.19" fill="#263238"/>
              <path id="Trazado_803977" data-name="Trazado 803977" d="M357.12,399.919a81.332,81.332,0,0,1-.26-9.19,81.317,81.317,0,0,1,.26-9.19,81.308,81.308,0,0,1,.26,9.19,81.323,81.323,0,0,1-.26,9.19" fill="#263238"/>
              <path id="Trazado_803978" data-name="Trazado 803978" d="M419.4,399.919a81.323,81.323,0,0,1-.26-9.19,81.308,81.308,0,0,1,.26-9.19,81.317,81.317,0,0,1,.26,9.19,81.332,81.332,0,0,1-.26,9.19" fill="#263238"/>
            </g>
          </g>
          <g id="Grupo_1066356" data-name="Grupo 1066356">
            <g id="Grupo_1066355" data-name="Grupo 1066355" clip-path="url(#clip-path)">
              <path id="Trazado_803979" data-name="Trazado 803979" d="M342.779,346.953c-1.7,2.3-4.875,1.441-6.316-.029s-2.013-3.561-2.53-5.555c-1.182-4.554-2.368-9.331-1.28-13.908a7.7,7.7,0,0,1,1.87-3.723,4.025,4.025,0,0,1,3.847-1.169c1.6.467,2.556,2.07,3.24,3.588a33.073,33.073,0,0,1,2.892,14.27,11.461,11.461,0,0,1-1.723,6.526" fill="#74c67b"/>
              <g id="Grupo_1066354" data-name="Grupo 1066354" transform="translate(0)" opacity="0.2">
                <g id="Grupo_1066353" data-name="Grupo 1066353">
                  <g id="Grupo_1066352" data-name="Grupo 1066352" clip-path="url(#clip-path-5)">
                    <path id="Trazado_803980" data-name="Trazado 803980" d="M342.779,346.953c-1.7,2.3-4.875,1.441-6.316-.029s-2.013-3.561-2.53-5.555c-1.182-4.554-2.368-9.331-1.28-13.908a7.7,7.7,0,0,1,1.87-3.723,4.025,4.025,0,0,1,3.847-1.169c1.6.467,2.556,2.07,3.24,3.588a33.073,33.073,0,0,1,2.892,14.27,11.461,11.461,0,0,1-1.723,6.526"/>
                  </g>
                </g>
              </g>
              <path id="Trazado_803981" data-name="Trazado 803981" d="M336.314,358.666a14.231,14.231,0,0,0-8.8-1.3,7.329,7.329,0,0,0-4.412,1.832c-1.121,1.174-1.384,3.286-.16,4.352a4.177,4.177,0,0,0,2.731.77c2.335.035,4.935-.308,6.763,1.145,1.042.829,1.715,2.18,2.977,2.607a3.007,3.007,0,0,0,3.346-1.385,5.137,5.137,0,0,0,.474-3.782,5.791,5.791,0,0,0-2.919-4.234" fill="#74c67b"/>
              <path id="Trazado_803982" data-name="Trazado 803982" d="M347.2,350.436a8.536,8.536,0,0,1-1.121-7.887,15.135,15.135,0,0,1,4.829-6.624,25.048,25.048,0,0,1,8.457-4.695,8.894,8.894,0,0,1,3.763-.538,3.935,3.935,0,0,1,3.093,1.985c.832,1.7-.061,3.7-1.014,5.33a63.512,63.512,0,0,1-5.689,8.186c-1.7,2.071-3.629,4.106-6.153,5s-5.116.708-6.4-1.059" fill="#74c67b"/>
              <path id="Trazado_803983" data-name="Trazado 803983" d="M341.958,382.331a5.048,5.048,0,0,1-.12-1.07c-.056-.777-.125-1.753-.207-2.915a41.739,41.739,0,0,0-.542-4.283,32.922,32.922,0,0,0-1.417-5.075,18.562,18.562,0,0,0-2.451-4.623,9.607,9.607,0,0,0-3.179-2.788,9.072,9.072,0,0,0-2.715-.924,5.153,5.153,0,0,1-1.057-.182,5.041,5.041,0,0,1,1.08.012,8.277,8.277,0,0,1,2.835.818,9.58,9.58,0,0,1,3.356,2.816,18.134,18.134,0,0,1,2.543,4.717,30.8,30.8,0,0,1,1.4,5.157,35.9,35.9,0,0,1,.454,4.335c.059,1.237.068,2.238.067,2.93a5,5,0,0,1-.051,1.075" fill="#263238"/>
              <path id="Trazado_803984" data-name="Trazado 803984" d="M341.816,380.088a2.131,2.131,0,0,1-.016-.5c.011-.372.025-.84.041-1.414.036-1.227.082-3,.074-5.2.007-4.389-.211-10.453-.765-17.126s-1.375-12.689-2.149-17.008c-.182-1.082-.368-2.057-.544-2.91s-.31-1.593-.451-2.19c-.119-.562-.217-1.02-.294-1.383a2.224,2.224,0,0,1-.074-.49,2.015,2.015,0,0,1,.16.468c.1.358.222.81.375,1.365.166.593.334,1.326.524,2.179s.408,1.823.609,2.9a160.556,160.556,0,0,1,2.283,17.027c.555,6.688.724,12.768.637,17.165-.031,2.2-.125,3.977-.213,5.2-.051.573-.092,1.04-.124,1.411a2.088,2.088,0,0,1-.073.489" fill="#263238"/>
              <path id="Trazado_803985" data-name="Trazado 803985" d="M342.1,368.377a9.4,9.4,0,0,1,.049-1.477c.08-.947.246-2.316.558-3.989a52.574,52.574,0,0,1,1.455-5.8,51.7,51.7,0,0,1,2.62-6.835,36.747,36.747,0,0,1,7.453-10.96,18.357,18.357,0,0,1,1.726-1.522c.264-.211.5-.423.735-.59l.666-.433a9.494,9.494,0,0,1,1.264-.763,44.066,44.066,0,0,0-4.171,3.528,38.727,38.727,0,0,0-7.274,10.925,55.159,55.159,0,0,0-2.632,6.771c-.7,2.125-1.172,4.085-1.537,5.736-.349,1.655-.561,3.009-.692,3.947a9.587,9.587,0,0,1-.22,1.458" fill="#263238"/>
            </g>
          </g>
          <g id="Grupo_1066373" data-name="Grupo 1066373">
            <g id="Grupo_1066372" data-name="Grupo 1066372" clip-path="url(#clip-path)">
              <path id="Trazado_803986" data-name="Trazado 803986" d="M398.689,161.435h0A10.975,10.975,0,0,1,388.128,151l-.474-9.754s-9.083-.929-9.666-9.931-.105-29.768-.105-29.768a31.349,31.349,0,0,1,31.664,2.307l1.389.957-.873,45.865a10.975,10.975,0,0,1-11.374,10.759" fill="#b78876"/>
              <path id="Trazado_803987" data-name="Trazado 803987" d="M387.633,141.117a20.977,20.977,0,0,0,11.569-3.953s-2.438,6.629-11.469,6.288Z" fill="#aa6550"/>
              <path id="Trazado_803988" data-name="Trazado 803988" d="M410.315,114.2c.15-.075,6.093-2.155,6.219,4.014s-6.093,5.022-6.107,4.846-.112-8.86-.112-8.86" fill="#b78876"/>
              <path id="Trazado_803989" data-name="Trazado 803989" d="M412.264,120.684c.027-.02.109.073.292.153a1.078,1.078,0,0,0,.8,0,2.662,2.662,0,0,0,1.182-2.411,3.548,3.548,0,0,0-.333-1.532,1.24,1.24,0,0,0-.825-.809.547.547,0,0,0-.628.307c-.079.175-.037.3-.07.308-.017.016-.135-.1-.09-.356a.686.686,0,0,1,.235-.392.814.814,0,0,1,.591-.169,1.511,1.511,0,0,1,1.142.934,3.656,3.656,0,0,1,.408,1.712,2.791,2.791,0,0,1-1.514,2.695,1.151,1.151,0,0,1-.986-.143c-.194-.148-.229-.285-.208-.3" fill="#aa6550"/>
              <path id="Trazado_803990" data-name="Trazado 803990" d="M382.88,115.778a1.288,1.288,0,0,0,1.309,1.233,1.233,1.233,0,0,0,1.265-1.229,1.289,1.289,0,0,0-1.307-1.234,1.233,1.233,0,0,0-1.267,1.23" fill="#263238"/>
              <path id="Trazado_803991" data-name="Trazado 803991" d="M380.252,114.129c.168.159,1.1-.613,2.49-.682,1.382-.088,2.435.571,2.576.393.07-.079-.108-.373-.568-.672a3.531,3.531,0,0,0-2.073-.522,3.4,3.4,0,0,0-1.971.752c-.408.349-.536.66-.454.731" fill="#263238"/>
              <path id="Trazado_803992" data-name="Trazado 803992" d="M396.4,115.085a1.288,1.288,0,0,0,1.308,1.233,1.233,1.233,0,0,0,1.266-1.229,1.289,1.289,0,0,0-1.308-1.234,1.232,1.232,0,0,0-1.266,1.23" fill="#263238"/>
              <path id="Trazado_803993" data-name="Trazado 803993" d="M393.872,113.675c.169.159,1.107-.613,2.49-.682,1.382-.088,2.435.571,2.577.393.069-.079-.107-.373-.568-.672a3.533,3.533,0,0,0-2.073-.522,3.392,3.392,0,0,0-1.971.752c-.408.349-.537.66-.455.731" fill="#263238"/>
              <path id="Trazado_803994" data-name="Trazado 803994" d="M389.386,124.2a9.223,9.223,0,0,0-2.27-.288c-.355-.018-.693-.071-.765-.309a1.8,1.8,0,0,1,.181-1.06l.9-2.746c1.251-3.908,2.137-7.115,1.979-7.164a46.438,46.438,0,0,0-2.551,6.988q-.45,1.444-.859,2.76a2.048,2.048,0,0,0-.111,1.4.887.887,0,0,0,.608.486,2.4,2.4,0,0,0,.6.052,9.024,9.024,0,0,0,2.279-.116" fill="#263238"/>
              <path id="Trazado_803995" data-name="Trazado 803995" d="M393.23,108.268c.156.37,1.529.119,3.163.229,1.637.079,2.971.486,3.169.137.088-.167-.159-.509-.708-.845a5.506,5.506,0,0,0-4.824-.279c-.583.271-.868.584-.8.758" fill="#263238"/>
              <path id="Trazado_803996" data-name="Trazado 803996" d="M380.551,110.1c.26.3,1.2-.075,2.342-.15,1.144-.116,2.129.1,2.335-.24.09-.165-.079-.472-.519-.747a3.4,3.4,0,0,0-3.769.314c-.388.344-.5.675-.389.823" fill="#263238"/>
              <path id="Trazado_803997" data-name="Trazado 803997" d="M373.2,96.09a3.328,3.328,0,0,1,1.072-3.035,2.362,2.362,0,0,1,3.068.068,2.756,2.756,0,0,1,2.192-3.462c1.464-.17,2.775.874,4.215,1.189a6.691,6.691,0,0,0,4.18-.706c1.3-.606,2.512-1.413,3.836-1.976a11.533,11.533,0,0,1,15.087,5.992,5.12,5.12,0,0,1,5.531,1.769,8.4,8.4,0,0,1,1.594,5.843,18.812,18.812,0,0,1-.818,4.1c.006.115.024.229.028.345.166,4.958-.089,10.8-2.2,10.947-3.68.25-3.166-6.736-3.166-6.736-4.612-1.51-3.283-8.37-4.467-9.338s-3.673-3.232-12.883,2.1a18.367,18.367,0,0,1-11.165,1.8c-.079-.013-.159-.021-.238-.036l-.055-.008c-.03-.006-.051-.021-.08-.028a8.542,8.542,0,0,1-2.481-.9,4.8,4.8,0,0,1-2.117-2.119,2.63,2.63,0,0,1,.369-2.847,5.777,5.777,0,0,1-1.5-2.96" fill="#263238"/>
              <path id="Trazado_803998" data-name="Trazado 803998" d="M388.434,128.523a6.188,6.188,0,0,0,.885,1.532,2.1,2.1,0,0,0,1.531.785,1.877,1.877,0,0,0,1.541-.948,3,3,0,0,0,.348-1.827c-.056-.567-.352-1.233-.92-1.27a1.428,1.428,0,0,0-.679.188l-2.908,1.361" fill="#aa6550"/>
              <path id="Trazado_803999" data-name="Trazado 803999" d="M389.749,130.906a4.3,4.3,0,0,0,1.574-.279,2.263,2.263,0,0,0,1.141-1.151,2.389,2.389,0,0,0-.062-1.946,2.12,2.12,0,0,0-.283-.43c-.124-.118-.1-.113-.229-.088s-.31.142-.466.212l-.478.224c-.622.291-1.186.546-1.663.753a5.386,5.386,0,0,1-1.593.572,5.447,5.447,0,0,1,1.427-.909c.456-.25,1-.54,1.613-.855l.47-.24a5.093,5.093,0,0,1,.531-.252.7.7,0,0,1,.442-.011.827.827,0,0,1,.341.242,2.544,2.544,0,0,1,.363.546,2.789,2.789,0,0,1,.034,2.382,2.541,2.541,0,0,1-1.444,1.3,2.4,2.4,0,0,1-1.285.118c-.3-.062-.443-.156-.433-.186" fill="#263238"/>
              <path id="Trazado_804000" data-name="Trazado 804000" d="M403.6,100.23a5.591,5.591,0,0,0-.052-1.09,4.272,4.272,0,0,0-1.542-2.457,5.736,5.736,0,0,0-4.126-1.126,17.671,17.671,0,0,0-5.207,1.454c-.9.351-1.8.688-2.686.934a14.177,14.177,0,0,1-2.618.459,14.362,14.362,0,0,1-4.468-.351,13.833,13.833,0,0,1-2.839-1.033,8.185,8.185,0,0,1-.72-.394,1.224,1.224,0,0,1-.238-.159c.013-.025.354.174,1,.46a15.374,15.374,0,0,0,2.838.942,14.573,14.573,0,0,0,4.406.291,14.279,14.279,0,0,0,2.568-.465c.873-.245,1.755-.581,2.66-.931a17.412,17.412,0,0,1,5.287-1.451,5.875,5.875,0,0,1,4.261,1.226,4.261,4.261,0,0,1,1.522,2.584,2.466,2.466,0,0,1-.048,1.107" fill="#455a64"/>
              <path id="Trazado_804001" data-name="Trazado 804001" d="M411.4,115.086c-.008.005-.052-.059-.128-.183s-.184-.312-.311-.56a11.6,11.6,0,0,1-.834-2.2,12.346,12.346,0,0,1-.415-3.47,30.961,30.961,0,0,1,.585-4.227,8.212,8.212,0,0,0-.209-4.14,4.2,4.2,0,0,0-.945-1.524A3.148,3.148,0,0,0,407.808,98a2.958,2.958,0,0,0-2.22.173,4.171,4.171,0,0,0-.666.521,1.718,1.718,0,0,1,.614-.61,2.992,2.992,0,0,1,2.323-.265,3.318,3.318,0,0,1,1.443.805,4.375,4.375,0,0,1,1.019,1.6,8.288,8.288,0,0,1,.242,4.266,33.353,33.353,0,0,0-.6,4.194,12.734,12.734,0,0,0,.352,3.416,13.408,13.408,0,0,0,.746,2.2,8.137,8.137,0,0,1,.345.787" fill="#455a64"/>
              <path id="Trazado_804002" data-name="Trazado 804002" d="M404.429,99.457a1.879,1.879,0,0,1-.015-.362c0-.263-.009-.607-.016-1.035a11.974,11.974,0,0,0-.612-3.719,6.629,6.629,0,0,0-1.322-2.21,4.662,4.662,0,0,0-2.5-1.469,6.112,6.112,0,0,0-3.216.3,14.956,14.956,0,0,0-3.148,1.63,26.5,26.5,0,0,1-3.11,1.812,9.8,9.8,0,0,1-3.26.835,10.439,10.439,0,0,1-3.036-.213,11.7,11.7,0,0,1-2.5-.88,10.033,10.033,0,0,1-3.028-2.322,6.193,6.193,0,0,1-.632-.826,1.811,1.811,0,0,1-.191-.307,1.828,1.828,0,0,1,.234.276,7.924,7.924,0,0,0,.666.787,10.383,10.383,0,0,0,3.033,2.223,11.748,11.748,0,0,0,2.464.834,10.352,10.352,0,0,0,2.971.184,9.637,9.637,0,0,0,3.17-.827,27,27,0,0,0,3.077-1.8,14.956,14.956,0,0,1,3.206-1.652,6.329,6.329,0,0,1,3.351-.294,4.87,4.87,0,0,1,2.611,1.56,6.762,6.762,0,0,1,1.336,2.295,11.471,11.471,0,0,1,.539,3.781c0,.451-.02.8-.035,1.037a1.781,1.781,0,0,1-.038.361" fill="#455a64"/>
              <path id="Trazado_804003" data-name="Trazado 804003" d="M390.513,439.306l12.8-126.6-31.33-2.417L372.22,437.2Z" fill="#b78876"/>
              <path id="Trazado_804004" data-name="Trazado 804004" d="M408.518,310.275l-4.564,32.085,55.023,47.723-11.8,13.667-61.7-41.212c-5.024-3.514-10.767-10.426-10.441-16.548l2.143-40.278Z" fill="#b78876"/>
              <path id="Trazado_804005" data-name="Trazado 804005" d="M444.772,402.406h0s-5.037,21.058-2.05,23.333l21.827-32.611-8.5-5.752-.527,1.382a29.151,29.151,0,0,1-10.751,13.648" fill="#b2bdc1"/>
              <g id="Grupo_1066359" data-name="Grupo 1066359" opacity="0.6">
                <g id="Grupo_1066358" data-name="Grupo 1066358">
                  <g id="Grupo_1066357" data-name="Grupo 1066357" clip-path="url(#clip-path-7)">
                    <path id="Trazado_804006" data-name="Trazado 804006" d="M455.124,392.216a1.6,1.6,0,0,1,2.136.1,1.541,1.541,0,0,1-.077,2.119,1.69,1.69,0,0,1-2.261-.114,1.6,1.6,0,0,1,.324-2.195" fill="#fff"/>
                  </g>
                </g>
              </g>
              <g id="Grupo_1066362" data-name="Grupo 1066362" opacity="0.6">
                <g id="Grupo_1066361" data-name="Grupo 1066361">
                  <g id="Grupo_1066360" data-name="Grupo 1066360" clip-path="url(#clip-path-8)">
                    <path id="Trazado_804007" data-name="Trazado 804007" d="M464.549,393.128l-2.7-1.679-19.916,31.9s-.34,1.874.792,2.395Z" fill="#fff"/>
                  </g>
                </g>
              </g>
              <path id="Trazado_804008" data-name="Trazado 804008" d="M444.252,402.823c.163.1.768-.647,1.8-1.087,1.025-.468,1.985-.411,2.02-.6.067-.168-1.044-.567-2.29-.012s-1.7,1.635-1.535,1.7" fill="#263238"/>
              <path id="Trazado_804009" data-name="Trazado 804009" d="M443.378,407.191c.13.14.862-.369,1.9-.459,1.033-.12,1.852.231,1.952.068.125-.133-.734-.868-2.02-.731s-1.979,1.017-1.83,1.122" fill="#263238"/>
              <path id="Trazado_804010" data-name="Trazado 804010" d="M446.171,411.874c.131-.122-.517-.876-1.662-1.051s-1.992.338-1.9.494c.07.177.862.007,1.8.165.941.136,1.643.54,1.765.392" fill="#263238"/>
              <path id="Trazado_804011" data-name="Trazado 804011" d="M444.4,402.408c.065.046.584-.518,1.085-1.639a8.809,8.809,0,0,0,.618-2.06,9.209,9.209,0,0,0,.131-1.271,2.437,2.437,0,0,0-.054-.75.836.836,0,0,0-.8-.64,1.051,1.051,0,0,0-.831.454,2.584,2.584,0,0,0-.325.669,7.053,7.053,0,0,0-.331,1.249,6.931,6.931,0,0,0-.02,2.167,3.274,3.274,0,0,0,.684,1.848c.1-.037-.152-.738-.215-1.895a7.846,7.846,0,0,1,.155-2.006,7.285,7.285,0,0,1,.338-1.132c.141-.406.335-.7.548-.687.08.007.106.018.159.158a1.985,1.985,0,0,1,.037.551,10.263,10.263,0,0,1-.084,1.192,10.978,10.978,0,0,1-.451,1.984,13.57,13.57,0,0,0-.645,1.808" fill="#263238"/>
              <path id="Trazado_804012" data-name="Trazado 804012" d="M444.764,402.353c.062-.04-.3-.738-1.289-1.486a6.385,6.385,0,0,0-1.937-.975,6.509,6.509,0,0,0-1.27-.247,1.623,1.623,0,0,0-1.522.49.917.917,0,0,0,0,.987,2.669,2.669,0,0,0,.486.568,4.357,4.357,0,0,0,1.1.737,4.516,4.516,0,0,0,2.154.432c1.272-.072,1.907-.609,1.862-.658a16.08,16.08,0,0,1-1.862.187,4.535,4.535,0,0,1-1.88-.511,4.022,4.022,0,0,1-.924-.662c-.312-.283-.505-.6-.383-.706a1.124,1.124,0,0,1,.918-.213,6.489,6.489,0,0,1,1.156.188,7.082,7.082,0,0,1,1.841.774c.987.6,1.47,1.165,1.552,1.1" fill="#263238"/>
              <path id="Trazado_804013" data-name="Trazado 804013" d="M377.013,322.442a2.482,2.482,0,0,1-.014.591c-.039.442-.088,1-.149,1.683-.144,1.529-.341,3.623-.581,6.18-.223,2.61-.483,5.72-.6,9.177-.081,3.437-.254,7.326,1.272,11a28.048,28.048,0,0,0,6.425,9.051,66.041,66.041,0,0,0,7,5.925c2.1,1.563,3.842,2.773,5.039,3.62l1.374.981a2.453,2.453,0,0,1,.46.371,2.566,2.566,0,0,1-.518-.284l-1.43-.9c-1.232-.8-3.008-1.96-5.143-3.491a61.919,61.919,0,0,1-7.119-5.88,28.039,28.039,0,0,1-6.571-9.2,18.013,18.013,0,0,1-1.266-5.755,54.371,54.371,0,0,1,0-5.462c.142-3.472.441-6.585.711-9.194s.546-4.716.747-6.169c.1-.68.181-1.233.246-1.671a2.524,2.524,0,0,1,.118-.579" fill="#aa6550"/>
              <path id="Trazado_804014" data-name="Trazado 804014" d="M405.164,343.725a10.957,10.957,0,0,0-6.941-.249,6.1,6.1,0,0,1,6.941.249" fill="#aa6550"/>
              <path id="Trazado_804015" data-name="Trazado 804015" d="M372.217,435.653h0s-20.776,6.095-21.266,9.818L390.1,448.2l.766-10.233-1.461.229a29.148,29.148,0,0,1-17.186-2.546" fill="#b2bdc1"/>
              <g id="Grupo_1066365" data-name="Grupo 1066365" opacity="0.6">
                <g id="Grupo_1066364" data-name="Grupo 1066364">
                  <g id="Grupo_1066363" data-name="Grupo 1066363" clip-path="url(#clip-path-9)">
                    <path id="Trazado_804016" data-name="Trazado 804016" d="M386.2,439.571a1.6,1.6,0,0,1,.978,1.9,1.541,1.541,0,0,1-1.876.987,1.691,1.691,0,0,1-1.026-2.02,1.6,1.6,0,0,1,2.066-.809" fill="#fff"/>
                  </g>
                </g>
              </g>
              <g id="Grupo_1066368" data-name="Grupo 1066368" opacity="0.6">
                <g id="Grupo_1066367" data-name="Grupo 1066367">
                  <g id="Grupo_1066366" data-name="Grupo 1066366" clip-path="url(#clip-path-10)">
                    <path id="Trazado_804017" data-name="Trazado 804017" d="M390.1,448.2l.113-3.18-37.575-1.429s-1.8.636-1.685,1.878Z" fill="#fff"/>
                  </g>
                </g>
              </g>
              <path id="Trazado_804018" data-name="Trazado 804018" d="M371.6,435.41c-.007.192.943.345,1.84,1.025.916.657,1.343,1.519,1.524,1.456.179-.025-.026-1.188-1.128-1.993s-2.265-.666-2.236-.488" fill="#263238"/>
              <path id="Trazado_804019" data-name="Trazado 804019" d="M367.372,436.822c-.057.182.749.565,1.341,1.419.618.836.721,1.722.912,1.727.178.042.388-1.068-.369-2.115s-1.867-1.213-1.884-1.031" fill="#263238"/>
              <path id="Trazado_804020" data-name="Trazado 804020" d="M364.7,441.573c.171.053.5-.884.086-1.965s-1.283-1.56-1.375-1.406c-.119.149.422.752.752,1.644.35.885.348,1.695.537,1.727" fill="#263238"/>
              <path id="Trazado_804021" data-name="Trazado 804021" d="M372.03,435.329a3.679,3.679,0,0,0,1.961.127,8.807,8.807,0,0,0,2.1-.487,9.178,9.178,0,0,0,1.168-.519,2.4,2.4,0,0,0,.624-.42.835.835,0,0,0,.159-1.011,1.053,1.053,0,0,0-.807-.5,2.548,2.548,0,0,0-.743.05,7.184,7.184,0,0,0-1.248.333,6.928,6.928,0,0,0-1.891,1.061c-.966.778-1.326,1.47-1.263,1.512.082.069.565-.5,1.538-1.129a7.858,7.858,0,0,1,1.818-.863,7.281,7.281,0,0,1,1.149-.269c.423-.079.775-.058.869.134.034.073.037.1-.058.217a2,2,0,0,1-.459.306,10.254,10.254,0,0,1-1.077.52,10.969,10.969,0,0,1-1.946.594,13.433,13.433,0,0,0-1.889.339" fill="#263238"/>
              <path id="Trazado_804022" data-name="Trazado 804022" d="M372.259,435.621a3.123,3.123,0,0,0,.649-1.857,6.34,6.34,0,0,0-.534-3.391,1.623,1.623,0,0,0-1.181-1.077.917.917,0,0,0-.857.49,2.658,2.658,0,0,0-.252.7,4.376,4.376,0,0,0-.093,1.321,4.514,4.514,0,0,0,.7,2.083c.694,1.068,1.476,1.352,1.5,1.289.071-.092-.57-.507-1.087-1.523a4.535,4.535,0,0,1-.492-1.885,4.085,4.085,0,0,1,.115-1.131c.091-.412.27-.736.423-.683.2.01.5.347.641.69a6.533,6.533,0,0,1,.411,1.1,7.075,7.075,0,0,1,.244,1.982c-.027,1.153-.281,1.855-.179,1.891" fill="#263238"/>
              <path id="Trazado_804023" data-name="Trazado 804023" d="M369.314,317.817l6.232-63.545,7.57-1.416L375.8,317.938Z" fill="#263238"/>
              <path id="Trazado_804024" data-name="Trazado 804024" d="M428.769,248.781s2.78,18.636.508,23.611-10.525,19.425-11.343,25.627l-2.156,30.02-40.142-5.8.169-4.306,2.6-66.169,31.151-11.613Z" fill="#263238"/>
              <path id="Trazado_804025" data-name="Trazado 804025" d="M379.457,271.1c.143.011-.584,10.6-1.624,23.642s-2,23.614-2.144,23.6.584-10.6,1.625-23.644,2-23.612,2.143-23.6" fill="#455a64"/>
              <path id="Trazado_804026" data-name="Trazado 804026" d="M407.367,288.5a4.9,4.9,0,0,1-1.116-.6,16.962,16.962,0,0,1-2.7-2.159,25.539,25.539,0,0,1-6-9.635,51.574,51.574,0,0,1-2.464-11.1c-.178-1.444-.293-2.614-.36-3.423a5.772,5.772,0,0,1-.051-1.264,5.923,5.923,0,0,1,.252,1.239c.14.907.315,2.044.524,3.4a59.439,59.439,0,0,0,2.588,10.975,26.938,26.938,0,0,0,5.769,9.553,34.211,34.211,0,0,0,3.558,3.021" fill="#455a64"/>
              <path id="Trazado_804027" data-name="Trazado 804027" d="M410.439,142.61l17.41,14.353.919,91.819s-19.018-5.682-26.9-3.458-17.978,10.4-21.576,10.22a38.3,38.3,0,0,0-6.087.137l1.081-13.636s-3.6-11.219-1.793-19.473,6.522-34.754,7.222-47.092L388.572,153Z" fill="#59bee2"/>
              <path id="Trazado_804028" data-name="Trazado 804028" d="M400.694,224.029a4.49,4.49,0,0,1-.314,1.063,22.633,22.633,0,0,1-1.2,2.773,29.949,29.949,0,0,1-2.31,3.846,31.284,31.284,0,0,1-7.8,7.7,30.063,30.063,0,0,1-3.877,2.26,22.562,22.562,0,0,1-2.788,1.161,4.5,4.5,0,0,1-1.067.3c-.034-.092,1.454-.611,3.688-1.79a34.219,34.219,0,0,0,3.768-2.324,33.606,33.606,0,0,0,7.683-7.583,34.346,34.346,0,0,0,2.374-3.737c1.208-2.219,1.747-3.7,1.838-3.665" fill="#263238"/>
              <g id="Grupo_1066371" data-name="Grupo 1066371" opacity="0.3">
                <g id="Grupo_1066370" data-name="Grupo 1066370">
                  <g id="Grupo_1066369" data-name="Grupo 1066369" clip-path="url(#clip-path-11)">
                    <path id="Trazado_804029" data-name="Trazado 804029" d="M401.5,173.488c-.5,11.262-.148,24.17,4.484,34.446,2.15,4.767,5.078,9.369,5.545,14.578.31,3.455-.5,6.9-1.3,10.276-.916,3.845-3.011,9.165-1.385,12.1a30.6,30.6,0,0,0,8.938-16.787c.807-4.526-.118-9.168-1.187-13.638-3.532-14.766-8.666-29.1-14.058-43.292"/>
                  </g>
                </g>
              </g>
              <path id="Trazado_804030" data-name="Trazado 804030" d="M418.838,151.495s6.485,1.157,9.012,5.467,10.423,49.068,10.423,49.068l-29.718.64-7.005-30.934s-4.049-25.579,17.288-24.241" fill="#59bee2"/>
              <path id="Trazado_804031" data-name="Trazado 804031" d="M438.272,206.03a3,3,0,0,1-.561.053l-1.631.073-6.131.2-21.389.555-.2.005-.043-.2c-1.14-5.186-2.391-10.874-3.7-16.829-.877-4.027-1.729-7.933-2.525-11.585l.007.024a23.277,23.277,0,0,1-.856-7.317,35.282,35.282,0,0,1,.788-6.69,20.774,20.774,0,0,1,1.995-5.674,15.406,15.406,0,0,1,3.251-4.028,11.922,11.922,0,0,1,6.613-3.051,7.1,7.1,0,0,1,1.141-.045,5.042,5.042,0,0,1,.829.057,3.919,3.919,0,0,1,.671.118,15.776,15.776,0,0,0-2.621.041,11.985,11.985,0,0,0-6.421,3.12,15.25,15.25,0,0,0-3.128,3.972,20.556,20.556,0,0,0-1.9,5.581,35.294,35.294,0,0,0-.738,6.608,22.952,22.952,0,0,0,.86,7.151l0,.015,0,.01c.8,3.652,1.658,7.556,2.542,11.582,1.3,5.957,2.535,11.648,3.664,16.837l-.242-.191,21.394-.366,6.134-.063,1.632,0a2.946,2.946,0,0,1,.563.028" fill="#263238"/>
              <path id="Trazado_804032" data-name="Trazado 804032" d="M401.318,169.087a87.051,87.051,0,0,1-9.444,1.065,86.834,86.834,0,0,1-9.49.547,87.142,87.142,0,0,1,9.445-1.066,86.933,86.933,0,0,1,9.489-.546" fill="#fafafa"/>
              <path id="Trazado_804033" data-name="Trazado 804033" d="M429.625,163.565c.042.138-6.164,2.163-13.86,4.523s-13.971,4.162-14.013,4.025,6.162-2.162,13.861-4.523,13.97-4.162,14.012-4.025" fill="#fafafa"/>
              <path id="Trazado_804034" data-name="Trazado 804034" d="M405.552,194.507c0,.144-6.1.282-13.63.308s-13.632-.069-13.632-.213,6.1-.281,13.631-.308,13.631.069,13.631.213" fill="#fafafa"/>
              <path id="Trazado_804035" data-name="Trazado 804035" d="M436.746,197.138c.019.142-6.317,1.118-14.151,2.178s-14.2,1.805-14.223,1.663,6.316-1.118,14.153-2.179,14.2-1.805,14.221-1.662" fill="#fafafa"/>
              <path id="Trazado_804036" data-name="Trazado 804036" d="M412.8,151.651c-.112.107-1.733-1.51-4.013-3.143s-4.319-2.67-4.253-2.811a18.257,18.257,0,0,1,8.266,5.954" fill="#fafafa"/>
              <path id="Trazado_804037" data-name="Trazado 804037" d="M399.373,226.295a3.914,3.914,0,0,1-1.034.015c-.664-.024-1.624-.076-2.809-.152-2.37-.151-5.643-.4-9.255-.7s-6.882-.6-9.244-.85c-1.181-.122-2.136-.231-2.8-.317a3.915,3.915,0,0,1-1.017-.187,4.048,4.048,0,0,1,1.038-.014c.664.024,1.625.076,2.81.152,2.37.15,5.641.4,9.251.7s6.875.6,9.237.849c1.182.122,2.137.231,2.8.317a3.993,3.993,0,0,1,1.021.187" fill="#fafafa"/>
              <path id="Trazado_804038" data-name="Trazado 804038" d="M415.388,220.658a109.379,109.379,0,0,1-14.694,3.371,109.279,109.279,0,0,1,14.694-3.371" fill="#fafafa"/>
              <path id="Trazado_804039" data-name="Trazado 804039" d="M410.029,243.462c.026.141-7.9,1.73-17.712,3.547s-17.782,3.176-17.809,3.034,7.9-1.729,17.714-3.546,17.781-3.176,17.807-3.035" fill="#fafafa"/>
              <path id="Trazado_804040" data-name="Trazado 804040" d="M435.385,206.092l2.52,18.128a14.921,14.921,0,0,1-3.226,11.5l-27.053,33.1s-2.7,12.605-4.921,15.493c0,0-7.118-9.842-6.748-16.525l5.324-5.249,15.148-35.355-3.29-20.611Z" fill="#b78876"/>
            </g>
          </g>
          <g id="Grupo_1066384" data-name="Grupo 1066384">
            <g id="Grupo_1066383" data-name="Grupo 1066383" clip-path="url(#clip-path)">
              <path id="Trazado_804041" data-name="Trazado 804041" d="M196.068,412.1l-6.543-12.333-15.735,9.665,11.958,16.916-.505,15.366c-7.7,1.991-8.853,5.837-8.853,5.837l16-.018,14.53-27.992Z" fill="#455a64"/>
              <g id="Grupo_1066376" data-name="Grupo 1066376" opacity="0.6">
                <g id="Grupo_1066375" data-name="Grupo 1066375">
                  <g id="Grupo_1066374" data-name="Grupo 1066374" clip-path="url(#clip-path-13)">
                    <path id="Trazado_804042" data-name="Trazado 804042" d="M206.92,419.542l-14.53,27.992-16,.018,1.8-2.407,13.01-.729,13.412-26.457Z" fill="#fff"/>
                  </g>
                </g>
              </g>
              <path id="Trazado_804043" data-name="Trazado 804043" d="M185.341,434.675c.119.163,1.041-.361,2.278-.327,1.238,0,2.146.548,2.269.388.15-.121-.752-1.079-2.259-1.092-1.507-.028-2.435.906-2.288,1.031" fill="#263238"/>
              <path id="Trazado_804044" data-name="Trazado 804044" d="M185.6,430.864c.16.113.872-.832,2.148-1.081s2.295.333,2.4.167c.054-.072-.13-.34-.58-.585a2.994,2.994,0,0,0-3.659.736c-.32.4-.386.717-.308.763" fill="#263238"/>
              <path id="Trazado_804045" data-name="Trazado 804045" d="M185.489,425.969c.175.088.72-.837,1.835-1.223,1.11-.4,2.114-.024,2.195-.2.043-.081-.16-.3-.6-.469a2.775,2.775,0,0,0-3.253,1.15c-.24.407-.258.708-.174.744" fill="#263238"/>
              <path id="Trazado_804046" data-name="Trazado 804046" d="M181.2,422.177c.19.067.639-.843,1.633-1.487.974-.672,1.986-.74,2-.941.054-.185-1.185-.457-2.388.356s-1.434,2.051-1.242,2.072" fill="#263238"/>
              <g id="Grupo_1066379" data-name="Grupo 1066379" opacity="0.6">
                <g id="Grupo_1066378" data-name="Grupo 1066378">
                  <g id="Grupo_1066377" data-name="Grupo 1066377" clip-path="url(#clip-path-14)">
                    <path id="Trazado_804047" data-name="Trazado 804047" d="M194.157,419.064a1.9,1.9,0,1,0,1.9-1.9,1.9,1.9,0,0,0-1.9,1.9" fill="#fff"/>
                  </g>
                </g>
              </g>
              <path id="Trazado_804048" data-name="Trazado 804048" d="M48.373,402.828l-7.284,21.143s-23.937-.3-25.664,3.473l37.893,14.6,12.417-32.579Z" fill="#455a64"/>
              <path id="Trazado_804049" data-name="Trazado 804049" d="M54.284,427.04a1.772,1.772,0,0,1,.417,2.327,1.7,1.7,0,0,1-2.3.433,1.869,1.869,0,0,1-.428-2.467,1.767,1.767,0,0,1,2.446-.184" fill="#e0e0e0"/>
              <g id="Grupo_1066382" data-name="Grupo 1066382" opacity="0.6">
                <g id="Grupo_1066381" data-name="Grupo 1066381">
                  <g id="Grupo_1066380" data-name="Grupo 1066380" clip-path="url(#clip-path-15)">
                    <path id="Trazado_804050" data-name="Trazado 804050" d="M53.319,442.041l1.152-3.324L17.816,426.006s-2.1.09-2.39,1.438Z" fill="#fff"/>
                  </g>
                </g>
              </g>
              <path id="Trazado_804051" data-name="Trazado 804051" d="M40.512,423.512c-.07.2.884.671,1.612,1.681.755.992.926,2.041,1.138,2.033.2.032.358-1.264-.545-2.472s-2.178-1.44-2.2-1.242" fill="#263238"/>
              <path id="Trazado_804052" data-name="Trazado 804052" d="M35.589,423.633c-.119.174.608.84.957,1.935.382,1.085.2,2.054.4,2.121.174.1.757-1,.3-2.355s-1.579-1.888-1.656-1.7" fill="#263238"/>
              <path id="Trazado_804053" data-name="Trazado 804053" d="M31.219,427.786c.163.111.819-.77.728-2.049s-.849-2.065-1-1.933c-.174.12.2.932.261,1.983.083,1.048-.182,1.9.007,2" fill="#263238"/>
              <path id="Trazado_804054" data-name="Trazado 804054" d="M42.707,418.878c.013.212,1.026.289,2.114.8,1.1.484,1.823,1.194,1.992,1.064.169-.1-.4-1.157-1.688-1.736s-2.455-.316-2.418-.123" fill="#263238"/>
              <path id="Trazado_804055" data-name="Trazado 804055" d="M102.666,269.233,65.911,340.191,42.428,410.638l22.5,9.061,24.8-69.026,42.8-58.114Z" fill="#263238"/>
              <path id="Trazado_804056" data-name="Trazado 804056" d="M111.911,291.66c0,2.552,61.879,119.666,61.879,119.666l17.757-9.911-50.028-121.5-31.65,11.741" fill="#263238"/>
              <path id="Trazado_804057" data-name="Trazado 804057" d="M66.119,256.683c1.995-.79,7.51-2.862,3.9-4.025-.057-.019-.106-.043-.163-.061-3.58-1.05-5.991-3.044-6.3-4.1a1.29,1.29,0,0,1,1.844-1.407,1.348,1.348,0,0,1,.472.266c.061.055.156.112.228.168A18.562,18.562,0,0,0,69.636,249a10.033,10.033,0,0,0,3.377.5c.936-.024,1.776-.072,2.529-.131l38.847-31.528L134.43,212.9c1.53,9.267-2.065,20.533-10.168,25.283L80.74,264.22a108.335,108.335,0,0,1-9.758,6.573c-4.882,2.644-5.138,2.214-5.365,1.6-.61-1.654,8.4-4.974,6.024-5.371s-10.519,5.327-11.085,3.573c-.736-2.285,8.768-5.59,9.55-5.928.76-.328,2.2-1.86,1.508-1.517-.991.493-13.432,5.807-14.177,3.569-.413-1.241,1.914-1.723,1.914-1.723s10.216-3.886,9.828-4.932c-.393-1.061-6.473,1.021-8.47,1.866-1.974.835-3.2.247-2.864-.924.227-.8,6.279-3.531,8.274-4.321" fill="#ffbe9d"/>
              <path id="Trazado_804058" data-name="Trazado 804058" d="M121.256,153.816c2.088-2.019,5.656-.264,7.408,2.053s2.994,5.3,5.655,6.466,6.121.163,8.354,2.018c3.079,2.558,1.35,8.485,4.679,10.708,1.322.883,3.064.852,4.477,1.58,3.329,1.716,3.289,6.412,2.775,10.121-.722,5.206-1.513,10.6-4.386,15s-8.464,7.5-13.438,5.8c-4.78-1.631-7.233-6.789-9.177-11.45q-4.035-9.675-8.069-19.348c-1.557-3.731-3.128-7.518-3.635-11.528s.175-8.342,2.726-11.478" fill="#263238"/>
              <path id="Trazado_804059" data-name="Trazado 804059" d="M122.6,149.368c1.518-.183,2.675,1.676,2.276,3.152a4.816,4.816,0,0,1-3.259,2.964,4.867,4.867,0,0,1-2.518.291,2.478,2.478,0,0,1-1.906-1.534,1.442,1.442,0,0,1,.7-1.9c1-.624,1.584-1.115,2.371-1.549,1.206-.665,1.134-.754,2.339-1.419" fill="#74c67b"/>
              <path id="Trazado_804060" data-name="Trazado 804060" d="M125.08,113.062c.061-2.135-1.914-3.785-3.9-4.567s-4.2-1.077-5.97-2.27c-1.569-1.056-2.623-2.7-3.951-4.049a13.148,13.148,0,0,0-22.114,6.032c-.763,3.041-.242,6.637,2.155,8.657,2.782,2.346,6.906,1.825,10.471,1.1s7.6-1.449,10.576.644c1.795,1.263,2.823,3.316,3.921,5.217s2.474,3.841,4.549,4.555,4.892-.519,4.973-2.712" fill="#263238"/>
              <path id="Trazado_804061" data-name="Trazado 804061" d="M124.937,114.234c-.235,1.79,1.06,3.392,2.349,4.656s2.746,2.6,2.974,4.394c.266,2.092-1.261,4.152-.818,6.213.281,1.309,1.3,2.316,1.916,3.5a7.451,7.451,0,0,1,.38,5.487c-.532,1.8-1.378,5.828-2.631,7.228a28.92,28.92,0,0,1-14.047,8.38,54.364,54.364,0,0,1-15.512.852c-4.247-.262-9.13-.066-12.668-5.908-1.833-3.026-2.741-7.049-3.715-10.45-.839-2.928-1.564-6.063-.692-8.982.508-1.7,1.531-3.212,2.032-4.914.625-2.127.4-4.4.649-6.6a15.152,15.152,0,0,1,21.557-11.964" fill="#263238"/>
              <path id="Trazado_804062" data-name="Trazado 804062" d="M87.185,121.572c.4-6.094,4.452-13.562,10.523-12.906l18.951,4.834a3.573,3.573,0,0,1,3.189,3.631l-2.13,45.721.131.028s-4.319,12.9-16.851,8.957c-2.485-.782-3.619-3.5-4.112-6.295l-.128.016c-.005-.332-.009-.641-.013-.958a29.879,29.879,0,0,1-.075-6.278c-.035-3.692-.031-5.206-.034-5.171,0,0-7.783-1.31-9.374-11.472-.791-5.054-.519-13.337-.077-20.107" fill="#ffbe9d"/>
              <path id="Trazado_804063" data-name="Trazado 804063" d="M89.267,128.507a1.3,1.3,0,0,0,1.253,1.317,1.246,1.246,0,0,0,1.346-1.171,1.3,1.3,0,0,0-1.252-1.318,1.246,1.246,0,0,0-1.347,1.172" fill="#263238"/>
              <path id="Trazado_804064" data-name="Trazado 804064" d="M88.973,125.885c.161.17,1.15-.558,2.552-.551,1.4-.014,2.428.71,2.58.539.075-.076-.089-.383-.536-.71a3.571,3.571,0,0,0-2.065-.642,3.435,3.435,0,0,0-2.032.651c-.432.33-.578.637-.5.713" fill="#263238"/>
              <path id="Trazado_804065" data-name="Trazado 804065" d="M103.181,128.507a1.3,1.3,0,0,0,1.253,1.317,1.246,1.246,0,0,0,1.346-1.171,1.3,1.3,0,0,0-1.252-1.318,1.246,1.246,0,0,0-1.347,1.172" fill="#263238"/>
              <path id="Trazado_804066" data-name="Trazado 804066" d="M102.753,126.177c.162.17,1.151-.558,2.552-.551,1.4-.014,2.428.71,2.581.539.074-.076-.088-.383-.537-.71a3.571,3.571,0,0,0-2.065-.642,3.44,3.44,0,0,0-2.032.651c-.43.33-.578.637-.5.713" fill="#263238"/>
              <path id="Trazado_804067" data-name="Trazado 804067" d="M97.642,136.563a9.264,9.264,0,0,0-2.276-.416c-.358-.038-.7-.109-.757-.354a1.823,1.823,0,0,1,.242-1.06q.507-1.3,1.064-2.724c1.479-3.878,2.551-7.067,2.394-7.125s-1.483,3.038-2.961,6.916c-.356.956-.7,1.867-1.021,2.74a2.075,2.075,0,0,0-.189,1.4.9.9,0,0,0,.588.525,2.408,2.408,0,0,0,.608.086,9.129,9.129,0,0,0,2.308.008" fill="#263238"/>
              <path id="Trazado_804068" data-name="Trazado 804068" d="M96.637,153.151a25.842,25.842,0,0,0,13.613-3.6s-3.316,6.971-13.481,6Z" fill="#eb996e"/>
              <path id="Trazado_804069" data-name="Trazado 804069" d="M98.227,139.943a2.526,2.526,0,0,1,2.267-.933,2.3,2.3,0,0,1,1.59.858,1.46,1.46,0,0,1,.108,1.671,1.7,1.7,0,0,1-1.839.461,5.3,5.3,0,0,1-1.789-1.074,1.546,1.546,0,0,1-.4-.415.469.469,0,0,1,0-.522" fill="#eb996e"/>
              <path id="Trazado_804070" data-name="Trazado 804070" d="M101.766,137.542c-.229-.014-.234,1.508-1.539,2.585s-2.926.906-2.938,1.119c-.02.1.361.3,1.045.317a3.792,3.792,0,0,0,2.452-.848,3.305,3.305,0,0,0,1.193-2.168c.059-.636-.11-1.014-.213-1" fill="#263238"/>
              <path id="Trazado_804071" data-name="Trazado 804071" d="M102.128,123.721c.137.381,1.538.2,3.182.406,1.648.169,2.974.653,3.193.312.1-.164-.133-.523-.669-.893a5.574,5.574,0,0,0-4.856-.547c-.6.242-.909.541-.85.722" fill="#263238"/>
              <path id="Trazado_804072" data-name="Trazado 804072" d="M89.5,121.829c.246.319,1.212-.009,2.374-.022,1.161-.054,2.144.218,2.371-.114.1-.162-.054-.481-.483-.783a3.44,3.44,0,0,0-3.824.109c-.411.327-.546.654-.438.81" fill="#263238"/>
              <path id="Trazado_804073" data-name="Trazado 804073" d="M123.753,146.923a9.021,9.021,0,0,1-10.732-9.976c.316-2.5,1.661-5.033.8-7.4-1.143-3.122-5.52-4.082-6.681-7.2-.675-1.811-.069-3.929-.834-5.7-.72-1.669-2.475-2.63-4.184-3.248a17.453,17.453,0,0,1-4.976-2.16c-1.435-1.115-2.33-3.22-1.4-4.784a96.273,96.273,0,0,1,22.2,5.394c1.658.619,3.4,1.363,4.38,2.837,1.037,1.559.987,3.574.9,5.445q-.639,13.681-1.277,27.365" fill="#263238"/>
              <path id="Trazado_804074" data-name="Trazado 804074" d="M123.116,150.415a.652.652,0,0,0,.164-.1l.452-.344c.393-.308.97-.765,1.683-1.394a17.879,17.879,0,0,0,2.388-2.514,9.374,9.374,0,0,0,1.9-4.181,6.36,6.36,0,0,0-1.311-5.346,20.629,20.629,0,0,0-2.366-2.018,5.522,5.522,0,0,1-1.847-2.518c-.751-2.071-.416-4.469-.706-6.92a13.785,13.785,0,0,0-2.88-7,9.529,9.529,0,0,0-3.013-2.462,18.587,18.587,0,0,0-3.555-1.2,8.269,8.269,0,0,1-3.119-1.538,12.239,12.239,0,0,1-2.265-2.5c-1.276-1.812-2.22-3.743-3.435-5.354a11.607,11.607,0,0,0-2-2.125,7.632,7.632,0,0,0-2.373-1.292,5.056,5.056,0,0,0-4.512.449,4.159,4.159,0,0,0-1.6,3.041,3.032,3.032,0,0,0,.612,2.093,1.85,1.85,0,0,0,.414.4q.155.117.162.108c0-.006-.041-.055-.133-.143a2.219,2.219,0,0,1-.372-.416,3.009,3.009,0,0,1-.509-2.026,4,4,0,0,1,1.574-2.85,4.808,4.808,0,0,1,4.266-.353,7.358,7.358,0,0,1,2.258,1.262,11.344,11.344,0,0,1,1.921,2.077c1.177,1.584,2.1,3.511,3.4,5.371a12.605,12.605,0,0,0,2.333,2.591,8.676,8.676,0,0,0,3.264,1.625,18.369,18.369,0,0,1,3.475,1.176,9.055,9.055,0,0,1,2.871,2.351,13.4,13.4,0,0,1,2.791,6.77c.295,2.369-.048,4.8.754,7.006a5.922,5.922,0,0,0,1.982,2.68,20.638,20.638,0,0,1,2.341,1.962,6.044,6.044,0,0,1,1.275,5.048,9.193,9.193,0,0,1-1.788,4.083,18.642,18.642,0,0,1-2.305,2.535c-.691.644-1.25,1.123-1.624,1.453a5.089,5.089,0,0,0-.558.518" fill="#455a64"/>
              <path id="Trazado_804075" data-name="Trazado 804075" d="M95.568,170.943,84.633,290.271l56.154-7.1s-.511-111.287-6.637-116.9-13.024-12.12-13.024-12.12L119.5,148.2l-24,14.384Z" fill="#ebebeb"/>
              <path id="Trazado_804076" data-name="Trazado 804076" d="M120.432,155.3c.081.118-5.147,3.884-11.676,8.409s-11.892,8.1-11.974,7.982,5.144-3.882,11.677-8.41,11.891-8.1,11.973-7.981" fill="#263238"/>
              <path id="Trazado_804077" data-name="Trazado 804077" d="M129.788,159.783a12.438,12.438,0,0,0-18.595,4.126c-4.576,8.6-11.417,22.659-11.756,30.441-.51,11.741-5.1,107.2-5.1,107.2l68.916,6.637-16.335-93.66s-.994-41.915-17.125-54.746" fill="#1969d5"/>
              <path id="Trazado_804078" data-name="Trazado 804078" d="M99.553,290.786a88.233,88.233,0,0,1-.388-9.581,88.38,88.38,0,0,1,.132-9.59,88.252,88.252,0,0,1,.388,9.583,88.354,88.354,0,0,1-.132,9.588" fill="#fafafa"/>
              <path id="Trazado_804079" data-name="Trazado 804079" d="M103.445,288.584a57.143,57.143,0,0,1-.26-7.7,57.152,57.152,0,0,1,.26-7.7,57.152,57.152,0,0,1,.26,7.7,57.143,57.143,0,0,1-.26,7.7" fill="#fafafa"/>
              <path id="Trazado_804080" data-name="Trazado 804080" d="M109.292,290.157a69.4,69.4,0,0,1-.383-8.481,69.332,69.332,0,0,1,.139-8.49,69.516,69.516,0,0,1,.382,8.482,69.221,69.221,0,0,1-.138,8.489" fill="#fafafa"/>
              <path id="Trazado_804081" data-name="Trazado 804081" d="M115.789,290.776a77.84,77.84,0,0,1-1.035-8.934,78,78,0,0,1-.516-8.981,77.572,77.572,0,0,1,1.035,8.936,77.967,77.967,0,0,1,.516,8.979" fill="#fafafa"/>
              <path id="Trazado_804082" data-name="Trazado 804082" d="M121.7,291.411a86.1,86.1,0,0,1-.888-9.41,86.325,86.325,0,0,1-.368-9.446,85.845,85.845,0,0,1,.888,9.411,86,86,0,0,1,.368,9.445" fill="#fafafa"/>
              <path id="Trazado_804083" data-name="Trazado 804083" d="M127.217,291.125a7.7,7.7,0,0,1-.62-2.155,29.385,29.385,0,0,1-.117-10.779,7.734,7.734,0,0,1,.573-2.168c.161.03-.552,3.375-.492,7.557.031,4.182.816,7.511.656,7.545" fill="#fafafa"/>
              <path id="Trazado_804084" data-name="Trazado 804084" d="M132.606,292.716a16.709,16.709,0,0,1-.535-3.059c-.25-1.9-.521-4.536-.7-7.456s-.24-5.569-.228-7.486a16.738,16.738,0,0,1,.15-3.1,20.365,20.365,0,0,1,.218,3.1c.082,1.911.2,4.549.38,7.461s.4,5.543.55,7.449a20.2,20.2,0,0,1,.169,3.1" fill="#fafafa"/>
              <path id="Trazado_804085" data-name="Trazado 804085" d="M139.106,292.367a72.435,72.435,0,0,1-.859-8.626,72.6,72.6,0,0,1-.339-8.662,72.155,72.155,0,0,1,.859,8.626,72.35,72.35,0,0,1,.339,8.662" fill="#fafafa"/>
              <path id="Trazado_804086" data-name="Trazado 804086" d="M149.682,292.344a98.038,98.038,0,0,1-2.865-9.69,98.315,98.315,0,0,1-2.362-9.825,98.021,98.021,0,0,1,2.865,9.691,98.275,98.275,0,0,1,2.362,9.824" fill="#fafafa"/>
              <path id="Trazado_804087" data-name="Trazado 804087" d="M156.217,291.732a14.115,14.115,0,0,1-.777-2.449c-.431-1.523-1.033-3.622-1.758-5.923s-1.441-4.365-1.963-5.859a14.052,14.052,0,0,1-.771-2.45,11.392,11.392,0,0,1,1.115,2.319c.612,1.465,1.384,3.522,2.115,5.834s1.279,4.438,1.619,5.989a11.417,11.417,0,0,1,.42,2.539" fill="#fafafa"/>
              <path id="Trazado_804088" data-name="Trazado 804088" d="M156.27,266.445a2.422,2.422,0,0,1-.559.142l-1.617.308c-1.4.263-3.449.585-5.982.932a185.429,185.429,0,0,1-39.879,1.043c-2.546-.214-4.6-.43-6.021-.618l-1.632-.223a2.342,2.342,0,0,1-.563-.113,2.358,2.358,0,0,1,.575.008l1.64.126c1.422.127,3.483.286,6.028.453,5.093.337,12.143.6,19.929.4s14.809-.839,19.877-1.442c2.534-.3,4.583-.566,6-.767l1.631-.211a2.38,2.38,0,0,1,.576-.039" fill="#fafafa"/>
              <path id="Trazado_804089" data-name="Trazado 804089" d="M155.3,261.572a2.174,2.174,0,0,1-.541.108l-1.565.209c-1.359.174-3.331.386-5.77.616-4.878.462-11.636.937-19.112,1.15s-14.252.114-19.149-.072c-2.448-.092-4.428-.193-5.8-.29l-1.573-.121a2.194,2.194,0,0,1-.547-.077,2.194,2.194,0,0,1,.552-.027l1.577.022,5.8.125c4.9.092,11.658.127,19.125-.081s14.214-.629,19.1-1l5.781-.451,1.573-.111a2.207,2.207,0,0,1,.553,0" fill="#fafafa"/>
              <path id="Trazado_804090" data-name="Trazado 804090" d="M154.036,257.42a2.171,2.171,0,0,1-.537.1l-1.55.171c-1.346.139-3.3.311-5.71.5-4.825.379-11.5.795-18.88,1.066s-14.071.338-18.911.311c-2.42-.013-4.378-.043-5.731-.084l-1.558-.057a2.143,2.143,0,0,1-.543-.056,2.194,2.194,0,0,1,.544-.049l1.558-.04,5.728-.083c4.837-.067,11.517-.2,18.894-.463s14.046-.628,18.874-.913l5.719-.335,1.557-.073a2.141,2.141,0,0,1,.546.01" fill="#fafafa"/>
              <path id="Trazado_804091" data-name="Trazado 804091" d="M162.828,303.772c-.017.143-13.882-1.356-30.966-3.347s-30.925-3.722-30.908-3.865,13.879,1.355,30.969,3.347,30.922,3.722,30.9,3.865" fill="#fafafa"/>
              <path id="Trazado_804092" data-name="Trazado 804092" d="M159.634,298.626c-.015.143-13.522-1.137-30.164-2.858s-30.129-3.233-30.114-3.376,13.519,1.136,30.167,2.858,30.126,3.233,30.111,3.376" fill="#fafafa"/>
              <path id="Trazado_804093" data-name="Trazado 804093" d="M101.188,255.212a47.275,47.275,0,0,1-.26-7,47.275,47.275,0,0,1,.26-7,47.277,47.277,0,0,1,.26,7,47.277,47.277,0,0,1-.26,7" fill="#fafafa"/>
              <path id="Trazado_804094" data-name="Trazado 804094" d="M106.188,254.878a61.681,61.681,0,0,1-.26-8,61.668,61.668,0,0,1,.26-8,61.671,61.671,0,0,1,.26,8,61.684,61.684,0,0,1-.26,8" fill="#fafafa"/>
              <path id="Trazado_804095" data-name="Trazado 804095" d="M114.514,252.877c-.156-.02.227-3.219.13-7.173-.079-3.955-.606-7.133-.45-7.16a7.43,7.43,0,0,1,.5,2.059,36.882,36.882,0,0,1,.228,10.194,7.391,7.391,0,0,1-.41,2.08" fill="#fafafa"/>
              <path id="Trazado_804096" data-name="Trazado 804096" d="M121.953,252.207a45.2,45.2,0,0,1-.594-6.82,45.269,45.269,0,0,1-.073-6.847,45.054,45.054,0,0,1,.594,6.821,45.258,45.258,0,0,1,.073,6.846" fill="#fafafa"/>
              <path id="Trazado_804097" data-name="Trazado 804097" d="M128.9,253.876a49.737,49.737,0,0,1-.723-7.152,49.977,49.977,0,0,1-.2-7.186,49.714,49.714,0,0,1,.723,7.152,49.806,49.806,0,0,1,.2,7.186" fill="#fafafa"/>
              <path id="Trazado_804098" data-name="Trazado 804098" d="M136.59,253.2a43.516,43.516,0,0,1-1.072-6.637,43.5,43.5,0,0,1-.554-6.7,43.687,43.687,0,0,1,1.071,6.638,43.556,43.556,0,0,1,.555,6.7" fill="#fafafa"/>
              <path id="Trazado_804099" data-name="Trazado 804099" d="M144.17,254.214a39.3,39.3,0,0,1-1.09-6.3,39.305,39.305,0,0,1-.574-6.368,39.268,39.268,0,0,1,1.09,6.3,39.28,39.28,0,0,1,.574,6.367" fill="#fafafa"/>
              <path id="Trazado_804100" data-name="Trazado 804100" d="M148.934,253.535a45.678,45.678,0,0,1-1.1-6.8,45.834,45.834,0,0,1-.587-6.864,45.707,45.707,0,0,1,1.1,6.8,45.651,45.651,0,0,1,.587,6.863" fill="#fafafa"/>
              <path id="Trazado_804101" data-name="Trazado 804101" d="M120.341,234.333a17.076,17.076,0,0,1-2.854.022c-1.759-.04-4.186-.093-6.868-.1s-5.111.023-6.87.047a17.045,17.045,0,0,1-2.853-.045,14.255,14.255,0,0,1,2.839-.323c1.759-.119,4.195-.211,6.886-.2s5.126.124,6.884.258a14.324,14.324,0,0,1,2.836.346" fill="#fafafa"/>
              <path id="Trazado_804102" data-name="Trazado 804102" d="M116.574,231.017a52.773,52.773,0,0,1-7.409-.02,52.817,52.817,0,0,1-7.391-.541,52.785,52.785,0,0,1,7.41.02,52.814,52.814,0,0,1,7.39.541" fill="#fafafa"/>
              <path id="Trazado_804103" data-name="Trazado 804103" d="M102.881,211.121a18.124,18.124,0,0,1-1.277-4.144,18.172,18.172,0,0,1-.771-4.267,36.242,36.242,0,0,1,2.048,8.411" fill="#fafafa"/>
              <path id="Trazado_804104" data-name="Trazado 804104" d="M107.57,210.24a24.331,24.331,0,0,1-2.6-12.189c.157-.006.288,2.794,1.013,6.155.706,3.363,1.728,5.975,1.582,6.034" fill="#fafafa"/>
              <path id="Trazado_804105" data-name="Trazado 804105" d="M111.962,212.552a42.84,42.84,0,0,1-1.557-6.478,42.707,42.707,0,0,1-1.047-6.581,42.8,42.8,0,0,1,1.557,6.479,42.814,42.814,0,0,1,1.047,6.58" fill="#fafafa"/>
              <path id="Trazado_804106" data-name="Trazado 804106" d="M110.575,193.31a10.678,10.678,0,0,1-4.209,1.908,10.677,10.677,0,0,1-4.6.454c-.007-.156,2.041-.3,4.464-.957,2.425-.642,4.271-1.543,4.343-1.4" fill="#fafafa"/>
              <path id="Trazado_804107" data-name="Trazado 804107" d="M106.7,189.926a5.282,5.282,0,0,1-2.094.972,5.286,5.286,0,0,1-2.259.479,5.291,5.291,0,0,1,2.094-.973,5.293,5.293,0,0,1,2.259-.478" fill="#fafafa"/>
              <path id="Trazado_804108" data-name="Trazado 804108" d="M139.192,186.445c-.153.027-.682-2.624-1.774-5.757s-2.3-5.55-2.162-5.623a25.335,25.335,0,0,1,3.936,11.38" fill="#fafafa"/>
              <path id="Trazado_804109" data-name="Trazado 804109" d="M141.827,186.732c-.156.015-.465-2.737-1.361-6.011-.88-3.281-2-5.812-1.86-5.877a24.741,24.741,0,0,1,3.221,11.888" fill="#fafafa"/>
              <path id="Trazado_804110" data-name="Trazado 804110" d="M142.985,191.442c.021.142-.871.391-1.992.556a4.271,4.271,0,0,1-2.068.041c-.021-.142.871-.391,1.992-.556a4.271,4.271,0,0,1,2.068-.041" fill="#fafafa"/>
              <path id="Trazado_804111" data-name="Trazado 804111" d="M144.169,194.945c.052.134-.559.494-1.364.8s-1.5.453-1.552.319.559-.494,1.364-.8,1.5-.453,1.552-.319" fill="#fafafa"/>
              <path id="Trazado_804112" data-name="Trazado 804112" d="M74.421,223.535,62.381,198.05l15.152-3.342,12.528,27.723Z" fill="#263238"/>
              <path id="Trazado_804113" data-name="Trazado 804113" d="M68.756,196.458c-.383-.439-.738-1.188-.255-1.513a.719.719,0,0,1,.976.391,2.087,2.087,0,0,1,.039,1.179l-.4.211" fill="#263238"/>
              <path id="Trazado_804114" data-name="Trazado 804114" d="M98.087,158.549a1.039,1.039,0,0,1-.021.265c-.029.2-.065.457-.111.771a15.109,15.109,0,0,1-.858,2.87,42.208,42.208,0,0,1-2.159,4.211,19.088,19.088,0,0,0-2.117,5.8,25.6,25.6,0,0,0-.2,7.493,52.377,52.377,0,0,0,1.77,8.472c.821,2.944,1.844,6,2.686,9.237a40.162,40.162,0,0,1,1.516,10.25,21.874,21.874,0,0,1-.623,5.26,5.091,5.091,0,0,1-1.288,2.338,3.213,3.213,0,0,1-2.518.842,7.1,7.1,0,0,1-4.326-2.474,15.976,15.976,0,0,1-2.646-3.96,76.3,76.3,0,0,1-2.98-8.2,19.787,19.787,0,0,0-3.509-6.587,9.612,9.612,0,0,0-5.085-3.268,7.362,7.362,0,0,0-4.534.517,5.761,5.761,0,0,0-2.258,1.842c-.4.549-.5.9-.54.883a1.161,1.161,0,0,1,.092-.25,3.607,3.607,0,0,1,.362-.692A5.65,5.65,0,0,1,71,192.208a7.51,7.51,0,0,1,4.682-.62,9.871,9.871,0,0,1,5.3,3.311,19.96,19.96,0,0,1,3.638,6.684,77.967,77.967,0,0,0,3,8.132,15.563,15.563,0,0,0,2.577,3.831,6.634,6.634,0,0,0,4,2.306,2.689,2.689,0,0,0,2.123-.708,4.6,4.6,0,0,0,1.145-2.106,21.676,21.676,0,0,0,.6-5.119A40.048,40.048,0,0,0,96.588,197.8c-.831-3.22-1.844-6.274-2.658-9.237a52.217,52.217,0,0,1-1.736-8.556,25.8,25.8,0,0,1,.265-7.608,19.178,19.178,0,0,1,2.223-5.873,45.927,45.927,0,0,0,2.229-4.15,17.3,17.3,0,0,0,.943-2.813c.064-.308.117-.557.16-.758a.956.956,0,0,1,.073-.256" fill="#74c67b"/>
              <path id="Trazado_804115" data-name="Trazado 804115" d="M114.109,142.085a8.382,8.382,0,0,1-.057,1.558,21.732,21.732,0,0,1-.677,4.21,14.081,14.081,0,0,1-3.165,5.479,17.237,17.237,0,0,1-6.3,4.514,11.658,11.658,0,0,1-7.7.6,9.136,9.136,0,0,1-3.075-1.508,7.165,7.165,0,0,1-1.935-2.276,9.382,9.382,0,0,1-1.048-4.139,8.924,8.924,0,0,1,.02-1.16,1.181,1.181,0,0,1,.056-.4c.053,0,.027.557.126,1.547a9.814,9.814,0,0,0,1.168,3.973,7.629,7.629,0,0,0,4.819,3.5,11.329,11.329,0,0,0,7.368-.616,17.151,17.151,0,0,0,6.136-4.351,14.09,14.09,0,0,0,3.171-5.267,25.9,25.9,0,0,0,.829-4.125,9.414,9.414,0,0,1,.258-1.536" fill="#288640"/>
              <path id="Trazado_804116" data-name="Trazado 804116" d="M108.559,175.253c.452,2.26,12.26,41.276,12.26,41.276S128.9,227.674,128.9,234h9.468a7.944,7.944,0,0,0,7.7-9.9l-14.458-56.982s-8.586-9.942-14.913-4.519a27.184,27.184,0,0,0-8.134,12.653" fill="#ebebeb"/>
              <path id="Trazado_804117" data-name="Trazado 804117" d="M65.176,206.435,83.7,201.916l18.98,9.942,19.269.694c6.47,1.667,9.249,12.219,7.629,18.7L128.9,234,91.571,217.959l-21.4-1.837Z" fill="#ffbe9d"/>
              <path id="Trazado_804118" data-name="Trazado 804118" d="M79.153,208.439a2.941,2.941,0,0,1-1.705.818,14.2,14.2,0,0,1-4.538-.038,39.037,39.037,0,0,1-6.294-.936,39.019,39.019,0,0,1,6.35.418,18.254,18.254,0,0,0,4.416.194c1.114-.148,1.727-.535,1.771-.456" fill="#eb996e"/>
              <path id="Trazado_804119" data-name="Trazado 804119" d="M78.3,212.709a22.007,22.007,0,0,1-5.48-.394,21.969,21.969,0,0,1-5.352-1.245,42.961,42.961,0,0,1,5.43.731,42.779,42.779,0,0,1,5.4.908" fill="#eb996e"/>
              <path id="Trazado_804120" data-name="Trazado 804120" d="M137.714,225.036a30.9,30.9,0,0,0-.762-3.791,16.961,16.961,0,0,0-4.923-7.715,15.434,15.434,0,0,0-4.279-2.711,9.658,9.658,0,0,0-4.031-.758,5.808,5.808,0,0,0-2.655.725c-.565.34-.829.609-.865.572-.013-.013.044-.088.165-.221a3.839,3.839,0,0,1,.591-.522,5.557,5.557,0,0,1,2.739-.922,9.594,9.594,0,0,1,4.233.68,15.18,15.18,0,0,1,4.448,2.768,16.358,16.358,0,0,1,4.932,8,13.573,13.573,0,0,1,.448,2.838,4.061,4.061,0,0,1-.041,1.053" fill="#263238"/>
              <path id="Trazado_804121" data-name="Trazado 804121" d="M135.08,206.36a25.66,25.66,0,0,0-7.741.734,25.668,25.668,0,0,0-6.946,3.5,6.79,6.79,0,0,1,1.73-1.558,16.843,16.843,0,0,1,10.663-3.071,6.8,6.8,0,0,1,2.294.4" fill="#263238"/>
            </g>
          </g>
          <g id="Grupo_1066398" data-name="Grupo 1066398">
            <g id="Grupo_1066397" data-name="Grupo 1066397" clip-path="url(#clip-path)">
              <path id="Trazado_804122" data-name="Trazado 804122" d="M222.96,123.765c-2.56-6.192-2.7-16.964,1.22-22.627s11.243-9.4,17.975-10.848a5.7,5.7,0,0,1,3.4.042,2.277,2.277,0,0,1,1.4,2.771,14.42,14.42,0,0,1,4.291-2.06,4.891,4.891,0,0,1,4.479.986,3,3,0,0,1,.112,4.249,5.159,5.159,0,0,1,6.513,6.873,16.378,16.378,0,0,1-3.761,5.02c-1.41,1.293-1.643,2.635-1.411,4.535" fill="#263238"/>
              <path id="Trazado_804123" data-name="Trazado 804123" d="M245.557,157.438c.035-2.872.062-11.479.075-11.6,0,0,9.7-.454,10.842-9.975.553-4.6.922-14.163,1.156-22.822A17.866,17.866,0,0,0,241.683,94.8l-.92-.1c-9.981-.491-15.974,7.713-16.188,17.7l-1.382,38.167a11.187,11.187,0,0,0,10.663,11.579c6.319.292,11.7-4.715,11.7-4.715" fill="#ffbe9d"/>
              <path id="Trazado_804124" data-name="Trazado 804124" d="M245.663,145.705a22.3,22.3,0,0,1-12.048-4.873s1.9,5.966,11.507,6.133Z" fill="#eb996e"/>
              <path id="Trazado_804125" data-name="Trazado 804125" d="M255.533,119.375a1.369,1.369,0,0,1-1.461,1.232,1.31,1.31,0,0,1-1.271-1.379,1.369,1.369,0,0,1,1.46-1.233,1.311,1.311,0,0,1,1.272,1.38" fill="#263238"/>
              <path id="Trazado_804126" data-name="Trazado 804126" d="M255.077,117.491c-.188.159-1.137-.715-2.6-.869-1.461-.175-2.618.462-2.757.266-.07-.088.137-.39.642-.68a3.756,3.756,0,0,1,2.231-.433,3.609,3.609,0,0,1,2.048.914c.413.394.531.731.439.8" fill="#263238"/>
              <path id="Trazado_804127" data-name="Trazado 804127" d="M240.8,118.462a1.369,1.369,0,0,1-1.461,1.232,1.31,1.31,0,0,1-1.271-1.379,1.37,1.37,0,0,1,1.46-1.233,1.311,1.311,0,0,1,1.272,1.38" fill="#263238"/>
              <path id="Trazado_804128" data-name="Trazado 804128" d="M240.646,116.211c-.188.159-1.139-.715-2.6-.869-1.462-.175-2.618.463-2.758.266-.069-.088.136-.39.642-.68a3.757,3.757,0,0,1,2.231-.433,3.609,3.609,0,0,1,2.048.914c.412.394.531.732.44.8" fill="#263238"/>
              <path id="Trazado_804129" data-name="Trazado 804129" d="M244.792,127.65a9.773,9.773,0,0,1,2.426-.173c.378,0,.74-.034.831-.283a1.921,1.921,0,0,0-.13-1.136q-.383-1.415-.8-2.968c-1.1-4.221-1.851-7.677-1.681-7.719s1.2,3.344,2.3,7.566c.262,1.04.513,2.031.751,2.98a2.179,2.179,0,0,1,.035,1.489.944.944,0,0,1-.674.481,2.564,2.564,0,0,1-.645.02,9.623,9.623,0,0,1-2.412-.257" fill="#263238"/>
              <path id="Trazado_804130" data-name="Trazado 804130" d="M240.37,128.2c.24.012.071,1.6,1.311,2.878s2.951,1.283,2.939,1.507c.012.1-.411.268-1.128.21a3.983,3.983,0,0,1-2.464-1.168,3.473,3.473,0,0,1-1-2.4c.011-.671.231-1.046.339-1.025" fill="#263238"/>
              <path id="Trazado_804131" data-name="Trazado 804131" d="M241.644,110.51c-.187.383-1.63.036-3.371.058-1.742-.013-3.182.341-3.372-.041-.083-.182.2-.531.8-.856a5.864,5.864,0,0,1,5.137-.013c.6.322.887.67.8.852" fill="#263238"/>
              <path id="Trazado_804132" data-name="Trazado 804132" d="M255,113.193c-.294.305-1.266-.149-2.477-.3-1.207-.19-2.266-.018-2.465-.392-.085-.18.112-.5.6-.763a3.617,3.617,0,0,1,3.983.555c.391.388.495.746.364.9" fill="#263238"/>
              <path id="Trazado_804133" data-name="Trazado 804133" d="M224.592,119.55c-.155-.088-6.342-2.644-6.837,3.9s6.174,5.688,6.2,5.5.637-9.4.637-9.4" fill="#ffbe9d"/>
              <path id="Trazado_804134" data-name="Trazado 804134" d="M222.144,126.319c-.027-.023-.12.071-.319.145a1.143,1.143,0,0,1-.853-.047,2.826,2.826,0,0,1-1.113-2.628,3.77,3.77,0,0,1,.442-1.607,1.317,1.317,0,0,1,.923-.81.582.582,0,0,1,.649.363c.074.19.022.317.056.331.017.018.149-.1.117-.373a.734.734,0,0,0-.227-.429.864.864,0,0,0-.617-.215,1.608,1.608,0,0,0-1.267.924,3.878,3.878,0,0,0-.533,1.794,2.967,2.967,0,0,0,1.448,2.95,1.22,1.22,0,0,0,1.055-.1c.215-.146.261-.289.239-.3" fill="#eb996e"/>
              <path id="Trazado_804135" data-name="Trazado 804135" d="M262.745,101.009c.116,8.538-10.6,11.279-14.819,6.187-1.951-2.354-3.591-5.236-6.4-6.444a7.792,7.792,0,0,0-6.009.171l-.057.025c-2.8,1.194-4.631,4.192-5.279,7.168-.9,4.148-.514,7.9-1.9,11.663a2.6,2.6,0,0,1-.921,1.421c-.835.51-1.939-.078-2.535-.853a8.089,8.089,0,0,1-1.31-4.441,26.95,26.95,0,0,1,1.2-10.566,18.358,18.358,0,0,1,6.01-8.673,17.394,17.394,0,0,1,12.624-3.275A21.362,21.362,0,0,1,255.2,99.124a12.529,12.529,0,0,1,3.5,5.043" fill="#263238"/>
              <path id="Trazado_804136" data-name="Trazado 804136" d="M256.177,95.816a1.935,1.935,0,0,1,.9.107,4.511,4.511,0,0,1,2.069,1.368,5.575,5.575,0,0,1,1.371,3.418,6.3,6.3,0,0,1-1.58,4.214,8.248,8.248,0,0,1-3.75,2.489,11.141,11.141,0,0,1-3.628.519,13.8,13.8,0,0,1-2.443-.262,2.721,2.721,0,0,1-.866-.248c.013-.092,1.271.19,3.307.154a11.657,11.657,0,0,0,3.481-.6,8.042,8.042,0,0,0,3.514-2.375,5.955,5.955,0,0,0,1.5-3.875,5.354,5.354,0,0,0-1.179-3.2,4.7,4.7,0,0,0-1.861-1.413,8.378,8.378,0,0,1-.837-.292" fill="#455a64"/>
              <path id="Trazado_804137" data-name="Trazado 804137" d="M252.03,92.486c0-.025.245-.055.615.158a2.069,2.069,0,0,1,.913,1.474,3.815,3.815,0,0,1-.69,2.465,10.924,10.924,0,0,1-1.982,2.365,11.341,11.341,0,0,1-4.9,2.607,5.417,5.417,0,0,1-2.29.212c-.008-.091.87-.137,2.2-.556a12.43,12.43,0,0,0,4.66-2.637,11.586,11.586,0,0,0,1.927-2.238,3.622,3.622,0,0,0,.729-2.178,1.987,1.987,0,0,0-.672-1.354c-.29-.234-.512-.276-.5-.318" fill="#455a64"/>
              <path id="Trazado_804138" data-name="Trazado 804138" d="M303.479,403.711l7.284,21.143s23.937-.3,25.664,3.473l-40.488,15.6-12.7-32.478Z" fill="#9aa8ad"/>
              <path id="Trazado_804139" data-name="Trazado 804139" d="M297.568,427.922a1.772,1.772,0,0,0-.417,2.327,1.7,1.7,0,0,0,2.3.433,1.869,1.869,0,0,0,.428-2.467,1.767,1.767,0,0,0-2.446-.184" fill="#e0e0e0"/>
              <g id="Grupo_1066387" data-name="Grupo 1066387" opacity="0.6">
                <g id="Grupo_1066386" data-name="Grupo 1066386">
                  <g id="Grupo_1066385" data-name="Grupo 1066385" clip-path="url(#clip-path-17)">
                    <path id="Trazado_804140" data-name="Trazado 804140" d="M295.939,443.923l-1.152-3.324,39.25-13.71s2.1.09,2.39,1.438Z" fill="#fff"/>
                  </g>
                </g>
              </g>
              <path id="Trazado_804141" data-name="Trazado 804141" d="M311.34,424.395c.07.2-.884.671-1.612,1.681-.754.992-.926,2.041-1.138,2.033-.2.032-.358-1.264.545-2.472s2.178-1.44,2.2-1.242" fill="#263238"/>
              <path id="Trazado_804142" data-name="Trazado 804142" d="M316.263,424.516c.119.174-.608.84-.957,1.935-.382,1.085-.2,2.054-.4,2.121-.174.1-.757-1-.3-2.355s1.579-1.888,1.656-1.7" fill="#263238"/>
              <path id="Trazado_804143" data-name="Trazado 804143" d="M320.633,428.669c-.163.111-.819-.771-.728-2.049s.849-2.065,1-1.933c.174.12-.2.932-.261,1.983-.083,1.048.182,1.9-.007,2" fill="#263238"/>
              <path id="Trazado_804144" data-name="Trazado 804144" d="M309.145,419.761c-.013.212-1.025.289-2.114.8-1.1.484-1.823,1.194-1.992,1.064-.169-.1.4-1.157,1.688-1.736s2.455-.316,2.418-.123" fill="#263238"/>
              <path id="Trazado_804145" data-name="Trazado 804145" d="M154.935,400.931l-.455.594-8.761,11.439L134.867,420.4,149.4,448.4l16,.017s-1.155-3.846-8.853-5.837l-.505-15.365,13.82-15.181" fill="#9aa8ad"/>
              <g id="Grupo_1066390" data-name="Grupo 1066390" opacity="0.6">
                <g id="Grupo_1066389" data-name="Grupo 1066389">
                  <g id="Grupo_1066388" data-name="Grupo 1066388" clip-path="url(#clip-path-18)">
                    <path id="Trazado_804146" data-name="Trazado 804146" d="M134.867,420.4,149.4,448.4l16,.018-1.8-2.407-13.01-.729-13.412-26.457Z" fill="#fff"/>
                  </g>
                </g>
              </g>
              <path id="Trazado_804147" data-name="Trazado 804147" d="M156.447,435.538c-.119.163-1.041-.361-2.278-.327-1.238,0-2.146.548-2.269.388-.15-.121.752-1.079,2.259-1.092s2.435.906,2.288,1.031" fill="#263238"/>
              <path id="Trazado_804148" data-name="Trazado 804148" d="M156.191,431.727c-.16.113-.872-.832-2.148-1.081s-2.295.333-2.4.167c-.054-.072.13-.34.58-.585a2.994,2.994,0,0,1,3.659.736c.32.4.386.717.308.763" fill="#263238"/>
              <path id="Trazado_804149" data-name="Trazado 804149" d="M156.3,426.832c-.175.088-.72-.837-1.835-1.223-1.11-.4-2.114-.024-2.195-.2-.043-.081.16-.3.6-.469a2.775,2.775,0,0,1,3.253,1.15c.24.407.258.708.174.744" fill="#263238"/>
              <path id="Trazado_804150" data-name="Trazado 804150" d="M160.583,423.04c-.19.067-.639-.843-1.633-1.487-.974-.672-1.986-.74-2-.941-.054-.185,1.185-.457,2.388.356s1.434,2.051,1.242,2.072" fill="#263238"/>
              <g id="Grupo_1066393" data-name="Grupo 1066393" opacity="0.6">
                <g id="Grupo_1066392" data-name="Grupo 1066392">
                  <g id="Grupo_1066391" data-name="Grupo 1066391" clip-path="url(#clip-path-19)">
                    <path id="Trazado_804151" data-name="Trazado 804151" d="M147.631,419.927a1.9,1.9,0,1,1-1.9-1.9,1.9,1.9,0,0,1,1.9,1.9" fill="#fff"/>
                  </g>
                </g>
              </g>
              <path id="Trazado_804152" data-name="Trazado 804152" d="M208.216,285.737l49.47,72.5,26.743,63.4,22.649-12.11-22.9-63.491-33.65-66.695Z" fill="#263238"/>
              <path id="Trazado_804153" data-name="Trazado 804153" d="M187.788,279.34l-8.258,58.368-33.767,73.64,20.113,11.7,42.947-72.994,23.84-70.709Z" fill="#263238"/>
              <path id="Trazado_804154" data-name="Trazado 804154" d="M165.876,423.044a2.195,2.195,0,0,1,.175-.353l.56-1.011,2.2-3.859c1.94-3.366,4.724-8.192,8.157-14.146L204.044,357.1c1.731-2.964,3.434-5.883,5.052-8.654l-.022.049c5.89-17.735,11.1-33.426,14.849-44.714,1.885-5.6,3.4-10.114,4.458-13.252.525-1.531.936-2.726,1.224-3.566l.329-.921a1.751,1.751,0,0,1,.128-.308,1.735,1.735,0,0,1-.081.324c-.071.233-.165.542-.284.935-.268.847-.65,2.052-1.139,3.6-1.02,3.15-2.486,7.676-4.307,13.3-3.708,11.3-8.862,27.011-14.687,44.768l-.008.026-.014.023c-1.617,2.772-3.319,5.691-5.048,8.657L177.281,403.86c-3.494,5.919-6.326,10.717-8.3,14.063-.978,1.635-1.743,2.914-2.28,3.81l-.6.985a2.1,2.1,0,0,1-.221.326" fill="#455a64"/>
              <path id="Trazado_804155" data-name="Trazado 804155" d="M185.719,284.118c6.828,4.1,75.132-.874,75.132-.874l1.114-16.52-8.289-18.983-8.013-84.1,1.057-6.844-25.037-16.532v7.284c-15.015,2.259-23.1,31.666-23.1,31.666l-.523,60.248L181.4,280.306Z" fill="#92df98"/>
              <g id="Grupo_1066396" data-name="Grupo 1066396" opacity="0.3">
                <g id="Grupo_1066395" data-name="Grupo 1066395">
                  <g id="Grupo_1066394" data-name="Grupo 1066394" clip-path="url(#clip-path-20)">
                    <path id="Trazado_804156" data-name="Trazado 804156" d="M187.788,264.637a78.553,78.553,0,0,0,15.1,14.605c3.105,2.329,6.783,4.54,10.615,3.929,3.712-.592,6.464-3.647,8.894-6.514l13.674-16.126a6.62,6.62,0,0,0,1.764-3.073,4.275,4.275,0,0,0-1.914-3.958,9.317,9.317,0,0,0-4.354-1.428c-9.6-1.136-18.981,3.631-28.649,3.715-3.3.028-8.68-.629-11.8.454Z"/>
                  </g>
                </g>
              </g>
              <path id="Trazado_804157" data-name="Trazado 804157" d="M138.455,207.777C133.9,203.068,146.762,180.259,160.4,169a17.022,17.022,0,0,1,23.728,2.135l59.52,69.44-11.028,16.143L220.209,272.88a9.759,9.759,0,0,1-14.586,1.012Z" fill="#455a64"/>
              <path id="Trazado_804158" data-name="Trazado 804158" d="M231.48,149.338s-16.066-8.506-40.337,29.986l4.3,5.019s20.266-35.634,33.663-31.328-3.436,51.568-3.436,51.568,26.618-47.091,5.808-55.245" fill="#263238"/>
              <path id="Trazado_804159" data-name="Trazado 804159" d="M234.315,257.929,252.29,245s-6.042-6.052-13.326-13.791-16.891-17.356-16.891-17.356,21.461-62.525,3.706-61.614c0,0-14.586.755-21.4,24.127-2.825,9.695-6.627,29.916-9.1,42.043-1.15,5.64,2.7,9.81,7.625,12.977Z" fill="#92df98"/>
              <path id="Trazado_804160" data-name="Trazado 804160" d="M202.907,231.382a4.04,4.04,0,0,1-.649-.385,15.573,15.573,0,0,1-1.764-1.256,11.184,11.184,0,0,1-1.185-1.028l-.649-.623-.637-.734a13.329,13.329,0,0,1-2.337-3.912,9.829,9.829,0,0,1-.533-5.495c.375-1.937.776-4,1.2-6.176.842-4.353,1.758-9.142,2.822-14.15s2.2-9.76,3.392-14.036,2.444-8.078,3.58-11.237c1.156-3.152,2.187-5.666,2.943-7.384l.891-1.969a3.989,3.989,0,0,1,.343-.671,4.137,4.137,0,0,1-.247.713q-.3.758-.8,2.005c-.7,1.739-1.674,4.269-2.783,7.43-1.089,3.167-2.3,6.967-3.465,11.24s-2.283,9.015-3.345,14.018-1.992,9.785-2.86,14.133c-.438,2.172-.854,4.238-1.245,6.175a9.513,9.513,0,0,0,.456,5.277,15.292,15.292,0,0,0,4.592,6.268,20.5,20.5,0,0,0,1.694,1.326,4.115,4.115,0,0,1,.59.471" fill="#263238"/>
              <path id="Trazado_804161" data-name="Trazado 804161" d="M220.737,213.85a3.232,3.232,0,0,1,.518.438l1.416,1.328,5.138,4.956,16.812,16.488,7.842,7.762.2.193-.211.171c-2.533,2.06-5.02,3.783-7.247,5.306l-5.823,3.965c-1.618,1.123-2.884,2.041-3.741,2.683l-.984.734a1.647,1.647,0,0,1-.357.234,1.629,1.629,0,0,1,.3-.3c.211-.184.519-.46.937-.8.828-.683,2.069-1.642,3.665-2.8s3.552-2.516,5.762-4.06,4.671-3.287,7.171-5.343l-.016.365-7.863-7.741c-6.5-6.462-12.39-12.311-16.705-16.6l-5.022-5.073-1.346-1.4a3.291,3.291,0,0,1-.445-.513" fill="#263238"/>
              <path id="Trazado_804162" data-name="Trazado 804162" d="M232.617,182.76c.137.044-2.077,7.385-4.944,16.4s-5.3,16.282-5.441,16.238,2.076-7.383,4.945-16.4,5.3-16.281,5.44-16.237" fill="#263238"/>
              <path id="Trazado_804163" data-name="Trazado 804163" d="M221.855,215.032a14.631,14.631,0,0,1-1.689-.472,10.489,10.489,0,0,0-8,1.256,14.757,14.757,0,0,1-1.464.966c-.042-.036.363-.6,1.258-1.272a9.34,9.34,0,0,1,8.312-1.3,3.856,3.856,0,0,1,1.587.826" fill="#263238"/>
              <path id="Trazado_804164" data-name="Trazado 804164" d="M245.868,156.555c.044.042-.544.6-1.33,1.764a13.109,13.109,0,0,0-2.084,5.353l-.1.643-.316-.573a33.152,33.152,0,0,0-5.491-7.385,34.464,34.464,0,0,0-9.932-7c-2.851-1.3-4.755-1.765-4.725-1.864a6.9,6.9,0,0,1,1.342.287,29.588,29.588,0,0,1,3.533,1.24,32.392,32.392,0,0,1,10.153,6.972,31.528,31.528,0,0,1,5.509,7.544l-.412.069a12.569,12.569,0,0,1,2.312-5.433,10.679,10.679,0,0,1,1.086-1.246c.276-.261.436-.387.451-.371" fill="#263238"/>
              <path id="Trazado_804165" data-name="Trazado 804165" d="M249.176,281.414a5.128,5.128,0,0,1-1.809-.882,13.011,13.011,0,0,1-5.444-7.855,5.123,5.123,0,0,1-.192-2,16.244,16.244,0,0,0,7.445,10.74" fill="#263238"/>
              <path id="Trazado_804166" data-name="Trazado 804166" d="M198.4,200.468a.805.805,0,0,1-.184-.144l-.5-.459-1.9-1.8-6.9-6.692-10.19-9.974-2.94-2.888c-1.006-.983-2.007-2.007-3.109-2.941A12.91,12.91,0,0,0,169,173.253a6.26,6.26,0,0,0-4.318-.134,11.521,11.521,0,0,0-3.8,2.331c-1.124.981-2.176,2.035-3.2,3.064a73.033,73.033,0,0,0-5.537,6.3,78.694,78.694,0,0,0-11.657,20.661c-.419,1.054-.7,1.89-.9,2.45l-.239.637a.807.807,0,0,1-.1.212.74.74,0,0,1,.047-.228c.052-.177.114-.392.19-.654.175-.571.421-1.42.812-2.487a69.981,69.981,0,0,1,3.8-8.842,75.223,75.223,0,0,1,7.667-12.045,72.005,72.005,0,0,1,5.551-6.364c1.033-1.041,2.081-2.1,3.228-3.1a12,12,0,0,1,3.973-2.433,6.772,6.772,0,0,1,4.663.145A13.354,13.354,0,0,1,173,175.18c1.124.959,2.127,1.992,3.127,2.976l2.928,2.9,10.112,10.053,6.786,6.811,1.827,1.871.466.495a.8.8,0,0,1,.146.182" fill="#263238"/>
              <path id="Trazado_804167" data-name="Trazado 804167" d="M182.073,169.194a30.661,30.661,0,0,0-8.8.033,30.709,30.709,0,0,0-8.263,3.039,8.538,8.538,0,0,1,2.175-1.473,20.462,20.462,0,0,1,12.34-2.221,8.517,8.517,0,0,1,2.552.622" fill="#263238"/>
              <path id="Trazado_804168" data-name="Trazado 804168" d="M256.234,255.609c-2.145-.264-1.631,1.075-.558,2.533-3.258,3.234-6.739,7.131-11.215,8.153l-8.417-9.577,12.431-8.51,1.744,1.49a32.239,32.239,0,0,0,5.218,2.518,8.727,8.727,0,0,0,2.905.59,13.365,13.365,0,0,0,3.686-.253c1.084-.347,2.025.805,1.417,1.641s-3.574,1.862-7.211,1.415" fill="#ffbe9d"/>
              <path id="Trazado_804169" data-name="Trazado 804169" d="M256.9,256.721a8.171,8.171,0,0,1-1.3,2.045,23.962,23.962,0,0,1-9.139,7.172,8.121,8.121,0,0,1-2.295.777,45.592,45.592,0,0,0,6.985-4.21,45.51,45.51,0,0,0,5.749-5.784" fill="#455a64"/>
            </g>
          </g>
          <rect id="Rectángulo_374758" data-name="Rectángulo 374758" width="7.588" height="202.639" transform="translate(317.231 16.457)" fill="#455a64"/>
          <g id="Grupo_1066403" data-name="Grupo 1066403">
            <g id="Grupo_1066402" data-name="Grupo 1066402" clip-path="url(#clip-path)">
              <path id="Trazado_804170" data-name="Trazado 804170" d="M344.492,23.467A23.467,23.467,0,1,1,321.026,0a23.466,23.466,0,0,1,23.466,23.466" fill="#ffecd4"/>
              <path id="Trazado_804172" data-name="Trazado 804172" d="M326.1,48.786H315.576a1.38,1.38,0,0,1-1.38-1.38V47.3a1.38,1.38,0,0,1,1.38-1.38H326.1a1.38,1.38,0,0,1,1.38,1.38v.106a1.38,1.38,0,0,1-1.38,1.38" fill="#455a64"/>
              <path id="Trazado_804173" data-name="Trazado 804173" d="M328.613,381.889l-15.176.413V198.941h15.176Z" fill="#263238"/>
              <path id="Trazado_804174" data-name="Trazado 804174" d="M332.536,198.941H309.351a1.517,1.517,0,0,1-1.517-1.517v-.117a1.517,1.517,0,0,1,1.517-1.517h23.185a1.517,1.517,0,0,1,1.517,1.517v.117a1.517,1.517,0,0,1-1.517,1.517" fill="#263238"/>
            </g>
          </g>
        </g>
      </g>
    </g>
    <rect id="Rectángulo_375261" data-name="Rectángulo 375261" width="470" height="465" transform="translate(915 9113)" fill="none"/>
  </g>
</svg>
