<svg id="Grupo_1066625" data-name="Grupo 1066625" xmlns="http://www.w3.org/2000/svg" xmlns:xlink="http://www.w3.org/1999/xlink" width="392.098" height="369.466" viewBox="0 0 392.098 369.466">
  <defs>
    <clipPath id="clip-path">
      <rect id="Rectángulo_374918" data-name="Rectángulo 374918" width="392.098" height="369.466" fill="none"/>
    </clipPath>
    <clipPath id="clip-path-6">
      <rect id="Rectángulo_374908" data-name="Rectángulo 374908" width="17.38" height="18.156" fill="none"/>
    </clipPath>
    <clipPath id="clip-path-7">
      <rect id="Rectángulo_374909" data-name="Rectángulo 374909" width="5.872" height="15.95" fill="none"/>
    </clipPath>
    <clipPath id="clip-path-8">
      <rect id="Rectángulo_374910" data-name="Rectángulo 374910" width="14.759" height="21.851" fill="none"/>
    </clipPath>
    <clipPath id="clip-path-10">
      <rect id="Rectángulo_374912" data-name="Rectángulo 374912" width="75.261" height="50.923" fill="none"/>
    </clipPath>
    <clipPath id="clip-path-11">
      <rect id="Rectángulo_374913" data-name="Rectángulo 374913" width="3.157" height="14.499" fill="none"/>
    </clipPath>
  </defs>
  <g id="Grupo_1066624" data-name="Grupo 1066624" clip-path="url(#clip-path)">
    <rect id="Rectángulo_374877" data-name="Rectángulo 374877" width="14.222" height="32.778" transform="translate(23.563 303.944)" fill="#ebebeb"/>
    <rect id="Rectángulo_374878" data-name="Rectángulo 374878" width="14.222" height="32.778" transform="translate(71.824 303.944)" fill="#ebebeb"/>
    <rect id="Rectángulo_374879" data-name="Rectángulo 374879" width="14.222" height="62.615" transform="translate(47.693 274.107)" fill="#f5f5f5"/>
    <rect id="Rectángulo_374880" data-name="Rectángulo 374880" width="14.222" height="62.615" transform="translate(95.954 274.107)" fill="#f5f5f5"/>
    <rect id="Rectángulo_374881" data-name="Rectángulo 374881" width="14.222" height="60.823" transform="translate(120.085 275.9)" fill="#ebebeb"/>
    <rect id="Rectángulo_374882" data-name="Rectángulo 374882" width="14.222" height="60.823" transform="translate(168.346 275.9)" fill="#ebebeb"/>
    <rect id="Rectángulo_374883" data-name="Rectángulo 374883" width="14.222" height="60.823" transform="translate(216.608 275.9)" fill="#ebebeb"/>
    <rect id="Rectángulo_374884" data-name="Rectángulo 374884" width="14.222" height="92.742" transform="translate(144.215 243.981)" fill="#f5f5f5"/>
    <rect id="Rectángulo_374885" data-name="Rectángulo 374885" width="14.222" height="83.667" transform="translate(192.477 253.056)" fill="#f5f5f5"/>
    <rect id="Rectángulo_374886" data-name="Rectángulo 374886" width="14.222" height="60.823" transform="translate(287.893 275.9)" fill="#ebebeb"/>
    <rect id="Rectángulo_374887" data-name="Rectángulo 374887" width="14.222" height="49.15" transform="translate(263.762 287.572)" fill="#f5f5f5"/>
    <rect id="Rectángulo_374888" data-name="Rectángulo 374888" width="14.222" height="93.283" transform="translate(338.363 243.44)" fill="#ebebeb"/>
    <rect id="Rectángulo_374889" data-name="Rectángulo 374889" width="14.222" height="49.15" transform="translate(314.232 287.572)" fill="#f5f5f5"/>
    <rect id="Rectángulo_374890" data-name="Rectángulo 374890" width="14.222" height="49.15" transform="translate(362.521 287.572)" fill="#f5f5f5"/>
    <rect id="Rectángulo_374891" data-name="Rectángulo 374891" width="14.222" height="70.849" transform="translate(240.738 265.874)" fill="#ebebeb"/>
    <g id="Grupo_1066600" data-name="Grupo 1066600">
      <g id="Grupo_1066599" data-name="Grupo 1066599" clip-path="url(#clip-path)">
        <path id="Trazado_804998" data-name="Trazado 804998" d="M184.758,294.742a3.658,3.658,0,1,1-3.657-3.657,3.658,3.658,0,0,1,3.657,3.657" transform="translate(-30.944 -50.762)" fill="#e0e0e0"/>
        <path id="Trazado_804999" data-name="Trazado 804999" d="M180.47,300.755a6.644,6.644,0,1,1,6.644-6.644,6.652,6.652,0,0,1-6.644,6.644m0-12.752a6.109,6.109,0,1,0,6.109,6.109A6.115,6.115,0,0,0,180.47,288" transform="translate(-30.313 -50.131)" fill="#e0e0e0"/>
        <path id="Trazado_805000" data-name="Trazado 805000" d="M184.329,281.837l-.188-7.2,1.8.029-3.359-4.1-3.358,4.142,1.862.012.185,7.1Z" transform="translate(-31.254 -47.182)" fill="#ebebeb"/>
        <path id="Trazado_805001" data-name="Trazado 805001" d="M40.512,349.229a3.657,3.657,0,1,1-3.657-3.657,3.657,3.657,0,0,1,3.657,3.657" transform="translate(-5.789 -60.263)" fill="#e0e0e0"/>
        <path id="Trazado_805002" data-name="Trazado 805002" d="M36.224,355.409a6.644,6.644,0,1,1,6.645-6.644,6.651,6.651,0,0,1-6.645,6.644m0-12.752a6.109,6.109,0,1,0,6.109,6.109,6.115,6.115,0,0,0-6.109-6.109" transform="translate(-5.158 -59.662)" fill="#e0e0e0"/>
        <path id="Trazado_805003" data-name="Trazado 805003" d="M34.6,322.527l.2,7.487-1.87-.03,3.492,4.268,3.492-4.307-1.936-.012-.193-7.388Z" transform="translate(-5.741 -56.245)" fill="#ebebeb"/>
        <path id="Trazado_805004" data-name="Trazado 805004" d="M269.055,303.563l.2,7.487-1.87-.03,3.492,4.268,3.492-4.307-1.936-.012-.193-7.388Z" transform="translate(-46.628 -52.938)" fill="#ebebeb"/>
        <path id="Trazado_805005" data-name="Trazado 805005" d="M266.482,368.189,223.643,328c-27.14-13.1-69.048-32.419-73.934-32.146-5.474.323-109.361,41.291-148.93,57.05L0,350.953c5.821-2.319,142.652-56.788,149.585-57.2.047,0,.1,0,.15,0,7.6,0,68.054,29.087,74.968,32.426l.261.18,41.863,39.269c7.942-4.192,53.469-28.212,54.244-28.555.269-.119.992-.413,63.6-.408v2.1c-24.015-.017-60.112.054-62.856.284-2.376,1.2-36.542,19.221-54.668,28.787Z" transform="translate(0 -51.227)" fill="#e0e0e0"/>
        <path id="Trazado_805006" data-name="Trazado 805006" d="M274.5,332.315a3.658,3.658,0,1,1-3.657-3.657,3.657,3.657,0,0,1,3.657,3.657" transform="translate(-46.593 -57.314)" fill="#e0e0e0"/>
        <path id="Trazado_805007" data-name="Trazado 805007" d="M270.208,338.5a6.644,6.644,0,1,1,6.644-6.644,6.652,6.652,0,0,1-6.644,6.644m0-12.752a6.109,6.109,0,1,0,6.109,6.109,6.116,6.116,0,0,0-6.109-6.109" transform="translate(-45.962 -56.712)" fill="#e0e0e0"/>
        <path id="Trazado_805008" data-name="Trazado 805008" d="M392.289,345.528a3.657,3.657,0,1,1-3.658-3.657,3.657,3.657,0,0,1,3.658,3.657" transform="translate(-67.135 -59.618)" fill="#e0e0e0"/>
        <path id="Trazado_805009" data-name="Trazado 805009" d="M388,351.708a6.644,6.644,0,1,1,6.645-6.644A6.651,6.651,0,0,1,388,351.708m0-12.752a6.109,6.109,0,1,0,6.109,6.109A6.116,6.116,0,0,0,388,338.956" transform="translate(-66.504 -59.016)" fill="#e0e0e0"/>
        <path id="Trazado_805010" data-name="Trazado 805010" d="M386.663,319.974l.2,7.487-1.87-.03,3.492,4.268,3.492-4.307-1.936-.012-.193-7.388Z" transform="translate(-67.137 -55.8)" fill="#ebebeb"/>
        <path id="Trazado_805011" data-name="Trazado 805011" d="M394.891,229.512a32.012,32.012,0,1,1,32.522,31.638,32.129,32.129,0,0,1-32.522-31.638m47.312-.764a15.307,15.307,0,1,0-15.058,15.621A15.357,15.357,0,0,0,442.2,228.748" transform="translate(-68.863 -34.326)" fill="#f5f5f5"/>
        <path id="Trazado_805012" data-name="Trazado 805012" d="M394.892,229.513a32.127,32.127,0,0,1,31.493-32.671l.268,16.78a15.377,15.377,0,0,0,.491,30.749l.268,16.78a32.115,32.115,0,0,1-32.521-31.637" transform="translate(-68.864 -34.327)" fill="#e0e0e0"/>
        <path id="Trazado_805013" data-name="Trazado 805013" d="M429.557,193.715a36.575,36.575,0,0,1,37.451,36.434l-19.541.315c-.159-9.917-7.706-16.162-17.577-16Z" transform="translate(-74.909 -33.781)" fill="#ebebeb"/>
        <rect id="Rectángulo_374892" data-name="Rectángulo 374892" width="14.418" height="45.032" transform="translate(77.523 7.492)" fill="#ebebeb"/>
        <rect id="Rectángulo_374893" data-name="Rectángulo 374893" width="14.418" height="34.746" transform="translate(99.051 17.779)" fill="#ebebeb"/>
        <rect id="Rectángulo_374894" data-name="Rectángulo 374894" width="14.418" height="20.634" transform="translate(118.981 31.891)" fill="#ebebeb"/>
        <path id="Trazado_805014" data-name="Trazado 805014" d="M306.323,36.785V11.539a25.246,25.246,0,1,1-25.238,25.829Z" transform="translate(-49.018 -2.012)" fill="#ebebeb"/>
        <path id="Trazado_805015" data-name="Trazado 805015" d="M300.64,25.236l-25.246.57a26.631,26.631,0,0,1,7.153-18.177A25.952,25.952,0,0,1,300.247,0Z" transform="translate(-48.025)" fill="#f5f5f5"/>
        <path id="Trazado_805016" data-name="Trazado 805016" d="M32.254,207.585l17.671-14.007a22.55,22.55,0,1,1-26.631-6.686Z" transform="translate(-1.7 -32.592)" fill="#f5f5f5"/>
        <path id="Trazado_805017" data-name="Trazado 805017" d="M31.2,184.038l6.214,16.349,13.152-11.174S43.6,182.038,31.2,184.038" transform="translate(-5.441 -32.033)" fill="#e0e0e0"/>
      </g>
    </g>
    <g id="Grupo_1066602" data-name="Grupo 1066602">
      <g id="Grupo_1066601" data-name="Grupo 1066601" clip-path="url(#clip-path)">
        <path id="Trazado_805018" data-name="Trazado 805018" d="M373.207,432.787c0,.119-77.66.215-173.436.215-95.81,0-173.454-.1-173.454-.215s77.644-.215,173.454-.215c95.776,0,173.436.1,173.436.215" transform="translate(-4.589 -75.435)" fill="#263238"/>
      </g>
    </g>
    <g id="Grupo_1066604" data-name="Grupo 1066604">
      <g id="Grupo_1066603" data-name="Grupo 1066603" clip-path="url(#clip-path)">
        <path id="Trazado_805019" data-name="Trazado 805019" d="M262.966,267.824H199.713a4.381,4.381,0,0,1-4.382-4.381V224.714a4.382,4.382,0,0,1,4.382-4.382h63.253a4.382,4.382,0,0,1,4.382,4.382v38.729a4.381,4.381,0,0,1-4.382,4.381" transform="translate(-34.063 -38.423)" fill="#fff"/>
        <path id="Trazado_805020" data-name="Trazado 805020" d="M262.925,267.784c0-.013.2-.008.593-.064a4.2,4.2,0,0,0,1.626-.59,4.357,4.357,0,0,0,1.791-2.114c.457-1.037.262-2.372.3-3.83-.014-5.868-.036-14.339-.061-24.8q-.006-3.928-.013-8.22,0-1.071,0-2.165a13.3,13.3,0,0,0-.087-2.171,4.246,4.246,0,0,0-2.763-3.139,6.161,6.161,0,0,0-2.248-.233l-2.367,0-4.847,0-10.117.008-45.048.015a4.192,4.192,0,0,0-4.1,3.307,6.664,6.664,0,0,0-.095,1.43v1.472q0,1.47,0,2.929,0,5.838,0,11.494c0,7.535-.008,14.8-.012,21.728a4.768,4.768,0,0,0,.443,2.429,4.2,4.2,0,0,0,1.645,1.76,4.3,4.3,0,0,0,2.318.576l2.478,0,9.544.009,17.13.024,24.8.062,6.744.036,1.754.019c.4.007.6.02.6.02s-.2.013-.6.02l-1.754.019-6.744.036-24.8.062-17.13.024-9.544.009-2.478,0a4.645,4.645,0,0,1-2.494-.62,4.543,4.543,0,0,1-1.786-1.9,5.134,5.134,0,0,1-.483-2.587c0-6.924-.007-14.193-.012-21.728q0-5.652,0-11.494v-4.4a6.941,6.941,0,0,1,.1-1.511,4.576,4.576,0,0,1,4.476-3.613l45.048.015,10.117.008,4.847,0,2.367,0a6.457,6.457,0,0,1,2.354.255,4.56,4.56,0,0,1,2.961,3.381,13.209,13.209,0,0,1,.088,2.232q0,1.094,0,2.165-.007,4.287-.012,8.22c-.026,10.465-.047,18.937-.062,24.8q0,1.1-.009,2.073a4.6,4.6,0,0,1-.332,1.8,4.427,4.427,0,0,1-1.857,2.138,4.1,4.1,0,0,1-1.661.561,3.356,3.356,0,0,1-.6.026" transform="translate(-34.022 -38.382)" fill="#263238"/>
        <rect id="Rectángulo_374897" data-name="Rectángulo 374897" width="2.763" height="10.997" transform="translate(193.544 209.486)" fill="#1969d5"/>
        <rect id="Rectángulo_374898" data-name="Rectángulo 374898" width="2.763" height="12.591" transform="translate(170.463 207.892)" fill="#1969d5"/>
        <rect id="Rectángulo_374899" data-name="Rectángulo 374899" width="2.763" height="15.215" transform="translate(176.233 205.268)" fill="#1969d5"/>
        <rect id="Rectángulo_374900" data-name="Rectángulo 374900" width="2.763" height="14.381" transform="translate(182.003 206.103)" fill="#1969d5"/>
        <rect id="Rectángulo_374901" data-name="Rectángulo 374901" width="2.763" height="19.246" transform="translate(187.774 201.238)" fill="#1969d5"/>
        <rect id="Rectángulo_374902" data-name="Rectángulo 374902" width="2.763" height="19.152" transform="translate(199.314 201.331)" fill="#1969d5"/>
        <rect id="Rectángulo_374903" data-name="Rectángulo 374903" width="2.763" height="12.861" transform="translate(205.085 207.622)" fill="#1969d5"/>
        <rect id="Rectángulo_374904" data-name="Rectángulo 374904" width="2.763" height="18.308" transform="translate(210.856 202.175)" fill="#1969d5"/>
        <rect id="Rectángulo_374905" data-name="Rectángulo 374905" width="2.763" height="22.432" transform="translate(216.626 198.051)" fill="#1969d5"/>
        <rect id="Rectángulo_374906" data-name="Rectángulo 374906" width="2.763" height="18.402" transform="translate(222.397 202.081)" fill="#1969d5"/>
        <path id="Trazado_805021" data-name="Trazado 805021" d="M226.658,231.588c0,.119-4.906.215-10.957.215s-10.958-.1-10.958-.215,4.9-.215,10.958-.215,10.957.1,10.957.215" transform="translate(-35.705 -40.349)" fill="#263238"/>
      </g>
    </g>
    <g id="Grupo_1066615" data-name="Grupo 1066615">
      <g id="Grupo_1066614" data-name="Grupo 1066614" clip-path="url(#clip-path)">
        <path id="Trazado_805022" data-name="Trazado 805022" d="M330.755,184.93l2.97,3.712v-6.388h9.354s1.039,14.629.817,17.747a25.3,25.3,0,0,1-1.145,4.771,5.491,5.491,0,0,1-9.068,2.27,31.6,31.6,0,0,1-2.928-3.255c-4.158-5.346-11.065-18.367-11.065-18.367l7.2-4.352Z" transform="translate(-55.75 -31.576)" fill="#ffbe9d"/>
        <path id="Trazado_805023" data-name="Trazado 805023" d="M332.375,184.913a10.667,10.667,0,0,0,1.222,1.632c.788.978,1.882,2.326,3.132,3.784s2.43,2.741,3.346,3.611a6.752,6.752,0,0,0,1.589,1.288,15.6,15.6,0,0,0-1.367-1.506c-.851-.918-1.986-2.227-3.235-3.68a45.916,45.916,0,0,0-4.688-5.13" transform="translate(-57.962 -32.246)" fill="#eb996e"/>
        <path id="Trazado_805024" data-name="Trazado 805024" d="M387.813,81.19l.422,33.981c.072,5.778-1,14.281-10.145,13.978-7.911-.861-10.01-8.351-10.072-13.743-.029-2.559-.059-4.691-.079-4.954,0,0-8.66-.706-9.391-9.26-.353-4.134-.387-12.707-.329-20.464A15.99,15.99,0,0,1,373.05,64.91l.826-.06c8.946-.13,14.054,7.394,13.936,16.341" transform="translate(-62.465 -11.309)" fill="#ffbe9d"/>
        <path id="Trazado_805025" data-name="Trazado 805025" d="M370,119.217a20.738,20.738,0,0,0,10.907-4.11s-2.263,6.452-10.863,6.305Z" transform="translate(-64.523 -20.073)" fill="#eb996e"/>
        <path id="Trazado_805026" data-name="Trazado 805026" d="M375.933,88.009c.169.174,1.157-.623,2.59-.66,1.432-.06,2.5.664,2.654.481.073-.083-.1-.4-.571-.727a3.59,3.59,0,0,0-2.13-.6,3.451,3.451,0,0,0-2.057.748c-.431.359-.571.684-.487.762" transform="translate(-65.554 -15.084)" fill="#263238"/>
        <path id="Trazado_805027" data-name="Trazado 805027" d="M374.987,92.279a1.16,1.16,0,0,0,1.2,1.086,1.11,1.11,0,0,0,1.116-1.13,1.16,1.16,0,0,0-1.2-1.086,1.109,1.109,0,0,0-1.117,1.13" transform="translate(-65.393 -15.895)" fill="#263238"/>
        <path id="Trazado_805028" data-name="Trazado 805028" d="M370.866,98.079a8.731,8.731,0,0,0-2.165-.23c-.339-.01-.661-.054-.735-.279a1.717,1.717,0,0,1,.151-1.011q.385-1.255.807-2.631a44.022,44.022,0,0,0,1.742-6.855,44.216,44.216,0,0,0-2.29,6.7c-.267.923-.522,1.8-.764,2.644a1.951,1.951,0,0,0-.078,1.331.843.843,0,0,0,.588.451,2.257,2.257,0,0,0,.576.038,8.578,8.578,0,0,0,2.166-.155" transform="translate(-64.077 -15.184)" fill="#263238"/>
        <path id="Trazado_805029" data-name="Trazado 805029" d="M376.674,80.715c.139.318,1.285.078,2.659.149,1.375.041,2.5.373,2.663.068.07-.146-.144-.439-.61-.722a4.339,4.339,0,0,0-2.011-.566,4.292,4.292,0,0,0-2.043.4c-.485.244-.717.519-.657.67" transform="translate(-65.686 -13.888)" fill="#263238"/>
        <path id="Trazado_805030" data-name="Trazado 805030" d="M360.188,83.307c.15.259,1.269-.029,2.624-.07,1.356-.066,2.48.131,2.623-.14.063-.129-.16-.361-.632-.567a4.744,4.744,0,0,0-2-.331,4.874,4.874,0,0,0-1.993.491c-.466.243-.683.493-.617.617" transform="translate(-62.81 -14.334)" fill="#263238"/>
        <path id="Trazado_805031" data-name="Trazado 805031" d="M393.783,92.294c.14-.074,5.755-2.17,6,3.7s-5.7,4.9-5.717,4.731-.279-8.428-.279-8.428" transform="translate(-68.671 -16.021)" fill="#ffbe9d"/>
        <path id="Trazado_805032" data-name="Trazado 805032" d="M396.181,98.819c.025-.02.1.068.281.14a1.024,1.024,0,0,0,.765-.016,2.531,2.531,0,0,0,1.077-2.317,3.37,3.37,0,0,0-.346-1.451,1.181,1.181,0,0,0-.8-.754.521.521,0,0,0-.592.305c-.072.167-.03.282-.06.294s-.13-.093-.092-.338a.65.65,0,0,1,.215-.376.77.77,0,0,1,.559-.173,1.437,1.437,0,0,1,1.106.866,3.467,3.467,0,0,1,.421,1.62,2.656,2.656,0,0,1-1.387,2.6,1.1,1.1,0,0,1-.941-.117c-.187-.138-.224-.268-.2-.279" transform="translate(-69.088 -16.415)" fill="#eb996e"/>
        <path id="Trazado_805033" data-name="Trazado 805033" d="M373.265,104.526c-.064-.148,1.086-.492,1.893-1.57a6.569,6.569,0,0,0,.812-1.532c.171-.426.3-.694.364-.674s.045.307-.05.77a4.342,4.342,0,0,1-.755,1.716,3.51,3.51,0,0,1-1.5,1.147c-.447.182-.75.193-.766.143" transform="translate(-65.092 -17.569)" fill="#263238"/>
        <path id="Trazado_805034" data-name="Trazado 805034" d="M344.456,71.962a1.388,1.388,0,0,1,.651-.809,4.266,4.266,0,0,1,2.187-.355,12.354,12.354,0,0,0,6.433-1.955,28.821,28.821,0,0,1,2.994-3.629c2.593-2.673,4.727-4.493,6.933-5.381a19.867,19.867,0,0,1,10.6-.834c2.976.781,5.649,3.2,6.063,6.245,1.669-1.411,4.176-1.4,6.209-.582l.05-.022c2.265.807,3.551,3.2,4.219,5.508s.953,4.778,2.176,6.848c.256.433.559.951.336,1.4a.955.955,0,0,1-1,.436,2.809,2.809,0,0,1-1.053-.477l.757,1.814A5.353,5.353,0,0,1,389.552,80a52.483,52.483,0,0,1-1.61,6.088,3.491,3.491,0,0,0-2.4.589c-.793.713-1.148,2.055-2.465,1.546-.67-.259-1.282-1.666-1.507-2.35a33.383,33.383,0,0,1-1.446-14.132,10.75,10.75,0,0,0-3.314-2.392l.1.092c-2.391-.831-5.095-1.647-7.364-.525-1.759.871-2.793,2.7-4.109,4.154A13.431,13.431,0,0,1,355.87,77.5c-.126,2.409.076,5.813-.05,8.222l-2.027-3.859,0,.02c-.166-.282-.3-.567-.435-.853l-.045-.087v-.011a15.07,15.07,0,0,0-.678-1.371l-.023.021a1.5,1.5,0,0,1-2.2-2.012,3.4,3.4,0,0,1,.727-.731,2.378,2.378,0,0,1-2.268.588,1.868,1.868,0,0,1-1.321-1.847A1.589,1.589,0,0,1,348.5,74.3a5.357,5.357,0,0,1-3.051-.672c-.6-.343-1.194-.909-.989-1.667" transform="translate(-60.062 -10.221)" fill="#263238"/>
        <path id="Trazado_805035" data-name="Trazado 805035" d="M384.644,67.835a7.458,7.458,0,0,1,.859.785,6.144,6.144,0,0,1,1.314,2.841,10.771,10.771,0,0,1,.218,2.175c0,.788-.059,1.632-.12,2.521a22.5,22.5,0,0,0-.064,2.806,9.913,9.913,0,0,0,.193,1.48,3.08,3.08,0,0,0,.6,1.436,1.292,1.292,0,0,0,1.208.406,1.922,1.922,0,0,0,1.087-.614,4.437,4.437,0,0,0,.825-2.175l-.18.021a7.178,7.178,0,0,0,1.041,1.792,2.549,2.549,0,0,0,1.664.907,1.642,1.642,0,0,0,.883-.154,1.421,1.421,0,0,0,.6-.59,1.469,1.469,0,0,0,.182-.759,1.059,1.059,0,0,0-.275-.665l-.091.081a5.517,5.517,0,0,0,1.839,1.38,5.1,5.1,0,0,0,.57.221,1.015,1.015,0,0,0,.2.05,1.017,1.017,0,0,0-.193-.083c-.127-.052-.316-.128-.552-.248a5.693,5.693,0,0,1-1.774-1.4l-.091.082a1.1,1.1,0,0,1,.057,1.271,1.276,1.276,0,0,1-.542.522,1.481,1.481,0,0,1-.8.13,2.385,2.385,0,0,1-1.545-.861,7.07,7.07,0,0,1-1-1.754l-.123-.274-.056.3a4.3,4.3,0,0,1-.785,2.079,1.731,1.731,0,0,1-.973.549,1.089,1.089,0,0,1-1.026-.344,2.918,2.918,0,0,1-.558-1.343,9.863,9.863,0,0,1-.192-1.45,22.909,22.909,0,0,1,.053-2.783c.055-.888.112-1.736.1-2.535a10.664,10.664,0,0,0-.246-2.2,6.058,6.058,0,0,0-1.394-2.863,3.488,3.488,0,0,0-.916-.733" transform="translate(-67.077 -11.83)" fill="#455a64"/>
        <path id="Trazado_805036" data-name="Trazado 805036" d="M352.581,75.146s.021.022.069.059l.214.156a2.922,2.922,0,0,0,.362.232,4.462,4.462,0,0,0,.521.274,7.578,7.578,0,0,0,3.662.659,9.693,9.693,0,0,0,5.164-1.907A16.79,16.79,0,0,0,367.01,69.5c.622-1.036,1.129-2.1,1.689-3.08a11.324,11.324,0,0,1,1.912-2.6,5.841,5.841,0,0,1,2.465-1.5,4.177,4.177,0,0,1,1.3-.15,4.621,4.621,0,0,1,1.191.229,4.95,4.95,0,0,1,2.749,2.327,5.884,5.884,0,0,1,.442,1.283.283.283,0,0,0-.007-.089c-.011-.071-.024-.157-.04-.262a4.3,4.3,0,0,0-.324-.967,4.872,4.872,0,0,0-.959-1.3,5.008,5.008,0,0,0-1.815-1.127,4.717,4.717,0,0,0-1.228-.249,4.306,4.306,0,0,0-1.353.144,5.982,5.982,0,0,0-2.549,1.524,11.444,11.444,0,0,0-1.954,2.64c-.566.988-1.073,2.048-1.69,3.074a16.812,16.812,0,0,1-4.373,5.068,9.639,9.639,0,0,1-5.065,1.915,7.693,7.693,0,0,1-3.621-.589,12.316,12.316,0,0,1-1.2-.65" transform="translate(-61.486 -10.815)" fill="#455a64"/>
        <path id="Trazado_805037" data-name="Trazado 805037" d="M351.638,73.364a1.336,1.336,0,0,0,.307.214,6.6,6.6,0,0,0,.908.462,8.865,8.865,0,0,0,1.439.472,9.289,9.289,0,0,0,3.692.118,8.821,8.821,0,0,0,1.466-.379,6.636,6.636,0,0,0,.936-.4,1.33,1.33,0,0,0,.32-.193c-.017-.034-.49.209-1.3.462a10.027,10.027,0,0,1-1.451.332,10,10,0,0,1-3.623-.116,10.1,10.1,0,0,1-1.427-.424c-.793-.3-1.249-.577-1.268-.544" transform="translate(-61.321 -12.793)" fill="#455a64"/>
        <path id="Trazado_805038" data-name="Trazado 805038" d="M360.107,88.009c.17.174,1.157-.623,2.592-.66,1.431-.059,2.5.664,2.653.479.074-.082-.1-.4-.57-.726a3.59,3.59,0,0,0-2.13-.6,3.451,3.451,0,0,0-2.057.748c-.431.359-.571.684-.488.762" transform="translate(-62.794 -15.084)" fill="#263238"/>
        <path id="Trazado_805039" data-name="Trazado 805039" d="M360.478,92.279a1.16,1.16,0,0,0,1.2,1.086,1.109,1.109,0,0,0,1.115-1.13,1.159,1.159,0,0,0-1.2-1.086,1.109,1.109,0,0,0-1.117,1.13" transform="translate(-62.863 -15.895)" fill="#263238"/>
        <path id="Trazado_805040" data-name="Trazado 805040" d="M411.286,397.838l1.775,21.365,6.276,16.493a2.2,2.2,0,0,1-3.392,2.523c-3.585-2.775-16.507-12.974-16.651-14.3-.187-1.721-3.48-22.728-3.48-22.728Z" transform="translate(-69.025 -69.378)" fill="#455a64"/>
        <path id="Trazado_805041" data-name="Trazado 805041" d="M418.584,443.574l-18.984-17.1.186,1.583c.128.866.142,1.336.712,1.877A184.531,184.531,0,0,0,416.4,443.576a2.441,2.441,0,0,0,2.18,0" transform="translate(-69.685 -74.372)" fill="#263238"/>
        <path id="Trazado_805042" data-name="Trazado 805042" d="M403.738,418.377a1.33,1.33,0,0,1,.545,1.688,1.277,1.277,0,0,1-1.668.555,1.4,1.4,0,0,1-.568-1.79,1.325,1.325,0,0,1,1.8-.385" transform="translate(-70.087 -72.934)" fill="#fff"/>
        <path id="Trazado_805043" data-name="Trazado 805043" d="M415.488,435.938c.127.046.489-1.121,1.693-1.857a6.7,6.7,0,0,1,2.405-.73c.012-.055-.275-.192-.781-.209a3.5,3.5,0,0,0-3.17,2c-.2.465-.2.784-.147.8" transform="translate(-72.451 -75.534)" fill="#263238"/>
        <path id="Trazado_805044" data-name="Trazado 805044" d="M417.7,439.406c.111.081.722-.684,1.791-1.117a17.788,17.788,0,0,1,2.053-.49,2.433,2.433,0,0,0-2.235.055c-1.215.5-1.726,1.506-1.609,1.551" transform="translate(-72.838 -76.309)" fill="#263238"/>
        <path id="Trazado_805045" data-name="Trazado 805045" d="M411.6,431.813a21.741,21.741,0,0,1,2.648-1.91,21.973,21.973,0,0,1,3.084-1.073,6.007,6.007,0,0,0-5.731,2.984" transform="translate(-71.776 -74.768)" fill="#263238"/>
        <path id="Trazado_805046" data-name="Trazado 805046" d="M410.288,424.385c.071.122,1.2-.5,2.723-.713,1.524-.239,2.78.021,2.812-.116a5.451,5.451,0,0,0-5.535.829" transform="translate(-71.549 -73.789)" fill="#263238"/>
        <path id="Trazado_805047" data-name="Trazado 805047" d="M409.465,416.795a6.975,6.975,0,0,1,5.717-.408c.03-.049-.231-.291-.753-.523a4.786,4.786,0,0,0-4.293.306c-.483.3-.708.581-.67.625" transform="translate(-71.405 -72.457)" fill="#263238"/>
        <path id="Trazado_805048" data-name="Trazado 805048" d="M411.974,413.8a1.84,1.84,0,0,0-.056-.809,5.636,5.636,0,0,0-.865-2.044,2.5,2.5,0,0,0-1.191-1.073.884.884,0,0,0-.968.3,1.434,1.434,0,0,0-.235,1,3.106,3.106,0,0,0,3.009,2.57,3.6,3.6,0,0,0,3.319-2.247,1.247,1.247,0,0,0-.051-1.039.866.866,0,0,0-.949-.361,3.072,3.072,0,0,0-1.327.879,6.287,6.287,0,0,0-1.28,1.811,1.924,1.924,0,0,0-.249.772,10,10,0,0,1,1.758-2.341,2.864,2.864,0,0,1,1.176-.738.461.461,0,0,1,.518.193.856.856,0,0,1-.007.685,3.214,3.214,0,0,1-2.9,1.915,2.694,2.694,0,0,1-2.586-2.144,1.039,1.039,0,0,1,.135-.7.478.478,0,0,1,.532-.173,2.259,2.259,0,0,1,1.025.89,8.335,8.335,0,0,1,1.193,2.661" transform="translate(-71.263 -71.47)" fill="#263238"/>
        <path id="Trazado_805049" data-name="Trazado 805049" d="M349.572,399.134l.791,18.092s-18.125,6.881-18.3,10.238l35.136-.274-.076-28.241Z" transform="translate(-57.907 -69.572)" fill="#455a64"/>
        <path id="Trazado_805050" data-name="Trazado 805050" d="M367.014,419.129a1.434,1.434,0,0,1,1,1.63,1.379,1.379,0,0,1-1.607,1.011,1.514,1.514,0,0,1-1.055-1.732,1.432,1.432,0,0,1,1.788-.865" transform="translate(-63.705 -73.081)" fill="#e0e0e0"/>
        <path id="Trazado_805051" data-name="Trazado 805051" d="M367.191,432.556l-.119-2.847-33.643,1.327s-1.56.694-1.374,1.793Z" transform="translate(-57.904 -74.936)" fill="#263238"/>
        <path id="Trazado_805052" data-name="Trazado 805052" d="M353.538,420.843c.007.172.865.243,1.714.788.863.523,1.3,1.263,1.461,1.194.158-.035-.106-1.058-1.145-1.7s-2.069-.438-2.03-.281" transform="translate(-61.652 -73.361)" fill="#263238"/>
        <path id="Trazado_805053" data-name="Trazado 805053" d="M349.089,422.743c-.038.166.708.452,1.3,1.173.609.7.762,1.488.933,1.479.162.026.272-.98-.476-1.863s-1.75-.953-1.753-.789" transform="translate(-60.876 -73.709)" fill="#263238"/>
        <path id="Trazado_805054" data-name="Trazado 805054" d="M346.3,427.5c.156.036.388-.824-.059-1.76s-1.253-1.3-1.325-1.16c-.1.142.429.642.785,1.416.374.765.428,1.489.6,1.5" transform="translate(-60.147 -74.036)" fill="#263238"/>
        <path id="Trazado_805055" data-name="Trazado 805055" d="M353.873,415.725c.073.156.859-.087,1.829-.029.972.039,1.729.358,1.816.211.1-.125-.643-.754-1.787-.807s-1.943.491-1.858.625" transform="translate(-61.71 -72.388)" fill="#263238"/>
        <path id="Trazado_805056" data-name="Trazado 805056" d="M345.863,240.85c.02,1.048,4.081,145.64,4.081,145.64h21.719l4.4-123.688s5.138,64.671,5.138,66.068,4.533,58.316,4.533,58.316l20.136-1.643-1.32-130.225-2.46-19.092Z" transform="translate(-60.314 -41.195)" fill="#263238"/>
        <path id="Trazado_805057" data-name="Trazado 805057" d="M384.278,259.588a3.978,3.978,0,0,1-.882.371c-.576.211-1.415.5-2.452.852l-.2.067-.014-.2c-.121-1.74-.258-4.066-.385-6.615-.138-2.764-.239-5.267-.291-7.08-.026-.907-.04-1.64-.039-2.147a2.813,2.813,0,0,1,.044-.79,2.828,2.828,0,0,1,.123.783c.051.505.111,1.237.176,2.142.129,1.809.278,4.31.416,7.073.127,2.55.224,4.877.277,6.62l-.211-.137c1.049-.315,1.9-.562,2.5-.725a4.038,4.038,0,0,1,.939-.209" transform="translate(-66.27 -42.558)" fill="#455a64"/>
        <path id="Trazado_805058" data-name="Trazado 805058" d="M382.976,244.576c-.014-.019.07-.116.288-.189a1.33,1.33,0,0,1,.959.083,1.2,1.2,0,0,1,.727,1.188,1.456,1.456,0,0,1-1.156,1.28,1.587,1.587,0,0,1-1.6-.725,1.293,1.293,0,0,1,.017-1.373,1.446,1.446,0,0,1,.718-.6c.214-.075.342-.063.346-.04.032.061-.49.166-.794.774a1.026,1.026,0,0,0,.052,1.044,1.217,1.217,0,0,0,1.177.519,1.105,1.105,0,0,0,.846-.915.9.9,0,0,0-.48-.9,1.7,1.7,0,0,0-1.1-.147" transform="translate(-66.617 -42.582)" fill="#455a64"/>
        <path id="Trazado_805059" data-name="Trazado 805059" d="M395.168,245.856c-.118.012-.282-.615-.367-1.4s-.059-1.431.06-1.442.282.615.367,1.4.058,1.43-.06,1.442" transform="translate(-68.84 -42.379)" fill="#455a64"/>
        <path id="Trazado_805060" data-name="Trazado 805060" d="M397.033,245.65c-.119,0-.218-.667-.223-1.491s.089-1.493.208-1.494.218.667.222,1.491-.088,1.493-.207,1.494" transform="translate(-69.199 -42.318)" fill="#455a64"/>
        <path id="Trazado_805061" data-name="Trazado 805061" d="M365.268,246.77a6.925,6.925,0,0,1-.393-3.4,6.925,6.925,0,0,1,.393,3.4" transform="translate(-63.613 -42.44)" fill="#455a64"/>
        <path id="Trazado_805062" data-name="Trazado 805062" d="M367.469,246.905a3.7,3.7,0,0,1-.153-3.553,62.789,62.789,0,0,0,.153,3.553" transform="translate(-63.989 -42.437)" fill="#455a64"/>
        <path id="Trazado_805063" data-name="Trazado 805063" d="M357.236,245.316a2.041,2.041,0,0,1-.073.637,12.421,12.421,0,0,1-.437,1.695,17.956,17.956,0,0,1-2.689,5.153,18.832,18.832,0,0,1-4.242,4.1,13.692,13.692,0,0,1-1.542.947,2.369,2.369,0,0,1-.61.274c-.035-.056.788-.519,1.986-1.427a21.321,21.321,0,0,0,4.093-4.112,20.434,20.434,0,0,0,2.745-5.021c.511-1.373.7-2.264.769-2.251" transform="translate(-60.624 -42.78)" fill="#455a64"/>
        <path id="Trazado_805064" data-name="Trazado 805064" d="M413.517,255.279a2.107,2.107,0,0,1-.658.1,10.3,10.3,0,0,1-1.819-.034,11.921,11.921,0,0,1-5.563-2.057,11.08,11.08,0,0,1-3.707-4.448,8.944,8.944,0,0,1-.569-1.641,1.834,1.834,0,0,1-.09-.628c.069-.017.253.869.907,2.161a11.753,11.753,0,0,0,3.688,4.26,12.581,12.581,0,0,0,5.369,2.1c1.492.214,2.438.121,2.441.188" transform="translate(-69.947 -42.999)" fill="#455a64"/>
        <path id="Trazado_805065" data-name="Trazado 805065" d="M369.909,344.948c-.027.1-3.627-.73-8.039-1.849s-7.967-2.105-7.94-2.2,3.626.73,8.04,1.849,7.966,2.105,7.939,2.2" transform="translate(-61.721 -59.447)" fill="#455a64"/>
        <path id="Trazado_805066" data-name="Trazado 805066" d="M412.673,339.431c.052.088-3.081,1.83-7,3.887s-7.132,3.655-7.184,3.567,3.08-1.829,7-3.888,7.131-3.654,7.183-3.566" transform="translate(-69.492 -59.192)" fill="#455a64"/>
        <path id="Trazado_805067" data-name="Trazado 805067" d="M358.941,130.264l9.865-3.869,18.173-1.029,8.542,3.248-11.7,6.5-10.092-.37Z" transform="translate(-62.595 -21.862)" fill="#ffbe9d"/>
        <path id="Trazado_805068" data-name="Trazado 805068" d="M342.688,223.1c.893.154,60.436,2.682,60.436,2.682l-2.091-53.538-.172-10.512-3.383-31.845s-8.9-3.06-13.441-4.521c0,0-4.779,4.981-13.866,4.846-8.884-.131-10.74-2.134-10.74-2.134l-12.421,4.761s-8.832,3.167-10.352,7.075c-1.479,3.8-4.19,25.529-4.19,25.529h12.875l-.244,38.377Z" transform="translate(-57.978 -21.862)" fill="#59bee2"/>
        <g id="Grupo_1066607" data-name="Grupo 1066607" transform="translate(322.147 129.113)" opacity="0.2">
          <g id="Grupo_1066606" data-name="Grupo 1066606">
            <g id="Grupo_1066605" data-name="Grupo 1066605" clip-path="url(#clip-path-6)">
              <path id="Trazado_805069" data-name="Trazado 805069" d="M390.192,157.055l1.846,13.5,8.931,3.989,6.6-5.627V156.385Z" transform="translate(-390.192 -156.384)"/>
            </g>
          </g>
        </g>
        <path id="Trazado_805070" data-name="Trazado 805070" d="M407.458,161.791c0,.112-3.712.2-8.29.2s-8.291-.091-8.291-.2,3.711-.2,8.291-.2,8.29.091,8.29.2" transform="translate(-68.164 -28.179)" fill="#263238"/>
        <path id="Trazado_805071" data-name="Trazado 805071" d="M339.987,149.744a1.672,1.672,0,0,1,.095.355c.061.267.14.608.238,1.034a34.065,34.065,0,0,0,1.186,3.8c.593,1.6,1.431,3.474,2.455,5.582.969,2.147,1.846,4.618,2.763,7.3l.01.027v.031c-.021,3.207-.045,6.717-.07,10.385-.086,8.187-.164,15.6-.221,21.006-.047,2.658-.085,4.822-.111,6.364-.021.723-.038,1.3-.05,1.73a3.4,3.4,0,0,1-.044.6,3.553,3.553,0,0,1-.034-.6c-.006-.432-.013-1.008-.022-1.732,0-1.542-.007-3.708-.012-6.366.028-5.409.066-12.818.108-21,.034-3.667.065-7.176.094-10.382l.009.058c-.9-2.672-1.76-5.152-2.7-7.282a59.982,59.982,0,0,1-2.388-5.634,29.231,29.231,0,0,1-1.091-3.849c-.088-.457-.152-.809-.182-1.049a1.743,1.743,0,0,1-.036-.367" transform="translate(-59.289 -26.114)" fill="#263238"/>
        <path id="Trazado_805072" data-name="Trazado 805072" d="M416.168,142.157a6.78,6.78,0,0,1-.012,1.143c-.03.8-.069,1.849-.116,3.108-.106,2.692-.248,6.284-.405,10.254-.179,3.971-.342,7.563-.464,10.255-.073,1.258-.132,2.3-.178,3.107a6.356,6.356,0,0,1-.118,1.137,6.455,6.455,0,0,1-.032-1.143c.014-.8.033-1.851.055-3.111.066-2.627.185-6.255.352-10.261s.348-7.63.518-10.252c.085-1.312.168-2.373.239-3.1a6.182,6.182,0,0,1,.161-1.133" transform="translate(-72.343 -24.79)" fill="#263238"/>
        <g id="Grupo_1066610" data-name="Grupo 1066610" transform="translate(280.706 125.576)" opacity="0.3">
          <g id="Grupo_1066609" data-name="Grupo 1066609">
            <g id="Grupo_1066608" data-name="Grupo 1066608" clip-path="url(#clip-path-7)">
              <path id="Trazado_805073" data-name="Trazado 805073" d="M340.023,152.1a22.377,22.377,0,0,0,5.846,15.95c-1.211-5.523-4.235-10.664-5.846-15.95" transform="translate(-339.997 -152.1)"/>
            </g>
          </g>
        </g>
        <g id="Grupo_1066613" data-name="Grupo 1066613" transform="translate(306.883 156.728)" opacity="0.3">
          <g id="Grupo_1066612" data-name="Grupo 1066612">
            <g id="Grupo_1066611" data-name="Grupo 1066611" clip-path="url(#clip-path-8)">
              <path id="Trazado_805074" data-name="Trazado 805074" d="M371.7,211.683a11.145,11.145,0,0,0,7.146-3.976,33.788,33.788,0,0,0,4.8-6.949,27.4,27.4,0,0,0,2.815-10.925c-3.469,9.3-8.555,16.655-14.759,21.851" transform="translate(-371.704 -189.832)"/>
            </g>
          </g>
        </g>
        <path id="Trazado_805075" data-name="Trazado 805075" d="M387.007,184.92a1.15,1.15,0,0,1-.05.343c-.059.266-.13.585-.214.967-.092.421-.221.93-.4,1.515s-.358,1.257-.626,1.98a46.054,46.054,0,0,1-2.055,5,52.741,52.741,0,0,1-3.275,5.755,51.714,51.714,0,0,1-4.039,5.25,43.381,43.381,0,0,1-3.838,3.809c-.566.522-1.121.945-1.6,1.325s-.9.7-1.257.937l-.818.558a1.176,1.176,0,0,1-.3.173c-.007-.011.081-.092.255-.236l.773-.615c.343-.257.753-.583,1.21-.984s1-.83,1.553-1.361a48.054,48.054,0,0,0,3.753-3.841,55.582,55.582,0,0,0,3.984-5.228,56.909,56.909,0,0,0,3.278-5.7,51.387,51.387,0,0,0,2.117-4.936c.282-.713.484-1.375.676-1.952s.35-1.077.463-1.49c.112-.375.206-.687.284-.946a1.191,1.191,0,0,1,.125-.324" transform="translate(-64.268 -32.248)" fill="#263238"/>
        <path id="Trazado_805076" data-name="Trazado 805076" d="M382.993,164.625a2.892,2.892,0,0,1-.069.547c-.069.392-.16.909-.274,1.555-.115.676-.274,1.5-.516,2.444s-.461,2.033-.831,3.2q-.261.883-.546,1.847c-.193.641-.442,1.293-.674,1.976-.447,1.373-1.048,2.794-1.655,4.3a71.5,71.5,0,0,1-10.987,17.953c-1.063,1.226-2.056,2.407-3.075,3.43-.5.518-.97,1.035-1.453,1.5l-1.4,1.326c-.874.862-1.74,1.56-2.475,2.2s-1.391,1.162-1.941,1.572l-1.26.951a2.924,2.924,0,0,1-.455.31,3.016,3.016,0,0,1,.408-.372l1.213-1.006c.534-.428,1.18-.959,1.895-1.618s1.569-1.361,2.427-2.232l1.374-1.338c.476-.468.935-.989,1.431-1.508,1-1.029,1.983-2.213,3.035-3.438A74.086,74.086,0,0,0,378.1,180.355c.613-1.494,1.222-2.9,1.68-4.266.238-.678.493-1.324.693-1.96l.566-1.833c.386-1.161.63-2.24.884-3.178s.441-1.753.579-2.423l.344-1.538a3,3,0,0,1,.146-.533" transform="translate(-61.975 -28.709)" fill="#263238"/>
        <path id="Trazado_805077" data-name="Trazado 805077" d="M325.38,143.741c3.67,5.578,18.53,28.174,22.924,34.857a1.032,1.032,0,0,1-.994,1.59l-26.4-3.321a1.034,1.034,0,0,1-.705-.415l-25.216-34.439a1.033,1.033,0,0,1,.911-1.641l27.163,2.009a3.039,3.039,0,0,1,2.318,1.361" transform="translate(-51.407 -24.479)" fill="#e0e0e0"/>
        <path id="Trazado_805078" data-name="Trazado 805078" d="M325.343,143.7a1.813,1.813,0,0,0-.211-.316,2.956,2.956,0,0,0-.854-.72,3.719,3.719,0,0,0-1.759-.427l-2.456-.2L304.4,140.81l-5.189-.4-2.761-.211c-.244-.014-.449-.045-.728-.045a1.178,1.178,0,0,0-.76.315,1.212,1.212,0,0,0-.2,1.551l7.34,10.068,16.837,23.025c.384.518.725,1,1.14,1.541a1.256,1.256,0,0,0,.469.318,2.046,2.046,0,0,0,.512.1l.931.117,3.694.464,7.222.9,13.652,1.7c.283.031.518.075.838.093a1.213,1.213,0,0,0,.875-.364,1.252,1.252,0,0,0,.362-.868,1.451,1.451,0,0,0-.318-.846l-1.74-2.638-3.33-5.043-5.983-9.048c-3.659-5.511-6.625-9.977-8.689-13.083l-2.38-3.545-.628-.916a2.389,2.389,0,0,0-.227-.3,2.361,2.361,0,0,0,.189.329l.592.94c.54.84,1.317,2.046,2.312,3.591l8.572,13.16,5.937,9.078q1.6,2.446,3.312,5.055l1.733,2.643a1.044,1.044,0,0,1,.25.627.852.852,0,0,1-.249.586.81.81,0,0,1-.587.244c-.224-.012-.528-.063-.79-.092l-13.649-1.73-7.221-.911-3.693-.466-.931-.117a1.716,1.716,0,0,1-.409-.075.809.809,0,0,1-.3-.206l-1.107-1.5-16.865-23-7.361-10.026a.849.849,0,0,1,.138-1.089.818.818,0,0,1,.532-.223c.2,0,.462.028.687.04l2.761.2,5.191.37,15.669,1.089,2.459.162a3.676,3.676,0,0,1,1.726.374,3.482,3.482,0,0,1,1.107.959" transform="translate(-51.37 -24.441)" fill="#263238"/>
        <path id="Trazado_805079" data-name="Trazado 805079" d="M295.033,142.357a3.043,3.043,0,0,0,.553.083l1.6.162,5.966.529,20.287,1.656-.161-.093c1.27,1.887,2.58,3.846,3.9,5.869,5.353,8.229,10.03,15.793,13.561,21.175,1.756,2.7,3.216,4.855,4.232,6.341l1.191,1.7a4.478,4.478,0,0,0,.44.575,4.506,4.506,0,0,0-.367-.624l-1.122-1.742L341,171.57c-3.463-5.422-8.1-13.01-13.455-21.248-1.316-2.025-2.631-3.984-3.907-5.871l-.059-.086-.1-.007-20.3-1.507-5.976-.4-1.607-.089a3.033,3.033,0,0,0-.56,0" transform="translate(-51.45 -24.824)" fill="#263238"/>
        <path id="Trazado_805080" data-name="Trazado 805080" d="M314.856,148.323h0l-.011,0Z" transform="translate(-54.905 -25.865)" fill="#fff"/>
        <path id="Trazado_805081" data-name="Trazado 805081" d="M314.063,148.715a.533.533,0,0,1,.653-.394,1.421,1.421,0,0,1,.708.4.707.707,0,0,1,.129.9c-.264.326-.806.206-1.124-.068a.922.922,0,0,1-.367-.841" transform="translate(-54.766 -25.863)" fill="#fff"/>
        <path id="Trazado_805082" data-name="Trazado 805082" d="M325.711,171.84s1.042-2.483-1.6-2.8a91.581,91.581,0,0,0-9.585,0s-3.8.4-2.995,3.125c0,0-2.243,2-1.041,4.167s1.683,1.522,1.683,1.522-.32,2.644,1.683,3.044c0,0,2.171,2.564,4.171,2.4s10.492-4.247,11.052-5.048,1.362-1.257.882-2.151c0,0,1.041-2.345-1.2-2.7,0,0-.16-1.958-3.045-1.558" transform="translate(-54.083 -29.453)" fill="#ffbe9d"/>
        <path id="Trazado_805083" data-name="Trazado 805083" d="M314.41,173.32a7.218,7.218,0,0,0,1.787.128c1.1.023,2.625.025,4.307,0a25.561,25.561,0,0,0,4.326-.258c1.141-.264,1.588-.934,1.534-.948a4.541,4.541,0,0,1-1.6.643,42.634,42.634,0,0,1-4.269.122c-1.681.026-3.2.073-4.3.13a7.234,7.234,0,0,0-1.782.182" transform="translate(-54.829 -30.036)" fill="#eb996e"/>
        <path id="Trazado_805084" data-name="Trazado 805084" d="M316.7,177.541a1.334,1.334,0,0,0,.575.2,6.137,6.137,0,0,0,1.652.1,11.661,11.661,0,0,0,2.409-.437c.888-.244,1.83-.586,2.826-.892a12.662,12.662,0,0,1,2.844-.586,4.367,4.367,0,0,0,2.422-.49,1.388,1.388,0,0,0,.578-.826,1.141,1.141,0,0,0-.1-.75c-.209-.381-.493-.4-.485-.382-.022.035.2.115.329.452a1.035,1.035,0,0,1-.5,1.248,4.353,4.353,0,0,1-2.27.343,11.784,11.784,0,0,0-2.95.57l-2.81.922a13.444,13.444,0,0,1-2.324.517,15.161,15.161,0,0,1-2.2.009" transform="translate(-55.229 -30.252)" fill="#eb996e"/>
        <path id="Trazado_805085" data-name="Trazado 805085" d="M320.142,181.69a7.114,7.114,0,0,0,1.784-.345c1.086-.274,2.573-.7,4.2-1.23s3.075-1.07,4.113-1.491a7.063,7.063,0,0,0,1.642-.776c-.045-.116-2.654.792-5.892,1.849s-5.877,1.873-5.845,1.994" transform="translate(-55.829 -31.013)" fill="#eb996e"/>
        <path id="Trazado_805086" data-name="Trazado 805086" d="M319.318,185.521a3.9,3.9,0,0,0,1.48-.171,17.643,17.643,0,0,0,3.383-1.191c1.273-.579,2.384-1.171,3.189-1.6a5.286,5.286,0,0,0,1.267-.767A27.773,27.773,0,0,0,324,183.759c-2.5,1.2-4.7,1.647-4.681,1.762" transform="translate(-55.685 -31.701)" fill="#eb996e"/>
        <path id="Trazado_805087" data-name="Trazado 805087" d="M412.62,154.206s-5.4,21.626-12.142,29.608c-6.531,7.73-16.768,4.177-20.313-5.825s-9.86-32.847-9.86-32.847l7.757-5.93,13.4,25.971,6.039-17.7Z" transform="translate(-64.577 -24.277)" fill="#ffbe9d"/>
        <path id="Trazado_805088" data-name="Trazado 805088" d="M368.6,141.651l-5.688-8.244a14.818,14.818,0,0,1-2.423-.751c-.645-.377-1.279-3.652-1.266-4.291s-1.1-2.133-.651-2.554,1.976-.452,1.894-1.067c-.017-.131-1.13-1.5-.248-2.5a4.715,4.715,0,0,1,1.6-.681l-.092-3.146s1.7-3.714,3.435-2.37c0,0,6.546,5.029,7.206,5.832s3.178,11.275,3.624,13.24" transform="translate(-62.512 -20.186)" fill="#ffbe9d"/>
        <path id="Trazado_805089" data-name="Trazado 805089" d="M375.956,135.082a2.933,2.933,0,0,0-.088-.556c-.085-.4-.2-.921-.337-1.574-.306-1.365-.765-3.339-1.385-5.771-.314-1.215-.66-2.546-1.1-3.965-.116-.354-.227-.713-.378-1.078a2.429,2.429,0,0,0-.772-.949c-.6-.525-1.224-1.039-1.871-1.565-1.3-1.049-2.671-2.13-4.1-3.245a4.811,4.811,0,0,0-1.2-.79,1.64,1.64,0,0,0-1.476.351,6.741,6.741,0,0,0-1.745,2.356l-.02.039,0,.05c.009.3.018.633.028.963.021.736.043,1.465.064,2.183l.153-.2a7.577,7.577,0,0,0-1.153.388,1.693,1.693,0,0,0-.559.364,1.6,1.6,0,0,0-.317.582,1.953,1.953,0,0,0,.1,1.252,3.741,3.741,0,0,0,.257.541l.144.247.03.052c-.007-.009,0-.033-.006-.012a.091.091,0,0,1-.009.054c-.017.071-.17.168-.324.229s-.333.118-.508.172-.356.106-.537.178a1.06,1.06,0,0,0-.546.384.9.9,0,0,0-.015.67,4.2,4.2,0,0,0,.192.528c.142.334.3.648.417.96a1.308,1.308,0,0,1,.1.442,4.639,4.639,0,0,0,.051.537c.05.343.113.678.182,1.007a13.409,13.409,0,0,0,.534,1.9,2.393,2.393,0,0,0,.5.876,2.91,2.91,0,0,0,.887.39c.577.179,1.138.32,1.684.447l-.091-.062,4.212,5.987,1.168,1.621a4.137,4.137,0,0,0,.433.549,4.2,4.2,0,0,0-.36-.6l-1.1-1.668-4.1-6.062-.032-.048-.059-.015c-.537-.131-1.095-.278-1.655-.459a2.806,2.806,0,0,1-.766-.332,2.226,2.226,0,0,1-.4-.746,13.326,13.326,0,0,1-.5-1.852c-.064-.324-.124-.652-.169-.984a4.147,4.147,0,0,1-.045-.487,1.714,1.714,0,0,0-.118-.569c-.127-.343-.285-.659-.419-.981a3.846,3.846,0,0,1-.173-.479.58.58,0,0,1-.017-.387.845.845,0,0,1,.349-.209c.159-.062.334-.111.51-.165s.359-.107.546-.183a.913.913,0,0,0,.537-.442.47.47,0,0,0,.038-.22.311.311,0,0,0-.036-.147l-.04-.071-.141-.243a3.445,3.445,0,0,1-.23-.487,1.564,1.564,0,0,1-.087-1,1.169,1.169,0,0,1,.236-.431,1.37,1.37,0,0,1,.421-.261,7.317,7.317,0,0,1,1.086-.363l.158-.041,0-.16c-.021-.717-.042-1.447-.063-2.183-.01-.329-.02-.658-.029-.963l-.018.09a6.425,6.425,0,0,1,1.618-2.2,1.243,1.243,0,0,1,1.12-.291,4.706,4.706,0,0,1,1.073.722c1.437,1.109,2.816,2.183,4.114,3.221.649.519,1.28,1.029,1.87,1.541a2.1,2.1,0,0,1,.691.821c.144.34.26.7.377,1.044.446,1.4.807,2.728,1.138,3.937.628,2.393,1.14,4.341,1.507,5.736.169.646.306,1.164.409,1.556a3.021,3.021,0,0,0,.165.537" transform="translate(-62.471 -20.147)" fill="#eb996e"/>
        <path id="Trazado_805090" data-name="Trazado 805090" d="M362.532,122.755c0,.069.665.017,1.7.116a12.14,12.14,0,0,1,1.79.409,8.213,8.213,0,0,0,2.315.02,4.369,4.369,0,0,1,3.647,1.183,4.7,4.7,0,0,1,.88,1.4,2.16,2.16,0,0,0-.671-1.6,4.244,4.244,0,0,0-1.565-1.1,4.762,4.762,0,0,0-2.317-.291,8.869,8.869,0,0,1-2.214.018,9.875,9.875,0,0,0-1.841-.329,4.516,4.516,0,0,0-1.719.168" transform="translate(-63.221 -21.377)" fill="#eb996e"/>
        <path id="Trazado_805091" data-name="Trazado 805091" d="M365.307,122.221c.1.05.361-.334.327-.877s-.339-.892-.429-.831,0,.417.026.855-.03.808.076.853" transform="translate(-63.68 -21.015)" fill="#eb996e"/>
        <path id="Trazado_805092" data-name="Trazado 805092" d="M360.644,126.571a14.274,14.274,0,0,0,4.931-.386,4.9,4.9,0,0,1,1.812-.23,1.97,1.97,0,0,1,1.174.774,11.548,11.548,0,0,1,.647,1.251,2.2,2.2,0,0,0-.413-1.413,2.171,2.171,0,0,0-1.334-.976,4.756,4.756,0,0,0-1.972.2c-2.642.577-4.849.661-4.846.781" transform="translate(-62.892 -21.893)" fill="#eb996e"/>
        <path id="Trazado_805093" data-name="Trazado 805093" d="M359.591,130.162a2.649,2.649,0,0,0,1.212.006c.745-.083,1.744-.339,2.834-.553a6.405,6.405,0,0,1,1.526-.153,1.835,1.835,0,0,1,1.1.4,1.753,1.753,0,0,1,.536.962c.023,0,.079-.11.068-.334a1.381,1.381,0,0,0-.409-.836,2.006,2.006,0,0,0-1.262-.559,5.791,5.791,0,0,0-1.632.126c-1.122.22-2.093.517-2.809.669a5.8,5.8,0,0,0-1.163.275" transform="translate(-62.708 -22.509)" fill="#eb996e"/>
        <path id="Trazado_805094" data-name="Trazado 805094" d="M361.952,133.247c-.069.051.486.633,1.508.631l-.2-.174c.021.179.04.351.06.527a5.737,5.737,0,0,0,.466,2.078,5.726,5.726,0,0,0-.066-2.124c-.024-.175-.048-.345-.073-.523l-.026-.185-.176.011a6.947,6.947,0,0,1-1.493-.24" transform="translate(-63.119 -23.234)" fill="#eb996e"/>
        <path id="Trazado_805095" data-name="Trazado 805095" d="M408.53,130.843s11.056,2.679,11.033,17.34c-.023,14.6-3.339,21.9-3.339,21.9l-20.38-11.092,4.547-11.417Z" transform="translate(-69.03 -22.817)" fill="#59bee2"/>
        <path id="Trazado_805096" data-name="Trazado 805096" d="M416.168,170.735a2.01,2.01,0,0,1-.424-.185l-1.182-.6-4.344-2.289-14.532-7.829-.164-.089.067-.173c.349-.913.718-1.879,1.093-2.857l3.673-9.542,1.615-4.159a25.129,25.129,0,0,1,1.613-3.558,11.031,11.031,0,0,1,3.678-4.256,4.458,4.458,0,0,1,1.432-.574,2.687,2.687,0,0,1,.4-.052c.091,0,.137,0,.138,0a5.47,5.47,0,0,0-1.88.764,11.256,11.256,0,0,0-3.5,4.26,25.768,25.768,0,0,0-1.546,3.537l-1.578,4.173-3.642,9.553c-.376.979-.746,1.944-1.1,2.857l-.1-.263,14.465,7.953,4.282,2.4,1.146.666a1.962,1.962,0,0,1,.386.256" transform="translate(-68.974 -23.467)" fill="#263238"/>
      </g>
    </g>
    <g id="Grupo_1066623" data-name="Grupo 1066623">
      <g id="Grupo_1066622" data-name="Grupo 1066622" clip-path="url(#clip-path)">
        <path id="Trazado_805097" data-name="Trazado 805097" d="M89.127,380.65,69.985,398.158l21.661,23.926c2.159-2.208-4.458-18.741-4.458-18.741l11.958-11.565Z" transform="translate(-12.205 -66.381)" fill="#455a64"/>
        <path id="Trazado_805098" data-name="Trazado 805098" d="M83.557,398a1.319,1.319,0,0,0-1.727.334,1.268,1.268,0,0,0,.316,1.715,1.391,1.391,0,0,0,1.827-.363,1.314,1.314,0,0,0-.527-1.747" transform="translate(-14.234 -69.373)" fill="#fff"/>
        <path id="Trazado_805099" data-name="Trazado 805099" d="M69.986,401.465l2-1.849,19.952,23.8s.491,1.489-.372,2.042Z" transform="translate(-12.205 -69.688)" fill="#263238"/>
        <path id="Trazado_805100" data-name="Trazado 805100" d="M90.693,408.2c-.121.1-.7-.434-1.6-.669-.89-.258-1.664-.1-1.716-.246-.074-.128.782-.586,1.862-.283s1.583,1.126,1.452,1.2" transform="translate(-15.237 -70.958)" fill="#fff"/>
        <path id="Trazado_805101" data-name="Trazado 805101" d="M92.214,412.5c-.089.13-.746-.2-1.6-.146-.855.026-1.479.409-1.58.288-.117-.093.439-.787,1.5-.83s1.787.585,1.678.688" transform="translate(-15.524 -71.815)" fill="#fff"/>
        <path id="Trazado_805102" data-name="Trazado 805102" d="M90.807,417.423c-.149-.1.2-.739,1.227-1.053.91-.287,1.661.036,1.608.173-.036.154-.7.109-1.446.35-.75.223-1.273.636-1.39.53" transform="translate(-15.83 -72.59)" fill="#fff"/>
        <path id="Trazado_805103" data-name="Trazado 805103" d="M94.074,404.617c-.151.047-.475-.635-1.118-1.254s-1.317-.946-1.271-1.1c.023-.144.91-.034,1.656.707s.877,1.62.733,1.645" transform="translate(-15.988 -70.14)" fill="#fff"/>
        <path id="Trazado_805104" data-name="Trazado 805104" d="M96.94,400.252c-.047.045-.537-.352-1.079-1.2a7.305,7.305,0,0,1-.75-1.6,7.56,7.56,0,0,1-.258-1.019,1.972,1.972,0,0,1-.045-.617.686.686,0,0,1,.573-.616.864.864,0,0,1,.731.27,2.114,2.114,0,0,1,.344.505,5.718,5.718,0,0,1,.694,2.738,2.7,2.7,0,0,1-.335,1.586c-.087-.018.035-.62-.053-1.569a6.449,6.449,0,0,0-.365-1.614,6.047,6.047,0,0,0-.411-.879c-.163-.315-.356-.532-.528-.495-.064.016-.084.028-.111.148a1.6,1.6,0,0,0,.035.452,8.514,8.514,0,0,0,.211.961,8.955,8.955,0,0,0,.6,1.56,11.135,11.135,0,0,1,.741,1.394" transform="translate(-16.532 -68.916)" fill="#fff"/>
        <path id="Trazado_805105" data-name="Trazado 805105" d="M97.02,400.726c-.055-.025.154-.636.871-1.364a5.209,5.209,0,0,1,2.464-1.377,1.334,1.334,0,0,1,1.3.216.752.752,0,0,1,.119.8,2.171,2.171,0,0,1-.328.521,3.58,3.58,0,0,1-.807.731,3.717,3.717,0,0,1-1.7.609,2.086,2.086,0,0,1-1.593-.313,13.389,13.389,0,0,0,1.537-.071,3.719,3.719,0,0,0,1.469-.641,3.3,3.3,0,0,0,.673-.649c.22-.267.339-.548.227-.62a.925.925,0,0,0-.772-.064,5.309,5.309,0,0,0-.918.291,5.811,5.811,0,0,0-1.406.85c-.732.6-1.057,1.124-1.132,1.077" transform="translate(-16.918 -69.391)" fill="#fff"/>
        <path id="Trazado_805106" data-name="Trazado 805106" d="M87.572,401.082l.243,25.94,32.275-.137c-.2-3.082-16.925-9.2-16.925-9.2l.526-16.626Z" transform="translate(-15.271 -69.939)" fill="#455a64"/>
        <path id="Trazado_805107" data-name="Trazado 805107" d="M94.166,419.541a1.318,1.318,0,0,0-.9,1.508,1.267,1.267,0,0,0,1.487.91,1.39,1.39,0,0,0,.949-1.6,1.313,1.313,0,0,0-1.651-.775" transform="translate(-16.258 -73.153)" fill="#fff"/>
        <path id="Trazado_805108" data-name="Trazado 805108" d="M87.856,431.985l-.039-2.777,31.041,1.052s1.436.629,1.271,1.64Z" transform="translate(-15.314 -74.849)" fill="#263238"/>
        <path id="Trazado_805109" data-name="Trazado 805109" d="M106.471,420.963c0,.158-.793.233-1.565.742-.787.49-1.184,1.175-1.329,1.113-.145-.031.086-.973,1.033-1.574s1.895-.425,1.862-.281" transform="translate(-18.056 -73.386)" fill="#fff"/>
        <path id="Trazado_805110" data-name="Trazado 805110" d="M110.748,422.659c.036.153-.645.424-1.177,1.092-.552.653-.684,1.375-.84,1.368-.149.026-.262-.9.416-1.716s1.6-.895,1.6-.745" transform="translate(-18.941 -73.695)" fill="#fff"/>
        <path id="Trazado_805111" data-name="Trazado 805111" d="M113.507,426.994c-.143.034-.366-.752.036-1.617s1.137-1.211,1.2-1.08c.089.129-.387.594-.705,1.309-.335.707-.378,1.371-.534,1.388" transform="translate(-19.761 -73.987)" fill="#fff"/>
        <path id="Trazado_805112" data-name="Trazado 805112" d="M106.018,416.27c-.065.144-.789-.07-1.68-.006-.892.046-1.584.348-1.666.213-.092-.114.583-.7,1.632-.761s1.791.43,1.714.554" transform="translate(-17.903 -72.495)" fill="#fff"/>
        <path id="Trazado_805113" data-name="Trazado 805113" d="M86.2,221.862a46.058,46.058,0,0,0-6.744,9.484c-2.222,4.641-5.636,14.527-5.636,14.527s-4.252,15.1-3.3,22.217,7.31,55.795,7.31,55.795-1.251,38.591,4.191,55.759l1,4.554,18.195-3.231,4.031-95.526,11.1-63.159Z" transform="translate(-12.273 -38.69)" fill="#263238"/>
        <path id="Trazado_805114" data-name="Trazado 805114" d="M117.01,226.443c-.077.027-.051-.594-.7-1.048a1.344,1.344,0,0,0-1.247-.126,1.293,1.293,0,0,0,.041,2.415,1.346,1.346,0,0,0,1.242-.17c.632-.475.586-1.095.664-1.071.026,0,.071.132.043.384a1.485,1.485,0,0,1-.514.931,1.63,1.63,0,0,1-1.566.309,1.681,1.681,0,0,1-.055-3.177,1.635,1.635,0,0,1,1.576.254,1.486,1.486,0,0,1,.546.914c.037.25,0,.386-.03.385" transform="translate(-19.847 -39.201)" fill="#455a64"/>
        <path id="Trazado_805115" data-name="Trazado 805115" d="M133.742,235.07s6.673,60.559,7.633,70.957-36.789,65.862-36.789,65.862L88.659,353.07l24.3-45.173-8.183-45,10.774-40.6,16.751.2Z" transform="translate(-15.461 -38.767)" fill="#263238"/>
        <path id="Trazado_805116" data-name="Trazado 805116" d="M81.1,372.366a12.588,12.588,0,0,0,.13,1.324c.111.868.325,2.144.627,3.792.605,3.3,1.587,8.075,2.9,14.046l.027.124.126-.021,18.2-3.19.138-.024.006-.14c.505-12.488,1.11-27.414,1.759-43.421.671-17.223,1.294-33.193,1.8-46.295v.015l3.281-25.319c.381-3.025.679-5.4.886-7.038q.142-1.2.22-1.849c.047-.419.059-.636.059-.636s-.046.213-.11.629q-.094.65-.269,1.843c-.227,1.635-.557,4.006-.978,7.026-.824,6.086-2,14.783-3.425,25.3l0,.007v.008c-.532,13.1-1.179,29.069-1.878,46.291-.625,16.008-1.208,30.935-1.7,43.423l.144-.164-18.187,3.27.154.1c-1.352-5.96-2.374-10.73-3.023-14.015-.324-1.642-.56-2.913-.7-3.776-.074-.431-.116-.76-.146-.981s-.057-.333-.057-.333" transform="translate(-14.143 -45.992)" fill="#455a64"/>
        <path id="Trazado_805117" data-name="Trazado 805117" d="M114.476,247.164a6.352,6.352,0,0,1,1,.05,4.573,4.573,0,0,0,2.56-.437,2.373,2.373,0,0,0,1.03-1.378,9.619,9.619,0,0,0,.313-2.085c.13-1.51.258-3.172.374-4.918.234-3.492.362-6.659.441-8.951.039-1.077.072-1.986.1-2.716a4.46,4.46,0,0,1,.085-1,4.455,4.455,0,0,1,.083,1c.023.642.04,1.572.038,2.721,0,2.3-.082,5.474-.315,8.974-.116,1.749-.258,3.415-.409,4.926a9.5,9.5,0,0,1-.37,2.161,2.67,2.67,0,0,1-1.213,1.527,3.4,3.4,0,0,1-1.546.4,6.63,6.63,0,0,1-1.185-.063,3.461,3.461,0,0,1-.98-.215" transform="translate(-19.963 -39.365)" fill="#455a64"/>
        <path id="Trazado_805118" data-name="Trazado 805118" d="M140.552,235.741a6.4,6.4,0,0,1-1.739-.921,18.045,18.045,0,0,1-6.215-7.08,6.392,6.392,0,0,1-.688-1.844,24.395,24.395,0,0,0,8.642,9.844" transform="translate(-23.002 -39.393)" fill="#455a64"/>
        <path id="Trazado_805119" data-name="Trazado 805119" d="M72.992,153.643l7.251,26.335,3.206,14.011c0,12.072-3.206,17.572-3.206,17.572l49.362-2.463s.81-33.4,0-39.722l-6.012-21.87-15.654-3.842-19.542.374Z" transform="translate(-12.729 -25.053)" fill="#92df98"/>
        <path id="Trazado_805120" data-name="Trazado 805120" d="M155.092,198.9a3.138,3.138,0,0,1-.185-1.3,8.936,8.936,0,0,1,2.162-5.86,3.135,3.135,0,0,1,.985-.869,11.844,11.844,0,0,0-2.962,8.029" transform="translate(-27.014 -33.286)" fill="#263238"/>
        <path id="Trazado_805121" data-name="Trazado 805121" d="M164.777,174.1l-12.823,7.659-7.273-18.635a86.721,86.721,0,0,0-4.2-7.99c-4.259-7.474-9.666-7.082-9.666-7.082l-6.522,9.685,6.924,14.835s4.212,27.515,12.385,29.649c12.473,3.258,21.177-28.122,21.177-28.122" transform="translate(-21.675 -25.818)" fill="#92df98"/>
        <g id="Grupo_1066618" data-name="Grupo 1066618" transform="translate(63.041 152.062)" opacity="0.3">
          <g id="Grupo_1066617" data-name="Grupo 1066617">
            <g id="Grupo_1066616" data-name="Grupo 1066616" clip-path="url(#clip-path-10)">
              <path id="Trazado_805122" data-name="Trazado 805122" d="M76.356,235.1c5.809-.23,11.845-2.7,16.843-5.669s9.529-6.649,14.243-10.053c11.291-8.152,33.7-26.02,44.174-35.2l-3.035.684L78.093,230.483Z" transform="translate(-76.356 -184.181)"/>
            </g>
          </g>
        </g>
        <path id="Trazado_805123" data-name="Trazado 805123" d="M140.288,204.187a1.97,1.97,0,0,1-.04-.486c-.007-.366-.017-.828-.028-1.4-.006-1.269-.015-3.007-.025-5.129.021-4.382.051-10.338.083-16.92.007-1.655.062-3.264-.043-4.807a28.043,28.043,0,0,0-.607-4.413,22.993,22.993,0,0,0-3.032-6.874c-1.1-1.86-1.984-3.384-2.507-4.481-.263-.547-.448-.981-.564-1.28a2.184,2.184,0,0,1-.151-.464,2.012,2.012,0,0,1,.231.429c.14.286.349.706.633,1.238.566,1.068,1.479,2.558,2.618,4.4a22.638,22.638,0,0,1,3.158,6.941,27.9,27.9,0,0,1,.641,4.476c.111,1.568.06,3.189.052,4.837-.081,6.581-.154,12.536-.209,16.918-.046,2.122-.083,3.859-.112,5.128-.021.567-.039,1.029-.051,1.394a2.232,2.232,0,0,1-.048.485" transform="translate(-23.259 -27.542)" fill="#263238"/>
        <path id="Trazado_805124" data-name="Trazado 805124" d="M130.691,114.649a3.3,3.3,0,0,1-3.1-1.384,3.932,3.932,0,0,0,2.38-.131c.721-.367,1.129-1.428.564-2.008-.441-.452-1.167-.373-1.8-.419a3.889,3.889,0,0,1-3.306-2.537c-.533-1.531-.045-3.2.146-4.81a13.247,13.247,0,0,0-5.546-12.227L109.952,85.3c-3.657,4.68-4.8,10.987-4.038,16.878s3.257,11.427,6.261,16.551a19.675,19.675,0,0,0,3.042,4.186,7.793,7.793,0,0,0,4.532,2.325,4.676,4.676,0,0,0-.746-4.22,10.17,10.17,0,0,0,7.5-2.686l-2.161-1.657a7.891,7.891,0,0,0,6.352-2.033" transform="translate(-18.431 -14.876)" fill="#263238"/>
        <path id="Trazado_805125" data-name="Trazado 805125" d="M88.934,98.273a9.447,9.447,0,0,1,6.856-8.9l12.64-3.612c5.485-.751,9.353,5.913,9.871,11.425.575,6.124,1.006,12.592.42,17.193-1.179,9.251-8.2,10.64-8.2,10.64s.119,4.195.192,6.884l-.12,20.539L91.94,132.3,88.9,98.386c-.008-.158.02.1.029-.113" transform="translate(-15.504 -14.946)" fill="#ae7461"/>
        <path id="Trazado_805126" data-name="Trazado 805126" d="M122.076,107.917a1.181,1.181,0,0,1-1.1,1.227,1.13,1.13,0,0,1-1.249-1.028,1.18,1.18,0,0,1,1.1-1.226,1.13,1.13,0,0,1,1.251,1.027" transform="translate(-20.878 -18.64)" fill="#263238"/>
        <path id="Trazado_805127" data-name="Trazado 805127" d="M121.974,103.784c-.142.159-1.057-.476-2.327-.433-1.27.024-2.182.707-2.325.555-.07-.067.071-.349.467-.657a3.243,3.243,0,0,1,1.855-.635,3.11,3.11,0,0,1,1.858.537c.4.287.542.562.471.633" transform="translate(-20.457 -17.894)" fill="#263238"/>
        <path id="Trazado_805128" data-name="Trazado 805128" d="M108.6,107.935a1.181,1.181,0,0,1-1.1,1.226,1.129,1.129,0,0,1-1.249-1.027,1.182,1.182,0,0,1,1.1-1.227,1.13,1.13,0,0,1,1.251,1.028" transform="translate(-18.528 -18.642)" fill="#263238"/>
        <path id="Trazado_805129" data-name="Trazado 805129" d="M107.358,104.2c-.142.159-1.058-.476-2.327-.433-1.27.024-2.182.707-2.325.555-.069-.066.069-.349.468-.657a3.247,3.247,0,0,1,1.855-.635,3.114,3.114,0,0,1,1.858.537c.4.287.541.562.471.633" transform="translate(-17.908 -17.967)" fill="#263238"/>
        <path id="Trazado_805130" data-name="Trazado 805130" d="M113.307,114.165a8.507,8.507,0,0,1,2.052-.435c.323-.043.628-.117.676-.34a1.656,1.656,0,0,0-.246-.955q-.494-1.163-1.035-2.441a42.494,42.494,0,0,1-2.354-6.4,42.672,42.672,0,0,1,2.862,6.19q.521,1.287,1,2.458a1.873,1.873,0,0,1,.207,1.268.814.814,0,0,1-.518.491,2.24,2.24,0,0,1-.549.092,8.123,8.123,0,0,1-2.091.067" transform="translate(-19.599 -18.066)" fill="#263238"/>
        <path id="Trazado_805131" data-name="Trazado 805131" d="M100.184,129.78s3.177,6.238,12.364,5.093l-.059-2.166a23.211,23.211,0,0,1-12.306-2.928" transform="translate(-17.471 -22.632)" fill="#6f4439"/>
        <path id="Trazado_805132" data-name="Trazado 805132" d="M106.481,99.3c-.115.349-1.388.225-2.873.45-1.49.2-2.678.669-2.886.366-.093-.146.107-.477.582-.826a5.055,5.055,0,0,1,4.387-.622c.554.2.838.466.789.632" transform="translate(-17.561 -17.163)" fill="#263238"/>
        <path id="Trazado_805133" data-name="Trazado 805133" d="M121.409,99.073c-.215.3-1.1.024-2.152.042-1.053-.019-1.938.253-2.152-.042-.095-.144.037-.438.418-.722a3.118,3.118,0,0,1,3.468,0c.381.285.512.58.418.722" transform="translate(-20.416 -17.059)" fill="#263238"/>
        <path id="Trazado_805134" data-name="Trazado 805134" d="M107.722,119.126a1.658,1.658,0,0,1,1.677-1.308,1.731,1.731,0,0,1,1.36.91,2.127,2.127,0,0,1,.123,1.656l-.023.12a1.888,1.888,0,0,1-2.112.513,1.765,1.765,0,0,1-1.025-1.891" transform="translate(-18.781 -20.545)" fill="#6f4439"/>
        <path id="Trazado_805135" data-name="Trazado 805135" d="M111.878,120.328c0-.193-1.287-.095-2.284-1.121s-.963-2.4-1.143-2.4c-.082-.012-.225.324-.2.9a3.2,3.2,0,0,0,.882,2.008,2.789,2.789,0,0,0,1.909.859c.54.007.847-.161.832-.249" transform="translate(-18.878 -20.37)" fill="#263238"/>
        <path id="Trazado_805136" data-name="Trazado 805136" d="M94.086,82.05a12.825,12.825,0,0,1,7.412-5.078c3-.523,4.8-.01,6.775,1.79a7.461,7.461,0,0,0,2.971,1.759c1.437.28,2.639.043,4.355.92,2.342,1.2,3.369,4.331,4.455,6.728,1.349,2.979,3.271,5.72,4.15,8.87s.412,7.019-2.242,8.929c.507-2.688.925-5.679-.552-7.981-1.126-1.756-3.132-2.729-4.576-4.235-1.742-1.816-1.97-4.246-3.795-5.979-4.167-3.957-11.506,3-18.955-5.723" transform="translate(-16.407 -13.389)" fill="#263238"/>
        <path id="Trazado_805137" data-name="Trazado 805137" d="M121.067,95.775a26.9,26.9,0,0,0-4.108-7.44,14.466,14.466,0,0,0-19.233-2.465L97,85.93a12.2,12.2,0,0,0,9.49,4.572c2.165-.01,4.514-.566,6.37.547,1.785,1.07,2.461,3.317,3.93,4.791,1,1,2.341,1.62,3.312,2.652a10.847,10.847,0,0,1,2.049,3.974c.646-2.213-.2-4.56-1.083-6.692" transform="translate(-16.915 -14.524)" fill="#263238"/>
        <path id="Trazado_805138" data-name="Trazado 805138" d="M98.2,87.495,92.3,82.3c-4.6-.239-7.553,4.108-9.132,7.464-1.174,2.5-1.539,5.286-2.423,7.9-.908,2.682-2.359,5.16-3.185,7.868s-.94,5.855.69,8.169l1.03-1.892a11.433,11.433,0,0,0,3.1,7.066q.2-.986.4-1.972a11.1,11.1,0,0,0,4.441,4.784l2.765,7.39c4.083-12.438-6.43-13.381,8.226-41.585" transform="translate(-13.423 -14.351)" fill="#263238"/>
        <path id="Trazado_805139" data-name="Trazado 805139" d="M97.974,88.623a26.762,26.762,0,0,1-1.386,4.94,9.493,9.493,0,0,1-3.037,4.065c-2.019,1.465-4.619,1.766-7.045,2.349s-5.008,1.7-6.007,3.989a57.227,57.227,0,0,1,2.069-9.9c1.082-3.562,2.641-7.192,5.61-9.438a10.281,10.281,0,0,1,9.69-1.446" transform="translate(-14.038 -14.396)" fill="#263238"/>
        <path id="Trazado_805140" data-name="Trazado 805140" d="M92.846,109.5c-.123-.309-5.851-2.193-5.754,3.835.094,5.856,5.968,4.535,5.975,4.367s-.221-8.2-.221-8.2" transform="translate(-15.188 -19.004)" fill="#ae7461"/>
        <path id="Trazado_805141" data-name="Trazado 805141" d="M91.529,115.92c-.026-.018-.1.073-.272.155a1.013,1.013,0,0,1-.762.031,2.523,2.523,0,0,1-1.211-2.242,3.363,3.363,0,0,1,.258-1.466,1.177,1.177,0,0,1,.752-.8.518.518,0,0,1,.607.268c.082.162.047.279.078.289s.124-.1.072-.341a.648.648,0,0,0-.238-.363.766.766,0,0,0-.566-.138,1.435,1.435,0,0,0-1.049.928,3.475,3.475,0,0,0-.322,1.639,2.65,2.65,0,0,0,1.536,2.5,1.092,1.092,0,0,0,.93-.173c.178-.148.207-.28.187-.29" transform="translate(-15.498 -19.411)" fill="#6f4439"/>
        <path id="Trazado_805142" data-name="Trazado 805142" d="M91.039,118.168a1.153,1.153,0,1,0,.276.079" transform="translate(-15.644 -20.605)" fill="#fff"/>
        <path id="Trazado_805143" data-name="Trazado 805143" d="M91.29,118.237a1.583,1.583,0,0,1,.549.771.993.993,0,0,1-.2.926,1.024,1.024,0,0,1-1.816-.522.994.994,0,0,1,.32-.892,1.581,1.581,0,0,1,.875-.362c0-.014-.092-.058-.277-.056a1.193,1.193,0,0,0-.722.276,1.172,1.172,0,0,0-.439,1.069,1.258,1.258,0,0,0,2.249.646,1.173,1.173,0,0,0,.195-1.139,1.2,1.2,0,0,0-.466-.618c-.156-.1-.259-.112-.264-.1" transform="translate(-15.619 -20.596)" fill="#263238"/>
        <path id="Trazado_805144" data-name="Trazado 805144" d="M100.914,88.984a17.133,17.133,0,0,0-2.289-3.78,17.094,17.094,0,0,0-3.437-2.779,3.264,3.264,0,0,1,1.235.495,9.5,9.5,0,0,1,4.167,4.774,3.257,3.257,0,0,1,.324,1.29" transform="translate(-16.599 -14.373)" fill="#455a64"/>
        <path id="Trazado_805145" data-name="Trazado 805145" d="M273.508,112.568a4.551,4.551,0,0,1,.174.713c.088.472.267,1.161.391,2.067a49,49,0,0,1,.613,7.71,52.648,52.648,0,0,1-1.184,11.41,47.823,47.823,0,0,1-1.856,6.527,42.653,42.653,0,0,1-7.073,12.69,51.014,51.014,0,0,1-4.657,4.942,47.092,47.092,0,0,1-9.354,6.641,37.239,37.239,0,0,1-7.148,2.955c-.869.287-1.571.407-2.037.524a4.776,4.776,0,0,1-.72.139,4.649,4.649,0,0,1,.7-.223c.457-.144,1.151-.29,2.008-.6A39.857,39.857,0,0,0,250.417,165a48.044,48.044,0,0,0,9.231-6.665,51.621,51.621,0,0,0,4.6-4.916,42.834,42.834,0,0,0,7-12.567,48.475,48.475,0,0,0,1.864-6.469,55.231,55.231,0,0,0,.793-19.011c-.1-.906-.25-1.6-.31-2.075a4.608,4.608,0,0,1-.089-.728" transform="translate(-41.968 -19.63)" fill="#263238"/>
        <path id="Trazado_805146" data-name="Trazado 805146" d="M264.9,96.285a52.545,52.545,0,0,0-93.423,3.653,52.756,52.756,0,0,0,1.856,48.021,52.221,52.221,0,0,0,31.679,24.806,52.816,52.816,0,0,0,14.185,1.952,52.618,52.618,0,0,0,45.7-78.431M231.894,76.256a47.3,47.3,0,0,1,28.69,22.467,47.773,47.773,0,0,1,1.68,43.492,47.585,47.585,0,1,1-43.217-67.726,47.862,47.862,0,0,1,12.847,1.767" transform="translate(-29.05 -12.125)" fill="#263238"/>
        <path id="Trazado_805147" data-name="Trazado 805147" d="M180.469,144.6a1.721,1.721,0,0,1-.211-.387l-.528-1.146a16.98,16.98,0,0,1-.748-1.853c-.255-.736-.592-1.56-.831-2.514q-.2-.712-.415-1.484c-.139-.518-.231-1.069-.355-1.633-.267-1.125-.41-2.353-.59-3.639a42.11,42.11,0,0,1,1.47-16.738c.4-1.236.756-2.419,1.216-3.481.22-.534.406-1.061.635-1.546l.667-1.39c.4-.9.877-1.65,1.257-2.331a16.917,16.917,0,0,1,1.059-1.693l.72-1.036a1.647,1.647,0,0,1,.275-.344,1.7,1.7,0,0,1-.2.393c-.173.288-.389.644-.651,1.077a19.785,19.785,0,0,0-.992,1.722c-.357.687-.811,1.445-1.191,2.344l-.637,1.39c-.219.485-.4,1.011-.607,1.542-.442,1.058-.78,2.236-1.167,3.463a43.43,43.43,0,0,0-1.457,16.583c.168,1.276.3,2.494.546,3.613.116.561.2,1.109.329,1.625s.262,1.006.385,1.479c.219.952.533,1.778.765,2.516a19.787,19.787,0,0,0,.676,1.869c.182.472.331.86.452,1.174a1.74,1.74,0,0,1,.131.423" transform="translate(-30.786 -18.028)" fill="#263238"/>
        <path id="Trazado_805148" data-name="Trazado 805148" d="M189.425,163.63c-.052.1-.893-.251-1.707-1.006s-1.236-1.562-1.139-1.622.656.6,1.431,1.306,1.477,1.214,1.416,1.322" transform="translate(-32.535 -28.076)" fill="#263238"/>
        <path id="Trazado_805149" data-name="Trazado 805149" d="M171.435,95.11a51.8,51.8,0,1,1,1.83,47.341,51.539,51.539,0,0,1-1.83-47.341m90.784,42.277a48.314,48.314,0,1,0-20.055,21.707,48.328,48.328,0,0,0,20.055-21.707" transform="translate(-29.05 -11.358)" fill="#455a64"/>
        <path id="Trazado_805150" data-name="Trazado 805150" d="M218.311,169.481a52.881,52.881,0,0,1-14.207-1.953,52.308,52.308,0,0,1-31.727-24.844,52.835,52.835,0,0,1-1.86-48.1,52.625,52.625,0,1,1,47.795,74.893m-.159-103.7a51.15,51.15,0,1,0,13.761,1.892,51.265,51.265,0,0,0-13.761-1.892m.154,100.227a49.39,49.39,0,0,1-13.272-1.825,49.181,49.181,0,1,1,56.028-71.548,49.346,49.346,0,0,1,1.736,44.924,49.208,49.208,0,0,1-44.492,28.45m-.149-96.754a47.676,47.676,0,1,0,12.826,1.764,47.741,47.741,0,0,0-12.826-1.764" transform="translate(-28.881 -11.184)" fill="#455a64"/>
        <path id="Trazado_805151" data-name="Trazado 805151" d="M53.759,230.652l-.932-1.478c-2-3.164.269-8.179,2.476-9.571l97.783-61.714c.492-.31,1.252.01,1.7.715l6.55,10.378a1.347,1.347,0,0,1-.085,1.841L64.03,232.18c-2.207,1.393-8.275,1.636-10.271-1.528" transform="translate(-9.078 -27.513)" fill="#455a64"/>
        <path id="Trazado_805152" data-name="Trazado 805152" d="M164.464,182.053l2.966-3.141s-.348-7.152.873-8.9l.637-1.054s-.635-3.478,1.236-4.282c.529-1.314,1.21-1.849,2.14-1.118,0,0-.523-2.617,1.919-2.966s3.141,10.729,3.141,10.729,1.221,4.972-1.57,4.972a6.265,6.265,0,0,1-3.315,1.919s-.523,2.966-2.966,2.791Z" transform="translate(-28.68 -28.004)" fill="#ae7461"/>
        <path id="Trazado_805153" data-name="Trazado 805153" d="M172.053,180.377c.016-.013.146.09.279.354a2,2,0,0,1,.14,1.227,2.756,2.756,0,0,1-.916,1.589,5.682,5.682,0,0,1-1.948,1.065,13.9,13.9,0,0,1-3.886.771,4.786,4.786,0,0,1-1.638-.087,25.26,25.26,0,0,0,5.4-1.049,5.746,5.746,0,0,0,1.841-.969,2.6,2.6,0,0,0,.884-1.376,2.476,2.476,0,0,0-.152-1.525" transform="translate(-28.614 -31.455)" fill="#6f4439"/>
        <path id="Trazado_805154" data-name="Trazado 805154" d="M175.96,173.564c-.119,0-.125-2.226-.66-4.9-.519-2.677-1.359-4.738-1.248-4.783a4.616,4.616,0,0,1,.647,1.314,20.366,20.366,0,0,1,1.361,6.905,4.627,4.627,0,0,1-.1,1.461" transform="translate(-30.351 -28.579)" fill="#6f4439"/>
        <path id="Trazado_805155" data-name="Trazado 805155" d="M173.387,175.072c-.115.008-.325-2.166-.883-4.789s-1.233-4.7-1.125-4.74a23.465,23.465,0,0,1,2.009,9.529" transform="translate(-29.884 -28.869)" fill="#6f4439"/>
        <path id="Trazado_805156" data-name="Trazado 805156" d="M178.383,176.98c.088-.056.454.629.215,1.494s-.891,1.275-.94,1.181c-.073-.084.376-.548.566-1.282.207-.729.053-1.356.159-1.393" transform="translate(-30.98 -30.863)" fill="#6f4439"/>
        <path id="Trazado_805157" data-name="Trazado 805157" d="M170.194,176.433a14.961,14.961,0,0,1-.224-2.717,15,15,0,0,1-.112-2.725,11.382,11.382,0,0,1,.336,5.442" transform="translate(-29.614 -29.819)" fill="#6f4439"/>
        <path id="Trazado_805158" data-name="Trazado 805158" d="M89.886,207.549a8.964,8.964,0,0,1,2.868-2.624c1.947-1.151,5.839-1.6,6.573-2.913s1.932.031,1.285,1.712c-.411,1.071-3.227,3.557-3.227,3.557s2.556,1.163,4.528.462,8.557-1.4,9.064-.406c.574,1.126-1.122,1.156-1.9,1.425-.589.2-5.117,1.5-5.117,1.5s8.312,1.234,9.28,1.818c1.053.635-.289,1.422-.813,1.347a13.615,13.615,0,0,0-3.151,1.707,3.814,3.814,0,0,1-2.687.546l-1.925-.324,5.72,1.683s.839,1.107-.652,1.33c-.665.1-18.81-.6-20.2-.769-2.4-.3-6.256-.4-6.256-.4l2.973-10.827Z" transform="translate(-14.524 -35.137)" fill="#ae7461"/>
        <path id="Trazado_805159" data-name="Trazado 805159" d="M116.993,216.094a12.881,12.881,0,0,1-4.146.471,12.858,12.858,0,0,1-4.141-.511c.017-.113,1.861.117,4.143.123s4.128-.2,4.145-.083" transform="translate(-18.957 -37.672)" fill="#6f4439"/>
        <path id="Trazado_805160" data-name="Trazado 805160" d="M69.126,193.825l8.311-17.132-7.342-22.246a14.924,14.924,0,0,0-5.523,4.8c-2.619,3.55-5.447,11.1-5.447,11.1s-9.059,20.724-10.548,23.816-3.894,8.82,0,12.028,29.96,3.315,29.96,3.315L81.3,197.979Z" transform="translate(-8.103 -26.934)" fill="#92df98"/>
        <path id="Trazado_805161" data-name="Trazado 805161" d="M75.1,168.54c.113-.036,2.054,5.756,4.335,12.936s4.039,13.031,3.926,13.066-2.054-5.755-4.335-12.937-4.039-13.03-3.926-13.065" transform="translate(-13.095 -29.391)" fill="#263238"/>
        <path id="Trazado_805162" data-name="Trazado 805162" d="M83.526,206.094a4.424,4.424,0,0,1-.967-.211l-2.588-.726c-2.182-.623-5.186-1.526-8.529-2.4a34.5,34.5,0,0,0-8.671-1.452,11.176,11.176,0,0,0-3.547.7,3.326,3.326,0,0,1,.878-.462A8.4,8.4,0,0,1,62.759,201a30.921,30.921,0,0,1,8.79,1.34c3.358.878,6.349,1.827,8.51,2.524,1.082.348,1.95.646,2.549.857a4.367,4.367,0,0,1,.917.372" transform="translate(-10.328 -35.048)" fill="#263238"/>
        <g id="Grupo_1066621" data-name="Grupo 1066621" transform="translate(63.817 144.812)" opacity="0.3">
          <g id="Grupo_1066620" data-name="Grupo 1066620">
            <g id="Grupo_1066619" data-name="Grupo 1066619" clip-path="url(#clip-path-11)">
              <path id="Trazado_805163" data-name="Trazado 805163" d="M77.369,175.4a85.814,85.814,0,0,0,.746,14.5l2.339-4.689a70.018,70.018,0,0,0-2.957-9.5" transform="translate(-77.297 -175.4)"/>
            </g>
          </g>
        </g>
        <rect id="Rectángulo_374914" data-name="Rectángulo 374914" width="10.792" height="38.893" transform="translate(198.689 88.556)" fill="#1969d5"/>
        <rect id="Rectángulo_374915" data-name="Rectángulo 374915" width="10.792" height="17.657" transform="translate(164.88 111.444)" fill="#1969d5"/>
        <rect id="Rectángulo_374916" data-name="Rectángulo 374916" width="10.792" height="27.257" transform="translate(181.556 101.843)" fill="#1969d5"/>
        <path id="Trazado_805164" data-name="Trazado 805164" d="M239.829,91.695a1.952,1.952,0,0,1-.259.343l-.8.946-3.046,3.491L225.141,108.4l-.118.133-.149-.1-6.622-4.325.282-.04-.253.3-14,16.428-.092.108-.113-.083-5.266-3.91-1.418-1.081a3.462,3.462,0,0,1-.478-.4,3.26,3.26,0,0,1,.528.33c.37.255.857.593,1.466,1.016l5.347,3.8-.206.025,13.908-16.509.253-.3.123-.145.159.1,6.613,4.339-.267.035,10.7-11.829,3.135-3.411.852-.9a1.947,1.947,0,0,1,.313-.295" transform="translate(-34.338 -15.99)" fill="#263238"/>
        <path id="Trazado_805165" data-name="Trazado 805165" d="M247.448,99.791a14.43,14.43,0,0,1-.15-2.482c-.039-1.535-.064-3.66-.064-6.019l.249.212-.215.035c-2.375.392-4.53.723-6.093.942a15.248,15.248,0,0,1-2.545.266,15.078,15.078,0,0,1,2.495-.566c1.551-.3,3.7-.674,6.073-1.066l.214-.036.25-.041v.253c0,2.359-.026,4.484-.064,6.019a14.425,14.425,0,0,1-.15,2.482" transform="translate(-41.614 -15.876)" fill="#263238"/>
      </g>
    </g>
  </g>
</svg>
