<svg xmlns="http://www.w3.org/2000/svg" width="85" height="85" viewBox="0 0 85 85">
  <g id="Grupo_1067340" data-name="Grupo 1067340" transform="translate(-180 -429)">
    <g id="Grupo_1067278" data-name="Grupo 1067278">
      <g id="Grupo_1063897" data-name="Grupo 1063897" transform="translate(0 -17)">
        <rect id="Rectángulo_373435" data-name="Rectángulo 373435" width="85" height="85" rx="5" transform="translate(180 446)" fill="#92df98"/>
      </g>
      <g id="Layer_23" data-name="Layer 23" transform="translate(163.22 445.33)">
        <g id="Grupo_1067277" data-name="Grupo 1067277" transform="translate(28.114 -9.104)">
          <g id="Grupo_1067205" data-name="Grupo 1067205" transform="translate(24.358 0)">
            <g id="Grupo_1067204" data-name="Grupo 1067204">
              <circle id="Elipse_8342" data-name="Elipse 8342" cx="4.602" cy="4.602" r="4.602" transform="translate(0 6.508) rotate(-45)" fill="#288640"/>
            </g>
          </g>
          <g id="Grupo_1067207" data-name="Grupo 1067207" transform="translate(50.307 15.188)">
            <g id="Grupo_1067206" data-name="Grupo 1067206" transform="translate(0)">
              <circle id="Elipse_8343" data-name="Elipse 8343" cx="4.602" cy="4.602" r="4.602" transform="matrix(0.383, -0.924, 0.924, 0.383, 0, 8.502)" fill="#70d6f9"/>
            </g>
          </g>
          <g id="Grupo_1067209" data-name="Grupo 1067209" transform="translate(51.686 45.985)">
            <g id="Grupo_1067208" data-name="Grupo 1067208">
              <circle id="Elipse_8344" data-name="Elipse 8344" cx="4.6" cy="4.6" r="4.6" fill="#5290db"/>
            </g>
          </g>
          <g id="Grupo_1067211" data-name="Grupo 1067211" transform="translate(0.803 16.602)">
            <g id="Grupo_1067210" data-name="Grupo 1067210">
              <circle id="Elipse_8345" data-name="Elipse 8345" cx="4.6" cy="4.6" r="4.6" fill="#92df98"/>
            </g>
          </g>
          <g id="Grupo_1067213" data-name="Grupo 1067213" transform="translate(26.243 60.67)">
            <g id="Grupo_1067212" data-name="Grupo 1067212">
              <circle id="Elipse_8346" data-name="Elipse 8346" cx="4.6" cy="4.6" r="4.6" fill="#b2e26d"/>
            </g>
          </g>
          <g id="Grupo_1067215" data-name="Grupo 1067215" transform="translate(0 45.151)">
            <g id="Grupo_1067214" data-name="Grupo 1067214" transform="translate(0 0)">
              <circle id="Elipse_8347" data-name="Elipse 8347" cx="4.6" cy="4.6" r="4.6" transform="matrix(0.98, -0.198, 0.198, 0.98, 0, 1.817)" fill="#fff"/>
            </g>
          </g>
          <g id="Grupo_1067217" data-name="Grupo 1067217" transform="translate(16.096 16.396)">
            <g id="Grupo_1067216" data-name="Grupo 1067216">
              <path id="Trazado_807403" data-name="Trazado 807403" d="M175.009,112h-26.5A1.51,1.51,0,0,0,147,113.505v35.98a1.51,1.51,0,0,0,1.505,1.506h26.5a1.51,1.51,0,0,0,1.506-1.506v-35.98A1.51,1.51,0,0,0,175.009,112Z" transform="translate(-147 -112)" fill="#edf4fc"/>
            </g>
          </g>
          <g id="Grupo_1067219" data-name="Grupo 1067219" transform="translate(16.096 16.396)">
            <g id="Grupo_1067218" data-name="Grupo 1067218">
              <path id="Trazado_807404" data-name="Trazado 807404" d="M175.009,112h-26.5A1.51,1.51,0,0,0,147,113.505v2.015h29.514v-2.015A1.51,1.51,0,0,0,175.009,112Z" transform="translate(-147 -112)" fill="#5290db"/>
            </g>
          </g>
          <g id="Grupo_1067221" data-name="Grupo 1067221" transform="translate(53.056 9.085)" opacity="0.57">
            <g id="Grupo_1067220" data-name="Grupo 1067220">
              <path id="Trazado_807405" data-name="Trazado 807405" d="M423.486,59.683A2.108,2.108,0,0,1,421.8,58.03c0-.038-.076-.038-.076,0a2.108,2.108,0,0,1-1.691,1.653c-.038,0-.038.057,0,.076a2.108,2.108,0,0,1,1.691,1.653c0,.038.076.038.076,0a2.108,2.108,0,0,1,1.691-1.653C423.524,59.74,423.524,59.683,423.486,59.683Z" transform="translate(-420 -58.002)" fill="#288640"/>
            </g>
          </g>
          <g id="Grupo_1067223" data-name="Grupo 1067223" transform="translate(12.634 1.233)" opacity="0.57">
            <g id="Grupo_1067222" data-name="Grupo 1067222">
              <path id="Trazado_807406" data-name="Trazado 807406" d="M126.4,2.4a3,3,0,0,1-2.41-2.356c0-.054-.108-.054-.108,0a3,3,0,0,1-2.41,2.356c-.054,0-.054.081,0,.108a3,3,0,0,1,2.41,2.356c0,.054.108.054.108,0A3,3,0,0,1,126.4,2.5C126.453,2.478,126.453,2.4,126.4,2.4Z" transform="translate(-121.43)" fill="#288640"/>
            </g>
          </g>
          <g id="Grupo_1067225" data-name="Grupo 1067225" transform="translate(49.175 62.795)" opacity="0.57">
            <g id="Grupo_1067224" data-name="Grupo 1067224">
              <path id="Trazado_807407" data-name="Trazado 807407" d="M395.179,456.205h-.623v-.623a.873.873,0,0,0-.867-.867.855.855,0,0,0-.866.867v.623H392.2a.872.872,0,0,0-.866.866.855.855,0,0,0,.866.866h.623v.623a.872.872,0,0,0,.866.866.855.855,0,0,0,.867-.866v-.623h.623a.872.872,0,0,0,.866-.866A.855.855,0,0,0,395.179,456.205Z" transform="translate(-391.334 -454.716)" fill="#288640"/>
            </g>
          </g>
          <g id="Grupo_1067227" data-name="Grupo 1067227" transform="translate(6.989 7.785)" opacity="0.57">
            <g id="Grupo_1067226" data-name="Grupo 1067226">
              <path id="Trazado_807408" data-name="Trazado 807408" d="M80.655,48.4a.921.921,0,1,0,.921.921A.921.921,0,0,0,80.655,48.4Z" transform="translate(-79.734 -48.4)" fill="#288640"/>
            </g>
          </g>
          <g id="Grupo_1067229" data-name="Grupo 1067229" transform="translate(43.002 68.709)" opacity="0.57">
            <g id="Grupo_1067228" data-name="Grupo 1067228">
              <path id="Trazado_807409" data-name="Trazado 807409" d="M346.655,498.4a.921.921,0,1,0,.921.921A.921.921,0,0,0,346.655,498.4Z" transform="translate(-345.734 -498.4)" fill="#288640"/>
            </g>
          </g>
          <g id="Grupo_1067232" data-name="Grupo 1067232" transform="translate(25.576 1.233)">
            <g id="Grupo_1067231" data-name="Grupo 1067231">
              <g id="Grupo_1067230" data-name="Grupo 1067230">
                <path id="Trazado_807410" data-name="Trazado 807410" d="M222.3,0a5.277,5.277,0,1,0,5.277,5.277A5.283,5.283,0,0,0,222.3,0Zm0,9.2a3.924,3.924,0,1,1,3.924-3.924A3.928,3.928,0,0,1,222.3,9.2Z" transform="translate(-217.026)"/>
              </g>
            </g>
          </g>
          <g id="Grupo_1067234" data-name="Grupo 1067234" transform="translate(29.067 5.345)">
            <g id="Grupo_1067233" data-name="Grupo 1067233">
              <path id="Trazado_807411" data-name="Trazado 807411" d="M246.457,30.576a.677.677,0,0,0-.957,0l-1.053,1.053-.479-.479a.677.677,0,1,0-.957.957l.957.957a.677.677,0,0,0,.957,0l1.532-1.532A.677.677,0,0,0,246.457,30.576Z" transform="translate(-242.812 -30.378)"/>
            </g>
          </g>
          <g id="Grupo_1067237" data-name="Grupo 1067237" transform="translate(51.021 15.924)">
            <g id="Grupo_1067236" data-name="Grupo 1067236">
              <g id="Grupo_1067235" data-name="Grupo 1067235">
                <path id="Trazado_807412" data-name="Trazado 807412" d="M410.243,108.516a5.277,5.277,0,1,0,5.277,5.277A5.283,5.283,0,0,0,410.243,108.516Zm0,9.2a3.924,3.924,0,1,1,3.924-3.924A3.928,3.928,0,0,1,410.243,117.717Z" transform="translate(-404.966 -108.516)"/>
              </g>
            </g>
          </g>
          <g id="Grupo_1067239" data-name="Grupo 1067239" transform="translate(54.512 20.037)">
            <g id="Grupo_1067238" data-name="Grupo 1067238">
              <path id="Trazado_807413" data-name="Trazado 807413" d="M434.4,139.091a.676.676,0,0,0-.957,0l-1.053,1.053-.479-.479a.677.677,0,1,0-.957.957l.957.957a.677.677,0,0,0,.957,0l1.532-1.532a.677.677,0,0,0,0-.957Z" transform="translate(-430.75 -138.892)"/>
            </g>
          </g>
          <g id="Grupo_1067242" data-name="Grupo 1067242" transform="translate(51.021 45.306)">
            <g id="Grupo_1067241" data-name="Grupo 1067241" transform="translate(0 0)">
              <g id="Grupo_1067240" data-name="Grupo 1067240">
                <path id="Trazado_807414" data-name="Trazado 807414" d="M410.243,325.536a5.277,5.277,0,1,0,5.277,5.277A5.283,5.283,0,0,0,410.243,325.536Zm0,9.2a3.923,3.923,0,1,1,3.924-3.924A3.928,3.928,0,0,1,410.243,334.737Z" transform="translate(-404.966 -325.536)"/>
              </g>
            </g>
          </g>
          <g id="Grupo_1067244" data-name="Grupo 1067244" transform="translate(54.512 49.418)">
            <g id="Grupo_1067243" data-name="Grupo 1067243">
              <path id="Trazado_807415" data-name="Trazado 807415" d="M434.4,356.111a.676.676,0,0,0-.957,0l-1.053,1.053-.479-.479a.677.677,0,1,0-.957.957l.957.957a.677.677,0,0,0,.957,0l1.532-1.532A.677.677,0,0,0,434.4,356.111Z" transform="translate(-430.75 -355.913)"/>
            </g>
          </g>
          <g id="Grupo_1067247" data-name="Grupo 1067247" transform="translate(0.13 15.924)">
            <g id="Grupo_1067246" data-name="Grupo 1067246">
              <g id="Grupo_1067245" data-name="Grupo 1067245">
                <path id="Trazado_807416" data-name="Trazado 807416" d="M34.353,108.516a5.277,5.277,0,1,0,5.277,5.277A5.283,5.283,0,0,0,34.353,108.516Zm0,9.2a3.924,3.924,0,1,1,3.924-3.924A3.928,3.928,0,0,1,34.353,117.717Z" transform="translate(-29.076 -108.516)"/>
              </g>
            </g>
          </g>
          <g id="Grupo_1067249" data-name="Grupo 1067249" transform="translate(3.621 20.037)">
            <g id="Grupo_1067248" data-name="Grupo 1067248">
              <path id="Trazado_807417" data-name="Trazado 807417" d="M58.507,139.092a.677.677,0,0,0-.957,0L56.5,140.145l-.479-.479a.677.677,0,1,0-.957.957l.957.957a.677.677,0,0,0,.957,0l1.532-1.532a.677.677,0,0,0,0-.957Z" transform="translate(-54.863 -138.894)"/>
            </g>
          </g>
          <g id="Grupo_1067252" data-name="Grupo 1067252" transform="translate(25.576 59.996)">
            <g id="Grupo_1067251" data-name="Grupo 1067251">
              <g id="Grupo_1067250" data-name="Grupo 1067250">
                <path id="Trazado_807418" data-name="Trazado 807418" d="M222.3,434.04a5.277,5.277,0,1,0,5.277,5.277,5.283,5.283,0,0,0-5.277-5.277Zm0,9.2a3.923,3.923,0,1,1,3.924-3.924A3.928,3.928,0,0,1,222.3,443.241Z" transform="translate(-217.026 -434.04)"/>
              </g>
            </g>
          </g>
          <g id="Grupo_1067254" data-name="Grupo 1067254" transform="translate(29.067 64.109)">
            <g id="Grupo_1067253" data-name="Grupo 1067253">
              <path id="Trazado_807419" data-name="Trazado 807419" d="M246.457,464.616a.677.677,0,0,0-.957,0l-1.053,1.053-.479-.479a.677.677,0,1,0-.957.957l.957.958a.677.677,0,0,0,.957,0l1.532-1.532a.677.677,0,0,0,0-.957Z" transform="translate(-242.812 -464.418)"/>
            </g>
          </g>
          <g id="Grupo_1067257" data-name="Grupo 1067257" transform="translate(0.13 45.306)">
            <g id="Grupo_1067256" data-name="Grupo 1067256" transform="translate(0 0)">
              <g id="Grupo_1067255" data-name="Grupo 1067255">
                <path id="Trazado_807420" data-name="Trazado 807420" d="M34.353,325.536a5.277,5.277,0,1,0,5.277,5.277A5.283,5.283,0,0,0,34.353,325.536Zm0,9.2a3.923,3.923,0,1,1,3.924-3.924A3.928,3.928,0,0,1,34.353,334.737Z" transform="translate(-29.076 -325.536)"/>
              </g>
            </g>
          </g>
          <g id="Grupo_1067259" data-name="Grupo 1067259" transform="translate(3.621 49.418)">
            <g id="Grupo_1067258" data-name="Grupo 1067258">
              <path id="Trazado_807421" data-name="Trazado 807421" d="M58.507,356.11a.677.677,0,0,0-.957,0L56.5,357.163l-.479-.479a.677.677,0,1,0-.957.957l.957.957a.677.677,0,0,0,.957,0l1.532-1.532a.677.677,0,0,0,0-.957Z" transform="translate(-54.863 -355.912)"/>
            </g>
          </g>
          <g id="Grupo_1067261" data-name="Grupo 1067261" transform="translate(7.248 5.85)">
            <g id="Grupo_1067260" data-name="Grupo 1067260" transform="translate(0 0)">
              <path id="Trazado_807422" data-name="Trazado 807422" d="M100.915,34.672a.677.677,0,0,0-.78-.555A30.452,30.452,0,0,0,81.8,44.706a.677.677,0,0,0,1.042.865A29.1,29.1,0,0,1,100.36,35.452a.677.677,0,0,0,.555-.78Z" transform="translate(-81.647 -34.108)"/>
            </g>
          </g>
          <g id="Grupo_1067263" data-name="Grupo 1067263" transform="translate(35.183 5.851)">
            <g id="Grupo_1067262" data-name="Grupo 1067262" transform="translate(0 0)">
              <path id="Trazado_807423" data-name="Trazado 807423" d="M307.1,44.707a30.452,30.452,0,0,0-18.33-10.588.677.677,0,1,0-.226,1.335,29.1,29.1,0,0,1,17.514,10.118.677.677,0,1,0,1.042-.865Z" transform="translate(-287.981 -34.11)"/>
            </g>
          </g>
          <g id="Grupo_1067265" data-name="Grupo 1067265" transform="translate(58.111 24.862)">
            <g id="Grupo_1067264" data-name="Grupo 1067264">
              <path id="Trazado_807424" data-name="Trazado 807424" d="M458.649,174.972a.677.677,0,0,0-1.269.471,29.218,29.218,0,0,1,0,20.237.677.677,0,1,0,1.269.471,30.571,30.571,0,0,0,0-21.178Z" transform="translate(-457.337 -174.53)"/>
            </g>
          </g>
          <g id="Grupo_1067267" data-name="Grupo 1067267" transform="translate(35.182 54.227)">
            <g id="Grupo_1067266" data-name="Grupo 1067266">
              <path id="Trazado_807425" data-name="Trazado 807425" d="M307.008,391.586a.677.677,0,0,0-.953.089,29.1,29.1,0,0,1-17.514,10.117.677.677,0,1,0,.226,1.335A30.453,30.453,0,0,0,307.1,392.539.676.676,0,0,0,307.008,391.586Z" transform="translate(-287.977 -391.43)"/>
            </g>
          </g>
          <g id="Grupo_1067269" data-name="Grupo 1067269" transform="translate(7.248 54.227)">
            <g id="Grupo_1067268" data-name="Grupo 1067268">
              <path id="Trazado_807426" data-name="Trazado 807426" d="M100.365,401.788a29.1,29.1,0,0,1-17.514-10.117.677.677,0,1,0-1.042.865,30.452,30.452,0,0,0,18.33,10.587.667.667,0,0,0,.114.01.677.677,0,0,0,.112-1.345Z" transform="translate(-81.653 -391.426)"/>
            </g>
          </g>
          <g id="Grupo_1067271" data-name="Grupo 1067271" transform="translate(0.392 24.862)">
            <g id="Grupo_1067270" data-name="Grupo 1067270">
              <path id="Trazado_807427" data-name="Trazado 807427" d="M34.168,195.682a29.218,29.218,0,0,1,0-20.235.677.677,0,1,0-1.269-.471,30.574,30.574,0,0,0,0,21.177.677.677,0,1,0,1.27-.471Z" transform="translate(-31.006 -174.535)"/>
            </g>
          </g>
          <g id="Grupo_1067274" data-name="Grupo 1067274" transform="translate(15.419 15.719)">
            <g id="Grupo_1067273" data-name="Grupo 1067273">
              <g id="Grupo_1067272" data-name="Grupo 1067272">
                <path id="Trazado_807428" data-name="Trazado 807428" d="M170.686,107h-26.5A2.185,2.185,0,0,0,142,109.182v35.98a2.185,2.185,0,0,0,2.182,2.182h26.5a2.185,2.185,0,0,0,2.182-2.182v-35.98A2.185,2.185,0,0,0,170.686,107Zm.829,38.163a.829.829,0,0,1-.829.829h-26.5a.829.829,0,0,1-.829-.829v-35.98a.829.829,0,0,1,.829-.829h26.5a.829.829,0,0,1,.829.829Z" transform="translate(-142 -107)"/>
              </g>
            </g>
          </g>
          <g id="Grupo_1067276" data-name="Grupo 1067276" transform="translate(15.689 19.239)">
            <g id="Grupo_1067275" data-name="Grupo 1067275">
              <path id="Trazado_807429" data-name="Trazado 807429" d="M173.712,133H144.677a.677.677,0,0,0,0,1.354h29.035a.677.677,0,1,0,0-1.354Z" transform="translate(-144 -133)"/>
            </g>
          </g>
        </g>
      </g>
    </g>
  </g>
</svg>
