<svg id="Grupo_1066863" data-name="Grupo 1066863" xmlns="http://www.w3.org/2000/svg" xmlns:xlink="http://www.w3.org/1999/xlink" width="452.629" height="280.808" viewBox="0 0 452.629 280.808">
  <defs>
    <clipPath id="clip-path">
      <rect id="Rectángulo_375110" data-name="Rectángulo 375110" width="452.629" height="280.808" fill="none"/>
    </clipPath>
    <clipPath id="clip-path-5">
      <rect id="Rectángulo_375102" data-name="Rectángulo 375102" width="144.24" height="277.009" fill="none"/>
    </clipPath>
    <clipPath id="clip-path-6">
      <rect id="Rectángulo_375103" data-name="Rectángulo 375103" width="172.942" height="267.26" fill="none"/>
    </clipPath>
    <clipPath id="clip-path-9">
      <rect id="Rectángulo_375106" data-name="Rectángulo 375106" width="67.613" height="42.783" fill="none"/>
    </clipPath>
    <clipPath id="clip-path-10">
      <rect id="Rectángulo_375107" data-name="Rectángulo 375107" width="11.129" height="7.103" fill="none"/>
    </clipPath>
    <clipPath id="clip-path-11">
      <rect id="Rectángulo_375108" data-name="Rectángulo 375108" width="12.76" height="30.448" fill="none"/>
    </clipPath>
  </defs>
  <g id="Grupo_1066862" data-name="Grupo 1066862" clip-path="url(#clip-path)">
    <g id="Grupo_1066838" data-name="Grupo 1066838">
      <g id="Grupo_1066837" data-name="Grupo 1066837" clip-path="url(#clip-path)">
        <path id="Trazado_806592" data-name="Trazado 806592" d="M244.315,228.957a35.819,35.819,0,0,0-8.734-3.8l-1.8-8.646-14.608-.256-2.1,8.576a35.81,35.81,0,0,0-8.863,3.487l-7.383-4.839-10.51,10.148,4.576,7.547a35.765,35.765,0,0,0-3.8,8.736l-8.644,1.8L182.2,266.32l8.576,2.1a35.814,35.814,0,0,0,3.486,8.862l-4.838,7.383,10.147,10.511,7.547-4.577a35.765,35.765,0,0,0,8.735,3.8l1.8,8.645,14.606.257,2.1-8.577a35.831,35.831,0,0,0,8.862-3.487l7.383,4.84,10.51-10.148-4.576-7.547a35.8,35.8,0,0,0,3.8-8.736l8.645-1.8.256-14.607-8.577-2.1a35.809,35.809,0,0,0-3.486-8.862l4.839-7.383-10.147-10.51Zm-7.786,19.459a15.672,15.672,0,1,1-22.16-.389,15.672,15.672,0,0,1,22.16.389" transform="translate(58.939 -68.537)" fill="#ebebeb"/>
        <path id="Trazado_806593" data-name="Trazado 806593" d="M106.243,141.477a27.368,27.368,0,0,0-6.674-2.9l-1.375-6.607-11.162-.2-1.607,6.553a27.372,27.372,0,0,0-6.773,2.664l-5.641-3.7-8.032,7.755,3.5,5.767a27.311,27.311,0,0,0-2.9,6.676l-6.606,1.375-.2,11.162,6.553,1.607a27.353,27.353,0,0,0,2.665,6.772l-3.7,5.642,7.754,8.032,5.767-3.5a27.311,27.311,0,0,0,6.676,2.9l1.375,6.607,11.162.2,1.607-6.554a27.375,27.375,0,0,0,6.773-2.665l5.641,3.7,8.032-7.755-3.5-5.767a27.354,27.354,0,0,0,2.9-6.676l6.606-1.374.2-11.162-6.554-1.607a27.389,27.389,0,0,0-2.664-6.771l3.7-5.642-7.754-8.032Zm-5.95,14.869a11.976,11.976,0,1,1-16.934-.3,11.975,11.975,0,0,1,16.934.3" transform="translate(287.195 -41.762)" fill="#ebebeb"/>
        <path id="Trazado_806594" data-name="Trazado 806594" d="M28.872,217.655a16.622,16.622,0,0,0-4.06-1.764l-.836-4.019-6.789-.119-.977,3.986a16.621,16.621,0,0,0-4.119,1.621L8.659,215.11l-4.885,4.717L5.9,223.335A16.6,16.6,0,0,0,4.137,227.4l-4.018.836L0,235.021,3.986,236a16.648,16.648,0,0,0,1.621,4.119l-2.249,3.432,4.716,4.885,3.508-2.127a16.63,16.63,0,0,0,4.061,1.764l.836,4.019,6.789.12.977-3.986a16.663,16.663,0,0,0,4.12-1.621L31.8,248.85l4.885-4.717-2.126-3.508a16.626,16.626,0,0,0,1.764-4.06l4.018-.836.12-6.789-3.986-.977a16.621,16.621,0,0,0-1.621-4.119l2.249-3.432-4.716-4.885ZM25.253,226.7a7.284,7.284,0,1,1-10.3-.181,7.284,7.284,0,0,1,10.3.181" transform="translate(412.173 -67.109)" fill="#e0e0e0"/>
        <path id="Trazado_806595" data-name="Trazado 806595" d="M296.593,175.175a14.869,14.869,0,0,0-3.632-1.579l-.748-3.6-6.074-.107-.874,3.566a14.887,14.887,0,0,0-3.685,1.449l-3.07-2.012-4.37,4.22,1.9,3.138a14.873,14.873,0,0,0-1.578,3.633l-3.6.748-.107,6.074,3.566.874a14.889,14.889,0,0,0,1.45,3.685l-2.012,3.07,4.219,4.37,3.138-1.9a14.859,14.859,0,0,0,3.633,1.579l.748,3.6,6.074.107.874-3.566a14.914,14.914,0,0,0,3.685-1.45l3.07,2.012,4.37-4.219-1.9-3.138a14.887,14.887,0,0,0,1.579-3.633l3.6-.749.107-6.073-3.566-.874a14.887,14.887,0,0,0-1.45-3.685l2.012-3.07-4.219-4.37Zm-3.238,8.091a6.517,6.517,0,1,1-9.215-.162,6.516,6.516,0,0,1,9.215.162" transform="translate(-39.278 -53.843)" fill="#f5f5f5"/>
        <path id="Trazado_806596" data-name="Trazado 806596" d="M251.363,32.329a16.61,16.61,0,0,0-4.06-1.764l-.836-4.019-6.789-.119-.977,3.986a16.632,16.632,0,0,0-4.119,1.621l-3.432-2.249L226.266,34.5l2.127,3.508a16.578,16.578,0,0,0-1.764,4.061l-4.018.836-.12,6.789,3.986.977a16.62,16.62,0,0,0,1.62,4.119l-2.249,3.432,4.716,4.885,3.508-2.127a16.629,16.629,0,0,0,4.061,1.764l.836,4.019,6.789.12.977-3.986a16.663,16.663,0,0,0,4.12-1.621l3.431,2.249,4.885-4.717L257.045,55.3a16.626,16.626,0,0,0,1.764-4.06l4.018-.837.12-6.788-3.986-.978a16.627,16.627,0,0,0-1.621-4.118l2.249-3.432L254.872,30.2Zm-3.619,9.044a7.284,7.284,0,1,1-10.3-.181,7.284,7.284,0,0,1,10.3.181" transform="translate(37.703 -8.375)" fill="#ebebeb"/>
        <path id="Trazado_806597" data-name="Trazado 806597" d="M288.819,368.331a5.277,5.277,0,0,1,2.868,2.973,9.318,9.318,0,0,1,.548,4.175,16.432,16.432,0,0,1-3.179,7.793c-2.378-1.9-3.06-5.361-3.3-7.139-.372-2.812.664-8.118,3.058-7.8" transform="translate(-34.786 -116.727)" fill="#288640"/>
        <path id="Trazado_806598" data-name="Trazado 806598" d="M274.78,393.866a4.5,4.5,0,0,1,1.264-4.339,5.974,5.974,0,0,1,4.343-1.57,2.517,2.517,0,0,1,1.971.782,1.926,1.926,0,0,1,.116,1.947,3.9,3.9,0,0,1-1.38,1.484c-1.929,1.333-4.041,2.269-6.314,1.695" transform="translate(-17.649 -122.95)" fill="#288640"/>
        <path id="Trazado_806599" data-name="Trazado 806599" d="M279.947,403.6a3.237,3.237,0,0,1,.057-.562c.055-.4.126-.908.21-1.523a15.8,15.8,0,0,1,1.345-4.894,9.661,9.661,0,0,1,3.3-3.833,6.559,6.559,0,0,1,1.384-.687,3.872,3.872,0,0,1,.4-.121c.093-.024.142-.033.144-.027a10.278,10.278,0,0,0-1.853.952,9.987,9.987,0,0,0-3.2,3.8,17.018,17.018,0,0,0-1.384,4.827c-.111.639-.2,1.157-.273,1.513a3.01,3.01,0,0,1-.133.549" transform="translate(-25.384 -124.218)" fill="#263238"/>
        <path id="Trazado_806600" data-name="Trazado 806600" d="M289.894,374.355a1.149,1.149,0,0,1,.039.242c.018.181.042.413.072.7.059.607.135,1.487.218,2.575.167,2.176.355,5.185.488,8.513s.184,6.344.191,8.526c0,1.092,0,1.974-.012,2.585-.007.288-.012.52-.017.7a1.117,1.117,0,0,1-.019.245,1.154,1.154,0,0,1-.021-.245c-.005-.181-.012-.414-.02-.7-.013-.635-.03-1.511-.052-2.583-.042-2.181-.117-5.194-.249-8.52s-.3-6.334-.431-8.511c-.064-1.07-.116-1.945-.154-2.579-.014-.288-.026-.521-.036-.7a1.168,1.168,0,0,1,0-.246" transform="translate(-36.292 -118.641)" fill="#263238"/>
        <path id="Trazado_806601" data-name="Trazado 806601" d="M300.768,395.686a10.528,10.528,0,0,0-6.084-7.45,2.219,2.219,0,0,0-2.395.069,2.179,2.179,0,0,0-.075,2.393,8.995,8.995,0,0,0,8.51,5.214" transform="translate(-47.526 -122.939)" fill="#288640"/>
        <path id="Trazado_806602" data-name="Trazado 806602" d="M289.9,392.133a2.632,2.632,0,0,1,.5.191,5.063,5.063,0,0,1,.562.268c.211.119.466.234.719.407a9.258,9.258,0,0,1,.826.566,10.431,10.431,0,0,1,.886.736,11.7,11.7,0,0,1,1.709,2.006,11.439,11.439,0,0,1,1.172,2.361,10.133,10.133,0,0,1,.318,1.107,8.5,8.5,0,0,1,.182.986,7.942,7.942,0,0,1,.074.823,4.773,4.773,0,0,1,.009.623,2.684,2.684,0,0,1-.036.529c-.045,0,0-.758-.187-1.955a9.111,9.111,0,0,0-.2-.967,10.474,10.474,0,0,0-.331-1.084,11.955,11.955,0,0,0-1.165-2.314,12.16,12.16,0,0,0-1.669-1.982,10.78,10.78,0,0,0-.86-.738,9.89,9.89,0,0,0-.8-.579c-1.015-.661-1.719-.945-1.7-.984" transform="translate(-42.262 -124.274)" fill="#263238"/>
        <path id="Trazado_806603" data-name="Trazado 806603" d="M101.386,368.331a5.277,5.277,0,0,1,2.868,2.973,9.319,9.319,0,0,1,.548,4.175,16.432,16.432,0,0,1-3.179,7.793c-2.378-1.9-3.06-5.361-3.3-7.139-.372-2.812.664-8.118,3.058-7.8" transform="translate(280.679 -116.727)" fill="#ebebeb"/>
        <path id="Trazado_806604" data-name="Trazado 806604" d="M87.346,393.866a4.5,4.5,0,0,1,1.264-4.339,5.975,5.975,0,0,1,4.343-1.57,2.516,2.516,0,0,1,1.971.782,1.926,1.926,0,0,1,.116,1.947,3.9,3.9,0,0,1-1.38,1.484c-1.929,1.333-4.041,2.269-6.314,1.695" transform="translate(297.818 -122.95)" fill="#ebebeb"/>
        <path id="Trazado_806605" data-name="Trazado 806605" d="M92.513,403.6a3.233,3.233,0,0,1,.057-.562c.055-.4.126-.908.21-1.523a15.8,15.8,0,0,1,1.345-4.894,9.661,9.661,0,0,1,3.3-3.833,6.56,6.56,0,0,1,1.384-.687,3.918,3.918,0,0,1,.4-.121c.094-.024.143-.033.145-.027a10.279,10.279,0,0,0-1.853.952,9.988,9.988,0,0,0-3.2,3.8,17.019,17.019,0,0,0-1.384,4.827c-.111.639-.2,1.157-.273,1.513a3.011,3.011,0,0,1-.133.549" transform="translate(290.081 -124.218)" fill="#e0e0e0"/>
        <path id="Trazado_806606" data-name="Trazado 806606" d="M102.46,374.355a1.152,1.152,0,0,1,.039.242c.018.181.042.413.072.7.059.607.135,1.487.218,2.575.167,2.176.355,5.185.488,8.513s.184,6.344.191,8.526c0,1.092,0,1.974-.012,2.585-.007.288-.012.52-.016.7a1.134,1.134,0,0,1-.02.245,1.155,1.155,0,0,1-.02-.245c-.005-.181-.012-.414-.02-.7-.013-.635-.03-1.511-.052-2.583-.042-2.181-.117-5.194-.249-8.52s-.3-6.334-.431-8.511c-.064-1.07-.116-1.945-.154-2.579-.014-.288-.026-.521-.036-.7a1.169,1.169,0,0,1,0-.246" transform="translate(279.175 -118.641)" fill="#e0e0e0"/>
        <path id="Trazado_806607" data-name="Trazado 806607" d="M113.334,395.686a10.527,10.527,0,0,0-6.084-7.45,2.218,2.218,0,0,0-2.394.069,2.179,2.179,0,0,0-.075,2.393,8.994,8.994,0,0,0,8.51,5.214" transform="translate(267.94 -122.939)" fill="#ebebeb"/>
        <path id="Trazado_806608" data-name="Trazado 806608" d="M102.47,392.133a2.632,2.632,0,0,1,.5.191,5.059,5.059,0,0,1,.562.268c.211.119.466.234.719.407a9.259,9.259,0,0,1,.826.566,10.422,10.422,0,0,1,.886.736,11.7,11.7,0,0,1,1.709,2.006,11.476,11.476,0,0,1,1.172,2.361,10.136,10.136,0,0,1,.318,1.107,8.642,8.642,0,0,1,.182.986,7.944,7.944,0,0,1,.074.823,4.767,4.767,0,0,1,.009.623,2.685,2.685,0,0,1-.036.529c-.045,0,0-.758-.187-1.955a9.108,9.108,0,0,0-.2-.967,10.466,10.466,0,0,0-.331-1.084,11.921,11.921,0,0,0-1.166-2.314,12.125,12.125,0,0,0-1.669-1.982,10.788,10.788,0,0,0-.86-.738,9.893,9.893,0,0,0-.8-.579c-1.015-.661-1.719-.945-1.7-.984" transform="translate(273.205 -124.274)" fill="#e0e0e0"/>
      </g>
    </g>
    <g id="Grupo_1066840" data-name="Grupo 1066840">
      <g id="Grupo_1066839" data-name="Grupo 1066839" clip-path="url(#clip-path)">
        <path id="Trazado_806609" data-name="Trazado 806609" d="M19.363,409.962c0,.1,98.371.178,219.691.178,121.361,0,219.711-.079,219.711-.178s-98.351-.178-219.711-.178c-121.32,0-219.691.079-219.691.178" transform="translate(-19.363 -129.869)" fill="#263238"/>
      </g>
    </g>
    <path id="Trazado_806610" data-name="Trazado 806610" d="M252.217,265.55,293.861,280.2l89.822-265.22L342.04.33Z" transform="translate(-103.339 -0.104)" fill="#59bee2"/>
    <g id="Grupo_1066848" data-name="Grupo 1066848">
      <g id="Grupo_1066847" data-name="Grupo 1066847" clip-path="url(#clip-path)">
        <path id="Trazado_806611" data-name="Trazado 806611" d="M251.887,265.446,341.876.282l-.225.109L383.28,15.035l.015.005-.109-.225c-38.554,113.958-72.2,213.4-89.738,265.248l.113-.055-41.673-14.564L293.5,280.176l.085.03.029-.085c17.576-51.842,51.28-151.258,89.907-265.191l.057-.167-.166-.059-.015,0L341.768.059,341.6,0l-.057.169c-50.689,149.982-89.08,263.574-89.655,265.277" transform="translate(-103.009)" fill="#263238"/>
        <path id="Trazado_806612" data-name="Trazado 806612" d="M323.017,264.821l40.851,16.7L467.257,21.217l-40.85-16.7Z" transform="translate(-235.275 -1.431)" fill="#59bee2"/>
        <path id="Trazado_806613" data-name="Trazado 806613" d="M322.68,264.714,426.233,4.473l-.23.1,40.836,16.7.014.005-.1-.23C422.369,132.9,383.64,230.5,363.448,281.384l.116-.049L322.68,264.714,363.5,281.5l.083.034.033-.083L467.085,21.176l.065-.164-.163-.067-.014-.005-40.837-16.7-.165-.068-.066.165L322.68,264.714" transform="translate(-234.938 -1.324)" fill="#263238"/>
        <g id="Grupo_1066843" data-name="Grupo 1066843" transform="translate(87.973 2.853)" opacity="0.2">
          <g id="Grupo_1066842" data-name="Grupo 1066842" transform="translate(0)">
            <g id="Grupo_1066841" data-name="Grupo 1066841" transform="translate(0)" clip-path="url(#clip-path-5)">
              <path id="Trazado_806614" data-name="Trazado 806614" d="M323.017,264.821l40.851,16.7L467.257,21.217l-40.85-16.7Z" transform="translate(-323.017 -4.514)"/>
            </g>
          </g>
        </g>
        <path id="Trazado_806615" data-name="Trazado 806615" d="M400.557,264.757l38.627,21.29L573.5,40.076l-38.627-21.29Z" transform="translate(-394.483 -5.954)" fill="#59bee2"/>
        <path id="Trazado_806616" data-name="Trazado 806616" d="M400.2,264.646,534.675,18.76l-.24.07,38.612,21.283.014.008-.07-.24C515.308,145.593,464.979,237.83,438.753,285.893l.12-.035L400.2,264.646l38.584,21.367.078.044.043-.079L573.3,40.051l.085-.155-.155-.086-.014-.008L534.6,18.521l-.155-.085-.085.156L400.2,264.646" transform="translate(-394.13 -5.843)" fill="#263238"/>
        <g id="Grupo_1066846" data-name="Grupo 1066846" transform="translate(6.315 12.954)" opacity="0.3">
          <g id="Grupo_1066845" data-name="Grupo 1066845" transform="translate(0)">
            <g id="Grupo_1066844" data-name="Grupo 1066844" transform="translate(0)" clip-path="url(#clip-path-6)">
              <path id="Trazado_806617" data-name="Trazado 806617" d="M400.557,264.757l38.627,21.29L573.5,40.076l-38.627-21.29Z" transform="translate(-400.557 -18.787)"/>
            </g>
          </g>
        </g>
      </g>
    </g>
    <g id="Grupo_1066850" data-name="Grupo 1066850">
      <g id="Grupo_1066849" data-name="Grupo 1066849" clip-path="url(#clip-path)">
        <path id="Trazado_806618" data-name="Trazado 806618" d="M109.829,81.476,111.44,75.5a19.906,19.906,0,1,1,4.729,5.34l.007.009Z" transform="translate(230.143 -14.371)" fill="#fff"/>
        <path id="Trazado_806619" data-name="Trazado 806619" d="M109.68,81.382s.151-.024.428-.057l1.223-.141,4.686-.518-.065.148-.007-.009a.092.092,0,0,1,.018-.129.094.094,0,0,1,.113,0,19.907,19.907,0,0,0,8.868,3.895,20,20,0,0,0,13.031-2.311,19.655,19.655,0,0,0,5.1-30.067l-.811-.9-.887-.818a21.074,21.074,0,0,0-1.868-1.495,19.953,19.953,0,0,0-13.086-3.435,19.774,19.774,0,0,0-15.053,29.816c0,.025.005.047.009.072l-1.244,4.4c-.141.49-.251.871-.331,1.15-.076.26-.124.4-.124.4a3.655,3.655,0,0,1,.085-.372l.285-1.135,1.152-4.489.01.071a19.794,19.794,0,0,1-2.9-9.345,20.092,20.092,0,0,1,18.075-20.978,20.345,20.345,0,0,1,13.372,3.492,21.687,21.687,0,0,1,1.91,1.527l.906.835.829.919a20.05,20.05,0,0,1-5.245,30.67,19.865,19.865,0,0,1-6.855,2.34,19.626,19.626,0,0,1-6.4-.064,19.906,19.906,0,0,1-8.934-4.032l.131-.128.007.009a.091.091,0,0,1-.017.128.09.09,0,0,1-.048.018l-4.76.412-1.2.1a3.831,3.831,0,0,1-.393.023" transform="translate(230.292 -14.277)" fill="#263238"/>
        <path id="Trazado_806620" data-name="Trazado 806620" d="M132.26,80.4l-10.45-6.99,2.439-3.646,7.007,4.687,8.719-11.539,3.5,2.645Z" transform="matrix(0.995, 0.105, -0.105, 0.995, 234.164, -33.409)" fill="#1969d5"/>
      </g>
    </g>
    <g id="Grupo_1066861" data-name="Grupo 1066861">
      <g id="Grupo_1066860" data-name="Grupo 1066860" clip-path="url(#clip-path)">
        <path id="Trazado_806621" data-name="Trazado 806621" d="M243.906,120.136c-3.085,10.153-6.838,20.089-10.587,30.017-2.677,7.088-5.65,14.577-11.754,19.064a14.638,14.638,0,0,0,5.693,3,64.94,64.94,0,0,0,14.505-32.607" transform="translate(57.376 -38.073)" fill="#263238"/>
        <path id="Trazado_806622" data-name="Trazado 806622" d="M179.681,118.13l31.9.035c12.918,27.7-2.243,51.388-4.4,60.849-12.94,2-23.553,1.1-38.972-5.735.7-10.355,8.6-45.177,11.478-55.148" transform="translate(121 -37.438)" fill="#263238"/>
        <path id="Trazado_806623" data-name="Trazado 806623" d="M202.083,107.641a18.376,18.376,0,0,0-15.379-4.032c-3.177.606-4.351,1.536-6.5,2.626a10.213,10.213,0,0,0-4.915,4.952,17.1,17.1,0,0,0-1.69,8.326,47.936,47.936,0,0,0,1.377,8.7,16.064,16.064,0,0,0,4.37,7.534l7.575-.252c4.066-.7,8.187-1.422,11.929-3.161s7.125-4.649,8.516-8.532c1.932-5.395-.824-12.559-5.28-16.16" transform="translate(126.096 -32.728)" fill="#263238"/>
        <path id="Trazado_806624" data-name="Trazado 806624" d="M185.929,109.708l2.484-.825,10.551,1.843a2.773,2.773,0,0,1,3.12,2.079l5.461,28.288.585,2.6-11.767,11.063-1.583-3.231-2.308-7.2s-6.653.721-9.886-6.571c-1.607-3.626-3.066-9.886-4.1-15.046-.926-4.644,1.714-11.78,7.439-12.993" transform="translate(122.7 -34.507)" fill="#ffc09d"/>
        <path id="Trazado_806625" data-name="Trazado 806625" d="M213.737,137.572a1.011,1.011,0,0,0,1.2.735.967.967,0,0,0,.773-1.148,1.011,1.011,0,0,0-1.2-.736.968.968,0,0,0-.775,1.149" transform="translate(90.907 -43.228)" fill="#263238"/>
        <path id="Trazado_806626" data-name="Trazado 806626" d="M212.714,132.731c.155.095.75-.649,1.8-.926s1.963.044,2.043-.115c.041-.072-.144-.268-.544-.424a2.776,2.776,0,0,0-1.678-.066,2.664,2.664,0,0,0-1.391.9c-.258.334-.306.594-.232.635" transform="translate(90.786 -41.549)" fill="#263238"/>
        <path id="Trazado_806627" data-name="Trazado 806627" d="M208.739,138.351a7.227,7.227,0,0,0-1.79.146c-.276.044-.544.058-.638-.113a1.413,1.413,0,0,1-.032-.843q.12-1.075.251-2.255a36.392,36.392,0,0,0,.363-5.818,36.434,36.434,0,0,0-.831,5.776q-.112,1.181-.214,2.258a1.6,1.6,0,0,0,.141,1.09.7.7,0,0,0,.546.275,1.916,1.916,0,0,0,.473-.058,7.058,7.058,0,0,0,1.732-.458" transform="translate(103.3 -41.031)" fill="#263238"/>
        <path id="Trazado_806628" data-name="Trazado 806628" d="M187.372,158.228a20.072,20.072,0,0,0,9.482-5.434s-.949,6.317-8.765,7.633Z" transform="translate(127.785 -48.423)" fill="#ff9b6c"/>
        <path id="Trazado_806629" data-name="Trazado 806629" d="M201.881,133.541a1.011,1.011,0,0,1-.727,1.21.967.967,0,0,1-1.217-.658,1.012,1.012,0,0,1,.725-1.21.967.967,0,0,1,1.219.658" transform="translate(114.166 -42.1)" fill="#263238"/>
        <path id="Trazado_806630" data-name="Trazado 806630" d="M201.7,127.844c-.094.156-.965-.227-2.026.016-1.063.227-1.719.949-1.863.846-.07-.045,0-.3.286-.628a2.783,2.783,0,0,1,1.456-.836,2.671,2.671,0,0,1,1.649.148c.383.176.546.384.5.455" transform="translate(115.81 -40.304)" fill="#263238"/>
        <path id="Trazado_806631" data-name="Trazado 806631" d="M176.242,132.685c-.15-.567.152-2.079.689-2.315,1.434-.631,4.164-1.228,5.2,2.562,1.413,5.183-4.085,5.535-4.135,5.389-.039-.114-1.236-3.677-1.752-5.636" transform="translate(149.906 -41.169)" fill="#ffc09d"/>
        <path id="Trazado_806632" data-name="Trazado 806632" d="M179.113,136.842c.018-.023.108.038.279.067a.935.935,0,0,0,.679-.171,2.315,2.315,0,0,0,.488-2.286,3.094,3.094,0,0,0-.605-1.224,1.08,1.08,0,0,0-.869-.507.477.477,0,0,0-.466.393c-.03.164.031.258.006.275-.01.017-.135-.056-.152-.281a.6.6,0,0,1,.116-.381.708.708,0,0,1,.464-.268,1.316,1.316,0,0,1,1.163.546,3.176,3.176,0,0,1,.707,1.359,2.429,2.429,0,0,1-.708,2.6,1,1,0,0,1-.863.089c-.2-.084-.255-.193-.239-.207" transform="translate(149.701 -41.974)" fill="#ff9b6c"/>
        <path id="Trazado_806633" data-name="Trazado 806633" d="M203.727,123.095l-1.047,1.661c-9.662-2.4-21.04-15.774-20.241-15.082a17.15,17.15,0,0,1,8.049-2.607c4.437-.163,13.011.29,13.936,5.367a26.9,26.9,0,0,1-.7,10.66" transform="translate(123.327 -33.924)" fill="#263238"/>
        <path id="Trazado_806634" data-name="Trazado 806634" d="M198.224,144.576a1.707,1.707,0,0,1,1.519-.661,1.556,1.556,0,0,1,1.086.558.987.987,0,0,1,.1,1.128,1.147,1.147,0,0,1-1.236.337,3.6,3.6,0,0,1-1.224-.7,1.056,1.056,0,0,1-.275-.275.317.317,0,0,1,0-.352" transform="translate(116.227 -45.607)" fill="#ca515b"/>
        <path id="Trazado_806635" data-name="Trazado 806635" d="M201.57,142.441c-.154-.006-.138,1.022-1.005,1.768s-1.963.652-1.969.8c-.014.064.247.2.71.2a2.563,2.563,0,0,0,1.645-.606,2.232,2.232,0,0,0,.777-1.481c.032-.431-.087-.684-.158-.676" transform="translate(115.24 -45.142)" fill="#263238"/>
        <path id="Trazado_806636" data-name="Trazado 806636" d="M191.247,378.611l.6,13.75s-14.562,5.15-14.712,7.7l28.2-.059-.006-21.457Z" transform="translate(126.292 -119.969)" fill="#263238"/>
        <path id="Trazado_806637" data-name="Trazado 806637" d="M184.289,397.029a1.092,1.092,0,0,1,.8,1.243,1.108,1.108,0,0,1-1.292.761,1.15,1.15,0,0,1-.843-1.32,1.163,1.163,0,0,1,1.437-.65" transform="translate(142.565 -125.812)" fill="#e0e0e0"/>
        <path id="Trazado_806638" data-name="Trazado 806638" d="M205.351,408.955l-.09-2.163-27.008.865s-1.253.52-1.106,1.357Z" transform="translate(126.28 -128.92)" fill="#455a64"/>
        <path id="Trazado_806639" data-name="Trazado 806639" d="M193.782,398.517c.005.13.695.188,1.374.606.691.4,1.044.965,1.171.913.126-.025-.083-.8-.916-1.3s-1.66-.342-1.629-.222" transform="translate(123.899 -126.259)" fill="#fff"/>
        <path id="Trazado_806640" data-name="Trazado 806640" d="M199.127,400.252c-.031.126.567.347,1.038.9.488.538.609,1.134.746,1.128.13.02.221-.743-.378-1.417s-1.4-.732-1.406-.607" transform="translate(115.603 -126.831)" fill="#fff"/>
        <path id="Trazado_806641" data-name="Trazado 806641" d="M205.186,404.145c.126.027.314-.624-.044-1.337s-1-1-1.061-.887c-.078.107.343.49.627,1.079s.341,1.133.478,1.146" transform="translate(107.883 -127.369)" fill="#fff"/>
        <path id="Trazado_806642" data-name="Trazado 806642" d="M11.848,369.576l9.926,9.534s-6.981,13.778-5.329,15.727l20.367-19.511-14.817-15.52Z" transform="translate(407.725 -114.03)" fill="#263238"/>
        <path id="Trazado_806643" data-name="Trazado 806643" d="M24.1,377.952a1.091,1.091,0,0,1,1.439.344,1.106,1.106,0,0,1-.41,1.442,1.149,1.149,0,0,1-1.521-.373,1.164,1.164,0,0,1,.59-1.462" transform="translate(410.896 -119.737)" fill="#e0e0e0"/>
        <path id="Trazado_806644" data-name="Trazado 806644" d="M32.558,381.83,31,380.327,12.056,399.6s-.548,1.241.136,1.745Z" transform="translate(411.977 -120.533)" fill="#455a64"/>
        <path id="Trazado_806645" data-name="Trazado 806645" d="M30.259,387.91c.094.091.633-.344,1.413-.51.777-.187,1.421-.023,1.477-.148.074-.106-.615-.525-1.557-.306s-1.437.9-1.332.964" transform="translate(398.815 -122.611)" fill="#fff"/>
        <path id="Trazado_806646" data-name="Trazado 806646" d="M32.482,392.352c.065.113.65-.141,1.37-.067.724.052,1.223.4,1.318.3.108-.074-.354-.69-1.252-.764s-1.521.439-1.437.531" transform="translate(395.26 -124.173)" fill="#fff"/>
        <path id="Trazado_806647" data-name="Trazado 806647" d="M37.108,397.341c.11-.067-.2-.668-.955-.937s-1.414-.028-1.381.091c.018.131.586.117,1.2.348s1.029.584,1.137.5" transform="translate(391.747 -125.589)" fill="#fff"/>
        <path id="Trazado_806648" data-name="Trazado 806648" d="M186.31,117.827a77.68,77.68,0,0,0,12.481,9.916c5.987,3.827,17.287,12.558,19.572,14.233s13.014,7.76,17.963,8.743,11.426,4.63,11.426,4.63l-3.528,2.805s-18.308,2.646-18.4,2.445c0,0-17.2-8.364-18.6-9.3-5.232-3.487-25.643-26.41-27.085-27.514Z" transform="translate(81.83 -37.342)" fill="#74c67b"/>
        <g id="Grupo_1066853" data-name="Grupo 1066853" transform="translate(261.968 80.486)" opacity="0.3">
          <g id="Grupo_1066852" data-name="Grupo 1066852">
            <g id="Grupo_1066851" data-name="Grupo 1066851" clip-path="url(#clip-path-9)">
              <path id="Trazado_806649" data-name="Trazado 806649" d="M186.31,117.827a77.68,77.68,0,0,0,12.481,9.916c5.987,3.827,17.287,12.558,19.572,14.233s13.014,7.76,17.963,8.743,11.426,4.63,11.426,4.63l-3.528,2.805s-18.308,2.646-18.4,2.445c0,0-17.2-8.364-18.6-9.3-5.232-3.487-25.643-26.41-27.085-27.514Z" transform="translate(-180.138 -117.827)"/>
            </g>
          </g>
        </g>
        <path id="Trazado_806650" data-name="Trazado 806650" d="M272.2,93.828c.835.192,2.849,5.247,2.849,5.247s1.091-10.73,1.177-11.985,1.039-1.8,1.574-1.536,1.494,12.242,1.538,13.4-.924,5.39-1.076,6.693a3.9,3.9,0,0,0,1.026,2.589l-4.441,4.652c-1.335-1.023-2.779-4.6-2.8-6.625a30.239,30.239,0,0,1,.761-6.167c.284-1.051-1.789-3.23-1.826-4.432s.384-2.031,1.219-1.84" transform="translate(-11.815 -27.094)" fill="#ff9b6c"/>
        <path id="Trazado_806651" data-name="Trazado 806651" d="M308.094,157.33l-.066-9.338.285-4.093-1.639-6.05s-1.394-.15-.947,1.713a7.736,7.736,0,0,1,.163,3.161l-.809,4.571-5.675-7.4a1.207,1.207,0,0,0-.912,1.5c.334,1.173,4.107,6.481,3.481,7.127s-6.786-4.674-7.4-4.549a1.221,1.221,0,0,0-.328,2.037c.756.868,5.983,4.1,5.855,4.9s-6.176-2.038-6.978-1.421.072,1.206.9,1.637,5.539,2.215,5.539,2.215,1.572,6.466,2.779,7.78S308,163.474,308,163.474l2.238-5.59Z" transform="translate(-57.614 -43.686)" fill="#ffc09d"/>
        <path id="Trazado_806652" data-name="Trazado 806652" d="M243.848,178.391c-.548-.019-38.576-1.806-39.119-1.717a55.217,55.217,0,0,1-24.071-1.232c-13.323-3.549-14.242-4.4-14.242-4.4l2.646-6.609s22.844,1.211,36.115.707,26.215-3.347,37.628-4.326,13.334,5.661,12.646,9.947-7.924,7.76-11.6,7.631" transform="translate(83.377 -50.934)" fill="#74c67b"/>
        <path id="Trazado_806653" data-name="Trazado 806653" d="M243.924,178.334a7.124,7.124,0,0,0,1.956-.166,16.36,16.36,0,0,0,5.226-2.076,12.344,12.344,0,0,0,3.134-2.607,6.588,6.588,0,0,0,1.187-2.023,8.427,8.427,0,0,0,.318-2.516,9.948,9.948,0,0,0-.447-2.68,8.3,8.3,0,0,0-1.423-2.521,9.592,9.592,0,0,0-5.472-2.916,23.47,23.47,0,0,0-6.877-.082c-2.379.227-4.846.525-7.4.868-5.1.686-10.528,1.54-16.265,2.234-2.868.344-5.814.646-8.83.852s-6.1.3-9.246.321c-6.288.033-12.8-.115-19.468-.348-3.783-.133-7.516-.29-11.174-.475l-.126-.007-.047.117-2.644,6.61-.053.131.1.061a5.7,5.7,0,0,0,1,.472q.49.191.982.362c.656.231,1.314.443,1.969.653,1.312.413,2.62.8,3.919,1.174,2.6.736,5.15,1.456,7.681,2.074a58.73,58.73,0,0,0,14.8,1.683,49.387,49.387,0,0,0,6.873-.555l.822-.141.4-.075.39,0,1.62.05,3.17.123,11.5.484,16.457.7,4.426.175,1.146.037c.258.006.39,0,.39,0s-.131-.016-.389-.033l-1.144-.068L237.968,178l-16.453-.806-11.5-.527-3.172-.133-1.635-.055-.432,0-.409.075-.816.137a49.319,49.319,0,0,1-6.832.535,58.584,58.584,0,0,1-14.718-1.7c-2.516-.618-5.072-1.342-7.666-2.08-1.3-.375-2.6-.761-3.909-1.174-.652-.209-1.307-.421-1.958-.652q-.488-.17-.97-.358a7.214,7.214,0,0,1-.892-.4l.044.193,2.647-6.609-.174.111q5.493.281,11.181.479c6.67.234,13.187.378,19.483.341,3.148-.027,6.243-.115,9.267-.331s5.974-.516,8.847-.865c5.743-.7,11.172-1.57,16.265-2.268,2.547-.349,5.01-.654,7.383-.887a23.282,23.282,0,0,1,6.8.055,9.365,9.365,0,0,1,5.348,2.817,8.084,8.084,0,0,1,1.393,2.442,9.744,9.744,0,0,1,.449,2.616,8.244,8.244,0,0,1-.294,2.454,6.41,6.41,0,0,1-1.143,1.974,12.245,12.245,0,0,1-3.075,2.6,16.658,16.658,0,0,1-5.168,2.124,6.794,6.794,0,0,1-.834.146,4.37,4.37,0,0,1-.61.061c-.329.014-.5.03-.5.03" transform="translate(83.302 -50.876)" fill="#263238"/>
        <path id="Trazado_806654" data-name="Trazado 806654" d="M170.98,203.625c-.488-.461-15.313-14.908-17.664-18.985s-15.686-22.081-22.9-25.329c-9.985-4.5-12.24-2.695-12.711-2.538s-15.362,7.554-15.362,7.554,7.284,22.78,11.676,28.74,14.407,6.83,17.857,10.908,7.094,13.431,10.036,15.084,29.067-15.435,29.067-15.435" transform="translate(211.74 -49.53)" fill="#74c67b"/>
        <g id="Grupo_1066856" data-name="Grupo 1066856" transform="translate(318.317 127.046)" opacity="0.3">
          <g id="Grupo_1066855" data-name="Grupo 1066855" transform="translate(0)">
            <g id="Grupo_1066854" data-name="Grupo 1066854" transform="translate(0)" clip-path="url(#clip-path-10)">
              <path id="Trazado_806655" data-name="Trazado 806655" d="M191.464,186.148l-8.374,6.945-2.756-7.1Z" transform="translate(-180.335 -185.99)"/>
            </g>
          </g>
        </g>
        <path id="Trazado_806656" data-name="Trazado 806656" d="M178.677,264.706l-49.912,28.749s2.254,14.645,3.361,21.29-1.12,30.479-1.12,30.479l-13.694.564s-3.767-27.692-5.76-38.436-6.868-20.049-1.993-27.8,39.433-33.894,39.433-33.894l1.206-5.982Z" transform="translate(200.548 -75.957)" fill="#263238"/>
        <path id="Trazado_806657" data-name="Trazado 806657" d="M47.907,212.671c7.9,8.581,18.545,13.065,18.455,30.849l7.555,41.863s13.462,8.133,19.887,16.108,17.324,19.566,17.324,19.566l-11.649,9.634s-28.561-19.891-39.6-30.275c-10.768-10.131-26.556-49.741-26.556-49.741L21.169,228.639Z" transform="translate(327.042 -67.4)" fill="#263238"/>
        <path id="Trazado_806658" data-name="Trazado 806658" d="M47.676,212.671s-.152.082-.454.258l-1.346.79-5.239,3.1L20.883,228.548l-.088.053.05.091L32.972,250.74l-.008-.015c2.471,6.12,5.289,12.645,8.472,19.479a211.964,211.964,0,0,0,11.086,21.087c1.1,1.77,2.253,3.533,3.534,5.234a30.638,30.638,0,0,0,4.32,4.784c3.206,2.917,6.633,5.691,10.144,8.463,7.047,5.515,14.471,10.986,22.127,16.466l6.5,4.6.11.078.105-.087,11.648-9.634.143-.119-.128-.137c-6.354-6.815-12.412-13.517-17.9-20.227a45.684,45.684,0,0,0-4.539-4.577c-1.58-1.42-3.208-2.747-4.854-4.006a120.411,120.411,0,0,0-9.965-6.877l.072.106c-2.92-16.1-5.488-30.245-7.594-41.856v.021a37.113,37.113,0,0,0-.921-8.325,26.7,26.7,0,0,0-2.753-6.885,39.121,39.121,0,0,0-7.68-8.883c-2.379-2.154-4.229-3.792-5.421-4.963-.6-.579-1.041-1.051-1.344-1.347s-.452-.447-.452-.447.149.167.441.478.714.778,1.309,1.362c1.178,1.186,3.017,2.842,5.381,5.009a39.258,39.258,0,0,1,7.609,8.881,26.6,26.6,0,0,1,2.708,6.843,37.04,37.04,0,0,1,.891,8.275v.012l0,.009,7.515,41.871.012.068.061.038a120.59,120.59,0,0,1,9.928,6.868c1.639,1.257,3.26,2.58,4.831,4a45.248,45.248,0,0,1,4.5,4.548c5.482,6.713,11.545,13.431,17.9,20.251l.016-.256-11.651,9.631.214-.009-6.493-4.6C85.2,320.471,77.78,315,70.737,309.5c-3.508-2.768-6.933-5.537-10.127-8.441a30.191,30.191,0,0,1-4.282-4.734c-1.274-1.689-2.426-3.444-3.522-5.207a212.476,212.476,0,0,1-11.09-21.041c-3.189-6.823-6.017-13.342-8.5-19.449l0-.009,0-.007-12.181-22.02-.039.143,19.647-11.8,5.23-3.154,1.348-.819c.3-.186.458-.288.458-.288" transform="translate(327.273 -67.4)" fill="#455a64"/>
        <g id="Grupo_1066859" data-name="Grupo 1066859" transform="translate(353.191 170.27)" opacity="0.3">
          <g id="Grupo_1066858" data-name="Grupo 1066858" transform="translate(0)">
            <g id="Grupo_1066857" data-name="Grupo 1066857" transform="translate(0)" clip-path="url(#clip-path-11)">
              <path id="Trazado_806659" data-name="Trazado 806659" d="M132.145,279.716l-.457-15.582-4.8-14.867,7.174,13.006,5.586,13.119Z" transform="translate(-126.892 -249.268)"/>
            </g>
          </g>
        </g>
      </g>
    </g>
  </g>
</svg>
