<svg xmlns="http://www.w3.org/2000/svg" xmlns:xlink="http://www.w3.org/1999/xlink" width="610" height="567.537" viewBox="0 0 610 567.537">
  <defs>
    <clipPath id="clip-path">
      <rect id="Rectángulo_375113" data-name="Rectángulo 375113" width="144.7" height="176.452" fill="none"/>
    </clipPath>
    <clipPath id="clip-path-2">
      <rect id="Rectángulo_375116" data-name="Rectángulo 375116" width="8.783" height="22.709" fill="none"/>
    </clipPath>
    <clipPath id="clip-path-3">
      <rect id="Rectángulo_375118" data-name="Rectángulo 375118" width="7.424" height="5.713" fill="none"/>
    </clipPath>
    <clipPath id="clip-path-4">
      <rect id="Rectángulo_375119" data-name="Rectángulo 375119" width="34.195" height="3.671" fill="none"/>
    </clipPath>
    <clipPath id="clip-path-5">
      <rect id="Rectángulo_375120" data-name="Rectángulo 375120" width="6.49" height="9.15" fill="none"/>
    </clipPath>
    <clipPath id="clip-path-6">
      <rect id="Rectángulo_375121" data-name="Rectángulo 375121" width="26.538" height="22.117" fill="none"/>
    </clipPath>
    <clipPath id="clip-path-7">
      <rect id="Rectángulo_375122" data-name="Rectángulo 375122" width="21.945" height="44.353" fill="none"/>
    </clipPath>
  </defs>
  <g id="Grupo_1067327" data-name="Grupo 1067327" transform="translate(-495 -5947.234)">
    <path id="Trazado_806660" data-name="Trazado 806660" d="M357.175,333.482c-.415,1.244,14.105,56.423,14.105,56.423l9.958-2.075-13.692-54.348Z" transform="translate(641.619 6084.131)" fill="#ebebeb"/>
    <path id="Trazado_806661" data-name="Trazado 806661" d="M417.676,327.894l-19.914,64.3h11.616l19.084-59.742Z" transform="translate(658.284 6081.837)" fill="#f5f5f5"/>
    <path id="Trazado_806662" data-name="Trazado 806662" d="M431.462,320.835,408.645,395.1h11.617l21.987-69.7Z" transform="translate(662.751 6078.939)" fill="#ebebeb"/>
    <path id="Trazado_806663" data-name="Trazado 806663" d="M362.172,370.249l11.617,40.243h58.5l10.786-40.243Z" transform="translate(643.674 6099.224)" fill="#e0e0e0"/>
    <path id="Trazado_806664" data-name="Trazado 806664" d="M392.021,394.411a2.01,2.01,0,0,1-.128-.413c-.079-.315-.182-.721-.31-1.23-.267-1.133-.643-2.724-1.123-4.753-.958-4.186-2.327-10.171-4.02-17.575-3.344-14.93-7.968-35.567-13.129-58.6l.358.286H363.426l.357-.447c5.193,23.058,9.844,43.712,13.209,58.656,1.638,7.424,2.962,13.425,3.887,17.623.434,2.042.776,3.643,1.018,4.783.1.516.183.927.247,1.245a1.91,1.91,0,0,1,.059.429,2.057,2.057,0,0,1-.13-.413c-.082-.315-.185-.719-.316-1.23-.274-1.131-.659-2.722-1.148-4.752-.979-4.186-2.38-10.171-4.11-17.573-3.422-14.93-8.151-35.567-13.432-58.605l-.1-.447h11l.063.286c5.074,23.056,9.617,43.71,12.906,58.655,1.6,7.424,2.892,13.425,3.8,17.623.425,2.042.757,3.643.993,4.783.1.516.179.927.241,1.245a1.948,1.948,0,0,1,.058.429" transform="translate(644 6075.062)" fill="#e0e0e0"/>
    <path id="Trazado_807454" data-name="Trazado 807454" d="M0,0H610V567.537H0Z" transform="translate(495 5947.234)" fill="none"/>
    <path id="Trazado_806665" data-name="Trazado 806665" d="M598.181,400.079c0,.2-133.918.367-299.077.367-165.215,0-299.1-.164-299.1-.367s133.889-.367,299.1-.367c165.159,0,299.077.164,299.077.367" transform="translate(495 6111.318)" fill="#263238"/>
    <path id="Trazado_807455" data-name="Trazado 807455" d="M0,0H610V567.537H0Z" transform="translate(495 5947.234)" fill="none"/>
    <path id="Trazado_806666" data-name="Trazado 806666" d="M424.175,127.19a5.438,5.438,0,0,0-1-.306,6.94,6.94,0,0,0-3.059.044,11.055,11.055,0,0,0-4.447,2.284,23.635,23.635,0,0,0-4.514,5.26c-2.884,4.423-5.164,10.548-7.816,17.686a259.279,259.279,0,0,0-7.955,24.866l-.008.032-.011.02a7.218,7.218,0,0,1-1.645,2.035,3.241,3.241,0,0,1-2.564.82,4.757,4.757,0,0,1-2.361-1.363c-.659-.611-1.278-1.261-1.9-1.915a43.46,43.46,0,0,0-3.91-3.814c-1.406-1.117-3.1-2.2-4.942-2.02a6.682,6.682,0,0,0-4.532,3.018,11.373,11.373,0,0,0-1.561,5.6c-.24,4.038.925,8.1,1.633,12.331q1.179,6.326,2.415,12.958.616,3.315,1.248,6.7.315,1.693.633,3.4a4.419,4.419,0,0,1-.4,3.612,1.778,1.778,0,0,1-1.883.64,4.738,4.738,0,0,1-1.667-.867l-2.863-2.144a64.115,64.115,0,0,0-5.976-4.024,22.762,22.762,0,0,0-6.684-2.783,7.872,7.872,0,0,0-3.559.024,5.259,5.259,0,0,0-2.9,1.945c-1.463,1.937-1.859,4.546-1.9,7.048a39.556,39.556,0,0,0,.739,7.646,97.67,97.67,0,0,0,4.3,15.2,20.058,20.058,0,0,1,1.233,3.921,2.851,2.851,0,0,1-.522,2.176,2.552,2.552,0,0,1-.408.41,1.367,1.367,0,0,1-.55.324,1.7,1.7,0,0,1-1.227-.271,21.106,21.106,0,0,1-3.262-2.6l-3.023-2.8a44.647,44.647,0,0,0-6.415-5.165,13.381,13.381,0,0,0-3.7-1.684,4.586,4.586,0,0,0-3.77.467,5.466,5.466,0,0,0-2.134,3.268,16.61,16.61,0,0,0-.5,4.126,34.917,34.917,0,0,0,1.062,8.426,73.353,73.353,0,0,0,6.124,16.211,123.1,123.1,0,0,0,9.129,15.167,87,87,0,0,0,5.5,7.093l5.725,7.017.066.08-.337-.131,8.967-1.3a82.328,82.328,0,0,0,8.847-1.525,122.614,122.614,0,0,0,16.964-5.088,73.292,73.292,0,0,0,15.442-7.882,34.83,34.83,0,0,0,6.454-5.522,16.592,16.592,0,0,0,2.4-3.394,5.485,5.485,0,0,0,.623-3.853,4.591,4.591,0,0,0-2.475-2.884,13.374,13.374,0,0,0-3.872-1.243,44.654,44.654,0,0,0-8.225-.491l-4.122.042a21.049,21.049,0,0,1-4.161-.274,1.682,1.682,0,0,1-1.092-.628,1.372,1.372,0,0,1-.188-.608,2.621,2.621,0,0,1-.025-.578,2.858,2.858,0,0,1,1.079-1.961,20.28,20.28,0,0,1,3.55-2.075,97.6,97.6,0,0,0,13.408-8.364,39.569,39.569,0,0,0,5.687-5.164c1.652-1.88,3.113-4.079,3.329-6.5a5.282,5.282,0,0,0-.844-3.388,7.866,7.866,0,0,0-2.622-2.406,22.777,22.777,0,0,0-6.821-2.432,64.1,64.1,0,0,0-7.13-1.04l-3.562-.339a4.7,4.7,0,0,1-1.818-.484,1.778,1.778,0,0,1-.949-1.748,4.447,4.447,0,0,1,2.138-2.938l2.759-2.095q2.746-2.084,5.432-4.123l10.5-7.968c3.365-2.65,6.962-4.879,9.5-8.029a11.359,11.359,0,0,0,2.608-5.2,6.684,6.684,0,0,0-1.33-5.28,4.866,4.866,0,0,0-2.309-1.378,11.184,11.184,0,0,0-2.71-.446,43.836,43.836,0,0,0-5.457.195c-.9.068-1.794.133-2.691.142a4.757,4.757,0,0,1-2.663-.581,3.252,3.252,0,0,1-1.347-2.33,7.277,7.277,0,0,1,.152-2.612l0-.021.015-.03a258.89,258.89,0,0,0,10.816-23.713c2.832-7.054,5.257-13.106,6.13-18.3a23.865,23.865,0,0,0,.278-6.914,11.2,11.2,0,0,0-1.64-4.714,6.711,6.711,0,0,0-2.185-2.13,5.045,5.045,0,0,0-.938-.457,3.688,3.688,0,0,1,.969.4,6.621,6.621,0,0,1,2.255,2.114,11.256,11.256,0,0,1,1.719,4.759,23.82,23.82,0,0,1-.224,6.978c-.842,5.241-3.243,11.329-6.044,18.394a255.957,255.957,0,0,1-10.747,23.8l.02-.051a6.835,6.835,0,0,0-.133,2.432,2.79,2.79,0,0,0,1.152,2.013,4.321,4.321,0,0,0,2.406.5c.873-.013,1.762-.079,2.659-.149a44.166,44.166,0,0,1,5.519-.21,11.7,11.7,0,0,1,2.831.46,5.342,5.342,0,0,1,2.535,1.513,7.165,7.165,0,0,1,1.471,5.7,11.869,11.869,0,0,1-2.707,5.453c-2.6,3.244-6.239,5.5-9.58,8.146l-10.474,7.982-5.419,4.129q-1.371,1.043-2.755,2.1a6.388,6.388,0,0,0-1.253,1.1,2.822,2.822,0,0,0-.649,1.409,1.148,1.148,0,0,0,.642,1.158,4.158,4.158,0,0,0,1.587.4q1.767.165,3.549.331a64.8,64.8,0,0,1,7.2,1.04,23.427,23.427,0,0,1,7.023,2.5,8.513,8.513,0,0,1,2.835,2.608,5.919,5.919,0,0,1,.951,3.789c-.244,2.679-1.8,4.952-3.483,6.887a39.993,39.993,0,0,1-5.777,5.261,98.044,98.044,0,0,1-13.5,8.439,20.191,20.191,0,0,0-3.413,1.983,2.166,2.166,0,0,0-.843,1.488,1.887,1.887,0,0,0,.02.434c.017.111.058.379.1.355a1.2,1.2,0,0,0,.656.3,20.814,20.814,0,0,0,3.995.25l4.117-.045a45.368,45.368,0,0,1,8.357.5,14.1,14.1,0,0,1,4.083,1.315,5.3,5.3,0,0,1,2.83,3.34,6.185,6.185,0,0,1-.674,4.344,17.343,17.343,0,0,1-2.509,3.55,35.531,35.531,0,0,1-6.581,5.641,74.051,74.051,0,0,1-15.592,7.968,123.5,123.5,0,0,1-17.071,5.124,83.143,83.143,0,0,1-8.881,1.532l-8.981,1.306-.206.03-.131-.161-.066-.08-5.734-7.029a86.844,86.844,0,0,1-5.516-7.119,123.283,123.283,0,0,1-9.184-15.267,73.947,73.947,0,0,1-6.178-16.376,35.473,35.473,0,0,1-1.076-8.6,17.262,17.262,0,0,1,.532-4.313,6.174,6.174,0,0,1,2.426-3.666,5.3,5.3,0,0,1,4.339-.564,14.121,14.121,0,0,1,3.9,1.773,45.389,45.389,0,0,1,6.517,5.251q1.515,1.4,3.017,2.8a20.768,20.768,0,0,0,3.123,2.5,1.227,1.227,0,0,0,.691.219c.015.044.223-.124.312-.2a1.919,1.919,0,0,0,.307-.307,2.168,2.168,0,0,0,.377-1.669,20.073,20.073,0,0,0-1.192-3.762,98.153,98.153,0,0,1-4.315-15.317,40.16,40.16,0,0,1-.74-7.778c.052-2.567.432-5.292,2.048-7.44a5.922,5.922,0,0,1,3.247-2.171,8.5,8.5,0,0,1,3.851-.028,23.336,23.336,0,0,1,6.88,2.868,64.6,64.6,0,0,1,6.03,4.072q1.432,1.075,2.849,2.141a4.216,4.216,0,0,0,1.447.772,1.149,1.149,0,0,0,1.257-.415,2.791,2.791,0,0,0,.474-1.477,6.318,6.318,0,0,0-.183-1.659q-.315-1.71-.628-3.4-.624-3.387-1.236-6.7-1.221-6.627-2.385-12.951c-.694-4.206-1.869-8.319-1.618-12.473a11.9,11.9,0,0,1,1.659-5.858A7.175,7.175,0,0,1,378,170.312a5.362,5.362,0,0,1,2.894.581,11.617,11.617,0,0,1,2.406,1.563,43.624,43.624,0,0,1,3.947,3.869c.618.654,1.23,1.3,1.869,1.9a4.317,4.317,0,0,0,2.114,1.253,2.788,2.788,0,0,0,2.207-.714,6.882,6.882,0,0,0,1.537-1.89l-.02.052a255.781,255.781,0,0,1,8.064-24.887c2.683-7.124,5-13.259,7.941-17.7a23.611,23.611,0,0,1,4.6-5.27,11.109,11.109,0,0,1,4.536-2.262,6.837,6.837,0,0,1,3.1.016,3.918,3.918,0,0,1,.986.367" transform="translate(630.501 5999.221)" fill="#263238"/>
    <path id="Trazado_806667" data-name="Trazado 806667" d="M411.054,140.634a2.506,2.506,0,0,1-.144.461l-.487,1.326c-.458,1.2-1.107,2.9-1.935,5.071-1.711,4.442-4.16,10.795-7.177,18.627l-23.427,61.55c-9.118,24.058-17.455,45.8-23.633,61.488-3.086,7.844-5.612,14.178-7.394,18.543-.882,2.147-1.576,3.83-2.065,5.02-.23.542-.413.97-.553,1.3a2.354,2.354,0,0,1-.213.433,2.374,2.374,0,0,1,.144-.461c.121-.334.282-.773.485-1.326l1.935-5.069c1.711-4.442,4.158-10.795,7.177-18.627,6.009-15.789,14.286-37.535,23.43-61.56,9.115-24.049,17.451-45.794,23.63-61.477,3.086-7.844,5.612-14.18,7.4-18.544.882-2.147,1.574-3.831,2.064-5.021.231-.542.415-.97.554-1.3a2.244,2.244,0,0,1,.213-.433" transform="translate(636.224 6004.965)" fill="#263238"/>
    <path id="Trazado_806668" data-name="Trazado 806668" d="M399.26,175.144a24.892,24.892,0,0,1-3.529,2.1l-8.639,4.806c-3.377,1.877-6.452,3.55-8.721,4.687a18.858,18.858,0,0,1-3.767,1.642,28.819,28.819,0,0,1,3.523-2.1l8.608-4.87c3.378-1.877,6.477-3.511,8.756-4.624a20.941,20.941,0,0,1,3.769-1.636" transform="translate(648.776 6019.129)" fill="#263238"/>
    <path id="Trazado_806669" data-name="Trazado 806669" d="M377.962,192.334c-.182.09-3.536-6.311-7.491-14.3s-7.014-14.532-6.833-14.623,3.535,6.309,7.491,14.3,7.014,14.531,6.832,14.621" transform="translate(644.272 6014.317)" fill="#263238"/>
    <path id="Trazado_806670" data-name="Trazado 806670" d="M370.415,216.9a21.7,21.7,0,0,1-3.1-2.825c-1.828-1.834-4.287-4.437-6.837-7.459s-4.725-5.871-6.226-7.981a21.278,21.278,0,0,1-2.271-3.526,26.916,26.916,0,0,1,2.687,3.215c1.6,2.025,3.824,4.814,6.37,7.817s4.926,5.656,6.653,7.576a26.274,26.274,0,0,1,2.725,3.184" transform="translate(639.487 6027.325)" fill="#263238"/>
    <path id="Trazado_806671" data-name="Trazado 806671" d="M390.842,206.264a20.287,20.287,0,0,1-3.719,1.089c-2.318.581-5.531,1.336-9.089,2.123s-6.79,1.461-9.137,1.913a20.32,20.32,0,0,1-3.831.583,20.327,20.327,0,0,1,3.719-1.089c2.317-.581,5.531-1.336,9.091-2.123s6.789-1.461,9.136-1.913a20.335,20.335,0,0,1,3.831-.583" transform="translate(644.861 6031.897)" fill="#263238"/>
    <path id="Trazado_806672" data-name="Trazado 806672" d="M388.243,230.756a33.169,33.169,0,0,1-4.794,1.279c-2.982.7-7.112,1.614-11.682,2.58s-8.718,1.8-11.728,2.37a33.1,33.1,0,0,1-4.9.77,33.161,33.161,0,0,1,4.794-1.279c2.982-.7,7.112-1.614,11.683-2.58s8.717-1.8,11.727-2.368a33.25,33.25,0,0,1,4.9-.772" transform="translate(640.786 6041.954)" fill="#263238"/>
    <path id="Trazado_806673" data-name="Trazado 806673" d="M362.254,243.668a5.366,5.366,0,0,1-1.059-.962c-.649-.65-1.56-1.618-2.67-2.828-2.212-2.425-5.195-5.845-8.323-9.761s-5.824-7.567-7.7-10.261c-.941-1.344-1.68-2.449-2.175-3.223a5.374,5.374,0,0,1-.705-1.244,5.41,5.41,0,0,1,.939,1.079q.986,1.288,2.361,3.082c1.982,2.611,4.729,6.208,7.857,10.108s6.031,7.37,8.14,9.878a42.3,42.3,0,0,1,3.339,4.133" transform="translate(634.414 6035.652)" fill="#263238"/>
    <path id="Trazado_806674" data-name="Trazado 806674" d="M353.2,352.258c-24.492-19.739-28.041-53.5-24.966-83.417.513-4.995.326-10.309,3.007-14.538s8.445-6.848,12.782-4.432c3.6,2,4.921,6.44,6.756,10.158a29.36,29.36,0,0,0,10.969,12.019c3.075,1.873,6.95,3.154,10.215,1.635,4.481-2.086,5.4-8.016,5.71-13q.867-13.924,1.736-27.848c.31-4.98.645-10.065,2.516-14.685s5.6-8.773,10.422-9.775,10.5,2.131,11.163,7.072c.277,2.057-.281,4.134-.284,6.209s.8,4.429,2.725,5.14c1.948.719,4.037-.556,5.624-1.91,5.484-4.674,9.415-10.91,13.116-17.128s7.316-12.592,12.355-17.755,11.786-9.064,18.943-8.979,14.453,5.007,15.775,12.13c1.326,7.143-3.258,13.984-8.1,19.359a111.4,111.4,0,0,1-24.651,20.468c-1.646,1.007-3.43,2.093-4.157,3.9-1.309,3.244,1.611,6.756,4.813,8.072,3.626,1.491,7.679,1.381,11.529,2.1s7.938,2.724,9.156,6.494c1.69,5.229-2.932,10.271-7.359,13.476A95.4,95.4,0,0,1,423.7,281.36c-3.755,1.089-7.69,2-10.819,4.37s-5.22,6.724-3.676,10.352,6.047,5.071,9.931,4.621,7.462-2.295,11.212-3.423c7.019-2.113,15.822-1.035,19.8,5.178,2.612,4.085,2.5,9.514.721,14.047s-5,8.322-8.392,11.786c-11.848,12.113-26.6,21.509-42.846,25.922s-31.057,4.9-46.434-1.955" transform="translate(629.357 6021.546)" fill="#74c67b"/>
    <g id="Grupo_1066909" data-name="Grupo 1066909" transform="translate(960.3 6202.571)" opacity="0.1">
      <g id="Grupo_1066908" data-name="Grupo 1066908">
        <g id="Grupo_1066907" data-name="Grupo 1066907" clip-path="url(#clip-path)">
          <path id="Trazado_806675" data-name="Trazado 806675" d="M353.2,352.258c-24.492-19.739-28.041-53.5-24.966-83.417.513-4.995.326-10.309,3.007-14.538s8.445-6.848,12.782-4.432c3.6,2,4.921,6.44,6.756,10.158a29.36,29.36,0,0,0,10.969,12.019c3.075,1.873,6.95,3.154,10.215,1.635,4.481-2.086,5.4-8.016,5.71-13q.867-13.924,1.736-27.848c.31-4.98.645-10.065,2.516-14.685s5.6-8.773,10.422-9.775,10.5,2.131,11.163,7.072c.277,2.057-.281,4.134-.284,6.209s.8,4.429,2.725,5.14c1.948.719,4.037-.556,5.624-1.91,5.484-4.674,9.415-10.91,13.116-17.128s7.316-12.592,12.355-17.755,11.786-9.064,18.943-8.979,14.453,5.007,15.775,12.13c1.326,7.143-3.258,13.984-8.1,19.359a111.4,111.4,0,0,1-24.651,20.468c-1.646,1.007-3.43,2.093-4.157,3.9-1.309,3.244,1.611,6.756,4.813,8.072,3.626,1.491,7.679,1.381,11.529,2.1s7.938,2.724,9.156,6.494c1.69,5.229-2.932,10.271-7.359,13.476A95.4,95.4,0,0,1,423.7,281.36c-3.755,1.089-7.69,2-10.819,4.37s-5.22,6.724-3.676,10.352,6.047,5.071,9.931,4.621,7.462-2.295,11.212-3.423c7.019-2.113,15.822-1.035,19.8,5.178,2.612,4.085,2.5,9.514.721,14.047s-5,8.322-8.392,11.786c-11.848,12.113-26.6,21.509-42.846,25.922s-31.057,4.9-46.434-1.955" transform="translate(-327.298 -181.025)"/>
        </g>
      </g>
    </g>
    <path id="Trazado_806676" data-name="Trazado 806676" d="M344.3,373.064a219.046,219.046,0,0,1,10.95-40.474c5.452-14.83,12.776-30.591,21-46.815q3.108-6.07,6.136-11.988c2.023-3.93,4.028-7.828,6.226-11.518a223.289,223.289,0,0,1,13.843-20.486c4.718-6.3,9.425-12.112,13.867-17.511s8.7-10.34,12.762-14.685a177.149,177.149,0,0,1,20.678-19.055c2.608-2.051,4.683-3.576,6.1-4.59l1.622-1.144a3.792,3.792,0,0,1,.571-.363,3.586,3.586,0,0,1-.516.44c-.389.3-.908.705-1.568,1.217-1.382,1.062-3.422,2.632-5.993,4.722a187.425,187.425,0,0,0-20.424,19.22c-4.021,4.361-8.229,9.321-12.649,14.727S407.82,236,403.131,242.3a225.69,225.69,0,0,0-13.743,20.434c-2.181,3.674-4.165,7.539-6.189,11.48L377.071,286.2c-8.22,16.211-15.549,31.923-21.029,46.693a222.821,222.821,0,0,0-11.1,40.281" transform="translate(636.338 6022.946)" fill="#263238"/>
    <path id="Trazado_806677" data-name="Trazado 806677" d="M376.937,255.689a10.1,10.1,0,0,1-.341-2.157c-.166-1.4-.341-3.418-.522-5.921-.364-5.006-.631-11.934-.894-19.575s-.629-14.551-1.069-19.537c-.213-2.492-.4-4.511-.556-5.9a10.09,10.09,0,0,1-.13-2.181,9.892,9.892,0,0,1,.484,2.13c.259,1.379.551,3.391.846,5.883.607,4.988,1.076,11.917,1.34,19.568.243,7.542.461,14.363.628,19.575.09,2.354.168,4.339.23,5.931a10.035,10.035,0,0,1-.015,2.185" transform="translate(648.282 6029.507)" fill="#263238"/>
    <path id="Trazado_806678" data-name="Trazado 806678" d="M440.737,234.333a13.859,13.859,0,0,1-2.574.131c-1.653.034-4.044.068-7,.207-5.906.23-14.053.835-23.012,1.894-8.961,1.078-17.028,2.4-22.835,3.519-2.91.54-5.251,1.041-6.872,1.378a13.767,13.767,0,0,1-2.54.441,13.675,13.675,0,0,1,2.457-.794c1.6-.444,3.927-1.044,6.827-1.67,5.792-1.291,13.871-2.717,22.859-3.8a226.2,226.2,0,0,1,23.1-1.628c2.965-.055,5.364.008,7.02.087a13.616,13.616,0,0,1,2.567.23" transform="translate(649.312 6043.291)" fill="#263238"/>
    <path id="Trazado_806679" data-name="Trazado 806679" d="M360.429,313.111a3.327,3.327,0,0,1-.385-.811c-.254-.646-.563-1.434-.937-2.391-.8-2.079-1.887-5.119-3.176-8.892-2.585-7.545-5.828-18.078-9.25-29.75s-6.565-22.227-8.988-29.815c-1.189-3.688-2.169-6.722-2.9-8.979-.31-.977-.566-1.784-.774-2.449a3.3,3.3,0,0,1-.212-.875,3.4,3.4,0,0,1,.385.812c.254.646.563,1.433.937,2.388.8,2.08,1.887,5.12,3.176,8.893,2.585,7.545,5.828,18.078,9.251,29.756s6.563,22.221,8.986,29.811c1.192,3.687,2.169,6.724,2.9,8.976.31.979.566,1.787.774,2.449a3.348,3.348,0,0,1,.212.876" transform="translate(632.028 6041.301)" fill="#263238"/>
    <path id="Trazado_806680" data-name="Trazado 806680" d="M439.618,273.379a3.515,3.515,0,0,1-.868.291l-2.528.657-9.311,2.327c-7.862,1.968-18.689,4.807-30.647,7.962s-22.828,5.9-30.732,7.706c-3.952.9-7.157,1.6-9.381,2.038l-2.564.489a3.3,3.3,0,0,1-.907.107,3.48,3.48,0,0,1,.867-.291l2.528-.657c2.332-.584,5.478-1.37,9.309-2.327,7.861-1.965,18.689-4.807,30.652-7.964s22.822-5.9,30.726-7.7c3.952-.9,7.157-1.6,9.383-2.04l2.566-.489a3.363,3.363,0,0,1,.907-.107" transform="translate(639.777 6059.454)" fill="#263238"/>
    <path id="Trazado_807456" data-name="Trazado 807456" d="M0,0H610V567.537H0Z" transform="translate(495 5947.234)" fill="none"/>
    <path id="Trazado_807457" data-name="Trazado 807457" d="M0,0H342.058V468.715H0Z" transform="translate(646.198 5984.434)" fill="#455a64"/>
    <path id="Trazado_806681" data-name="Trazado 806681" d="M427.442,461.7H127.386V39.8H427.442V461.7Z" transform="translate(547.293 5963.574)" fill="#e0e0e0"/>
    <path id="Trazado_806682" data-name="Trazado 806682" d="M423.295,455.495H125.943V35.848H423.295V455.495Z" transform="translate(546.7 5961.95)" fill="#ebebeb"/>
    <path id="Trazado_806683" data-name="Trazado 806683" d="M392.958,422.527,358.71,450.415h-236.7V36.6H422.062V398.934Z" transform="translate(545.084 5962.26)" fill="#fafafa"/>
    <path id="Trazado_806684" data-name="Trazado 806684" d="M393.065,422.634s.607-.518,1.829-1.522,3.059-2.5,5.485-4.485L422.1,398.951l-.044.09c-.035-59.518-.114-191.768-.216-362.331l.333.331-297.436.035h-2.619l.368-.367c-.028,155.572-.054,299.091-.073,413.811l-.295-.293,236.7.168-.079.028,25.719-20.864q4.291-3.466,6.445-5.206c1.436-1.155,2.164-1.719,2.164-1.719s-.7.6-2.121,1.77-3.563,2.924-6.405,5.257L358.9,450.619l-.034.028h-.045l-236.7.169h-.293v-.295c-.021-114.721-.047-258.24-.073-413.811v-.368h2.986l297.436.035h.331v.333c-.1,170.563-.179,302.813-.214,362.331v.056l-.044.035L400.456,416.72l-5.524,4.44c-1.236.987-1.867,1.474-1.867,1.474" transform="translate(544.978 5962.153)" fill="#263238"/>
    <path id="Trazado_806685" data-name="Trazado 806685" d="M307.719,58.2h-122.8V36.915A20.815,20.815,0,0,1,205.73,16.1h82.025a19.965,19.965,0,0,1,19.964,19.966Z" transform="translate(570.909 5953.843)" fill="#59bee2"/>
    <path id="Trazado_806686" data-name="Trazado 806686" d="M207.546,22.708,203.057,0h70.709l-3.93,22.708Z" transform="translate(578.356 5947.235)" fill="#59bee2"/>
    <path id="Trazado_806687" data-name="Trazado 806687" d="M306.065,281.408l-32.9,68.129h23.486Z" transform="translate(607.138 6062.754)" fill="#e0e0e0"/>
    <path id="Trazado_806688" data-name="Trazado 806688" d="M289.821,349.809l9.409-68.129,53.943,16.648Z" transform="translate(613.973 6062.866)" fill="#fafafa"/>
    <path id="Trazado_806689" data-name="Trazado 806689" d="M289.821,349.94l18.141-14.932,44.985-36.828.121.622-20.828-6.419-33.112-10.24.444-.284c-2.82,19.789-5.236,36.741-6.952,48.791-1.7,11.716-2.578,17.763-2.8,19.29a2.519,2.519,0,0,1,.031-.3c.03-.244.069-.554.118-.944q.174-1.324.485-3.71c.436-3.309,1.064-8.067,1.853-14.043,1.624-12.146,3.91-29.233,6.579-49.177l.054-.4.391.12,33.126,10.2c7.155,2.21,14.132,4.367,20.822,6.435l.645.2-.525.422c-18.2,14.682-34.122,27.525-45.53,36.727l-13.3,10.685c-1.519,1.219-2.707,2.169-3.546,2.844l-.908.722c-.2.158-.3.236-.3.226" transform="translate(613.973 6062.735)" fill="#263238"/>
    <g id="Grupo_1066914" data-name="Grupo 1066914" transform="translate(843.337 5947.234)" opacity="0.3">
      <g id="Grupo_1066913" data-name="Grupo 1066913">
        <g id="Grupo_1066912" data-name="Grupo 1066912" clip-path="url(#clip-path-2)">
          <path id="Trazado_806690" data-name="Trazado 806690" d="M250.858,0l-3.9,22.708h4.855L255.742,0h-6.184" transform="translate(-246.959 0)"/>
        </g>
      </g>
    </g>
    <path id="Trazado_807458" data-name="Trazado 807458" d="M0,0H610V567.537H0Z" transform="translate(495 5947.234)" fill="none"/>
    <path id="Trazado_806691" data-name="Trazado 806691" d="M68.874,191.785h0A12.69,12.69,0,0,0,82.524,179.62c.265-6.907.5-13.889.5-13.889s10.466-.98,11.226-11.339.412-34.271.412-34.271a36.1,36.1,0,0,0-36.477,2.346l.646,36.455v19.613c.069,6.577,3.488,12.748,10.047,13.252" transform="translate(518.884 5994.96)" fill="#ffbe9d"/>
    <path id="Trazado_806692" data-name="Trazado 806692" d="M85.487,144.274c-1.787-2.214-4.693-3.1-7.078-1.546a6.02,6.02,0,0,0-2.006,7.528,7.932,7.932,0,0,0,5.082,3.842,3.98,3.98,0,0,1,3.114,4.284,13.272,13.272,0,0,1-3.638,7.213,19.115,19.115,0,0,1-11.989,5.68c-4.412.522-9.464-.4-12.032-4.024-1.868-2.638-2-6.086-2.069-9.318L54.4,135.021a32.7,32.7,0,0,1,.522-8.22,11.036,11.036,0,0,1,4.336-6.8c2.519-1.657,5.711-1.8,8.58-2.727,3.588-1.161,6.635-3.54,9.991-5.257s7.471-2.743,10.841-1.052c2.419,1.214,4.04,3.628,6.392,4.965,3.349,1.906,7.907,1.473,9.534,6.4a8.347,8.347,0,0,1-.055,5.267c-2.271,6.7-10.57,9.4-16.548,6.507-.118,1.135,1,3.662-.195,7.247-.382,1.145-.518,2.893-2.309,2.925" transform="translate(517.317 5992.432)" fill="#263238"/>
    <path id="Trazado_806693" data-name="Trazado 806693" d="M61.285,125.871c1.47-3.349,2.958-6.766,3.327-10.405s-.553-7.6-3.264-10.055A9.811,9.811,0,0,0,54.52,103a11.545,11.545,0,0,0-10.41,8.247A12.438,12.438,0,0,0,48.3,123.984a13.486,13.486,0,0,0,13.421,1.75" transform="translate(512.936 5989.513)" fill="#263238"/>
    <path id="Trazado_806694" data-name="Trazado 806694" d="M59.037,116.534c.2-.006.028,1.844-1.528,3.346-1.539,1.521-3.391,1.645-3.381,1.449-.049-.21,1.518-.625,2.868-1.973,1.381-1.319,1.832-2.876,2.041-2.821" transform="translate(517.22 5995.072)" fill="#e8505b"/>
    <path id="Trazado_806695" data-name="Trazado 806695" d="M58.624,121.071a9.749,9.749,0,0,1-2.813,2.057,8.129,8.129,0,0,1-3.707,1.051,5.161,5.161,0,0,1-4.323-1.939,5.764,5.764,0,0,1-.767-4.684,9.108,9.108,0,0,1,1.742-3.429,10.831,10.831,0,0,1,2.451-2.473,32.5,32.5,0,0,1-2.031,2.777,9.335,9.335,0,0,0-1.5,3.271,5.231,5.231,0,0,0,.7,4.1,4.584,4.584,0,0,0,3.729,1.7,8.154,8.154,0,0,0,3.477-.839c1.886-.911,2.975-1.7,3.044-1.591" transform="translate(514.225 5993.067)" fill="#263238"/>
    <path id="Trazado_806696" data-name="Trazado 806696" d="M42.714,129.674a4.526,4.526,0,0,1,.5,1.148,11.842,11.842,0,0,0,1.526,2.951,4.278,4.278,0,0,0,4.055,1.866,5.566,5.566,0,0,0,3.9-3.931,40.35,40.35,0,0,0,1.059-6.017,9.3,9.3,0,0,1,1.978-4.746,5.115,5.115,0,0,1,3.016-1.719,2,2,0,0,1,1.268.109c-.006.071-.457-.02-1.213.173a5.122,5.122,0,0,0-2.676,1.776,9.152,9.152,0,0,0-1.7,4.516,36.09,36.09,0,0,1-1.032,6.147,6.169,6.169,0,0,1-4.48,4.358,4.128,4.128,0,0,1-2.808-.543,5.883,5.883,0,0,1-1.786-1.68,10.173,10.173,0,0,1-1.379-3.171,3.876,3.876,0,0,1-.233-1.237" transform="translate(512.529 5996.163)" fill="#263238"/>
    <path id="Trazado_806697" data-name="Trazado 806697" d="M39.785,188.316s-5.28,38.676,0,43.579,10.36,3.275,10.36,3.275L60.2,226.764l1.979-38.448Z" transform="translate(510.369 6024.539)" fill="#ffbe9d"/>
    <path id="Trazado_806698" data-name="Trazado 806698" d="M155.563,112.733l-9.732,6.246c-.44-3.846-3.377-7.659-3.224-5.727s.018,11.957.018,11.957L125.267,161.73c-2.358,5.786-7.137,9.424-10.709,10.281l-16.2,4.818,6.333,21.419,22.517-7.466A19.421,19.421,0,0,0,139.548,178.4l15.523-47.286a73.453,73.453,0,0,0,2.508-9.316c.664-3.941-2.016-9.07-2.016-9.07" transform="translate(535.376 5993.512)" fill="#ffbe9d"/>
    <path id="Trazado_806699" data-name="Trazado 806699" d="M88.355,399.059l-.243-10.83-20.287.324.186,15.847,1.26.061c5.6.221,28.506.731,32.23-.463,4.154-1.333-13.146-4.94-13.146-4.94" transform="translate(522.843 6106.604)" fill="#727997"/>
    <g id="Grupo_1066919" data-name="Grupo 1066919" transform="translate(590.784 6505.016)" opacity="0.5">
      <g id="Grupo_1066918" data-name="Grupo 1066918">
        <g id="Grupo_1066917" data-name="Grupo 1066917" clip-path="url(#clip-path-3)">
          <path id="Trazado_806700" data-name="Trazado 806700" d="M75.33,401.161a7.039,7.039,0,0,0-2.657-4.284,6.839,6.839,0,0,0-4.766-1.4l.086,5.67Z" transform="translate(-67.907 -395.447)" fill="#fff"/>
        </g>
      </g>
    </g>
    <g id="Grupo_1066922" data-name="Grupo 1066922" transform="translate(590.854 6507.726)" opacity="0.4">
      <g id="Grupo_1066921" data-name="Grupo 1066921">
        <g id="Grupo_1066920" data-name="Grupo 1066920" clip-path="url(#clip-path-4)">
          <path id="Trazado_806701" data-name="Trazado 806701" d="M96.758,397.369s6.069,1.646,5.332,2.653-23.9,1.364-34.133.626l.025-.454L95,400.009s.573-2.573,1.753-2.641" transform="translate(-67.957 -397.369)" fill="#fff"/>
        </g>
      </g>
    </g>
    <path id="Trazado_806702" data-name="Trazado 806702" d="M67.749,399.516a1.843,1.843,0,0,0,.35.033l1,.045,3.69.1c3.117.065,7.423.1,12.178.027s9.061-.227,12.174-.382l3.684-.21,1-.075a1.927,1.927,0,0,0,.348-.042,1.966,1.966,0,0,0-.351-.007l-1,.028-3.687.133c-3.114.11-7.416.24-12.17.31s-9.057.065-12.173.045L69.1,399.5h-1a1.873,1.873,0,0,0-.35.017" transform="translate(522.812 6111.028)" fill="#263238"/>
    <path id="Trazado_806703" data-name="Trazado 806703" d="M87.143,400.4a5.362,5.362,0,0,1,1.9-3.2,3.279,3.279,0,0,0-1.9,3.2" transform="translate(530.757 6110.283)" fill="#263238"/>
    <path id="Trazado_806704" data-name="Trazado 806704" d="M82.858,397.874c.058.035.339-.317.628-.789s.477-.882.418-.917-.339.317-.628.788-.475.882-.418.917" transform="translate(529.009 6109.863)" fill="#263238"/>
    <path id="Trazado_806705" data-name="Trazado 806705" d="M81.683,397.118c.047.049.364-.169.708-.488s.587-.619.54-.669-.363.168-.708.488-.587.619-.54.669" transform="translate(528.529 6109.776)" fill="#263238"/>
    <path id="Trazado_806706" data-name="Trazado 806706" d="M80.924,395.47a4.641,4.641,0,0,0,2.12-.009,4.639,4.639,0,0,0-2.12.009" transform="translate(528.22 6109.525)" fill="#263238"/>
    <path id="Trazado_806707" data-name="Trazado 806707" d="M80.657,394.485a2.977,2.977,0,0,0,2.4.144,6.571,6.571,0,0,0-1.2-.063,6.6,6.6,0,0,0-1.2-.08" transform="translate(528.11 6109.164)" fill="#263238"/>
    <path id="Trazado_806708" data-name="Trazado 806708" d="M83.324,396.658a3.758,3.758,0,0,0,1.3-.028,7.678,7.678,0,0,0,1.384-.327,3.817,3.817,0,0,0,.79-.34.708.708,0,0,0,.316-.411.514.514,0,0,0-.206-.518,2.392,2.392,0,0,0-2.945.745,2.337,2.337,0,0,0-.412.877c-.049.223-.044.35-.028.353a3.617,3.617,0,0,1,.575-1.121,2.361,2.361,0,0,1,1.1-.742,2.028,2.028,0,0,1,1.556.083c.209.15.133.394-.1.535a3.876,3.876,0,0,1-.728.324,8.9,8.9,0,0,1-1.337.369c-.779.151-1.277.159-1.275.2" transform="translate(529.205 6109.299)" fill="#263238"/>
    <path id="Trazado_806709" data-name="Trazado 806709" d="M84.068,396.886a1.288,1.288,0,0,0,.137-.907,2.157,2.157,0,0,0-.371-.948,1.309,1.309,0,0,0-1.1-.647.519.519,0,0,0-.392.608,1.422,1.422,0,0,0,.23.58,4.006,4.006,0,0,0,.628.779,1.87,1.87,0,0,0,.755.516c.023-.032-.264-.23-.629-.636a4.585,4.585,0,0,1-.557-.774c-.183-.274-.315-.766.013-.831.326-.037.663.284.866.54a2.128,2.128,0,0,1,.382.842,4.713,4.713,0,0,1,.035.879" transform="translate(528.799 6109.13)" fill="#263238"/>
    <path id="Trazado_806710" data-name="Trazado 806710" d="M67.982,395.472c.006.045.58-.065,1.5.03a6.356,6.356,0,0,1,5.378,4.154c.323.865.363,1.449.408,1.443a1.165,1.165,0,0,0-.006-.409,5.324,5.324,0,0,0-.238-1.092,6.167,6.167,0,0,0-5.528-4.27,5.336,5.336,0,0,0-1.116.047,1.184,1.184,0,0,0-.4.1" transform="translate(522.907 6109.515)" fill="#263238"/>
    <path id="Trazado_806711" data-name="Trazado 806711" d="M69.414,389.419a70.9,70.9,0,0,0,.023,8.339,70.9,70.9,0,0,0-.023-8.339" transform="translate(523.449 6107.093)" fill="#263238"/>
    <path id="Trazado_806712" data-name="Trazado 806712" d="M74.959,398.085a11.488,11.488,0,0,0,2.966.248,11.49,11.49,0,0,0,2.963-.284c-.008-.071-1.332.031-2.965.038s-2.958-.073-2.965,0" transform="translate(525.771 6110.626)" fill="#263238"/>
    <path id="Trazado_806713" data-name="Trazado 806713" d="M72.143,398.109c-.049.051.113.279.252.581s.219.57.288.564.1-.322-.065-.669-.433-.526-.475-.477" transform="translate(524.611 6110.657)" fill="#263238"/>
    <path id="Trazado_806714" data-name="Trazado 806714" d="M71.06,396.8c-.048.048.086.258.3.467s.426.34.473.292-.086-.258-.3-.467-.425-.34-.473-.292" transform="translate(524.167 6110.121)" fill="#263238"/>
    <path id="Trazado_806715" data-name="Trazado 806715" d="M69.527,396.255c.016.069.285.062.584.162s.518.257.57.209-.121-.324-.494-.443-.681.01-.66.072" transform="translate(523.541 6109.85)" fill="#263238"/>
    <path id="Trazado_806716" data-name="Trazado 806716" d="M68.442,395.966c-.024.064.095.167.264.229s.326.062.35,0-.094-.166-.264-.228-.326-.062-.35,0" transform="translate(523.095 6109.761)" fill="#263238"/>
    <path id="Trazado_806717" data-name="Trazado 806717" d="M37.125,399.665,44,391.3,28.412,378.313,18.22,390.448l.914.866c4.1,3.822,21.134,19.145,24.735,20.67,4.019,1.7-6.744-12.318-6.744-12.318" transform="translate(502.479 6102.534)" fill="#727997"/>
    <g id="Grupo_1066925" data-name="Grupo 1066925" transform="translate(520.9 6488.417)" opacity="0.5">
      <g id="Grupo_1066924" data-name="Grupo 1066924">
        <g id="Grupo_1066923" data-name="Grupo 1066923" clip-path="url(#clip-path-5)">
          <path id="Trazado_806718" data-name="Trazado 806718" d="M23.915,392.83a7.033,7.033,0,0,0,.779-4.982,6.833,6.833,0,0,0-2.7-4.168l-3.632,4.354Z" transform="translate(-18.362 -383.68)" fill="#fff"/>
        </g>
      </g>
    </g>
    <g id="Grupo_1066928" data-name="Grupo 1066928" transform="translate(520.698 6492.654)" opacity="0.4">
      <g id="Grupo_1066927" data-name="Grupo 1066927">
        <g id="Grupo_1066926" data-name="Grupo 1066926" clip-path="url(#clip-path-6)">
          <path id="Trazado_806719" data-name="Trazado 806719" d="M42.192,403.308s3.528,5.206,2.31,5.488S25.5,394.243,18.22,387.011l.315-.327,20.606,17.483s2.112-1.577,3.051-.859" transform="translate(-18.219 -386.683)" fill="#fff"/>
        </g>
      </g>
    </g>
    <path id="Trazado_806720" data-name="Trazado 806720" d="M18.275,386.532a1.869,1.869,0,0,0,.244.252c.219.207.46.433.731.688q1.113,1.011,2.731,2.484c2.32,2.081,5.564,4.913,9.213,7.962s7.017,5.736,9.479,7.649l2.93,2.244.808.6a1.821,1.821,0,0,0,.292.195,1.972,1.972,0,0,0-.262-.234l-.779-.633-2.882-2.3c-2.432-1.946-5.777-4.653-9.428-7.7s-6.907-5.858-9.257-7.9L19.313,387.4l-.762-.653a1.919,1.919,0,0,0-.276-.216" transform="translate(502.502 6105.908)" fill="#263238"/>
    <path id="Trazado_806721" data-name="Trazado 806721" d="M32.906,399.636a8.361,8.361,0,0,1,1.656-.911,8.387,8.387,0,0,1,1.87-.279,3.278,3.278,0,0,0-3.526,1.19" transform="translate(508.506 6110.74)" fill="#263238"/>
    <path id="Trazado_806722" data-name="Trazado 806722" d="M31.025,395.059a2.144,2.144,0,0,0,.99-.188c.526-.169.935-.358.914-.423a2.131,2.131,0,0,0-.989.189c-.526.168-.937.357-.915.422" transform="translate(507.736 6109.149)" fill="#263238"/>
    <path id="Trazado_806723" data-name="Trazado 806723" d="M30.524,393.7c0,.068.385.109.855.092s.849-.086.846-.154-.385-.11-.855-.092-.849.086-.846.154" transform="translate(507.53 6108.787)" fill="#263238"/>
    <path id="Trazado_806724" data-name="Trazado 806724" d="M30.83,392.144c-.044.052.281.4.726.781s.842.646.886.594-.281-.4-.726-.781-.842-.646-.886-.594" transform="translate(507.654 6108.209)" fill="#263238"/>
    <path id="Trazado_806725" data-name="Trazado 806725" d="M31.25,391.246a2.987,2.987,0,0,0,1.728,1.677c.037-.062-.4-.375-.869-.834s-.8-.882-.859-.843" transform="translate(507.825 6107.842)" fill="#263238"/>
    <path id="Trazado_806726" data-name="Trazado 806726" d="M32.225,394.313a3.752,3.752,0,0,0,1.007.828,7.535,7.535,0,0,0,1.261.654,3.845,3.845,0,0,0,.821.258.707.707,0,0,0,.506-.1.513.513,0,0,0,.182-.528,2.392,2.392,0,0,0-2.718-1.357,2.344,2.344,0,0,0-.884.4c-.182.138-.261.238-.251.248a3.731,3.731,0,0,1,1.168-.474,2.361,2.361,0,0,1,1.319.158,2.016,2.016,0,0,1,1.126,1.076c.062.251-.157.386-.422.344a3.919,3.919,0,0,1-.763-.228,8.944,8.944,0,0,1-1.255-.592c-.688-.393-1.071-.711-1.1-.68" transform="translate(508.197 6108.976)" fill="#263238"/>
    <path id="Trazado_806727" data-name="Trazado 806727" d="M32.452,395.237c.006.023.367-.11.7-.6a2.15,2.15,0,0,0,.337-.959,1.31,1.31,0,0,0-.409-1.206.518.518,0,0,0-.694.206,1.418,1.418,0,0,0-.2.59,4.014,4.014,0,0,0-.032,1,1.9,1.9,0,0,0,.236.883c.038-.01-.049-.347-.062-.894a4.655,4.655,0,0,1,.082-.949c.039-.327.262-.786.552-.622a1.164,1.164,0,0,1,.3.976,2.133,2.133,0,0,1-.26.887,4.672,4.672,0,0,1-.546.688" transform="translate(508.189 6108.319)" fill="#263238"/>
    <path id="Trazado_806728" data-name="Trazado 806728" d="M21.021,383.7c-.025.038.481.33,1.117,1a6.362,6.362,0,0,1,1.368,6.658c-.319.866-.67,1.334-.632,1.358.013.008.111-.1.262-.313a5.326,5.326,0,0,0,.532-.983,6.171,6.171,0,0,0-1.406-6.842,5.46,5.46,0,0,0-.876-.693,1.183,1.183,0,0,0-.365-.185" transform="translate(503.629 6104.744)" fill="#263238"/>
    <path id="Trazado_806729" data-name="Trazado 806729" d="M27.578,380.055a35.386,35.386,0,0,0-2.8,3.088,35.684,35.684,0,0,0-2.618,3.248,35.514,35.514,0,0,0,2.806-3.088,35.784,35.784,0,0,0,2.616-3.248" transform="translate(504.095 6103.249)" fill="#263238"/>
    <path id="Trazado_806730" data-name="Trazado 806730" d="M24.589,390.25a11.5,11.5,0,0,0,2.086,2.123,11.48,11.48,0,0,0,2.432,1.718c.041-.059-1.03-.845-2.272-1.906s-2.193-1.985-2.246-1.935" transform="translate(505.093 6107.433)" fill="#263238"/>
    <path id="Trazado_806731" data-name="Trazado 806731" d="M22.527,388.44c-.069.007-.1.285-.188.605s-.206.574-.15.616.285-.179.386-.55.016-.681-.049-.671" transform="translate(504.103 6106.691)" fill="#263238"/>
    <path id="Trazado_806732" data-name="Trazado 806732" d="M22.481,386.744c-.068.006-.1.252-.078.55s.1.535.168.529.1-.253.078-.55-.1-.535-.168-.529" transform="translate(504.193 6105.995)" fill="#263238"/>
    <path id="Trazado_806733" data-name="Trazado 806733" d="M21.676,385.312c-.034.062.175.233.337.5s.224.532.295.53.12-.324-.085-.657-.523-.439-.547-.377" transform="translate(503.896 6105.4)" fill="#263238"/>
    <path id="Trazado_806734" data-name="Trazado 806734" d="M21.037,384.4c-.059.032-.037.188.051.346s.207.259.267.227.037-.188-.051-.346-.207-.259-.267-.227" transform="translate(503.622 6105.029)" fill="#263238"/>
    <path id="Trazado_806735" data-name="Trazado 806735" d="M78.849,233.138s-6.754,28.581-4.844,34.236S88.292,276.3,88.292,276.3l-.419,78.263-68.443,84.6L44.7,459.84s74.094-84.76,80.626-100.108-4.164-127.861-4.164-127.861Z" transform="translate(502.976 6042.419)" fill="#263238"/>
    <path id="Trazado_806736" data-name="Trazado 806736" d="M102.982,224.508l3.349,237.707-34.818.176-17.473-193.6c-3.694-3.525-8.889-9.565-8.174-23.029l.848-15.645Z" transform="translate(513.801 6039.396)" fill="#263238"/>
    <path id="Trazado_806737" data-name="Trazado 806737" d="M60.312,356.814a1.376,1.376,0,0,1,.2-.353l.66-.975c.64-.906,1.506-2.13,2.588-3.662,2.315-3.2,5.55-7.683,9.446-13.077l-.058.179c-.759-8.25-1.677-18.256-2.669-29.044-1.264-14.137-2.288-26.948-2.89-36.23-.307-4.641-.509-8.4-.621-11-.044-1.243-.078-2.238-.1-2.995a5.562,5.562,0,0,1,.014-1.047,5.621,5.621,0,0,1,.134,1.038c.061.755.14,1.746.24,2.985.207,2.674.5,6.4.853,10.978.735,9.268,1.841,22.067,3.1,36.2.948,10.826,1.915,20.815,2.54,29.107l.007.092-.065.087c-3.983,5.332-7.289,9.759-9.655,12.924l-2.721,3.564-.732.922c-.171.206-.264.307-.276.3" transform="translate(519.758 6053.397)" fill="#455a64"/>
    <path id="Trazado_806738" data-name="Trazado 806738" d="M73.191,259.737c-.031.2-4.182-.31-9.219-1.372s-9.043-2.261-8.993-2.453,4.121.683,9.144,1.735,9.1,1.886,9.068,2.09" transform="translate(517.569 6052.276)" fill="#455a64"/>
    <path id="Trazado_806739" data-name="Trazado 806739" d="M90.349,317.1c-.093.224-4-2.059-9.4-2.45-5.4-.465-9.617,1.175-9.673.938a7.958,7.958,0,0,1,2.714-1.064,21.388,21.388,0,0,1,13.85,1.1,7.91,7.91,0,0,1,2.512,1.477" transform="translate(524.258 6076.072)" fill="#455a64"/>
    <path id="Trazado_806740" data-name="Trazado 806740" d="M106.407,323.963c.162.123-9.632,13.269-21.873,29.358s-22.3,29.041-22.461,28.917,9.631-13.266,21.876-29.361,22.3-29.037,22.458-28.914" transform="translate(520.481 6080.223)" fill="#455a64"/>
    <path id="Trazado_806741" data-name="Trazado 806741" d="M95.265,237.566a5.837,5.837,0,0,1-1.961,2.585,9.7,9.7,0,0,1-14.191-1.5,5.823,5.823,0,0,1-1.377-2.938,30.477,30.477,0,0,0,1.78,2.611,9.673,9.673,0,0,0,13.462,1.42,30.411,30.411,0,0,0,2.286-2.182" transform="translate(526.907 6043.997)" fill="#455a64"/>
    <path id="Trazado_806742" data-name="Trazado 806742" d="M59.183,162.642a30.366,30.366,0,0,1-1.647-42.349" transform="translate(515.414 5996.615)" fill="#263238"/>
    <path id="Trazado_806743" data-name="Trazado 806743" d="M45.226,166.037s-7.566,8.545-9.133,41.229c0,0,21.544,4.088,21.938,2.911s-12.8-44.14-12.8-44.14" transform="translate(509.816 6015.394)" fill="#74c67b"/>
    <g id="Grupo_1066931" data-name="Grupo 1066931" transform="translate(545.909 6181.431)" opacity="0.3">
      <g id="Grupo_1066930" data-name="Grupo 1066930">
        <g id="Grupo_1066929" data-name="Grupo 1066929" clip-path="url(#clip-path-7)">
          <path id="Trazado_806744" data-name="Trazado 806744" d="M45.226,166.037s-7.566,8.545-9.133,41.229c0,0,21.544,4.088,21.938,2.911s-12.8-44.14-12.8-44.14" transform="translate(-36.093 -166.037)"/>
        </g>
      </g>
    </g>
    <path id="Trazado_806745" data-name="Trazado 806745" d="M46.745,265.9h66.136l-1.068-10.331s-7.557-39.305-7.5-39.823l1.192-2.5a24.933,24.933,0,0,0,.289-20.8l32.384-11.074-7.928-26.722C115.553,157.129,93.34,159.9,93.34,159.9l-3.308.278s-22.929,1.2-23.419,1.255c-9.591,1.159-20.751,1.9-24.832,12.161-2.181,5.488-.109,13.728,3.452,22.223l8.479,26.092C57.1,236.246,51.695,235.563,48.73,250c-.449,2.183-2.028,13.9-1.985,15.9" transform="translate(511.785 6010.718)" fill="#74c67b"/>
    <path id="Trazado_806747" data-name="Trazado 806747" d="M120.468,173.9a6.364,6.364,0,0,1-1.437.6c-.939.344-2.306.817-4,1.388-3.387,1.144-8.089,2.659-13.279,4.319s-9.833,3.31-13.128,4.672c-1.653.667-2.968,1.262-3.887,1.655a6.369,6.369,0,0,1-1.449.57,6.4,6.4,0,0,1,1.323-.827c.883-.473,2.171-1.143,3.807-1.875a124.992,124.992,0,0,1,13.108-4.894c5.2-1.662,9.92-3.1,13.348-4.114,1.714-.508,3.1-.906,4.071-1.165a6.384,6.384,0,0,1,1.523-.331" transform="translate(529.19 6018.618)" fill="#263238"/>
    <path id="Trazado_806748" data-name="Trazado 806748" d="M132.341,163.92c0,.2-19.554.367-43.669.367S45,164.123,45,163.92s19.548-.367,43.672-.367,43.669.164,43.669.367" transform="translate(513.473 6014.374)" fill="#fafafa"/>
    <path id="Trazado_806749" data-name="Trazado 806749" d="M136.639,173.129c0,.2-21.76.367-48.6.367s-48.6-.164-48.6-.367,21.756-.367,48.6-.367,48.6.164,48.6.367" transform="translate(511.191 6018.154)" fill="#fafafa"/>
    <path id="Trazado_806750" data-name="Trazado 806750" d="M45.636,183.608c0,.2-1.814.367-4.05.367s-4.05-.164-4.05-.367,1.813-.367,4.05-.367,4.05.164,4.05.367" transform="translate(510.409 6022.456)" fill="#fafafa"/>
    <path id="Trazado_806751" data-name="Trazado 806751" d="M106.845,183.926c0,.2-14.231.367-31.782.367s-31.784-.164-31.784-.367,14.228-.367,31.784-.367,31.782.164,31.782.367" transform="translate(512.766 6022.586)" fill="#fafafa"/>
    <path id="Trazado_806752" data-name="Trazado 806752" d="M103.956,194.723c0,.2-12.772.367-28.525.367s-28.526-.164-28.526-.367,12.769-.367,28.526-.367,28.525.164,28.525.367" transform="translate(514.255 6027.019)" fill="#fafafa"/>
    <path id="Trazado_806753" data-name="Trazado 806753" d="M102.109,204.725c0,.2-11.577.367-25.853.367s-25.857-.164-25.857-.367,11.575-.367,25.857-.367,25.853.164,25.853.367" transform="translate(515.688 6031.125)" fill="#fafafa"/>
    <path id="Trazado_806754" data-name="Trazado 806754" d="M104.762,212.823c0,.2-12.384.367-27.657.367s-27.659-.164-27.659-.367,12.38-.367,27.659-.367,27.657.164,27.657.367" transform="translate(515.298 6034.449)" fill="#fafafa"/>
    <path id="Trazado_806755" data-name="Trazado 806755" d="M109.518,223.143c0,.2-14.088.367-31.464.367s-31.467-.164-31.467-.367,14.085-.367,31.467-.367,31.464.164,31.464.367" transform="translate(514.124 6038.685)" fill="#fafafa"/>
    <path id="Trazado_806756" data-name="Trazado 806756" d="M53.1,211.405a5.4,5.4,0,0,1-.585-1.3q-.58-1.508-1.389-3.608c-1.164-3.051-2.8-7.256-4.507-11.946s-3.117-8.988-4.006-12.139c-.443-1.576-.774-2.858-.963-3.755a5.3,5.3,0,0,1-.231-1.408,51.79,51.79,0,0,1,1.691,5.011c1.013,3.1,2.49,7.359,4.2,12.04s3.264,8.917,4.3,12.019c.523,1.549.921,2.813,1.172,3.693a5.382,5.382,0,0,1,.315,1.392" transform="translate(511.998 6019.997)" fill="#263238"/>
    <path id="Trazado_807459" data-name="Trazado 807459" d="M6.4-13.508H9.648V-4.24a4.431,4.431,0,0,1-.6,2.3A4.085,4.085,0,0,1,7.38-.371,5.1,5.1,0,0,1,4.991.186,4.92,4.92,0,0,1,1.559-.928,4.046,4.046,0,0,1,.334-4.082H3.6a2.23,2.23,0,0,0,.32,1.345,1.267,1.267,0,0,0,1.072.417,1.212,1.212,0,0,0,1.044-.506A2.376,2.376,0,0,0,6.4-4.24ZM17.534-1.085A3.223,3.223,0,0,1,14.853.186a3.161,3.161,0,0,1-2.5-.96,4.038,4.038,0,0,1-.849-2.76v-6.5H14.63v6.522a1.124,1.124,0,0,0,1.252,1.29A1.634,1.634,0,0,0,17.414-3v-7.042h3.145V0H17.627ZM27.526-2.82a.722.722,0,0,0-.417-.64,6.35,6.35,0,0,0-1.586-.5,7.234,7.234,0,0,1-1.93-.682,3.232,3.232,0,0,1-1.16-1.025,2.448,2.448,0,0,1-.4-1.382,2.774,2.774,0,0,1,1.141-2.278,4.7,4.7,0,0,1,2.987-.9,5.208,5.208,0,0,1,3.191.9A2.814,2.814,0,0,1,30.56-6.958H27.424q0-1.206-1.271-1.206a1.26,1.26,0,0,0-.826.274.847.847,0,0,0-.334.682.778.778,0,0,0,.408.677,3.857,3.857,0,0,0,1.3.427,11.264,11.264,0,0,1,1.573.4,2.857,2.857,0,0,1,2.264,2.792,2.629,2.629,0,0,1-1.22,2.236,5.35,5.35,0,0,1-3.159.863,5.46,5.46,0,0,1-2.3-.464A3.847,3.847,0,0,1,22.284-1.54a2.857,2.857,0,0,1-.566-1.679h2.922A1.208,1.208,0,0,0,25.1-2.2a1.908,1.908,0,0,0,1.141.32,1.5,1.5,0,0,0,.96-.26A.831.831,0,0,0,27.526-2.82Zm8.118-9.713v2.5h1.651v2.171H35.644v4.592a1.173,1.173,0,0,0,.2.789,1.1,1.1,0,0,0,.807.223,4.586,4.586,0,0,0,.779-.056V-.083a5.77,5.77,0,0,1-1.763.269,3.275,3.275,0,0,1-2.384-.761,3.118,3.118,0,0,1-.77-2.31V-7.867h-1.28v-2.171h1.28v-2.5ZM41.822,0H38.687V-10.038h3.136ZM38.5-12.626a1.4,1.4,0,0,1,.482-1.095,1.82,1.82,0,0,1,1.252-.427,1.82,1.82,0,0,1,1.252.427,1.4,1.4,0,0,1,.482,1.095,1.4,1.4,0,0,1-.482,1.095,1.82,1.82,0,0,1-1.252.427,1.82,1.82,0,0,1-1.252-.427A1.4,1.4,0,0,1,38.5-12.626ZM44.476,0V-7.867H43.019v-2.171h1.457v-.334a3.833,3.833,0,0,1,1.317-3.071,5.264,5.264,0,0,1,3.423-1,12.148,12.148,0,0,1,3.266.538l-.427,2.468-.52-.139a8.267,8.267,0,0,0-2.134-.269q-1.791,0-1.791,1.633v.176h1.967v2.171H47.611V0ZM53.92,0H50.775V-10.038H53.92Zm6.151-2.227a1.391,1.391,0,0,0,1.021-.357,1.31,1.31,0,0,0,.353-1h2.932A3.47,3.47,0,0,1,63.193-.872,4.4,4.4,0,0,1,60.145.186a4.455,4.455,0,0,1-3.451-1.373,5.41,5.41,0,0,1-1.262-3.8v-.13a6.114,6.114,0,0,1,.561-2.686A4.087,4.087,0,0,1,57.612-9.6a4.827,4.827,0,0,1,2.5-.626,4.344,4.344,0,0,1,3.108,1.085A3.85,3.85,0,0,1,64.375-6.2H61.444a1.716,1.716,0,0,0-.38-1.2,1.313,1.313,0,0,0-1.021-.417q-1.215,0-1.419,1.549a10.933,10.933,0,0,0-.065,1.354,4.294,4.294,0,0,0,.362,2.1A1.253,1.253,0,0,0,60.071-2.227ZM71.352,0a3.53,3.53,0,0,1-.3-.9A2.907,2.907,0,0,1,68.643.186a3.562,3.562,0,0,1-2.412-.858,2.732,2.732,0,0,1-.993-2.157A2.807,2.807,0,0,1,66.444-5.3a6.144,6.144,0,0,1,3.507-.835h.965v-.531q0-1.389-1.2-1.389a.978.978,0,0,0-1.113,1.1H65.479a2.8,2.8,0,0,1,1.239-2.363,5.2,5.2,0,0,1,3.159-.908,4.563,4.563,0,0,1,3.034.937,3.258,3.258,0,0,1,1.141,2.57v4.444a4.551,4.551,0,0,0,.427,2.115V0ZM69.395-2.041a1.744,1.744,0,0,0,.969-.25,1.57,1.57,0,0,0,.552-.566v-1.6h-.909q-1.633,0-1.633,1.466a.9.9,0,0,0,.288.691A1.041,1.041,0,0,0,69.395-2.041Zm10.632-.186a1.391,1.391,0,0,0,1.021-.357,1.31,1.31,0,0,0,.353-1h2.932A3.47,3.47,0,0,1,83.148-.872,4.4,4.4,0,0,1,80.1.186a4.455,4.455,0,0,1-3.451-1.373,5.41,5.41,0,0,1-1.262-3.8v-.13a6.114,6.114,0,0,1,.561-2.686A4.087,4.087,0,0,1,77.568-9.6a4.827,4.827,0,0,1,2.5-.626,4.344,4.344,0,0,1,3.108,1.085A3.85,3.85,0,0,1,84.331-6.2H81.4a1.716,1.716,0,0,0-.38-1.2A1.313,1.313,0,0,0,80-7.812q-1.215,0-1.419,1.549a10.932,10.932,0,0,0-.065,1.354,4.294,4.294,0,0,0,.362,2.1A1.253,1.253,0,0,0,80.026-2.227ZM88.951,0H85.815V-10.038h3.136ZM85.63-12.626a1.4,1.4,0,0,1,.482-1.095,1.82,1.82,0,0,1,1.252-.427,1.82,1.82,0,0,1,1.252.427,1.4,1.4,0,0,1,.482,1.095,1.4,1.4,0,0,1-.482,1.095,1.82,1.82,0,0,1-1.252.427,1.82,1.82,0,0,1-1.252-.427A1.4,1.4,0,0,1,85.63-12.626Zm4.852,7.515a5.925,5.925,0,0,1,.584-2.677,4.18,4.18,0,0,1,1.679-1.8,5.057,5.057,0,0,1,2.57-.631,4.616,4.616,0,0,1,3.553,1.4,5.358,5.358,0,0,1,1.3,3.8v.111a5.2,5.2,0,0,1-1.3,3.725A4.628,4.628,0,0,1,95.334.186,4.681,4.681,0,0,1,91.892-1.1a5.026,5.026,0,0,1-1.4-3.484Zm3.126.195a3.735,3.735,0,0,0,.436,2.041,1.453,1.453,0,0,0,1.29.649q1.67,0,1.707-2.57v-.315q0-2.7-1.726-2.7-1.568,0-1.7,2.329Zm2.134-9.333h3.3l-2.579,2.913-2.551,0Zm8.674,4.212.1,1.178a3.4,3.4,0,0,1,2.867-1.364,2.864,2.864,0,0,1,2.343.937,4.461,4.461,0,0,1,.8,2.82V0h-3.136V-6.336a1.694,1.694,0,0,0-.306-1.118,1.416,1.416,0,0,0-1.113-.357,1.491,1.491,0,0,0-1.364.724V0h-3.126V-10.038Z" transform="translate(765 6086)" fill="#12263f"/>
    <path id="Trazado_807460" data-name="Trazado 807460" d="M12.459-6.476a7.966,7.966,0,0,1-.733,3.5A5.417,5.417,0,0,1,9.644-.635,5.8,5.8,0,0,1,6.568.186,5.881,5.881,0,0,1,3.507-.608,5.408,5.408,0,0,1,1.424-2.876,7.736,7.736,0,0,1,.64-6.262v-.761a8,8,0,0,1,.728-3.5,5.4,5.4,0,0,1,2.087-2.343,5.84,5.84,0,0,1,3.094-.826,5.783,5.783,0,0,1,3.062.816A5.5,5.5,0,0,1,11.7-10.553,7.771,7.771,0,0,1,12.459-7.1ZM9.147-7.042A5.68,5.68,0,0,0,8.475-10.1,2.157,2.157,0,0,0,6.55-11.142q-2.449,0-2.588,3.674l-.009.993a5.842,5.842,0,0,0,.659,3.052A2.154,2.154,0,0,0,6.568-2.356,2.128,2.128,0,0,0,8.47-3.4,5.683,5.683,0,0,0,9.147-6.42ZM23.314-4.936a6.118,6.118,0,0,1-1.021,3.794A3.418,3.418,0,0,1,19.417.186,2.966,2.966,0,0,1,16.95-1.03L16.82,0h-2.8V-14.25h3.126v5.019a2.862,2.862,0,0,1,2.254-.993,3.419,3.419,0,0,1,2.895,1.345,6.15,6.15,0,0,1,1.021,3.785Zm-3.136-.2A4.081,4.081,0,0,0,19.793-7.2a1.3,1.3,0,0,0-1.183-.616,1.5,1.5,0,0,0-1.466.806v3.983a1.505,1.505,0,0,0,1.484.8A1.328,1.328,0,0,0,20.03-3.3,7.715,7.715,0,0,0,20.178-5.135Zm7.876-4.9V.343a3.644,3.644,0,0,1-1.021,2.746,3.92,3.92,0,0,1-2.82.965A6.658,6.658,0,0,1,22.739,3.9V1.531a5.982,5.982,0,0,0,.881.083,1.144,1.144,0,0,0,1.3-1.29V-10.038Zm-3.368-2.588a1.4,1.4,0,0,1,.482-1.095,1.82,1.82,0,0,1,1.252-.427,1.82,1.82,0,0,1,1.252.427,1.4,1.4,0,0,1,.482,1.095,1.4,1.4,0,0,1-.482,1.095,1.82,1.82,0,0,1-1.252.427,1.82,1.82,0,0,1-1.252-.427A1.4,1.4,0,0,1,24.687-12.626ZM34.679.186A5.16,5.16,0,0,1,30.94-1.192a4.757,4.757,0,0,1-1.429-3.586v-.26a6.165,6.165,0,0,1,.571-2.718,4.175,4.175,0,0,1,1.665-1.823,5.027,5.027,0,0,1,2.6-.645,4.345,4.345,0,0,1,3.34,1.313,5.159,5.159,0,0,1,1.225,3.66v1.215H32.693a2.253,2.253,0,0,0,.733,1.327,2.181,2.181,0,0,0,1.466.482,2.81,2.81,0,0,0,2.319-1.039L38.64-1.577A3.994,3.994,0,0,1,36.984-.292,5.6,5.6,0,0,1,34.679.186Zm-.353-8q-1.373,0-1.633,1.818h3.154v-.241a1.549,1.549,0,0,0-.38-1.164A1.514,1.514,0,0,0,34.326-7.812Zm9.481-4.722v2.5h1.651v2.171H43.808v4.592a1.173,1.173,0,0,0,.2.789,1.1,1.1,0,0,0,.807.223,4.586,4.586,0,0,0,.779-.056V-.083a5.77,5.77,0,0,1-1.763.269,3.275,3.275,0,0,1-2.384-.761,3.118,3.118,0,0,1-.77-2.31V-7.867H39.4v-2.171h1.28v-2.5ZM49.986,0H46.851V-10.038h3.136ZM46.665-12.626a1.4,1.4,0,0,1,.482-1.095,1.82,1.82,0,0,1,1.252-.427,1.82,1.82,0,0,1,1.252.427,1.4,1.4,0,0,1,.482,1.095,1.4,1.4,0,0,1-.482,1.095A1.82,1.82,0,0,1,48.4-11.1a1.82,1.82,0,0,1-1.252-.427A1.4,1.4,0,0,1,46.665-12.626Zm9.25,8.906L57.5-10.038h3.293L57.52,0H54.328L51.053-10.038h3.3Zm5.279-1.392a5.925,5.925,0,0,1,.584-2.677,4.18,4.18,0,0,1,1.679-1.8,5.057,5.057,0,0,1,2.57-.631,4.616,4.616,0,0,1,3.553,1.4,5.358,5.358,0,0,1,1.3,3.8v.111a5.2,5.2,0,0,1-1.3,3.725A4.628,4.628,0,0,1,66.045.186,4.681,4.681,0,0,1,62.6-1.1a5.026,5.026,0,0,1-1.4-3.484Zm3.126.195a3.735,3.735,0,0,0,.436,2.041,1.453,1.453,0,0,0,1.29.649q1.67,0,1.707-2.57v-.315q0-2.7-1.726-2.7-1.568,0-1.7,2.329Zm13.192,2.1a.722.722,0,0,0-.417-.64,6.35,6.35,0,0,0-1.586-.5,7.234,7.234,0,0,1-1.93-.682,3.232,3.232,0,0,1-1.16-1.025,2.448,2.448,0,0,1-.4-1.382,2.774,2.774,0,0,1,1.141-2.278,4.7,4.7,0,0,1,2.987-.9,5.208,5.208,0,0,1,3.191.9,2.814,2.814,0,0,1,1.206,2.366H77.41q0-1.206-1.271-1.206a1.26,1.26,0,0,0-.826.274.847.847,0,0,0-.334.682.778.778,0,0,0,.408.677,3.857,3.857,0,0,0,1.3.427,11.264,11.264,0,0,1,1.573.4,2.857,2.857,0,0,1,2.264,2.792,2.629,2.629,0,0,1-1.22,2.236,5.35,5.35,0,0,1-3.159.863,5.46,5.46,0,0,1-2.3-.464A3.847,3.847,0,0,1,72.271-1.54,2.857,2.857,0,0,1,71.7-3.219h2.922A1.208,1.208,0,0,0,75.091-2.2a1.908,1.908,0,0,0,1.141.32,1.5,1.5,0,0,0,.96-.26A.831.831,0,0,0,77.512-2.82Z" transform="translate(765 6180)" fill="#12263f"/>
    <path id="Trazado_807461" data-name="Trazado 807461" d="M4.277-4.583V0H1.021V-13.508h5.39a6.278,6.278,0,0,1,2.741.571A4.3,4.3,0,0,1,11-11.314a4.434,4.434,0,0,1,.654,2.389,3.909,3.909,0,0,1-1.415,3.159A5.87,5.87,0,0,1,6.355-4.583Zm0-2.514H6.411A2.012,2.012,0,0,0,7.853-7.57a1.758,1.758,0,0,0,.5-1.336,2.173,2.173,0,0,0-.51-1.512,1.807,1.807,0,0,0-1.392-.575H4.277ZM16.542,0H13.406V-14.25h3.136Zm7.58,0a3.53,3.53,0,0,1-.3-.9A2.907,2.907,0,0,1,21.412.186,3.562,3.562,0,0,1,19-.673a2.731,2.731,0,0,1-.993-2.157A2.807,2.807,0,0,1,19.213-5.3a6.144,6.144,0,0,1,3.507-.835h.965v-.531q0-1.389-1.2-1.389a.978.978,0,0,0-1.113,1.1H18.249a2.8,2.8,0,0,1,1.239-2.363,5.2,5.2,0,0,1,3.159-.908,4.563,4.563,0,0,1,3.034.937,3.258,3.258,0,0,1,1.141,2.57v4.444a4.551,4.551,0,0,0,.427,2.115V0ZM22.164-2.041a1.744,1.744,0,0,0,.969-.25,1.57,1.57,0,0,0,.552-.566v-1.6h-.909q-1.633,0-1.633,1.466a.9.9,0,0,0,.288.691A1.041,1.041,0,0,0,22.164-2.041Zm9.259-8,.1,1.178a3.4,3.4,0,0,1,2.867-1.364,2.864,2.864,0,0,1,2.343.937,4.461,4.461,0,0,1,.8,2.82V0H34.4V-6.336a1.694,1.694,0,0,0-.306-1.118,1.416,1.416,0,0,0-1.113-.357,1.491,1.491,0,0,0-1.364.724V0H28.491V-10.038ZM43.6-5.093a6.132,6.132,0,0,1,1.03-3.757,3.39,3.39,0,0,1,2.876-1.373,2.883,2.883,0,0,1,2.264,1.058V-14.25h3.136V0H50.1L49.94-1.076A2.96,2.96,0,0,1,47.491.186a3.383,3.383,0,0,1-2.839-1.373A6.326,6.326,0,0,1,43.6-5.093ZM46.73-4.9q0,2.672,1.559,2.672A1.539,1.539,0,0,0,49.773-3.1V-6.921a1.5,1.5,0,0,0-1.466-.891q-1.447,0-1.568,2.338ZM59.542.186A5.16,5.16,0,0,1,55.8-1.192a4.757,4.757,0,0,1-1.429-3.586v-.26a6.165,6.165,0,0,1,.571-2.718A4.175,4.175,0,0,1,56.61-9.579a5.027,5.027,0,0,1,2.6-.645,4.345,4.345,0,0,1,3.34,1.313,5.159,5.159,0,0,1,1.225,3.66v1.215H57.557a2.253,2.253,0,0,0,.733,1.327,2.181,2.181,0,0,0,1.466.482,2.81,2.81,0,0,0,2.319-1.039L63.5-1.577A3.994,3.994,0,0,1,61.847-.292,5.6,5.6,0,0,1,59.542.186Zm-.353-8q-1.373,0-1.633,1.818h3.154v-.241a1.549,1.549,0,0,0-.38-1.164A1.514,1.514,0,0,0,59.189-7.812ZM75.416,0a3.53,3.53,0,0,1-.3-.9A2.907,2.907,0,0,1,72.707.186a3.562,3.562,0,0,1-2.412-.858A2.732,2.732,0,0,1,69.3-2.83,2.807,2.807,0,0,1,70.508-5.3a6.144,6.144,0,0,1,3.507-.835h.965v-.531q0-1.389-1.2-1.389a.978.978,0,0,0-1.113,1.1H69.543a2.8,2.8,0,0,1,1.239-2.363,5.2,5.2,0,0,1,3.159-.908,4.563,4.563,0,0,1,3.034.937,3.258,3.258,0,0,1,1.141,2.57v4.444a4.551,4.551,0,0,0,.427,2.115V0ZM73.458-2.041a1.744,1.744,0,0,0,.969-.25,1.57,1.57,0,0,0,.552-.566v-1.6H74.07q-1.633,0-1.633,1.466a.9.9,0,0,0,.288.691A1.041,1.041,0,0,0,73.458-2.041ZM84.09-2.227a1.391,1.391,0,0,0,1.021-.357,1.31,1.31,0,0,0,.353-1h2.932A3.47,3.47,0,0,1,87.212-.872,4.4,4.4,0,0,1,84.164.186a4.455,4.455,0,0,1-3.451-1.373,5.41,5.41,0,0,1-1.262-3.8v-.13a6.114,6.114,0,0,1,.561-2.686A4.087,4.087,0,0,1,81.631-9.6a4.827,4.827,0,0,1,2.5-.626,4.344,4.344,0,0,1,3.108,1.085A3.85,3.85,0,0,1,88.395-6.2H85.463a1.716,1.716,0,0,0-.38-1.2,1.313,1.313,0,0,0-1.021-.417q-1.215,0-1.419,1.549a10.932,10.932,0,0,0-.065,1.354,4.294,4.294,0,0,0,.362,2.1A1.253,1.253,0,0,0,84.09-2.227Zm9.871,0a1.391,1.391,0,0,0,1.021-.357,1.31,1.31,0,0,0,.353-1h2.932A3.47,3.47,0,0,1,97.083-.872,4.4,4.4,0,0,1,94.035.186a4.455,4.455,0,0,1-3.451-1.373,5.41,5.41,0,0,1-1.262-3.8v-.13a6.114,6.114,0,0,1,.561-2.686A4.087,4.087,0,0,1,91.5-9.6a4.827,4.827,0,0,1,2.5-.626,4.344,4.344,0,0,1,3.108,1.085A3.85,3.85,0,0,1,98.266-6.2H95.334a1.716,1.716,0,0,0-.38-1.2,1.313,1.313,0,0,0-1.021-.417q-1.215,0-1.419,1.549a10.932,10.932,0,0,0-.065,1.354,4.294,4.294,0,0,0,.362,2.1A1.253,1.253,0,0,0,93.961-2.227ZM102.886,0H99.75V-10.038h3.136ZM99.564-12.626a1.4,1.4,0,0,1,.482-1.095,1.82,1.82,0,0,1,1.252-.427,1.82,1.82,0,0,1,1.252.427,1.4,1.4,0,0,1,.482,1.095,1.4,1.4,0,0,1-.482,1.095,1.82,1.82,0,0,1-1.252.427,1.82,1.82,0,0,1-1.252-.427A1.4,1.4,0,0,1,99.564-12.626Zm4.852,7.515A5.925,5.925,0,0,1,105-7.788a4.18,4.18,0,0,1,1.679-1.8,5.057,5.057,0,0,1,2.57-.631,4.616,4.616,0,0,1,3.553,1.4,5.358,5.358,0,0,1,1.3,3.8v.111a5.2,5.2,0,0,1-1.3,3.725,4.628,4.628,0,0,1-3.53,1.378A4.681,4.681,0,0,1,105.827-1.1a5.026,5.026,0,0,1-1.4-3.484Zm3.126.195a3.735,3.735,0,0,0,.436,2.041,1.453,1.453,0,0,0,1.29.649q1.67,0,1.707-2.57v-.315q0-2.7-1.726-2.7-1.568,0-1.7,2.329Zm2.134-9.333h3.3L110.4-11.337l-2.551,0Zm8.674,4.212.1,1.178a3.4,3.4,0,0,1,2.867-1.364,2.864,2.864,0,0,1,2.343.937,4.461,4.461,0,0,1,.8,2.82V0h-3.136V-6.336a1.694,1.694,0,0,0-.306-1.118,1.416,1.416,0,0,0-1.113-.357,1.491,1.491,0,0,0-1.364.724V0h-3.126V-10.038Z" transform="translate(765 6268)" fill="#12263f"/>
    <path id="Trazado_807462" data-name="Trazado 807462" d="M4.49,0H1.243V-13.508H4.49ZM9.481-10.038l.1,1.178a3.4,3.4,0,0,1,2.867-1.364,2.864,2.864,0,0,1,2.343.937,4.461,4.461,0,0,1,.8,2.82V0H12.459V-6.336a1.694,1.694,0,0,0-.306-1.118,1.416,1.416,0,0,0-1.113-.357,1.491,1.491,0,0,0-1.364.724V0H6.55V-10.038Zm7.45,4.945a6.132,6.132,0,0,1,1.03-3.757,3.39,3.39,0,0,1,2.876-1.373A2.883,2.883,0,0,1,23.1-9.166V-14.25h3.136V0H23.425l-.158-1.076A2.96,2.96,0,0,1,20.818.186a3.383,3.383,0,0,1-2.839-1.373A6.326,6.326,0,0,1,16.931-5.093Zm3.126.195q0,2.672,1.559,2.672A1.539,1.539,0,0,0,23.1-3.1V-6.921a1.5,1.5,0,0,0-1.466-.891q-1.447,0-1.568,2.338ZM31.311,0H28.175V-10.038h3.136ZM27.99-12.626a1.4,1.4,0,0,1,.482-1.095,1.82,1.82,0,0,1,1.252-.427,1.82,1.82,0,0,1,1.252.427,1.4,1.4,0,0,1,.482,1.095,1.4,1.4,0,0,1-.482,1.095,1.82,1.82,0,0,1-1.252.427,1.82,1.82,0,0,1-1.252-.427A1.4,1.4,0,0,1,27.99-12.626Zm9.491,10.4A1.391,1.391,0,0,0,38.5-2.584a1.31,1.31,0,0,0,.353-1h2.932A3.47,3.47,0,0,1,40.6-.872,4.4,4.4,0,0,1,37.555.186,4.455,4.455,0,0,1,34.1-1.187a5.41,5.41,0,0,1-1.262-3.8v-.13A6.114,6.114,0,0,1,33.4-7.807,4.087,4.087,0,0,1,35.022-9.6a4.827,4.827,0,0,1,2.5-.626,4.344,4.344,0,0,1,3.108,1.085A3.85,3.85,0,0,1,41.785-6.2H38.854a1.716,1.716,0,0,0-.38-1.2,1.313,1.313,0,0,0-1.021-.417q-1.215,0-1.419,1.549a10.933,10.933,0,0,0-.065,1.354,4.294,4.294,0,0,0,.362,2.1A1.253,1.253,0,0,0,37.48-2.227ZM48.762,0a3.53,3.53,0,0,1-.3-.9A2.907,2.907,0,0,1,46.053.186a3.562,3.562,0,0,1-2.412-.858,2.731,2.731,0,0,1-.993-2.157A2.807,2.807,0,0,1,43.854-5.3a6.144,6.144,0,0,1,3.507-.835h.965v-.531q0-1.389-1.2-1.389a.978.978,0,0,0-1.113,1.1H42.889a2.8,2.8,0,0,1,1.239-2.363,5.2,5.2,0,0,1,3.159-.908,4.563,4.563,0,0,1,3.034.937,3.258,3.258,0,0,1,1.141,2.57v4.444a4.551,4.551,0,0,0,.427,2.115V0ZM46.8-2.041a1.744,1.744,0,0,0,.969-.25,1.57,1.57,0,0,0,.552-.566v-1.6h-.909q-1.633,0-1.633,1.466a.9.9,0,0,0,.288.691A1.041,1.041,0,0,0,46.8-2.041ZM52.8-5.093a6.132,6.132,0,0,1,1.03-3.757A3.39,3.39,0,0,1,56.7-10.224a2.883,2.883,0,0,1,2.264,1.058V-14.25H62.1V0H59.292l-.158-1.076A2.96,2.96,0,0,1,56.685.186a3.383,3.383,0,0,1-2.839-1.373A6.326,6.326,0,0,1,52.8-5.093Zm3.126.195q0,2.672,1.559,2.672A1.539,1.539,0,0,0,58.967-3.1V-6.921A1.5,1.5,0,0,0,57.5-7.812q-1.447,0-1.568,2.338Zm7.561-.213a5.925,5.925,0,0,1,.584-2.677,4.18,4.18,0,0,1,1.679-1.8,5.057,5.057,0,0,1,2.57-.631,4.616,4.616,0,0,1,3.553,1.4,5.358,5.358,0,0,1,1.3,3.8v.111a5.2,5.2,0,0,1-1.3,3.725A4.628,4.628,0,0,1,68.337.186,4.681,4.681,0,0,1,64.9-1.1a5.026,5.026,0,0,1-1.4-3.484Zm3.126.195a3.735,3.735,0,0,0,.436,2.041,1.453,1.453,0,0,0,1.29.649q1.67,0,1.707-2.57v-.315q0-2.7-1.726-2.7-1.568,0-1.7,2.329ZM80.62-7.208l-1.03-.074a1.85,1.85,0,0,0-1.893.928V0H74.571V-10.038H77.5l.1,1.29a2.421,2.421,0,0,1,2.2-1.475,3.049,3.049,0,0,1,.872.111ZM86.428.186a5.16,5.16,0,0,1-3.739-1.378A4.757,4.757,0,0,1,81.26-4.778v-.26a6.165,6.165,0,0,1,.571-2.718A4.175,4.175,0,0,1,83.5-9.579a5.027,5.027,0,0,1,2.6-.645,4.345,4.345,0,0,1,3.34,1.313,5.159,5.159,0,0,1,1.225,3.66v1.215H84.442a2.253,2.253,0,0,0,.733,1.327,2.181,2.181,0,0,0,1.466.482A2.81,2.81,0,0,0,88.96-3.266l1.429,1.688A3.994,3.994,0,0,1,88.733-.292,5.6,5.6,0,0,1,86.428.186Zm-.353-8q-1.373,0-1.633,1.818H87.6v-.241a1.549,1.549,0,0,0-.38-1.164A1.514,1.514,0,0,0,86.075-7.812Zm11.1,4.991a.722.722,0,0,0-.417-.64,6.35,6.35,0,0,0-1.586-.5,7.234,7.234,0,0,1-1.93-.682,3.232,3.232,0,0,1-1.16-1.025,2.448,2.448,0,0,1-.4-1.382A2.774,2.774,0,0,1,92.82-9.328a4.7,4.7,0,0,1,2.987-.9,5.208,5.208,0,0,1,3.191.9A2.814,2.814,0,0,1,100.2-6.958H97.069q0-1.206-1.271-1.206a1.26,1.26,0,0,0-.826.274.847.847,0,0,0-.334.682.778.778,0,0,0,.408.677,3.857,3.857,0,0,0,1.3.427,11.264,11.264,0,0,1,1.573.4,2.857,2.857,0,0,1,2.264,2.792,2.629,2.629,0,0,1-1.22,2.236,5.35,5.35,0,0,1-3.159.863,5.46,5.46,0,0,1-2.3-.464A3.847,3.847,0,0,1,91.929-1.54a2.857,2.857,0,0,1-.566-1.679h2.922A1.208,1.208,0,0,0,94.75-2.2a1.908,1.908,0,0,0,1.141.32,1.5,1.5,0,0,0,.96-.26A.831.831,0,0,0,97.171-2.82Z" transform="translate(765 6355)" fill="#12263f"/>
    <path id="Trazado_807463" data-name="Trazado 807463" d="M0,0H610V567.537H0Z" transform="translate(495 5947.234)" fill="none"/>
    <path id="Trazado_807464" data-name="Trazado 807464" d="M0,0H610V567.537H0Z" transform="translate(495 5947.234)" fill="none"/>
  </g>
</svg>
