<svg xmlns="http://www.w3.org/2000/svg" width="77.388" height="78.746" viewBox="0 0 77.388 78.746">
  <g id="Grupo_1067136" data-name="Grupo 1067136" transform="translate(-0.971 -0.257) rotate(3)">
    <g id="Grupo_1067133" data-name="Grupo 1067133" transform="translate(4.903)">
      <g id="Grupo_1067132" data-name="Grupo 1067132">
        <path id="Trazado_807256" data-name="Trazado 807256" d="M41.685,75c37.86-15.5,36.779-59.134,36.779-59.134C66.565,3.966,41.685,0,41.685,0S16.806,3.966,4.907,15.865C4.907,15.865,3.825,59.495,41.685,75Z" transform="translate(-4.903 0)" fill="#1969d5"/>
        <path id="Trazado_807257" data-name="Trazado 807257" d="M41.685,75.039C3.825,59.534,4.907,15.9,4.907,15.9,16.547,4.264,40.612.215,41.65.046,40.843.2,25.97,3.166,15.489,11.218a12.23,12.23,0,0,0-4.716,10.731C11.83,34.477,16.968,63.1,41.685,75.039Z" transform="translate(-4.903 -0.039)" fill="#124fa2"/>
        <path id="Trazado_807258" data-name="Trazado 807258" d="M89.381,113.8c-11.707-5.7-20.047-15.35-24.813-28.73a70.257,70.257,0,0,1-3.783-18.063c8.329-6.387,22.184-10.028,28.589-11.22,6.407,1.2,20.294,4.864,28.6,11.223a70.265,70.265,0,0,1-3.783,18.06C109.427,98.45,101.088,108.1,89.381,113.8Z" transform="translate(-52.599 -47.615)" fill="#f5f0f0"/>
        <path id="Trazado_807259" data-name="Trazado 807259" d="M89.382,113.8C77.675,108.1,69.336,98.45,64.569,85.07a70.237,70.237,0,0,1-3.783-18.063c8.33-6.386,22.184-10.028,28.589-11.22a75.193,75.193,0,0,0-14.1,4.649,16.064,16.064,0,0,0-9.148,17.954c.446,2.12,1.01,4.37,1.724,6.679C71.987,98.45,79.223,108.1,89.382,113.8Z" transform="translate(-52.6 -47.615)" fill="#e8ded8"/>
      </g>
    </g>
    <g id="Grupo_1067134" data-name="Grupo 1067134" transform="translate(27.433 20.769)">
      <path id="Trazado_807260" data-name="Trazado 807260" d="M185.179,150.08q-2.234-.1-4.467-.156a1.691,1.691,0,0,1-1.646-1.646q-.061-2.234-.156-4.467a1.679,1.679,0,0,0-1.341-1.578,23.583,23.583,0,0,0-9.217,0,1.679,1.679,0,0,0-1.341,1.578q-.1,2.234-.156,4.467a1.691,1.691,0,0,1-1.646,1.646q-2.234.061-4.467.156a1.679,1.679,0,0,0-1.578,1.341,23.583,23.583,0,0,0,0,9.217,1.679,1.679,0,0,0,1.578,1.341q2.234.1,4.467.156a1.691,1.691,0,0,1,1.646,1.646q.061,2.234.156,4.467a1.679,1.679,0,0,0,1.341,1.578,23.583,23.583,0,0,0,9.217,0,1.679,1.679,0,0,0,1.341-1.578q.1-2.234.156-4.467a1.691,1.691,0,0,1,1.646-1.646q2.234-.061,4.467-.156a1.679,1.679,0,0,0,1.578-1.341,23.583,23.583,0,0,0,0-9.217A1.679,1.679,0,0,0,185.179,150.08Z" transform="translate(-158.708 -141.778)" fill="#1969d5"/>
    </g>
  </g>
</svg>
