<svg xmlns="http://www.w3.org/2000/svg" width="102.544" height="94.78" viewBox="0 0 102.544 94.78">
  <g id="libro-abierto" transform="translate(-7.416 16.462) rotate(-22)">
    <path id="Trazado_807261" data-name="Trazado 807261" d="M84.469,124.949v54.773H59.3a14.6,14.6,0,0,0-10.925,4.949H36.1a14.733,14.733,0,0,0-10.925-4.949H0V120H12.373L72.1,124.949Z" transform="translate(0 -100.203)" fill="#59bee2"/>
    <path id="Trazado_807262" data-name="Trazado 807262" d="M298.234,137.475v54.773H273.064a14.6,14.6,0,0,0-10.925,4.949H256V135l29.861,2.475Z" transform="translate(-213.766 -112.728)" fill="#1969d5"/>
    <path id="Trazado_807263" data-name="Trazado 807263" d="M108.6,79.949A28.96,28.96,0,0,0,92.336,84.9L72.373,75H60v57.247H75.293a24.1,24.1,0,0,1,14.7,4.949H94.68a24.058,24.058,0,0,1,14.7-4.949h15.293v-52.3Z" transform="translate(-50.101 -62.627)" fill="#fefbfb"/>
    <path id="Trazado_807264" data-name="Trazado 807264" d="M272.265,105A28.96,28.96,0,0,0,256,109.949v52.3h2.344a24.058,24.058,0,0,1,14.7-4.949h15.293V105Z" transform="translate(-213.766 -87.677)" fill="#fefbfb"/>
    <path id="Trazado_807265" data-name="Trazado 807265" d="M107.475,0H105V57.247h7.424A17.425,17.425,0,0,1,129.912,74.57v-52.3A22.38,22.38,0,0,0,107.475,0Z" transform="translate(-87.677)" fill="#f3ede8"/>
  </g>
</svg>
