<svg xmlns="http://www.w3.org/2000/svg" xmlns:xlink="http://www.w3.org/1999/xlink" width="81" height="81" viewBox="0 0 81 81">
  <defs>
    <clipPath id="clip-path">
      <circle id="Elipse_8285" data-name="Elipse 8285" cx="40.5" cy="40.5" r="40.5" transform="translate(360.159 1549.159)" fill="#288640"/>
    </clipPath>
  </defs>
  <g id="Grupo_1067326" data-name="Grupo 1067326" transform="translate(-9205 8280.72)">
    <g id="Grupo_1067315" data-name="Grupo 1067315" transform="translate(8875 -9817.468)">
      <g id="Enmascarar_grupo_1064338" data-name="Enmascarar grupo 1064338" transform="translate(-30.159 -12.411)" clip-path="url(#clip-path)">
        <g id="Grupo_1067312" data-name="Grupo 1067312" transform="translate(378.159 1565.123)">
          <path id="Trazado_807449" data-name="Trazado 807449" d="M61.632,73.881A1.124,1.124,0,0,0,60.509,75V78.59a1.124,1.124,0,0,0,1.123,1.123H84.225a1.124,1.124,0,0,0,1.123-1.123V75a1.124,1.124,0,0,0-1.123-1.123ZM84,78.365H61.857V75.229H84Z" transform="translate(-55.073 -65.707)" fill="#12263f"/>
          <path id="Trazado_807450" data-name="Trazado 807450" d="M68.875,374.694a.674.674,0,0,0,0-1.348H61.183a.674.674,0,0,0,0,1.348Z" transform="translate(-55.073 -338.267)" fill="#12263f"/>
          <path id="Trazado_807451" data-name="Trazado 807451" d="M35.712,20.282V12.5a.674.674,0,0,0-1.348,0v7.515a13.527,13.527,0,0,0-1.92-.146h-.057a13.621,13.621,0,0,0-2.112.165V18.266a1.124,1.124,0,0,0-1.123-1.123H6.559a1.124,1.124,0,0,0-1.123,1.123v3.586a1.124,1.124,0,0,0,1.123,1.123H23.77q-.512.425-.988.9a13.85,13.85,0,0,0-1.8,2.233H13.566a.674.674,0,1,0,0,1.348h6.647A13.69,13.69,0,0,0,19.107,30.6H6.784V27.458h3.638a.674.674,0,1,0,0-1.348H6.559a1.124,1.124,0,0,0-1.123,1.123V30.82a1.124,1.124,0,0,0,1.123,1.123H18.878a14.1,14.1,0,0,0-.1,1.626,13.789,13.789,0,0,0,3.486,9.242H1.572a.228.228,0,0,1-.225-.225V3.26a.228.228,0,0,1,.225-.225H34.139a.228.228,0,0,1,.225.225V9.353a.674.674,0,0,0,1.348,0V3.26a1.574,1.574,0,0,0-1.572-1.572H1.572A1.574,1.574,0,0,0,0,3.26V42.586a1.574,1.574,0,0,0,1.572,1.572H23.64a13.462,13.462,0,0,0,8.692,3.226h.057A13.45,13.45,0,0,0,42,43.373a13.82,13.82,0,0,0-6.283-23.091ZM6.784,21.627V18.49H28.928v1.824a13.367,13.367,0,0,0-3.212,1.313Zm34.255,20.8a12.112,12.112,0,0,1-8.649,3.614h-.052a12.444,12.444,0,0,1-8.6-21.209,12.112,12.112,0,0,1,8.649-3.614h.052a12.444,12.444,0,0,1,8.6,21.209Z" fill="#12263f"/>
          <path id="Trazado_807452" data-name="Trazado 807452" d="M264.686,251.652a.674.674,0,0,0-.783.543,9.08,9.08,0,1,1-8.919-10.841,9,9,0,0,1,5.977,2.276,9.2,9.2,0,0,1,3,5.631.674.674,0,0,0,1.335-.183,10.551,10.551,0,0,0-3.445-6.456,10.342,10.342,0,0,0-6.872-2.616,10.527,10.527,0,1,0,10.246,12.428.674.674,0,0,0-.543-.783Z" transform="translate(-222.596 -216.908)" fill="#12263f"/>
          <path id="Trazado_807453" data-name="Trazado 807453" d="M353.669,280.848a.674.674,0,0,0-.674.674V287.7a.674.674,0,0,0,.674.674h4.189a.674.674,0,0,0,0-1.348h-3.515v-5.509A.674.674,0,0,0,353.669,280.848Z" transform="translate(-321.281 -254.079)" fill="#12263f"/>
        </g>
      </g>
    </g>
  </g>
</svg>
