<svg xmlns="http://www.w3.org/2000/svg" xmlns:xlink="http://www.w3.org/1999/xlink" width="479.089" height="289.923" viewBox="0 0 479.089 289.923">
  <defs>
    <clipPath id="clip-path">
      <rect id="Rectángulo_375205" data-name="Rectángulo 375205" width="381.913" height="272.447" fill="none"/>
    </clipPath>
    <clipPath id="clip-path-7">
      <rect id="Rectángulo_375190" data-name="Rectángulo 375190" width="20.363" height="58.27" fill="none"/>
    </clipPath>
    <clipPath id="clip-path-13">
      <rect id="Rectángulo_375200" data-name="Rectángulo 375200" width="48.637" height="48.637" fill="none"/>
    </clipPath>
    <clipPath id="clip-path-14">
      <rect id="Rectángulo_375201" data-name="Rectángulo 375201" width="61.346" height="4.829" fill="none"/>
    </clipPath>
    <clipPath id="clip-path-16">
      <rect id="Rectángulo_375203" data-name="Rectángulo 375203" width="1.644" height="1.666" fill="none"/>
    </clipPath>
  </defs>
  <g id="Grupo_1067311" data-name="Grupo 1067311" transform="translate(-180 -2520)">
    <path id="Unión_17" data-name="Unión 17" d="M41,284.6a41,41,0,0,1-41-41V75.885a41,41,0,0,1,41-41H438.089a41.338,41.338,0,0,1,6.249.473L479.088,0V243.6a41,41,0,0,1-41,41Z" transform="translate(659.088 2804.6) rotate(180)" fill="#f3f9ff"/>
    <g id="Grupo_1067066" data-name="Grupo 1067066" transform="translate(218.087 2537.476)">
      <g id="Grupo_1067051" data-name="Grupo 1067051" clip-path="url(#clip-path)">
        <g id="Grupo_1067016" data-name="Grupo 1067016">
          <g id="Grupo_1067015" data-name="Grupo 1067015" clip-path="url(#clip-path)">
            <path id="Trazado_806838" data-name="Trazado 806838" d="M400.459,418.222H377.18a7.778,7.778,0,0,1-7.778-7.778V392.088a7.778,7.778,0,0,1,7.778-7.778h23.279a2.855,2.855,0,0,1,2.854,2.854v28.2a2.855,2.855,0,0,1-2.854,2.855" transform="translate(-153.502 -159.697)" fill="#e0e0e0"/>
            <path id="Trazado_806839" data-name="Trazado 806839" d="M390.528,418.222H361.353a2.369,2.369,0,0,1-2.368-2.369V386.679a2.368,2.368,0,0,1,2.368-2.369h29.174a2.369,2.369,0,0,1,2.369,2.369v29.174a2.369,2.369,0,0,1-2.369,2.369" transform="translate(-149.173 -159.697)" fill="#ebebeb"/>
            <path id="Trazado_806840" data-name="Trazado 806840" d="M383.2,415.806l-10.274-6.872,2.4-3.585,6.889,4.608,8.572-11.344,3.441,2.6Z" transform="translate(-154.966 -165.64)" fill="#e0e0e0"/>
            <path id="Trazado_806841" data-name="Trazado 806841" d="M240.6,365.1a23.663,23.663,0,1,1-24.04-23.387A23.75,23.75,0,0,1,240.6,365.1m-34.973.565a11.314,11.314,0,1,0,11.131-11.548,11.351,11.351,0,0,0-11.131,11.548" transform="translate(-80.313 -141.995)" fill="#ebebeb"/>
            <path id="Trazado_806842" data-name="Trazado 806842" d="M257.151,365.1a23.749,23.749,0,0,1-23.28,24.151l-.2-12.4a11.367,11.367,0,0,0-.364-22.73l-.2-12.4a23.74,23.74,0,0,1,24.04,23.387" transform="translate(-96.867 -141.995)" fill="#e0e0e0"/>
            <path id="Trazado_806843" data-name="Trazado 806843" d="M218.363,407a27.037,27.037,0,0,1-27.684-26.932l14.445-.233c.117,7.331,5.7,11.947,12.994,11.829Z" transform="translate(-79.235 -157.838)" fill="#f5f5f5"/>
            <path id="Trazado_806844" data-name="Trazado 806844" d="M614.456,33.148a18.477,18.477,0,1,1-18.771-18.261,18.544,18.544,0,0,1,18.771,18.261m-27.308.441a8.834,8.834,0,1,0,8.691-9.016,8.863,8.863,0,0,0-8.691,9.016" transform="translate(-239.977 -6.185)" fill="#ebebeb"/>
            <path id="Trazado_806845" data-name="Trazado 806845" d="M627.381,33.148A18.543,18.543,0,0,1,609.2,52.005l-.155-9.686a8.875,8.875,0,0,0-.284-17.748l-.155-9.686a18.537,18.537,0,0,1,18.771,18.261" transform="translate(-252.902 -6.185)" fill="#e0e0e0"/>
            <path id="Trazado_806846" data-name="Trazado 806846" d="M597.1,65.866a21.111,21.111,0,0,1-21.616-21.029l11.279-.182c.091,5.724,4.447,9.329,10.145,9.237Z" transform="translate(-239.135 -18.556)" fill="#f5f5f5"/>
            <path id="Trazado_806847" data-name="Trazado 806847" d="M137.206,23.385l17.4-2.659A17.607,17.607,0,1,1,139.14,5.885Z" transform="translate(-49.699 -2.401)" fill="#f5f5f5"/>
            <path id="Trazado_806848" data-name="Trazado 806848" d="M157.883,6.056,155.77,19.547l13.243-2.487s-1.947-7.561-11.13-11" transform="translate(-64.729 -2.517)" fill="#e0e0e0"/>
            <path id="Trazado_806849" data-name="Trazado 806849" d="M540.156,97.442H509.681a8.1,8.1,0,0,0-8.1,8.1v18.414a8.1,8.1,0,0,0,8.1,8.1h11.175l4.062,5.85,4.061-5.85h11.176a8.1,8.1,0,0,0,8.1-8.1V105.541a8.1,8.1,0,0,0-8.1-8.1" transform="translate(-208.428 -40.491)" fill="#fff"/>
            <path id="Trazado_806850" data-name="Trazado 806850" d="M540.049,97.349a7.077,7.077,0,0,1,1.053.049,7.749,7.749,0,0,1,2.9.924,8.783,8.783,0,0,1,1.791,1.328,8.455,8.455,0,0,1,1.568,2.158,8.079,8.079,0,0,1,.84,2.968c.071,1.1.026,2.253.044,3.475.006,2.441.012,5.131.019,8.042q0,2.184.008,4.531,0,1.173,0,2.385a10.412,10.412,0,0,1-.205,2.473,8.226,8.226,0,0,1-7.648,6.406c-3.7.041-7.551.017-11.551.028l.128-.067-4.059,5.852-.13.188-.131-.188-4.064-5.849.133.07H510.641a19.682,19.682,0,0,1-2-.057,8.424,8.424,0,0,1-3.721-1.383,8.549,8.549,0,0,1-2.618-2.909,8.425,8.425,0,0,1-.975-3.725c0-5.039,0-9.9,0-14.531q0-1.737,0-3.428a9.261,9.261,0,0,1,.462-3.333,8.23,8.23,0,0,1,7.166-5.509c1.011-.06,1.973-.014,2.932-.026l5.5.011,16.584.052,4.509.03,1.172.016c.264.005.4.016.4.016s-.136.011-.4.017l-1.172.016-4.509.03-16.584.052-5.5.01c-.951.015-1.94-.027-2.913.036a7.962,7.962,0,0,0-6.915,5.341,8.982,8.982,0,0,0-.439,3.24q0,1.692,0,3.428c.006,4.628.012,9.487.019,14.524a8.1,8.1,0,0,0,.939,3.58,8.241,8.241,0,0,0,2.518,2.795,8.1,8.1,0,0,0,3.575,1.327,19.287,19.287,0,0,0,1.965.054h10.194l.048.069,4.06,5.852h-.261l4.065-5.848.046-.067h.081c3.994-.006,7.862.024,11.538-.009a7.954,7.954,0,0,0,7.4-6.173,10.156,10.156,0,0,0,.206-2.415q0-1.212,0-2.385,0-2.345.009-4.531c.006-2.911.013-5.6.019-8.042-.011-1.216.04-2.385-.023-3.461a7.938,7.938,0,0,0-.8-2.914,8.379,8.379,0,0,0-1.523-2.135,8.78,8.78,0,0,0-1.751-1.328,7.906,7.906,0,0,0-2.857-.962,7.33,7.33,0,0,0-.78-.075c-.176-.013-.266-.027-.266-.027" transform="translate(-208.321 -40.398)" fill="#e0e0e0"/>
            <path id="Trazado_806851" data-name="Trazado 806851" d="M527.038,126a2.621,2.621,0,1,1-2.621-2.621A2.621,2.621,0,0,1,527.038,126" transform="translate(-216.827 -51.267)" fill="#e0e0e0"/>
            <path id="Trazado_806852" data-name="Trazado 806852" d="M541.8,126a2.621,2.621,0,1,1-2.621-2.621A2.621,2.621,0,0,1,541.8,126" transform="translate(-222.96 -51.267)" fill="#e0e0e0"/>
            <path id="Trazado_806853" data-name="Trazado 806853" d="M556.555,126a2.621,2.621,0,1,1-2.621-2.621A2.621,2.621,0,0,1,556.555,126" transform="translate(-229.093 -51.267)" fill="#e0e0e0"/>
            <path id="Trazado_806854" data-name="Trazado 806854" d="M618.228,137.1a10.921,10.921,0,0,0,16.8-9.7,7.8,7.8,0,0,0,1.916-1.988,7.663,7.663,0,0,1-2.206.6,3.847,3.847,0,0,0,1.688-2.124,7.7,7.7,0,0,1-2.438.932,3.843,3.843,0,0,0-6.544,3.5,10.9,10.9,0,0,1-7.915-4.013,3.845,3.845,0,0,0,1.188,5.127,3.836,3.836,0,0,1-1.74-.48,3.846,3.846,0,0,0,3.08,3.814,3.857,3.857,0,0,1-1.733.065,3.843,3.843,0,0,0,3.587,2.667,7.718,7.718,0,0,1-5.685,1.59" transform="translate(-256.899 -51.367)" fill="#ebebeb"/>
          </g>
        </g>
        <g id="Grupo_1067018" data-name="Grupo 1067018">
          <g id="Grupo_1067017" data-name="Grupo 1067017" clip-path="url(#clip-path)">
            <path id="Trazado_806855" data-name="Trazado 806855" d="M381.919,442.292s-.334.006-.986,0l-2.894-.019-11.127-.106-40.922-.32c-17.278-.117-37.85-.175-60.694-.221l-74.319.039-135.037.48-40.921.139-11.125.019L1,442.3c-.652,0-.986-.011-.986-.011s.334-.012.986-.02l2.893-.027,11.126-.077,40.92-.235c34.556-.188,82.3-.449,135.038-.569,26.361-.054,51.476-.057,74.32-.015,22.844.063,43.418.142,60.695.287l23.317.209,17.605.208,11.126.162,2.893.05c.652.013.986.027.986.027" transform="translate(-0.005 -183.386)" fill="#263238"/>
          </g>
        </g>
        <g id="Grupo_1067020" data-name="Grupo 1067020">
          <g id="Grupo_1067019" data-name="Grupo 1067019" clip-path="url(#clip-path)">
            <path id="Trazado_806856" data-name="Trazado 806856" d="M31.863,84.77l-1.4-4.691A16.33,16.33,0,1,0,26.55,84.43l-.006.007Z" transform="translate(-0.111 -22.953)" fill="#fafafa"/>
            <path id="Trazado_806857" data-name="Trazado 806857" d="M31.752,84.663s-.106,0-.33-.009l-1.008-.047L26.428,84.4a.07.07,0,0,1-.067-.074.081.081,0,0,1,.015-.04l.006-.007.1.1a16.321,16.321,0,0,1-7.352,3.248,16.084,16.084,0,0,1-5.24.013A16.314,16.314,0,0,1,3.389,81.4a16.4,16.4,0,0,1,.679-20.787,16.261,16.261,0,0,1,6.51-4.542,16.727,16.727,0,0,1,7.512-1.014A16.452,16.452,0,0,1,32.842,72.382a16.225,16.225,0,0,1-2.434,7.625l.007-.055,1.009,3.523.251.893c.056.2.081.3.077.294s-.04-.11-.106-.314-.164-.517-.286-.9l-1.076-3.454a.071.071,0,0,1,.008-.056A16.229,16.229,0,0,0,18.059,55.368a16.438,16.438,0,0,0-7.365,1,15.97,15.97,0,0,0-6.379,4.455,16.145,16.145,0,0,0,9.612,26.567,15.954,15.954,0,0,0,5.167.019,16.342,16.342,0,0,0,7.3-3.146.07.07,0,0,1,.1.012.071.071,0,0,1,0,.087l-.005.007-.051-.113,3.932.289,1.025.08c.232.019.358.034.358.034" transform="translate(0 -22.847)" fill="#263238"/>
            <path id="Trazado_806858" data-name="Trazado 806858" d="M17.947,81.945a1.656,1.656,0,1,1-1.656-1.656,1.656,1.656,0,0,1,1.656,1.656" transform="translate(-6.081 -33.363)" fill="#263238"/>
            <path id="Trazado_806859" data-name="Trazado 806859" d="M29.288,81.945a1.656,1.656,0,1,1-1.656-1.656,1.656,1.656,0,0,1,1.656,1.656" transform="translate(-10.794 -33.363)" fill="#263238"/>
            <path id="Trazado_806860" data-name="Trazado 806860" d="M40.756,81.117a1.656,1.656,0,1,1-2.262-.606,1.656,1.656,0,0,1,2.262.606" transform="translate(-15.652 -33.363)" fill="#263238"/>
          </g>
        </g>
        <g id="Grupo_1067022" data-name="Grupo 1067022" transform="translate(87.215 27.594)">
          <g id="Grupo_1067058" data-name="Grupo 1067058">
            <path id="Trazado_806861" data-name="Trazado 806861" d="M324.494,201.017H159.081a9.358,9.358,0,0,1-9.358-9.358V57.071a9.358,9.358,0,0,1,9.358-9.358H324.494a9.359,9.359,0,0,1,9.358,9.358V191.659a9.358,9.358,0,0,1-9.358,9.358" transform="translate(-149.431 -47.421)" fill="#fff"/>
            <path id="Trazado_806862" data-name="Trazado 806862" d="M324.286,201.1H158.873a9.661,9.661,0,0,1-9.65-9.65V56.864a9.661,9.661,0,0,1,9.65-9.651H324.286a9.661,9.661,0,0,1,9.65,9.651V191.451a9.661,9.661,0,0,1-9.65,9.65M158.873,47.8a9.076,9.076,0,0,0-9.066,9.066V191.451a9.076,9.076,0,0,0,9.066,9.066H324.286a9.076,9.076,0,0,0,9.066-9.066V56.864a9.076,9.076,0,0,0-9.066-9.066Z" transform="translate(-149.223 -47.213)" fill="#263238"/>
            <rect id="Rectángulo_375166" data-name="Rectángulo 375166" width="3.892" height="26.963" transform="translate(29.435 114.229)" fill="#1969d5"/>
            <rect id="Rectángulo_375167" data-name="Rectángulo 375167" width="3.891" height="6.741" transform="translate(22.061 134.452)" fill="#1969d5"/>
            <rect id="Rectángulo_375168" data-name="Rectángulo 375168" width="3.891" height="13.482" transform="translate(36.17 127.711)" fill="#1969d5"/>
            <rect id="Rectángulo_375169" data-name="Rectángulo 375169" width="3.891" height="21.334" transform="translate(42.792 119.859)" fill="#1969d5"/>
            <rect id="Rectángulo_375170" data-name="Rectángulo 375170" width="3.891" height="5.703" transform="translate(50.425 135.49)" fill="#1969d5"/>
            <path id="Trazado_806864" data-name="Trazado 806864" d="M411.137,244.329h12.846a.6.6,0,0,0,.427-1.016l-6.423-6.561a.6.6,0,0,0-.855,0l-6.423,6.561a.6.6,0,0,0,.427,1.016" transform="translate(-257.81 -125.9)" fill="#ebebeb"/>
            <rect id="Rectángulo_375171" data-name="Rectángulo 375171" width="8.237" height="13.06" transform="translate(155.811 117.206)" fill="#ebebeb"/>
            <path id="Trazado_806868" data-name="Trazado 806868" d="M160.1,145.868h11.754a.547.547,0,0,0,.391-.93l-5.877-6a.547.547,0,0,0-.782,0l-5.877,6a.547.547,0,0,0,.391.93" transform="translate(-153.514 -85.259)" fill="#ebebeb"/>
            <rect id="Rectángulo_375172" data-name="Rectángulo 375172" width="7.537" height="11.95" transform="translate(8.856 59.49)" fill="#ebebeb"/>
            <path id="Trazado_806871" data-name="Trazado 806871" d="M220.709,288.9c0,.084-7.925.152-17.7.152s-17.7-.068-17.7-.152,7.924-.152,17.7-.152,17.7.068,17.7.152" transform="translate(-164.218 -147.583)" fill="#263238"/>
          </g>
        </g>
        <g id="Grupo_1067024" data-name="Grupo 1067024">
          <g id="Grupo_1067023" data-name="Grupo 1067023" clip-path="url(#clip-path)">
            <path id="Trazado_806872" data-name="Trazado 806872" d="M433.25,51.5h-78.44a4.756,4.756,0,0,1-4.756-4.756V5.016A4.756,4.756,0,0,1,354.811.26h78.44a4.756,4.756,0,0,1,4.756,4.756V46.74A4.756,4.756,0,0,1,433.25,51.5" transform="translate(-145.462 -0.108)" fill="#fff"/>
            <path id="Trazado_806873" data-name="Trazado 806873" d="M433.141,51.387c0-.015.238,0,.692-.072a4.738,4.738,0,0,0,3.817-3.323,6.577,6.577,0,0,0,.194-2.091q0-1.137-.006-2.419c-.012-6.843-.028-16.733-.049-28.954q0-4.584-.01-9.594a4.671,4.671,0,0,0-2.4-4.087,4.812,4.812,0,0,0-2.466-.572l-2.672,0L407.289.292,354.707.3a4.617,4.617,0,0,0-4.581,4.1c-.058,2.268-.016,4.582-.03,6.845q0,6.814,0,13.416t0,12.949q0,3.174,0,6.278c.007,1.03-.018,2.074.016,3.075a4.568,4.568,0,0,0,1.112,2.685,4.614,4.614,0,0,0,2.464,1.479,6.132,6.132,0,0,0,1.452.118h1.482l5.825,0,11.14.008,19.994.019,28.952.049,7.871.028,2.047.015c.461.005.7.016.7.016s-.236.011-.7.016l-2.047.015-7.871.029-28.952.049-19.994.019-11.14.008-5.825,0h-1.482a6.4,6.4,0,0,1-1.513-.123,4.893,4.893,0,0,1-3.8-4.414c-.036-1.042-.011-2.057-.019-3.1q0-3.1,0-6.278,0-6.346,0-12.949t0-13.416c.013-2.278-.031-4.544.03-6.877A4.922,4.922,0,0,1,354.707,0l52.581.012,22.947.014,2.672,0a5.066,5.066,0,0,1,2.584.607,4.912,4.912,0,0,1,2.521,4.3q-.005,5-.01,9.594c-.02,12.22-.037,22.111-.048,28.954q0,1.282-.007,2.419a6.64,6.64,0,0,1-.212,2.117,4.8,4.8,0,0,1-1.985,2.621,4.68,4.68,0,0,1-1.914.707,3.423,3.423,0,0,1-.521.04c-.117,0-.176,0-.176,0" transform="translate(-145.352 0)" fill="#263238"/>
            <rect id="Rectángulo_375174" data-name="Rectángulo 375174" width="2.522" height="9.159" transform="translate(215.854 32.563)" fill="#1969d5"/>
            <rect id="Rectángulo_375175" data-name="Rectángulo 375175" width="2.522" height="16.567" transform="translate(224.84 25.155)" fill="#1969d5"/>
            <rect id="Rectángulo_375176" data-name="Rectángulo 375176" width="3.116" height="27.432" transform="translate(220.05 14.29)" fill="#455a64"/>
            <rect id="Rectángulo_375177" data-name="Rectángulo 375177" width="2.522" height="6.268" transform="translate(233.827 35.454)" fill="#1969d5"/>
            <rect id="Rectángulo_375178" data-name="Rectángulo 375178" width="2.522" height="6.268" transform="translate(229.334 35.454)" fill="#455a64"/>
            <rect id="Rectángulo_375179" data-name="Rectángulo 375179" width="2.522" height="10.265" transform="translate(242.814 31.457)" fill="#1969d5"/>
            <rect id="Rectángulo_375180" data-name="Rectángulo 375180" width="2.522" height="19.176" transform="translate(238.32 22.546)" fill="#455a64"/>
            <rect id="Rectángulo_375181" data-name="Rectángulo 375181" width="2.522" height="19.176" transform="translate(256.294 22.546)" fill="#455a64"/>
            <rect id="Rectángulo_375182" data-name="Rectángulo 375182" width="2.522" height="28.883" transform="translate(247.307 12.838)" fill="#455a64"/>
            <rect id="Rectángulo_375183" data-name="Rectángulo 375183" width="2.522" height="7.153" transform="translate(251.801 34.568)" fill="#1969d5"/>
            <rect id="Rectángulo_375184" data-name="Rectángulo 375184" width="2.522" height="5.253" transform="translate(274.268 36.469)" fill="#455a64"/>
            <rect id="Rectángulo_375185" data-name="Rectángulo 375185" width="2.522" height="28.337" transform="translate(265.281 13.385)" fill="#455a64"/>
            <rect id="Rectángulo_375186" data-name="Rectángulo 375186" width="2.522" height="22.541" transform="translate(269.774 19.181)" fill="#1969d5"/>
            <rect id="Rectángulo_375187" data-name="Rectángulo 375187" width="2.522" height="23.359" transform="translate(260.787 18.363)" fill="#1969d5"/>
            <rect id="Rectángulo_375188" data-name="Rectángulo 375188" width="2.522" height="19.176" transform="translate(278.761 22.546)" fill="#1969d5"/>
            <path id="Trazado_806874" data-name="Trazado 806874" d="M375.007,77.076h-5.215a.357.357,0,0,1-.357-.357v-.328a.357.357,0,0,1,.357-.357h5.215a.356.356,0,0,1,.357.357v.328a.356.356,0,0,1-.357.357" transform="translate(-153.515 -31.595)" fill="#e0e0e0"/>
            <path id="Trazado_806875" data-name="Trazado 806875" d="M404.395,77.076H399.18a.357.357,0,0,1-.357-.357v-.328a.357.357,0,0,1,.357-.357h5.215a.356.356,0,0,1,.357.357v.328a.356.356,0,0,1-.357.357" transform="translate(-165.727 -31.595)" fill="#e0e0e0"/>
            <path id="Trazado_806876" data-name="Trazado 806876" d="M430.337,77.076h-5.215a.357.357,0,0,1-.356-.357v-.328a.357.357,0,0,1,.356-.357h5.215a.356.356,0,0,1,.357.357v.328a.356.356,0,0,1-.357.357" transform="translate(-176.507 -31.595)" fill="#e0e0e0"/>
            <path id="Trazado_806877" data-name="Trazado 806877" d="M457.056,77.076h-5.215a.357.357,0,0,1-.357-.357v-.328a.357.357,0,0,1,.357-.357h5.215a.356.356,0,0,1,.357.357v.328a.356.356,0,0,1-.357.357" transform="translate(-187.61 -31.595)" fill="#e0e0e0"/>
            <path id="Trazado_806878" data-name="Trazado 806878" d="M479.7,77.076h-5.215a.357.357,0,0,1-.357-.357v-.328a.357.357,0,0,1,.357-.357H479.7a.357.357,0,0,1,.357.357v.328a.357.357,0,0,1-.357.357" transform="translate(-197.019 -31.595)" fill="#e0e0e0"/>
            <path id="Trazado_806879" data-name="Trazado 806879" d="M435.244,71.277c0,.084-16.233.152-36.253.152s-36.256-.068-36.256-.152,16.229-.152,36.256-.152,36.253.068,36.253.152" transform="translate(-150.731 -29.555)" fill="#263238"/>
            <path id="Trazado_806880" data-name="Trazado 806880" d="M364.824,11.671a1.385,1.385,0,1,1-1.385-1.385,1.385,1.385,0,0,1,1.385,1.385" transform="translate(-150.448 -4.274)" fill="#e0e0e0"/>
            <path id="Trazado_806881" data-name="Trazado 806881" d="M371.264,11.671a1.385,1.385,0,1,1-1.385-1.385,1.385,1.385,0,0,1,1.385,1.385" transform="translate(-153.124 -4.274)" fill="#e0e0e0"/>
            <path id="Trazado_806882" data-name="Trazado 806882" d="M377.642,11.671a1.385,1.385,0,1,1-1.385-1.385,1.385,1.385,0,0,1,1.385,1.385" transform="translate(-155.775 -4.274)" fill="#e0e0e0"/>
          </g>
        </g>
        <g id="Grupo_1067029" data-name="Grupo 1067029">
          <g id="Grupo_1067028" data-name="Grupo 1067028" clip-path="url(#clip-path)">
            <path id="Trazado_806883" data-name="Trazado 806883" d="M249.5,199.5l8.611,17.953,4.5-1.17L291.4,240.958l8.492-16.038s-17.139-7.886-20.214-14.191-.185-6.122-.185-6.122l-7.12-11.047Z" transform="translate(-103.679 -80.432)" fill="#263238"/>
            <path id="Trazado_806884" data-name="Trazado 806884" d="M268.548,137.7s9.029-2.652,23.47-12.881a132.69,132.69,0,0,0,22.492-20.638,4.919,4.919,0,0,1,6.887-.621c3.175,2.677,7.555,9.4,12.327,26.484,8.412,30.121,2.377,35.849-.154,35.394s-19.185-5.96-30.145-6.428-27.661,2.795-27.661,2.795Z" transform="translate(-111.593 -42.563)" fill="#e0e0e0"/>
            <path id="Trazado_806885" data-name="Trazado 806885" d="M268.547,137.5a3.082,3.082,0,0,0,.1.4c.083.3.2.694.34,1.206l1.362,4.717,5.228,17.838.049.168.174-.032c4.751-.866,10.185-1.707,16.192-2.285,3-.278,6.151-.5,9.421-.483a58.347,58.347,0,0,1,10.092,1.045c6.924,1.22,14.08,3.314,21.645,5.38l.368.082.432.01a2.936,2.936,0,0,0,.817-.186c.231-.141.475-.272.692-.43l.572-.558a8.127,8.127,0,0,0,1.413-2.757,21.276,21.276,0,0,0,.867-6.1,64.619,64.619,0,0,0-1.2-12.489q-.262-1.388-.524-2.768c-.187-.917-.41-1.822-.612-2.729-.392-1.818-.854-3.6-1.331-5.373-.9-3.551-1.953-7.006-3.079-10.369a86.17,86.17,0,0,0-3.857-9.707A30.043,30.043,0,0,0,322.2,103.7a6.028,6.028,0,0,0-2.063-1.41,5.083,5.083,0,0,0-2.457-.3,5.244,5.244,0,0,0-2.289.85,8.576,8.576,0,0,0-1.7,1.662c-2.019,2.3-4.059,4.465-6.088,6.5a131.98,131.98,0,0,1-11.918,10.617,127.878,127.878,0,0,1-19.41,12.448c-2.427,1.237-4.364,2.089-5.69,2.631-.662.274-1.174.465-1.517.6a5.029,5.029,0,0,0-.518.2,3.134,3.134,0,0,0,.538-.143c.351-.111.871-.283,1.542-.539,1.344-.506,3.3-1.325,5.75-2.531a123.294,123.294,0,0,0,19.569-12.317,130.536,130.536,0,0,0,12.01-10.6c2.044-2.032,4.1-4.2,6.134-6.5a8.106,8.106,0,0,1,1.6-1.563,4.68,4.68,0,0,1,6.122.811,29.57,29.57,0,0,1,5.371,8.213A86.065,86.065,0,0,1,331,121.975c1.117,3.348,2.159,6.794,3.059,10.333.475,1.763.935,3.543,1.324,5.352.2.9.423,1.805.608,2.717l.521,2.753a64.35,64.35,0,0,1,1.195,12.362,20.73,20.73,0,0,1-.833,5.928,7.532,7.532,0,0,1-1.292,2.551l-.49.48c-.181.129-.376.231-.56.352a1.85,1.85,0,0,1-1.253.059c-7.5-2.037-14.728-4.137-21.676-5.34a58.562,58.562,0,0,0-10.185-1.02c-3.3,0-6.458.231-9.47.524-6.025.608-11.458,1.48-16.219,2.384l.223.136-5.4-17.661-1.466-4.732c-.165-.521-.294-.927-.389-1.227a4.257,4.257,0,0,0-.148-.425" transform="translate(-111.592 -42.365)" fill="#263238"/>
            <path id="Trazado_806886" data-name="Trazado 806886" d="M226.488,200.238l5.863-.9-3.369-7.784-4.932,2.632Z" transform="translate(-93.102 -79.6)" fill="#1969d5"/>
            <path id="Trazado_806887" data-name="Trazado 806887" d="M230.711,174.323l2.625,6.063,1.433,3.309a9.16,9.16,0,0,0,11.673,4.977l23.813-6.52-9.674-30.177-24.1,8.906a10.82,10.82,0,0,0-5.766,13.443" transform="translate(-95.616 -63.151)" fill="#1969d5"/>
            <g id="Grupo_1067027" data-name="Grupo 1067027" transform="translate(203.574 61.745)" opacity="0.3">
              <g id="Grupo_1067026" data-name="Grupo 1067026">
                <g id="Grupo_1067025" data-name="Grupo 1067025" clip-path="url(#clip-path-7)">
                  <path id="Trazado_806888" data-name="Trazado 806888" d="M364.9,132.994c4.371,16.06,5.047,29.879,1.51,30.866s-9.947-11.233-14.319-27.292-5.046-29.879-1.51-30.866,9.947,11.232,14.319,27.292" transform="translate(-348.312 -105.645)"/>
                </g>
              </g>
            </g>
            <path id="Trazado_806889" data-name="Trazado 806889" d="M350.949,142.011s8.505-3.638,11.106,7.639-5.825,11.726-5.825,11.726a72.189,72.189,0,0,1-5.281-19.365" transform="translate(-145.834 -58.779)" fill="#fff"/>
            <path id="Trazado_806890" data-name="Trazado 806890" d="M260.992,172.052a79.637,79.637,0,0,1-9.128,3.376,79.663,79.663,0,0,1-9.314,2.812,80.4,80.4,0,0,1,9.129-3.376,80.133,80.133,0,0,1,9.313-2.812" transform="translate(-100.789 -71.489)" fill="#263238"/>
            <path id="Trazado_806891" data-name="Trazado 806891" d="M262.792,177.738a79.934,79.934,0,0,1-9.128,3.376,79.946,79.946,0,0,1-9.314,2.812,79.864,79.864,0,0,1,9.129-3.376,79.922,79.922,0,0,1,9.313-2.811" transform="translate(-101.537 -73.852)" fill="#263238"/>
            <path id="Trazado_806892" data-name="Trazado 806892" d="M264.593,183.424a79.94,79.94,0,0,1-9.128,3.376,79.723,79.723,0,0,1-9.314,2.812,79.935,79.935,0,0,1,9.129-3.376,79.782,79.782,0,0,1,9.313-2.811" transform="translate(-102.285 -76.215)" fill="#263238"/>
            <path id="Trazado_806893" data-name="Trazado 806893" d="M266.394,189.109a79.809,79.809,0,0,1-9.128,3.376,79.818,79.818,0,0,1-9.314,2.812,79.863,79.863,0,0,1,9.129-3.376,79.757,79.757,0,0,1,9.313-2.812" transform="translate(-103.034 -78.577)" fill="#263238"/>
            <path id="Trazado_806894" data-name="Trazado 806894" d="M402.6,167.092c-.034.1,4.878,1.913,10.971,4.045s11.063,3.779,11.1,3.677-4.876-1.913-10.971-4.046-11.062-3.778-11.1-3.676" transform="translate(-167.295 -69.432)" fill="#263238"/>
            <path id="Trazado_806895" data-name="Trazado 806895" d="M399.2,143.617c.016.107,7.856-.987,17.509-2.442s17.469-2.721,17.454-2.828-7.854.986-17.51,2.442-17.468,2.721-17.452,2.828" transform="translate(-165.886 -57.486)" fill="#263238"/>
            <path id="Trazado_806896" data-name="Trazado 806896" d="M396.219,119.134c.072.079,2.819-2.373,6.135-5.476s5.945-5.684,5.873-5.763-2.818,2.372-6.134,5.476-5.945,5.684-5.873,5.763" transform="translate(-164.645 -44.834)" fill="#263238"/>
            <path id="Trazado_806897" data-name="Trazado 806897" d="M349.066,108.725a2.128,2.128,0,0,0-.085.582c-.033.455-.074,1.008-.122,1.677-.054.729-.1,1.621-.1,2.659s-.053,2.22.008,3.525a87.189,87.189,0,0,0,.7,9.151,89.069,89.069,0,0,0,5.665,21.7,86.708,86.708,0,0,0,3.855,8.309c.584,1.165,1.2,2.171,1.714,3.069s.984,1.653,1.386,2.26l.925,1.4a2.092,2.092,0,0,0,.357.463,2.16,2.16,0,0,0-.253-.531l-.826-1.455c-.37-.624-.815-1.392-1.293-2.306s-1.07-1.926-1.627-3.1c-1.182-2.309-2.45-5.129-3.715-8.317a95,95,0,0,1-5.63-21.562c-.456-3.4-.731-6.49-.83-9.089-.089-1.3-.074-2.475-.1-3.508s-.019-1.924,0-2.652c0-.669.005-1.223.008-1.678a2.154,2.154,0,0,0-.039-.589" transform="translate(-144.913 -45.18)" fill="#263238"/>
          </g>
        </g>
        <g id="Grupo_1067031" data-name="Grupo 1067031">
          <g id="Grupo_1067030" data-name="Grupo 1067030" clip-path="url(#clip-path)">
            <path id="Trazado_806898" data-name="Trazado 806898" d="M469.506,207.2h0a20.669,20.669,0,1,1,20.669-20.669A20.669,20.669,0,0,1,469.506,207.2" transform="translate(-186.51 -68.922)" fill="#ff9b6c"/>
            <path id="Trazado_806899" data-name="Trazado 806899" d="M486.992,189.822a7.237,7.237,0,0,0-.458-2.393,5.041,5.041,0,0,0-2.883-2.883,7.237,7.237,0,0,0-2.393-.458c-1.052-.048-1.388-.059-4.064-.059s-3.014.011-4.065.059a7.237,7.237,0,0,0-2.393.458,5.037,5.037,0,0,0-2.883,2.883,7.217,7.217,0,0,0-.459,2.393c-.048,1.051-.059,1.388-.059,4.064s.011,3.013.059,4.065a7.217,7.217,0,0,0,.459,2.393,5.042,5.042,0,0,0,2.883,2.883,7.236,7.236,0,0,0,2.393.458c1.051.048,1.388.059,4.065.059s3.012-.011,4.064-.059a7.236,7.236,0,0,0,2.393-.458,5.045,5.045,0,0,0,2.883-2.883,7.237,7.237,0,0,0,.458-2.393c.048-1.051.059-1.388.059-4.065s-.011-3.013-.059-4.064m-1.774,8.048a5.453,5.453,0,0,1-.34,1.831,3.267,3.267,0,0,1-1.871,1.871,5.453,5.453,0,0,1-1.831.34c-1.039.047-1.351.057-3.983.057s-2.945-.01-3.984-.057a5.45,5.45,0,0,1-1.831-.34,3.263,3.263,0,0,1-1.871-1.871,5.45,5.45,0,0,1-.34-1.831c-.047-1.039-.057-1.351-.057-3.984s.01-2.944.057-3.983a5.45,5.45,0,0,1,.34-1.831,3.263,3.263,0,0,1,1.871-1.871,5.451,5.451,0,0,1,1.831-.34c1.039-.047,1.351-.057,3.984-.057l3.983.057a5.454,5.454,0,0,1,1.831.34,3.268,3.268,0,0,1,1.871,1.871,5.453,5.453,0,0,1,.34,1.831c.047,1.039.057,1.351.057,3.983s-.01,2.944-.057,3.984" transform="translate(-194.197 -76.472)" fill="#fff"/>
            <path id="Trazado_806900" data-name="Trazado 806900" d="M480.6,192.235a5.062,5.062,0,1,0,5.062,5.062,5.062,5.062,0,0,0-5.062-5.062m0,8.348a3.286,3.286,0,1,1,3.286-3.286,3.286,3.286,0,0,1-3.286,3.286" transform="translate(-197.607 -79.882)" fill="#fff"/>
            <path id="Trazado_806901" data-name="Trazado 806901" d="M492.365,189.868a1.183,1.183,0,1,0,1.182,1.183,1.183,1.183,0,0,0-1.182-1.183" transform="translate(-204.106 -78.898)" fill="#fff"/>
            <rect id="Rectángulo_375192" data-name="Rectángulo 375192" width="0.585" height="27.428" transform="translate(237.357 118.293) rotate(-89.193)" fill="#ff9b6c"/>
            <path id="Trazado_806902" data-name="Trazado 806902" d="M405.912,199a1.917,1.917,0,1,1-2.686.379,1.917,1.917,0,0,1,2.686-.379" transform="translate(-167.397 -82.533)" fill="#ff9b6c"/>
          </g>
        </g>
        <g id="Grupo_1067033" data-name="Grupo 1067033">
          <g id="Grupo_1067032" data-name="Grupo 1067032" clip-path="url(#clip-path)">
            <path id="Trazado_806903" data-name="Trazado 806903" d="M354.377,305.485h0a20.669,20.669,0,1,1,20.669-20.669,20.669,20.669,0,0,1-20.669,20.669" transform="translate(-138.669 -109.763)" fill="#59bee2"/>
            <path id="Trazado_806904" data-name="Trazado 806904" d="M353.061,302.293a10.921,10.921,0,0,0,16.8-9.7,7.8,7.8,0,0,0,1.916-1.988,7.686,7.686,0,0,1-2.206.6,3.847,3.847,0,0,0,1.688-2.125,7.694,7.694,0,0,1-2.438.932,3.842,3.842,0,0,0-6.544,3.5,10.9,10.9,0,0,1-7.915-4.013,3.845,3.845,0,0,0,1.188,5.127,3.835,3.835,0,0,1-1.74-.48,3.845,3.845,0,0,0,3.08,3.814,3.856,3.856,0,0,1-1.733.065,3.843,3.843,0,0,0,3.587,2.667,7.718,7.718,0,0,1-5.685,1.59" transform="translate(-146.711 -120.011)" fill="#fff"/>
            <rect id="Rectángulo_375194" data-name="Rectángulo 375194" width="0.584" height="19.307" transform="matrix(0.959, -0.283, 0.283, 0.959, 207.987, 139.423)" fill="#ff9b6c"/>
            <path id="Trazado_806905" data-name="Trazado 806905" d="M356.9,236.353a1.917,1.917,0,1,1-1.918-1.918,1.918,1.918,0,0,1,1.918,1.918" transform="translate(-146.711 -97.417)" fill="#ff9b6c"/>
          </g>
        </g>
        <g id="Grupo_1067035" data-name="Grupo 1067035">
          <g id="Grupo_1067034" data-name="Grupo 1067034" clip-path="url(#clip-path)">
            <path id="Trazado_806906" data-name="Trazado 806906" d="M266.825,52.494h0a21.173,21.173,0,0,1-21.173-21.173h0a21.173,21.173,0,0,1,42.347,0h0a21.173,21.173,0,0,1-21.174,21.173" transform="translate(-102.078 -4.216)" fill="#1969d5"/>
            <path id="Trazado_806907" data-name="Trazado 806907" d="M275.647,47.287h4.326V36.455h3.018l.322-3.627h-3.34V30.763c0-.855.172-1.193,1-1.193h2.341V25.806h-3c-3.219,0-4.67,1.418-4.67,4.131v2.891H273.4V36.5h2.25Z" transform="translate(-113.608 -10.723)" fill="#fff"/>
            <rect id="Rectángulo_375196" data-name="Rectángulo 375196" width="0.584" height="24.803" transform="translate(164.93 44.454)" fill="#ff9b6c"/>
            <path id="Trazado_806908" data-name="Trazado 806908" d="M279.3,118.274a1.917,1.917,0,1,1,1.38,2.334,1.918,1.918,0,0,1-1.38-2.334" transform="translate(-116.035 -48.549)" fill="#ff9b6c"/>
          </g>
        </g>
        <g id="Grupo_1067037" data-name="Grupo 1067037">
          <g id="Grupo_1067036" data-name="Grupo 1067036" clip-path="url(#clip-path)">
            <path id="Trazado_806909" data-name="Trazado 806909" d="M182.4,111.392h0a20.669,20.669,0,1,1,20.669-20.669A20.669,20.669,0,0,1,182.4,111.392" transform="translate(-67.207 -29.11)" fill="#74c67b"/>
            <path id="Trazado_806910" data-name="Trazado 806910" d="M200.51,96.32a11.134,11.134,0,0,0-22.247-.2c-.005.161-.011.323-.011.485a10.961,10.961,0,0,0,1.594,5.706l-1.247,3.683a1.2,1.2,0,0,0,1.5,1.525l3.908-1.242A11.145,11.145,0,0,0,200.515,96.6c0-.094,0-.188,0-.282m-11.126,9.568a9.323,9.323,0,0,1-5.149-1.537l-3.6,1.146,1.167-3.45a9.192,9.192,0,0,1-1.783-5.445,8.729,8.729,0,0,1,.047-.9,9.363,9.363,0,0,1,18.641.177c.021.24.032.48.032.725a9.334,9.334,0,0,1-9.359,9.286" transform="translate(-74.071 -35.551)" fill="#fff" fill-rule="evenodd"/>
            <path id="Trazado_806911" data-name="Trazado 806911" d="M198.539,103.1c-.276-.135-1.615-.792-1.866-.881s-.433-.135-.615.136-.709.881-.866,1.058-.317.2-.594.068a7.379,7.379,0,0,1-2.194-1.345,8.12,8.12,0,0,1-1.517-1.87c-.156-.271-.015-.417.12-.552s.271-.318.411-.475c.037-.047.068-.088.1-.13a3.112,3.112,0,0,0,.172-.323.489.489,0,0,0-.021-.474c-.068-.136-.615-1.469-.845-2.012s-.453-.448-.615-.448-.338-.026-.521-.026a1.01,1.01,0,0,0-.729.338,3.033,3.033,0,0,0-.954,2.262,3.436,3.436,0,0,0,.141.923,6.156,6.156,0,0,0,.974,1.876,11.213,11.213,0,0,0,4.659,4.091c2.777,1.078,2.777.719,3.278.672A2.724,2.724,0,0,0,198.9,104.7a2.231,2.231,0,0,0,.161-1.287c-.068-.109-.25-.177-.521-.313" transform="translate(-78.125 -39.82)" fill="#fff" fill-rule="evenodd"/>
            <rect id="Rectángulo_375198" data-name="Rectángulo 375198" width="0.584" height="19.308" transform="translate(123.827 72.657) rotate(-40.892)" fill="#ff9b6c"/>
            <path id="Trazado_806912" data-name="Trazado 806912" d="M231.049,149.022a1.917,1.917,0,1,1,2.539.951,1.917,1.917,0,0,1-2.539-.951" transform="translate(-95.939 -60.798)" fill="#ff9b6c"/>
          </g>
        </g>
        <g id="Grupo_1067045" data-name="Grupo 1067045">
          <g id="Grupo_1067044" data-name="Grupo 1067044" clip-path="url(#clip-path)">
            <path id="Trazado_806913" data-name="Trazado 806913" d="M566.6,406.5H528.6a7.778,7.778,0,0,1-7.777-7.778V365.64a7.778,7.778,0,0,1,7.777-7.777H566.6a2.854,2.854,0,0,1,2.854,2.855v42.928A2.854,2.854,0,0,1,566.6,406.5" transform="translate(-216.421 -148.707)" fill="#455a64"/>
            <g id="Grupo_1067040" data-name="Grupo 1067040" transform="translate(304.397 209.156)" opacity="0.3">
              <g id="Grupo_1067039" data-name="Grupo 1067039">
                <g id="Grupo_1067038" data-name="Grupo 1067038" clip-path="url(#clip-path-13)">
                  <path id="Trazado_806914" data-name="Trazado 806914" d="M566.6,406.5H528.6a7.778,7.778,0,0,1-7.777-7.778V365.64a7.778,7.778,0,0,1,7.777-7.777H566.6a2.854,2.854,0,0,1,2.854,2.855v42.928A2.854,2.854,0,0,1,566.6,406.5" transform="translate(-520.818 -357.862)"/>
                </g>
              </g>
            </g>
            <path id="Trazado_806915" data-name="Trazado 806915" d="M549.592,406.5H508.245a2.368,2.368,0,0,1-2.369-2.369v-43.9a2.368,2.368,0,0,1,2.369-2.368h41.347a2.369,2.369,0,0,1,2.369,2.368v43.9a2.369,2.369,0,0,1-2.369,2.369" transform="translate(-210.212 -148.707)" fill="#455a64"/>
            <path id="Trazado_806916" data-name="Trazado 806916" d="M478.573,252.372s-5.132-4.469-6.508-5.239-3.724-.307-5.8-.625-5.033-1.718-5.782-1.312c-.887.482.039,2.5,3.221,3.748l-.926-.083-2.263.181s-.836-1.233-1.55-1.223c-1.02.013-.991.852-.991.852s-1.546-1.822-2.058.147c0,0-1.819-.687-1.943.689,0,0-.4,1.1,3.489,1.405a34.289,34.289,0,0,0,4.12,3.424c.812.317,3.625-.118,3.625-.118s.822,1.182,1.686,1.231c1.644.094,5.86-.191,5.86-.191l1.662,1.982Z" transform="translate(-188.639 -101.858)" fill="#ffc09d"/>
            <path id="Trazado_806917" data-name="Trazado 806917" d="M472.368,255.755a4.787,4.787,0,0,0-.4-.654,4.773,4.773,0,0,1-.777-1.877,3.733,3.733,0,0,1,.989-2.749c.179-.224.374-.446.579-.669a4.919,4.919,0,0,1,.64-.634.531.531,0,0,1,.71,0,.964.964,0,0,1,.273.791,2.9,2.9,0,0,1-1.132,2.135l-.142.106.134.113a6.065,6.065,0,0,1,1.08,1.195l.074.108.107-.072a10.022,10.022,0,0,1,3.582-1.5c.936-.19,1.5-.195,1.494-.232a1.39,1.39,0,0,0-.4-.023,8.063,8.063,0,0,0-1.121.1,9.5,9.5,0,0,0-3.7,1.439l.181.036a6.167,6.167,0,0,0-1.115-1.262l-.007.219a3.15,3.15,0,0,0,1.255-2.35,1.249,1.249,0,0,0-.375-1.021.792.792,0,0,0-.544-.2.961.961,0,0,0-.521.194,5.032,5.032,0,0,0-.682.68c-.205.229-.4.457-.584.691a3.9,3.9,0,0,0-.982,2.943,4.533,4.533,0,0,0,.887,1.913,3.287,3.287,0,0,0,.493.59" transform="translate(-195.7 -103.363)" fill="#ff9b6c"/>
            <path id="Trazado_806918" data-name="Trazado 806918" d="M464.677,251.35a11.532,11.532,0,0,0,1.547,2.065c.234.27.437.532.676.76a1.451,1.451,0,0,0,.788.382,1.327,1.327,0,0,0,.577-.07c.126-.042.192-.077.188-.1s-.079-.022-.209-.015a1.738,1.738,0,0,1-.52-.022,1.361,1.361,0,0,1-.639-.372c-.2-.206-.408-.486-.639-.753a11.53,11.53,0,0,0-1.77-1.878" transform="translate(-193.091 -104.445)" fill="#ff9b6c"/>
            <path id="Trazado_806919" data-name="Trazado 806919" d="M464.533,256.287c.063-.061-.96-1.159-2.027-2.66s-1.783-2.818-1.86-2.779a14.375,14.375,0,0,0,3.887,5.439" transform="translate(-191.415 -104.237)" fill="#ff9b6c"/>
            <path id="Trazado_806920" data-name="Trazado 806920" d="M459.816,254.41a15.921,15.921,0,0,0-1.322-1.641,10.257,10.257,0,0,0-1.414-1.569,6.253,6.253,0,0,0,1.191,1.756,5.168,5.168,0,0,0,1.546,1.454" transform="translate(-189.933 -104.383)" fill="#ff9b6c"/>
            <path id="Trazado_806921" data-name="Trazado 806921" d="M470.706,251.737c.01-.08-.461-.177-1.054-.216s-1.074-.006-1.077.074.469.177,1.053.216,1.067.006,1.077-.074" transform="translate(-194.712 -104.51)" fill="#ff9b6c"/>
            <path id="Trazado_806922" data-name="Trazado 806922" d="M520.132,234.031s-5.469-.407-8.644,5.968c-2.1,4.215-8.485,15.58-8.485,15.58l-12.561-10.55-7.362,7.963s12.571,14.973,17.454,16.108,10.638-2.18,12.441-4.734,7.8-8.788,7.8-8.788Z" transform="translate(-200.739 -97.247)" fill="#74c67b"/>
            <path id="Trazado_806923" data-name="Trazado 806923" d="M549.082,221.945l.873-14.116c.026-10.959-1.1-23.636.238-27.219,2.476-6.618,11.363-8.038,11.363-8.038,11.993-1.223,14.419,7.947,15.886,16.322.249,1.421.932,3.938,1.791,6.846,1.964,6.051,4.389,12.25,8.959,16.265a10.937,10.937,0,0,1,3.406,6c.455,2.277-.679,5.072-2.956,5.524a5.322,5.322,0,0,1-.589,8.384c-1.89,1.267-4.346,1.2-6.613,1.006-2.252-.191-4.615-.5-6.426-1.856s-2.786-3.544-3.54-5.68a51.881,51.881,0,0,1-2.1-7.9Z" transform="translate(-228.166 -71.665)" fill="#263238"/>
            <path id="Trazado_806924" data-name="Trazado 806924" d="M561.144,177.531l.853-.594,7.534,4.479a2.268,2.268,0,0,1,1.782,2.5l-4.96,25.972c-.264,1.777-.012,3.454-1.3,4.7l-8.831,8.295c-3.1,3-1.7-4.442-3.164-8.5-.1-.283.665-1.163.651-1.355a5.391,5.391,0,0,1-.029-.6c.087-2.143.355-3.971.355-3.971.214-2.334.313-3.291.309-3.269,0,0-4.833-1.326-5.188-7.848-.177-3.244.616-7.547,1.459-11.771,1.167-5.846,5.8-8.772,10.53-8.035" transform="translate(-228.186 -73.525)" fill="#ffc09d"/>
            <path id="Trazado_806925" data-name="Trazado 806925" d="M566.488,200.664a.827.827,0,0,0,.708.912.791.791,0,0,0,.925-.654.828.828,0,0,0-.707-.913.792.792,0,0,0-.926.655" transform="translate(-235.396 -83.108)" fill="#263238"/>
            <path id="Trazado_806926" data-name="Trazado 806926" d="M552.743,198.5a.827.827,0,0,0,.707.912.791.791,0,0,0,.925-.654.828.828,0,0,0-.707-.913.791.791,0,0,0-.926.655" transform="translate(-229.684 -82.207)" fill="#263238"/>
            <path id="Trazado_806927" data-name="Trazado 806927" d="M552.6,194.819c.091.118.762-.279,1.648-.185s1.488.6,1.6.506c.052-.043-.032-.248-.293-.483a2.276,2.276,0,0,0-1.263-.538,2.183,2.183,0,0,0-1.325.282c-.294.181-.407.365-.361.418" transform="translate(-229.625 -80.66)" fill="#263238"/>
            <path id="Trazado_806928" data-name="Trazado 806928" d="M567.235,196.7c.1.108.731-.356,1.62-.353s1.542.448,1.639.339c.047-.049-.056-.243-.341-.45a2.264,2.264,0,0,0-1.312-.405,2.182,2.182,0,0,0-1.289.416c-.273.21-.366.406-.316.454" transform="translate(-235.704 -81.375)" fill="#263238"/>
            <path id="Trazado_806929" data-name="Trazado 806929" d="M559.392,202.232a5.928,5.928,0,0,0-1.411-.409c-.223-.047-.433-.114-.455-.272a1.154,1.154,0,0,1,.221-.655q.4-.788.847-1.653a29.743,29.743,0,0,0,1.968-4.348,29.831,29.831,0,0,0-2.313,4.18q-.43.871-.82,1.666a1.312,1.312,0,0,0-.209.875.57.57,0,0,0,.338.369,1.514,1.514,0,0,0,.378.093,5.774,5.774,0,0,0,1.458.153" transform="translate(-231.539 -80.987)" fill="#263238"/>
            <path id="Trazado_806930" data-name="Trazado 806930" d="M557.943,224.271a16.412,16.412,0,0,0,8.831-1.4s-2.621,4.218-8.98,2.953Z" transform="translate(-231.786 -92.611)" fill="#ff9b6c"/>
            <path id="Trazado_806931" data-name="Trazado 806931" d="M567.411,190.681c.08.244.972.155,2.012.312,1.043.136,1.877.466,2.021.253.065-.1-.074-.334-.409-.578a3.541,3.541,0,0,0-3.074-.43c-.387.143-.586.327-.551.444" transform="translate(-235.781 -78.979)" fill="#263238"/>
            <path id="Trazado_806932" data-name="Trazado 806932" d="M553.572,188.849c.131.241.285.171,1.137.373a7.951,7.951,0,0,0,2.354.4c.1-.081.033-.306-.234-.57a2.827,2.827,0,0,0-1.33-.674,2.78,2.78,0,0,0-1.483.049c-.35.126-.5.3-.444.42" transform="translate(-230.027 -78.248)" fill="#263238"/>
            <path id="Trazado_806933" data-name="Trazado 806933" d="M577.546,194.755s-3.953.721-7.594-10.22a31.179,31.179,0,0,1-1.283-8.127l1.494-.209s8.489,3.871,8.621,4.006,1.53,4.936,1.53,4.936Z" transform="translate(-236.305 -73.217)" fill="#263238"/>
            <path id="Trazado_806934" data-name="Trazado 806934" d="M581.858,205.824c.05-.477.719-1.547,1.2-1.572,1.281-.066,3.541.27,3.231,3.473-.424,4.378-4.732,3.049-4.728,2.922,0-.1.123-3.174.3-4.824" transform="translate(-241.662 -84.872)" fill="#ffc09d"/>
            <path id="Trazado_806935" data-name="Trazado 806935" d="M584.12,210.176c.02-.012.071.061.194.133a.766.766,0,0,0,.569.067,1.9,1.9,0,0,0,1.037-1.608,2.536,2.536,0,0,0-.108-1.113.884.884,0,0,0-.517-.641.39.39,0,0,0-.471.165c-.071.117-.051.207-.075.212s-.087-.082-.035-.259a.492.492,0,0,1,.2-.258.578.578,0,0,1,.433-.071,1.076,1.076,0,0,1,.731.756,2.6,2.6,0,0,1,.146,1.246,1.989,1.989,0,0,1-1.3,1.783.821.821,0,0,1-.686-.184c-.125-.121-.138-.221-.123-.228" transform="translate(-242.724 -85.929)" fill="#ff9b6c"/>
            <path id="Trazado_806936" data-name="Trazado 806936" d="M583.826,215.213a1.127,1.127,0,1,1-1.141-1.114,1.127,1.127,0,0,1,1.141,1.114" transform="translate(-241.667 -88.967)" fill="#455a64"/>
            <path id="Trazado_806937" data-name="Trazado 806937" d="M601.915,179.742a5.323,5.323,0,0,0-5.191-1.764,5.6,5.6,0,0,0-4.043,3.67l-.531,11.018a2,2,0,0,0,2.648-2.616,2.519,2.519,0,0,0,2.575,1.155,2.275,2.275,0,0,0,1.785-2.131,2.112,2.112,0,0,0-1.285-1.894,4.477,4.477,0,0,0,4.452-2.033,4.838,4.838,0,0,0-.411-5.4" transform="translate(-246.063 -73.907)" fill="#263238"/>
            <path id="Trazado_806938" data-name="Trazado 806938" d="M584.6,190.459a.791.791,0,0,1-.2.123,5.265,5.265,0,0,1-.609.293,8.159,8.159,0,0,1-2.414.59,9.872,9.872,0,0,1-3.67-.359,10.6,10.6,0,0,1-3.97-2.147,12,12,0,0,1-2.749-3.582,13.711,13.711,0,0,1-1.21-3.482,13.935,13.935,0,0,1-.29-2.466c-.015-.293,0-.521,0-.675a.825.825,0,0,1,.023-.234,7.61,7.61,0,0,1,.077.9,16.421,16.421,0,0,0,.371,2.431,14.2,14.2,0,0,0,1.244,3.41,12.065,12.065,0,0,0,2.706,3.493,10.577,10.577,0,0,0,3.863,2.112,10,10,0,0,0,3.585.407,10.649,10.649,0,0,0,3.24-.818" transform="translate(-236.642 -74.182)" fill="#455a64"/>
            <path id="Trazado_806939" data-name="Trazado 806939" d="M592.6,201.34c.027.016-.091.283-.384.649a4.684,4.684,0,0,1-3.162,1.671,1.563,1.563,0,0,1-.753-.048,6.365,6.365,0,0,0,4.3-2.272" transform="translate(-244.461 -83.664)" fill="#455a64"/>
            <path id="Trazado_806940" data-name="Trazado 806940" d="M595.614,193.654a10.58,10.58,0,0,1-.313-1.489c-.175-.921-.437-2.188-.8-3.571s-.75-2.617-1.046-3.506a10.554,10.554,0,0,1-.453-1.452,7.259,7.259,0,0,1,.63,1.388,32.493,32.493,0,0,1,1.852,7.11,7.28,7.28,0,0,1,.127,1.52" transform="translate(-246.416 -76.309)" fill="#455a64"/>
            <path id="Trazado_806941" data-name="Trazado 806941" d="M563.094,211.4a1.311,1.311,0,0,0-.339-.864,1.342,1.342,0,0,0-1.6-.314,1.8,1.8,0,0,0-.906,1.578,1.635,1.635,0,0,0,1.065.831,2.087,2.087,0,0,0,.216.037,1.466,1.466,0,0,0,1.033-.253,1.306,1.306,0,0,0,.53-1.015" transform="translate(-232.806 -87.298)" fill="#ff9b6c"/>
            <path id="Trazado_806942" data-name="Trazado 806942" d="M562.542,209.512c-.138-.019-.217.91-1.067,1.5s-1.832.411-1.85.54c-.018.057.206.2.624.244a2.323,2.323,0,0,0,1.539-.4,2.023,2.023,0,0,0,.835-1.267c.068-.386-.017-.625-.081-.625" transform="translate(-232.547 -87.061)" fill="#263238"/>
            <path id="Trazado_806943" data-name="Trazado 806943" d="M537.77,233.22s-6.748,9.109-7.305,12.268,1.011,23.571,1.818,27.1l-5.225,11.752,8.933,2.092,29.689-.507-1.252-19.54,3.006-12.985.308-17.083L557.182,232.8c-2.769,5.594-11.889,3.759-12.378-.717Z" transform="translate(-219.014 -96.442)" fill="#74c67b"/>
            <path id="Trazado_806944" data-name="Trazado 806944" d="M587.19,239.322a11.426,11.426,0,0,1,5.722,5.5c1.682,3.378,6.295,18.009,7.44,21.711,1.263,4.082,1.667,7.548-.638,10.358-.664.809-.776,1.781-5.634,3.808-4.808,2.006-17.562,5.869-17.562,5.869l-2.658-6.6,15.668-9.612L585,258.16Z" transform="translate(-238.463 -99.448)" fill="#74c67b"/>
            <path id="Trazado_806945" data-name="Trazado 806945" d="M595.465,260.737c.079.021-.868,3.933-2.115,8.739s-2.322,8.686-2.4,8.666.868-3.933,2.115-8.74,2.321-8.685,2.4-8.665" transform="translate(-245.562 -108.347)" fill="#263238"/>
            <path id="Trazado_806946" data-name="Trazado 806946" d="M549.773,308.5l1.275-.6-.476.582a1.653,1.653,0,0,0-.427,1.377c.191.723,1.516.878,1.516.878a2.065,2.065,0,0,0,.38,1.423c.464.618,2.234.166,2.234.166l-.244.528c-.3.564.422,1.264.757,1.349a4.727,4.727,0,0,0,2.218-.665,7.289,7.289,0,0,1,2.737-.212s2.7.86,3.842.449a2.477,2.477,0,0,0,1.478-1.244s-.192-5.044-1.843-5.846c-.842-.409-5.741-2.286-7.2-2.91a2.069,2.069,0,0,0-1.546-.033,34.173,34.173,0,0,0-5.181,2.345s-1.257.791-1.006,1.545a1.211,1.211,0,0,0,1.485.869" transform="translate(-227.822 -126.159)" fill="#ffc09d"/>
            <path id="Trazado_806947" data-name="Trazado 806947" d="M555.334,308.039a21.461,21.461,0,0,1-2.624,1.89,10.821,10.821,0,0,1,1.276-.995,10.616,10.616,0,0,1,1.348-.9" transform="translate(-229.674 -128.002)" fill="#ff9b6c"/>
            <path id="Trazado_806948" data-name="Trazado 806948" d="M557.2,312.8c.015.034-.72.357-1.576.847s-1.524.935-1.546.9a2.19,2.19,0,0,1,.414-.327c.265-.186.64-.435,1.072-.682a10.945,10.945,0,0,1,1.138-.566,2.047,2.047,0,0,1,.5-.174" transform="translate(-230.243 -129.982)" fill="#ff9b6c"/>
            <path id="Trazado_806949" data-name="Trazado 806949" d="M560.765,316.279a16.563,16.563,0,0,1-2.485,1.385,16.549,16.549,0,0,1,2.485-1.385" transform="translate(-231.988 -131.426)" fill="#ff9b6c"/>
            <path id="Trazado_806950" data-name="Trazado 806950" d="M534.344,246.009a1.058,1.058,0,0,1-.012.291c-.025.223-.056.5-.093.825-.091.714-.208,1.75-.334,3.031a92.353,92.353,0,0,0,.188,20.073c.15,1.278.286,2.311.39,3.025.043.328.079.6.108.823a1.066,1.066,0,0,1,.017.29,1.038,1.038,0,0,1-.078-.28c-.045-.221-.1-.49-.165-.814-.14-.708-.309-1.739-.487-3.017a79.663,79.663,0,0,1-.189-20.122c.154-1.281.3-2.315.431-3.026l.149-.817a1.04,1.04,0,0,1,.072-.282" transform="translate(-221.544 -102.227)" fill="#263238"/>
            <path id="Trazado_806951" data-name="Trazado 806951" d="M510.822,424.17,517.4,434.2s-7.646,10.034-6.606,12l19.254-12.019-9.624-16.041Z" transform="translate(-212.214 -173.755)" fill="#455a64"/>
            <path id="Trazado_806952" data-name="Trazado 806952" d="M531.012,437.756a.939.939,0,0,1,1.106.588.9.9,0,0,1-.542,1.117.991.991,0,0,1-1.168-.629.929.929,0,0,1,.691-1.1" transform="translate(-220.398 -181.892)" fill="#e0e0e0"/>
            <path id="Trazado_806953" data-name="Trazado 806953" d="M529.987,444.464l-1.032-1.579L510.881,455s-.623.92-.148,1.484Z" transform="translate(-212.156 -184.037)" fill="#263238"/>
            <path id="Trazado_806954" data-name="Trazado 806954" d="M521.518,445.4c.062.1.559-.154,1.211-.13.652.006,1.146.278,1.209.185.075-.073-.417-.566-1.207-.58s-1.288.449-1.213.525" transform="translate(-216.709 -184.862)" fill="#fff"/>
            <path id="Trazado_806955" data-name="Trazado 806955" d="M518.962,449.233c.036.107.543.019,1.112.23.575.195.925.589,1.016.526.1-.04-.183-.649-.894-.9s-1.288.049-1.233.143" transform="translate(-215.648 -186.574)" fill="#fff"/>
            <path id="Trazado_806956" data-name="Trazado 806956" d="M518.348,454c.1-.033-.065-.6-.63-.981s-1.132-.319-1.123-.213.454.22.912.541.741.7.84.653" transform="translate(-214.666 -188.124)" fill="#fff"/>
            <path id="Trazado_806957" data-name="Trazado 806957" d="M519.366,440.7c.093.064.443-.34,1-.634s1.074-.38,1.072-.494-.61-.212-1.258.144-.9.936-.811.983" transform="translate(-215.81 -182.62)" fill="#fff"/>
            <path id="Trazado_806958" data-name="Trazado 806958" d="M516.408,324.2s-31.629,10.545-36.828,14.744c-4.187,3.382-3.634,13.082-1.2,16.953.99,1.576,22.834,38.224,22.834,38.224l10.846-5.929-14.61-35.785s35.682-6.928,42.284-9.9c8.174-3.68,5.556-12.167,5.556-12.167l-1.431-6.14Z" transform="translate(-198.001 -134.719)" fill="#263238"/>
            <path id="Trazado_806959" data-name="Trazado 806959" d="M524.62,407.15l6.574,10.026s-7.646,10.034-6.606,12.005l19.254-12.019-9.623-16.042Z" transform="translate(-217.948 -166.682)" fill="#455a64"/>
            <path id="Trazado_806960" data-name="Trazado 806960" d="M544.809,420.736a.939.939,0,0,1,1.106.588.9.9,0,0,1-.542,1.117.991.991,0,0,1-1.168-.629.93.93,0,0,1,.691-1.1" transform="translate(-226.132 -174.82)" fill="#e0e0e0"/>
            <path id="Trazado_806961" data-name="Trazado 806961" d="M543.785,427.445l-1.032-1.579-18.075,12.115s-.623.921-.148,1.484Z" transform="translate(-217.89 -176.965)" fill="#263238"/>
            <path id="Trazado_806962" data-name="Trazado 806962" d="M535.942,428.378c.062.1.559-.154,1.211-.13.652.006,1.146.278,1.209.185.075-.073-.417-.566-1.207-.58s-1.288.449-1.213.525" transform="translate(-222.703 -177.79)" fill="#fff"/>
            <path id="Trazado_806963" data-name="Trazado 806963" d="M533.347,432.308c.036.108.543.019,1.112.23.574.195.925.589,1.016.526.1-.04-.183-.649-.894-.9s-1.288.049-1.233.143" transform="translate(-221.626 -179.541)" fill="#fff"/>
            <path id="Trazado_806964" data-name="Trazado 806964" d="M532.734,437.149c.1-.033-.065-.6-.63-.981s-1.132-.319-1.123-.213.454.22.912.541.741.7.84.654" transform="translate(-220.644 -181.123)" fill="#fff"/>
            <path id="Trazado_806965" data-name="Trazado 806965" d="M534.167,424.743c.093.064.443-.34,1-.634s1.073-.38,1.071-.494-.61-.212-1.258.144-.9.936-.811.983" transform="translate(-221.961 -175.987)" fill="#fff"/>
            <path id="Trazado_806966" data-name="Trazado 806966" d="M484.425,322.19c-1.817,1.677-4.6,7.168-1.637,13.617,1.877,4.089,27.757,44.1,27.757,44.1l10.5-6.915s-9-18.862-12-27.695a193.421,193.421,0,0,0-7.686-17.752l16.31-5.991s-17.432-5.535-23.778-4.179a18.6,18.6,0,0,0-9.469,4.811" transform="translate(-200.079 -131.795)" fill="#263238"/>
            <path id="Trazado_806967" data-name="Trazado 806967" d="M484.386,322.143a5.057,5.057,0,0,1,.439-.45,14.236,14.236,0,0,1,1.431-1.157,20.087,20.087,0,0,1,6.355-2.969l1.141-.282c.4-.074.809-.117,1.23-.179a19.131,19.131,0,0,1,2.657-.014,46.28,46.28,0,0,1,5.949.766,129.87,129.87,0,0,1,14.08,3.542l.33.1-.324.119-16.3,6.007.074-.184q1.891,3.877,3.767,8.057c1.239,2.786,2.476,5.665,3.57,8.675,1.037,3.026,2.227,6.057,3.522,9.116s2.652,6.149,4.059,9.267c1.59,3.517,3.187,6.971,4.777,10.326l.055.115-.107.07-10.5,6.912-.12.079-.078-.121c-5.219-8.088-10.062-15.649-14.379-22.448s-8.118-12.832-11.176-17.91c-.758-1.275-1.486-2.476-2.091-3.668a15.207,15.207,0,0,1-1.146-3.566,14.053,14.053,0,0,1-.168-3.237,13.35,13.35,0,0,1,.494-2.666,11.08,11.08,0,0,1,1.613-3.341,5.339,5.339,0,0,1,.854-.96s-.071.085-.219.241a6.53,6.53,0,0,0-.6.748,11.308,11.308,0,0,0-1.56,3.34,13.368,13.368,0,0,0-.468,2.647,13.984,13.984,0,0,0,.188,3.2,15.129,15.129,0,0,0,1.153,3.523c.6,1.172,1.338,2.375,2.1,3.643,3.077,5.063,6.9,11.081,11.227,17.872s9.187,14.343,14.412,22.425l-.2-.041,10.5-6.918-.052.185c-1.593-3.357-3.191-6.811-4.781-10.33-1.409-3.12-2.772-6.212-4.06-9.275s-2.49-6.109-3.523-9.133c-1.088-3-2.32-5.875-3.554-8.659s-2.5-5.469-3.753-8.054l-.065-.133.139-.051,16.317-5.974,0,.22a131.309,131.309,0,0,0-14.044-3.58,46.494,46.494,0,0,0-5.923-.79,18.966,18.966,0,0,0-2.635,0c-.414.059-.821.1-1.213.169l-1.136.274a20.358,20.358,0,0,0-6.351,2.9,15.876,15.876,0,0,0-1.447,1.127l-.462.424" transform="translate(-200.04 -131.748)" fill="#455a64"/>
            <path id="Trazado_806968" data-name="Trazado 806968" d="M508.948,328.3a10.3,10.3,0,0,1,3.885,4.071c-.073.048-.8-.985-1.873-2.1s-2.064-1.9-2.012-1.969" transform="translate(-211.488 -136.42)" fill="#455a64"/>
            <path id="Trazado_806969" data-name="Trazado 806969" d="M524.519,407.044a1.1,1.1,0,0,1,.153-.109l.479-.314,1.877-1.21,7.035-4.487.091-.059.057.094,9.658,16.02.075.124-.124.077-7.873,4.92-11.383,7.1-.138.086-.065-.14a1.658,1.658,0,0,1-.049-1.06,6.008,6.008,0,0,1,.289-.949,16.3,16.3,0,0,1,.812-1.733c.592-1.1,1.231-2.136,1.866-3.116,1.277-1.957,2.541-3.715,3.727-5.28l0,.126-4.779-7.4-1.278-2-.324-.517a1.26,1.26,0,0,1-.1-.174,1.8,1.8,0,0,1,.132.18l.355.521,1.337,1.99,4.841,7.275.042.064-.047.063c-1.169,1.569-2.421,3.332-3.684,5.288-.627.98-1.258,2.008-1.84,3.1a16.1,16.1,0,0,0-.793,1.705,5.755,5.755,0,0,0-.274.9,1.424,1.424,0,0,0,.025.871l-.2-.054,11.374-7.111,7.877-4.912-.048.2-9.588-16.063.148.036-7.041,4.354-1.925,1.178-.507.305a1.62,1.62,0,0,1-.182.1" transform="translate(-217.847 -166.576)" fill="#263238"/>
            <g id="Grupo_1067043" data-name="Grupo 1067043" transform="translate(285.351 188.265)" opacity="0.3">
              <g id="Grupo_1067042" data-name="Grupo 1067042">
                <g id="Grupo_1067041" data-name="Grupo 1067041" clip-path="url(#clip-path-14)">
                  <path id="Trazado_806970" data-name="Trazado 806970" d="M488.23,323.336l24.024,1.119,37.321,2.493-.842-3.613h.811l-.078-1.217H489.945Z" transform="translate(-488.23 -322.119)"/>
                </g>
              </g>
            </g>
            <path id="Trazado_806971" data-name="Trazado 806971" d="M587.341,279.741a2.762,2.762,0,0,1,.245.531l.6,1.514c.518,1.354,1.217,3.185,2.032,5.318l.042.107-.1.061-4.062,2.506c-2.985,1.832-5.7,3.475-7.666,4.651l-2.341,1.379a6.16,6.16,0,0,1-.88.47,6.263,6.263,0,0,1,.818-.571l2.291-1.462c1.942-1.223,4.635-2.9,7.62-4.727l4.074-2.486-.058.169-1.929-5.355q-.323-.938-.529-1.542a2.766,2.766,0,0,1-.16-.562" transform="translate(-239.025 -116.244)" fill="#263238"/>
            <path id="Trazado_806972" data-name="Trazado 806972" d="M479.161,274.185l31.858,1.582a2,2,0,0,1,2.113,1.609l2.519,23.372,16.415.682a.958.958,0,1,1-.079,1.914l-16.129-.669-3.062-.127-33.238-1.379L476.994,276.5a2.093,2.093,0,0,1,2.167-2.319" transform="translate(-198.205 -113.934)" fill="#e0e0e0"/>
            <path id="Trazado_806973" data-name="Trazado 806973" d="M479.136,274.181a1.689,1.689,0,0,0-.5.026,2.109,2.109,0,0,0-1.687,1.757,5.9,5.9,0,0,0,.063,1.316c.095.944.2,2.032.326,3.254.5,4.9,1.219,11.959,2.1,20.639l.008.084.085,0,50.862,2.141,1.369.057a1.329,1.329,0,0,0,.73-.108,1.087,1.087,0,0,0,.074-1.9,1.326,1.326,0,0,0-.712-.165l-.674-.027-5.327-.22-10.22-.421.118.111c-.908-8.371-1.756-16.18-2.516-23.184a1.8,1.8,0,0,0-.539-1.238,2.375,2.375,0,0,0-1.2-.589,10.514,10.514,0,0,0-1.283-.1l-1.251-.06-4.8-.231-8.524-.408-12.136-.566-3.247-.141-.839-.031c-.189-.005-.285,0-.285,0s.1.012.284.025l.838.053,3.246.181,12.133.639,8.523.438,4.8.245,1.251.064a10.434,10.434,0,0,1,1.251.1,2.171,2.171,0,0,1,1.091.536,1.59,1.59,0,0,1,.473,1.109l2.482,23.188.012.106.106,0,10.22.427,5.327.222.674.028a1.07,1.07,0,0,1,.589.127.829.829,0,0,1-.056,1.449,1.07,1.07,0,0,1-.6.081l-1.369-.057-50.865-2.08.094.088c-.921-8.676-1.67-15.734-2.19-20.63-.132-1.222-.25-2.307-.351-3.251a5.959,5.959,0,0,1-.077-1.3,2.049,2.049,0,0,1,.411-.976,2.089,2.089,0,0,1,1.212-.763,4.137,4.137,0,0,1,.5-.055" transform="translate(-198.18 -113.93)" fill="#263238"/>
            <path id="Trazado_806974" data-name="Trazado 806974" d="M507.517,296.5a2,2,0,1,1-1.912-2.078,2,2,0,0,1,1.912,2.078" transform="translate(-209.235 -122.344)" fill="#fff"/>
            <path id="Trazado_806975" data-name="Trazado 806975" d="M538.489,303.519c-.046.006-.814-5.951-1.717-13.3s-1.6-13.319-1.553-13.324.814,5.95,1.718,13.3,1.6,13.318,1.553,13.323" transform="translate(-222.404 -115.06)" fill="#263238"/>
          </g>
        </g>
        <g id="Grupo_1067050" data-name="Grupo 1067050">
          <g id="Grupo_1067049" data-name="Grupo 1067049" clip-path="url(#clip-path)">
            <path id="Trazado_806976" data-name="Trazado 806976" d="M97.674,411.712,97.226,423.5s11.833,4.415,11.962,6.6l-22.89-.048-.056-18.4Z" transform="translate(-35.837 -171.06)" fill="#263238"/>
            <path id="Trazado_806977" data-name="Trazado 806977" d="M92.453,430.173a.935.935,0,0,0-.649,1.065.9.9,0,0,0,1.05.652.986.986,0,0,0,.681-1.132.931.931,0,0,0-1.168-.557" transform="translate(-38.14 -178.738)" fill="#e0e0e0"/>
            <path id="Trazado_806978" data-name="Trazado 806978" d="M86.338,441.816l.067-1.855,21.922.739s1.018.445.9,1.163Z" transform="translate(-35.877 -182.822)" fill="#455a64"/>
            <path id="Trazado_806979" data-name="Trazado 806979" d="M104.185,431.65c0,.112-.563.161-1.113.52s-.845.828-.947.783c-.1-.022.065-.69.739-1.112s1.346-.293,1.321-.191" transform="translate(-42.425 -179.325)" fill="#fff"/>
            <path id="Trazado_806980" data-name="Trazado 806980" d="M108.693,433.4c.025.108-.459.3-.84.769s-.491.972-.6.967c-.105.018-.181-.637.3-1.215s1.137-.627,1.139-.521" transform="translate(-44.534 -180.076)" fill="#fff"/>
            <path id="Trazado_806981" data-name="Trazado 806981" d="M112,436.983c-.1.023-.256-.535.032-1.147s.812-.854.859-.761c.063.092-.277.42-.506.926s-.274.971-.385.982" transform="translate(-46.486 -180.783)" fill="#fff"/>
            <path id="Trazado_806982" data-name="Trazado 806982" d="M103.643,426.821c-.047.1-.559-.054-1.191-.012s-1.125.24-1.183.144.416-.494,1.161-.532,1.268.313,1.213.4" transform="translate(-42.079 -177.193)" fill="#fff"/>
            <path id="Trazado_806983" data-name="Trazado 806983" d="M50.151,409.007l-1.239,14.219,2.262,11.53a1.463,1.463,0,0,1-2.51,1.274c-2.04-2.224-9.5-10.444-9.355-11.479.173-1.2.312-15.085.312-15.085Z" transform="translate(-16.334 -169.959)" fill="#263238"/>
            <path id="Trazado_806984" data-name="Trazado 806984" d="M49.937,446.857l-10.551-12.9-.039.6a2.2,2.2,0,0,0,.43,1.458c.836,1.121,3.213,4.165,8.859,10.376a1.462,1.462,0,0,0,1.3.461" transform="translate(-16.348 -180.327)" fill="#455a64"/>
            <g id="Grupo_1067048" data-name="Grupo 1067048" transform="translate(24.929 249.055)" opacity="0.6">
              <g id="Grupo_1067047" data-name="Grupo 1067047">
                <g id="Grupo_1067046" data-name="Grupo 1067046" clip-path="url(#clip-path-16)">
                  <path id="Trazado_806985" data-name="Trazado 806985" d="M43.98,426.3a.885.885,0,0,1,.168,1.169.85.85,0,0,1-1.157.176.933.933,0,0,1-.171-1.238.882.882,0,0,1,1.224-.05" transform="translate(-42.653 -426.13)" fill="#fff"/>
                </g>
              </g>
            </g>
            <path id="Trazado_806986" data-name="Trazado 806986" d="M52.574,443.956a4.445,4.445,0,0,1,1.32-1.027,4.44,4.44,0,0,1,1.66-.209c.015-.034-.159-.157-.489-.225a2.332,2.332,0,0,0-2.305.956c-.185.282-.22.491-.186.5" transform="translate(-21.842 -183.859)" fill="#fff"/>
            <path id="Trazado_806987" data-name="Trazado 806987" d="M54.1,447.758a11.944,11.944,0,0,1,1.3-.531,12.086,12.086,0,0,1,1.4-.091,1.624,1.624,0,0,0-1.473-.215c-.854.192-1.3.794-1.231.837" transform="translate(-22.479 -185.688)" fill="#fff"/>
            <path id="Trazado_806988" data-name="Trazado 806988" d="M49.616,439.588a14.618,14.618,0,0,1,1.952-.956,14.591,14.591,0,0,1,2.145-.357,4,4,0,0,0-4.1,1.313" transform="translate(-20.616 -182.056)" fill="#fff"/>
            <path id="Trazado_806989" data-name="Trazado 806989" d="M49.645,432.843c.032.088.84-.191,1.866-.162s1.822.327,1.859.241a3.628,3.628,0,0,0-3.725-.079" transform="translate(-20.629 -179.666)" fill="#fff"/>
            <path id="Trazado_806990" data-name="Trazado 806990" d="M50.086,425.636a7.161,7.161,0,0,1,1.939-.22,7.2,7.2,0,0,1,1.858.6c.025-.028-.119-.217-.435-.428A3.19,3.19,0,0,0,50.6,425.3c-.351.145-.53.3-.51.334" transform="translate(-20.812 -176.642)" fill="#fff"/>
            <path id="Trazado_806991" data-name="Trazado 806991" d="M52.11,422.236a1.233,1.233,0,0,0,.054-.538,3.747,3.747,0,0,0-.337-1.438,1.668,1.668,0,0,0-.661-.838.587.587,0,0,0-.669.088.958.958,0,0,0-.267.628,2.066,2.066,0,0,0,1.686,2.025,2.4,2.4,0,0,0,2.431-1.1.832.832,0,0,0,.084-.689.577.577,0,0,0-.583-.343,2.048,2.048,0,0,0-.97.428,4.179,4.179,0,0,0-1.043,1.044,1.278,1.278,0,0,0-.25.478A6.646,6.646,0,0,1,53,420.643a1.908,1.908,0,0,1,.854-.352.307.307,0,0,1,.319.185.57.57,0,0,1-.081.449,2.139,2.139,0,0,1-2.118.93,1.8,1.8,0,0,1-1.456-1.7.693.693,0,0,1,.168-.447.318.318,0,0,1,.369-.054,1.5,1.5,0,0,1,.573.7,5.545,5.545,0,0,1,.483,1.88" transform="translate(-20.872 -174.259)" fill="#fff"/>
            <path id="Trazado_806992" data-name="Trazado 806992" d="M88.887,239.461a50.685,50.685,0,0,1,1.106,14.906c-.244,3.168-10.933,90.8-10.933,90.8H64.627L68.684,262.8l-1.182.257s-7.879,35.128-8.521,40.815c-.578,5.112-7.222,42.252-7.222,42.252l-13.2.151,4.215-49.125,4.9-47.137L49.526,236.3Z" transform="translate(-16.024 -98.191)" fill="#263238"/>
            <path id="Trazado_806993" data-name="Trazado 806993" d="M90.756,264.519c-.006.008.025.041.094.1a1,1,0,0,0,.352.167,1.651,1.651,0,0,0,1.369-.324A2.711,2.711,0,0,0,93.5,262.6c.1-.785.119-1.628.177-2.52.1-1.783.17-3.4.207-4.566a12.678,12.678,0,0,0,0-1.9,12.728,12.728,0,0,0-.2,1.884c-.089,1.167-.192,2.78-.289,4.562-.058.888-.068,1.748-.153,2.5a2.565,2.565,0,0,1-.8,1.743,1.594,1.594,0,0,1-1.224.375,2.7,2.7,0,0,1-.468-.158" transform="translate(-37.712 -105.387)" fill="#455a64"/>
            <path id="Trazado_806994" data-name="Trazado 806994" d="M54.428,255.092a1.167,1.167,0,0,0,.4.146,6.852,6.852,0,0,0,1.153.194,8.3,8.3,0,0,0,6.945-2.79,6.933,6.933,0,0,0,.7-.937,1.186,1.186,0,0,0,.191-.385c-.041-.027-.362.491-1.036,1.188A8.86,8.86,0,0,1,56,255.232c-.968-.037-1.559-.188-1.57-.141" transform="translate(-22.617 -104.433)" fill="#455a64"/>
            <path id="Trazado_806995" data-name="Trazado 806995" d="M116.373,251.5a4.739,4.739,0,0,0,.219,1.449,10.841,10.841,0,0,0,3.866,5.817,4.75,4.75,0,0,0,1.251.763,13.142,13.142,0,0,1-5.336-8.029" transform="translate(-48.354 -104.51)" fill="#455a64"/>
            <path id="Trazado_806996" data-name="Trazado 806996" d="M102.144,82.319a2.667,2.667,0,0,0,.864-5.236,2.774,2.774,0,0,0-2.652-4.549,3.32,3.32,0,0,0-5.138-2.463,3.733,3.733,0,0,0-4.6.141,2.655,2.655,0,0,0-2.112,4.617" transform="translate(-36.415 -28.817)" fill="#263238"/>
            <path id="Trazado_806997" data-name="Trazado 806997" d="M85.943,75.342l.585-.029a11.313,11.313,0,0,1,11.781,9.832c.712,5.438,1.428,11.455,1.538,14.385.226,6.069-5.793,7.313-5.793,7.313l.875,7.261-14.742.275L77.572,88.019c-.856-6.271,2.08-11.995,8.371-12.677" transform="translate(-32.174 -31.29)" fill="#ae7461"/>
            <path id="Trazado_806998" data-name="Trazado 806998" d="M100.229,127.879a14.729,14.729,0,0,1-8.063-1.931s2.181,4.383,8.2,3.536Z" transform="translate(-38.299 -52.337)" fill="#6f4439"/>
            <path id="Trazado_806999" data-name="Trazado 806999" d="M109.739,101.531a.867.867,0,0,1-.792.915.829.829,0,0,1-.931-.736.867.867,0,0,1,.79-.916.831.831,0,0,1,.933.737" transform="translate(-44.884 -41.882)" fill="#263238"/>
            <path id="Trazado_807000" data-name="Trazado 807000" d="M108.742,96.743c-.1.118-.781-.335-1.714-.286s-1.592.549-1.7.44c-.053-.048.047-.258.334-.489a2.382,2.382,0,0,1,1.353-.492,2.283,2.283,0,0,1,1.371.369c.3.206.4.405.354.458" transform="translate(-43.763 -39.856)" fill="#263238"/>
            <path id="Trazado_807001" data-name="Trazado 807001" d="M95.644,102.155a.867.867,0,0,1-.792.915.83.83,0,0,1-.932-.736.868.868,0,0,1,.791-.916.83.83,0,0,1,.932.737" transform="translate(-39.026 -42.141)" fill="#263238"/>
            <path id="Trazado_807002" data-name="Trazado 807002" d="M93.82,97.819c-.1.118-.783-.334-1.714-.286s-1.591.549-1.7.44c-.052-.048.046-.257.334-.489a2.38,2.38,0,0,1,1.352-.492,2.288,2.288,0,0,1,1.372.369c.3.206.4.405.354.458" transform="translate(-37.563 -40.303)" fill="#263238"/>
            <path id="Trazado_807003" data-name="Trazado 807003" d="M101.309,104.442a6.181,6.181,0,0,1,1.5-.348c.237-.036.46-.095.492-.259a1.214,1.214,0,0,0-.194-.7l-.794-1.777A31.258,31.258,0,0,1,100.5,96.7a31.191,31.191,0,0,1,2.187,4.5c.267.625.522,1.22.765,1.79a1.378,1.378,0,0,1,.169.928.6.6,0,0,1-.373.367,1.611,1.611,0,0,1-.4.077,6.092,6.092,0,0,1-1.534.078" transform="translate(-41.757 -40.181)" fill="#263238"/>
            <path id="Trazado_807004" data-name="Trazado 807004" d="M93.88,91.563c-.111.243-.923.026-1.908.043-.985-.005-1.8.221-1.907-.02-.044-.115.12-.336.465-.543a2.962,2.962,0,0,1,1.461-.383,2.848,2.848,0,0,1,1.445.366c.337.2.493.421.444.537" transform="translate(-37.423 -37.673)" fill="#263238"/>
            <path id="Trazado_807005" data-name="Trazado 807005" d="M108.22,90.133c-.186.222-.966.04-1.891.075-.926.009-1.7.227-1.892.015-.084-.1.028-.321.361-.539a3.011,3.011,0,0,1,1.52-.423,2.963,2.963,0,0,1,1.53.351c.337.2.456.414.374.521" transform="translate(-43.386 -37.091)" fill="#263238"/>
            <path id="Trazado_807006" data-name="Trazado 807006" d="M96.531,81.839s-1.788-3.718-3.664-4.514c-2.27-.963-3.1,1.518-5.246,1.032s-4.31-1.41-6.388.331c-2.275,1.905-1.105,3.1-1.117,5.8C80.065,95.43,78.227,98.615,77.4,93.5c-.09-.56-1.674-.93-2.025-3.3-.454-3.07-.758-6.809-.178-9.032a8.645,8.645,0,0,1,3.293-4.7c2.867-2.366,6.956-2.617,9.747-2.476s8.306,3.072,8.289,7.84" transform="translate(-31.117 -30.737)" fill="#263238"/>
            <path id="Trazado_807007" data-name="Trazado 807007" d="M76.973,106a1.648,1.648,0,0,0-1.856-1.5c-1.126.164-2.352.869-2.162,3.2.338,4.14,4.425,2.946,4.423,2.827,0-.081-.247-2.8-.4-4.531" transform="translate(-30.308 -43.419)" fill="#ae7461"/>
            <path id="Trazado_807008" data-name="Trazado 807008" d="M77.367,110.007c-.019-.012-.068.057-.185.122a.72.72,0,0,1-.538.055,1.789,1.789,0,0,1-.957-1.533,2.4,2.4,0,0,1,.118-1.049.835.835,0,0,1,.5-.6.368.368,0,0,1,.442.163c.065.111.046.2.068.2s.083-.077.036-.245a.466.466,0,0,0-.184-.246.548.548,0,0,0-.407-.072,1.017,1.017,0,0,0-.7.7,2.461,2.461,0,0,0-.155,1.174,1.878,1.878,0,0,0,1.2,1.7.775.775,0,0,0,.651-.164c.12-.113.134-.207.119-.213" transform="translate(-31.325 -44.377)" fill="#6f4439"/>
            <path id="Trazado_807009" data-name="Trazado 807009" d="M76.348,84.277a3.943,3.943,0,0,0,1.8.724A1.354,1.354,0,0,0,79.6,83.974c.034-.291-.053-.622.126-.855.213-.277.635-.214.984-.2,1.212.068,2.554-1.333,2.8-2.521a1.084,1.084,0,0,0,1.461.228,3.893,3.893,0,0,0,.955-.938,1.707,1.707,0,0,1,1.388-.783,4.116,4.116,0,0,0,.912.154c.542-.075.776-.726.832-1.271s.088-1.178.535-1.5a2.172,2.172,0,0,1,1.48-.115c.5.049,1.147-.1,1.251-.6a.987.987,0,0,0-.223-.743,2.689,2.689,0,0,0-3.22-.859,3.644,3.644,0,0,0-6.722-.373,3.7,3.7,0,0,0-5.838,1.64A2.68,2.68,0,0,0,73.5,79.3a2.545,2.545,0,0,0-1.3,2.094A1.457,1.457,0,0,0,73.92,82.8a1.485,1.485,0,0,0,2.638,1.351" transform="translate(-30.001 -29.731)" fill="#263238"/>
            <path id="Trazado_807010" data-name="Trazado 807010" d="M89.53,77.779a.223.223,0,0,1,0,.076c0,.05,0,.126-.015.223a2.608,2.608,0,0,1-.262.814,2.97,2.97,0,0,1-.87,1.026,2.763,2.763,0,0,1-1.674.569l.065-.1a1.5,1.5,0,0,1-.026,1.149,4.3,4.3,0,0,1-.659,1.055,3.1,3.1,0,0,1-.441.5,1.444,1.444,0,0,1-.645.276,1.515,1.515,0,0,1-1.358-.411l.153-.052a3.112,3.112,0,0,1-1.212,2.217,2.272,2.272,0,0,1-1.34.514,4.121,4.121,0,0,1-1.357-.228L80,85.355a3.276,3.276,0,0,1-.918,1.328,1.742,1.742,0,0,1-1.425.465,2.287,2.287,0,0,1-1.847-1.7l.1.039a2.139,2.139,0,0,1-1.414.28,2.322,2.322,0,0,1-1.016-.393,2.019,2.019,0,0,1-.488-.484,1.016,1.016,0,0,1-.116-.209,2.5,2.5,0,0,0,.644.635,2.3,2.3,0,0,0,.989.352,2.046,2.046,0,0,0,1.334-.288l.075-.048.021.087a2.156,2.156,0,0,0,1.746,1.573,1.579,1.579,0,0,0,1.293-.437,3.119,3.119,0,0,0,.861-1.26l.029-.078.08.024a3.951,3.951,0,0,0,1.3.217,2.1,2.1,0,0,0,1.237-.478,2.943,2.943,0,0,0,1.147-2.089l.016-.2.137.146a1.346,1.346,0,0,0,1.2.364,1.3,1.3,0,0,0,.572-.24,3.021,3.021,0,0,0,.415-.468,4.2,4.2,0,0,0,.646-1.011,1.364,1.364,0,0,0,.039-1.04l-.039-.1.1,0a2.667,2.667,0,0,0,1.606-.52,2.957,2.957,0,0,0,.867-.973,3.2,3.2,0,0,0,.342-1.076" transform="translate(-30.281 -32.32)" fill="#455a64"/>
            <path id="Trazado_807011" data-name="Trazado 807011" d="M99.452,113.777c-.031-.154-1.04.11-1.984-.565s-1.115-1.778-1.258-1.749c-.067,0-.133.291-.026.748a2.6,2.6,0,0,0,.994,1.475,2.263,2.263,0,0,0,1.646.409c.433-.072.652-.251.628-.319" transform="translate(-39.945 -46.317)" fill="#263238"/>
            <path id="Trazado_807012" data-name="Trazado 807012" d="M157.518,212.088h2.566c.634-.961,1.277-1.143,2.612-1.932,3.4-2.011,7.931-3.635,8.9-2.861s-.223,1.624-.594,1.856-3.639,1.5-3.491,2.569,10.818,2.985,11.291,4c.636,1.369-.5,1.928-5.027,1.155l-1.287-.227a1.587,1.587,0,0,1-.074,1.933c-.817.851-1.486.464-1.486.464a1.555,1.555,0,0,1-.966,1.469c-1.04.464-1.483,0-1.483,0s.246,2.553-2.008,2.165c-2.032-.35-3.422-.35-5.424-.767a6.565,6.565,0,0,1-1.676-.627l-2.539-.969c-.415-1.826.5-7.739.69-8.232" transform="translate(-65.124 -86.058)" fill="#ae7461"/>
            <path id="Trazado_807013" data-name="Trazado 807013" d="M178.481,224.581a5.082,5.082,0,0,0-1.2-.977c-.411-.25-.939-.5-1.481-.876a2.341,2.341,0,0,1-.751-.756,1.147,1.147,0,0,1-.141-.588.911.911,0,0,1,.255-.586,1.388,1.388,0,0,1,1.108-.383,5.173,5.173,0,0,1,1.02.2,6.85,6.85,0,0,1,1.6.663,4.9,4.9,0,0,1,.939.7c.2.191.287.317.275.329a15.609,15.609,0,0,0-1.314-.843,7.543,7.543,0,0,0-1.575-.584,5.209,5.209,0,0,0-.964-.172,1.113,1.113,0,0,0-.881.3.7.7,0,0,0-.074.84,2.149,2.149,0,0,0,.656.671c.5.373,1.025.641,1.433.919a3.663,3.663,0,0,1,.881.774c.168.223.222.37.208.378" transform="translate(-72.681 -91.59)" fill="#6f4439"/>
            <path id="Trazado_807014" data-name="Trazado 807014" d="M170.7,216.21a2.392,2.392,0,0,1-.219.972,6.852,6.852,0,0,1-3.094,3.594,2.4,2.4,0,0,1-.929.361,9.135,9.135,0,0,0,4.242-4.927" transform="translate(-69.169 -89.844)" fill="#6f4439"/>
            <path id="Trazado_807015" data-name="Trazado 807015" d="M175.1,227.3a2.22,2.22,0,0,1-.821-.4,6.813,6.813,0,0,1-.8-.594,2.231,2.231,0,0,1-.725-1.031,1.556,1.556,0,0,1,.11-1.278,1.213,1.213,0,0,1,.89-.56c.625-.065.913.279.879.288a1.786,1.786,0,0,0-.845-.083,1.034,1.034,0,0,0-.692.493,1.341,1.341,0,0,0-.063,1.053,2.093,2.093,0,0,0,.628.919c.262.248.521.453.738.624a4.025,4.025,0,0,1,.7.573" transform="translate(-71.75 -92.845)" fill="#6f4439"/>
            <path id="Trazado_807016" data-name="Trazado 807016" d="M172.721,230.612c-.025.032-.285-.12-.686-.391a3.045,3.045,0,0,1-1.3-1.413,1.549,1.549,0,0,1,.009-1.112,1.073,1.073,0,0,1,.669-.625.888.888,0,0,1,.611.009c.134.058.185.124.175.138a1.292,1.292,0,0,0-.713.047.9.9,0,0,0-.492.531,1.36,1.36,0,0,0,.016.913,3.394,3.394,0,0,0,1.157,1.353c.365.31.579.519.553.551" transform="translate(-70.906 -94.337)" fill="#6f4439"/>
            <path id="Trazado_807017" data-name="Trazado 807017" d="M130.651,180.731l-1.112-.746L125.6,152.39c-.344-2.414-4.011-8.744-11.222-11.175l1.457,15.616,6.012,33.39a51.911,51.911,0,0,0,5.927,2.424,109.667,109.667,0,0,0,11.528,2.82l2.476-11.45Z" transform="translate(-47.53 -58.681)" fill="#e0e0e0"/>
            <path id="Trazado_807018" data-name="Trazado 807018" d="M58.083,137.6l10.638-4.413,1.26-4.847,13.12,6.2,2.2-3.505,1.7,3.891,2.875.94,6.72,11.818-.02,25.183,1.359,21.723-1.457,3.429-12.037,1.776a13.7,13.7,0,0,1-3.971,0L56.034,195.8l-.629-7.177,2.61-19.782Z" transform="translate(-23.023 -53.328)" fill="#e0e0e0"/>
            <path id="Trazado_807019" data-name="Trazado 807019" d="M101.4,169.592c-.21-5.536.662-19.659.662-19.659l1.825-.294a206.118,206.118,0,0,1,4.68,30.554c.515,6.808.515,14.7.515,14.7l-3.665,7.865-4.05-7.814s.288-18.62.033-25.347" transform="translate(-42.123 -62.181)" fill="#1969d5"/>
            <path id="Trazado_807020" data-name="Trazado 807020" d="M100.936,141.626l1.528-.6,1.462,1.942-.5,3.537-1.825.293-1.8-2.228Z" transform="translate(-41.47 -58.604)" fill="#1969d5"/>
            <path id="Trazado_807021" data-name="Trazado 807021" d="M51.238,144.18s-6.969,1.806-8.959,8.673c-.5,1.734-3.143,27.421-3.549,30.751s-1.615,8.246,2.447,11.643c2.513,2.1,23.546,4.288,23.546,4.288l4.269-10.146-16.627-6.477,2.547-22.16Z" transform="translate(-15.892 -59.913)" fill="#e0e0e0"/>
            <path id="Trazado_807022" data-name="Trazado 807022" d="M108.589,230.907,97.568,219.854a.686.686,0,0,1,.971-.968l11.02,11.053a.686.686,0,1,1-.971.968" transform="translate(-40.46 -90.872)" fill="#263238"/>
            <path id="Trazado_807023" data-name="Trazado 807023" d="M87.3,221.456c.072.053,4.852.23,6.328.548s4.98,1.2,6.1,2,3.378,3.678,2.809,4.1a1.294,1.294,0,0,1-1.629,0c-.309-.289-3.055-2.385-3.055-2.385s-1.648-.552-1.7-.129,4.092,2.673,3.43,3.679-2.444.742-2.444.742.509,1.613-.051,2.423a4.31,4.31,0,0,1-1.96,1.234,1.536,1.536,0,0,1-.905,1.925c-.987.4-2.473-.6-2.473-.6l-6.371-3.233-1.833-.108Z" transform="translate(-34.718 -92.024)" fill="#ae7461"/>
            <path id="Trazado_807024" data-name="Trazado 807024" d="M48.366,209.175a.313.313,0,0,1,.1.006l.289.04,1.122.179,4.225.719,14.852,2.61-.155.091,3.741-10.808.088.191L69.54,201l-13.653-5.319-.1-.04.016-.109c.915-6.116,1.691-11.3,2.241-14.978l.661-4.26.186-1.128.054-.289a.31.31,0,0,1,.026-.1.359.359,0,0,1,0,.1c-.008.079-.019.174-.031.292l-.144,1.134c-.138,1.011-.335,2.455-.583,4.271-.524,3.681-1.261,8.87-2.132,14.993l-.087-.149,13.663,5.295,3.087,1.2.136.053-.048.138-3.765,10.8-.039.112L68.9,213l-14.832-2.719-4.211-.8-1.114-.222-.286-.062a.348.348,0,0,1-.1-.029" transform="translate(-20.098 -72.63)" fill="#263238"/>
            <path id="Trazado_807025" data-name="Trazado 807025" d="M57,210.369a14.947,14.947,0,0,0-3.209,1.117,14.912,14.912,0,0,0-2.7,2.065A7.1,7.1,0,0,1,57,210.369" transform="translate(-21.23 -87.404)" fill="#263238"/>
            <path id="Trazado_807026" data-name="Trazado 807026" d="M63.243,156.343c-.051-.005,0-.55-.059-1.421a11.187,11.187,0,0,0-2.4-6.254c-.542-.685-.942-1.058-.906-1.1a4.242,4.242,0,0,1,1.071.958,9.832,9.832,0,0,1,2.447,6.385,4.233,4.233,0,0,1-.156,1.429" transform="translate(-24.882 -61.321)" fill="#263238"/>
            <path id="Trazado_807027" data-name="Trazado 807027" d="M126.687,164.09c.084,0,.152,8.766.152,19.576s-.068,19.579-.152,19.579-.152-8.764-.152-19.579.068-19.576.152-19.576" transform="translate(-52.58 -68.186)" fill="#263238"/>
            <path id="Trazado_807028" data-name="Trazado 807028" d="M96.467,138.368a4.94,4.94,0,0,1-.357.761l-1.078,2.06-.07.134-.094-.123-2.408-3.137.233-.032-2.012,5.184-.061.159-.151-.08-.572-.3c-3.254-1.721-6.191-3.293-8.309-4.445l-2.5-1.378a6.841,6.841,0,0,1-.9-.542,7.025,7.025,0,0,1,.953.437l2.547,1.292c2.144,1.1,5.1,2.646,8.351,4.366l.572.3-.212.079,2.044-5.171.089-.226.143.194,2.35,3.181-.164.012,1.156-2.016a5.017,5.017,0,0,1,.45-.71" transform="translate(-32.491 -56.774)" fill="#263238"/>
          </g>
        </g>
      </g>
    </g>
  </g>
</svg>
