<svg xmlns="http://www.w3.org/2000/svg" xmlns:xlink="http://www.w3.org/1999/xlink" width="141" height="143" viewBox="0 0 141 143">
  <defs>
    <clipPath id="clip-path">
      <path id="Trazado_801998" data-name="Trazado 801998" d="M70.5,0A70.5,70.5,0,1,1,0,70.5,70.5,70.5,0,0,1,70.5,0Z" transform="translate(915 1966.629)" fill="#12263f" stroke="#1969d5" stroke-width="4"/>
    </clipPath>
    <clipPath id="clip-path-2">
      <path id="path2553" d="M0-141H100.373V-40.627H0Z" transform="translate(0 141)" fill="#12263f"/>
    </clipPath>
  </defs>
  <g id="Grupo_1067332" data-name="Grupo 1067332" transform="translate(-1109.325 -1862.539)">
    <g id="Trazado_801997" data-name="Trazado 801997" transform="translate(1109.325 1864.539)" fill="#fff">
      <path d="M 70.5 139 C 61.25167846679688 139 52.28105926513672 137.1891632080078 43.83731842041016 133.6177673339844 C 39.77883911132812 131.9011535644531 35.86428070068359 129.7763977050781 32.20240020751953 127.3024597167969 C 28.57476043701172 124.851676940918 25.1634407043457 122.0370788574219 22.06318092346191 118.9368209838867 C 18.96291923522949 115.8365631103516 16.14831924438477 112.4252395629883 13.69754028320312 108.7975997924805 C 11.22360038757324 105.1357192993164 9.09883975982666 101.2211608886719 7.382239818572998 97.16268157958984 C 3.810839891433716 88.71894073486328 2 79.74832153320312 2 70.5 C 2 61.25167846679688 3.810839891433716 52.28105926513672 7.382239818572998 43.83731842041016 C 9.09883975982666 39.77883911132812 11.22360038757324 35.86428070068359 13.69754028320312 32.20240020751953 C 16.14831924438477 28.57476043701172 18.96291923522949 25.1634407043457 22.06318092346191 22.06318092346191 C 25.1634407043457 18.96291923522949 28.57476043701172 16.14831924438477 32.20240020751953 13.69754028320312 C 35.86428070068359 11.22360038757324 39.77883911132812 9.09883975982666 43.83731842041016 7.382239818572998 C 52.28105926513672 3.810839891433716 61.25167846679688 2 70.5 2 C 79.74832153320312 2 88.71894073486328 3.810839891433716 97.16268157958984 7.382239818572998 C 101.2211608886719 9.09883975982666 105.1357192993164 11.22360038757324 108.7975997924805 13.69754028320312 C 112.4252395629883 16.14831924438477 115.8365631103516 18.96291923522949 118.9368209838867 22.06318092346191 C 122.0370788574219 25.1634407043457 124.851676940918 28.57476043701172 127.3024597167969 32.20240020751953 C 129.7763977050781 35.86428070068359 131.9011535644531 39.77883911132812 133.6177673339844 43.83731842041016 C 137.1891632080078 52.28105926513672 139 61.25167846679688 139 70.5 C 139 79.74832153320312 137.1891632080078 88.71894073486328 133.6177673339844 97.16268157958984 C 131.9011535644531 101.2211608886719 129.7763977050781 105.1357192993164 127.3024597167969 108.7975997924805 C 124.851676940918 112.4252395629883 122.0370788574219 115.8365631103516 118.9368209838867 118.9368209838867 C 115.8365631103516 122.0370788574219 112.4252395629883 124.851676940918 108.7975997924805 127.3024597167969 C 105.1357192993164 129.7763977050781 101.2211608886719 131.9011535644531 97.16268157958984 133.6177673339844 C 88.71894073486328 137.1891632080078 79.74832153320312 139 70.5 139 Z" stroke="none"/>
      <path d="M 70.5 4 C 61.52080535888672 4 52.81230163574219 5.7576904296875 44.61643218994141 9.224258422851562 C 40.67688751220703 10.89054870605469 36.87689208984375 12.95315551757812 33.322021484375 15.35478210449219 C 29.79987335205078 17.73430633544922 26.48765563964844 20.46715545654297 23.47740936279297 23.47740936279297 C 20.46715545654297 26.48765563964844 17.73430633544922 29.79987335205078 15.35478210449219 33.322021484375 C 12.95315551757812 36.87689208984375 10.89054870605469 40.67688751220703 9.224258422851562 44.61643218994141 C 5.7576904296875 52.81230163574219 4 61.52080535888672 4 70.5 C 4 79.47919464111328 5.7576904296875 88.18769836425781 9.224258422851562 96.38356018066406 C 10.89054870605469 100.3231048583984 12.95315551757812 104.1231079101562 15.35478210449219 107.677978515625 C 17.73430633544922 111.2001342773438 20.46715545654297 114.5123443603516 23.47740936279297 117.5225830078125 C 26.48765563964844 120.5328521728516 29.79987335205078 123.2656936645508 33.322021484375 125.6452178955078 C 36.87689208984375 128.0468444824219 40.67688751220703 130.1094512939453 44.61643218994141 131.7757415771484 C 52.81230163574219 135.2423095703125 61.52080535888672 137 70.5 137 C 79.47919464111328 137 88.18769836425781 135.2423095703125 96.38356018066406 131.7757415771484 C 100.3231048583984 130.1094512939453 104.1231079101562 128.0468444824219 107.677978515625 125.6452178955078 C 111.2001342773438 123.2656936645508 114.5123443603516 120.5328521728516 117.5225830078125 117.5225830078125 C 120.5328521728516 114.5123443603516 123.2656936645508 111.2001342773438 125.6452178955078 107.677978515625 C 128.0468444824219 104.1231079101562 130.1094512939453 100.3231048583984 131.7757415771484 96.38356018066406 C 135.2423095703125 88.18769836425781 137 79.47919464111328 137 70.5 C 137 61.52080535888672 135.2423095703125 52.81230163574219 131.7757415771484 44.61643218994141 C 130.1094512939453 40.67688751220703 128.0468444824219 36.87689208984375 125.6452178955078 33.322021484375 C 123.2656936645508 29.79987335205078 120.5328521728516 26.48765563964844 117.5225830078125 23.47740936279297 C 114.5123443603516 20.46715545654297 111.2001342773438 17.73430633544922 107.677978515625 15.35478210449219 C 104.1231079101562 12.95315551757812 100.3231048583984 10.89054870605469 96.38356018066406 9.224258422851562 C 88.18769836425781 5.7576904296875 79.47919464111328 4 70.5 4 M 70.5 0 C 109.4360656738281 0 141 31.56393432617188 141 70.5 C 141 109.4360656738281 109.4360656738281 141 70.5 141 C 31.56393432617188 141 0 109.4360656738281 0 70.5 C 0 31.56393432617188 31.56393432617188 0 70.5 0 Z" stroke="none" fill="#59bee2"/>
    </g>
    <g id="Enmascarar_grupo_1064377" data-name="Enmascarar grupo 1064377" transform="translate(194.325 -104.09)" clip-path="url(#clip-path)">
      <g id="g2547" transform="translate(915 2107.629)">
        <g id="g2549" transform="translate(20.313 20.313)">
          <g id="g2551" transform="translate(0 -141)" clip-path="url(#clip-path-2)">
            <g id="g2557" transform="translate(6.072 1.47)">
              <path id="path2559" d="M-32.922-18.591-70.146-54.8l-37.223,36.208a4.06,4.06,0,0,1-5.741-.079,4.059,4.059,0,0,1,.079-5.741l40.054-38.962a4.06,4.06,0,0,1,5.662,0l40.054,38.962a4.059,4.059,0,0,1,.079,5.741A4.06,4.06,0,0,1-32.922-18.591Z" transform="translate(114.26 64.523)" fill="none" stroke="#12263f" stroke-linecap="round" stroke-linejoin="round" stroke-miterlimit="10" stroke-width="3"/>
            </g>
            <g id="g2561" transform="translate(13.444 91.417)">
              <path id="path2563" d="M-29.17,0H-99.818a1.418,1.418,0,0,0-1.418,1.418v4.65a1.418,1.418,0,0,0,1.418,1.418H-29.17a1.418,1.418,0,0,0,1.418-1.418V1.418A1.418,1.418,0,0,0-29.17,0Z" transform="translate(101.236)" fill="none" stroke="#12263f" stroke-linecap="round" stroke-linejoin="round" stroke-miterlimit="10" stroke-width="3"/>
            </g>
            <g id="g2565" transform="translate(67.81 1.47)">
              <path id="path2567" d="M-6.942-2.456v-4.65A1.418,1.418,0,0,0-8.359-8.524H-22.674a1.418,1.418,0,0,0-1.418,1.418v4.65a1.417,1.417,0,0,0,1.418,1.418H-8.359A1.418,1.418,0,0,0-6.942-2.456Z" transform="translate(24.091 8.524)" fill="none" stroke="#12263f" stroke-linecap="round" stroke-linejoin="round" stroke-miterlimit="10" stroke-width="3"/>
            </g>
            <g id="g2569" transform="translate(84.08 44.163)">
              <path id="path2571" d="M0-19.127V-66.381" transform="translate(0 66.381)" fill="none" stroke="#12263f" stroke-linecap="round" stroke-linejoin="round" stroke-miterlimit="10" stroke-width="3"/>
            </g>
            <g id="g2573" transform="translate(16.293 44.163)">
              <path id="path2575" d="M0,0V47.255" fill="none" stroke="#12263f" stroke-linecap="round" stroke-linejoin="round" stroke-miterlimit="10" stroke-width="3"/>
            </g>
            <g id="g2577" transform="translate(53.502 48.552)">
              <path id="path2579" d="M-8.759,0H-29.3a1.1,1.1,0,0,0-1.1,1.1v33.3a1.1,1.1,0,0,0,1.1,1.1H-8.759a1.1,1.1,0,0,0,1.1-1.1V1.1A1.1,1.1,0,0,0-8.759,0Z" transform="translate(30.398 0)" fill="none" stroke="#12263f" stroke-linecap="round" stroke-linejoin="round" stroke-miterlimit="10" stroke-width="3"/>
            </g>
            <g id="g2581" transform="translate(24.135 55.69)">
              <path id="path2583" d="M0,0H22.735" fill="none" stroke="#12263f" stroke-linecap="round" stroke-linejoin="round" stroke-miterlimit="10" stroke-width="3"/>
            </g>
            <g id="g2585" transform="translate(53.502 55.69)">
              <path id="path2587" d="M0,0H22.735" fill="none" stroke="#12263f" stroke-linecap="round" stroke-linejoin="round" stroke-miterlimit="10" stroke-width="3"/>
            </g>
            <g id="g2589" transform="translate(36.004 68.547)">
              <path id="path2591" d="M-1.191,0A2.943,2.943,0,0,0-4.135,2.944,2.943,2.943,0,0,0-1.191,5.887,2.943,2.943,0,0,0,1.752,2.944,2.944,2.944,0,0,0-1.191,0Z" transform="translate(4.135)" fill="none" stroke="#12263f" stroke-linecap="round" stroke-linejoin="round" stroke-miterlimit="10" stroke-width="3"/>
            </g>
            <g id="g2593" transform="translate(64.87 55.69)">
              <path id="path2595" d="M0,0V28.352" fill="none" stroke="#12263f" stroke-linecap="round" stroke-linejoin="round" stroke-miterlimit="10" stroke-width="3"/>
            </g>
            <g id="g2597" transform="translate(53.502 69.866)">
              <path id="path2599" d="M0,0H22.735" fill="none" stroke="#12263f" stroke-linecap="round" stroke-linejoin="round" stroke-miterlimit="10" stroke-width="3"/>
            </g>
            <g id="g2601" transform="translate(38.934 48.552)">
              <path id="path2603" d="M-3.213-17.35V-59.119a1.1,1.1,0,0,0-1.1-1.1h-6.841" transform="translate(11.149 60.216)" fill="none" stroke="#12263f" stroke-linecap="round" stroke-linejoin="round" stroke-miterlimit="10" stroke-width="3"/>
            </g>
            <g id="g2605" transform="translate(24.135 48.552)">
              <path id="path2607" d="M-3.213,0h-6.841a1.1,1.1,0,0,0-1.1,1.1V42.865" transform="translate(11.15)" fill="none" stroke="#12263f" stroke-linecap="round" stroke-linejoin="round" stroke-miterlimit="10" stroke-width="3"/>
            </g>
            <g id="g2609" transform="translate(70.958 8.955)">
              <path id="path2611" d="M0,0V11.116" fill="none" stroke="#12263f" stroke-linecap="round" stroke-linejoin="round" stroke-miterlimit="10" stroke-width="3"/>
            </g>
            <g id="g2613" transform="translate(81.811 8.956)">
              <path id="path2615" d="M0-2V-6.953" transform="translate(0 6.953)" fill="none" stroke="#12263f" stroke-linecap="round" stroke-linejoin="round" stroke-miterlimit="10" stroke-width="3"/>
            </g>
            <g id="g2617" transform="translate(81.811 20.766)">
              <path id="path2619" d="M0-3.992v-9.862" transform="translate(0 13.854)" fill="none" stroke="#12263f" stroke-linecap="round" stroke-linejoin="round" stroke-miterlimit="10" stroke-width="3"/>
            </g>
          </g>
        </g>
      </g>
    </g>
  </g>
</svg>
