<svg xmlns="http://www.w3.org/2000/svg" xmlns:xlink="http://www.w3.org/1999/xlink" width="76.999" height="76.999" viewBox="0 0 76.999 76.999">
  <defs>
    <clipPath id="clip-path">
      <circle id="Elipse_8286" data-name="Elipse 8286" cx="38.5" cy="38.5" r="38.5" transform="translate(331.001 1539)" fill="#59bee2"/>
    </clipPath>
  </defs>
  <g id="Grupo_1067327" data-name="Grupo 1067327" transform="translate(-641.001 -3242.532)">
    <g id="Grupo_1067197" data-name="Grupo 1067197" transform="translate(310 1703.532)">
      <g id="Enmascarar_grupo_1064339" data-name="Enmascarar grupo 1064339" clip-path="url(#clip-path)">
        <g id="ejecucion" transform="translate(341.472 1552.259)">
          <g id="Grupo_1067079" data-name="Grupo 1067079" transform="translate(0.029 0)">
            <g id="Grupo_1067078" data-name="Grupo 1067078">
              <path id="Trazado_807046" data-name="Trazado 807046" d="M22.6,9.588,21.035,8.9c-.071-.262-.147-.51-.233-.749l.867-1.493a.9.9,0,0,0,.007-.884,11.865,11.865,0,0,0-1.52-2.125.887.887,0,0,0-.866-.275l-1.641.375q-.287-.229-.6-.442l-.159-1.737a.894.894,0,0,0-.515-.729A11.347,11.347,0,0,0,13.928.02a.889.889,0,0,0-.861.291L11.922,1.641h-.688L10.089.311A.888.888,0,0,0,9.229.02,11.359,11.359,0,0,0,6.78.842a.894.894,0,0,0-.515.73L6.107,3.308c-.207.141-.408.289-.6.442L3.867,3.374A.887.887,0,0,0,3,3.649,11.846,11.846,0,0,0,1.48,5.775a.9.9,0,0,0,.007.884l.867,1.493c-.086.239-.162.487-.233.749l-1.56.688a.894.894,0,0,0-.532.818v2.428a.893.893,0,0,0,.532.818l1.56.688c.071.262.147.51.233.749l-.867,1.493a.9.9,0,0,0-.007.884A11.865,11.865,0,0,0,3,19.59a.89.89,0,0,0,.866.275l1.641-.375q.287.229.6.442l.159,1.737a.894.894,0,0,0,.515.729,11.347,11.347,0,0,0,2.448.822.891.891,0,0,0,.861-.291L11.234,21.6h.688l1.145,1.329a.892.892,0,0,0,.677.311.873.873,0,0,0,.183-.019,11.359,11.359,0,0,0,2.448-.822.894.894,0,0,0,.515-.73l.159-1.736c.207-.141.408-.289.6-.442l1.641.375a.889.889,0,0,0,.866-.275,11.846,11.846,0,0,0,1.52-2.125.9.9,0,0,0-.007-.884L20.8,15.088c.086-.239.162-.487.233-.749l1.56-.688a.894.894,0,0,0,.532-.818V10.406A.893.893,0,0,0,22.6,9.588ZM21.34,12.252l-1.427.629a.9.9,0,0,0-.51.618,8.215,8.215,0,0,1-.414,1.326.9.9,0,0,0,.052.791l.818,1.41a10.135,10.135,0,0,1-.7.977l-1.545-.353a.886.886,0,0,0-.792.2,8.156,8.156,0,0,1-1.1.811.893.893,0,0,0-.419.678l-.15,1.64a9.886,9.886,0,0,1-1.093.371l-1.057-1.227a.894.894,0,0,0-.677-.311H10.825a.9.9,0,0,0-.677.311L9.091,21.349A9.9,9.9,0,0,1,8,20.978l-.15-1.642a.9.9,0,0,0-.419-.677,8.056,8.056,0,0,1-1.1-.81.887.887,0,0,0-.792-.2L4,18a10.153,10.153,0,0,1-.7-.977l.818-1.41a.9.9,0,0,0,.052-.791A8.215,8.215,0,0,1,3.753,13.5a.9.9,0,0,0-.51-.618l-1.427-.629V10.988l1.427-.629a.9.9,0,0,0,.51-.618,8.215,8.215,0,0,1,.414-1.326.9.9,0,0,0-.052-.791L3.3,6.214A10.133,10.133,0,0,1,4,5.238l1.545.353a.889.889,0,0,0,.792-.2,8.156,8.156,0,0,1,1.1-.811A.893.893,0,0,0,7.848,3.9L8,2.261A9.886,9.886,0,0,1,9.091,1.89l1.057,1.227a.894.894,0,0,0,.677.311h1.506a.9.9,0,0,0,.677-.311L14.066,1.89a9.9,9.9,0,0,1,1.094.371L15.31,3.9a.9.9,0,0,0,.419.677,8.056,8.056,0,0,1,1.1.81.889.889,0,0,0,.792.2l1.545-.353a10.134,10.134,0,0,1,.7.977l-.818,1.41a.9.9,0,0,0-.052.791A8.215,8.215,0,0,1,19.4,9.741a.9.9,0,0,0,.51.618l1.427.629v1.264Z" transform="translate(-0.029 0)" fill="#12263f"/>
            </g>
          </g>
          <g id="Grupo_1067081" data-name="Grupo 1067081" transform="translate(5.322 5.363)">
            <g id="Grupo_1067080" data-name="Grupo 1067080">
              <path id="Trazado_807047" data-name="Trazado 807047" d="M18.152,12.024a6.256,6.256,0,1,0,6.256,6.256A6.256,6.256,0,0,0,18.152,12.024Zm0,10.725a4.469,4.469,0,1,1,4.469-4.469A4.469,4.469,0,0,1,18.152,22.749Z" transform="translate(-11.895 -12.024)" fill="#12263f"/>
            </g>
          </g>
          <g id="Grupo_1067083" data-name="Grupo 1067083" transform="translate(33.98 0)">
            <g id="Grupo_1067082" data-name="Grupo 1067082">
              <path id="Trazado_807048" data-name="Trazado 807048" d="M95.16,8l-1.234-.545c-.048-.173-.1-.339-.156-.5l.688-1.185a.9.9,0,0,0,.007-.885,10.1,10.1,0,0,0-1.287-1.8.888.888,0,0,0-.865-.275l-1.3.3q-.191-.149-.393-.29L90.5,1.445a.892.892,0,0,0-.515-.73,9.676,9.676,0,0,0-2.073-.7.888.888,0,0,0-.861.291l-.91,1.056H85.7L84.792.311A.887.887,0,0,0,83.931.02a9.672,9.672,0,0,0-2.073.7.892.892,0,0,0-.515.73l-.126,1.377q-.2.14-.393.29l-1.3-.3a.89.89,0,0,0-.865.275,10.034,10.034,0,0,0-1.286,1.8.9.9,0,0,0,.007.884l.687,1.184q-.084.242-.156.5L76.679,8a.893.893,0,0,0-.533.818v2.023a.893.893,0,0,0,.533.818l1.234.545c.048.173.1.339.156.5l-.688,1.185a.9.9,0,0,0-.007.885,10.1,10.1,0,0,0,1.287,1.8.889.889,0,0,0,.866.275l1.3-.3c.127.1.259.2.394.291l.126,1.377a.892.892,0,0,0,.515.73,9.677,9.677,0,0,0,2.073.7.89.89,0,0,0,.861-.291L85.7,18.3h.436l.91,1.056a.892.892,0,0,0,.677.311.873.873,0,0,0,.183-.019,9.67,9.67,0,0,0,2.073-.7.892.892,0,0,0,.515-.73l.126-1.377q.2-.14.393-.29l1.3.3a.889.889,0,0,0,.865-.275,10.1,10.1,0,0,0,1.287-1.8.9.9,0,0,0-.007-.885l-.688-1.185c.056-.161.108-.327.156-.5l1.234-.545a.893.893,0,0,0,.533-.818V8.82A.893.893,0,0,0,95.16,8Zm-1.254,2.259-1.1.485a.891.891,0,0,0-.511.62,6.674,6.674,0,0,1-.337,1.078.9.9,0,0,0,.052.792l.636,1.1q-.216.335-.466.653l-1.2-.274a.884.884,0,0,0-.79.2,6.616,6.616,0,0,1-.892.659.9.9,0,0,0-.421.679l-.116,1.276c-.24.094-.481.176-.721.244l-.819-.951a.894.894,0,0,0-.677-.311H85.292a.9.9,0,0,0-.677.311l-.819.951c-.24-.068-.481-.15-.721-.244l-.116-1.276a.9.9,0,0,0-.421-.679,6.558,6.558,0,0,1-.891-.659.9.9,0,0,0-.792-.2l-1.2.274c-.167-.21-.322-.429-.466-.652l.636-1.1a.9.9,0,0,0,.052-.792,6.677,6.677,0,0,1-.337-1.078.891.891,0,0,0-.511-.62l-1.1-.485V9.4l1.1-.485a.891.891,0,0,0,.511-.62,6.724,6.724,0,0,1,.337-1.08.9.9,0,0,0-.052-.791l-.635-1.1c.143-.223.3-.441.465-.652l1.2.274a.889.889,0,0,0,.79-.2,6.616,6.616,0,0,1,.892-.659.9.9,0,0,0,.421-.679l.116-1.276c.24-.094.481-.176.721-.244l.819.951a.894.894,0,0,0,.677.311h1.255a.894.894,0,0,0,.677-.311l.819-.951c.24.068.481.15.721.244l.116,1.276a.894.894,0,0,0,.421.679,6.616,6.616,0,0,1,.892.659.887.887,0,0,0,.79.2l1.2-.274q.25.317.466.653l-.636,1.1a.9.9,0,0,0-.052.792A6.677,6.677,0,0,1,92.295,8.3a.891.891,0,0,0,.511.62l1.1.485Z" transform="translate(-76.146 0)" fill="#12263f"/>
            </g>
          </g>
          <g id="Grupo_1067085" data-name="Grupo 1067085" transform="translate(39.285 5.363)">
            <g id="Grupo_1067084" data-name="Grupo 1067084">
              <path id="Trazado_807049" data-name="Trazado 807049" d="M92.508,12.024a4.469,4.469,0,1,0,4.469,4.469A4.469,4.469,0,0,0,92.508,12.024Zm0,7.15a2.681,2.681,0,1,1,2.681-2.681A2.681,2.681,0,0,1,92.508,19.174Z" transform="translate(-88.039 -12.024)" fill="#12263f"/>
            </g>
          </g>
          <g id="Grupo_1067087" data-name="Grupo 1067087" transform="translate(26.874 26.916)">
            <g id="Grupo_1067086" data-name="Grupo 1067086">
              <path id="Trazado_807050" data-name="Trazado 807050" d="M86.114,71.249l-1.3-.272c-.053-.224-.114-.449-.181-.671l.993-.89a.893.893,0,0,0,.226-1.016,13.43,13.43,0,0,0-1.642-2.812.9.9,0,0,0-.993-.312l-1.249.41c-.159-.168-.324-.333-.492-.492l.41-1.248a.894.894,0,0,0-.311-.992,13.375,13.375,0,0,0-2.813-1.644.9.9,0,0,0-1.016.226l-.89.994c-.223-.068-.447-.128-.671-.182l-.272-1.3a.894.894,0,0,0-.875-.71H72a.894.894,0,0,0-.875.71l-.272,1.3c-.224.053-.449.114-.671.181l-.89-.993a.9.9,0,0,0-1.016-.226,13.43,13.43,0,0,0-2.812,1.642.894.894,0,0,0-.312.993l.41,1.249c-.168.159-.333.324-.492.492l-1.248-.41a.9.9,0,0,0-.992.311A13.376,13.376,0,0,0,61.181,68.4a.893.893,0,0,0,.226,1.016l.994.89c-.068.223-.128.447-.182.671l-1.3.272a.894.894,0,0,0-.71.875v3.048a.894.894,0,0,0,.71.875l1.3.272c.053.224.114.449.181.671l-.993.89a.893.893,0,0,0-.226,1.016,13.43,13.43,0,0,0,1.642,2.812.9.9,0,0,0,.993.312l1.249-.41c.159.168.324.333.492.492l-.41,1.248a.894.894,0,0,0,.311.992,13.376,13.376,0,0,0,2.813,1.644.891.891,0,0,0,1.016-.226l.89-.994c.223.068.447.128.671.182l.272,1.3a.894.894,0,0,0,.875.71h3.048a.894.894,0,0,0,.875-.71l.272-1.3c.224-.053.449-.114.671-.181l.89.993a.891.891,0,0,0,1.016.226,13.431,13.431,0,0,0,2.812-1.642.894.894,0,0,0,.312-.993l-.41-1.249c.168-.159.333-.324.492-.492l1.248.41a.9.9,0,0,0,.992-.311A13.375,13.375,0,0,0,85.858,78.9a.893.893,0,0,0-.226-1.016l-.994-.89c.068-.223.128-.447.182-.671l1.3-.272a.894.894,0,0,0,.71-.875V72.124A.894.894,0,0,0,86.114,71.249Zm-1.078,3.2-1.156.244a.894.894,0,0,0-.7.716,9.722,9.722,0,0,1-.42,1.558.893.893,0,0,0,.245.968l.937.84a11.744,11.744,0,0,1-.79,1.346l-1.181-.388a.9.9,0,0,0-.962.271,9.76,9.76,0,0,1-1.143,1.144.9.9,0,0,0-.271.961l.388,1.18a11.67,11.67,0,0,1-1.346.79l-.84-.937a.9.9,0,0,0-.969-.245,9.625,9.625,0,0,1-1.556.42.894.894,0,0,0-.716.7l-.244,1.157h-1.6l-.244-1.157a.894.894,0,0,0-.716-.7,9.722,9.722,0,0,1-1.558-.42h0a.9.9,0,0,0-.968.245l-.84.937a11.744,11.744,0,0,1-1.346-.79l.388-1.181a.9.9,0,0,0-.271-.962A9.761,9.761,0,0,1,66.023,80a.9.9,0,0,0-.961-.271l-1.18.388a11.67,11.67,0,0,1-.79-1.346l.937-.84a.894.894,0,0,0,.245-.969,9.625,9.625,0,0,1-.42-1.556.894.894,0,0,0-.7-.716L62,74.447v-1.6l1.157-.244a.894.894,0,0,0,.7-.716,9.721,9.721,0,0,1,.42-1.558.893.893,0,0,0-.245-.968l-.937-.84a11.744,11.744,0,0,1,.79-1.346l1.181.388a.9.9,0,0,0,.962-.271,9.762,9.762,0,0,1,1.143-1.144.9.9,0,0,0,.271-.961l-.388-1.18a11.667,11.667,0,0,1,1.346-.79l.84.937a.9.9,0,0,0,.969.245,9.625,9.625,0,0,1,1.556-.42.894.894,0,0,0,.716-.7l.244-1.157h1.6l.244,1.157a.894.894,0,0,0,.716.7,9.718,9.718,0,0,1,1.558.42.9.9,0,0,0,.968-.245l.84-.937a11.741,11.741,0,0,1,1.346.79L79.6,65.191a.9.9,0,0,0,.271.962A9.763,9.763,0,0,1,81.016,67.3a.9.9,0,0,0,.961.271l1.18-.388a11.669,11.669,0,0,1,.79,1.346l-.937.84a.894.894,0,0,0-.245.969,9.626,9.626,0,0,1,.42,1.556.894.894,0,0,0,.7.716l1.157.244Z" transform="translate(-60.214 -60.343)" fill="#12263f"/>
            </g>
          </g>
          <g id="Grupo_1067089" data-name="Grupo 1067089" transform="translate(32.135 32.177)">
            <g id="Grupo_1067088" data-name="Grupo 1067088">
              <path id="Trazado_807051" data-name="Trazado 807051" d="M80.053,72.138A8.044,8.044,0,1,0,88.1,80.182,8.044,8.044,0,0,0,80.053,72.138Zm0,14.3a6.256,6.256,0,1,1,6.256-6.256A6.264,6.264,0,0,1,80.053,86.438Z" transform="translate(-72.009 -72.138)" fill="#12263f"/>
            </g>
          </g>
          <g id="Grupo_1067091" data-name="Grupo 1067091" transform="translate(24.985 9.832)">
            <g id="Grupo_1067090" data-name="Grupo 1067090">
              <rect id="Rectángulo_375210" data-name="Rectángulo 375210" width="7.15" height="1.788" fill="#12263f"/>
            </g>
          </g>
          <g id="Grupo_1067093" data-name="Grupo 1067093" transform="translate(4.428 24.132)">
            <g id="Grupo_1067092" data-name="Grupo 1067092">
              <path id="Trazado_807052" data-name="Trazado 807052" d="M30.376,68.946a.893.893,0,0,0-.47-.47h0L23.65,65.795a.893.893,0,0,0-1.245.821V68.4H11.679V54.1H9.891V69.3a.893.893,0,0,0,.893.894H22.4v1.788a.893.893,0,0,0,.893.894h0a.881.881,0,0,0,.352-.072l6.256-2.681A.893.893,0,0,0,30.376,68.946Zm-6.185,1.677V67.972L27.285,69.3Z" transform="translate(-9.891 -54.103)" fill="#12263f"/>
            </g>
          </g>
          <g id="cerrar" transform="translate(36.025 36.067)">
            <path id="Trazado_807053" data-name="Trazado 807053" d="M8.1,7.084,1.584.573a.727.727,0,0,0-1.028,0L.213.916a.727.727,0,0,0,0,1.028L6.724,8.454a.727.727,0,0,0,1.028,0l.343-.343a.726.726,0,0,0,0-1.028Zm0,0" transform="translate(0 -0.36)" fill="#12263f"/>
            <path id="Trazado_807054" data-name="Trazado 807054" d="M6.724.575.213,7.086a.727.727,0,0,0,0,1.028l.343.343a.727.727,0,0,0,1.028,0l6.511-6.51a.726.726,0,0,0,0-1.028L7.752.575a.727.727,0,0,0-1.028,0Zm0,0" transform="translate(0 -0.362)" fill="#12263f"/>
          </g>
        </g>
      </g>
    </g>
  </g>
</svg>
