<svg id="Grupo_1067097" data-name="Grupo 1067097" xmlns="http://www.w3.org/2000/svg" xmlns:xlink="http://www.w3.org/1999/xlink" width="505" height="428.989" viewBox="0 0 505 428.989">
  <defs>
    <clipPath id="clip-path">
      <rect id="Rectángulo_375225" data-name="Rectángulo 375225" width="505" height="428.989" fill="none"/>
    </clipPath>
    <clipPath id="clip-path-4">
      <rect id="Rectángulo_375212" data-name="Rectángulo 375212" width="26.103" height="264.131" fill="none"/>
    </clipPath>
    <clipPath id="clip-path-6">
      <rect id="Rectángulo_375215" data-name="Rectángulo 375215" width="71.225" height="36.595" fill="none"/>
    </clipPath>
    <clipPath id="clip-path-7">
      <rect id="Rectángulo_375216" data-name="Rectángulo 375216" width="91.726" height="47.129" fill="none"/>
    </clipPath>
    <clipPath id="clip-path-8">
      <rect id="Rectángulo_375217" data-name="Rectángulo 375217" width="74.525" height="26.984" fill="none"/>
    </clipPath>
    <clipPath id="clip-path-10">
      <rect id="Rectángulo_375219" data-name="Rectángulo 375219" width="2.931" height="2.946" fill="none"/>
    </clipPath>
    <clipPath id="clip-path-12">
      <rect id="Rectángulo_375221" data-name="Rectángulo 375221" width="44.055" height="3.941" fill="none"/>
    </clipPath>
    <clipPath id="clip-path-13">
      <rect id="Rectángulo_375222" data-name="Rectángulo 375222" width="42.83" height="14.231" fill="none"/>
    </clipPath>
    <clipPath id="clip-path-14">
      <rect id="Rectángulo_375223" data-name="Rectángulo 375223" width="19.477" height="42.166" fill="none"/>
    </clipPath>
  </defs>
  <g id="Grupo_1067131" data-name="Grupo 1067131" clip-path="url(#clip-path)">
    <g id="Grupo_1067098" data-name="Grupo 1067098">
      <g id="Grupo_1067097-2" data-name="Grupo 1067097" clip-path="url(#clip-path)">
        <path id="Trazado_807059" data-name="Trazado 807059" d="M493.891,416.59s.553-.02,1.687-.03l5.18-.028v.116l-246.934.2-179.487-.076-54.392-.083-14.788-.049-3.845-.025C.444,416.608,0,416.59,0,416.59s.444-.018,1.311-.027l3.845-.026,14.788-.049,54.392-.082,179.487-.076,246.934.2v.116l-5.18-.028c-1.134-.01-1.687-.03-1.687-.03" transform="translate(0)" fill="#263238"/>
      </g>
    </g>
    <g id="Grupo_1067103" data-name="Grupo 1067103">
      <g id="Grupo_1067102" data-name="Grupo 1067102" clip-path="url(#clip-path)">
        <path id="Trazado_807060" data-name="Trazado 807060" d="M124.831,30.347H74.507a4.283,4.283,0,0,1-4.259-4.5l1.021-21.49A4.281,4.281,0,0,1,75.529.26h50.322a4.284,4.284,0,0,1,4.26,4.5l-1.022,21.49a4.278,4.278,0,0,1-4.259,4.093" transform="translate(-0.555)" fill="#fafafa"/>
        <path id="Trazado_807061" data-name="Trazado 807061" d="M124.829,30.347a5.224,5.224,0,0,0,1.66-.4,4.239,4.239,0,0,0,1.609-1.27,4.289,4.289,0,0,0,.9-2.623c.188-4.36.457-10.626.79-18.358-.016-1.9.62-4.118-.788-5.724A4.006,4.006,0,0,0,126.39.51C125.357.431,124.2.492,123.084.476L108.636.5,75.531.521A4.023,4.023,0,0,0,72.1,2.467a4.143,4.143,0,0,0-.58,1.948q-.052,1.087-.1,2.167-.208,4.32-.409,8.505t-.4,8.208q-.049,1.005-.1,2a5.044,5.044,0,0,0,.128,1.884,4.058,4.058,0,0,0,2.361,2.633,4.375,4.375,0,0,0,1.768.3l1.871,0,3.668.006,7.014.013,12.589.032,18.229.083,4.956.049,1.289.025a2.746,2.746,0,0,1,.44.027,2.746,2.746,0,0,1-.44.027L123.1,30.4l-4.956.049-18.229.083-12.589.032-7.014.013-3.668.006-1.871,0a4.845,4.845,0,0,1-1.946-.327,4.535,4.535,0,0,1-2.649-2.941,5.522,5.522,0,0,1-.152-2.045q.046-.995.093-2,.188-4.023.384-8.209t.4-8.505q.051-1.079.1-2.167A4.669,4.669,0,0,1,71.661,2.2,4.541,4.541,0,0,1,75.531,0l33.105.02,14.448.024C124.227.067,125.3,0,126.445.1a4.411,4.411,0,0,1,2.864,1.624,4.543,4.543,0,0,1,.991,3.021q-.076,1.521-.148,2.975c-.4,7.728-.728,13.991-.954,18.35a4.44,4.44,0,0,1-.98,2.71,4.218,4.218,0,0,1-2.948,1.574c-.293.009-.441,0-.441,0" transform="translate(-0.553)" fill="#263238"/>
        <path id="Trazado_807062" data-name="Trazado 807062" d="M324.237,44.866,313.1,291.285l-179.62-5.145-10.687-18.816L142.11,38.306,309.272,27.153Z" transform="translate(-0.97)" fill="#e0e0e0"/>
        <g id="Grupo_1067101" data-name="Grupo 1067101" transform="translate(297.165 27.154)" opacity="0.3">
          <g id="Grupo_1067100" data-name="Grupo 1067100">
            <g id="Grupo_1067099" data-name="Grupo 1067099" clip-path="url(#clip-path-4)">
              <path id="Trazado_807063" data-name="Trazado 807063" d="M314.495,291.285,299.53,273.572,310.668,27.154l14.965,17.712Z" transform="translate(-299.53 -27.154)"/>
            </g>
          </g>
        </g>
        <path id="Trazado_807064" data-name="Trazado 807064" d="M309.273,27.154,298.134,273.573l-175.342-6.249L136.055,24.662Z" transform="translate(-0.97)" fill="#fafafa"/>
        <path id="Trazado_807065" data-name="Trazado 807065" d="M309.271,27.154,136.05,24.873l.212-.2C132.57,92.485,128,176.482,123.048,267.339l-.249-.275,2.895.1,172.447,6.169-.243.226c6.717-145.525,11.275-244.305,11.372-246.408-.093,2.1-4.463,100.892-10.9,246.43l-.01.234-.233-.008-172.449-6.122-2.894-.1-.264-.01.015-.265c4.984-90.854,9.593-174.849,13.313-242.659l.011-.2.2,0,173.214,2.7" transform="translate(-0.967)" fill="#263238"/>
        <path id="Trazado_807066" data-name="Trazado 807066" d="M156.485,84.08l61.234,1.81a2.337,2.337,0,0,0,2.395-2.278l.067-2.313a2.339,2.339,0,0,0-2.259-2.415l-61.233-1.809a2.336,2.336,0,0,0-2.4,2.277l-.067,2.313a2.339,2.339,0,0,0,2.259,2.415" transform="translate(-1.218)" fill="#e0e0e0"/>
        <path id="Trazado_807067" data-name="Trazado 807067" d="M155.89,97.626l61.234,1.81a2.337,2.337,0,0,0,2.395-2.278l.067-2.313a2.339,2.339,0,0,0-2.259-2.415l-61.234-1.809A2.336,2.336,0,0,0,153.7,92.9l-.067,2.313a2.339,2.339,0,0,0,2.259,2.415" transform="translate(-1.213)" fill="#e0e0e0"/>
        <path id="Trazado_807068" data-name="Trazado 807068" d="M155.3,111.172l61.233,1.81a2.336,2.336,0,0,0,2.395-2.278l.068-2.313a2.34,2.34,0,0,0-2.26-2.415L155.5,104.167a2.336,2.336,0,0,0-2.4,2.277l-.067,2.313a2.339,2.339,0,0,0,2.26,2.415" transform="translate(-1.208)" fill="#e0e0e0"/>
        <path id="Trazado_807069" data-name="Trazado 807069" d="M154.7,124.717l61.234,1.811a2.337,2.337,0,0,0,2.395-2.278l.068-2.313a2.34,2.34,0,0,0-2.26-2.415L154.9,117.713a2.335,2.335,0,0,0-2.395,2.277l-.067,2.313a2.337,2.337,0,0,0,2.259,2.414" transform="translate(-1.204)" fill="#e0e0e0"/>
        <path id="Trazado_807070" data-name="Trazado 807070" d="M154.1,138.263l61.234,1.81a2.337,2.337,0,0,0,2.395-2.278l.067-2.313a2.339,2.339,0,0,0-2.259-2.415l-61.233-1.809a2.336,2.336,0,0,0-2.4,2.277l-.067,2.313a2.339,2.339,0,0,0,2.259,2.415" transform="translate(-1.199)" fill="#e0e0e0"/>
        <path id="Trazado_807071" data-name="Trazado 807071" d="M153.509,151.809l61.234,1.81a2.337,2.337,0,0,0,2.395-2.278l.067-2.313a2.339,2.339,0,0,0-2.259-2.415L153.712,144.8a2.336,2.336,0,0,0-2.395,2.277l-.067,2.313a2.339,2.339,0,0,0,2.259,2.415" transform="translate(-1.194)" fill="#e0e0e0"/>
        <path id="Trazado_807072" data-name="Trazado 807072" d="M152.914,165.355l61.234,1.81a2.337,2.337,0,0,0,2.395-2.278l.067-2.313a2.339,2.339,0,0,0-2.259-2.415l-61.234-1.809a2.336,2.336,0,0,0-2.395,2.277l-.067,2.313a2.339,2.339,0,0,0,2.259,2.415" transform="translate(-1.19)" fill="#e0e0e0"/>
        <path id="Trazado_807073" data-name="Trazado 807073" d="M226.712,153.835l61.234,1.81a2.337,2.337,0,0,0,2.395-2.278l.067-2.313a2.339,2.339,0,0,0-2.259-2.415l-61.234-1.809a2.336,2.336,0,0,0-2.395,2.277l-.067,2.313a2.339,2.339,0,0,0,2.259,2.415" transform="translate(-1.772)" fill="#e0e0e0"/>
        <path id="Trazado_807074" data-name="Trazado 807074" d="M226.117,167.381l61.234,1.81a2.337,2.337,0,0,0,2.395-2.278l.067-2.313a2.339,2.339,0,0,0-2.259-2.415l-61.234-1.809a2.336,2.336,0,0,0-2.395,2.277l-.067,2.313a2.339,2.339,0,0,0,2.259,2.415" transform="translate(-1.768)" fill="#e0e0e0"/>
        <path id="Trazado_807075" data-name="Trazado 807075" d="M225.4,181.665l61.234,1.809a2.335,2.335,0,0,0,2.395-2.277l.067-2.313a2.339,2.339,0,0,0-2.259-2.415L225.6,174.66a2.336,2.336,0,0,0-2.395,2.277l-.067,2.313a2.339,2.339,0,0,0,2.259,2.415" transform="translate(-1.762)" fill="#e0e0e0"/>
        <path id="Trazado_807076" data-name="Trazado 807076" d="M224.681,195.95l61.234,1.809a2.335,2.335,0,0,0,2.395-2.277l.067-2.313a2.339,2.339,0,0,0-2.259-2.415l-61.234-1.809a2.336,2.336,0,0,0-2.395,2.277l-.067,2.313a2.339,2.339,0,0,0,2.259,2.415" transform="translate(-1.756)" fill="#e0e0e0"/>
        <path id="Trazado_807077" data-name="Trazado 807077" d="M223.962,210.234l61.234,1.81a2.337,2.337,0,0,0,2.395-2.278l.067-2.313a2.339,2.339,0,0,0-2.259-2.415l-61.233-1.809a2.337,2.337,0,0,0-2.4,2.277l-.067,2.313a2.339,2.339,0,0,0,2.259,2.415" transform="translate(-1.751)" fill="#e0e0e0"/>
        <path id="Trazado_807078" data-name="Trazado 807078" d="M223.244,224.518l61.234,1.809a2.335,2.335,0,0,0,2.395-2.277l.067-2.313a2.339,2.339,0,0,0-2.259-2.415l-61.233-1.809a2.337,2.337,0,0,0-2.4,2.277l-.067,2.313a2.339,2.339,0,0,0,2.259,2.415" transform="translate(-1.745)" fill="#e0e0e0"/>
        <path id="Trazado_807079" data-name="Trazado 807079" d="M222.526,238.8l61.234,1.809a2.335,2.335,0,0,0,2.395-2.277l.068-2.313a2.339,2.339,0,0,0-2.259-2.415L222.729,231.8a2.336,2.336,0,0,0-2.395,2.277l-.067,2.313a2.339,2.339,0,0,0,2.259,2.415" transform="translate(-1.739)" fill="#e0e0e0"/>
        <path id="Trazado_807080" data-name="Trazado 807080" d="M146.855,249.451,282,253.445a2.338,2.338,0,0,0,2.4-2.278l.067-2.313a2.34,2.34,0,0,0-2.26-2.415l-135.142-3.993a2.336,2.336,0,0,0-2.395,2.277l-.067,2.313a2.339,2.339,0,0,0,2.259,2.415" transform="translate(-1.142)" fill="#e0e0e0"/>
        <path id="Trazado_807081" data-name="Trazado 807081" d="M157.551,66.442l41.294,1.22a2.336,2.336,0,0,0,2.395-2.277l.067-2.313a2.339,2.339,0,0,0-2.259-2.415l-41.294-1.22a2.336,2.336,0,0,0-2.395,2.277l-.067,2.313a2.339,2.339,0,0,0,2.259,2.415" transform="translate(-1.226)" fill="#e0e0e0"/>
        <path id="Trazado_807082" data-name="Trazado 807082" d="M132.557,272.88s.289.026.853.053l2.513.108,9.7.37,36.009,1.28,121.639,4.141.26.009.013-.262c.459-9.745.94-19.963,1.43-30.363,2.6-55.887,4.947-106.475,6.648-143.105.824-18.3,1.492-33.117,1.953-43.369.218-5.112.388-9.084.5-11.793q.077-2.009.118-3.067c.023-.691.022-1.046.022-1.046s-.036.353-.076,1.043-.1,1.727-.171,3.065c-.139,2.708-.342,6.678-.6,11.788-.5,10.25-1.227,25.061-2.123,43.361-1.742,36.628-4.147,87.213-6.8,143.1-.488,10.4-.967,20.618-1.425,30.364l.273-.254-121.645-3.962-36.014-1.118-9.7-.277-2.514-.06c-.566-.01-.855,0-.855,0" transform="translate(-1.047)" fill="#263238"/>
        <path id="Trazado_807083" data-name="Trazado 807083" d="M146.917,280.257s.272.026.806.054l2.371.109,9.164.377,34.072,1.312,115.586,4.274.258.01.014-.261c.615-11.757,1.256-23.986,1.911-36.483,2.851-55.144,5.432-105.06,7.3-141.2.908-18.06,1.643-32.677,2.152-42.793.241-5.044.43-8.963.558-11.636q.086-1.983.132-3.027c.027-.682.027-1.032.027-1.032s-.037.348-.081,1.029-.1,1.7-.185,3.024c-.152,2.672-.373,6.589-.659,11.631-.549,10.114-1.341,24.727-2.32,42.784-1.909,36.142-4.545,86.055-7.458,141.2-.652,12.5-1.289,24.726-1.9,36.483l.272-.25-115.593-4.091-34.077-1.153-9.167-.286-2.374-.062c-.534-.012-.807-.005-.807-.005" transform="translate(-1.16)" fill="#263238"/>
        <path id="Trazado_807084" data-name="Trazado 807084" d="M205.441,24.006l2.647-2.612,31.577.156,1.53,2.91Z" transform="translate(-1.622)" fill="#263238"/>
        <rect id="Rectángulo_375213" data-name="Rectángulo 375213" width="15.162" height="35.755" transform="translate(203.629 39.17) rotate(-89.278)" fill="#263238"/>
        <path id="Trazado_807085" data-name="Trazado 807085" d="M242.2,40.13l.007-.523a1.248,1.248,0,0,0-1.227-1.268l-35.751-.454a1.246,1.246,0,0,0-1.258,1.237l-.007.523a1.248,1.248,0,0,0,1.226,1.268l35.752.453A1.246,1.246,0,0,0,242.2,40.13" transform="translate(-1.611)" fill="#263238"/>
        <path id="Trazado_807086" data-name="Trazado 807086" d="M231.121,35.8H231.1l-15.725-.2A1.385,1.385,0,0,1,214.25,35a1.407,1.407,0,0,1-.156-1.278l4.632-12.555a8.29,8.29,0,0,1,4.682-14.915,8.107,8.107,0,0,1,5.986,2.383A8.314,8.314,0,0,1,228.3,21.323l4.134,12.645a1.414,1.414,0,0,1-.2,1.264,1.387,1.387,0,0,1-1.118.571m-7.5-28.558c-.063,0-.128,0-.191,0A7.288,7.288,0,0,0,219.6,20.563l.324.22-4.9,13.284a.4.4,0,0,0,.044.364.387.387,0,0,0,.321.172l15.726.2a.381.381,0,0,0,.323-.162.4.4,0,0,0,.058-.36L227.12,20.9l.33-.208A7.308,7.308,0,0,0,228.7,9.343a7.135,7.135,0,0,0-5.073-2.1" transform="translate(-1.69)" fill="#455a64"/>
        <path id="Trazado_807087" data-name="Trazado 807087" d="M240.755,38.336a1.725,1.725,0,0,0-.36-.021l-1.026-.026-3.78-.079-12.473-.2-12.476-.141-3.781-.012-1.029.012a1.688,1.688,0,0,0-.359.024,1.659,1.659,0,0,0,.358.035l1.028.044,3.78.1c3.192.076,7.6.159,12.475.228s9.281.111,12.474.119c1.6,0,2.889,0,3.782-.015.447-.01.793-.014,1.031-.029a1.608,1.608,0,0,0,.356-.039" transform="translate(-1.623)" fill="#455a64"/>
        <path id="Trazado_807088" data-name="Trazado 807088" d="M241.271,24.149a1.734,1.734,0,0,0-.36-.021l-1.026-.026-3.78-.079-12.473-.2-12.476-.141-3.782-.012-1.028.012a1.678,1.678,0,0,0-.359.024,1.659,1.659,0,0,0,.358.035l1.028.044,3.78.106c3.192.075,7.6.158,12.475.227s9.281.111,12.474.119c1.6,0,2.889,0,3.782-.015.447-.01.793-.014,1.03-.029a1.613,1.613,0,0,0,.357-.039" transform="translate(-1.627)" fill="#455a64"/>
        <path id="Trazado_807089" data-name="Trazado 807089" d="M201.28,232.811l-43.2-1.276a8.9,8.9,0,0,1-8.592-9.183l1.106-38.019a8.883,8.883,0,0,1,9.109-8.659l43.2,1.276a8.9,8.9,0,0,1,8.591,9.183l-1.105,38.018a8.886,8.886,0,0,1-9.11,8.66" transform="translate(-1.18)" fill="#ebebeb"/>
        <path id="Trazado_807090" data-name="Trazado 807090" d="M149.607,218.259a1.5,1.5,0,0,1,.658-1.19L170.2,203.584a4.1,4.1,0,0,1,5.27.1,1.34,1.34,0,0,0,.264.183l9.035,4.676a1.479,1.479,0,0,0,1.72-.261l13.69-13.493a4.226,4.226,0,0,1,6.152.528l4.393,5.558a1.507,1.507,0,0,1,.323.949l-.208,22.451a8.442,8.442,0,0,1-8.677,8.4l-44.57-1.42a8.452,8.452,0,0,1-8.14-8.786Z" transform="translate(-1.18)" fill="#e0e0e0"/>
        <path id="Trazado_807091" data-name="Trazado 807091" d="M179.188,190.7a6.09,6.09,0,1,1-6.361-5.851,6.12,6.12,0,0,1,6.361,5.851" transform="translate(-1.319)" fill="#e0e0e0"/>
        <path id="Trazado_807092" data-name="Trazado 807092" d="M280.6,138.229l-43.2-1.276a8.9,8.9,0,0,1-8.592-9.183l1.106-38.019a8.883,8.883,0,0,1,9.109-8.659l43.2,1.276a8.9,8.9,0,0,1,8.591,9.183l-1.105,38.018a8.886,8.886,0,0,1-9.11,8.66" transform="translate(-1.807)" fill="#ebebeb"/>
        <path id="Trazado_807093" data-name="Trazado 807093" d="M228.956,122.913,249.523,109a4.1,4.1,0,0,1,5.39.206l10.132,5.244L279.5,100.2a4.226,4.226,0,0,1,6.152.528l4.721,5.975-.2,21.492a9.894,9.894,0,0,1-10.169,9.839l-41.639-1.327a9.9,9.9,0,0,1-9.54-10.3Z" transform="translate(-1.807)" fill="#e0e0e0"/>
        <path id="Trazado_807094" data-name="Trazado 807094" d="M258.509,96.121a6.09,6.09,0,1,1-6.361-5.851,6.12,6.12,0,0,1,6.361,5.851" transform="translate(-1.945)" fill="#e0e0e0"/>
        <path id="Trazado_807095" data-name="Trazado 807095" d="M158.9,113.678a2.593,2.593,0,0,1-.8-.225,4.411,4.411,0,0,1-1.817-1.547,5.23,5.23,0,0,1-.886-3.669,7.319,7.319,0,0,1,2.408-4.381,12.6,12.6,0,0,1,5.424-2.688,29.6,29.6,0,0,1,6.878-.9,30.114,30.114,0,0,1,15.27,3.9,11.163,11.163,0,0,1,3.235,2.737,6.823,6.823,0,0,1,1.453,3.891,5.217,5.217,0,0,1-1.449,3.736,8.512,8.512,0,0,1-3.225,2.04,21.694,21.694,0,0,1-6.851,1.116,38.724,38.724,0,0,1-6.029-.262,37.509,37.509,0,0,1-8.472-2.06c-.966-.36-1.7-.675-2.193-.909a4.694,4.694,0,0,1-.737-.376,5.063,5.063,0,0,1,.778.28c.5.2,1.247.485,2.218.814a40.062,40.062,0,0,0,8.448,1.885,39.277,39.277,0,0,0,5.969.2,21.514,21.514,0,0,0,6.7-1.134,8.056,8.056,0,0,0,3.034-1.931,4.718,4.718,0,0,0,1.3-3.382,6.322,6.322,0,0,0-1.354-3.588,10.7,10.7,0,0,0-3.09-2.605,29.919,29.919,0,0,0-15-3.873,29.547,29.547,0,0,0-6.777.834,12.319,12.319,0,0,0-5.285,2.544,7.045,7.045,0,0,0-2.366,4.147,5.062,5.062,0,0,0,.767,3.516,4.512,4.512,0,0,0,1.694,1.565c.48.238.764.292.756.32" transform="translate(-1.227)" fill="#263238"/>
        <path id="Trazado_807096" data-name="Trazado 807096" d="M184.747,253.374a2.593,2.593,0,0,1-.8-.225,4.418,4.418,0,0,1-1.817-1.547,5.235,5.235,0,0,1-.886-3.669,7.319,7.319,0,0,1,2.408-4.381,12.6,12.6,0,0,1,5.425-2.688,29.592,29.592,0,0,1,6.877-.9,30.112,30.112,0,0,1,15.27,3.9,11.2,11.2,0,0,1,3.236,2.737,6.822,6.822,0,0,1,1.452,3.891,5.217,5.217,0,0,1-1.449,3.736,8.5,8.5,0,0,1-3.225,2.04,21.689,21.689,0,0,1-6.851,1.116,38.58,38.58,0,0,1-6.028-.262,37.507,37.507,0,0,1-8.473-2.06c-.966-.36-1.7-.675-2.193-.909a4.693,4.693,0,0,1-.737-.376,5.064,5.064,0,0,1,.778.28c.5.2,1.248.485,2.219.814a40.036,40.036,0,0,0,8.447,1.885,39.282,39.282,0,0,0,5.969.2,21.541,21.541,0,0,0,6.7-1.133A8.059,8.059,0,0,0,214.1,253.9a4.718,4.718,0,0,0,1.3-3.382,6.322,6.322,0,0,0-1.354-3.588,10.7,10.7,0,0,0-3.09-2.6,29.918,29.918,0,0,0-15-3.873,29.534,29.534,0,0,0-6.777.834,12.317,12.317,0,0,0-5.286,2.544,7.05,7.05,0,0,0-2.366,4.147,5.062,5.062,0,0,0,.767,3.516,4.52,4.52,0,0,0,1.694,1.565c.48.238.764.292.756.32" transform="translate(-1.431)" fill="#263238"/>
        <path id="Trazado_807097" data-name="Trazado 807097" d="M154.745,67.929a2.593,2.593,0,0,1-.8-.225,4.418,4.418,0,0,1-1.817-1.547,5.235,5.235,0,0,1-.886-3.669,7.319,7.319,0,0,1,2.408-4.381,12.6,12.6,0,0,1,5.425-2.688,29.585,29.585,0,0,1,6.877-.9,30.112,30.112,0,0,1,15.27,3.9,11.2,11.2,0,0,1,3.236,2.737,6.822,6.822,0,0,1,1.452,3.891,5.217,5.217,0,0,1-1.449,3.736,8.5,8.5,0,0,1-3.225,2.04,21.69,21.69,0,0,1-6.851,1.116,38.7,38.7,0,0,1-6.028-.262,37.505,37.505,0,0,1-8.473-2.06c-.966-.36-1.7-.675-2.193-.909a4.8,4.8,0,0,1-.737-.376,5.064,5.064,0,0,1,.778.28c.5.2,1.248.485,2.218.814a40.062,40.062,0,0,0,8.448,1.885,39.281,39.281,0,0,0,5.969.2,21.514,21.514,0,0,0,6.7-1.134,8.056,8.056,0,0,0,3.034-1.931,4.718,4.718,0,0,0,1.3-3.382,6.322,6.322,0,0,0-1.354-3.588,10.686,10.686,0,0,0-3.09-2.6,29.918,29.918,0,0,0-15-3.873,29.533,29.533,0,0,0-6.777.834,12.317,12.317,0,0,0-5.286,2.544,7.05,7.05,0,0,0-2.366,4.147,5.062,5.062,0,0,0,.767,3.516,4.52,4.52,0,0,0,1.694,1.565c.48.238.764.292.756.32" transform="translate(-1.194)" fill="#263238"/>
        <path id="Trazado_807098" data-name="Trazado 807098" d="M121.816,10.716H78.668a.514.514,0,0,0-.512.517v.215a.514.514,0,0,0,.512.517h43.149a.515.515,0,0,0,.513-.517v-.215a.515.515,0,0,0-.513-.517" transform="translate(-0.617)" fill="#e0e0e0"/>
        <path id="Trazado_807099" data-name="Trazado 807099" d="M121.816,14.68H78.668a.514.514,0,0,0-.512.517v.215a.515.515,0,0,0,.512.517h43.149a.516.516,0,0,0,.513-.517V15.2a.515.515,0,0,0-.513-.517" transform="translate(-0.617)" fill="#e0e0e0"/>
        <path id="Trazado_807100" data-name="Trazado 807100" d="M121.816,18.643H78.668a.514.514,0,0,0-.512.516v.216a.514.514,0,0,0,.512.517h43.149a.515.515,0,0,0,.513-.517v-.216a.515.515,0,0,0-.513-.516" transform="translate(-0.617)" fill="#e0e0e0"/>
        <path id="Trazado_807101" data-name="Trazado 807101" d="M130.707,14.414c.114-.087,6.979,8.874,15.333,20.012s15.036,20.242,14.922,20.329-6.978-8.872-15.335-20.014-15.034-20.24-14.92-20.327" transform="translate(-1.032)" fill="#263238"/>
        <path id="Trazado_807102" data-name="Trazado 807102" d="M132.118,13.61a1.68,1.68,0,1,1-1.681-1.694,1.687,1.687,0,0,1,1.681,1.694" transform="translate(-1.017)" fill="#263238"/>
        <path id="Trazado_807103" data-name="Trazado 807103" d="M177.128,356.835H126.8a4.283,4.283,0,0,1-4.259-4.5l1.021-21.49a4.281,4.281,0,0,1,4.26-4.093h50.322a4.284,4.284,0,0,1,4.26,4.5l-1.022,21.49a4.278,4.278,0,0,1-4.259,4.093" transform="translate(-0.968)" fill="#fafafa"/>
        <path id="Trazado_807104" data-name="Trazado 807104" d="M177.126,356.835a5.223,5.223,0,0,0,1.66-.4,4.239,4.239,0,0,0,1.609-1.27,4.283,4.283,0,0,0,.9-2.623c.188-4.361.457-10.626.791-18.358-.016-1.9.62-4.117-.788-5.724A4.011,4.011,0,0,0,178.687,327c-1.033-.078-2.187-.017-3.306-.033l-14.448.024-33.105.021a4.023,4.023,0,0,0-3.429,1.946,4.143,4.143,0,0,0-.58,1.948q-.052,1.087-.1,2.167-.208,4.32-.409,8.505t-.4,8.207q-.049,1.006-.1,2a5.044,5.044,0,0,0,.128,1.884A4.058,4.058,0,0,0,125.3,356.3a4.391,4.391,0,0,0,1.768.3l1.871,0,3.668.006,7.014.013,12.589.032,18.229.083,4.956.048,1.289.026a2.744,2.744,0,0,1,.439.027,2.745,2.745,0,0,1-.439.027l-1.289.025-4.956.049-18.229.083-12.589.032-7.014.013-3.668.006-1.871,0a4.845,4.845,0,0,1-1.946-.327,4.535,4.535,0,0,1-2.649-2.941,5.517,5.517,0,0,1-.152-2.044q.046-1,.093-2,.188-4.023.384-8.209t.4-8.5q.052-1.08.1-2.167a4.656,4.656,0,0,1,.653-2.193,4.541,4.541,0,0,1,3.87-2.2l33.105.02,14.448.024c1.143.022,2.218-.039,3.36.052a4.411,4.411,0,0,1,2.864,1.624,4.543,4.543,0,0,1,.991,3.021q-.076,1.521-.148,2.975c-.4,7.728-.728,13.991-.954,18.35a4.44,4.44,0,0,1-.98,2.71,4.218,4.218,0,0,1-2.948,1.574c-.293.009-.441,0-.441,0" transform="translate(-0.966)" fill="#263238"/>
        <path id="Trazado_807105" data-name="Trazado 807105" d="M174.113,337.2H130.965a.514.514,0,0,0-.512.517v.215a.514.514,0,0,0,.512.517h43.149a.515.515,0,0,0,.513-.517v-.215a.515.515,0,0,0-.513-.517" transform="translate(-1.03)" fill="#e0e0e0"/>
        <path id="Trazado_807106" data-name="Trazado 807106" d="M174.113,341.167H130.965a.514.514,0,0,0-.512.517v.215a.514.514,0,0,0,.512.517h43.149a.515.515,0,0,0,.513-.517v-.215a.515.515,0,0,0-.513-.517" transform="translate(-1.03)" fill="#e0e0e0"/>
        <path id="Trazado_807107" data-name="Trazado 807107" d="M174.113,345.131H130.965a.514.514,0,0,0-.512.517v.215a.514.514,0,0,0,.512.517h43.149a.515.515,0,0,0,.513-.517v-.215a.515.515,0,0,0-.513-.517" transform="translate(-1.03)" fill="#e0e0e0"/>
        <path id="Trazado_807108" data-name="Trazado 807108" d="M196.471,256.327c.127.066-7.92,15.886-17.97,35.329s-18.3,35.159-18.429,35.092,7.918-15.882,17.971-35.332,18.3-35.155,18.428-35.089" transform="translate(-1.264)" fill="#263238"/>
        <path id="Trazado_807109" data-name="Trazado 807109" d="M161.738,326.748a1.68,1.68,0,1,1-1.681-1.694,1.687,1.687,0,0,1,1.681,1.694" transform="translate(-1.251)" fill="#263238"/>
      </g>
    </g>
    <g id="Grupo_1067114" data-name="Grupo 1067114">
      <g id="Grupo_1067113" data-name="Grupo 1067113" clip-path="url(#clip-path)">
        <path id="Trazado_807110" data-name="Trazado 807110" d="M474.125,343.772H328.315V337.7h145.81a2.5,2.5,0,0,1,2.493,2.513v1.049a2.5,2.5,0,0,1-2.493,2.513" transform="translate(-2.593)" fill="#1969d5"/>
        <path id="Trazado_807111" data-name="Trazado 807111" d="M325.9,341.208c0,.121-12.234.219-27.322.219s-27.324-.1-27.324-.219,12.231-.219,27.324-.219,27.322.1,27.322.219" transform="translate(-2.142)" fill="#263238"/>
        <path id="Trazado_807112" data-name="Trazado 807112" d="M345.882,343.772h-68.49a15.077,15.077,0,0,1-15.017-15.136v-6.323a15.077,15.077,0,0,1,15.017-15.136h68.49Z" transform="translate(-2.072)" fill="#1969d5"/>
        <path id="Trazado_807113" data-name="Trazado 807113" d="M474.125,313.252H329.45a1.14,1.14,0,0,1-1.135-1.145v-3.786a1.139,1.139,0,0,1,1.135-1.144H474.125a2.5,2.5,0,0,1,2.493,2.513v1.049a2.5,2.5,0,0,1-2.493,2.513" transform="translate(-2.593)" fill="#1969d5"/>
        <path id="Trazado_807114" data-name="Trazado 807114" d="M472.23,337.7H344.9a12.223,12.223,0,0,1,0-24.445H472.23a30.445,30.445,0,0,0,0,24.445" transform="translate(-2.628)" fill="#f5f5f5"/>
        <g id="Grupo_1067106" data-name="Grupo 1067106" transform="translate(260.303 307.177)" opacity="0.3">
          <g id="Grupo_1067105" data-name="Grupo 1067105">
            <g id="Grupo_1067104" data-name="Grupo 1067104" clip-path="url(#clip-path-6)">
              <path id="Trazado_807115" data-name="Trazado 807115" d="M332.218,343.772H276.134A13.813,13.813,0,0,1,262.375,329.9v-8.973a13.7,13.7,0,0,1,13.647-13.755H333.6c-13.145,8.026-12.163,27.248-1.382,36.6" transform="translate(-262.375 -307.177)"/>
            </g>
          </g>
        </g>
        <path id="Trazado_807116" data-name="Trazado 807116" d="M456.818,326.609c0,.121-26.135.219-58.367.219s-58.372-.1-58.372-.219,26.129-.219,58.372-.219,58.367.1,58.367.219" transform="translate(-2.685)" fill="#263238"/>
        <path id="Trazado_807117" data-name="Trazado 807117" d="M468.927,332.042c0,.121-26.135.219-58.367.219s-58.372-.1-58.372-.219,26.129-.219,58.372-.219,58.367.1,58.367.219" transform="translate(-2.781)" fill="#263238"/>
        <path id="Trazado_807118" data-name="Trazado 807118" d="M465.356,318.9c0,.121-26.135.219-58.367.219s-58.372-.1-58.372-.219,26.129-.219,58.372-.219,58.367.1,58.367.219" transform="translate(-2.753)" fill="#263238"/>
        <path id="Trazado_807119" data-name="Trazado 807119" d="M325.9,310.214c0,.121-12.234.219-27.322.219s-27.324-.1-27.324-.219,12.231-.219,27.324-.219,27.322.1,27.322.219" transform="translate(-2.142)" fill="#263238"/>
        <path id="Trazado_807120" data-name="Trazado 807120" d="M331.634,416.59H250.926A19.417,19.417,0,0,1,231.587,397.1v-8.143a19.417,19.417,0,0,1,19.339-19.493h80.708a7.527,7.527,0,0,1,7.5,7.557v32.015a7.527,7.527,0,0,1-7.5,7.557" transform="translate(-1.829)" fill="#288640"/>
        <path id="Trazado_807121" data-name="Trazado 807121" d="M504.289,377.285H318.361a1.86,1.86,0,0,1-1.853-1.868v-4.088a1.86,1.86,0,0,1,1.853-1.868H504.289a3.224,3.224,0,0,1,3.21,3.236v1.352a3.224,3.224,0,0,1-3.21,3.236" transform="translate(-2.499)" fill="#288640"/>
        <path id="Trazado_807122" data-name="Trazado 807122" d="M504.289,416.59H318.361a1.86,1.86,0,0,1-1.853-1.868v-4.088a1.86,1.86,0,0,1,1.853-1.868H504.289A3.224,3.224,0,0,1,507.5,412v1.352a3.224,3.224,0,0,1-3.21,3.236" transform="translate(-2.499)" fill="#288640"/>
        <path id="Trazado_807123" data-name="Trazado 807123" d="M501.849,408.766H337.867a15.741,15.741,0,0,1,0-31.482H501.849a39.209,39.209,0,0,0,0,31.482" transform="translate(-2.545)" fill="#f5f5f5"/>
        <g id="Grupo_1067109" data-name="Grupo 1067109" transform="translate(229.759 369.461)" opacity="0.3">
          <g id="Grupo_1067108" data-name="Grupo 1067108">
            <g id="Grupo_1067107" data-name="Grupo 1067107" clip-path="url(#clip-path-7)">
              <path id="Trazado_807124" data-name="Trazado 807124" d="M321.534,416.59H254.715a23.22,23.22,0,0,1-23.127-23.312,23.723,23.723,0,0,1,23.628-23.817h68.1c-16.929,10.337-15.664,35.092-1.78,47.129" transform="translate(-231.588 -369.461)"/>
            </g>
          </g>
        </g>
        <path id="Trazado_807125" data-name="Trazado 807125" d="M482,394.487c0,.121-33.658.219-75.168.219s-75.176-.1-75.176-.219,33.651-.219,75.176-.219,75.168.1,75.168.219" transform="translate(-2.619)" fill="#263238"/>
        <path id="Trazado_807126" data-name="Trazado 807126" d="M497.593,401.484c0,.121-33.658.219-75.168.219s-75.176-.1-75.176-.219,33.651-.219,75.176-.219,75.168.1,75.168.219" transform="translate(-2.742)" fill="#263238"/>
        <path id="Trazado_807127" data-name="Trazado 807127" d="M493,387.994c0,.121-33.658.219-75.168.219s-75.176-.1-75.176-.219,33.651-.219,75.176-.219,75.168.1,75.168.219" transform="translate(-2.706)" fill="#263238"/>
        <path id="Trazado_807128" data-name="Trazado 807128" d="M313.392,413.287c0,.121-15.756.219-35.186.219s-35.189-.1-35.189-.219,15.753-.219,35.189-.219,35.186.1,35.186.219" transform="translate(-1.919)" fill="#263238"/>
        <path id="Trazado_807129" data-name="Trazado 807129" d="M313.392,373.373c0,.121-15.756.219-35.186.219s-35.189-.1-35.189-.219,15.753-.219,35.189-.219,35.186.1,35.186.219" transform="translate(-1.919)" fill="#263238"/>
        <path id="Trazado_807130" data-name="Trazado 807130" d="M366.928,369.633H291.139a11.117,11.117,0,0,1-11.073-11.161V353.81a11.117,11.117,0,0,1,11.073-11.161h75.789a.517.517,0,0,1,.515.519v25.946a.517.517,0,0,1-.515.519" transform="translate(-2.212)" fill="#455a64"/>
        <path id="Trazado_807131" data-name="Trazado 807131" d="M501.628,349.005H350.249a1.192,1.192,0,0,1-1.188-1.2v-3.962a1.193,1.193,0,0,1,1.188-1.2H501.628a2.619,2.619,0,0,1,2.608,2.63v1.1a2.619,2.619,0,0,1-2.608,2.629" transform="translate(-2.756)" fill="#455a64"/>
        <path id="Trazado_807132" data-name="Trazado 807132" d="M501.628,369.633H350.249a1.192,1.192,0,0,1-1.188-1.2v-3.962a1.193,1.193,0,0,1,1.188-1.2H501.628a2.619,2.619,0,0,1,2.608,2.63V367a2.619,2.619,0,0,1-2.608,2.629" transform="translate(-2.756)" fill="#455a64"/>
        <path id="Trazado_807133" data-name="Trazado 807133" d="M499.645,363.276H360.806a7.136,7.136,0,0,1,0-14.271H499.645q-5.359,7.135,0,14.271" transform="translate(-2.793)" fill="#f5f5f5"/>
        <g id="Grupo_1067112" data-name="Grupo 1067112" transform="translate(277.854 342.648)" opacity="0.3">
          <g id="Grupo_1067111" data-name="Grupo 1067111">
            <g id="Grupo_1067110" data-name="Grupo 1067110" clip-path="url(#clip-path-8)">
              <path id="Trazado_807134" data-name="Trazado 807134" d="M353.145,369.633h-59.8a13.332,13.332,0,0,1-13.277-13.384,13.547,13.547,0,0,1,13.493-13.6H354.59c-13.755,5.918-12.727,20.092-1.445,26.984" transform="translate(-280.066 -342.648)"/>
            </g>
          </g>
        </g>
        <path id="Trazado_807135" data-name="Trazado 807135" d="M483.518,355.017c0,.121-27.346.219-61.072.219s-61.078-.1-61.078-.219,27.34-.219,61.078-.219,61.072.1,61.072.219" transform="translate(-2.854)" fill="#263238"/>
        <path id="Trazado_807136" data-name="Trazado 807136" d="M496.188,358.858c0,.121-27.346.219-61.072.219s-61.078-.1-61.078-.219,27.34-.219,61.078-.219,61.072.1,61.072.219" transform="translate(-2.954)" fill="#263238"/>
        <path id="Trazado_807137" data-name="Trazado 807137" d="M346.529,366.949c0,.121-12.8.219-28.587.219s-28.589-.1-28.589-.219,12.8-.219,28.589-.219,28.587.1,28.587.219" transform="translate(-2.285)" fill="#263238"/>
        <path id="Trazado_807138" data-name="Trazado 807138" d="M346.529,345.827c0,.121-12.8.219-28.587.219s-28.589-.1-28.589-.219,12.8-.219,28.589-.219,28.587.1,28.587.219" transform="translate(-2.285)" fill="#263238"/>
        <path id="Trazado_807139" data-name="Trazado 807139" d="M501.966,342.648c0,.121-46.956.219-104.867.219-57.93,0-104.876-.1-104.876-.219s46.946-.219,104.876-.219c57.911,0,104.867.1,104.867.219" transform="translate(-2.308)" fill="#263238"/>
      </g>
    </g>
    <g id="Grupo_1067119" data-name="Grupo 1067119">
      <g id="Grupo_1067118" data-name="Grupo 1067118" clip-path="url(#clip-path)">
        <path id="Trazado_807141" data-name="Trazado 807141" d="M364.643,80.872s-4.507,16.985-4.9,29l-.129,4s9.944,8.323,18.285,8.836l6.991-17.328Z" transform="translate(-2.84)" fill="#263238"/>
        <path id="Trazado_807142" data-name="Trazado 807142" d="M408.84,91.29c-1.9-8.284-2.631-17.926-9.466-23.328-5.072-4.008-10.85-5.125-17.289-4.854a22.7,22.7,0,0,0-9.512,3.184c-3.786,2.161-5.39,6.542-7.218,10.522-3.66,7.975-3.2,18.773-.717,21.774l33.06,17.6c6.6-3.463,10.737-4.842,11.792-13.712a32.751,32.751,0,0,0-.65-11.183" transform="translate(-2.864)" fill="#263238"/>
        <path id="Trazado_807143" data-name="Trazado 807143" d="M399.04,74.545l-20.805-6.188c-6.7-.984-11.5,7.191-12.195,13.982-.768,7.545-1.411,16.787-.741,22.466,1.344,11.419,9.917,13.205,9.917,13.205,0-.038.02.171-.048,3.544l-.026,6.949c-.088,2.21.3,2.953,1.638,4.7,3.069,4.007,8.661,4.542,15.256,2.083,3.823-1.425,6.479-4.292,6.772-8.2l3.617-48.358a3.987,3.987,0,0,0-3.385-4.189" transform="translate(-2.882)" fill="#ae7461"/>
        <path id="Trazado_807144" data-name="Trazado 807144" d="M368.042,92.673a1.452,1.452,0,0,0,1.335,1.523,1.384,1.384,0,0,0,1.539-1.253,1.453,1.453,0,0,0-1.333-1.524,1.386,1.386,0,0,0-1.541,1.254" transform="translate(-2.906)" fill="#263238"/>
        <path id="Trazado_807145" data-name="Trazado 807145" d="M367.436,89.182c.172.2,1.3-.576,2.851-.51,1.553.043,2.661.894,2.837.709.086-.081-.083-.431-.565-.815a3.952,3.952,0,0,0-2.262-.8,3.787,3.787,0,0,0-2.279.643c-.492.351-.668.688-.582.776" transform="translate(-2.901)" fill="#263238"/>
        <path id="Trazado_807146" data-name="Trazado 807146" d="M381.811,92.9a1.452,1.452,0,0,0,1.334,1.523,1.384,1.384,0,0,0,1.54-1.253,1.453,1.453,0,0,0-1.333-1.524,1.386,1.386,0,0,0-1.541,1.254" transform="translate(-3.015)" fill="#263238"/>
        <path id="Trazado_807147" data-name="Trazado 807147" d="M382.842,89.367c.172.2,1.3-.575,2.851-.509,1.553.043,2.662.893,2.838.708.085-.081-.081-.431-.566-.815a3.949,3.949,0,0,0-2.262-.8,3.786,3.786,0,0,0-2.278.643c-.491.351-.668.688-.583.776" transform="translate(-3.023)" fill="#263238"/>
        <path id="Trazado_807148" data-name="Trazado 807148" d="M376.711,99.521a10.179,10.179,0,0,0-2.506-.559c-.395-.057-.767-.152-.823-.427a2.049,2.049,0,0,1,.311-1.175l1.293-3c1.8-4.27,3.117-7.789,2.946-7.86s-1.768,3.332-3.567,7.6q-.65,1.581-1.243,3.019a2.324,2.324,0,0,0-.267,1.561,1,1,0,0,0,.629.611,2.7,2.7,0,0,0,.671.121,10.018,10.018,0,0,0,2.558.105" transform="translate(-2.944)" fill="#263238"/>
        <path id="Trazado_807149" data-name="Trazado 807149" d="M375.252,118.011a28.467,28.467,0,0,0,15.237-3.456s-4.038,7.793-15.264,6.284Z" transform="translate(-2.963)" fill="#6f4439"/>
        <path id="Trazado_807150" data-name="Trazado 807150" d="M381.783,103a2.252,2.252,0,0,0-1.833-1.1,2.922,2.922,0,0,0-2.72,1.227,1.844,1.844,0,0,0-.171,1.321c.089.229.018.115.185.277a5.126,5.126,0,0,0,2.045,1.393,2.191,2.191,0,0,0,2.355-.77,2.279,2.279,0,0,0,.14-2.345" transform="translate(-2.977)" fill="#6f4439"/>
        <path id="Trazado_807151" data-name="Trazado 807151" d="M381.547,100.853c-.252-.026-.331,1.673-1.828,2.814s-3.283.872-3.307,1.109c-.029.106.385.348,1.143.4a4.172,4.172,0,0,0,2.756-.829,3.693,3.693,0,0,0,1.425-2.365c.1-.707-.072-1.136-.189-1.132" transform="translate(-2.972)" fill="#263238"/>
        <path id="Trazado_807152" data-name="Trazado 807152" d="M382.249,83.634c.111.439,1.677.389,3.47.788,1.8.362,3.215,1.041,3.493.685.125-.172-.092-.6-.645-1.065a6.155,6.155,0,0,0-5.3-1.122c-.692.206-1.061.506-1.014.714" transform="translate(-3.018)" fill="#263238"/>
        <path id="Trazado_807153" data-name="Trazado 807153" d="M367.565,84.966c.352.308,1.484-.23,2.906-.455,1.415-.269,2.664-.147,2.889-.555.1-.2-.145-.522-.719-.779a4.649,4.649,0,0,0-4.669.814c-.451.436-.565.822-.407.975" transform="translate(-2.902)" fill="#263238"/>
        <path id="Trazado_807154" data-name="Trazado 807154" d="M378.267,67.134c-.019.082-.035.164-.053.246l.039.017c0-.088.009-.175.014-.263" transform="translate(-2.987)" fill="#263238"/>
        <path id="Trazado_807155" data-name="Trazado 807155" d="M392.693,122.592c.318-2.976-.869-5.965-.525-8.938.365-3.151,2.391-5.852,3.221-8.912,1.331-4.9-.5-10.114-1.164-15.179A11.909,11.909,0,0,1,386.9,85.3c-2.259-2.654-3.624-5.942-4.954-9.171a15.428,15.428,0,0,0,3.064,8.821A4.089,4.089,0,0,1,381.5,83.8a9.275,9.275,0,0,1-2.06-3.224,25.37,25.37,0,0,1-1.994-9.08,32.874,32.874,0,0,0,1.471,13.258,5.57,5.57,0,0,0-2.448.094,2.67,2.67,0,0,1-2.329-.5,2.973,2.973,0,0,1-.638-1.514,34.3,34.3,0,0,1-.374-11.551,35.365,35.365,0,0,0-2.582,6.4,12.5,12.5,0,0,0-.048,6.831.989.989,0,0,1-1.4-.009,2.4,2.4,0,0,1-.612-1.426,17.71,17.71,0,0,1,.371-5.75c-1.126,2.012-1.5,4.346-2.122,6.569s-1.614,4.5-3.531,5.768a30.471,30.471,0,0,1,.282-8.71,26.443,26.443,0,0,1,2.533-6.913,20.531,20.531,0,0,1,4.566-6.4c3.318-2.929,4.7-1.668,6.823-.552l.251.106c.007-.052.01-.1.017-.157l.1-.455a31.544,31.544,0,0,1,16.738.789c3.994,1.312,4.36,9.98,5.335,5.861.59-2.492,3.795-.217,3.834-.145,4.711,8.564,9.7,22.149,9.932,43.616Z" transform="translate(-2.867)" fill="#263238"/>
        <path id="Trazado_807156" data-name="Trazado 807156" d="M406.548,57.176a10.577,10.577,0,0,0-7.324-3.593,7.978,7.978,0,0,0-7.072,3.712,6.535,6.535,0,0,0,.871,7.767l3.48,2.807a9.463,9.463,0,0,0,7.9.773,6.924,6.924,0,0,0,4.462-6.32,8.176,8.176,0,0,0-2.322-5.146" transform="translate(-3.09)" fill="#263238"/>
        <path id="Trazado_807157" data-name="Trazado 807157" d="M403.862,72.749c-.674.317-2.578-2.624-5.98-4.935-3.35-2.39-6.752-3.144-6.7-3.892.03-.34.987-.614,2.54-.453a13.006,13.006,0,0,1,9.658,6.725c.7,1.407.785,2.407.479,2.555" transform="translate(-3.089)" fill="#455a64"/>
        <path id="Trazado_807158" data-name="Trazado 807158" d="M355.041,166.042l13.036-12.307,8.832,14.141c-.176,1.268-11.433,25.719-16.307,30.785-5.561,5.781-13.141,5.334-16.486-2.648-2.637-6.293-7.013-25.669-7.013-25.669Z" transform="translate(-2.662)" fill="#59bee2"/>
        <path id="Trazado_807159" data-name="Trazado 807159" d="M369.355,129.026c-3.114,1.131-10.276,5.077-12.364,7.667a19.827,19.827,0,0,0-2.633,4.1c-1.631,3.617-4.73,30.434-4.73,30.434l13.884,10.135,12.088-46.9-.772-7.438Z" transform="translate(-2.761)" fill="#59bee2"/>
        <path id="Trazado_807160" data-name="Trazado 807160" d="M364.844,206.447l.874-6.927a226.828,226.828,0,0,1-3.659-23.091c-1.563-17.06,2.85-27.662,3.454-29.46.342-1.019,9.409-19.948,9.409-19.948s1.9,5.831,9.555,4.452c10.669-1.923,14.556-7.753,14.556-7.753l13.785,3s5.371,21.743,6.162,28.947c.424,3.862-4.625,25.692-4.625,25.692l8.13,12.259c.243.6-3.532,17.356-4.27,18.048s-13.964,3.788-14.128,4.358-25.211,11.14-25.2,10.708-12.051-14.879-12.051-14.879Z" transform="translate(-2.856)" fill="#59bee2"/>
        <path id="Trazado_807161" data-name="Trazado 807161" d="M361.714,149.571a1.976,1.976,0,0,1-.033.507c-.046.388-.1.863-.17,1.438-.148,1.248-.357,3.055-.541,5.294a76.583,76.583,0,0,0,.323,17.485c.892,6.8,2.193,12.876,3.032,17.295.427,2.209.752,4,.959,5.243.088.573.161,1.046.22,1.433a1.853,1.853,0,0,1,.042.506,1.941,1.941,0,0,1-.144-.487c-.085-.382-.19-.848-.316-1.414-.282-1.307-.66-3.067-1.12-5.207-.93-4.4-2.29-10.475-3.186-17.3a70.968,70.968,0,0,1-.175-17.588c.23-2.242.5-4.046.7-5.288.106-.621.2-1.1.267-1.426a1.817,1.817,0,0,1,.135-.49" transform="translate(-2.844)" fill="#263238"/>
        <path id="Trazado_807162" data-name="Trazado 807162" d="M424.874,203.493c2.471,4.228,8.115,20.411,10.309,28.676,10.011,37.715,18.482,88.435,21.294,98.771,3.749,13.773,12.142,44.934,16.414,65.686l-20.517,9.019s-26.872-72.985-34.2-90.919c-7.6-18.583-20.27-53.636-20.27-53.636l-7.322,139.034-19.655.612s-6.721-39.177-9.393-62.593-2.971-71.616-2.993-83.849c-.027-14.9,6.378-48.41,6.378-48.41s7.666,5.8,22.041,3.579c11.448-1.768,35.182-10.644,35.182-10.644Z" transform="translate(-2.831)" fill="#263238"/>
        <path id="Trazado_807163" data-name="Trazado 807163" d="M385.129,214.288a9.644,9.644,0,0,0,.115,1.6c.105,1.023.284,2.5.525,4.326.48,3.648,1.233,8.677,2.212,14.205s2.006,10.511,2.81,14.1c.4,1.795.743,3.244,1,4.241a9.563,9.563,0,0,0,.441,1.537,9.581,9.581,0,0,0-.247-1.581c-.215-1.1-.5-2.536-.836-4.273-.712-3.607-1.679-8.592-2.66-14.116s-1.787-10.535-2.359-14.167c-.279-1.747-.509-3.2-.686-4.3a9.659,9.659,0,0,0-.311-1.569" transform="translate(-3.041)" fill="#455a64"/>
        <path id="Trazado_807164" data-name="Trazado 807164" d="M392.168,214c.028,0-.031-.249-.383-.4a2.49,2.49,0,0,0-1.5-.049,2.99,2.99,0,0,0-.98.4,1.662,1.662,0,0,0-.671,1.1,2.544,2.544,0,0,0,1.126,2.517,2.572,2.572,0,0,0,2.738.124,1.8,1.8,0,0,0,.756-1.028,2.581,2.581,0,0,0,.073-1.072,2.165,2.165,0,0,0-.662-1.36c-.283-.237-.5-.254-.5-.23-.019.042.157.124.359.371a2.192,2.192,0,0,1,.443,1.254,1.75,1.75,0,0,1-.715,1.66,2.149,2.149,0,0,1-2.212-.151,2.106,2.106,0,0,1-.94-2.006,1.243,1.243,0,0,1,.452-.829,2.826,2.826,0,0,1,.826-.4,2.68,2.68,0,0,1,1.338-.114c.309.072.41.24.448.215" transform="translate(-3.069)" fill="#455a64"/>
        <path id="Trazado_807165" data-name="Trazado 807165" d="M379.526,249.348a19.185,19.185,0,0,0,2.377,1.643c1.487.98,3.521,2.36,5.7,3.978s4.087,3.173,5.456,4.315a19.268,19.268,0,0,0,2.26,1.8,13.94,13.94,0,0,0-2.023-2.079,67.8,67.8,0,0,0-11.2-8.328,13.809,13.809,0,0,0-2.568-1.333" transform="translate(-2.997)" fill="#455a64"/>
        <path id="Trazado_807166" data-name="Trazado 807166" d="M429.686,324.556a2.7,2.7,0,0,0,.85.029c.546-.011,1.333-.071,2.3-.182a40.928,40.928,0,0,0,14.489-4.577c.859-.466,1.54-.871,1.994-1.176s.7-.481.682-.512a30.206,30.206,0,0,0-2.839,1.363,51.422,51.422,0,0,1-14.376,4.541,30.448,30.448,0,0,0-3.1.514" transform="translate(-3.393)" fill="#455a64"/>
        <path id="Trazado_807167" data-name="Trazado 807167" d="M433.045,322.441a7.664,7.664,0,0,0,2.013-.54c1.217-.41,2.878-1.047,4.666-1.858s3.362-1.642,4.474-2.289a7.721,7.721,0,0,0,1.736-1.16c-.074-.131-2.865,1.372-6.421,2.979s-6.517,2.725-6.469,2.868" transform="translate(-3.42)" fill="#455a64"/>
        <path id="Trazado_807168" data-name="Trazado 807168" d="M370.731,386.317l-.1,20.641s-20.849,6.826-21.236,10.639l39.7,1.638,1.47-32.154Z" transform="translate(-2.759)" fill="#263238"/>
        <path id="Trazado_807169" data-name="Trazado 807169" d="M383.225,405.73a1.636,1.636,0,0,1,1.045,1.911,1.557,1.557,0,0,1-1.87,1.061,1.727,1.727,0,0,1-1.1-2.03,1.613,1.613,0,0,1,2.067-.886" transform="translate(-3.01)" fill="#e0e0e0"/>
        <path id="Trazado_807170" data-name="Trazado 807170" d="M389.089,419.235l.022-3.247-38.069-.357s-1.8.7-1.651,1.965Z" transform="translate(-2.759)" fill="#455a64"/>
        <path id="Trazado_807171" data-name="Trazado 807171" d="M370.157,406.727c0,.2.964.324,1.892.992.946.643,1.4,1.51,1.584,1.44.181-.031-.062-1.211-1.2-2s-2.313-.614-2.278-.433" transform="translate(-2.923)" fill="#fff"/>
        <path id="Trazado_807172" data-name="Trazado 807172" d="M365.889,408.291c-.052.187.774.554,1.4,1.408.65.835.78,1.735.973,1.735.181.038.361-1.1-.436-2.147s-1.925-1.182-1.937-1" transform="translate(-2.889)" fill="#fff"/>
        <path id="Trazado_807173" data-name="Trazado 807173" d="M363.288,413.217c.175.049.484-.916.03-2.007s-1.343-1.554-1.432-1.394c-.117.156.448.754.808,1.655.381.893.4,1.719.594,1.746" transform="translate(-2.858)" fill="#fff"/>
        <path id="Trazado_807174" data-name="Trazado 807174" d="M370.7,402.026c.074.182.974-.051,2.067.069,1.1.1,1.933.5,2.041.34.118-.137-.686-.894-1.974-1.018s-2.222.451-2.133.609" transform="translate(-2.927)" fill="#fff"/>
        <path id="Trazado_807175" data-name="Trazado 807175" d="M465.268,384.151l7.6,23.767,11.392,17.05a2.571,2.571,0,0,1-.834,3.644,2.508,2.508,0,0,1-2.321.115c-4.763-2.2-22.242-10.379-22.7-12.149-.532-2.051-9.672-24.533-9.672-24.533Z" transform="translate(-3.543)" fill="#263238"/>
        <path id="Trazado_807176" data-name="Trazado 807176" d="M483.5,428.612l-25.572-13.626.345,1a3.842,3.842,0,0,0,1.67,2.058c2.093,1.239,7.948,4.532,21.166,10.709a2.519,2.519,0,0,0,2.392-.141" transform="translate(-3.616)" fill="#455a64"/>
        <g id="Grupo_1067117" data-name="Grupo 1067117" transform="translate(454.65 405.628)" opacity="0.6">
          <g id="Grupo_1067116" data-name="Grupo 1067116">
            <g id="Grupo_1067115" data-name="Grupo 1067115" clip-path="url(#clip-path-10)">
              <path id="Trazado_807177" data-name="Trazado 807177" d="M460.11,405.694a1.55,1.55,0,0,1,1.057,1.77,1.477,1.477,0,0,1-1.732,1.071,1.634,1.634,0,0,1-1.108-1.881,1.528,1.528,0,0,1,1.924-.912" transform="translate(-458.269 -405.628)" fill="#fff"/>
            </g>
          </g>
        </g>
        <path id="Trazado_807178" data-name="Trazado 807178" d="M474.73,420.183a7.809,7.809,0,0,1,1.419-2.554,7.728,7.728,0,0,1,2.514-1.464c0-.065-.359-.145-.933-.031a3.953,3.953,0,0,0-1.969,1.11,4,4,0,0,0-1.073,2c-.105.581-.022.942.043.941" transform="translate(-3.748)" fill="#fff"/>
        <path id="Trazado_807179" data-name="Trazado 807179" d="M477.51,422.756c.147.063.633-.967,1.722-1.741a20.637,20.637,0,0,1,2.183-1.1,2.8,2.8,0,0,0-2.5.653c-1.237.89-1.548,2.165-1.4,2.186" transform="translate(-3.77)" fill="#fff"/>
        <path id="Trazado_807180" data-name="Trazado 807180" d="M470.2,417.223a13.071,13.071,0,0,1,5.668-4.9,5.6,5.6,0,0,0-3.544,1.617,5.679,5.679,0,0,0-2.124,3.284" transform="translate(-3.713)" fill="#fff"/>
        <path id="Trazado_807181" data-name="Trazado 807181" d="M467.262,410.192c.111.119,1.216-.878,2.877-1.529,1.652-.675,3.135-.712,3.134-.876a6.277,6.277,0,0,0-6.011,2.4" transform="translate(-3.69)" fill="#fff"/>
        <path id="Trazado_807182" data-name="Trazado 807182" d="M464.835,403.273a8.015,8.015,0,0,1,6.327-1.975c.021-.063-.336-.269-.984-.394a5.5,5.5,0,0,0-4.751,1.483c-.464.472-.644.846-.591.886" transform="translate(-3.671)" fill="#fff"/>
        <path id="Trazado_807183" data-name="Trazado 807183" d="M467.275,400.3a2.172,2.172,0,0,0-.276-.9,6.56,6.56,0,0,0-1.51-2.09,2.878,2.878,0,0,0-1.623-.9,1.019,1.019,0,0,0-1.011.6,1.684,1.684,0,0,0,0,1.194,3.581,3.581,0,0,0,4.061,2.119,4.18,4.18,0,0,0,3.145-3.426,1.463,1.463,0,0,0-.33-1.166.994.994,0,0,0-1.163-.158,3.575,3.575,0,0,0-1.263,1.348,7.379,7.379,0,0,0-.964,2.393,2.272,2.272,0,0,0-.078.941,11.725,11.725,0,0,1,1.364-3.12,3.322,3.322,0,0,1,1.129-1.148.529.529,0,0,1,.634.082,1,1,0,0,1,.173.779,3.732,3.732,0,0,1-2.76,2.939,3.109,3.109,0,0,1-3.473-1.748,1.225,1.225,0,0,1-.034-.834.553.553,0,0,1,.554-.338,2.606,2.606,0,0,1,1.388.738,9.684,9.684,0,0,1,2.041,2.7" transform="translate(-3.654)" fill="#fff"/>
        <path id="Trazado_807184" data-name="Trazado 807184" d="M339.711,149.571l9.468,9.857.384,8.583-10.989,2.547h-.56l-.71-5.54-6.334-8.487Z" transform="translate(-2.614)" fill="#ae7461"/>
        <path id="Trazado_807185" data-name="Trazado 807185" d="M328.776,142.44a57.326,57.326,0,0,1-81.48,2.687A58.5,58.5,0,0,1,244.629,63a57.326,57.326,0,0,1,81.48-2.687,58.479,58.479,0,0,1,2.666,82.131m-78.841-.154a53.487,53.487,0,0,0,76.023-2.506,54.52,54.52,0,0,0-2.486-76.63,53.488,53.488,0,0,0-76.024,2.506,54.56,54.56,0,0,0,2.487,76.63" transform="translate(-1.809)" fill="#455a64"/>
        <path id="Trazado_807186" data-name="Trazado 807186" d="M328.776,142.44a57.326,57.326,0,0,1-81.48,2.687A58.5,58.5,0,0,1,244.629,63a57.326,57.326,0,0,1,81.48-2.687,58.479,58.479,0,0,1,2.666,82.131m-78.841-.154a53.487,53.487,0,0,0,76.023-2.506,54.52,54.52,0,0,0-2.486-76.63,53.488,53.488,0,0,0-76.024,2.506,54.56,54.56,0,0,0,2.487,76.63" transform="translate(-1.809)" fill="#263238"/>
        <path id="Trazado_807187" data-name="Trazado 807187" d="M330.2,139.644a57.327,57.327,0,0,1-81.48,2.686,58.5,58.5,0,0,1-2.665-82.13,57.325,57.325,0,0,1,81.479-2.687,58.479,58.479,0,0,1,2.666,82.131m-78.841-.154a53.487,53.487,0,0,0,76.023-2.506,54.521,54.521,0,0,0-2.486-76.63,53.488,53.488,0,0,0-76.024,2.506,54.56,54.56,0,0,0,2.487,76.63" transform="translate(-1.82)" fill="#455a64"/>
        <path id="Trazado_807188" data-name="Trazado 807188" d="M394.93,212.994l1.834-1.789c1.636-1.6.718-5.244-1-7.015l-64.4-67.1-8.611,8.4,64.306,66.995c2.171,2.147,5.764,2.561,7.87.507" transform="translate(-2.549)" fill="#455a64"/>
        <path id="Trazado_807189" data-name="Trazado 807189" d="M335.632,145.181a1.506,1.506,0,0,0-1.3-.35,2.547,2.547,0,0,0-1.022.718,11.824,11.824,0,0,0-3.318,8.14c0,1.29.337,2.769,1.476,3.356l1.293-.754c.4-.522,1.6-1.394,1.758-2.035.67-2.7-.291-2.583,1.386-7.258a1.621,1.621,0,0,0-.271-1.817" transform="translate(-2.606)" fill="#ae7461"/>
        <path id="Trazado_807190" data-name="Trazado 807190" d="M335.35,149a6.425,6.425,0,0,1,1.281-1.7,1.851,1.851,0,0,1,1.7-.513c.893.283,1.327,1.578,1.225,2.783A10.558,10.558,0,0,1,338.45,153q-1.591,3.476-3.183,6.952l-.616-.457a.868.868,0,0,1-1.374-.305,3.713,3.713,0,0,1-.3-1.893A18.253,18.253,0,0,1,335.35,149" transform="translate(-2.629)" fill="#ae7461"/>
        <path id="Trazado_807191" data-name="Trazado 807191" d="M336.931,155.937a16.245,16.245,0,0,1,3.185-4.3,3.923,3.923,0,0,1,1.479-1.132,1.385,1.385,0,0,1,1.662.492,1.949,1.949,0,0,1-.225,1.705,79.838,79.838,0,0,1-5.476,9.693l-1.9-1.931c-.863-1.568.546-2.894,1.278-4.525" transform="translate(-2.648)" fill="#ae7461"/>
        <path id="Trazado_807192" data-name="Trazado 807192" d="M388.459,177.371,386.713,177l-9.138-7.85-5-4.234a3.037,3.037,0,0,0-1.464-.68l-4.949-.832a2.846,2.846,0,0,0,1.481,3.421l2.712,1.415,2.482,2.957-.317.64s-16.267,2.544-17.281,3.794a1.712,1.712,0,0,0,.451,2.616,2.613,2.613,0,0,0,1.241.113s-.79,1.934,1.579,3.525c0,0-1.806,2.388,1.353,3.525a5.113,5.113,0,0,0,2.707,2.388,116.266,116.266,0,0,0,12.522,1.706c1.015,0,11.661.017,11.661.017l2.341.386Z" transform="translate(-2.802)" fill="#ae7461"/>
        <path id="Trazado_807193" data-name="Trazado 807193" d="M356.571,178.385a12.877,12.877,0,0,0,4.5.244,17.872,17.872,0,0,0,4.451-.666,22.04,22.04,0,0,0-4.484.152,42.6,42.6,0,0,0-4.465.27" transform="translate(-2.816)" fill="#6f4439"/>
        <path id="Trazado_807194" data-name="Trazado 807194" d="M358.54,181.884c0,.073.423.131,1.1.222s1.616.219,2.675.285a22.991,22.991,0,0,0,2.7-.059,4.307,4.307,0,0,0,1.11-.1c.02-.074-.412-.218-1.106-.264-.7-.066-1.645-.024-2.673-.092s-1.987-.141-2.682-.134-1.124.073-1.123.142" transform="translate(-2.831)" fill="#6f4439"/>
        <path id="Trazado_807195" data-name="Trazado 807195" d="M359.578,185.337a19.126,19.126,0,0,0,4.386.593,10.373,10.373,0,0,1,3,.469c.717.272,1.044.66,1.108.6.049-.024-.2-.535-.958-.933a7.882,7.882,0,0,0-3.112-.652,19.124,19.124,0,0,0-4.425-.079" transform="translate(-2.839)" fill="#6f4439"/>
        <path id="Trazado_807196" data-name="Trazado 807196" d="M413.032,126.725s6.875,1.2,12.088,11.521c2.881,5.708,16.346,40.031,17.145,43.041,3.417,12.877-3.195,21.177-9.56,21.741-7.006.621-43.242-11.164-43.242-11.164l-.8-15.6,33.054,5.058-15.881-31.07s-.609-20.693,7.2-23.522" transform="translate(-3.069)" fill="#59bee2"/>
        <path id="Trazado_807197" data-name="Trazado 807197" d="M433.087,189.846a5.7,5.7,0,0,0-.889-2.08,13.944,13.944,0,0,0-8.665-6.232,5.589,5.589,0,0,0-2.239-.171c-.006.09.846.152,2.152.524a15.735,15.735,0,0,1,8.45,6.078c.774,1.124,1.109,1.916,1.191,1.881" transform="translate(-3.327)" fill="#263238"/>
        <path id="Trazado_807198" data-name="Trazado 807198" d="M423.625,201.691a.54.54,0,0,1-.171-.023l-.5-.107c-.439-.091-1.072-.282-1.9-.51-1.652-.482-4.057-1.224-7.084-2.2-6.054-1.947-14.607-4.794-24.662-8.223l-.153-.052-.009-.163c-.233-4.49-.488-9.385-.754-14.49l-.017-.319.314.051,8.131,1.326,24.927,4.1-.244.34c-4.494-8.869-8.289-16.357-10.978-21.664l-3.078-6.159-.8-1.64a3.836,3.836,0,0,1-.251-.575,3.977,3.977,0,0,1,.318.541l.863,1.607,3.194,6.1c2.73,5.285,6.582,12.742,11.143,21.576l.214.414-.458-.075-24.935-4.05-8.131-1.331.3-.268c.253,5.106.5,10,.719,14.493l-.161-.215,24.6,8.4L421.1,200.9c.82.25,1.448.466,1.877.581l.485.145a.6.6,0,0,1,.162.062" transform="translate(-3.067)" fill="#263238"/>
        <path id="Trazado_807199" data-name="Trazado 807199" d="M414.639,127.355c.049.083-.936.654-2.306,1.844a19.8,19.8,0,0,0-6.582,12.212c-.245,1.807-.185,2.949-.28,2.953a2.486,2.486,0,0,1-.116-.8,12.853,12.853,0,0,1,.033-2.2,17.356,17.356,0,0,1,.6-3.211,18.433,18.433,0,0,1,3.77-6.994,17.1,17.1,0,0,1,2.347-2.25,12.6,12.6,0,0,1,1.811-1.223,2.428,2.428,0,0,1,.727-.337" transform="translate(-3.201)" fill="#263238"/>
      </g>
    </g>
    <g id="Grupo_1067130" data-name="Grupo 1067130">
      <g id="Grupo_1067129" data-name="Grupo 1067129" clip-path="url(#clip-path)">
        <path id="Trazado_807200" data-name="Trazado 807200" d="M30.415,148.375s-7.3,40.957-6.952,44.786,2.295,9.922,6.7,10.967a19.644,19.644,0,0,0,8.463,0l-5.29-50.307Z" transform="translate(-0.185)" fill="#ffc09d"/>
        <path id="Trazado_807201" data-name="Trazado 807201" d="M51.965,113.388l-.512-42.323c-.467-10.524,5.219-19.57,15.669-19.749l.966.04a18.758,18.758,0,0,1,17.9,18.075c.355,9.124.631,19.21.371,24.086-.538,10.094-10.623,11.248-10.623,11.248-.023,0-.063,6.144-.057,9.111l-8.065,11.278v.6Z" transform="translate(-0.406)" fill="#ffc09d"/>
        <path id="Trazado_807202" data-name="Trazado 807202" d="M75.828,104.765a24.082,24.082,0,0,1-12.886-4.431s2.827,7.724,12.863,7.231Z" transform="translate(-0.497)" fill="#ff9b6c"/>
        <path id="Trazado_807203" data-name="Trazado 807203" d="M83.026,78.145a1.437,1.437,0,0,1-1.44,1.4,1.376,1.376,0,0,1-1.422-1.362,1.438,1.438,0,0,1,1.439-1.4,1.375,1.375,0,0,1,1.423,1.363" transform="translate(-0.633)" fill="#263238"/>
        <path id="Trazado_807204" data-name="Trazado 807204" d="M83.889,73.8c-.186.181-1.236-.673-2.776-.733-1.538-.083-2.7.669-2.859.472-.078-.088.116-.42.623-.76a3.9,3.9,0,0,1,2.3-.611,3.764,3.764,0,0,1,2.2.818c.458.387.605.733.514.814" transform="translate(-0.618)" fill="#263238"/>
        <path id="Trazado_807205" data-name="Trazado 807205" d="M69.164,78.145a1.436,1.436,0,0,1-1.44,1.4A1.373,1.373,0,0,1,66.3,78.181a1.438,1.438,0,0,1,1.439-1.4,1.376,1.376,0,0,1,1.423,1.363" transform="translate(-0.524)" fill="#263238"/>
        <path id="Trazado_807206" data-name="Trazado 807206" d="M68.66,73.534c-.186.181-1.238-.673-2.777-.733-1.537-.082-2.7.669-2.859.472-.078-.087.115-.419.623-.76a3.916,3.916,0,0,1,2.3-.611,3.768,3.768,0,0,1,2.2.819c.457.386.6.733.514.813" transform="translate(-0.498)" fill="#263238"/>
        <path id="Trazado_807207" data-name="Trazado 807207" d="M73.778,85.69a10.194,10.194,0,0,1,2.52-.351c.395-.024.77-.087.847-.355a2.037,2.037,0,0,0-.214-1.186q-.5-1.461-1.039-3.066c-1.44-4.364-2.463-7.945-2.289-8s1.483,3.435,2.922,7.8c.345,1.077.676,2.1.989,3.083a2.308,2.308,0,0,1,.141,1.564.989.989,0,0,1-.671.552,2.62,2.62,0,0,1-.672.066,9.906,9.906,0,0,1-2.535-.1" transform="translate(-0.581)" fill="#263238"/>
        <path id="Trazado_807208" data-name="Trazado 807208" d="M69.352,68.7c-.225.387-1.7-.091-3.52-.206-1.816-.152-3.345.1-3.513-.311-.072-.2.249-.542.9-.836a6.089,6.089,0,0,1,5.358.394c.6.386.873.774.772.959" transform="translate(-0.492)" fill="#263238"/>
        <path id="Trazado_807209" data-name="Trazado 807209" d="M84.144,69.243c-.329.344-1.574-.055-3.082-.113-1.505-.1-2.791.163-3.076-.214-.124-.182.086-.53.653-.849a4.827,4.827,0,0,1,2.522-.511,4.756,4.756,0,0,1,2.441.774c.523.377.689.745.543.913" transform="translate(-0.616)" fill="#263238"/>
        <path id="Trazado_807210" data-name="Trazado 807210" d="M51.914,78.578c-.168-.082-6.8-2.339-6.864,4.575s6.836,5.552,6.848,5.354.016-9.929.016-9.929" transform="translate(-0.356)" fill="#ffc09d"/>
        <path id="Trazado_807211" data-name="Trazado 807211" d="M49.842,85.868c-.03-.022-.12.083-.323.175a1.191,1.191,0,0,1-.893.01,2.988,2.988,0,0,1-1.343-2.687,4.009,4.009,0,0,1,.35-1.721,1.385,1.385,0,0,1,.908-.916.607.607,0,0,1,.7.337c.089.194.045.331.081.344.019.017.148-.115.1-.4a.767.767,0,0,0-.266-.436.9.9,0,0,0-.659-.182,1.685,1.685,0,0,0-1.259,1.06,4.121,4.121,0,0,0-.432,1.923c.031,1.394.726,2.7,1.715,3a1.27,1.27,0,0,0,1.094-.172c.214-.169.252-.323.228-.336" transform="translate(-0.37)" fill="#ff9b6c"/>
        <path id="Trazado_807212" data-name="Trazado 807212" d="M68.9,86.651c.236-.015.246,1.573,1.6,2.694s3.029.938,3.043,1.16c.022.1-.372.31-1.081.333a3.9,3.9,0,0,1-2.539-.879,3.447,3.447,0,0,1-1.24-2.259c-.063-.664.11-1.058.218-1.049" transform="translate(-0.542)" fill="#263238"/>
        <path id="Trazado_807213" data-name="Trazado 807213" d="M99.753,60.335A1.634,1.634,0,0,0,99,59.37a4.967,4.967,0,0,0-2.561-.45,14.354,14.354,0,0,1-6.258-1.66,7.155,7.155,0,0,0,1.86-1.285,4.364,4.364,0,0,0,1.288-4.3.963.963,0,0,0-.531-.667c-.444-.143-.839.294-1.154.64A3.692,3.692,0,0,1,88.138,53.1a6.04,6.04,0,0,1-2.6-.807c-.03-.031-.056-.066-.085-.1-.352-.375-.7-.734-1.036-1.081l0,0v0c-2.552-2.609-4.75-4.422-7.025-5.375a23.131,23.131,0,0,0-12.429-1.129c-3.5.883-6.671,3.7-7.2,7.3-1.94-1.691-4.879-1.711-7.275-.772l-.06-.027c-2.667.924-4.208,3.735-5.022,6.456-.045.149-.083.3-.126.45a10.557,10.557,0,0,1-3.613,3.477c-.259.148-.556.329-.589.627s.209.542.447.718a5.288,5.288,0,0,0,2.139.925,12,12,0,0,1-.9,1.871c-.306.508-.669,1.117-.413,1.652a1.119,1.119,0,0,0,1.167.529,3.281,3.281,0,0,0,1.243-.55q-.457,1.066-.913,2.134a6.22,6.22,0,0,0,2.891-.161c.536,2.56.906,7.293,1.539,9.031,1.821.053,2.265-.142,3.18.176,1.184.411.706,2.525,2.259,1.941.79-.3,2.032-3.29,2.3-4.1A39.77,39.77,0,0,0,57.908,59.6a12.6,12.6,0,0,1,3.92-2.784l-.12.107c2.816-.95,6-1.879,8.645-.522,2.053,1.054,3.241,3.226,4.765,4.967a14.321,14.321,0,0,0,10.537,5.318c.358,3.057.419,8.05.535,10.9l2.477-5.673v.023c.2-.332.364-.667.523-1l.055-.1v-.013a17.891,17.891,0,0,1,.814-1.611l.027.025a1.771,1.771,0,0,0,2.606-2.35,4.016,4.016,0,0,0-.843-.875,2.777,2.777,0,0,0,2.652.726,2.205,2.205,0,0,0,1.574-2.167,1.877,1.877,0,0,0-1.093-1.519,6.256,6.256,0,0,0,3.588-.754c.711-.4,1.412-1.059,1.183-1.958" transform="translate(-0.324)" fill="#263238"/>
        <path id="Trazado_807214" data-name="Trazado 807214" d="M60.952,53.107a8.642,8.642,0,0,0-1.017.917,7.287,7.287,0,0,0-1.579,3.342,12.912,12.912,0,0,0-.286,2.568c-.014.932.049,1.93.108,2.983a27,27,0,0,1,.038,3.319,11.781,11.781,0,0,1-.246,1.748,3.665,3.665,0,0,1-.728,1.69,1.508,1.508,0,0,1-1.422.463,2.25,2.25,0,0,1-1.267-.74,5.275,5.275,0,0,1-.938-2.584l.21.028a8.487,8.487,0,0,1-1.246,2.106A2.98,2.98,0,0,1,50.616,70a1.91,1.91,0,0,1-1.033-.194,1.678,1.678,0,0,1-.7-.706,1.751,1.751,0,0,1-.2-.9,1.265,1.265,0,0,1,.331-.783l.105.1a6.466,6.466,0,0,1-2.175,1.606,5.764,5.764,0,0,1-.671.254,1.112,1.112,0,0,1-.24.057,1.167,1.167,0,0,1,.227-.1c.15-.06.373-.148.651-.286a6.667,6.667,0,0,0,2.1-1.631l.105.1a1.307,1.307,0,0,0-.083,1.5,1.51,1.51,0,0,0,.629.625,1.735,1.735,0,0,0,.937.165,2.8,2.8,0,0,0,1.823-1,8.345,8.345,0,0,0,1.2-2.061l.149-.323.063.352a5.092,5.092,0,0,0,.893,2.468,2.027,2.027,0,0,0,1.133.662,1.271,1.271,0,0,0,1.209-.393,3.464,3.464,0,0,0,.672-1.581,11.729,11.729,0,0,0,.245-1.711,27.45,27.45,0,0,0-.025-3.291c-.053-1.053-.109-2.055-.086-3a12.8,12.8,0,0,1,.318-2.6,7.175,7.175,0,0,1,1.674-3.367,4.062,4.062,0,0,1,1.084-.854" transform="translate(-0.364)" fill="#455a64"/>
        <path id="Trazado_807215" data-name="Trazado 807215" d="M92.018,63.309a.374.374,0,0,1-.081.068l-.253.182a3.347,3.347,0,0,1-.428.269,5.377,5.377,0,0,1-.615.318,8.846,8.846,0,0,1-4.306.729A11.319,11.319,0,0,1,80.3,62.551a19.823,19.823,0,0,1-5.136-6.107c-.716-1.233-1.3-2.5-1.941-3.664a13.429,13.429,0,0,0-2.208-3.106,6.846,6.846,0,0,0-2.872-1.8,4.872,4.872,0,0,0-1.524-.194,5.364,5.364,0,0,0-1.4.254,5.814,5.814,0,0,0-3.257,2.715,7.093,7.093,0,0,0-.536,1.511.357.357,0,0,1,.009-.106l.052-.31a5.11,5.11,0,0,1,.394-1.138,5.772,5.772,0,0,1,1.141-1.523,5.878,5.878,0,0,1,2.145-1.308,5.5,5.5,0,0,1,1.445-.277,5.005,5.005,0,0,1,1.584.188,7.009,7.009,0,0,1,2.971,1.836,13.5,13.5,0,0,1,2.257,3.149c.651,1.176,1.232,2.436,1.943,3.658a19.831,19.831,0,0,0,5.062,6.05,11.265,11.265,0,0,0,5.917,2.333,8.976,8.976,0,0,0,4.256-.648,13.957,13.957,0,0,0,1.414-.752" transform="translate(-0.485)" fill="#455a64"/>
        <path id="Trazado_807216" data-name="Trazado 807216" d="M93.148,58.873a1.58,1.58,0,0,1-.363.249,7.719,7.719,0,0,1-1.072.533,10.231,10.231,0,0,1-1.694.539,10.855,10.855,0,0,1-4.334.091,10.319,10.319,0,0,1-1.714-.469,7.749,7.749,0,0,1-1.093-.488,1.6,1.6,0,0,1-.372-.233c.02-.04.57.254,1.519.563a11.836,11.836,0,0,0,1.7.412,11.6,11.6,0,0,0,4.251-.089,11.769,11.769,0,0,0,1.68-.482c.935-.348,1.473-.665,1.5-.626" transform="translate(-0.652)" fill="#455a64"/>
        <path id="Trazado_807217" data-name="Trazado 807217" d="M66.592,380.128,65.6,402.984s22.714,8.692,22.94,12.934l-44.036-.346.094-35.677Z" transform="translate(-0.351)" fill="#455a64"/>
        <path id="Trazado_807218" data-name="Trazado 807218" d="M52.048,400.954a1.815,1.815,0,0,0-1.26,2.059,1.729,1.729,0,0,0,2.014,1.276,1.912,1.912,0,0,0,1.322-2.187,1.788,1.788,0,0,0-2.24-1.093" transform="translate(-0.401)" fill="#e0e0e0"/>
        <g id="Grupo_1067122" data-name="Grupo 1067122" transform="translate(44.154 411.976)" opacity="0.6">
          <g id="Grupo_1067121" data-name="Grupo 1067121">
            <g id="Grupo_1067120" data-name="Grupo 1067120" clip-path="url(#clip-path-12)">
              <path id="Trazado_807219" data-name="Trazado 807219" d="M44.505,415.572l.149-3.6,42.165,1.676s1.953.876,1.721,2.266Z" transform="translate(-44.505 -411.976)" fill="#fff"/>
            </g>
          </g>
        </g>
        <path id="Trazado_807220" data-name="Trazado 807220" d="M66.457,402.764c-.009.217-1.084.307-2.148.995-1.081.661-1.634,1.6-1.831,1.508-.2-.044.133-1.337,1.435-2.148s2.593-.554,2.545-.355" transform="translate(-0.493)" fill="#263238"/>
        <path id="Trazado_807221" data-name="Trazado 807221" d="M71.107,404.726c.048.21-.886.572-1.624,1.483-.764.889-.955,1.879-1.17,1.867-.2.033-.341-1.238.6-2.353s2.194-1.2,2.2-1" transform="translate(-0.538)" fill="#263238"/>
        <path id="Trazado_807222" data-name="Trazado 807222" d="M73.729,410.318c-.2.045-.486-1.041.074-2.223s1.571-1.647,1.661-1.466c.12.179-.538.811-.984,1.789-.468.967-.538,1.881-.751,1.9" transform="translate(-0.58)" fill="#263238"/>
        <path id="Trazado_807223" data-name="Trazado 807223" d="M66.1,397.53c-.091.2-1.076-.11-2.292-.036-1.218.049-2.167.452-2.278.265-.123-.157.807-.952,2.24-1.019s2.437.62,2.329.79" transform="translate(-0.486)" fill="#263238"/>
        <path id="Trazado_807224" data-name="Trazado 807224" d="M66.7,397.271a37.452,37.452,0,0,1,.061,5.5l-.176-.271c2.572.984,5.992,2.312,9.625,4.039a51.554,51.554,0,0,1,9.758,5.665,10.48,10.48,0,0,1,2.414,2.478c.458.712.4,1.258.325,1.231a3.105,3.105,0,0,0-.562-1.066,12.3,12.3,0,0,0-2.492-2.224,63.79,63.79,0,0,0-9.756-5.411c-3.609-1.716-6.992-3.1-9.516-4.192l-.187-.081.011-.19a37.409,37.409,0,0,1,.494-5.482" transform="translate(-0.523)" fill="#263238"/>
        <path id="Trazado_807225" data-name="Trazado 807225" d="M38.064,220.75v20.714l8.107,66.148s-2.571,31.021-4.148,48.531c-1.37,15.208.87,41.691.87,41.691H66.927l8.6-88.323,5.338-55.083L90.545,221.8Z" transform="translate(-0.301)" fill="#263238"/>
        <path id="Trazado_807226" data-name="Trazado 807226" d="M80.775,376.162l-6.295,21.98s20.051,13.832,19.281,18.008L51.04,405.378l8.414-34.654Z" transform="translate(-0.403)" fill="#455a64"/>
        <path id="Trazado_807227" data-name="Trazado 807227" d="M61.805,392.946a1.8,1.8,0,0,0-1.7,1.7,1.736,1.736,0,0,0,1.66,1.718,1.906,1.906,0,0,0,1.8-1.813c-.082-.886-1.067-1.811-1.923-1.593" transform="translate(-0.475)" fill="#e0e0e0"/>
        <g id="Grupo_1067125" data-name="Grupo 1067125" transform="translate(50.637 401.919)" opacity="0.6">
          <g id="Grupo_1067124" data-name="Grupo 1067124">
            <g id="Grupo_1067123" data-name="Grupo 1067123" clip-path="url(#clip-path-13)">
              <path id="Trazado_807228" data-name="Trazado 807228" d="M51.041,405.378l.982-3.459L92.617,413.54s1.695,1.314,1.144,2.61Z" transform="translate(-51.041 -401.919)" fill="#fff"/>
            </g>
          </g>
        </g>
        <path id="Trazado_807229" data-name="Trazado 807229" d="M75.384,398.1c-.059.209-1.126.041-2.32.458-1.205.386-1.96,1.164-2.132,1.032-.183-.09.441-1.268,1.9-1.748s2.649.076,2.556.258" transform="translate(-0.56)" fill="#263238"/>
        <path id="Trazado_807230" data-name="Trazado 807230" d="M79.441,401.1c0,.216-1,.345-1.924,1.056-.95.683-1.368,1.6-1.573,1.538-.2-.016-.043-1.284,1.129-2.145s2.414-.651,2.368-.449" transform="translate(-0.599)" fill="#263238"/>
        <path id="Trazado_807231" data-name="Trazado 807231" d="M80.681,407.143c-.2,0-.23-1.127.591-2.143s1.911-1.229,1.955-1.031c.075.2-.711.66-1.373,1.505-.682.829-.961,1.7-1.174,1.669" transform="translate(-0.636)" fill="#263238"/>
        <path id="Trazado_807232" data-name="Trazado 807232" d="M76.274,392.928c-.135.17-1.02-.362-2.219-.578-1.194-.242-2.211-.074-2.275-.282-.083-.182,1.006-.735,2.415-.459s2.223,1.18,2.079,1.319" transform="translate(-0.567)" fill="#263238"/>
        <path id="Trazado_807233" data-name="Trazado 807233" d="M99.935,222.163l1.1,11.266-1.332,81.806L80.684,380.951l-4.608,15.937-24.552-4.66L70.448,222.186Z" transform="translate(-0.407)" fill="#263238"/>
        <path id="Trazado_807234" data-name="Trazado 807234" d="M99.19,316.949s-.026.133-.093.389-.176.644-.31,1.135c-.285,1.014-.7,2.489-1.237,4.4-1.1,3.854-2.7,9.457-4.713,16.521L76.28,396.949l-.055.189-.192-.036L51.48,392.453l-.225-.042.043-.227c1.253-6.668,2.562-13.636,3.9-20.741l10.974-58.234v.071C62.1,287.554,58.859,267.038,57,255.259l.011.031c-1.785-3.274-3.162-5.8-4.1-7.519q-.685-1.272-1.046-1.944c-.232-.438-.34-.668-.34-.668s.137.213.384.643l1.088,1.921,4.18,7.474.008.015,0,.017C59.091,267,62.41,287.5,66.573,313.214l.006.036-.007.036c-3.253,17.345-6.976,37.2-10.924,58.243-1.336,7.105-2.647,14.073-3.9,20.741L51.565,392l24.549,4.673-.247.153c6.8-23.4,12.608-43.369,16.717-57.507,2.067-7.049,3.7-12.64,4.832-16.486.566-1.9,1-3.372,1.3-4.381l.344-1.126c.079-.252.128-.378.128-.378" transform="translate(-0.405)" fill="#455a64"/>
        <path id="Trazado_807235" data-name="Trazado 807235" d="M95.768,228.872a7.785,7.785,0,0,1-1.336,1.977,18.057,18.057,0,0,1-9.668,5.938,7.609,7.609,0,0,1-2.355.29A26.335,26.335,0,0,0,89.83,234.2a26.6,26.6,0,0,0,5.938-5.33" transform="translate(-0.651)" fill="#455a64"/>
        <path id="Trazado_807236" data-name="Trazado 807236" d="M148.51,105.432a1.052,1.052,0,0,0-.231-1.443.509.509,0,0,0-.368-.109c-.491.082-1.785,1.034-2.781,1.051s-2.69-.291-3.686.641-3.424,6.044-3.732,7.153-1.388,10.858-1.388,10.858Z" transform="translate(-1.076)" fill="#ffc09d"/>
        <path id="Trazado_807237" data-name="Trazado 807237" d="M152.7,104.154c-.054.061-11.915,5.338-17.125,7.654a1.791,1.791,0,0,0-.507,2.929,1.842,1.842,0,0,0,2.12.332l17.023-8.36,1.4-2.149Z" transform="translate(-1.062)" fill="#263238"/>
        <path id="Trazado_807238" data-name="Trazado 807238" d="M140.14,114.914l3.782-2.808,4.994-7.3s2.044-1.225,3.1-.453,1.406,1.663.914,2.661c0,0,2.821.679,3.023,1.631a10.95,10.95,0,0,1-.409,3.269,5.781,5.781,0,0,1,.022,2.721,4.405,4.405,0,0,0-.356,1.756s1.827,2.254,1.042,4.559-4.082,7.448-5.843,8.778a38.219,38.219,0,0,1-5.1,2.923l-2.18,4.6-9.044-8.254Z" transform="translate(-1.059)" fill="#ffc09d"/>
        <path id="Trazado_807239" data-name="Trazado 807239" d="M148.813,105.116a2.252,2.252,0,0,1-.227.394l-.674,1.034c-.576.869-1.381,2.062-2.281,3.372l-1.277,1.845a4.577,4.577,0,0,1-.648.751,3.151,3.151,0,0,1-.726.474,5.978,5.978,0,0,1-1.171.4,2.048,2.048,0,0,1-.444.082,2.243,2.243,0,0,1,.426-.152,7.358,7.358,0,0,0,1.133-.444c.975-.413,1.623-1.786,2.556-3.058.9-1.311,1.721-2.492,2.324-3.342l.722-1a2.144,2.144,0,0,1,.287-.353" transform="translate(-1.116)" fill="#ff9b6c"/>
        <path id="Trazado_807240" data-name="Trazado 807240" d="M150.043,112.712a28.174,28.174,0,0,1,1.457-2.871,27.9,27.9,0,0,1,1.619-2.781,28.043,28.043,0,0,1-1.457,2.871,28.039,28.039,0,0,1-1.619,2.781" transform="translate(-1.185)" fill="#ff9b6c"/>
        <path id="Trazado_807241" data-name="Trazado 807241" d="M151.225,117.277c-.029,0-.043-.164-.135-.4a1.621,1.621,0,0,0-1.5-1.056c-.253-.008-.411.034-.42,0s.141-.109.416-.137a1.542,1.542,0,0,1,1.632,1.148c.067.27.032.442.011.441" transform="translate(-1.178)" fill="#ff9b6c"/>
        <path id="Trazado_807242" data-name="Trazado 807242" d="M155.452,118.645c-.018.02-.157-.085-.373-.258a4.437,4.437,0,0,0-.884-.582,1.682,1.682,0,0,0-1-.164,1.01,1.01,0,0,0-.374.192c-.027,0,.042-.22.338-.319a1.567,1.567,0,0,1,1.11.122,3.111,3.111,0,0,1,.894.653c.2.2.3.338.287.356" transform="translate(-1.207)" fill="#ff9b6c"/>
        <path id="Trazado_807243" data-name="Trazado 807243" d="M153.84,114.8a7.952,7.952,0,0,1,.829-1.494,7.871,7.871,0,0,1,.985-1.395,15.814,15.814,0,0,1-1.815,2.889" transform="translate(-1.215)" fill="#ff9b6c"/>
        <path id="Trazado_807244" data-name="Trazado 807244" d="M146.518,115.138c-.03,0-.025-.158-.094-.385a1.434,1.434,0,0,0-.511-.736,1.456,1.456,0,0,0-.853-.265c-.237,0-.383.05-.394.023s.125-.117.384-.154a1.337,1.337,0,0,1,1.5,1.1c.042.26-.012.419-.033.415" transform="translate(-1.142)" fill="#ff9b6c"/>
        <path id="Trazado_807245" data-name="Trazado 807245" d="M136.552,115.112c-.021-.025.164-.167.326-.484a1.66,1.66,0,0,0,.088-1.325,1.733,1.733,0,0,0-.941-.939c-.327-.137-.56-.132-.559-.164a.9.9,0,0,1,.6.04,1.725,1.725,0,0,1,1.068,1,1.665,1.665,0,0,1-.148,1.457c-.208.327-.432.436-.439.419" transform="translate(-1.07)" fill="#455a64"/>
        <path id="Trazado_807246" data-name="Trazado 807246" d="M104.344,138.186l14.346,12.376L136.3,124.044l11.451,6.808s-17.162,39.821-21.813,43.339-8.576,2.606-14.56-.179-27.3-24.417-27.3-24.417Z" transform="translate(-0.664)" fill="#ffc09d"/>
        <path id="Trazado_807247" data-name="Trazado 807247" d="M119.474,161.567c-.141-.022.25-2.522.076-5.611-.154-3.091-.807-5.535-.67-5.571a19.176,19.176,0,0,1,.593,11.182" transform="translate(-0.939)" fill="#ff9b6c"/>
        <path id="Trazado_807248" data-name="Trazado 807248" d="M45.312,117.931s12.2.178,12.374,15.5S54.58,169.25,54.58,169.25l-31.129-5.53s3.861-28.525,7.158-36.74c3.318-8.268,9.655-10.442,14.7-9.049" transform="translate(-0.185)" fill="#74c67b"/>
        <path id="Trazado_807249" data-name="Trazado 807249" d="M51.174,106.9l-.388,2.5s-16.638,11.08-17.578,13.941c-1.459,4.434,1.721,41.892,3.126,52.508s1.689,34.014,1.689,34.014c-1.021,2.755-2.182,5.241-2.566,9.087-.381,3.813,2.566,7.293,2.566,7.293,17.852,5.872,39.659,1.364,63.252-4.058l-.222-6.741-7.713-73.231s2.247-19.034-6.965-24.544c-1.012-.6-9.048-5.207-9.048-5.207Z" transform="translate(-0.259)" fill="#74c67b"/>
        <g id="Grupo_1067128" data-name="Grupo 1067128" transform="translate(77.669 138.647)" opacity="0.3">
          <g id="Grupo_1067127" data-name="Grupo 1067127">
            <g id="Grupo_1067126" data-name="Grupo 1067126" clip-path="url(#clip-path-14)">
              <path id="Trazado_807250" data-name="Trazado 807250" d="M78.287,138.647a57.168,57.168,0,0,0,5.481,22.589,66.878,66.878,0,0,0,14,19.577l-2.5-21.912Z" transform="translate(-78.287 -138.647)"/>
            </g>
          </g>
        </g>
        <path id="Trazado_807251" data-name="Trazado 807251" d="M92.237,120.159c-2.917-2.379-8.342-3.672-11.437-1.533a9.378,9.378,0,0,0-3.755,4.66c-2.642,7.787-1.063,16.159,1.052,22.373s12.33,18.182,12.33,18.182L115.669,148.4s-16.895-20.641-18.657-22.773a44.832,44.832,0,0,0-4.775-5.467" transform="translate(-0.597)" fill="#74c67b"/>
        <path id="Trazado_807252" data-name="Trazado 807252" d="M92.236,120.159a4.436,4.436,0,0,1,.534.429,18.682,18.682,0,0,1,1.392,1.426c1.17,1.3,2.711,3.323,4.794,5.789l16.873,20.462.154.186-.206.127L91.926,163.2l-1.381.845-.169.1-.126-.151c-2.823-3.363-5.446-6.743-7.8-10.144a54.311,54.311,0,0,1-3.219-5.172,21.645,21.645,0,0,1-1.243-2.7c-.338-.919-.608-1.841-.876-2.755-2.108-7.307-2.162-14.475-.239-19.928a8.638,8.638,0,0,1,2.212-3.455,7.389,7.389,0,0,1,6.182-2.387,11.571,11.571,0,0,1,2.613.45,12.349,12.349,0,0,1,3.339,1.487,6,6,0,0,1,1.016.772c-.02.027-.347-.271-1.065-.693a12.939,12.939,0,0,0-3.337-1.394,11.517,11.517,0,0,0-2.577-.4,8.408,8.408,0,0,0-8.078,5.727c-1.856,5.392-1.773,12.466.339,19.706.268.9.541,1.825.876,2.725a21.182,21.182,0,0,0,1.223,2.639,54.286,54.286,0,0,0,3.2,5.124c2.346,3.378,4.971,6.753,7.78,10.1l-.295-.047,1.381-.845,23.872-14.578-.053.313L98.765,127.964c-2.056-2.49-3.573-4.546-4.7-5.863-.563-.661-1.02-1.147-1.339-1.463s-.5-.466-.487-.479" transform="translate(-0.596)" fill="#263238"/>
        <path id="Trazado_807253" data-name="Trazado 807253" d="M32.881,131.822a1.644,1.644,0,0,1,.072.444c.032.345.069.767.116,1.277.085,1.183.2,2.772.338,4.705.254,4.039.6,9.495.977,15.525.394,6.063.807,11.546,1.164,15.51.178,1.928.324,3.514.433,4.693.045.51.081.932.111,1.278a1.664,1.664,0,0,1,.007.45,1.645,1.645,0,0,1-.1-.438c-.054-.343-.119-.762-.2-1.268-.16-1.1-.365-2.7-.579-4.683-.44-3.959-.906-9.445-1.3-15.511s-.663-11.56-.843-15.538c-.077-1.935-.142-3.528-.19-4.712-.012-.512-.022-.936-.03-1.283a1.65,1.65,0,0,1,.021-.449" transform="translate(-0.259)" fill="#263238"/>
        <path id="Trazado_807254" data-name="Trazado 807254" d="M88.761,220.75a1.91,1.91,0,0,1-.467.147l-1.362.334c-.591.147-1.32.3-2.17.46s-1.817.357-2.893.519c-2.146.373-4.722.675-7.589.957-2.868.242-6.031.42-9.354.462-3.325.024-6.49-.091-9.363-.283-2.87-.234-5.453-.5-7.6-.848-1.078-.15-2.048-.33-2.9-.494s-1.581-.3-2.173-.45l-1.363-.33a2,2,0,0,1-.467-.146,1.918,1.918,0,0,1,.488.054l1.378.244c.6.12,1.328.242,2.181.371s1.821.3,2.9.425c2.148.309,4.724.536,7.586.746,2.864.167,6.018.269,9.33.245,3.312-.042,6.462-.206,9.323-.424,2.857-.257,5.43-.525,7.576-.854,1.076-.141,2.045-.306,2.895-.45s1.584-.262,2.181-.382l1.377-.247a2,2,0,0,1,.488-.056" transform="translate(-0.324)" fill="#263238"/>
      </g>
    </g>
  </g>
</svg>
