<svg xmlns="http://www.w3.org/2000/svg" xmlns:xlink="http://www.w3.org/1999/xlink" width="505" height="326.365" viewBox="0 0 505 326.365">
  <defs>
    <clipPath id="clip-path">
      <rect id="Rectángulo_374798" data-name="Rectángulo 374798" width="435.733" height="300.73" fill="none"/>
    </clipPath>
    <clipPath id="clip-path-6">
      <rect id="Rectángulo_374789" data-name="Rectángulo 374789" width="3.981" height="3.162" fill="none"/>
    </clipPath>
    <clipPath id="clip-path-7">
      <rect id="Rectángulo_374790" data-name="Rectángulo 374790" width="18.559" height="1.89" fill="none"/>
    </clipPath>
    <clipPath id="clip-path-8">
      <rect id="Rectángulo_374791" data-name="Rectángulo 374791" width="17.41" height="28.356" fill="none"/>
    </clipPath>
    <clipPath id="clip-path-9">
      <rect id="Rectángulo_374792" data-name="Rectángulo 374792" width="39.865" height="46.306" fill="none"/>
    </clipPath>
    <clipPath id="clip-path-10">
      <rect id="Rectángulo_374793" data-name="Rectángulo 374793" width="6.169" height="10.573" fill="none"/>
    </clipPath>
    <clipPath id="clip-path-12">
      <rect id="Rectángulo_374795" data-name="Rectángulo 374795" width="6.561" height="22.684" fill="none"/>
    </clipPath>
    <clipPath id="clip-path-13">
      <rect id="Rectángulo_374796" data-name="Rectángulo 374796" width="2.545" height="24.677" fill="none"/>
    </clipPath>
  </defs>
  <g id="Grupo_1067194" data-name="Grupo 1067194" transform="translate(-915 -1495.668)">
    <path id="Unión_16" data-name="Unión 16" d="M41,299.992a41,41,0,0,1-41-41V77.773a41,41,0,0,1,41-41H464a41.464,41.464,0,0,1,4.608.256L505,0V77.5c0,.091,0,.181,0,.272V258.992a41,41,0,0,1-41,41Z" transform="translate(1419.999 1795.66) rotate(180)" fill="#f3f9ff"/>
    <g id="Grupo_1066462" data-name="Grupo 1066462" transform="translate(962.589 1521.303)">
      <g id="Grupo_1066493" data-name="Grupo 1066493" clip-path="url(#clip-path)">
        <g id="Grupo_1066463" data-name="Grupo 1066463">
          <g id="Grupo_1066462-2" data-name="Grupo 1066462" clip-path="url(#clip-path)">
            <path id="Trazado_804443" data-name="Trazado 804443" d="M499.6,5.266a8.788,8.788,0,0,1,1.638-1.672l-.39-2.134,3.3-1.409,1.271,1.757a8.784,8.784,0,0,1,2.34-.025L509,0l3.33,1.338-.344,2.141a8.767,8.767,0,0,1,1.671,1.638l2.134-.39,1.408,3.3L515.439,9.3a8.781,8.781,0,0,1,.025,2.339l1.784,1.233L515.91,16.2l-2.141-.344a8.79,8.79,0,0,1-1.638,1.672l.39,2.134-3.3,1.409-1.272-1.758a8.808,8.808,0,0,1-2.339.026l-1.232,1.784-3.33-1.338.344-2.141a8.765,8.765,0,0,1-1.671-1.638l-2.134.389-1.409-3.3,1.758-1.272a8.781,8.781,0,0,1-.025-2.339l-1.784-1.233,1.337-3.33Zm3.571,3.709a3.85,3.85,0,1,0,5.008-2.137,3.85,3.85,0,0,0-5.008,2.137" transform="translate(-148.932)" fill="#f5f5f5" fill-rule="evenodd"/>
            <path id="Trazado_804444" data-name="Trazado 804444" d="M528.955,31.739a30.829,30.829,0,0,1,5.744-5.864l-1.367-7.487,11.58-4.941,4.46,6.167a30.846,30.846,0,0,1,8.208-.09l4.326-6.258,11.683,4.694-1.207,7.51a30.832,30.832,0,0,1,5.864,5.745l7.487-1.367,4.942,11.58-6.167,4.461a30.835,30.835,0,0,1,.09,8.207l6.258,4.326L586.162,70.1l-7.51-1.206a30.831,30.831,0,0,1-5.745,5.864l1.367,7.487L562.693,87.19l-4.46-6.167a30.872,30.872,0,0,1-8.207.09L545.7,87.371l-11.683-4.694,1.206-7.51a30.835,30.835,0,0,1-5.864-5.745l-7.487,1.367-4.941-11.58,6.167-4.461a30.87,30.87,0,0,1-.09-8.207l-6.258-4.326,4.694-11.683Zm12.528,13.013a13.507,13.507,0,1,0,17.569-7.5,13.506,13.506,0,0,0-17.569,7.5" transform="translate(-155.123 -3.982)" fill="#ebebeb" fill-rule="evenodd"/>
            <path id="Trazado_804445" data-name="Trazado 804445" d="M462.953,68.029a15.161,15.161,0,0,1,2.827-2.886l-.673-3.686,5.7-2.433,2.2,3.036a15.178,15.178,0,0,1,4.04-.045l2.13-3.08,5.751,2.311-.594,3.7a15.17,15.17,0,0,1,2.887,2.828L490.9,67.1l2.432,5.7-3.036,2.2a15.155,15.155,0,0,1,.044,4.04l3.081,2.13-2.31,5.751-3.7-.594a15.171,15.171,0,0,1-2.828,2.887l.673,3.685-5.7,2.433-2.2-3.036a15.143,15.143,0,0,1-4.039.044l-2.13,3.081L465.444,93.1l.594-3.7a15.17,15.17,0,0,1-2.887-2.828l-3.685.673-2.433-5.7,3.036-2.2a15.2,15.2,0,0,1-.045-4.039l-3.08-2.13,2.31-5.751Zm6.167,6.405a6.649,6.649,0,1,0,8.648-3.691,6.649,6.649,0,0,0-8.648,3.691" transform="translate(-137.17 -17.692)" fill="#e0e0e0"/>
            <path id="Trazado_804446" data-name="Trazado 804446" d="M474.1,79.231a5.025,5.025,0,0,1,.738-1.472,6.618,6.618,0,0,1,3.633-2.582,6.7,6.7,0,0,1,3.125-.139,6.8,6.8,0,0,1,3.22,1.591,6.814,6.814,0,0,1,2.067,3.384,6.785,6.785,0,0,1-3.013,7.5,6.819,6.819,0,0,1-3.834,1.013,6.808,6.808,0,0,1-3.426-1.078,6.712,6.712,0,0,1-2.16-2.263,6.617,6.617,0,0,1-.836-4.377,5.03,5.03,0,0,1,.486-1.574c.045.015-.208.555-.339,1.593a6.627,6.627,0,0,0,.92,4.22,6.495,6.495,0,0,0,5.367,3.128,6.492,6.492,0,0,0,3.626-.979,6.442,6.442,0,0,0,2.848-7.088,6.494,6.494,0,0,0-1.94-3.215,6.494,6.494,0,0,0-6.039-1.455,6.63,6.63,0,0,0-3.585,2.41c-.624.84-.815,1.405-.858,1.385" transform="translate(-142.149 -22.488)" fill="#e0e0e0"/>
            <path id="Trazado_804447" data-name="Trazado 804447" d="M462.9,67.952a1.423,1.423,0,0,1-.232-.023l-.7-.1-2.772-.413.066-.037-2.277,5.764-.035-.115,3.089,2.116.056.038-.008.068a15.152,15.152,0,0,0,.057,4.008l.011.075-.062.045-3.03,2.2.046-.163,2.445,5.694-.164-.088,3.684-.68.094-.017.059.076a15.1,15.1,0,0,0,2.86,2.793l.08.059-.015.1c-.183,1.146-.384,2.41-.589,3.7l-.1-.185,5.753,2.3-.211.064,2.126-3.083.062-.09.109.013a15.089,15.089,0,0,0,3.991-.047l.11-.016.066.09,2.2,3.034-.225-.062,5.7-2.435-.111.209c-.213-1.164-.443-2.42-.674-3.685l-.021-.113.091-.071a15.033,15.033,0,0,0,2.789-2.848l0,0,.071-.092.113.018,3.7.594-.207.117,2.312-5.75.068.225-3.079-2.131-.094-.064.014-.112a14.983,14.983,0,0,0-.041-3.99l-.015-.111.09-.065,3.037-2.193-.061.218-2.427-5.7.193.1-3.686.668-.1.019-.064-.082a15.024,15.024,0,0,0-2.85-2.8l-.08-.06.016-.1c.206-1.267.405-2.5.6-3.7l.1.172-5.746-2.323.175-.052-2.137,3.075-.048.069-.082-.01a15.128,15.128,0,0,0-4.006.033l-.076.01-.044-.061-2.185-3.043.135.038-5.711,2.407.05-.093c.26,1.473.472,2.682.649,3.689l.007.037-.029.022a15.747,15.747,0,0,0-2.216,2.076c-.208.247-.369.435-.486.574a1.526,1.526,0,0,1-.163.188,1.813,1.813,0,0,1,.139-.208c.1-.134.248-.336.463-.595a14.678,14.678,0,0,1,2.188-2.132l-.022.059c-.19-1-.419-2.211-.7-3.681l-.013-.066.064-.027,5.689-2.458.083-.035.053.073,2.205,3.028-.119-.05a15.278,15.278,0,0,1,4.074-.056l-.129.057L479,58.776l.066-.1.108.043,5.755,2.3.118.047-.02.125c-.19,1.2-.386,2.43-.587,3.7l-.064-.158a15.353,15.353,0,0,1,2.922,2.855l-.165-.063,3.685-.677.138-.025.055.129q1.188,2.779,2.438,5.7l.057.134-.118.085-3.034,2.2.074-.176a15.368,15.368,0,0,1,.048,4.089l-.08-.176,3.082,2.128.124.085-.057.14-2.309,5.751-.057.141-.15-.024-3.7-.594.183-.073,0,0a15.354,15.354,0,0,1-2.861,2.919l.07-.184c.231,1.265.46,2.521.673,3.686l.027.148-.139.059-5.7,2.43-.138.059-.087-.121-2.194-3.036.176.074a15.427,15.427,0,0,1-4.088.041l.171-.076-2.132,3.078-.081.116-.132-.052-5.748-2.318-.127-.051.022-.134c.209-1.287.414-2.55.6-3.7l.064.157a15.367,15.367,0,0,1-2.912-2.862l.152.058-3.686.666-.118.021-.047-.11c-.849-2-1.658-3.909-2.419-5.706l-.043-.1.088-.063,3.041-2.187-.05.119a15.346,15.346,0,0,1-.031-4.071l.048.1-3.072-2.141-.064-.045.029-.071,2.344-5.738.018-.045.048.008,2.738.472.707.128a1.921,1.921,0,0,1,.244.053" transform="translate(-137.119 -17.615)" fill="#e0e0e0"/>
            <path id="Trazado_804448" data-name="Trazado 804448" d="M151.227,312.9s-2.942-.212-2.671,6.388A76.463,76.463,0,0,0,149.5,329.4s-.086,1.463-1.22,1.176-3.265-1.711-4.318-.647c-1.092,1.1-.7,2.8.745,4.792s4.461,6.481,4.733,6.887.372,1.148-.431,1.076-6.226-1.91-6.944.715,4.23,7.519,4.761,8.064.559.889.344,1.22-1.98-.46-3.543-.92-3.457-.718-3.745.831,1.892,6.083,10.054,10.848l3.926,1.96,3.717-2.37c7.644-5.558,9.359-10.287,8.918-11.8s-2.3-1.066-3.809-.452-3.186,1.575-3.434,1.269-.253-.652.22-1.248,4.908-5.96,3.93-8.5-6.188-.169-6.98-.017-.761-.6-.537-1.027,2.778-5.2,4.02-7.326,1.459-3.853.262-4.843c-1.154-.954-3.132.677-4.232,1.076s-1.331-1.048-1.331-1.048a76.445,76.445,0,0,0-.072-10.158c-.39-6.594-3.367-6.061-3.367-6.061" transform="translate(-41.984 -93.926)" fill="#ebebeb"/>
            <path id="Trazado_804449" data-name="Trazado 804449" d="M156.436,321.35s.008.046.016.138.018.232.031.405c.024.363.06.887.106,1.558.09,1.353.206,3.313.34,5.734.269,4.843.584,11.537.906,18.931s.621,14.09.863,18.935c.123,2.417.223,4.375.292,5.736.034.672.059,1.2.078,1.559.007.174.012.309.016.406s0,.139,0,.139-.008-.047-.016-.138-.018-.232-.031-.405c-.025-.363-.06-.887-.106-1.558-.09-1.353-.206-3.313-.34-5.735-.269-4.843-.584-11.537-.906-18.933s-.621-14.087-.863-18.931c-.123-2.417-.223-4.375-.292-5.737-.034-.672-.059-1.2-.078-1.56-.007-.173-.013-.308-.016-.406s0-.139,0-.139" transform="translate(-46.96 -96.466)" fill="#e0e0e0"/>
            <path id="Trazado_804450" data-name="Trazado 804450" d="M149.87,340.259a1.28,1.28,0,0,1,.244.2c.151.137.363.343.623.6.519.513,1.215,1.241,1.969,2.058l1.92,2.1.584.633a1.3,1.3,0,0,1,.2.244,1.339,1.339,0,0,1-.246-.2c-.151-.138-.363-.344-.62-.6-.514-.519-1.2-1.255-1.954-2.073l-1.935-2.087-.588-.631a1.307,1.307,0,0,1-.2-.245" transform="translate(-44.989 -102.142)" fill="#e0e0e0"/>
            <path id="Trazado_804451" data-name="Trazado 804451" d="M158.351,345.58c-.029-.029,1.407-1.533,3.207-3.358s3.285-3.282,3.314-3.253-1.406,1.533-3.207,3.358-3.285,3.282-3.314,3.253" transform="translate(-47.535 -101.755)" fill="#e0e0e0"/>
            <path id="Trazado_804452" data-name="Trazado 804452" d="M158.328,362.833a1.362,1.362,0,0,1,.274-.174l.768-.431c.648-.364,1.541-.87,2.507-1.463s1.824-1.157,2.442-1.57l.733-.488a.163.163,0,1,1,.034.047c-.164.129-.4.311-.706.529-.6.437-1.454,1.017-2.424,1.611s-1.873,1.088-2.535,1.429c-.332.169-.6.3-.791.389a1.363,1.363,0,0,1-.3.122" transform="translate(-47.528 -107.63)" fill="#e0e0e0"/>
            <path id="Trazado_804453" data-name="Trazado 804453" d="M149.033,358.984a1.155,1.155,0,0,1,.272.127c.17.09.413.226.712.4.6.34,1.419.818,2.32,1.354s1.714,1.029,2.3,1.392c.292.181.527.33.687.437a1.108,1.108,0,0,1,.241.178,1.171,1.171,0,0,1-.272-.127c-.169-.091-.413-.226-.712-.4-.6-.339-1.418-.817-2.32-1.353s-1.713-1.029-2.3-1.392c-.293-.182-.527-.331-.688-.437a1.161,1.161,0,0,1-.241-.178" transform="translate(-44.738 -107.763)" fill="#e0e0e0"/>
            <path id="Trazado_804454" data-name="Trazado 804454" d="M147.189,373.336a1.882,1.882,0,0,1,.346.167l.913.5c.768.431,1.825,1.036,2.987,1.712s2.21,1.3,2.964,1.75l.89.545a1.914,1.914,0,0,1,.316.218,1.888,1.888,0,0,1-.345-.167l-.914-.5c-.768-.431-1.824-1.036-2.987-1.712s-2.21-1.3-2.964-1.75l-.89-.545a1.86,1.86,0,0,1-.316-.218" transform="translate(-44.185 -112.071)" fill="#e0e0e0"/>
            <path id="Trazado_804455" data-name="Trazado 804455" d="M158.975,377.645a2.076,2.076,0,0,1,.341-.229l.955-.581c.805-.491,1.915-1.172,3.12-1.959s2.281-1.523,3.054-2.062l.917-.638a2.1,2.1,0,0,1,.347-.22,2.115,2.115,0,0,1-.312.267c-.207.164-.51.4-.891.677-.759.562-1.824,1.316-3.034,2.1s-2.328,1.456-3.148,1.924c-.411.233-.745.418-.98.54a2.187,2.187,0,0,1-.369.178" transform="translate(-47.723 -111.658)" fill="#e0e0e0"/>
            <path id="Trazado_804456" data-name="Trazado 804456" d="M162.747,389.768H151.885l3.545,26.838H159.2Z" transform="translate(-45.594 -117.004)" fill="#e0e0e0"/>
            <path id="Trazado_804457" data-name="Trazado 804457" d="M152.69,394.007s.012.038.058.1a.69.69,0,0,0,.262.187,1.313,1.313,0,0,0,1.148-.141,8.739,8.739,0,0,1,1.408-.927,3.083,3.083,0,0,1,2,.04,8.549,8.549,0,0,1,1.86.9,13.028,13.028,0,0,0,1.512.812,4.194,4.194,0,0,0,1.116.322,2.049,2.049,0,0,0,.316.022c.072,0,.11,0,.11-.009a5.68,5.68,0,0,1-1.49-.449,14.9,14.9,0,0,1-1.479-.837,8.256,8.256,0,0,0-1.892-.931,3.194,3.194,0,0,0-2.109-.023,2.8,2.8,0,0,0-.794.491,5.993,5.993,0,0,1-.621.482,1.276,1.276,0,0,1-1.058.183,1.08,1.08,0,0,1-.344-.218" transform="translate(-45.836 -117.945)" fill="#f5f5f5"/>
            <path id="Trazado_804458" data-name="Trazado 804458" d="M153.256,400.7c.015.009.086-.111.256-.288a2.415,2.415,0,0,1,.867-.55,3.886,3.886,0,0,1,1.511-.227,15.923,15.923,0,0,1,1.89.258,6.5,6.5,0,0,0,1.936.08,5.332,5.332,0,0,0,1.523-.435,4.869,4.869,0,0,0,.915-.544,1.31,1.31,0,0,0,.29-.262,9.581,9.581,0,0,1-1.256.691,5.561,5.561,0,0,1-1.492.388,6.664,6.664,0,0,1-1.888-.093,14.253,14.253,0,0,0-1.913-.246,3.833,3.833,0,0,0-1.563.274,2.281,2.281,0,0,0-.871.62,1.577,1.577,0,0,0-.164.241c-.032.059-.046.09-.041.094" transform="translate(-46.006 -119.695)" fill="#f5f5f5"/>
            <path id="Trazado_804459" data-name="Trazado 804459" d="M162.193,405.006a.9.9,0,0,0-.3-.155,3.219,3.219,0,0,0-.9-.193,5.773,5.773,0,0,0-1.361.078c-.507.082-1.05.222-1.62.344a6.862,6.862,0,0,1-1.617.183,3.536,3.536,0,0,1-1.284-.278,2.956,2.956,0,0,1-.974-.726.824.824,0,0,0,.183.284,2.3,2.3,0,0,0,.738.555,3.462,3.462,0,0,0,1.33.328,6.514,6.514,0,0,0,1.661-.173c.577-.122,1.116-.266,1.612-.355a6.219,6.219,0,0,1,1.326-.113,4.968,4.968,0,0,1,1.206.223" transform="translate(-46.27 -121.353)" fill="#f5f5f5"/>
            <path id="Trazado_804460" data-name="Trazado 804460" d="M154.628,410.375a1.761,1.761,0,0,1,1.055-.106,5.1,5.1,0,0,1,1.1.411,4.2,4.2,0,0,0,1.432.395,4.3,4.3,0,0,0,2.6-.6,3.676,3.676,0,0,0,.647-.5c.132-.141.2-.222.191-.23a9.429,9.429,0,0,1-.9.619,4.451,4.451,0,0,1-2.52.535,20.672,20.672,0,0,1-2.531-.754,1.614,1.614,0,0,0-.819.071c-.184.071-.262.153-.256.159" transform="translate(-46.418 -123.001)" fill="#f5f5f5"/>
            <path id="Trazado_804461" data-name="Trazado 804461" d="M155.493,417.363a2.077,2.077,0,0,0,.906-.18c.546-.183,1.222-.6,2.011-.915a3.267,3.267,0,0,1,1.154-.242,2.134,2.134,0,0,1,.929.212,2.071,2.071,0,0,1,.671.579.5.5,0,0,0-.1-.229,1.486,1.486,0,0,0-.509-.46,2.126,2.126,0,0,0-.985-.264,3.242,3.242,0,0,0-1.22.239c-.818.326-1.472.757-1.994.964-.515.223-.864.268-.86.3" transform="translate(-46.677 -124.838)" fill="#f5f5f5"/>
            <path id="Trazado_804462" data-name="Trazado 804462" d="M156.254,421.428a2.518,2.518,0,0,0,.688.223,12.637,12.637,0,0,0,3.462.34,2.561,2.561,0,0,0,.718-.085c0-.054-1.1-.007-2.444-.142s-2.411-.388-2.424-.337" transform="translate(-46.906 -126.506)" fill="#f5f5f5"/>
          </g>
        </g>
        <g id="Grupo_1066465" data-name="Grupo 1066465">
          <g id="Grupo_1066464" data-name="Grupo 1066464" clip-path="url(#clip-path)">
            <path id="Trazado_804463" data-name="Trazado 804463" d="M432.314,429.392c0,.1-96.785.182-216.146.182C96.763,429.574,0,429.493,0,429.392s96.763-.182,216.167-.182c119.362,0,216.146.081,216.146.182" transform="translate(0 -128.844)" fill="#263238"/>
          </g>
        </g>
        <rect id="Rectángulo_374778" data-name="Rectángulo 374778" width="5.58" height="102.249" transform="translate(213.25 198.298)" fill="#263238"/>
        <path id="Trazado_804464" data-name="Trazado 804464" d="M251,413.412h5.456l36.261-34.941-2.789-2.494Z" transform="translate(-75.347 -112.864)" fill="#263238"/>
        <path id="Trazado_804465" data-name="Trazado 804465" d="M306.656,378.471l36.262,34.941,5.37-.083-38.842-37.352Z" transform="translate(-92.055 -112.864)" fill="#263238"/>
        <rect id="Rectángulo_374779" data-name="Rectángulo 374779" width="251.271" height="183.152" transform="translate(91.15 32.539)" fill="#fff"/>
        <g id="Grupo_1066467" data-name="Grupo 1066467">
          <g id="Grupo_1066466" data-name="Grupo 1066466" clip-path="url(#clip-path)">
            <path id="Trazado_804466" data-name="Trazado 804466" d="M381.442,229.57c0-1.225-.059-72.1-.148-183.152l.148.148-251.25.034h-.021l.183-.182c-.006,65.7-.012,127.983-.017,183.152l-.165-.165,251.271.165-251.271.165h-.165v-.165c0-55.168-.011-117.455-.017-183.152v-.183h.2l251.25.034h.148v.148c-.09,111.049-.148,181.928-.148,183.152" transform="translate(-39.021 -13.88)" fill="#263238"/>
            <path id="Trazado_804467" data-name="Trazado 804467" d="M378.387,105.759c0,.1-50.854.182-113.57.182-62.738,0-113.581-.081-113.581-.182s50.843-.182,113.581-.182c62.716,0,113.57.081,113.57.182" transform="translate(-45.399 -31.693)" fill="#263238"/>
            <path id="Trazado_804468" data-name="Trazado 804468" d="M251.8,232.851c-.1,0-.182-39.332-.182-87.839,0-48.524.081-87.848.182-87.848s.182,39.324.182,87.848c0,48.507-.081,87.839-.182,87.839" transform="translate(-75.532 -17.16)" fill="#263238"/>
            <path id="Trazado_804469" data-name="Trazado 804469" d="M370.9,232.851c-.1,0-.182-39.332-.182-87.839,0-48.524.081-87.848.182-87.848s.182,39.324.182,87.848c0,48.507-.081,87.839-.182,87.839" transform="translate(-111.285 -17.16)" fill="#263238"/>
            <path id="Trazado_804470" data-name="Trazado 804470" d="M192.539,115.722s-1.752,16.016.5,24.784l21.4-.936s-4.586-15.8-1.77-22.8Z" transform="translate(-57.603 -34.739)" fill="#e0e0e0"/>
            <path id="Trazado_804471" data-name="Trazado 804471" d="M152.141,128.319s-1.752,16.016.5,24.784l21.4-.935s-4.586-15.8-1.77-22.8Z" transform="translate(-45.476 -38.52)" fill="#e0e0e0"/>
            <path id="Trazado_804472" data-name="Trazado 804472" d="M192.818,115.722s.146,17.292,1.026,22.567l21.687-1.026s-1.9-17-1.172-21.541Z" transform="translate(-57.882 -34.739)" fill="#f1b192"/>
            <path id="Trazado_804473" data-name="Trazado 804473" d="M206,119.206a.291.291,0,0,1,.079-.008l.234-.009a5.368,5.368,0,0,1,.9.045,4.943,4.943,0,0,1,1.379.41,4.511,4.511,0,0,1,1.5,1.188,5.208,5.208,0,0,1,1.04,2.088,5.035,5.035,0,0,1-.227,2.68,7.992,7.992,0,0,1-.609,1.339,14.2,14.2,0,0,0-.695,1.353,11.63,11.63,0,0,0-.877,3.078l-.009.072h-.07l-2.141.034-2.246.035h-.08l0-.081a6.41,6.41,0,0,0-1.041-2.964c-.26-.444-.545-.861-.812-1.283a12.688,12.688,0,0,1-.762-1.242,4.186,4.186,0,0,1-.339-2.642,5.616,5.616,0,0,1,.836-2.161,4.182,4.182,0,0,1,1.412-1.271,5.3,5.3,0,0,1,1.332-.514,5.7,5.7,0,0,1,.886-.145c.1-.006.18-.01.232-.008a.265.265,0,0,1,.079,0,.387.387,0,0,1-.078.01l-.23.024a6.628,6.628,0,0,0-.874.171,5.429,5.429,0,0,0-1.3.532,4.123,4.123,0,0,0-1.364,1.258,5.563,5.563,0,0,0-.8,2.121,4.063,4.063,0,0,0,.343,2.556,12.693,12.693,0,0,0,.76,1.226c.265.415.554.835.818,1.283a6.538,6.538,0,0,1,1.07,3.041l-.083-.079,2.246-.036,2.141-.034-.079.073a11.648,11.648,0,0,1,.9-3.124,14.034,14.034,0,0,1,.706-1.364,7.823,7.823,0,0,0,.6-1.313,4.926,4.926,0,0,0,.238-2.606,5.135,5.135,0,0,0-1-2.046,4.469,4.469,0,0,0-1.454-1.179,5.009,5.009,0,0,0-1.35-.428,6.068,6.068,0,0,0-.894-.073l-.233-.006a.309.309,0,0,1-.08-.007" transform="translate(-60.381 -35.778)" fill="#fff"/>
            <path id="Trazado_804474" data-name="Trazado 804474" d="M208.07,133.028s-.006-.023-.013-.068-.019-.115-.033-.2c-.027-.18-.067-.44-.118-.774-.1-.673-.242-1.647-.339-2.861-.023-.3-.045-.621-.057-.953s-.025-.677-.006-1.037a2.9,2.9,0,0,1,.244-1.085,1.644,1.644,0,0,1,.827-.828,1.107,1.107,0,0,1,1.181.225.821.821,0,0,1,.253.593,1.056,1.056,0,0,1-.221.621,1.418,1.418,0,0,1-.522.421,2.768,2.768,0,0,1-.645.214,7.768,7.768,0,0,1-1.369.16,7.97,7.97,0,0,1-1.377-.067,2.585,2.585,0,0,1-.652-.188,1.68,1.68,0,0,1-.547-.389,1.257,1.257,0,0,1-.315-.579.984.984,0,0,1,.077-.642.874.874,0,0,1,.454-.442.779.779,0,0,1,.617.029,1.156,1.156,0,0,1,.46.392,1.587,1.587,0,0,1,.231.54,6.5,6.5,0,0,1,.109,1.106c.038.713.072,1.379.1,1.986.062,1.212.111,2.194.146,2.876.015.338.027.6.036.782,0,.087.006.155.008.2s0,.069,0,.069,0-.023-.008-.069-.008-.115-.014-.2c-.011-.181-.028-.444-.049-.782-.039-.682-.1-1.663-.167-2.875-.034-.607-.071-1.272-.111-1.985a6.489,6.489,0,0,0-.112-1.1,1.533,1.533,0,0,0-.223-.519,1.1,1.1,0,0,0-.436-.37.723.723,0,0,0-.568-.027.811.811,0,0,0-.419.411.917.917,0,0,0-.071.6,1.19,1.19,0,0,0,.3.549,1.955,1.955,0,0,0,1.162.556,7.931,7.931,0,0,0,1.364.065,7.682,7.682,0,0,0,1.357-.157,2.679,2.679,0,0,0,.629-.208,1.359,1.359,0,0,0,.5-.4.988.988,0,0,0,.209-.582.76.76,0,0,0-.233-.548,1.045,1.045,0,0,0-1.112-.213,1.583,1.583,0,0,0-.8.8,2.834,2.834,0,0,0-.242,1.062c-.02.355-.008.7,0,1.032s.03.649.052.952c.09,1.212.228,2.187.317,2.861l.106.776c.011.086.02.153.026.2s.007.069.007.069" transform="translate(-61.34 -37.553)" fill="#fff"/>
            <path id="Trazado_804475" data-name="Trazado 804475" d="M205.586,136.505c.011.01.029.269.057.721q.04.785.1,1.879l-.018-.046,1.46,1.683-.075-.032,1.688-.1-.071.036.841-1.027.421-.513-.022.066c-.023-.989-.045-1.926-.064-2.78l.092.087-3.153.035h-.911a2.437,2.437,0,0,1-.34-.013,1.543,1.543,0,0,1,.3-.029l.889-.046,3.209-.127.09,0,0,.092c.026.854.054,1.79.084,2.78v.037l-.024.029-.421.514-.843,1.025-.027.034-.043,0-1.689.083-.046,0-.029-.034-1.433-1.706-.017-.021v-.025q-.011-1.122-.018-1.927a5.716,5.716,0,0,1,.014-.677" transform="translate(-61.711 -40.916)" fill="#fff"/>
            <path id="Trazado_804476" data-name="Trazado 804476" d="M210.01,139.851a.829.829,0,0,1-.16-.067c-.1-.045-.25-.108-.438-.173a4.266,4.266,0,0,0-3.032.092c-.184.076-.328.148-.427.2a1.309,1.309,0,0,1-.155.078.705.705,0,0,1,.143-.1,3.424,3.424,0,0,1,.421-.221,4.054,4.054,0,0,1,3.067-.093,3.47,3.47,0,0,1,.434.195.827.827,0,0,1,.148.09" transform="translate(-61.778 -41.819)" fill="#fff"/>
            <path id="Trazado_804477" data-name="Trazado 804477" d="M210.009,138.885a.939.939,0,0,1-.16-.068c-.1-.046-.25-.108-.438-.173a4.266,4.266,0,0,0-3.032.092c-.184.076-.328.148-.427.2a1.123,1.123,0,0,1-.155.078.673.673,0,0,1,.142-.1,3.615,3.615,0,0,1,.421-.22,4.059,4.059,0,0,1,3.067-.094,3.561,3.561,0,0,1,.434.2.754.754,0,0,1,.148.091" transform="translate(-61.778 -41.529)" fill="#fff"/>
            <path id="Trazado_804478" data-name="Trazado 804478" d="M209.952,137.968a.943.943,0,0,1-.16-.068c-.1-.045-.25-.108-.438-.173a4.266,4.266,0,0,0-3.032.092c-.184.076-.328.148-.427.2a1.078,1.078,0,0,1-.155.078.691.691,0,0,1,.142-.1,3.5,3.5,0,0,1,.421-.221,4.054,4.054,0,0,1,3.067-.093,3.471,3.471,0,0,1,.434.195.752.752,0,0,1,.148.091" transform="translate(-61.761 -41.254)" fill="#fff"/>
            <path id="Trazado_804479" data-name="Trazado 804479" d="M152.188,128.339s.146,17.291,1.026,22.567L174.9,149.88s-1.9-17-1.172-21.541Z" transform="translate(-45.685 -38.526)" fill="#1969d5"/>
            <path id="Trazado_804480" data-name="Trazado 804480" d="M172.055,138.7a72.893,72.893,0,0,1-7.265.619c-4.02.242-7.282.356-7.288.256a72.873,72.873,0,0,1,7.266-.619c4.018-.242,7.281-.356,7.287-.256" transform="translate(-47.28 -41.626)" fill="#fff"/>
            <path id="Trazado_804481" data-name="Trazado 804481" d="M172.064,143.935a72.887,72.887,0,0,1-7.265.619,72.885,72.885,0,0,1-7.288.256,72.861,72.861,0,0,1,7.266-.619c4.018-.242,7.281-.356,7.287-.256" transform="translate(-47.283 -43.197)" fill="#fff"/>
            <path id="Trazado_804482" data-name="Trazado 804482" d="M169.482,149.064a23.816,23.816,0,0,1-4.134.431,23.877,23.877,0,0,1-4.157.068,23.761,23.761,0,0,1,4.134-.432,23.919,23.919,0,0,1,4.157-.067" transform="translate(-48.388 -44.73)" fill="#fff"/>
            <path id="Trazado_804483" data-name="Trazado 804483" d="M209.543,155.049s-1.752,16.016.5,24.784l21.4-.936s-4.586-15.8-1.77-22.8Z" transform="translate(-62.708 -46.544)" fill="#ebebeb"/>
            <path id="Trazado_804484" data-name="Trazado 804484" d="M209.943,154.313s.146,17.292,1.026,22.567l21.687-1.026s-1.9-17-1.172-21.541Z" transform="translate(-63.023 -46.323)" fill="#1969d5"/>
            <path id="Trazado_804485" data-name="Trazado 804485" d="M229.811,164.676a72.9,72.9,0,0,1-7.265.619,72.889,72.889,0,0,1-7.288.256,72.863,72.863,0,0,1,7.266-.619c4.018-.242,7.281-.356,7.287-.256" transform="translate(-64.618 -49.423)" fill="#fff"/>
            <path id="Trazado_804486" data-name="Trazado 804486" d="M229.819,169.909a72.9,72.9,0,0,1-7.265.619,72.882,72.882,0,0,1-7.288.256c-.006-.1,3.246-.378,7.266-.62s7.281-.356,7.287-.255" transform="translate(-64.621 -50.994)" fill="#fff"/>
            <path id="Trazado_804487" data-name="Trazado 804487" d="M227.237,175.039a47.5,47.5,0,0,1-8.291.5,47.31,47.31,0,0,1,8.291-.5" transform="translate(-65.725 -52.527)" fill="#fff"/>
            <path id="Trazado_804488" data-name="Trazado 804488" d="M203.2,250.962s-1.752,16.015.5,24.784l21.4-.936s-4.586-15.8-1.77-22.8Z" transform="translate(-60.803 -75.336)" fill="#ebebeb"/>
            <path id="Trazado_804489" data-name="Trazado 804489" d="M203.6,250.226s.146,17.291,1.026,22.567l21.687-1.026s-1.9-17-1.172-21.541Z" transform="translate(-61.118 -75.115)" fill="#288640"/>
            <path id="Trazado_804490" data-name="Trazado 804490" d="M223.467,260.589a72.91,72.91,0,0,1-7.265.619c-4.02.242-7.282.356-7.288.256a72.873,72.873,0,0,1,7.266-.619c4.018-.242,7.281-.356,7.287-.256" transform="translate(-62.714 -78.215)" fill="#fff"/>
            <path id="Trazado_804491" data-name="Trazado 804491" d="M223.475,265.822a72.893,72.893,0,0,1-7.265.619,72.889,72.889,0,0,1-7.288.256,72.856,72.856,0,0,1,7.266-.619c4.018-.242,7.281-.356,7.287-.256" transform="translate(-62.716 -79.786)" fill="#fff"/>
            <path id="Trazado_804492" data-name="Trazado 804492" d="M220.893,270.952a47.5,47.5,0,0,1-8.291.5,47.319,47.319,0,0,1,8.291-.5" transform="translate(-63.821 -81.319)" fill="#fff"/>
            <path id="Trazado_804493" data-name="Trazado 804493" d="M160.215,232.453s-1.752,16.016.5,24.784l21.4-.935s-4.586-15.8-1.77-22.8Z" transform="translate(-47.9 -69.78)" fill="#ebebeb"/>
            <path id="Trazado_804494" data-name="Trazado 804494" d="M160.616,231.717s.146,17.292,1.026,22.567l21.687-1.026s-1.9-17-1.172-21.541Z" transform="translate(-48.215 -69.559)" fill="#288640"/>
            <path id="Trazado_804495" data-name="Trazado 804495" d="M180.483,242.08a72.892,72.892,0,0,1-7.265.619c-4.02.242-7.282.356-7.288.256s3.246-.378,7.266-.62,7.281-.355,7.287-.255" transform="translate(-49.81 -72.659)" fill="#fff"/>
            <path id="Trazado_804496" data-name="Trazado 804496" d="M180.491,247.313a72.881,72.881,0,0,1-7.265.619c-4.02.242-7.282.356-7.288.256a72.868,72.868,0,0,1,7.266-.619c4.018-.242,7.281-.356,7.287-.256" transform="translate(-49.813 -74.23)" fill="#fff"/>
            <path id="Trazado_804497" data-name="Trazado 804497" d="M177.91,252.443a23.755,23.755,0,0,1-4.134.431,23.888,23.888,0,0,1-4.158.068,23.733,23.733,0,0,1,4.135-.431,23.882,23.882,0,0,1,4.157-.068" transform="translate(-50.918 -75.763)" fill="#fff"/>
            <path id="Trazado_804498" data-name="Trazado 804498" d="M319.661,235.86s-1.752,16.015.5,24.784l21.4-.936s-4.586-15.8-1.77-22.8Z" transform="translate(-95.764 -70.803)" fill="#ebebeb"/>
            <path id="Trazado_804499" data-name="Trazado 804499" d="M320.061,235.124s.146,17.292,1.026,22.567l21.687-1.026s-1.9-17-1.172-21.541Z" transform="translate(-96.079 -70.582)" fill="#74c67b"/>
            <path id="Trazado_804500" data-name="Trazado 804500" d="M339.929,245.487a72.9,72.9,0,0,1-7.265.619c-4.02.242-7.282.356-7.288.256s3.246-.378,7.266-.62,7.281-.356,7.287-.255" transform="translate(-97.674 -73.682)" fill="#fff"/>
            <path id="Trazado_804501" data-name="Trazado 804501" d="M339.937,250.72a72.879,72.879,0,0,1-7.265.619,72.885,72.885,0,0,1-7.288.256,72.87,72.87,0,0,1,7.266-.619c4.018-.242,7.281-.356,7.287-.256" transform="translate(-97.677 -75.253)" fill="#fff"/>
            <path id="Trazado_804502" data-name="Trazado 804502" d="M337.355,255.85a47.5,47.5,0,0,1-8.291.5,47.3,47.3,0,0,1,8.291-.5" transform="translate(-98.782 -76.786)" fill="#fff"/>
            <path id="Trazado_804503" data-name="Trazado 804503" d="M192.513,177.56s-2.178,15.963-6.487,23.926L165.49,195.4s8.275-14.218,7.237-21.691Z" transform="translate(-49.678 -52.144)" fill="#ebebeb"/>
            <path id="Trazado_804504" data-name="Trazado 804504" d="M192.474,176.232s-4.33,16.741-6.46,21.647l-20.793-6.247s5.964-16.031,6.354-20.616Z" transform="translate(-49.598 -51.337)" fill="#455a64"/>
            <path id="Trazado_804505" data-name="Trazado 804505" d="M176.319,182.213c.03-.1,3.168.805,7.009,2.013s6.93,2.265,6.9,2.361-3.167-.805-7.009-2.013-6.93-2.265-6.9-2.36" transform="translate(-52.929 -54.696)" fill="#fff"/>
            <path id="Trazado_804506" data-name="Trazado 804506" d="M175.043,187.289c.03-.1,3.168.805,7.009,2.013s6.93,2.265,6.9,2.361-3.167-.805-7.009-2.013-6.93-2.265-6.9-2.36" transform="translate(-52.546 -56.22)" fill="#fff"/>
            <path id="Trazado_804507" data-name="Trazado 804507" d="M178.91,193.548a23.855,23.855,0,0,1,4.016,1.072,23.79,23.79,0,0,1,3.908,1.42,23.886,23.886,0,0,1-4.017-1.072,23.83,23.83,0,0,1-3.907-1.42" transform="translate(-53.707 -58.097)" fill="#fff"/>
            <path id="Trazado_804508" data-name="Trazado 804508" d="M226.8,203.25s1.752,16.016-.5,24.785l-21.4-.935s4.586-15.8,1.77-22.8Z" transform="translate(-61.508 -61.014)" fill="#ebebeb"/>
            <path id="Trazado_804509" data-name="Trazado 804509" d="M203.768,197.9s-1.466,19.189-2.638,22.853l19.489,2.052,2.931-2.785s1.9-14.068,1.612-18.61Z" transform="translate(-60.377 -59.407)" fill="#455a64"/>
            <path id="Trazado_804510" data-name="Trazado 804510" d="M229.42,229.3l-.439,2.931,2.931-2.785Z" transform="translate(-68.737 -68.833)" fill="#263238"/>
            <path id="Trazado_804511" data-name="Trazado 804511" d="M223.546,211.62a14.169,14.169,0,0,1-2.185-.253l-5.245-.738-5.257-.659a14.2,14.2,0,0,1-2.175-.326,12.249,12.249,0,0,1,2.2.07c1.356.1,3.224.281,5.28.554s3.907.585,5.24.845a12.187,12.187,0,0,1,2.142.507" transform="translate(-62.645 -62.925)" fill="#fff"/>
            <path id="Trazado_804512" data-name="Trazado 804512" d="M222.594,217.418a11.419,11.419,0,0,1-2.108-.068c-1.3-.094-3.089-.267-5.059-.516s-3.748-.528-5.029-.759a11.49,11.49,0,0,1-2.059-.458,12.773,12.773,0,0,1,2.1.2l5.035.652,5.039.621a12.836,12.836,0,0,1,2.083.324" transform="translate(-62.541 -64.722)" fill="#fff"/>
            <path id="Trazado_804513" data-name="Trazado 804513" d="M221.369,222.7a59.692,59.692,0,0,1-6.553-.7,59.605,59.605,0,0,1-6.5-1.057,59.836,59.836,0,0,1,6.554.7,59.545,59.545,0,0,1,6.5,1.057" transform="translate(-62.533 -66.321)" fill="#fff"/>
            <path id="Trazado_804514" data-name="Trazado 804514" d="M452.578,232.3s1.752,16.016-.5,24.784l-21.4-.936s4.586-15.8,1.77-22.8Z" transform="translate(-129.285 -69.733)" fill="#ebebeb"/>
            <path id="Trazado_804515" data-name="Trazado 804515" d="M429.55,226.945s-1.465,19.189-2.638,22.853L446.4,251.85l2.931-2.785s1.9-14.068,1.612-18.61Z" transform="translate(-128.155 -68.127)" fill="#455a64"/>
            <path id="Trazado_804516" data-name="Trazado 804516" d="M455.2,258.345l-.439,2.931,2.931-2.785Z" transform="translate(-136.515 -77.552)" fill="#263238"/>
            <path id="Trazado_804517" data-name="Trazado 804517" d="M449.328,240.667a14.171,14.171,0,0,1-2.185-.253l-5.245-.738-5.257-.659a14.094,14.094,0,0,1-2.175-.326,12.248,12.248,0,0,1,2.2.07c1.356.1,3.224.281,5.28.554s3.907.585,5.24.845a12.268,12.268,0,0,1,2.142.507" transform="translate(-130.422 -71.645)" fill="#fff"/>
            <path id="Trazado_804518" data-name="Trazado 804518" d="M448.376,246.466a11.419,11.419,0,0,1-2.108-.068c-1.3-.094-3.089-.267-5.059-.516s-3.748-.528-5.029-.759a11.489,11.489,0,0,1-2.059-.458,12.776,12.776,0,0,1,2.1.2l5.035.652,5.039.621a12.835,12.835,0,0,1,2.083.324" transform="translate(-130.319 -73.442)" fill="#fff"/>
            <path id="Trazado_804519" data-name="Trazado 804519" d="M447.15,251.75A118.96,118.96,0,0,1,434.092,250a119.378,119.378,0,0,1,13.058,1.753" transform="translate(-130.31 -75.041)" fill="#fff"/>
            <path id="Trazado_804520" data-name="Trazado 804520" d="M416,115.664s1.752,16.016-.5,24.785l-21.4-.936s4.586-15.8,1.77-22.8Z" transform="translate(-118.305 -34.721)" fill="#ebebeb"/>
            <path id="Trazado_804521" data-name="Trazado 804521" d="M392.973,110.312s-1.465,19.189-2.638,22.853l19.489,2.052,2.931-2.785s1.9-14.068,1.612-18.61Z" transform="translate(-117.174 -33.115)" fill="#455a64"/>
            <path id="Trazado_804522" data-name="Trazado 804522" d="M418.624,141.712l-.44,2.931,2.931-2.785Z" transform="translate(-125.535 -42.54)" fill="#263238"/>
            <path id="Trazado_804523" data-name="Trazado 804523" d="M412.75,124.034a14.16,14.16,0,0,1-2.185-.253l-5.246-.738-5.257-.659a14.2,14.2,0,0,1-2.174-.326,12.251,12.251,0,0,1,2.2.07c1.355.1,3.224.281,5.28.554s3.907.585,5.24.845a12.19,12.19,0,0,1,2.142.507" transform="translate(-119.442 -36.633)" fill="#fff"/>
            <path id="Trazado_804524" data-name="Trazado 804524" d="M411.8,129.833a11.423,11.423,0,0,1-2.108-.068c-1.3-.094-3.089-.267-5.059-.516s-3.748-.528-5.028-.759a11.509,11.509,0,0,1-2.06-.458,12.78,12.78,0,0,1,2.1.2l5.034.652,5.039.621a12.878,12.878,0,0,1,2.083.324" transform="translate(-119.339 -38.43)" fill="#fff"/>
            <path id="Trazado_804525" data-name="Trazado 804525" d="M410.573,135.117a118.98,118.98,0,0,1-13.058-1.753,119.378,119.378,0,0,1,13.058,1.753" transform="translate(-119.33 -40.029)" fill="#fff"/>
            <path id="Trazado_804526" data-name="Trazado 804526" d="M298.31,125.639s1.752,16.016-.5,24.784l-21.4-.936s4.586-15.8,1.77-22.8Z" transform="translate(-82.975 -37.716)" fill="#ebebeb"/>
            <path id="Trazado_804527" data-name="Trazado 804527" d="M275.283,120.287s-1.465,19.189-2.638,22.853l19.489,2.052,2.931-2.785s1.9-14.068,1.612-18.61Z" transform="translate(-81.845 -36.109)" fill="#455a64"/>
            <path id="Trazado_804528" data-name="Trazado 804528" d="M300.934,151.686l-.44,2.931,2.931-2.785Z" transform="translate(-90.205 -45.535)" fill="#263238"/>
            <path id="Trazado_804529" data-name="Trazado 804529" d="M295.06,134.009a14.175,14.175,0,0,1-2.185-.253l-5.246-.738-5.256-.659a14.1,14.1,0,0,1-2.175-.326,12.331,12.331,0,0,1,2.2.07c1.356.1,3.224.281,5.28.554s3.907.585,5.24.845a12.265,12.265,0,0,1,2.142.507" transform="translate(-84.113 -39.627)" fill="#fff"/>
            <path id="Trazado_804530" data-name="Trazado 804530" d="M294.109,139.807A11.42,11.42,0,0,1,292,139.74c-1.3-.094-3.089-.267-5.059-.516s-3.748-.528-5.029-.759a11.512,11.512,0,0,1-2.059-.458,12.769,12.769,0,0,1,2.1.2l5.035.652,5.039.621a12.834,12.834,0,0,1,2.083.324" transform="translate(-84.01 -41.424)" fill="#fff"/>
            <path id="Trazado_804531" data-name="Trazado 804531" d="M292.883,145.092a59.7,59.7,0,0,1-6.553-.7,59.6,59.6,0,0,1-6.5-1.057,59.845,59.845,0,0,1,6.554.7,59.75,59.75,0,0,1,6.5,1.057" transform="translate(-84 -43.023)" fill="#fff"/>
            <path id="Trazado_804532" data-name="Trazado 804532" d="M266.669,170.838,268.355,210l48.885.589-2.195-39.231Z" transform="translate(-80.051 -51.284)" fill="#ebebeb"/>
            <rect id="Rectángulo_374780" data-name="Rectángulo 374780" width="48.56" height="36.667" transform="translate(186.051 119.274)" fill="#fff"/>
            <path id="Trazado_804533" data-name="Trazado 804533" d="M314.341,207.026s-.011-.237-.016-.682-.01-1.109-.018-1.957c-.008-1.722-.022-4.228-.038-7.421-.018-6.394-.046-15.541-.078-26.607l.15.15-48.556.032h0l.183-.182c-.007,13.187-.013,25.673-.018,36.667l-.164-.164,35.023.082,9.963.044,2.649.02.686.009c.155,0,.239.01.239.01a1.723,1.723,0,0,1-.22.01l-.668.009-2.617.02-9.926.044-35.13.082h-.164v-.164c0-10.994-.011-23.48-.017-36.667v-.183h.186l48.556.033h.15v.15c-.032,11.1-.06,20.283-.078,26.7-.017,3.18-.03,5.674-.039,7.387q-.012,1.255-.018,1.93c0,.434-.016.649-.016.649" transform="translate(-79.73 -51.085)" fill="#263238"/>
            <rect id="Rectángulo_374781" data-name="Rectángulo 374781" width="19.685" height="24.774" transform="translate(191.909 127.041)" fill="#fff"/>
            <path id="Trazado_804534" data-name="Trazado 804534" d="M293.82,206.232a.715.715,0,0,1-.01-.126c0-.1-.006-.211-.009-.353,0-.33-.011-.781-.02-1.356-.01-1.2-.024-2.918-.043-5.084-.02-4.364-.048-10.531-.081-17.855l.163.163-19.683.019c-.043.039.344-.342.18-.178v3.4q0,1.687,0,3.338c0,2.2,0,4.347-.006,6.428-.008,4.161-.016,8.06-.023,11.6l-.151-.151,14.248.078,4,.039,1.061.017a3.46,3.46,0,0,1,.375.017,2.474,2.474,0,0,1-.342.017l-1.033.017-3.966.039-14.343.078h-.151v-.152c-.007-3.54-.015-7.44-.023-11.6,0-2.081,0-4.228-.006-6.428q0-1.65,0-3.338v-3.4c-.163.162.22-.227.184-.186l19.683.019h.164v.163c-.034,7.367-.062,13.571-.082,17.961-.018,2.151-.033,3.855-.043,5.047-.008.562-.015,1-.02,1.324a3.691,3.691,0,0,1-.019.442" transform="translate(-82.226 -54.416)" fill="#263238"/>
            <rect id="Rectángulo_374782" data-name="Rectángulo 374782" width="37.725" height="3.57" transform="translate(192.663 121.372)" fill="#fff"/>
            <path id="Trazado_804535" data-name="Trazado 804535" d="M312.947,176.928a1.873,1.873,0,0,1-.015-.246c0-.176-.01-.405-.017-.693-.01-.624-.025-1.5-.042-2.631l.074.074c-6.362.064-20.863.108-37.723.108h0c.364-.365.1-.1.183-.182h0v.911q0,.455,0,.9v1.754l-.182-.181,26.735.077,8.028.054,2.186.025.573.013a1.394,1.394,0,0,1,.2.013.872.872,0,0,1-.178.013l-.55.013-2.144.025-7.986.054-26.867.077h-.181v-.182c0-.568,0-1.155,0-1.754v-1.815h0c.081-.081-.182.181.182-.183h0c16.86,0,31.361.045,37.723.108h.075v.073c-.017,1.146-.032,2.04-.042,2.674-.007.281-.013.5-.018.677a1.179,1.179,0,0,1-.014.219" transform="translate(-82.559 -51.986)" fill="#263238"/>
            <rect id="Rectángulo_374783" data-name="Rectángulo 374783" width="16.385" height="14.931" transform="translate(214.003 127.041)" fill="#fff"/>
            <path id="Trazado_804536" data-name="Trazado 804536" d="M322.091,196.389a2.049,2.049,0,0,1-.017-.29c0-.21-.01-.478-.017-.811-.01-.736-.024-1.759-.041-3.046-.02-2.631-.047-6.337-.08-10.784l.155.155-16.383.027c-.042.039.344-.344.181-.18v1.012q0,.506,0,1.008,0,1,0,1.989c0,1.312,0,2.6,0,3.852-.006,2.5-.012,4.877-.017,7.069l-.16-.16,11.813.081,3.354.042.9.019a2.374,2.374,0,0,1,.32.018,1.549,1.549,0,0,1-.285.018l-.864.019-3.319.042-11.916.081h-.16v-.161c0-2.192-.01-4.565-.017-7.069,0-1.253,0-2.54,0-3.852q0-.985,0-1.989,0-.5,0-1.008V181.46c-.163.162.222-.225.184-.184l16.383.027h.156v.155c-.033,4.487-.06,8.228-.08,10.883-.017,1.272-.031,2.283-.041,3.01-.007.321-.013.579-.017.782a1.377,1.377,0,0,1-.018.256" transform="translate(-91.703 -54.416)" fill="#263238"/>
            <rect id="Rectángulo_374784" data-name="Rectángulo 374784" width="16.385" height="7.502" transform="translate(214.003 144.314)" fill="#fff"/>
            <path id="Trazado_804537" data-name="Trazado 804537" d="M322.107,213.624a4.678,4.678,0,0,1-.028-.546c-.008-.383-.02-.884-.034-1.508-.017-1.329-.041-3.18-.071-5.448l.132.132-16.383.05c-.164.163.22-.222.181-.181v.983q0,.489,0,.973l0,1.91c0,1.255,0,2.47-.006,3.635l-.173-.173,11.711.083,3.416.048.924.022a2.277,2.277,0,0,1,.333.021,1.4,1.4,0,0,1-.292.021l-.888.022-3.377.048-11.828.083h-.173v-.174c0-1.164,0-2.38-.006-3.635q0-.942,0-1.91,0-.484,0-.973v-.983c-.04.038.346-.346.183-.183l16.383.05h.134v.132c-.029,2.3-.054,4.18-.071,5.529-.013.612-.025,1.1-.033,1.479a3.219,3.219,0,0,1-.028.495" transform="translate(-91.719 -61.809)" fill="#263238"/>
            <path id="Trazado_804538" data-name="Trazado 804538" d="M293.428,181.6c-6.093,8.417-13.1,16.314-19.2,24.731" transform="translate(-82.321 -54.514)" fill="#fff"/>
            <path id="Trazado_804539" data-name="Trazado 804539" d="M274.229,206.329a7.946,7.946,0,0,1,.67-1.034c.449-.654,1.121-1.583,1.966-2.721,1.689-2.277,4.109-5.357,6.82-8.724s5.16-6.419,6.9-8.654l2.057-2.648a8,8,0,0,1,.784-.95,7.943,7.943,0,0,1-.67,1.034c-.449.654-1.121,1.583-1.966,2.721-1.689,2.277-4.109,5.357-6.82,8.725s-5.159,6.418-6.9,8.652l-2.057,2.649a8,8,0,0,1-.785.95" transform="translate(-82.32 -54.514)" fill="#263238"/>
            <line id="Línea_1672" data-name="Línea 1672" x2="19.685" y2="24.774" transform="translate(191.909 127.041)" fill="#fff"/>
            <path id="Trazado_804540" data-name="Trazado 804540" d="M293.914,206.311c-.079.063-4.549-5.433-9.985-12.273s-9.779-12.438-9.7-12.5,4.549,5.432,9.986,12.274,9.778,12.438,9.7,12.5" transform="translate(-82.321 -54.495)" fill="#263238"/>
            <path id="Trazado_804541" data-name="Trazado 804541" d="M266.437,180.291a3.08,3.08,0,1,1-3.079-3.079,3.079,3.079,0,0,1,3.079,3.079" transform="translate(-78.133 -53.197)" fill="#f7a781"/>
            <path id="Trazado_804542" data-name="Trazado 804542" d="M263.35,183.381a3.1,3.1,0,1,1,3.1-3.1,3.1,3.1,0,0,1-3.1,3.1m0-6.159a3.062,3.062,0,1,0,3.062,3.062,3.066,3.066,0,0,0-3.062-3.062" transform="translate(-78.125 -53.19)" fill="#263238"/>
            <path id="Trazado_804543" data-name="Trazado 804543" d="M338.408,169.61a3.079,3.079,0,1,1-3.079-3.08,3.079,3.079,0,0,1,3.079,3.08" transform="translate(-99.738 -49.991)" fill="#f7a781"/>
            <path id="Trazado_804544" data-name="Trazado 804544" d="M335.321,172.7a3.1,3.1,0,1,1,3.1-3.1,3.1,3.1,0,0,1-3.1,3.1m0-6.159a3.062,3.062,0,1,0,3.062,3.062,3.065,3.065,0,0,0-3.062-3.062" transform="translate(-99.73 -49.983)" fill="#263238"/>
            <path id="Trazado_804545" data-name="Trazado 804545" d="M351.912,148.01l-14.5,7.457-7.007-.994,3.751-6.647,15.29-5.387Z" transform="translate(-99.185 -42.759)" fill="#ebebeb"/>
            <path id="Trazado_804546" data-name="Trazado 804546" d="M329.546,152.78l3.552-5.717,15.707-5.706,3.156,6.2-15.229,6.083Z" transform="translate(-98.926 -42.434)" fill="#455a64"/>
            <path id="Trazado_804547" data-name="Trazado 804547" d="M350,146.625a9.293,9.293,0,0,1-1.523.689c-.954.391-2.279.913-3.748,1.475l-3.772,1.41c-.959.35-1.591.561-1.553.541-.12-.147,2.268-1.169,5.195-2.292a36.882,36.882,0,0,1,5.4-1.824" transform="translate(-101.883 -44.012)" fill="#fff"/>
            <path id="Trazado_804548" data-name="Trazado 804548" d="M348.039,150.646a21.806,21.806,0,0,1-6.989,2.6,160.637,160.637,0,0,1,6.989-2.6" transform="translate(-102.379 -45.22)" fill="#fff"/>
            <path id="Trazado_804549" data-name="Trazado 804549" d="M391.569,154.559l5.3,28.016,52.965-10.027-9.2-27.278Z" transform="translate(-117.545 -43.609)" fill="#ebebeb"/>
            <rect id="Rectángulo_374785" data-name="Rectángulo 374785" width="51.058" height="25.262" transform="translate(272.921 111.159) rotate(-10.72)" fill="#fff"/>
            <path id="Trazado_804550" data-name="Trazado 804550" d="M444.768,170.024s-.039-.156-.1-.449-.148-.738-.26-1.3c-.225-1.147-.552-2.814-.972-4.952-.83-4.293-2.026-10.475-3.5-18.1l.158.108-50.153,9.543h0l.146-.213c1.652,8.748,3.238,17.146,4.689,24.823l-.2-.137,36.022-6.735L441,170.694l2.788-.506.724-.127c.164-.027.254-.037.254-.037a1.854,1.854,0,0,1-.23.054l-.7.143-2.745.542-10.354,2.008-36.1,6.919-.169.032-.032-.169c-1.456-7.676-3.05-16.072-4.709-24.819l-.034-.179.179-.034h0l50.172-9.45.133-.025.024.132,3.373,18.206c.388,2.131.691,3.792.9,4.935.1.551.174.976.227,1.277.05.286.066.428.066.428" transform="translate(-116.981 -43.541)" fill="#263238"/>
            <rect id="Rectángulo_374786" data-name="Rectángulo 374786" width="14.117" height="14.117" transform="translate(278.951 115.689) rotate(-10.719)" fill="#fff"/>
            <path id="Trazado_804551" data-name="Trazado 804551" d="M415.015,175.354a1.881,1.881,0,0,1-.069-.269c-.042-.2-.1-.446-.161-.754-.141-.688-.334-1.638-.577-2.828-.484-2.448-1.162-5.883-1.973-9.99l.184.125-13.864,2.649c-.034.046.274-.4.144-.21v.011l0,.015.006.029.011.059.022.119.045.238.09.473q.089.472.178.941l.35,1.855q.345,1.836.674,3.587c.435,2.328.845,4.526,1.221,6.546l-.184-.125,10.021-1.815,2.843-.5.761-.125a1.8,1.8,0,0,1,.275-.034,1.1,1.1,0,0,1-.234.062l-.724.156-2.792.57-10.091,1.992-.154.031-.03-.156c-.388-2.018-.81-4.214-1.256-6.54q-.334-1.747-.684-3.584l-.352-1.854q-.089-.468-.178-.941l-.09-.474-.045-.237-.022-.119-.011-.059-.006-.029,0-.015v-.01c-.13.189.176-.262.146-.216l13.874-2.6.156-.029.028.155,1.834,10.119c.206,1.183.37,2.125.489,2.808l.12.731a1.152,1.152,0,0,1,.027.241" transform="translate(-119.568 -48.421)" fill="#263238"/>
            <path id="Trazado_804552" data-name="Trazado 804552" d="M416.16,176.93c-.031,0-.08-.358-.277-.99a4.905,4.905,0,0,0-1.469-2.328l-.013-.01a5.156,5.156,0,0,0-1.717-1.042,5.376,5.376,0,0,0-2.33-.265l-.324.032.174-.278a3.507,3.507,0,0,0,.126-3.316,3.143,3.143,0,0,0-1.228-1.374,3.3,3.3,0,0,0-1.873-.439,3.553,3.553,0,0,0-2.03.756,3.038,3.038,0,0,0-1.073,1.745,3.547,3.547,0,0,0,1.137,3.458l.174.138-.19.115a6.028,6.028,0,0,0-2.09,2.131,6.427,6.427,0,0,0-.8,2.179,8.93,8.93,0,0,0-.055,2.041,2.04,2.04,0,0,1-.124-.529,5.726,5.726,0,0,1,0-1.539,6.378,6.378,0,0,1,.762-2.277,6.2,6.2,0,0,1,2.149-2.27l-.016.253a3.847,3.847,0,0,1-1.287-3.773,3.377,3.377,0,0,1,1.189-1.952,3.886,3.886,0,0,1,2.237-.839,3.646,3.646,0,0,1,2.078.492,3.477,3.477,0,0,1,1.362,1.535,3.818,3.818,0,0,1-.175,3.64l-.149-.246a5.61,5.61,0,0,1,2.458.318,5.327,5.327,0,0,1,1.781,1.134l-.013-.01a4.8,4.8,0,0,1,1.456,2.486,5.093,5.093,0,0,1,.142.759.82.82,0,0,1,.012.267" transform="translate(-120.713 -49.996)" fill="#263238"/>
            <path id="Trazado_804553" data-name="Trazado 804553" d="M425.992,159.889l12.027-2.277" transform="translate(-127.878 -47.313)" fill="#fff"/>
            <path id="Trazado_804554" data-name="Trazado 804554" d="M438.019,157.606a102.759,102.759,0,0,1-12.027,2.277,102.852,102.852,0,0,1,12.027-2.277" transform="translate(-127.878 -47.307)" fill="#263238"/>
            <path id="Trazado_804555" data-name="Trazado 804555" d="M426.748,164.662l2.43-.46" transform="translate(-128.105 -49.292)" fill="#fff"/>
            <path id="Trazado_804556" data-name="Trazado 804556" d="M429.178,164.175c.019.1-.51.282-1.181.409s-1.23.15-1.249.05.51-.282,1.181-.409,1.23-.15,1.248-.051" transform="translate(-128.105 -49.265)" fill="#263238"/>
            <path id="Trazado_804557" data-name="Trazado 804557" d="M449.565,165.983c.019.1-4.78,1.09-10.718,2.214s-10.767,1.955-10.785,1.857,4.779-1.09,10.718-2.215,10.766-1.955,10.785-1.856" transform="translate(-128.5 -49.824)" fill="#263238"/>
            <path id="Trazado_804558" data-name="Trazado 804558" d="M450.344,169.422c.019.1-4.808,1.1-10.778,2.226s-10.828,1.966-10.847,1.868,4.806-1.1,10.779-2.226,10.827-1.966,10.846-1.868" transform="translate(-128.697 -50.856)" fill="#263238"/>
            <path id="Trazado_804559" data-name="Trazado 804559" d="M450.735,173.513a3.833,3.833,0,0,1-.822.228l-2.267.488c-1.917.4-4.571.92-7.506,1.475s-5.6,1.039-7.527,1.371l-2.288.374a3.787,3.787,0,0,1-.849.088,3.863,3.863,0,0,1,.822-.227l2.267-.488c1.917-.4,4.572-.92,7.508-1.475s5.6-1.039,7.526-1.371l2.288-.374a3.9,3.9,0,0,1,.849-.088" transform="translate(-128.924 -52.084)" fill="#263238"/>
            <path id="Trazado_804560" data-name="Trazado 804560" d="M426.366,156.264a3.865,3.865,0,0,1,.535-.291,13.834,13.834,0,0,1,1.621-.651,14.882,14.882,0,0,1,6.368-.6,13.628,13.628,0,0,1,4.276,1.23,5.875,5.875,0,0,1,1.975,1.552,2.985,2.985,0,0,1,.6,2.594,4.377,4.377,0,0,1-1.649,2.269,13.653,13.653,0,0,1-2.491,1.473,23.185,23.185,0,0,1-5.724,1.96,13.813,13.813,0,0,1-6.049-.08,8.847,8.847,0,0,1-2.687-1.109,4.431,4.431,0,0,1-1.83-2.127,3.124,3.124,0,0,1,.294-2.647A6.461,6.461,0,0,1,423.312,158a16.8,16.8,0,0,1,3.908-2.124,17.229,17.229,0,0,1,6.3-1.12,15.571,15.571,0,0,1,1.74.132,3.78,3.78,0,0,1,.6.109,3.926,3.926,0,0,1-.607-.036c-.4-.033-.98-.064-1.733-.062a17.762,17.762,0,0,0-6.21,1.218,16.732,16.732,0,0,0-3.817,2.124A6.179,6.179,0,0,0,421.882,160a2.8,2.8,0,0,0-.257,2.375,4.112,4.112,0,0,0,1.7,1.948,8.54,8.54,0,0,0,2.586,1.055,13.522,13.522,0,0,0,5.894.069,23.02,23.02,0,0,0,5.636-1.923,13.439,13.439,0,0,0,2.433-1.426,4.061,4.061,0,0,0,1.538-2.077,2.658,2.658,0,0,0-.528-2.316,5.59,5.59,0,0,0-1.859-1.479,13.557,13.557,0,0,0-4.171-1.243,15.2,15.2,0,0,0-6.293.476c-.719.22-1.267.429-1.633.582a3.834,3.834,0,0,1-.565.224" transform="translate(-126.421 -46.413)" fill="#e8505b"/>
            <path id="Trazado_804561" data-name="Trazado 804561" d="M449.168,153.889a61.611,61.611,0,0,1,7.343-5.971,30.815,30.815,0,0,1-3.556,3.127,30.854,30.854,0,0,1-3.787,2.844" transform="translate(-134.835 -44.402)" fill="#e8505b"/>
            <path id="Trazado_804562" data-name="Trazado 804562" d="M453.475,154.491a25.292,25.292,0,0,1-4.158,1.041l-.5.1-.28.057.068-.276a8.8,8.8,0,0,1,1.514-3.471c.093.047-.685,1.5-1.163,3.555l-.212-.219.5-.1a25.35,25.35,0,0,1,4.232-.684" transform="translate(-134.645 -45.612)" fill="#e8505b"/>
            <path id="Trazado_804563" data-name="Trazado 804563" d="M439.22,159.911a123.619,123.619,0,0,1-13.256,2.035,123.678,123.678,0,0,1,13.256-2.035" transform="translate(-127.87 -47.999)" fill="#e8505b"/>
            <path id="Trazado_804564" data-name="Trazado 804564" d="M420.8,151.226a3.079,3.079,0,1,1-3.6-2.453,3.079,3.079,0,0,1,3.6,2.453" transform="translate(-124.486 -44.644)" fill="#f1b192"/>
            <path id="Trazado_804565" data-name="Trazado 804565" d="M417.764,154.889a3.1,3.1,0,1,1,.577-.055,3.062,3.062,0,0,1-.577.055m.008-6.16a3.063,3.063,0,1,0,3,2.493,3.064,3.064,0,0,0-3-2.493" transform="translate(-124.479 -44.636)" fill="#263238"/>
            <path id="Trazado_804566" data-name="Trazado 804566" d="M130.649,47.138l250.516,6.825.155-7.466Z" transform="translate(-39.219 -13.958)" fill="#e0e0e0"/>
            <rect id="Rectángulo_374787" data-name="Rectángulo 374787" width="258.581" height="5.57" transform="translate(88.891 27.61)" fill="#455a64"/>
          </g>
        </g>
        <g id="Grupo_1066484" data-name="Grupo 1066484">
          <g id="Grupo_1066483" data-name="Grupo 1066483" clip-path="url(#clip-path)">
            <path id="Trazado_804567" data-name="Trazado 804567" d="M508.481,142.707a7.326,7.326,0,0,1,11.431,6.927c-.179,1.454-.792,2.92-.419,4.336.7,2.654,4.443,3.69,4.936,6.39a7.3,7.3,0,0,1-.47,3.182,4.177,4.177,0,0,0,.073,3.159,9.143,9.143,0,0,0,1.689,1.7,5.631,5.631,0,0,1,.263,7.093,8.126,8.126,0,0,1-6.806,2.99,15.027,15.027,0,0,1-7.236-2.471" transform="translate(-152.641 -42.46)" fill="#263238"/>
            <path id="Trazado_804568" data-name="Trazado 804568" d="M500.825,143.2a7.566,7.566,0,0,0-5.525-4.938c-2.516-.6-5.638-1.425-7.942-.248a6.622,6.622,0,0,0-3.386,3.313c-.67,1.8.361,5.145.875,6.99s.9,3.952-.115,5.575c-.99,1.581-3.006,2.195-4.257,3.577a4.983,4.983,0,0,0,.519,6.918c-2.225-.13-4.1,2.139-4.026,4.366a6.407,6.407,0,0,0,3.695,5.19,14.337,14.337,0,0,0,6.509,1.224,39.532,39.532,0,0,0,8.226-.853c2.228-.471,4.552-1.222,6-2.978a9.223,9.223,0,0,0,1.7-5.912c.014-7.405-3.873-14.746-2.188-21.958" transform="translate(-143.18 -41.25)" fill="#263238"/>
            <path id="Trazado_804569" data-name="Trazado 804569" d="M489.253,258.645s-14.478,46.99-13.565,62.167,11.939,52.934,11.939,52.934Z" transform="translate(-142.784 -77.643)" fill="#eb996e"/>
            <path id="Trazado_804570" data-name="Trazado 804570" d="M513.464,246.988c.322-.087,6.672,9.241,6.883,17.262a20.521,20.521,0,0,1-.089,2.358,29.432,29.432,0,0,1-2,8.178c-5.368,13.555-10.9,29.633-10.995,33.293-.281,11.284-5.159,61.946-5.159,61.946L491.4,370.3l-3.206-61.914,5.3-61.914Z" transform="translate(-146.55 -73.989)" fill="#ffbe9d"/>
            <path id="Trazado_804571" data-name="Trazado 804571" d="M406.469,198.036c1.093-1.144,6.077,3.18,6.526,3.514s.948-.3.527-.583c-.606-.4-6.864-4.8-5.8-5.929.589-.628,1.619.535,1.619.535s5.553,4.54,6.037,3.989-2.68-3.336-3.815-4.2-1.174-1.73-.384-1.914c.538-.125,4.077,2.428,5.18,3.3s4.084,3.337,3.6.928.052-4.442.579-4.891,1.345.122,1.169.864a8.946,8.946,0,0,0,.018,2.477,5.847,5.847,0,0,0,.542,1.911c.337.7.651,1.28.931,1.766,3.334,2.011,12.928,7.338,22.7,8.471,1.764.2,8.594-10.464,8.594-10.464l10.65,8.654s.08.689-7.58,10.142c-10.426,12.867-40.767-9.1-40.767-9.1l.019-.032a73.3,73.3,0,0,1-7.1-3.486c-3.112-1.92-2.944-2.2-2.659-2.526.767-.871,5.6,3.17,5.067,1.7s-6.489-4.254-5.65-5.132" transform="translate(-121.994 -57.827)" fill="#ffbe9d"/>
            <path id="Trazado_804572" data-name="Trazado 804572" d="M394.105,189.367s-1.752,16.015.5,24.785l21.4-.936s-4.586-15.8-1.77-22.8Z" transform="translate(-118.111 -56.846)" fill="#ebebeb"/>
            <path id="Trazado_804573" data-name="Trazado 804573" d="M394.506,188.632s.146,17.291,1.026,22.567l21.687-1.026s-1.9-17-1.172-21.541Z" transform="translate(-118.427 -56.625)" fill="#1969d5"/>
            <path id="Trazado_804574" data-name="Trazado 804574" d="M414.373,198.994a72.878,72.878,0,0,1-7.265.619c-4.02.242-7.282.356-7.288.256a72.869,72.869,0,0,1,7.266-.619c4.018-.242,7.281-.356,7.287-.256" transform="translate(-120.022 -59.725)" fill="#fff"/>
            <path id="Trazado_804575" data-name="Trazado 804575" d="M414.381,204.228a146.128,146.128,0,0,1-14.553.875,72.876,72.876,0,0,1,7.266-.619c4.018-.242,7.281-.356,7.287-.256" transform="translate(-120.024 -61.296)" fill="#fff"/>
            <path id="Trazado_804576" data-name="Trazado 804576" d="M411.8,209.357a47.494,47.494,0,0,1-8.291.5,47.311,47.311,0,0,1,8.291-.5" transform="translate(-121.129 -62.829)" fill="#fff"/>
            <path id="Trazado_804577" data-name="Trazado 804577" d="M518.5,301.077s2.1-44.9-4.363-48.821-36.343,2.393-36.343,2.393-9.3,42.385-8.893,42.74c3.08,2.689,49.6,3.687,49.6,3.687" transform="translate(-140.754 -75.34)" fill="#455a64"/>
            <path id="Trazado_804578" data-name="Trazado 804578" d="M535.417,316.7a79.66,79.66,0,0,1-10.755-.551,79.66,79.66,0,0,1,10.755.551" transform="translate(-157.498 -94.888)" fill="#263238"/>
            <path id="Trazado_804579" data-name="Trazado 804579" d="M535.276,320.972a9.332,9.332,0,0,1,.2-3.669,9.373,9.373,0,0,1-.2,3.669" transform="translate(-160.652 -95.251)" fill="#263238"/>
            <path id="Trazado_804580" data-name="Trazado 804580" d="M527.288,320.759a12.147,12.147,0,0,1-.326-4.183,12.194,12.194,0,0,1,.326,4.183" transform="translate(-158.164 -95.033)" fill="#263238"/>
            <path id="Trazado_804581" data-name="Trazado 804581" d="M489.243,424.189l.02-1.387,11.044-.212.021,4.313-.682.044c-3.038.171-15.459.655-17.49.041-2.266-.685,7.087-2.8,7.087-2.8" transform="translate(-144.632 -126.857)" fill="#e8505b"/>
            <g id="Grupo_1066470" data-name="Grupo 1066470" transform="translate(351.716 296.939)" opacity="0.6">
              <g id="Grupo_1066469" data-name="Grupo 1066469">
                <g id="Grupo_1066468" data-name="Grupo 1066468" clip-path="url(#clip-path-6)">
                  <path id="Trazado_804582" data-name="Trazado 804582" d="M502.587,427.475a3.821,3.821,0,0,1,1.4-2.349,3.71,3.71,0,0,1,2.573-.8l0,3.077Z" transform="translate(-502.587 -424.313)" fill="#fff"/>
                </g>
              </g>
            </g>
            <g id="Grupo_1066473" data-name="Grupo 1066473" transform="translate(337.153 298.52)" opacity="0.6">
              <g id="Grupo_1066472" data-name="Grupo 1066472">
                <g id="Grupo_1066471" data-name="Grupo 1066471" clip-path="url(#clip-path-7)">
                  <path id="Trazado_804583" data-name="Trazado 804583" d="M484.682,426.572s-3.278.948-2.869,1.488,12.979.523,18.524.03l-.018-.246-14.662.144s-.334-1.391-.975-1.416" transform="translate(-481.778 -426.572)" fill="#fff"/>
                </g>
              </g>
            </g>
            <path id="Trazado_804584" data-name="Trazado 804584" d="M500.373,428.264a.972.972,0,0,1-.189.021l-.544.034-2,.089c-1.69.063-4.026.119-6.607.125s-4.918-.041-6.608-.1l-2-.08-.544-.031a1.043,1.043,0,0,1-.189-.02.965.965,0,0,1,.19-.007l.544.006,2,.038c1.69.032,4.025.064,6.605.058s4.914-.047,6.6-.085l2-.047.544-.008a1.017,1.017,0,0,1,.19.006" transform="translate(-144.599 -128.559)" fill="#263238"/>
            <path id="Trazado_804585" data-name="Trazado 804585" d="M486.868,428.16a2.912,2.912,0,0,0-1.058-1.72,1.778,1.778,0,0,1,1.058,1.72" transform="translate(-145.835 -128.012)" fill="#263238"/>
            <path id="Trazado_804586" data-name="Trazado 804586" d="M492.009,425.778c-.031.02-.187-.169-.348-.422s-.266-.474-.235-.493.187.169.348.422.266.474.235.493" transform="translate(-147.519 -127.539)" fill="#263238"/>
            <path id="Trazado_804587" data-name="Trazado 804587" d="M493.238,425.229c-.024.027-.2-.088-.388-.258s-.324-.33-.3-.358.2.088.388.259.324.33.3.358" transform="translate(-147.857 -127.463)" fill="#263238"/>
            <path id="Trazado_804588" data-name="Trazado 804588" d="M493.845,423.983a1.3,1.3,0,0,1-.575.074,1.315,1.315,0,0,1-.576-.059,2.509,2.509,0,0,1,1.151-.015" transform="translate(-147.902 -127.257)" fill="#263238"/>
            <path id="Trazado_804589" data-name="Trazado 804589" d="M494.054,422.957a1.617,1.617,0,0,1-1.3.1,3.493,3.493,0,0,1,.652-.046,3.622,3.622,0,0,1,.651-.054" transform="translate(-147.919 -126.964)" fill="#263238"/>
            <path id="Trazado_804590" data-name="Trazado 804590" d="M490.836,424.375a2.056,2.056,0,0,1-.708,0,4.126,4.126,0,0,1-.754-.165,2.056,2.056,0,0,1-.431-.177.385.385,0,0,1-.176-.22.278.278,0,0,1,.107-.283,1.3,1.3,0,0,1,1.6.377,1.265,1.265,0,0,1,.232.472.4.4,0,0,1,.019.192,2.005,2.005,0,0,0-.323-.6,1.272,1.272,0,0,0-.6-.392,1.1,1.1,0,0,0-.843.058c-.112.083-.069.216.057.29a2.029,2.029,0,0,0,.4.169,4.854,4.854,0,0,0,.729.189c.424.074.694.075.694.1" transform="translate(-146.721 -127.096)" fill="#263238"/>
            <path id="Trazado_804591" data-name="Trazado 804591" d="M491.426,424.261a.7.7,0,0,1-.083-.491,1.162,1.162,0,0,1,.193-.517.709.709,0,0,1,.588-.361.281.281,0,0,1,.219.326.781.781,0,0,1-.12.316,2.133,2.133,0,0,1-.333.429,1.024,1.024,0,0,1-.4.286c-.013-.017.141-.127.335-.351a2.441,2.441,0,0,0,.3-.425c.1-.15.163-.418-.015-.45-.177-.017-.358.16-.465.3a1.154,1.154,0,0,0-.2.46,2.6,2.6,0,0,0-.011.477" transform="translate(-147.494 -126.948)" fill="#263238"/>
            <path id="Trazado_804592" data-name="Trazado 804592" d="M506.813,424.23c0,.025-.316-.029-.813.029a3.451,3.451,0,0,0-2.88,2.3c-.167.472-.183.789-.208.787a.615.615,0,0,1,0-.222,2.9,2.9,0,0,1,.119-.594,3.347,3.347,0,0,1,2.961-2.367,2.922,2.922,0,0,1,.606.015.626.626,0,0,1,.216.05" transform="translate(-150.966 -127.327)" fill="#263238"/>
            <path id="Trazado_804593" data-name="Trazado 804593" d="M499.529,426.776a9.046,9.046,0,0,1-3.217.035c0-.038.722,0,1.609-.007s1.6-.066,1.608-.028" transform="translate(-148.988 -128.11)" fill="#263238"/>
            <path id="Trazado_804594" data-name="Trazado 804594" d="M503.857,426.771c.027.027-.059.153-.132.318s-.113.311-.151.309-.057-.174.029-.364.23-.289.253-.262" transform="translate(-151.158 -128.111)" fill="#263238"/>
            <path id="Trazado_804595" data-name="Trazado 804595" d="M504.973,425.323c.027.026-.045.141-.158.256s-.227.188-.254.162.045-.14.159-.256.227-.188.253-.162" transform="translate(-151.462 -127.676)" fill="#263238"/>
            <path id="Trazado_804596" data-name="Trazado 804596" d="M506.545,424.635c-.008.037-.154.036-.316.093s-.278.143-.307.119.062-.177.264-.245.37,0,.358.033" transform="translate(-151.871 -127.452)" fill="#263238"/>
            <path id="Trazado_804597" data-name="Trazado 804597" d="M507.854,424.338c.013.034-.05.091-.141.127s-.176.036-.19,0,.05-.091.141-.127.176-.036.19,0" transform="translate(-152.353 -127.374)" fill="#263238"/>
            <path id="Trazado_804598" data-name="Trazado 804598" d="M465.526,204.12l12.324,6.933.857-.871.906,1.709-.838,22.959,33.432-6.321-2.729-3.929c-2.626-3.626-2.038-8.715-.96-13.06l.367-1.482,7.056.114s.7-3.976,0-12.825c-.01-.13-.021-.26-.033-.388a15.191,15.191,0,0,0-16.174-13.75l-12.182.827s-9.7-1.994-16.306,9.4Z" transform="translate(-139.746 -54.987)" fill="#59bee2"/>
            <path id="Trazado_804599" data-name="Trazado 804599" d="M485.745,207.789a8.676,8.676,0,0,1-.437,1.726L484.03,213.6a5.371,5.371,0,0,0,.223,4.066,15.343,15.343,0,0,1,.723,1.617,6.056,6.056,0,0,1-.957-1.51,5.807,5.807,0,0,1-.6-1.874,6.1,6.1,0,0,1,.257-2.4c.494-1.617,1.015-3.028,1.384-4.065a8.664,8.664,0,0,1,.682-1.645" transform="translate(-145.108 -62.376)" fill="#263238"/>
            <path id="Trazado_804600" data-name="Trazado 804600" d="M531.62,216.358a4.815,4.815,0,0,1-.956-.011l-2.594-.167c-2.189-.157-5.211-.4-8.547-.686l-1.591-.139-.175-.015.01-.176c.185-2.96.177-5.6.3-7.486.052-.944.118-1.7.179-2.221a3.653,3.653,0,0,1,.133-.8,3.934,3.934,0,0,1,0,.81c-.018.59-.041,1.332-.069,2.221-.055,1.884,0,4.517-.177,7.5l-.164-.191,1.591.136c3.336.288,6.354.57,8.538.792l2.584.281a4.839,4.839,0,0,1,.943.153" transform="translate(-155.425 -61.436)" fill="#263238"/>
            <path id="Trazado_804601" data-name="Trazado 804601" d="M517.941,201.331a2.383,2.383,0,0,1-.475-.084l-1.344-.3a41.271,41.271,0,0,0-4.971-.873,18.414,18.414,0,0,0-3.465-.038,17.1,17.1,0,0,0-3.881.832c-2.682.84-5.464,2.3-8.677,3.077a14.97,14.97,0,0,1-2.417.367,11.975,11.975,0,0,1-2.379-.134,14.8,14.8,0,0,1-4.209-1.51c-2.517-1.317-4.639-2.74-6.667-3.4a9.6,9.6,0,0,0-4.926-.542,9.974,9.974,0,0,0-1.754.563,4.769,4.769,0,0,1,1.725-.7,9.453,9.453,0,0,1,5.037.437c2.077.639,4.243,2.058,6.737,3.342a14.637,14.637,0,0,0,4.116,1.457,11.587,11.587,0,0,0,4.654-.236c3.147-.76,5.938-2.207,8.657-3.042a17.131,17.131,0,0,1,3.958-.813,18.236,18.236,0,0,1,3.518.083,35.744,35.744,0,0,1,4.978.991l1.328.369a2.425,2.425,0,0,1,.456.155" transform="translate(-141.923 -59.563)" fill="#fafafa"/>
            <path id="Trazado_804602" data-name="Trazado 804602" d="M507.716,229.375a6.68,6.68,0,0,1-.919.057,15.521,15.521,0,0,0-2.464.362,33.323,33.323,0,0,0-3.549,1.062c-1.322.456-2.775.993-4.358,1.388a12.932,12.932,0,0,1-4.582.4,8.247,8.247,0,0,1-3.54-1.266,5.836,5.836,0,0,1-1.777-1.807,3.847,3.847,0,0,1-.305-.619c-.057-.147-.082-.225-.07-.23.034-.016.159.29.494.771a6.17,6.17,0,0,0,1.8,1.668,8.265,8.265,0,0,0,3.438,1.149,13.041,13.041,0,0,0,4.456-.417c1.557-.388,3-.912,4.337-1.353a29.217,29.217,0,0,1,3.6-1,12.587,12.587,0,0,1,2.513-.251,3.351,3.351,0,0,1,.922.085" transform="translate(-145.937 -68.659)" fill="#fafafa"/>
            <g id="Grupo_1066476" data-name="Grupo 1066476" transform="translate(345.408 143.698)" opacity="0.3">
              <g id="Grupo_1066475" data-name="Grupo 1066475">
                <g id="Grupo_1066474" data-name="Grupo 1066474" clip-path="url(#clip-path-8)">
                  <path id="Trazado_804603" data-name="Trazado 804603" d="M510.966,205.339c-1.506,3.722-1.684,7.822-2.2,11.8s-1.5,8.121-4.228,11.071c-2.808,3.041-6.988,4.323-10.961,5.48l17.41-1.522Z" transform="translate(-493.574 -205.339)"/>
                </g>
              </g>
            </g>
            <path id="Trazado_804604" data-name="Trazado 804604" d="M503.489,316.822s6.251-26.576,11.831-42.789c5.625-16.345-2.438-26.726-2.438-26.726L481.249,251l-6.086,23.39s-4.84,24.975-2.9,43.4Z" transform="translate(-141.631 -74.239)" fill="#59bee2"/>
            <path id="Trazado_804605" data-name="Trazado 804605" d="M514.426,290.863c-.038.019-.231-.513-.828-1.309a8.342,8.342,0,0,0-3.3-2.524,12.41,12.41,0,0,0-6.1-.927,55.466,55.466,0,0,0-7.564,1.386,21.551,21.551,0,0,1-7.725.529,16.607,16.607,0,0,1-5.859-2.374,36.88,36.88,0,0,0-3.731-2.013c-.915-.4-1.452-.55-1.442-.584a1.715,1.715,0,0,1,.4.085,9.633,9.633,0,0,1,1.1.368,30.961,30.961,0,0,1,3.8,1.919,16.777,16.777,0,0,0,5.783,2.267,21.685,21.685,0,0,0,7.6-.554,52.721,52.721,0,0,1,7.617-1.365A12.457,12.457,0,0,1,510.4,286.8a8.17,8.17,0,0,1,3.309,2.674,4.357,4.357,0,0,1,.355.572,3.148,3.148,0,0,1,.219.441,1.667,1.667,0,0,1,.139.381" transform="translate(-143.454 -84.967)" fill="#fafafa"/>
            <path id="Trazado_804606" data-name="Trazado 804606" d="M505.2,330.732a10.686,10.686,0,0,0-.984-1.024,7.127,7.127,0,0,0-3.472-1.548,11.565,11.565,0,0,0-5.619.663c-2.057.677-4.178,1.808-6.559,2.677a14.531,14.531,0,0,1-7.05.854,14.931,14.931,0,0,1-5.507-1.854,13.331,13.331,0,0,1-3.095-2.4,8.212,8.212,0,0,1-.7-.8,1.422,1.422,0,0,1-.215-.3c.03-.025.35.374,1.015,1.006a14.357,14.357,0,0,0,3.12,2.278,15.073,15.073,0,0,0,5.423,1.746,14.418,14.418,0,0,0,6.885-.864c2.345-.856,4.48-1.982,6.576-2.654a11.6,11.6,0,0,1,5.77-.6,7.018,7.018,0,0,1,3.521,1.695,4.9,4.9,0,0,1,.7.807,1.407,1.407,0,0,1,.186.323" transform="translate(-141.689 -98.159)" fill="#fafafa"/>
            <g id="Grupo_1066479" data-name="Grupo 1066479" transform="translate(335.234 180.963)" opacity="0.2">
              <g id="Grupo_1066478" data-name="Grupo 1066478">
                <g id="Grupo_1066477" data-name="Grupo 1066477" clip-path="url(#clip-path-9)">
                  <path id="Trazado_804607" data-name="Trazado 804607" d="M479.608,291.8a8.637,8.637,0,0,0-.236,3.847,2.953,2.953,0,0,0,2.683,2.392c.682-.02,1.422-.35,2.005,0a2.278,2.278,0,0,1,.761,1.452,7.4,7.4,0,0,0,12.9,2.634,10.332,10.332,0,0,0,1.732-7.858,41.923,41.923,0,0,0-2.339-7.92,101.263,101.263,0,0,1-4.06-16.492,5.713,5.713,0,0,1,.123-3.342c.792-1.709,2.938-2.207,4.794-2.53a176.049,176.049,0,0,0,20.926-4.972c-3.9-.857-7.966-.264-11.9.456q-6.543,1.2-12.991,2.844a6.284,6.284,0,0,0-3.007,1.387,6.587,6.587,0,0,0-1.4,3.1,103.967,103.967,0,0,1-10.569,25.761" transform="translate(-479.035 -258.588)"/>
                </g>
              </g>
            </g>
            <path id="Trazado_804608" data-name="Trazado 804608" d="M493.037,259.906l30.293-4.9a36.782,36.782,0,0,0-1.366-4.3c-.609-1.527-2.3-2.715-3.066-3.486-1.8-1.816-27.055,9.324-27.055,9.324Z" transform="translate(-147.646 -74.153)" fill="#455a64"/>
            <path id="Trazado_804609" data-name="Trazado 804609" d="M489.965,261.278l-8.356-2.779,1.245-6.909,8.189,6.386Z" transform="translate(-144.574 -75.525)" fill="#455a64"/>
            <path id="Trazado_804610" data-name="Trazado 804610" d="M492.747,264.978s-2.319,8.332-2.244,13.84.283,17.009,1.049,21.068,11.783-.58,9.657-4.349-5.9-17.3-5.992-20.488.193-11.114.193-11.114Z" transform="translate(-147.243 -79.231)" fill="#455a64"/>
            <path id="Trazado_804611" data-name="Trazado 804611" d="M501.038,307.441a4.149,4.149,0,0,1-.819,1.323,9.752,9.752,0,0,1-6.491,3.509,4.134,4.134,0,0,1-1.556-.04c0-.062.593-.062,1.521-.216a11.062,11.062,0,0,0,6.33-3.422c.638-.693.962-1.188,1.014-1.155" transform="translate(-147.745 -92.29)" fill="#263238"/>
            <path id="Trazado_804612" data-name="Trazado 804612" d="M496.047,316.541c-.094.036-.375-.474-.627-1.139s-.38-1.233-.286-1.269.375.474.627,1.139.38,1.233.286,1.269" transform="translate(-148.625 -94.299)" fill="#263238"/>
            <path id="Trazado_804613" data-name="Trazado 804613" d="M500.85,314.732c-.09.045-.423-.437-.745-1.076s-.509-1.194-.42-1.239.423.436.745,1.076.509,1.194.419,1.239" transform="translate(-149.994 -93.783)" fill="#263238"/>
            <path id="Trazado_804614" data-name="Trazado 804614" d="M504.891,311.66c-.088.05-.453-.427-.816-1.064s-.586-1.195-.5-1.244.453.426.816,1.064.586,1.195.5,1.244" transform="translate(-151.163 -92.863)" fill="#263238"/>
            <path id="Trazado_804615" data-name="Trazado 804615" d="M486.729,262.8c-2.909,5.314-1.663,12.3-5.072,17.312-1.36,2-3.411,3.58-4.2,5.865a5.593,5.593,0,0,0,.966,5.418,4.748,4.748,0,0,0,5.239,1.305,5.781,5.781,0,0,0,2.88-3.06,17.183,17.183,0,0,0,1.076-4.155q1.611-9.41,3.223-18.819a5.73,5.73,0,0,0-.2-3.733c-.614-1.113-2.41-1.6-3.144-.558" transform="translate(-143.234 -78.592)" fill="#455a64"/>
            <path id="Trazado_804616" data-name="Trazado 804616" d="M490.652,293.2a6.718,6.718,0,0,1-.144-1.122c-.072-.724-.15-1.773-.223-3.072-.15-2.6-.25-6.191-.161-10.161s.358-7.558.626-10.145c.134-1.293.259-2.338.364-3.058a6.614,6.614,0,0,1,.2-1.113,6.845,6.845,0,0,1-.055,1.129c-.064.788-.147,1.82-.248,3.066-.2,2.589-.426,6.17-.519,10.13s-.03,7.546.053,10.141c.044,1.25.08,2.285.108,3.074a6.668,6.668,0,0,1,0,1.131" transform="translate(-147.12 -79.408)" fill="#263238"/>
            <path id="Trazado_804617" data-name="Trazado 804617" d="M484.953,302.406a3.507,3.507,0,0,1-1.379-.158,9.014,9.014,0,0,1-5.352-3.847,3.514,3.514,0,0,1-.589-1.256,11.324,11.324,0,0,0,7.32,5.261" transform="translate(-143.379 -89.199)" fill="#263238"/>
            <path id="Trazado_804618" data-name="Trazado 804618" d="M482.167,302.9c.062.08-.325.481-.863.9s-1.025.687-1.086.607.325-.481.864-.9,1.024-.687,1.085-.607" transform="translate(-144.155 -90.922)" fill="#263238"/>
            <path id="Trazado_804619" data-name="Trazado 804619" d="M478.623,299.8c.052.089-.2.328-.467.634s-.48.579-.575.537-.013-.426.3-.78.693-.479.739-.392" transform="translate(-143.354 -89.99)" fill="#263238"/>
            <path id="Trazado_804620" data-name="Trazado 804620" d="M495.3,259.621c.016-.008.123.134.224.435a2.989,2.989,0,0,1,.1,1.337,3.254,3.254,0,0,1-.879,1.8,3.246,3.246,0,0,1-4.533-.032,3.256,3.256,0,0,1-.854-1.808,2.984,2.984,0,0,1,.122-1.335c.1-.3.214-.441.23-.432a4.475,4.475,0,0,0-.1,1.727,3.125,3.125,0,0,0,.839,1.612,2.984,2.984,0,0,0,4.057.029,3.133,3.133,0,0,0,.862-1.6,4.468,4.468,0,0,0-.073-1.728" transform="translate(-146.892 -77.924)" fill="#263238"/>
            <path id="Trazado_804621" data-name="Trazado 804621" d="M494.69,263.648a7.6,7.6,0,0,0-2.018-3.848,3.8,3.8,0,0,1,2.018,3.848" transform="translate(-147.894 -77.987)" fill="#263238"/>
            <path id="Trazado_804622" data-name="Trazado 804622" d="M459.894,245.052c.319-1.549,6.838-.533,7.4-.488.542.044.642-.76.136-.774-.727-.02-8.363-.417-8.064-1.941.165-.845,1.656-.407,1.656-.407s7.116.9,7.233.174-4.042-1.4-5.461-1.53c-1.4-.124-1.913-.842-1.342-1.417.389-.392,4.744-.108,6.144.049s5.233.657,3.545-1.127-2.315-3.791-2.106-4.451a.768.768,0,0,1,1.449.111,8.968,8.968,0,0,0,1.33,2.089,5.852,5.852,0,0,0,1.474,1.332c.658.414,1.232.738,1.727,1,3.893-.067,14.851-.649,23.732-4.878,1.6-.764,1.717-12.969,1.717-12.969l13.627,1.214a122.416,122.416,0,0,1-1.035,12.619c-1.906,16.451-39.376,13.941-39.376,13.941v-.037a73.37,73.37,0,0,1-7.869.817c-3.656.026-3.664-.3-3.594-.728.187-1.146,6.431-.29,5.2-1.252s-7.757-.158-7.513-1.347" transform="translate(-137.893 -65.989)" fill="#ffbe9d"/>
            <g id="Grupo_1066482" data-name="Grupo 1066482" transform="translate(334.393 145.525)" opacity="0.3">
              <g id="Grupo_1066481" data-name="Grupo 1066481">
                <g id="Grupo_1066480" data-name="Grupo 1066480" clip-path="url(#clip-path-10)">
                  <path id="Trazado_804623" data-name="Trazado 804623" d="M477.834,216.63A30.036,30.036,0,0,0,484,207.949c-.992,2.648-2,5.378-1.927,8.205a3.025,3.025,0,0,1-.521,2.369,13.688,13.688,0,0,0-3.654-1.871" transform="translate(-477.834 -207.949)"/>
                </g>
              </g>
            </g>
            <path id="Trazado_804624" data-name="Trazado 804624" d="M508.581,146.974l-.035,1.761-.353,26.365a5.656,5.656,0,0,1-5.983,5.394,5.975,5.975,0,0,1-6.007-5.724c-.01-3.246-.08-6.663-.08-6.663s-4.181-.694-5.048-6.15a58.289,58.289,0,0,1-.066-10.8,5.761,5.761,0,0,1,6.355-5.371Z" transform="translate(-147.331 -43.754)" fill="#ffbe9d"/>
            <path id="Trazado_804625" data-name="Trazado 804625" d="M492.85,157.979a.7.7,0,0,0,.675.706.67.67,0,0,0,.722-.631.7.7,0,0,0-.674-.706.67.67,0,0,0-.722.631" transform="translate(-147.948 -47.234)" fill="#263238"/>
            <path id="Trazado_804626" data-name="Trazado 804626" d="M492.477,156.468c.087.091.617-.3,1.37-.3s1.305.379,1.387.286c.04-.041-.048-.206-.289-.381a1.922,1.922,0,0,0-1.11-.342,1.843,1.843,0,0,0-1.09.352c-.232.178-.31.343-.267.383" transform="translate(-147.833 -46.749)" fill="#263238"/>
            <path id="Trazado_804627" data-name="Trazado 804627" d="M503.042,157.979a.7.7,0,0,0,.674.706.67.67,0,0,0,.722-.631.7.7,0,0,0-.674-.706.669.669,0,0,0-.721.631" transform="translate(-151.008 -47.234)" fill="#263238"/>
            <path id="Trazado_804628" data-name="Trazado 804628" d="M503.052,156.668c.087.091.618-.3,1.37-.3s1.3.379,1.386.286c.04-.041-.048-.206-.289-.381a1.922,1.922,0,0,0-1.11-.342,1.843,1.843,0,0,0-1.09.352c-.231.178-.31.343-.267.383" transform="translate(-151.008 -46.809)" fill="#263238"/>
            <path id="Trazado_804629" data-name="Trazado 804629" d="M498.33,162.272a4.978,4.978,0,0,0-1.223-.22c-.192-.02-.374-.058-.407-.19a.985.985,0,0,1,.129-.57q.271-.7.568-1.464A25.158,25.158,0,0,0,498.674,156a25.191,25.191,0,0,0-1.582,3.717c-.19.514-.372,1-.544,1.473a1.113,1.113,0,0,0-.1.754.485.485,0,0,0,.316.281,1.36,1.36,0,0,0,.327.045,4.922,4.922,0,0,0,1.239,0" transform="translate(-149.018 -46.829)" fill="#263238"/>
            <path id="Trazado_804630" data-name="Trazado 804630" d="M498.409,176.859a13.881,13.881,0,0,0,7.307-1.949s-1.773,3.747-7.233,3.237Z" transform="translate(-149.617 -52.506)" fill="#eb996e"/>
            <path id="Trazado_804631" data-name="Trazado 804631" d="M499.576,167.336a1.355,1.355,0,0,1,1.216-.5,1.235,1.235,0,0,1,.855.459.785.785,0,0,1,.06.9.913.913,0,0,1-.987.25,2.847,2.847,0,0,1-.962-.575.835.835,0,0,1-.216-.223.254.254,0,0,1,0-.281" transform="translate(-149.945 -50.079)" fill="#e8505b"/>
            <path id="Trazado_804632" data-name="Trazado 804632" d="M501.289,165.708c-.122-.007-.124.81-.824,1.391s-1.57.49-1.576.6c-.011.051.194.159.562.169a2.031,2.031,0,0,0,1.316-.458,1.77,1.77,0,0,0,.638-1.165c.031-.342-.06-.544-.115-.54" transform="translate(-149.761 -49.744)" fill="#263238"/>
            <path id="Trazado_804633" data-name="Trazado 804633" d="M513.66,171.411c-1.611-.56-3.515-1.128-4.12-2.722a8.065,8.065,0,0,1-.116-5.028,3.377,3.377,0,0,0,.187-2.305,4.35,4.35,0,0,0-1.19-1.221,5.088,5.088,0,0,1-1.549-3.44,8.833,8.833,0,0,1,.693-3.773,3.012,3.012,0,0,0,.333-2.052,3.18,3.18,0,0,0-.948-1.15,8.936,8.936,0,0,1-1.894-2.537,2.523,2.523,0,0,1-.259-2.162,2.665,2.665,0,0,1,2.33-1.145c2.159-.164,4.548.313,5.922,1.986,1.232,1.5,1.374,3.591,1.461,5.531.274,6.112.546,12.282-.511,18.308" transform="translate(-151.489 -43.181)" fill="#263238"/>
            <path id="Trazado_804634" data-name="Trazado 804634" d="M488.037,145.6a8.83,8.83,0,0,0,.933.507,5.978,5.978,0,0,1,.787.685c.141.135.294.286.43.443.036.039.059.078.1.12l.154.154.379.36a9.46,9.46,0,0,0,1.169.921,6.2,6.2,0,0,0,2.029.887,6.309,6.309,0,0,0,4.139-.505,6.414,6.414,0,0,0,2.27-1.822c.929-1.238,1.073-2.239.645-2.784-.439-.561-1.5-.467-2.709-.171a16.024,16.024,0,0,1-1.784.353,4.206,4.206,0,0,1-1.419-.039,3.169,3.169,0,0,1-.661-.235c-.3-.136-.687-.339-1.127-.547-.219-.1-.453-.209-.7-.306-.121-.048-.253-.094-.38-.137s-.29-.1-.432-.131a4.779,4.779,0,0,0-1.634-.134,2.955,2.955,0,0,0-2.232,1.164.893.893,0,0,0,.048,1.218" transform="translate(-146.427 -42.986)" fill="#263238"/>
            <path id="Trazado_804635" data-name="Trazado 804635" d="M502.778,152.526c.073.205.826.108,1.71.214.885.089,1.6.347,1.714.164.052-.088-.071-.281-.359-.479a2.994,2.994,0,0,0-2.61-.288c-.324.13-.488.291-.455.388" transform="translate(-150.928 -45.617)" fill="#263238"/>
            <path id="Trazado_804636" data-name="Trazado 804636" d="M492.869,153.335c.132.171.651-.006,1.275-.015.623-.03,1.152.115,1.273-.064.053-.087-.029-.258-.26-.42a1.847,1.847,0,0,0-2.053.064c-.22.176-.292.352-.234.435" transform="translate(-147.948 -45.796)" fill="#263238"/>
          </g>
        </g>
        <path id="Trazado_804637" data-name="Trazado 804637" d="M43.029,424.972l10.9,1.225.39-6.346-9.706-1.284Z" transform="translate(-12.917 -125.65)" fill="#455a64"/>
        <g id="Grupo_1066492" data-name="Grupo 1066492">
          <g id="Grupo_1066491" data-name="Grupo 1066491" clip-path="url(#clip-path)">
            <path id="Trazado_804638" data-name="Trazado 804638" d="M51.862,419.016a13.431,13.431,0,0,1-.358,2.94,13.634,13.634,0,0,1-.683,2.893,13.437,13.437,0,0,1,.358-2.941,13.623,13.623,0,0,1,.683-2.892" transform="translate(-15.248 -125.784)" fill="#263238"/>
            <path id="Trazado_804639" data-name="Trazado 804639" d="M54.087,427.709a9.165,9.165,0,0,1-1.578-.181l-3.78-.557c-1.477-.224-2.811-.45-3.77-.645a7.586,7.586,0,0,1-1.535-.388,9.169,9.169,0,0,1,1.578.181l3.781.557c1.476.224,2.81.45,3.769.645a7.6,7.6,0,0,1,1.535.388" transform="translate(-13.035 -127.859)" fill="#263238"/>
            <path id="Trazado_804640" data-name="Trazado 804640" d="M111.369,422.992l-.115-3.976h-11.8l.076,7.167.734.031c3.267.108,16.618.317,18.784-.393,2.416-.793-7.681-2.829-7.681-2.829" transform="translate(-29.855 -125.784)" fill="#455a64"/>
            <path id="Trazado_804641" data-name="Trazado 804641" d="M99.317,428.692a1.062,1.062,0,0,0,.2.017l.584.022,2.151.045c1.817.025,4.327.027,7.1-.031s5.281-.167,7.095-.27l2.147-.136.583-.047a1.131,1.131,0,0,0,.2-.026,1.028,1.028,0,0,0-.2,0l-.585.02-2.148.091c-1.815.076-4.322.168-7.093.227s-5.279.073-7.095.073h-2.151l-.585,0a1.128,1.128,0,0,0-.2.011" transform="translate(-29.814 -128.56)" fill="#263238"/>
            <path id="Trazado_804642" data-name="Trazado 804642" d="M122.08,428.036a3.124,3.124,0,0,1,1.093-1.873,1.909,1.909,0,0,0-1.093,1.873" transform="translate(-36.64 -127.929)" fill="#263238"/>
            <path id="Trazado_804643" data-name="Trazado 804643" d="M117.046,425.992c.034.02.2-.186.362-.462s.274-.515.241-.536-.2.186-.363.462-.274.516-.24.536" transform="translate(-35.134 -127.578)" fill="#263238"/>
            <path id="Trazado_804644" data-name="Trazado 804644" d="M115.664,425.435c.027.029.211-.1.411-.287s.339-.363.312-.392-.211.1-.41.287-.34.363-.313.392" transform="translate(-34.72 -127.506)" fill="#263238"/>
            <path id="Trazado_804645" data-name="Trazado 804645" d="M114.765,424.118A2.7,2.7,0,0,0,116,424.1a1.405,1.405,0,0,0-.619-.065,1.385,1.385,0,0,0-.617.078" transform="translate(-34.451 -127.292)" fill="#263238"/>
            <path id="Trazado_804646" data-name="Trazado 804646" d="M114.443,423.028a1.736,1.736,0,0,0,1.4.075,53.841,53.841,0,0,1-1.4-.075" transform="translate(-34.354 -126.985)" fill="#263238"/>
            <path id="Trazado_804647" data-name="Trazado 804647" d="M117.59,424.464a2.182,2.182,0,0,0,.76-.022,4.41,4.41,0,0,0,.8-.2,2.216,2.216,0,0,0,.459-.2.413.413,0,0,0,.183-.24.3.3,0,0,0-.122-.3,1.4,1.4,0,0,0-1.715.446,1.356,1.356,0,0,0-.237.512.429.429,0,0,0-.015.206,2.148,2.148,0,0,1,.332-.656,1.366,1.366,0,0,1,.64-.436,1.177,1.177,0,0,1,.907.042c.122.087.078.23-.054.312a2.2,2.2,0,0,1-.423.192,5.186,5.186,0,0,1-.777.221c-.453.09-.743.1-.743.121" transform="translate(-35.299 -127.09)" fill="#263238"/>
            <path id="Trazado_804648" data-name="Trazado 804648" d="M117.436,424.358a.748.748,0,0,0,.076-.53,1.248,1.248,0,0,0-.22-.55.762.762,0,0,0-.641-.374.3.3,0,0,0-.227.356.836.836,0,0,0,.136.337,2.326,2.326,0,0,0,.369.451,1.1,1.1,0,0,0,.442.3c.013-.019-.154-.133-.369-.369a2.673,2.673,0,0,1-.328-.449c-.108-.159-.185-.446,0-.484.19-.022.388.162.507.311a1.253,1.253,0,0,1,.226.489,2.733,2.733,0,0,1,.024.512" transform="translate(-34.947 -126.951)" fill="#263238"/>
            <path id="Trazado_804649" data-name="Trazado 804649" d="M99.561,424.2c0,.027.338-.04.874.012a3.7,3.7,0,0,1,3.151,2.4c.192.5.217.843.244.839a.691.691,0,0,0,0-.239,3.188,3.188,0,0,0-.143-.635,3.594,3.594,0,0,0-3.239-2.467,3.135,3.135,0,0,0-.65.031.692.692,0,0,0-.231.059" transform="translate(-29.887 -127.314)" fill="#263238"/>
            <path id="Trazado_804650" data-name="Trazado 804650" d="M107.777,427.27a9.686,9.686,0,0,0,3.456-.043c0-.041-.775.023-1.728.034s-1.724-.032-1.728.01" transform="translate(-32.354 -128.245)" fill="#263238"/>
            <path id="Trazado_804651" data-name="Trazado 804651" d="M104.464,427.359c-.028.029.066.162.15.338s.129.331.169.328.057-.188-.041-.39-.254-.305-.279-.276" transform="translate(-31.357 -128.287)" fill="#263238"/>
            <path id="Trazado_804652" data-name="Trazado 804652" d="M103.182,425.833c-.027.029.052.15.176.271s.249.2.276.169-.051-.15-.176-.272-.249-.2-.276-.168" transform="translate(-30.972 -127.829)" fill="#263238"/>
            <path id="Trazado_804653" data-name="Trazado 804653" d="M101.382,425.134c.009.04.167.035.341.092s.3.147.332.12-.072-.188-.29-.256-.4.008-.384.044" transform="translate(-30.434 -127.599)" fill="#263238"/>
            <path id="Trazado_804654" data-name="Trazado 804654" d="M100.1,424.846c-.013.037.056.1.155.132s.19.035.2,0-.056-.1-.155-.132-.19-.035-.2,0" transform="translate(-30.049 -127.526)" fill="#263238"/>
            <path id="Trazado_804655" data-name="Trazado 804655" d="M175.5,199.258l-3.361,1.6-3.091-4.851,1.808-3.745c.171-.348.355-.738.547-1.185a5.11,5.11,0,0,0,.4-1.647,7.833,7.833,0,0,0-.054-2.108c-.167-.625.494-1.137.944-.773s.951,2.075.617,4.138,2.069-.125,2.958-.907,3.751-3.069,4.2-2.979c.659.13.64.879-.265,1.639s-3.467,3.232-3.044,3.692l.02,0a2.524,2.524,0,0,1,2.192,1.959c.229,1.017.414,2.419-.157,2.883a33.153,33.153,0,0,1-3.714,2.279" transform="translate(-50.745 -55.964)" fill="#b78876"/>
            <path id="Trazado_804656" data-name="Trazado 804656" d="M85.171,138.576l-.09,29.168,12.514.6.362-7.094s4.444.882,5.591-3.246c.733-2.637.549-23.015.549-23.015Z" transform="translate(-25.54 -40.521)" fill="#b78876"/>
            <path id="Trazado_804657" data-name="Trazado 804657" d="M104.933,135.9c-.843,1.743-4.857,4.932-4.857,4.932l-1.813,4.859c-1.575-1.233-3.689-1.162-4.09,1.6-.29,2,2.2,2.4,2.2,2.4a36.3,36.3,0,0,1-4.537,6.8c-2.281,2.535-3.559,2.792-6.033,2.833H83.072s-5.582-4.665-4.479-16.951,12.149-8.7,14.785-11.771c4.293-5,14.368-.53,11.555,5.288" transform="translate(-23.549 -38.559)" fill="#263238"/>
            <path id="Trazado_804658" data-name="Trazado 804658" d="M79.541,154.669s.121-.006.349,0a5.553,5.553,0,0,0,.99-.117,7.084,7.084,0,0,0,3.2-1.7,17.879,17.879,0,0,0,3.244-4.348,15.689,15.689,0,0,1,4.214-5.165,10.143,10.143,0,0,1,3.195-1.361c1.088-.283,2.158-.456,3.165-.652a11.909,11.909,0,0,0,5.049-1.884,5.468,5.468,0,0,0,2.046-2.948,4.546,4.546,0,0,0,.113-1.335s.018.119.038.348a3.989,3.989,0,0,1-.1,1,5.458,5.458,0,0,1-2.039,3.017,11.891,11.891,0,0,1-5.086,1.934c-2,.409-4.323.678-6.3,2a15.691,15.691,0,0,0-4.181,5.114,17.711,17.711,0,0,1-3.292,4.356,7.029,7.029,0,0,1-3.256,1.678,3.945,3.945,0,0,1-1.35.064" transform="translate(-23.877 -40.572)" fill="#455a64"/>
            <path id="Trazado_804659" data-name="Trazado 804659" d="M78.621,143.979s.2-.078.579-.207a8.373,8.373,0,0,1,1.715-.41,3.887,3.887,0,0,1,2.69.579,2.252,2.252,0,0,1,.962,1.435,2.023,2.023,0,0,1-.554,1.838,1.573,1.573,0,0,1-.987.4,2.047,2.047,0,0,1-1.075-.287,3.23,3.23,0,0,1-1.437-1.817,4.487,4.487,0,0,1,3.774-5.894,7.764,7.764,0,0,1,2.882.372,19.941,19.941,0,0,0,2.906.7,11.775,11.775,0,0,0,3.063.007,10.119,10.119,0,0,0,2.946-.815,3.473,3.473,0,0,0,1.97-2.063,2.68,2.68,0,0,0-.653-2.61,2.289,2.289,0,0,0-2.513-.372,1.9,1.9,0,0,0-.927.867,2.1,2.1,0,0,0-.2,1.229,2.846,2.846,0,0,0,1.267,2,4.16,4.16,0,0,0,2.181.614,6.562,6.562,0,0,0,2.1-.314,7.577,7.577,0,0,0,3.1-1.888,8.036,8.036,0,0,0,1.605-2.247,8.531,8.531,0,0,0,.59-1.651c.077-.395.125-.6.125-.6s-.029.209-.1.607a8.114,8.114,0,0,1-.567,1.669,8.008,8.008,0,0,1-1.6,2.28,7.626,7.626,0,0,1-3.13,1.929,6.627,6.627,0,0,1-2.13.328,4.272,4.272,0,0,1-2.244-.625,2.97,2.97,0,0,1-1.329-2.081,2.229,2.229,0,0,1,.21-1.3,2.033,2.033,0,0,1,.987-.93,2.425,2.425,0,0,1,2.666.393,2.817,2.817,0,0,1,.694,2.75A3.61,3.61,0,0,1,96.148,140a10.24,10.24,0,0,1-2.99.829,11.889,11.889,0,0,1-3.1-.008,19.869,19.869,0,0,1-2.925-.7,7.637,7.637,0,0,0-2.829-.372,4.358,4.358,0,0,0-3.674,5.717,3.112,3.112,0,0,0,1.377,1.758,1.937,1.937,0,0,0,1.015.277,1.469,1.469,0,0,0,.922-.366,1.927,1.927,0,0,0,.531-1.744,2.163,2.163,0,0,0-.917-1.386,3.844,3.844,0,0,0-2.637-.589,8.83,8.83,0,0,0-1.712.382c-.385.12-.588.179-.588.179" transform="translate(-23.601 -39.875)" fill="#455a64"/>
            <path id="Trazado_804660" data-name="Trazado 804660" d="M59.687,261.011,43.029,370.422l13.836,1.757,19.522-91.772L81.3,372.795l15-.262L93.742,258.185Z" transform="translate(-12.917 -77.504)" fill="#263238"/>
            <path id="Trazado_804661" data-name="Trazado 804661" d="M80.8,372.989l-.018-.337-4.775-89.744L56.968,372.4l-14.511-1.843,16.754-110.04.276-.022,34.426-2.856.008.372,2.563,114.7Zm-4.375-95.407,5.038,94.694,14.307-.249L93.23,258.4l-33.41,2.772L43.257,369.958l13.161,1.672Z" transform="translate(-12.745 -77.342)" fill="#263238"/>
            <path id="Trazado_804662" data-name="Trazado 804662" d="M112.7,379.33c-.1,0-.182-21.922-.182-48.958s.081-48.963.182-48.963.182,21.917.182,48.963-.081,48.958-.182,48.958" transform="translate(-33.777 -84.476)" fill="#455a64"/>
            <path id="Trazado_804663" data-name="Trazado 804663" d="M58.449,381.8a1.188,1.188,0,0,1,.029-.239c.031-.176.072-.4.123-.694l.507-2.661c.465-2.329,1.13-5.661,1.95-9.769,1.674-8.243,4.049-19.617,6.78-32.156s5.307-23.877,7.214-32.069c.964-4.076,1.745-7.382,2.29-9.694l.646-2.63c.073-.285.132-.51.176-.682a1.175,1.175,0,0,1,.073-.23,1.233,1.233,0,0,1-.036.239c-.036.174-.083.4-.141.69l-.579,2.645c-.519,2.318-1.262,5.632-2.178,9.719-1.843,8.207-4.375,19.546-7.109,32.088s-5.146,23.9-6.884,32.132l-2.064,9.745-.575,2.647c-.066.287-.118.514-.158.687a1.146,1.146,0,0,1-.066.232" transform="translate(-17.545 -87.35)" fill="#455a64"/>
            <path id="Trazado_804664" data-name="Trazado 804664" d="M90.823,289.781a15.6,15.6,0,0,1-2.36.232c-1.459.1-3.477.209-5.692.425s-4.216.514-5.667.7a15.465,15.465,0,0,1-2.36.234,15.037,15.037,0,0,1,2.321-.489c1.442-.249,3.44-.583,5.669-.805s4.254-.281,5.717-.32a15,15,0,0,1,2.372.026" transform="translate(-22.437 -86.976)" fill="#455a64"/>
            <path id="Trazado_804665" data-name="Trazado 804665" d="M112.494,277.125a3.685,3.685,0,0,1-1.64.188,6.979,6.979,0,0,1-6.2-4.455,3.693,3.693,0,0,1-.344-1.615c.062-.012.167.61.582,1.514a7.333,7.333,0,0,0,5.981,4.3c.989.1,1.612.006,1.62.069" transform="translate(-31.309 -81.425)" fill="#455a64"/>
            <path id="Trazado_804666" data-name="Trazado 804666" d="M64.471,243.107h36.447l-1.412-29.461c-.232-5.787-.2-6.478-.34-11.821,0,0,5.441,6.578,9.72,11.191a8.719,8.719,0,0,0,10.121,1.941L141.4,199.336l-4.193-10.726-20.349,12.456c-.932-.579-8.856-11.88-14.331-17.4a19.374,19.374,0,0,0-13.2-5.71,96.675,96.675,0,0,0-12.362.5,12.934,12.934,0,0,0-11.51,11.79c-.4,4.729-.078,10.22-.078,19.551Z" transform="translate(-19.354 -53.411)" fill="#74c67b"/>
            <path id="Trazado_804667" data-name="Trazado 804667" d="M64.773,182.541c-3.439,1.526-17.791,19.912-18.805,31.855-.756,8.9,16.562,7.934,16.562,7.934s1.181-36.527.665-36.01" transform="translate(-13.792 -54.797)" fill="#74c67b"/>
            <path id="Trazado_804668" data-name="Trazado 804668" d="M67.083,186.992s0,.132-.02.382c-.022.29-.051.652-.086,1.093-.073.949-.169,2.323-.26,4.023-.192,3.4-.356,8.1-.518,13.292s-.308,9.9-.482,13.3c-.084,1.7-.172,3.076-.244,4.025-.037.441-.068.8-.092,1.093-.022.249-.041.38-.041.38s0-.132.013-.383c.017-.29.038-.652.064-1.094.049-1,.116-2.366.2-4.027.148-3.4.279-8.1.439-13.3s.342-9.894.561-13.293c.1-1.7.217-3.074.307-4.022.045-.44.083-.8.113-1.091.027-.249.049-.379.049-.379" transform="translate(-19.614 -56.133)" fill="#263238"/>
            <path id="Trazado_804669" data-name="Trazado 804669" d="M64.155,220.479a4.373,4.373,0,0,1-.487.687c-.319.411-.777.964-1.31,1.554s-1.039,1.1-1.415,1.458a4.391,4.391,0,0,1-.635.553,5.2,5.2,0,0,1,.563-.626c.357-.376.849-.9,1.379-1.484s1-1.128,1.339-1.521a5.341,5.341,0,0,1,.567-.622" transform="translate(-18.104 -66.185)" fill="#263238"/>
            <path id="Trazado_804670" data-name="Trazado 804670" d="M138.126,214.646a11.379,11.379,0,0,1,.343-1.788,11.254,11.254,0,0,1,.485-1.755,22.728,22.728,0,0,1-.828,3.543" transform="translate(-41.462 -63.371)" fill="#263238"/>
            <path id="Trazado_804671" data-name="Trazado 804671" d="M140.646,214.874a29.625,29.625,0,0,1-.925-4.057,29.9,29.9,0,0,1,.925,4.057" transform="translate(-41.941 -63.285)" fill="#263238"/>
            <path id="Trazado_804672" data-name="Trazado 804672" d="M111.432,203.275s-.076-.062-.212-.19l-.586-.566c-.506-.495-1.237-1.213-2.107-2.135a24.693,24.693,0,0,1-5.465-8.193,13.34,13.34,0,0,1-.857-5.368,11.071,11.071,0,0,1,.968-4.333,6.357,6.357,0,0,1,1.889-2.316,5.962,5.962,0,0,1,.684-.447c.162-.092.251-.134.251-.134.013.02-.344.192-.9.626a6.446,6.446,0,0,0-1.831,2.316,11.094,11.094,0,0,0-.927,4.294,13.337,13.337,0,0,0,.859,5.311,25.179,25.179,0,0,0,5.4,8.173c.859.929,1.578,1.658,2.071,2.165l.568.586c.129.134.191.211.191.211" transform="translate(-30.675 -53.912)" fill="#263238"/>
            <path id="Trazado_804673" data-name="Trazado 804673" d="M78.764,197.261c-.079.062-.68-.565-1.344-1.4a5.276,5.276,0,0,1-1.058-1.628c.078-.062.68.565,1.344,1.4a5.275,5.275,0,0,1,1.058,1.628" transform="translate(-22.921 -58.305)" fill="#fafafa"/>
            <path id="Trazado_804674" data-name="Trazado 804674" d="M90.6,212.686a10.235,10.235,0,0,1-1.79,2.043,10.233,10.233,0,0,1-2.047,1.785,10.208,10.208,0,0,1,1.79-2.043,10.213,10.213,0,0,1,2.047-1.785" transform="translate(-26.043 -63.845)" fill="#fafafa"/>
            <path id="Trazado_804675" data-name="Trazado 804675" d="M103.4,231.447a15.893,15.893,0,0,1-.99-1.786,15.988,15.988,0,0,1-1.072-1.738,5.263,5.263,0,0,1,2.062,3.524" transform="translate(-30.42 -68.419)" fill="#fafafa"/>
            <path id="Trazado_804676" data-name="Trazado 804676" d="M72.586,228.2a9.939,9.939,0,0,1-1.008-5.742c.107,0,.151,1.307.432,2.884s.675,2.821.575,2.858" transform="translate(-21.455 -66.78)" fill="#fafafa"/>
            <path id="Trazado_804677" data-name="Trazado 804677" d="M89.344,237.533a6.576,6.576,0,0,1-.43-4.8c.106.016,0,1.094.122,2.409s.409,2.357.307,2.391" transform="translate(-26.609 -69.864)" fill="#fafafa"/>
            <path id="Trazado_804678" data-name="Trazado 804678" d="M80.895,251.189a12.616,12.616,0,0,1-2.652-1.442,12.625,12.625,0,0,1-2.459-1.752,12.6,12.6,0,0,1,2.652,1.443,12.614,12.614,0,0,1,2.458,1.752" transform="translate(-22.749 -74.443)" fill="#fafafa"/>
            <path id="Trazado_804679" data-name="Trazado 804679" d="M106.524,248.722c.044.1-1.246.756-2.749,1.708s-2.657,1.827-2.725,1.746a13.721,13.721,0,0,1,5.474-3.454" transform="translate(-30.333 -74.661)" fill="#fafafa"/>
            <path id="Trazado_804680" data-name="Trazado 804680" d="M74.043,262.9a11.321,11.321,0,0,1-2.831-.379,11.307,11.307,0,0,1-2.759-.736,11.3,11.3,0,0,1,2.831.379,11.321,11.321,0,0,1,2.759.737" transform="translate(-20.549 -78.575)" fill="#fafafa"/>
            <path id="Trazado_804681" data-name="Trazado 804681" d="M94.5,264.4a6.595,6.595,0,0,1-2.076-3.833,13.749,13.749,0,0,1,1.033,1.92A13.785,13.785,0,0,1,94.5,264.4" transform="translate(-27.738 -78.221)" fill="#fafafa"/>
            <path id="Trazado_804682" data-name="Trazado 804682" d="M112.334,261.924c.077.064-.3.644-.843,1.294s-1.046,1.125-1.123,1.06.3-.644.843-1.294,1.046-1.125,1.123-1.06" transform="translate(-33.128 -78.625)" fill="#fafafa"/>
            <path id="Trazado_804683" data-name="Trazado 804683" d="M76.571,206.939c.056.084-.435.509-1.1.951s-1.243.731-1.3.648.435-.509,1.1-.951,1.242-.732,1.3-.648" transform="translate(-22.266 -62.117)" fill="#fafafa"/>
            <path id="Trazado_804684" data-name="Trazado 804684" d="M90.413,189.346a17.652,17.652,0,0,1-1.575-5.877,46.175,46.175,0,0,1,1.575,5.877" transform="translate(-26.661 -55.075)" fill="#fafafa"/>
            <path id="Trazado_804685" data-name="Trazado 804685" d="M102.419,205.224a12.906,12.906,0,0,1-1.908-.4,12.978,12.978,0,0,1-1.92-.335,5,5,0,0,1,3.829.732" transform="translate(-29.596 -61.346)" fill="#fafafa"/>
            <path id="Trazado_804686" data-name="Trazado 804686" d="M111.189,193.651a5.346,5.346,0,0,1-4.153-.639,19.536,19.536,0,0,1,2.067.385,19.466,19.466,0,0,1,2.086.254" transform="translate(-32.131 -57.935)" fill="#fafafa"/>
            <path id="Trazado_804687" data-name="Trazado 804687" d="M122.053,204.34a12.705,12.705,0,0,1,.982-6.064,27.566,27.566,0,0,1-.5,3.03,27.68,27.68,0,0,1-.479,3.034" transform="translate(-36.615 -59.52)" fill="#fafafa"/>
            <path id="Trazado_804688" data-name="Trazado 804688" d="M131.179,220.587a20.257,20.257,0,0,1-3.773-3.892,20.2,20.2,0,0,1,3.773,3.892" transform="translate(-38.245 -65.048)" fill="#fafafa"/>
            <path id="Trazado_804689" data-name="Trazado 804689" d="M140.742,221.081a11.986,11.986,0,0,1-2.256,3.5,11.984,11.984,0,0,1,2.256-3.5" transform="translate(-41.569 -66.365)" fill="#fafafa"/>
            <path id="Trazado_804690" data-name="Trazado 804690" d="M151.122,214.14a16.751,16.751,0,0,1-2.152-4.435,16.75,16.75,0,0,1,2.152,4.435" transform="translate(-44.716 -62.951)" fill="#fafafa"/>
            <path id="Trazado_804691" data-name="Trazado 804691" d="M163.947,209.815a18.472,18.472,0,0,1-5.092-.906,18.46,18.46,0,0,1,5.092.906" transform="translate(-47.687 -62.702)" fill="#fafafa"/>
            <path id="Trazado_804692" data-name="Trazado 804692" d="M54.307,223.06a20.806,20.806,0,0,1,2.343-4.976,10.543,10.543,0,0,1-1.007,2.566,10.54,10.54,0,0,1-1.336,2.41" transform="translate(-16.299 -65.466)" fill="#fafafa"/>
            <path id="Trazado_804693" data-name="Trazado 804693" d="M60.411,210.513a7.909,7.909,0,0,1-1.723-1.644,7.91,7.91,0,0,1-1.451-1.887,7.889,7.889,0,0,1,1.723,1.644,7.894,7.894,0,0,1,1.451,1.887" transform="translate(-17.18 -62.133)" fill="#fafafa"/>
            <path id="Trazado_804694" data-name="Trazado 804694" d="M60.33,233.169c.064.078-.313.5-.843.938s-1.011.734-1.076.657.314-.5.843-.938,1.011-.735,1.076-.657" transform="translate(-17.532 -69.991)" fill="#fafafa"/>
            <path id="Trazado_804695" data-name="Trazado 804695" d="M63.121,198.037c.078.063-.143.472-.5.913s-.7.747-.782.684.144-.471.5-.913.7-.747.781-.684" transform="translate(-18.56 -59.446)" fill="#fafafa"/>
            <g id="Grupo_1066487" data-name="Grupo 1066487" transform="translate(73.815 141.136)" opacity="0.3">
              <g id="Grupo_1066486" data-name="Grupo 1066486">
                <g id="Grupo_1066485" data-name="Grupo 1066485" clip-path="url(#clip-path-12)">
                  <path id="Trazado_804696" data-name="Trazado 804696" d="M105.478,201.678c2.367,7.438,4.195,15.246,6.562,22.684l-.564-15.407a36.912,36.912,0,0,1-6-7.277" transform="translate(-105.478 -201.678)"/>
                </g>
              </g>
            </g>
            <g id="Grupo_1066490" data-name="Grupo 1066490" transform="translate(44.51 142.887)" opacity="0.3">
              <g id="Grupo_1066489" data-name="Grupo 1066489">
                <g id="Grupo_1066488" data-name="Grupo 1066488" clip-path="url(#clip-path-13)">
                  <path id="Trazado_804697" data-name="Trazado 804697" d="M64.729,228.857a43.622,43.622,0,0,1,1.419-24.677Z" transform="translate(-63.603 -204.18)"/>
                </g>
              </g>
            </g>
          </g>
        </g>
      </g>
    </g>
  </g>
</svg>
