<svg xmlns="http://www.w3.org/2000/svg" width="85" height="85" viewBox="0 0 85 85">
  <g id="Grupo_1067309" data-name="Grupo 1067309" transform="translate(-180 -429)">
    <g id="Grupo_1063897" data-name="Grupo 1063897" transform="translate(0 -17)">
      <rect id="Rectángulo_373435" data-name="Rectángulo 373435" width="85" height="85" rx="5" transform="translate(180 446)" fill="#92df98"/>
    </g>
    <g id="Grupo_1067308" data-name="Grupo 1067308" transform="translate(180 436.387)">
      <g id="Grupo_1067284" data-name="Grupo 1067284" transform="translate(19.949 1.49)">
        <g id="Grupo_1067279" data-name="Grupo 1067279" transform="translate(0 0)">
          <circle id="Elipse_8348" data-name="Elipse 8348" cx="16.052" cy="16.052" r="16.052" fill="#e5e9ea"/>
        </g>
        <g id="Grupo_1067280" data-name="Grupo 1067280" transform="translate(3.168 3.168)">
          <path id="Trazado_807430" data-name="Trazado 807430" d="M186.846,30.468a16.053,16.053,0,0,1-22.46,22.46,16.053,16.053,0,1,0,22.46-22.46Z" transform="translate(-164.386 -30.468)" fill="#ccd3d6"/>
        </g>
        <g id="Grupo_1067283" data-name="Grupo 1067283" transform="translate(6.488 5.938)">
          <g id="Grupo_1067281" data-name="Grupo 1067281">
            <path id="Trazado_807431" data-name="Trazado 807431" d="M204.659,60.221l2.087-2.266a1.421,1.421,0,0,0,.185-1.673L205.7,54.154a1.421,1.421,0,0,0-1.541-.676l-3.005.674-.1-.055-.919-2.94a1.421,1.421,0,0,0-1.356-1h-2.457a1.421,1.421,0,0,0-1.356,1l-.919,2.94-.1.055-3.005-.674a1.421,1.421,0,0,0-1.541.676l-1.228,2.128a1.421,1.421,0,0,0,.185,1.673l2.087,2.266v.109L188.369,62.6a1.421,1.421,0,0,0-.185,1.673l1.228,2.128a1.421,1.421,0,0,0,1.541.676l3.005-.674.1.055.919,2.94a1.421,1.421,0,0,0,1.356,1h2.457a1.421,1.421,0,0,0,1.356-1l.919-2.94.1-.055,3.005.674A1.421,1.421,0,0,0,205.7,66.4l1.229-2.128a1.421,1.421,0,0,0-.185-1.673l-2.087-2.266v-.109Zm-7.1,2.328a2.273,2.273,0,1,1,2.273-2.273A2.273,2.273,0,0,1,197.558,62.549Z" transform="translate(-187.994 -50.161)" fill="#62a4fb"/>
          </g>
          <g id="Grupo_1067282" data-name="Grupo 1067282" transform="translate(6.228 3.283)">
            <path id="Trazado_807432" data-name="Trazado 807432" d="M242.72,80.394v-.109l2.087-2.266a1.421,1.421,0,0,0,.185-1.673l-1.228-2.128a1.421,1.421,0,0,0-1.541-.676l-1.706.383a10.007,10.007,0,0,1-8.234,13.126l.752,2.406a1.421,1.421,0,0,0,1.356,1h2.457a1.421,1.421,0,0,0,1.356-1l.919-2.94.1-.055,3.005.674a1.421,1.421,0,0,0,1.541-.676l1.228-2.128a1.421,1.421,0,0,0-.185-1.673Z" transform="translate(-232.282 -73.507)" fill="#5392f9"/>
          </g>
        </g>
      </g>
      <g id="Grupo_1067300" data-name="Grupo 1067300" transform="translate(15.828 26.82)">
        <g id="Grupo_1067289" data-name="Grupo 1067289" transform="translate(22.731 0.837)">
          <g id="Grupo_1067285" data-name="Grupo 1067285" transform="translate(0 11.365)">
            <path id="Trazado_807433" data-name="Trazado 807433" d="M274.2,279.946V293.43h17.615V279.946a5.114,5.114,0,0,0-5.114-5.114h-7.387A5.114,5.114,0,0,0,274.2,279.946Z" transform="translate(-274.198 -274.832)" fill="#59bee2"/>
          </g>
          <g id="Grupo_1067286" data-name="Grupo 1067286" transform="translate(0 11.365)">
            <path id="Trazado_807434" data-name="Trazado 807434" d="M283.857,279.945a8.48,8.48,0,0,0-1.709-5.114h-2.835a5.114,5.114,0,0,0-5.114,5.114v13.484h9.659Z" transform="translate(-274.198 -274.831)" fill="#24a1ce"/>
          </g>
          <g id="Grupo_1067287" data-name="Grupo 1067287" transform="translate(3.125)">
            <circle id="Elipse_8349" data-name="Elipse 8349" cx="5.682" cy="5.682" r="5.682" fill="#fed2a4"/>
          </g>
          <g id="Grupo_1067288" data-name="Grupo 1067288" transform="translate(3.792 0.667)">
            <path id="Trazado_807435" data-name="Trazado 807435" d="M308.851,198.759a5.683,5.683,0,0,1-7.687,7.687,5.683,5.683,0,1,0,7.687-7.687Z" transform="translate(-301.164 -198.759)" fill="#ffbd86"/>
          </g>
        </g>
        <g id="Grupo_1067294" data-name="Grupo 1067294" transform="translate(0 0.837)">
          <g id="Grupo_1067290" data-name="Grupo 1067290" transform="translate(0 11.365)">
            <path id="Trazado_807436" data-name="Trazado 807436" d="M112.552,279.946V293.43h17.615V279.946a5.114,5.114,0,0,0-5.114-5.114h-7.387A5.114,5.114,0,0,0,112.552,279.946Z" transform="translate(-112.552 -274.832)" fill="#59bee2"/>
          </g>
          <g id="Grupo_1067291" data-name="Grupo 1067291" transform="translate(7.956 11.365)">
            <path id="Trazado_807437" data-name="Trazado 807437" d="M178.789,293.43V279.946a5.114,5.114,0,0,0-5.114-5.114h-2.835a8.479,8.479,0,0,0-1.709,5.114V293.43Z" transform="translate(-169.13 -274.832)" fill="#24a1ce"/>
          </g>
          <g id="Grupo_1067292" data-name="Grupo 1067292" transform="translate(3.125)">
            <circle id="Elipse_8350" data-name="Elipse 8350" cx="5.682" cy="5.682" r="5.682" fill="#fed2a4"/>
          </g>
          <g id="Grupo_1067293" data-name="Grupo 1067293" transform="translate(3.792 0.667)">
            <path id="Trazado_807438" data-name="Trazado 807438" d="M147.205,198.759a5.683,5.683,0,0,1-7.687,7.687,5.683,5.683,0,1,0,7.687-7.687Z" transform="translate(-139.518 -198.759)" fill="#ffbd86"/>
          </g>
        </g>
        <g id="Grupo_1067299" data-name="Grupo 1067299" transform="translate(11.366)">
          <g id="Grupo_1067295" data-name="Grupo 1067295" transform="translate(0 12.202)">
            <path id="Trazado_807439" data-name="Trazado 807439" d="M193.375,279.946V293.43H210.99V279.946a5.114,5.114,0,0,0-5.114-5.114h-7.387A5.114,5.114,0,0,0,193.375,279.946Z" transform="translate(-193.375 -274.832)" fill="#62a4fb"/>
          </g>
          <g id="Grupo_1067296" data-name="Grupo 1067296" transform="translate(8.808 12.202)">
            <path id="Trazado_807440" data-name="Trazado 807440" d="M259.7,274.832h-3.693a5.114,5.114,0,0,1,5.114,5.114V293.43h3.694V279.946a5.114,5.114,0,0,0-5.114-5.114Z" transform="translate(-256.007 -274.832)" fill="#5392f9"/>
          </g>
          <g id="Grupo_1067297" data-name="Grupo 1067297" transform="translate(2.288)">
            <circle id="Elipse_8351" data-name="Elipse 8351" cx="5.682" cy="5.682" r="5.682" transform="matrix(0.16, -0.987, 0.987, 0.16, 0, 11.218)" fill="#fed2a4"/>
          </g>
          <g id="Grupo_1067298" data-name="Grupo 1067298" transform="translate(3.792 1.504)">
            <path id="Trazado_807441" data-name="Trazado 807441" d="M228.028,198.759a5.683,5.683,0,0,1-7.687,7.687,5.683,5.683,0,1,0,7.687-7.687Z" transform="translate(-220.341 -198.759)" fill="#ffbd86"/>
          </g>
        </g>
      </g>
      <g id="Grupo_1067306" data-name="Grupo 1067306" transform="translate(1.055 45.905)">
        <g id="Grupo_1067301" data-name="Grupo 1067301" transform="translate(9.092 4.897)">
          <path id="Trazado_807442" data-name="Trazado 807442" d="M72.152,358.6h5.114V376.78H72.152Z" transform="translate(-72.152 -358.597)" fill="#d3effd"/>
        </g>
        <g id="Grupo_1067302" data-name="Grupo 1067302" transform="translate(14.206)">
          <path id="Trazado_807443" data-name="Trazado 807443" d="M163.207,324.774a3.409,3.409,0,0,0-4.822,0l-10.717,10.717h-9.886a3.409,3.409,0,1,0,0-6.819h-10.8L124.8,326.9a11.136,11.136,0,0,0-13.914-.09l-2.364,1.866v18.183l20.577,1.29a11.363,11.363,0,0,0,4.065-.484l15.986-4.937a5.683,5.683,0,0,0,2.341-1.411L163.207,329.6a3.409,3.409,0,0,0,0-4.822Z" transform="translate(-108.519 -323.775)" fill="#fed2a4"/>
        </g>
        <g id="Grupo_1067303" data-name="Grupo 1067303" transform="translate(34.631)">
          <path id="Trazado_807444" data-name="Trazado 807444" d="M288.026,324.774a3.409,3.409,0,0,0-4.822,0l-10.717,10.717h-2.034a41.736,41.736,0,0,1-3.417,3.866,38.164,38.164,0,0,1-13.274,8.779l.152.01a11.364,11.364,0,0,0,4.065-.484l15.986-4.937a5.683,5.683,0,0,0,2.341-1.411L288.026,329.6a3.409,3.409,0,0,0,0-4.822Z" transform="translate(-253.763 -323.775)" fill="#ffbd86"/>
        </g>
        <g id="Grupo_1067304" data-name="Grupo 1067304" transform="translate(0 2.624)">
          <path id="Trazado_807445" data-name="Trazado 807445" d="M7.5,342.434h9.092v22.729H7.5Z" transform="translate(-7.5 -342.434)" fill="#62a4fb"/>
        </g>
        <g id="Grupo_1067305" data-name="Grupo 1067305" transform="translate(5.966 2.624)">
          <path id="Trazado_807446" data-name="Trazado 807446" d="M49.928,342.434h3.125v22.729H49.928Z" transform="translate(-49.928 -342.434)" fill="#5392f9"/>
        </g>
      </g>
      <g id="Grupo_1067307" data-name="Grupo 1067307" transform="translate(0 0.435)">
        <circle id="Elipse_8352" data-name="Elipse 8352" cx="1.137" cy="1.137" r="1.137" transform="translate(4.464 51.503)"/>
        <circle id="Elipse_8353" data-name="Elipse 8353" cx="1.137" cy="1.137" r="1.137" transform="translate(4.464 56.049)"/>
        <path id="Trazado_807447" data-name="Trazado 807447" d="M239,101.754a3.328,3.328,0,1,0-3.328,3.328A3.331,3.331,0,0,0,239,101.754Zm-3.327,1.218a1.218,1.218,0,1,1,1.218-1.218A1.22,1.22,0,0,1,235.671,102.972Z" transform="translate(-199.67 -84.646)"/>
        <path id="Trazado_807448" data-name="Trazado 807448" d="M70.694,46.157a4.464,4.464,0,0,0-6.314,0L57.229,53.31V49.839a1.055,1.055,0,0,0-2.109,0V55.42l-1.146,1.146H48.315a4.466,4.466,0,0,0-2.452-6.615V44.136a6.141,6.141,0,0,0-1.53-4.059h6.727a4.064,4.064,0,0,1,4.059,4.06v.78a1.055,1.055,0,0,0,2.109,0v-.78a6.178,6.178,0,0,0-5.069-6.069A6.729,6.729,0,0,0,50.125,27.2a17.155,17.155,0,0,0,2.983-9.653A16.96,16.96,0,0,0,47.954,5.307a1.055,1.055,0,0,0-1.473,1.51A14.866,14.866,0,0,1,51,17.543a15.033,15.033,0,0,1-3.065,9.086c-.187-.016-.376-.026-.567-.026a6.736,6.736,0,0,0-5.683,3.126A6.787,6.787,0,0,0,39.357,27.5a2.5,2.5,0,0,0,.235-.527l.652-2.084,2.131.478a2.464,2.464,0,0,0,2.686-1.178l1.228-2.128a2.465,2.465,0,0,0-.323-2.915l-1.48-1.606,1.48-1.606a2.464,2.464,0,0,0,.323-2.915L45.06,10.894a2.465,2.465,0,0,0-2.686-1.178l-2.131.478L39.592,8.11a2.465,2.465,0,0,0-2.362-1.737H34.772A2.465,2.465,0,0,0,32.41,8.11l-.651,2.084-2.131-.478a2.465,2.465,0,0,0-2.686,1.178l-1.229,2.128a2.465,2.465,0,0,0,.323,2.915l1.48,1.606-1.48,1.606a2.465,2.465,0,0,0-.323,2.915l1.229,2.128a2.465,2.465,0,0,0,2.686,1.178l2.131-.478.651,2.084a2.5,2.5,0,0,0,.235.527,6.785,6.785,0,0,0-2.327,2.226A6.736,6.736,0,0,0,24.635,26.6c-.191,0-.38.01-.567.026A15,15,0,0,1,36,2.545a14.845,14.845,0,0,1,6.752,1.6A1.055,1.055,0,0,0,43.7,2.264,16.934,16.934,0,0,0,36,.435,17.108,17.108,0,0,0,21.876,27.2a6.729,6.729,0,0,0-2.035,10.872,6.178,6.178,0,0,0-5.069,6.069v5.611H11.2V48.529a1.055,1.055,0,0,0-1.055-1.055H1.055A1.055,1.055,0,0,0,0,48.529V71.258a1.055,1.055,0,0,0,1.055,1.055h9.092A1.055,1.055,0,0,0,11.2,71.258V70.04h4.033l13.832.868A1.055,1.055,0,1,0,29.2,68.8l-12.883-.808V51.312l1.963-1.55a10.08,10.08,0,0,1,12.595.083l2.191,1.775a1.054,1.054,0,0,0,.664.235h10.8a2.355,2.355,0,0,1,0,4.71H32.307a1.054,1.054,0,0,0-.746.309L30.07,58.366a1.055,1.055,0,1,0,1.491,1.492l1.183-1.183H54.411a1.055,1.055,0,0,0,.746-.309L65.872,47.649A2.355,2.355,0,1,1,69.2,50.98L57.484,62.7a4.643,4.643,0,0,1-1.907,1.149L39.59,68.785a10.259,10.259,0,0,1-3.686.439l-1.793-.113a1.055,1.055,0,0,0-.132,2.105l1.793.113q.393.024.784.024a12.343,12.343,0,0,0,3.658-.553L56.2,65.862a6.76,6.76,0,0,0,2.777-1.673L70.695,52.471a4.47,4.47,0,0,0,0-6.314ZM47.367,28.712a4.628,4.628,0,1,1-4.628,4.628,4.633,4.633,0,0,1,4.628-4.628ZM34.772,26.6a.364.364,0,0,1-.349-.257l-.919-2.94a1.055,1.055,0,0,0-.479-.6l-.1-.055a1.055,1.055,0,0,0-.759-.116l-3.005.674a.365.365,0,0,1-.4-.174l-1.229-2.128a.364.364,0,0,1,.048-.431l2.087-2.266a1.055,1.055,0,0,0,.279-.715v-.11a1.055,1.055,0,0,0-.279-.715l-2.087-2.266a.364.364,0,0,1-.048-.431l1.229-2.128a.365.365,0,0,1,.4-.174l3.005.674a1.054,1.054,0,0,0,.759-.116l.1-.055a1.054,1.054,0,0,0,.479-.6l.919-2.94a.364.364,0,0,1,.349-.257H37.23a.364.364,0,0,1,.349.257l.919,2.94a1.054,1.054,0,0,0,.478.6l.1.055a1.054,1.054,0,0,0,.759.116l3.005-.674a.364.364,0,0,1,.4.174l1.229,2.128a.364.364,0,0,1-.048.431l-2.087,2.266a1.055,1.055,0,0,0-.279.715V17.6a1.055,1.055,0,0,0,.279.715l2.087,2.266a.365.365,0,0,1,.048.431l-1.229,2.128a.365.365,0,0,1-.4.174l-3.005-.674a1.053,1.053,0,0,0-.758.115l-.1.056a1.054,1.054,0,0,0-.478.6l-.919,2.94a.365.365,0,0,1-.349.257H34.772ZM36,28.712a4.628,4.628,0,1,1-4.628,4.628A4.633,4.633,0,0,1,36,28.712Zm-11.366,0a4.628,4.628,0,1,1-4.628,4.628,4.633,4.633,0,0,1,4.628-4.628ZM9.092,70.2H2.109V49.583H9.092ZM11.2,51.856h3.005V67.93H11.2Zm9.325-5.7a12.159,12.159,0,0,0-3.554,1.947l-.089.071V44.136a4.064,4.064,0,0,1,4.059-4.059h6.727a6.142,6.142,0,0,0-1.53,4.059v1.459a12.131,12.131,0,0,0-5.613.565ZM32.2,48.207a12.2,12.2,0,0,0-3.954-2.135V44.136a4.064,4.064,0,0,1,4.059-4.059h7.387a4.064,4.064,0,0,1,4.059,4.059v5.61H34.1Z" transform="translate(0 -0.435)"/>
      </g>
    </g>
  </g>
</svg>
