<svg xmlns="http://www.w3.org/2000/svg" xmlns:xlink="http://www.w3.org/1999/xlink" width="76.999" height="76.999" viewBox="0 0 76.999 76.999">
  <defs>
    <clipPath id="clip-path">
      <circle id="Elipse_8287" data-name="Elipse 8287" cx="38.5" cy="38.5" r="38.5" transform="translate(331.001 1539)" fill="#59bee2"/>
    </clipPath>
  </defs>
  <g id="Grupo_1067198" data-name="Grupo 1067198" transform="translate(-331.001 -1539)">
    <g id="Enmascarar_grupo_1064340" data-name="Enmascarar grupo 1064340" clip-path="url(#clip-path)">
      <g id="advertencia" transform="translate(336.412 1549.929)">
        <path id="Trazado_807055" data-name="Trazado 807055" d="M52.583,15.176a2.328,2.328,0,0,0-.589-2.939L37.666.751A3.576,3.576,0,0,0,34.449.159L20.791,4.526a.545.545,0,0,1-.2,0,2.6,2.6,0,0,0-2.5-1.913H14.609A2.609,2.609,0,0,0,12,5.221v8.7a2.609,2.609,0,0,0,2.609,2.609h3.478a2.609,2.609,0,0,0,2.527-1.991l4.857.232a.856.856,0,0,1,.377.105l7.762,4.234a2.685,2.685,0,0,0,1.03.3c-.014.2-.031.4-.031.6a8.937,8.937,0,0,0,.06.983,3.887,3.887,0,0,0-.93-.113,3.839,3.839,0,0,0-3.181,1.671L14.392,46.311a3.671,3.671,0,0,0-.217,3.838,3.826,3.826,0,0,0,3.4,2.028H49.906A3.826,3.826,0,0,0,53.3,50.149a3.671,3.671,0,0,0-.214-3.838L40.87,28.344A8.688,8.688,0,0,0,51.165,16.291h.023a2.32,2.32,0,0,0,1.4-1.115ZM18.957,13.917a.87.87,0,0,1-.87.87H14.609a.87.87,0,0,1-.87-.87v-8.7a.87.87,0,0,1,.87-.87h3.478a.87.87,0,0,1,.87.87v.87H17.218a.87.87,0,1,0,0,1.739h1.739v3.478H17.218a.87.87,0,1,0,0,1.739h1.739Zm7.723-.572a2.625,2.625,0,0,0-1.123-.316L20.7,12.8,20.7,6.279a2.071,2.071,0,0,0,.609-.095L34.957,1.82a1.826,1.826,0,0,1,1.631.3L50.91,13.594a.589.589,0,0,1,.15.739.576.576,0,0,1-.757.249L37.347,6.559a1.85,1.85,0,0,0-2.018.036L32.451,8.542a2.609,2.609,0,0,0-.395,3.993l3.51,3.556h0a.935.935,0,0,1,.163,1.11c-.019.024-.038.05-.055.075a.936.936,0,0,1-1.231.3Zm9.842,1.237L33.3,11.317a.87.87,0,0,1,.132-1.331l2.877-1.947a.111.111,0,0,1,.126,0l5.483,3.391a8.734,8.734,0,0,0-5.392,3.152ZM51.765,49.335a2.063,2.063,0,0,1-1.858,1.1H17.573a2.063,2.063,0,0,1-1.858-1.1,1.957,1.957,0,0,1,.116-2.046L32,23.523a2.123,2.123,0,0,1,3.485,0L51.652,47.289A1.957,1.957,0,0,1,51.765,49.335ZM43.3,26.96a6.916,6.916,0,0,1-4.538-1.7L36.92,22.544c-.049-.071-.1-.136-.157-.2A6.615,6.615,0,0,1,36.348,20a7.173,7.173,0,0,1,.093-1.07,2.421,2.421,0,0,0,.628-.624c.02-.025.038-.05.056-.075A2.677,2.677,0,0,0,37.5,16.2a6.972,6.972,0,0,1,5.8-3.149,6.723,6.723,0,0,1,1.478.166l3.933,2.435A6.947,6.947,0,0,1,43.3,26.96Z" transform="translate(0 0)" fill="#12263f"/>
        <path id="Trazado_807056" data-name="Trazado 807056" d="M56,66.612v8.7a2.609,2.609,0,1,0,5.217,0v-8.7a2.609,2.609,0,1,0-5.217,0Zm3.478,0v8.7a.87.87,0,1,1-1.739,0v-8.7a.87.87,0,1,1,1.739,0Z" transform="translate(-24.872 -36.174)" fill="#12263f"/>
        <path id="Trazado_807057" data-name="Trazado 807057" d="M58.612,100.006a2.609,2.609,0,1,0,2.609,2.609,2.609,2.609,0,0,0-2.609-2.609Zm0,3.478a.87.87,0,1,1,.87-.87A.87.87,0,0,1,58.612,103.484Z" transform="translate(-24.872 -56.524)" fill="#12263f"/>
        <path id="Trazado_807058" data-name="Trazado 807058" d="M80.614,38.35a.87.87,0,1,1,.754-1.3.87.87,0,0,0,1.505-.87,2.6,2.6,0,0,0-1.39-1.13v-.174a.87.87,0,0,0-1.739,0v.16a2.6,2.6,0,0,0,.87,5.057.87.87,0,1,1-.754,1.3.87.87,0,0,0-1.505.87,2.6,2.6,0,0,0,1.391,1.13v.174a.87.87,0,0,0,1.739,0v-.16a2.6,2.6,0,0,0-.871-5.057Z" transform="translate(-37.31 -19.216)" fill="#12263f"/>
      </g>
    </g>
  </g>
</svg>
