<svg xmlns="http://www.w3.org/2000/svg" width="141" height="141" viewBox="0 0 141 141">
  <g id="Grupo_1067341" data-name="Grupo 1067341" transform="translate(-1080 -4068)">
    <g id="Trazado_802274" data-name="Trazado 802274" transform="translate(1080 4068)" fill="#fff">
      <path d="M 70.5 139 C 61.25167846679688 139 52.28105926513672 137.1891632080078 43.83731842041016 133.6177673339844 C 39.77883911132812 131.9011535644531 35.86428070068359 129.7763977050781 32.20240020751953 127.3024597167969 C 28.57476043701172 124.851676940918 25.1634407043457 122.0370788574219 22.06318092346191 118.9368209838867 C 18.96291923522949 115.8365631103516 16.14831924438477 112.4252395629883 13.69754028320312 108.7975997924805 C 11.22360038757324 105.1357192993164 9.09883975982666 101.2211608886719 7.382239818572998 97.16268157958984 C 3.810839891433716 88.71894073486328 2 79.74832153320312 2 70.5 C 2 61.25167846679688 3.810839891433716 52.28105926513672 7.382239818572998 43.83731842041016 C 9.09883975982666 39.77883911132812 11.22360038757324 35.86428070068359 13.69754028320312 32.20240020751953 C 16.14831924438477 28.57476043701172 18.96291923522949 25.1634407043457 22.06318092346191 22.06318092346191 C 25.1634407043457 18.96291923522949 28.57476043701172 16.14831924438477 32.20240020751953 13.69754028320312 C 35.86428070068359 11.22360038757324 39.77883911132812 9.09883975982666 43.83731842041016 7.382239818572998 C 52.28105926513672 3.810839891433716 61.25167846679688 2 70.5 2 C 79.74832153320312 2 88.71894073486328 3.810839891433716 97.16268157958984 7.382239818572998 C 101.2211608886719 9.09883975982666 105.1357192993164 11.22360038757324 108.7975997924805 13.69754028320312 C 112.4252395629883 16.14831924438477 115.8365631103516 18.96291923522949 118.9368209838867 22.06318092346191 C 122.0370788574219 25.1634407043457 124.851676940918 28.57476043701172 127.3024597167969 32.20240020751953 C 129.7763977050781 35.86428070068359 131.9011535644531 39.77883911132812 133.6177673339844 43.83731842041016 C 137.1891632080078 52.28105926513672 139 61.25167846679688 139 70.5 C 139 79.74832153320312 137.1891632080078 88.71894073486328 133.6177673339844 97.16268157958984 C 131.9011535644531 101.2211608886719 129.7763977050781 105.1357192993164 127.3024597167969 108.7975997924805 C 124.851676940918 112.4252395629883 122.0370788574219 115.8365631103516 118.9368209838867 118.9368209838867 C 115.8365631103516 122.0370788574219 112.4252395629883 124.851676940918 108.7975997924805 127.3024597167969 C 105.1357192993164 129.7763977050781 101.2211608886719 131.9011535644531 97.16268157958984 133.6177673339844 C 88.71894073486328 137.1891632080078 79.74832153320312 139 70.5 139 Z" stroke="none"/>
      <path d="M 70.5 4 C 61.52080535888672 4 52.81230163574219 5.7576904296875 44.61643218994141 9.224258422851562 C 40.67688751220703 10.89054870605469 36.87689208984375 12.95315551757812 33.322021484375 15.35478210449219 C 29.79987335205078 17.73430633544922 26.48765563964844 20.46715545654297 23.47740936279297 23.47740936279297 C 20.46715545654297 26.48765563964844 17.73430633544922 29.79987335205078 15.35478210449219 33.322021484375 C 12.95315551757812 36.87689208984375 10.89054870605469 40.67688751220703 9.224258422851562 44.61643218994141 C 5.7576904296875 52.81230163574219 4 61.52080535888672 4 70.5 C 4 79.47919464111328 5.7576904296875 88.18769836425781 9.224258422851562 96.38356018066406 C 10.89054870605469 100.3231048583984 12.95315551757812 104.1231079101562 15.35478210449219 107.677978515625 C 17.73430633544922 111.2001342773438 20.46715545654297 114.5123443603516 23.47740936279297 117.5225830078125 C 26.48765563964844 120.5328521728516 29.79987335205078 123.2656936645508 33.322021484375 125.6452178955078 C 36.87689208984375 128.0468444824219 40.67688751220703 130.1094512939453 44.61643218994141 131.7757415771484 C 52.81230163574219 135.2423095703125 61.52080535888672 137 70.5 137 C 79.47919464111328 137 88.18769836425781 135.2423095703125 96.38356018066406 131.7757415771484 C 100.3231048583984 130.1094512939453 104.1231079101562 128.0468444824219 107.677978515625 125.6452178955078 C 111.2001342773438 123.2656936645508 114.5123443603516 120.5328521728516 117.5225830078125 117.5225830078125 C 120.5328521728516 114.5123443603516 123.2656936645508 111.2001342773438 125.6452178955078 107.677978515625 C 128.0468444824219 104.1231079101562 130.1094512939453 100.3231048583984 131.7757415771484 96.38356018066406 C 135.2423095703125 88.18769836425781 137 79.47919464111328 137 70.5 C 137 61.52080535888672 135.2423095703125 52.81230163574219 131.7757415771484 44.61643218994141 C 130.1094512939453 40.67688751220703 128.0468444824219 36.87689208984375 125.6452178955078 33.322021484375 C 123.2656936645508 29.79987335205078 120.5328521728516 26.48765563964844 117.5225830078125 23.47740936279297 C 114.5123443603516 20.46715545654297 111.2001342773438 17.73430633544922 107.677978515625 15.35478210449219 C 104.1231079101562 12.95315551757812 100.3231048583984 10.89054870605469 96.38356018066406 9.224258422851562 C 88.18769836425781 5.7576904296875 79.47919464111328 4 70.5 4 M 70.5 0 C 109.4360656738281 0 141 31.56393432617188 141 70.5 C 141 109.4360656738281 109.4360656738281 141 70.5 141 C 31.56393432617188 141 0 109.4360656738281 0 70.5 C 0 31.56393432617188 31.56393432617188 0 70.5 0 Z" stroke="none" fill="#288640"/>
    </g>
    <g id="chip" transform="translate(1097.423 4085.423)">
      <g id="Grupo_1065971" data-name="Grupo 1065971" transform="translate(19.947 0)">
        <g id="Grupo_1065970" data-name="Grupo 1065970">
          <path id="Trazado_802276" data-name="Trazado 802276" d="M111.147,51.522H86.11V47.984h6.755a1.555,1.555,0,0,0,0-3.11H86.11V41.336H90.8a6.5,6.5,0,0,0,4.625-1.916l10.227-10.227a4.876,4.876,0,1,0-2.2-2.2L93.225,37.221a3.409,3.409,0,0,1-2.426,1h-4.69V34.8a8.212,8.212,0,0,0-8.2-8.2H74.476V12.827a4.879,4.879,0,1,0-3.11,0V26.592H67.828V19.837a1.555,1.555,0,0,0-3.11,0v6.755H61.18V1.555a1.555,1.555,0,1,0-3.11,0V26.592H54.532V19.837a1.555,1.555,0,0,0-3.11,0v6.755H47.884V21.9a6.5,6.5,0,0,0-1.916-4.625L35.737,7.047a4.881,4.881,0,1,0-2.2,2.2l10.23,10.231a3.408,3.408,0,0,1,1,2.426v4.69H41.343a8.237,8.237,0,0,0-2.05.259,1.555,1.555,0,0,0,.775,3.012,5.121,5.121,0,0,1,1.275-.16H77.907A5.1,5.1,0,0,1,83,34.8V71.359a5.122,5.122,0,0,1-.16,1.274,1.555,1.555,0,1,0,3.012.774,8.23,8.23,0,0,0,.258-2.048V67.928H99.875a4.879,4.879,0,1,0,0-3.11H86.109V61.28h6.755a1.555,1.555,0,1,0,0-3.11H86.109V54.632h25.037a1.555,1.555,0,1,0,0-3.11Zm-4.575-27.95a1.769,1.769,0,1,1-.518,1.251A1.757,1.757,0,0,1,106.572,23.573ZM32.621,6.13a1.768,1.768,0,1,1,0-2.5A1.771,1.771,0,0,1,32.621,6.13Zm40.3,3.842A1.769,1.769,0,1,1,74.69,8.2,1.771,1.771,0,0,1,72.921,9.972ZM104.5,64.6a1.769,1.769,0,1,1-1.769,1.769A1.771,1.771,0,0,1,104.5,64.6Z" transform="translate(-26.494 0)" fill="#12263f"/>
        </g>
      </g>
      <g id="Grupo_1065973" data-name="Grupo 1065973" transform="translate(0 31.578)">
        <g id="Grupo_1065972" data-name="Grupo 1065972">
          <path id="Trazado_802277" data-name="Trazado 802277" d="M84.781,108.191a4.884,4.884,0,0,0-5.618-.917L68.933,97.044a3.408,3.408,0,0,1-1-2.426v-4.69h3.431a8.233,8.233,0,0,0,2.05-.259,1.555,1.555,0,0,0-.775-3.012,5.118,5.118,0,0,1-1.274.16H34.8A5.1,5.1,0,0,1,29.7,81.725V45.161a5.115,5.115,0,0,1,.16-1.274,1.555,1.555,0,0,0-3.012-.775,8.221,8.221,0,0,0-.259,2.05v3.431H12.826a4.879,4.879,0,1,0,0,3.11H26.592V55.24H19.837a1.555,1.555,0,0,0,0,3.11h6.755v3.538H1.555a1.555,1.555,0,0,0,0,3.11H26.592v3.538H19.837a1.555,1.555,0,0,0,0,3.11h6.755v3.538H21.9A6.5,6.5,0,0,0,17.277,77.1L7.05,87.326a4.875,4.875,0,1,0,2.2,2.2L19.477,79.3a3.409,3.409,0,0,1,2.426-1h4.69v3.431a8.212,8.212,0,0,0,8.2,8.2h3.431v13.766a4.879,4.879,0,1,0,3.11,0V89.927h3.538v6.755a1.555,1.555,0,1,0,3.11,0V89.927h3.538v25.037a1.555,1.555,0,1,0,3.11,0V89.928H58.17v6.755a1.555,1.555,0,1,0,3.11,0V89.928h3.538v4.69a6.5,6.5,0,0,0,1.916,4.625l10.23,10.23a4.877,4.877,0,1,0,7.817-1.282ZM8.2,51.916a1.769,1.769,0,1,1,1.769-1.769A1.771,1.771,0,0,1,8.2,51.916ZM6.13,92.948A1.769,1.769,0,1,1,6.648,91.7,1.757,1.757,0,0,1,6.13,92.948Zm35.42,15.369a1.769,1.769,0,1,1-1.769-1.769A1.771,1.771,0,0,1,41.55,108.317Zm41.032,4.575a1.768,1.768,0,1,1,0-2.5A1.771,1.771,0,0,1,82.582,112.892Z" transform="translate(0 -41.944)" fill="#12263f"/>
        </g>
      </g>
      <g id="Grupo_1065975" data-name="Grupo 1065975" transform="translate(36.564 34.902)">
        <g id="Grupo_1065974" data-name="Grupo 1065974">
          <path id="Trazado_802278" data-name="Trazado 802278" d="M81.592,60.379a7.511,7.511,0,0,0-5.762-7.058,5.308,5.308,0,0,0,.153-1.252,5.994,5.994,0,0,0-6.229-5.71A6.468,6.468,0,0,0,65.08,48.3a6.469,6.469,0,0,0-4.674-1.942,5.994,5.994,0,0,0-6.229,5.71,5.308,5.308,0,0,0,.153,1.252,7.51,7.51,0,0,0-5.762,7.058A6.83,6.83,0,0,0,50.2,64.8a7.689,7.689,0,0,0-1.638,4.716,8.008,8.008,0,0,0,3.739,6.644v0c0,3.607,3.214,6.541,7.164,6.541A7.419,7.419,0,0,0,65.08,80.23a7.419,7.419,0,0,0,5.609,2.479,6.929,6.929,0,0,0,7.149-6.137,7.268,7.268,0,0,0,3.754-6.221,7.009,7.009,0,0,0-2.162-4.986A7.01,7.01,0,0,0,81.592,60.379Zm-5.5,6.361a4.148,4.148,0,0,1,2.393,3.611,3.978,3.978,0,0,1-1.37,2.924,6.981,6.981,0,0,0-4.088-3.292,1.555,1.555,0,0,0-.932,2.967,3.528,3.528,0,0,1,2.651,3.219c0,1.892-1.819,3.431-4.054,3.431s-4.054-1.539-4.054-3.431V66.2c0-1.892,1.819-3.431,4.054-3.431a1.555,1.555,0,0,0,0-3.11,7.6,7.6,0,0,0-4.054,1.152V58.821a1.555,1.555,0,1,0-3.11,0v8.633a7.407,7.407,0,0,0-1.718-.8,1.555,1.555,0,0,0-.932,2.967,3.527,3.527,0,0,1,2.65,3.219v3.324c0,1.892-1.819,3.431-4.054,3.431s-4.054-1.539-4.054-3.431a3.135,3.135,0,0,1,.968-2.219,1.555,1.555,0,1,0-2.192-2.206,6.614,6.614,0,0,0-.96,1.205,4.743,4.743,0,0,1-1.555-3.428,5.3,5.3,0,0,1,4.4-4.922,1.555,1.555,0,0,0-.7-3.031,9.473,9.473,0,0,0-2.853,1.162,3.752,3.752,0,0,1-.849-2.35c0-2.339,2.218-4.243,4.951-4.261l.041,0a1.554,1.554,0,0,0,1.319-2.373c-.012-.019-.023-.039-.035-.057l-.021-.028c-.024-.034-.049-.067-.075-.1l0,0a2.308,2.308,0,0,1-.569-1.491,3.171,3.171,0,0,1,6.239,0,1.555,1.555,0,0,0,3.11,0,3.171,3.171,0,0,1,6.239,0,2.187,2.187,0,0,1-.233.979,8.635,8.635,0,0,0-2.552.64A1.555,1.555,0,1,0,71.3,56.553a5.614,5.614,0,0,1,2.15-.435l.045,0,.041,0c2.733.018,4.95,1.922,4.95,4.261a4.149,4.149,0,0,1-2.393,3.611,1.555,1.555,0,0,0,0,2.75Z" transform="translate(-48.567 -46.359)" fill="#12263f"/>
        </g>
      </g>
    </g>
  </g>
</svg>
