<svg xmlns="http://www.w3.org/2000/svg" width="141" height="141" viewBox="0 0 141 141">
  <g id="Grupo_1067339" data-name="Grupo 1067339" transform="translate(-379 -4068)">
    <g id="Grupo_1067337" data-name="Grupo 1067337">
      <g id="Trazado_802256" data-name="Trazado 802256" transform="translate(379 4068)" fill="#fff">
        <path d="M 70.5 139 C 61.25167846679688 139 52.28105926513672 137.1891632080078 43.83731842041016 133.6177673339844 C 39.77883911132812 131.9011535644531 35.86428070068359 129.7763977050781 32.20240020751953 127.3024597167969 C 28.57476043701172 124.851676940918 25.1634407043457 122.0370788574219 22.06318092346191 118.9368209838867 C 18.96291923522949 115.8365631103516 16.14831924438477 112.4252395629883 13.69754028320312 108.7975997924805 C 11.22360038757324 105.1357192993164 9.09883975982666 101.2211608886719 7.382239818572998 97.16268157958984 C 3.810839891433716 88.71894073486328 2 79.74832153320312 2 70.5 C 2 61.25167846679688 3.810839891433716 52.28105926513672 7.382239818572998 43.83731842041016 C 9.09883975982666 39.77883911132812 11.22360038757324 35.86428070068359 13.69754028320312 32.20240020751953 C 16.14831924438477 28.57476043701172 18.96291923522949 25.1634407043457 22.06318092346191 22.06318092346191 C 25.1634407043457 18.96291923522949 28.57476043701172 16.14831924438477 32.20240020751953 13.69754028320312 C 35.86428070068359 11.22360038757324 39.77883911132812 9.09883975982666 43.83731842041016 7.382239818572998 C 52.28105926513672 3.810839891433716 61.25167846679688 2 70.5 2 C 79.74832153320312 2 88.71894073486328 3.810839891433716 97.16268157958984 7.382239818572998 C 101.2211608886719 9.09883975982666 105.1357192993164 11.22360038757324 108.7975997924805 13.69754028320312 C 112.4252395629883 16.14831924438477 115.8365631103516 18.96291923522949 118.9368209838867 22.06318092346191 C 122.0370788574219 25.1634407043457 124.851676940918 28.57476043701172 127.3024597167969 32.20240020751953 C 129.7763977050781 35.86428070068359 131.9011535644531 39.77883911132812 133.6177673339844 43.83731842041016 C 137.1891632080078 52.28105926513672 139 61.25167846679688 139 70.5 C 139 79.74832153320312 137.1891632080078 88.71894073486328 133.6177673339844 97.16268157958984 C 131.9011535644531 101.2211608886719 129.7763977050781 105.1357192993164 127.3024597167969 108.7975997924805 C 124.851676940918 112.4252395629883 122.0370788574219 115.8365631103516 118.9368209838867 118.9368209838867 C 115.8365631103516 122.0370788574219 112.4252395629883 124.851676940918 108.7975997924805 127.3024597167969 C 105.1357192993164 129.7763977050781 101.2211608886719 131.9011535644531 97.16268157958984 133.6177673339844 C 88.71894073486328 137.1891632080078 79.74832153320312 139 70.5 139 Z" stroke="none"/>
        <path d="M 70.5 4 C 61.52080535888672 4 52.81230163574219 5.7576904296875 44.61643218994141 9.224258422851562 C 40.67688751220703 10.89054870605469 36.87689208984375 12.95315551757812 33.322021484375 15.35478210449219 C 29.79987335205078 17.73430633544922 26.48765563964844 20.46715545654297 23.47740936279297 23.47740936279297 C 20.46715545654297 26.48765563964844 17.73430633544922 29.79987335205078 15.35478210449219 33.322021484375 C 12.95315551757812 36.87689208984375 10.89054870605469 40.67688751220703 9.224258422851562 44.61643218994141 C 5.7576904296875 52.81230163574219 4 61.52080535888672 4 70.5 C 4 79.47919464111328 5.7576904296875 88.18769836425781 9.224258422851562 96.38356018066406 C 10.89054870605469 100.3231048583984 12.95315551757812 104.1231079101562 15.35478210449219 107.677978515625 C 17.73430633544922 111.2001342773438 20.46715545654297 114.5123443603516 23.47740936279297 117.5225830078125 C 26.48765563964844 120.5328521728516 29.79987335205078 123.2656936645508 33.322021484375 125.6452178955078 C 36.87689208984375 128.0468444824219 40.67688751220703 130.1094512939453 44.61643218994141 131.7757415771484 C 52.81230163574219 135.2423095703125 61.52080535888672 137 70.5 137 C 79.47919464111328 137 88.18769836425781 135.2423095703125 96.38356018066406 131.7757415771484 C 100.3231048583984 130.1094512939453 104.1231079101562 128.0468444824219 107.677978515625 125.6452178955078 C 111.2001342773438 123.2656936645508 114.5123443603516 120.5328521728516 117.5225830078125 117.5225830078125 C 120.5328521728516 114.5123443603516 123.2656936645508 111.2001342773438 125.6452178955078 107.677978515625 C 128.0468444824219 104.1231079101562 130.1094512939453 100.3231048583984 131.7757415771484 96.38356018066406 C 135.2423095703125 88.18769836425781 137 79.47919464111328 137 70.5 C 137 61.52080535888672 135.2423095703125 52.81230163574219 131.7757415771484 44.61643218994141 C 130.1094512939453 40.67688751220703 128.0468444824219 36.87689208984375 125.6452178955078 33.322021484375 C 123.2656936645508 29.79987335205078 120.5328521728516 26.48765563964844 117.5225830078125 23.47740936279297 C 114.5123443603516 20.46715545654297 111.2001342773438 17.73430633544922 107.677978515625 15.35478210449219 C 104.1231079101562 12.95315551757812 100.3231048583984 10.89054870605469 96.38356018066406 9.224258422851562 C 88.18769836425781 5.7576904296875 79.47919464111328 4 70.5 4 M 70.5 0 C 109.4360656738281 0 141 31.56393432617188 141 70.5 C 141 109.4360656738281 109.4360656738281 141 70.5 141 C 31.56393432617188 141 0 109.4360656738281 0 70.5 C 0 31.56393432617188 31.56393432617188 0 70.5 0 Z" stroke="none" fill="#288640"/>
      </g>
      <g id="financiero" transform="translate(393.929 4082.277)">
        <path id="Trazado_802258" data-name="Trazado 802258" d="M99.277,79.581A7.634,7.634,0,0,0,88.753,78.14l-20.7,15.1L57.619,85.562a11.776,11.776,0,0,0-6.946-2.25H48.789a1.625,1.625,0,1,0,0,3.25h1.884a8.537,8.537,0,0,1,5.03,1.625l9.6,7.063-4.246,3.1a5.543,5.543,0,0,1-5.841.45l-5.869-3.029a1.625,1.625,0,1,0-1.49,2.888l5.869,3.029a8.776,8.776,0,0,0,9.246-.712l27.7-20.207a4.395,4.395,0,0,1,6.058.83,5.022,5.022,0,0,1-.688,6.958L60.955,118.436a7.459,7.459,0,0,1-7.822,1.184L32.8,110.905V83.82a4.473,4.473,0,0,0-4.468-4.468H14.539A4.473,4.473,0,0,0,10.07,83.82v28.762a4.473,4.473,0,0,0,4.468,4.468H28.333a4.475,4.475,0,0,0,4.127-2.756l19.393,8.313a10.69,10.69,0,0,0,11.21-1.7L98.146,91.027a8.262,8.262,0,0,0,1.131-11.446ZM28.333,113.8H14.539a1.22,1.22,0,0,1-1.219-1.219V83.821A1.22,1.22,0,0,1,14.539,82.6H28.333a1.22,1.22,0,0,1,1.219,1.219v28.762A1.22,1.22,0,0,1,28.333,113.8Z" transform="translate(0 -22.958)" fill="#12263f"/>
        <path id="Trazado_802259" data-name="Trazado 802259" d="M24.963,51.853l65.864.03a1.625,1.625,0,0,0,1.625-1.625V13.569a1.625,1.625,0,0,0-1.625-1.625H72.154a1.625,1.625,0,0,0-1.625,1.625V31.583l-9.012-7.1a1.625,1.625,0,0,0-2.011,0l-7.2,5.673a8.666,8.666,0,0,0-7.476-8.186L47.2,17.835a3.372,3.372,0,0,0,.306-2.687A3.515,3.515,0,0,0,45.7,13.036l-1.367-.674a3.628,3.628,0,0,0-4.32.836l-1.6,1.814a.386.386,0,0,1-.542,0l-1.622-1.862a3.614,3.614,0,0,0-4.14-.941l-1.953.823a3.509,3.509,0,0,0-1.987,2.147A3.4,3.4,0,0,0,28.5,18l2.409,3.957a8.663,8.663,0,0,0-7.569,8.56v5.774c0,3.831-1.4,6.16-2.662,8.7a4.758,4.758,0,0,0,4.287,6.861ZM62.519,48.61H58.6V40.659h3.922Zm11.26-33.417H89.2V48.633H73.779ZM60.511,27.828,70.529,35.72V48.61H65.769V40.384a2.979,2.979,0,0,0-2.975-2.975H58.322a2.979,2.979,0,0,0-2.975,2.975V48.61l-4.854,0V35.72l10.018-7.892Zm-29.1-11.8,1.953-.823a.386.386,0,0,1,.428.081l1.622,1.862a3.632,3.632,0,0,0,5.429.017l1.6-1.814a.388.388,0,0,1,.446-.071c2.26,1.114,1.76.469-1.76,6.608l-6.463,0c-3.456-5.678-3.674-5.679-3.255-5.856Zm-7.825,30.41c1.412-2.848,3-5.573,3-10.147V30.513a5.417,5.417,0,0,1,5.436-5.384l11.6.007a5.417,5.417,0,0,1,5.437,5.384v2.189l-1.2.946a1.625,1.625,0,0,0-.619,1.276V48.6l-22.28,0a1.509,1.509,0,0,1-1.376-2.168Z" transform="translate(-3.584 0)" fill="#12263f"/>
        <path id="Trazado_802260" data-name="Trazado 802260" d="M118.991,28.562a1.625,1.625,0,0,0,1.625-1.625v-.952a1.625,1.625,0,1,0-3.25,0v.952A1.625,1.625,0,0,0,118.991,28.562Z" transform="translate(-38.048 -4.412)" fill="#12263f"/>
        <path id="Trazado_802261" data-name="Trazado 802261" d="M109.081,28.562a1.625,1.625,0,0,0,1.625-1.625v-.952a1.625,1.625,0,1,0-3.25,0v.952A1.625,1.625,0,0,0,109.081,28.562Z" transform="translate(-34.534 -4.412)" fill="#12263f"/>
        <path id="Trazado_802262" data-name="Trazado 802262" d="M118.991,38.4a1.625,1.625,0,0,0,1.625-1.625v-.952a1.625,1.625,0,1,0-3.25,0v.952A1.625,1.625,0,0,0,118.991,38.4Z" transform="translate(-38.048 -7.9)" fill="#12263f"/>
        <path id="Trazado_802263" data-name="Trazado 802263" d="M109.081,38.4a1.625,1.625,0,0,0,1.625-1.625v-.952a1.625,1.625,0,1,0-3.25,0v.952A1.625,1.625,0,0,0,109.081,38.4Z" transform="translate(-34.534 -7.9)" fill="#12263f"/>
        <path id="Trazado_802264" data-name="Trazado 802264" d="M119.493,45.094a1.625,1.625,0,0,0-1.625,1.625v.952a1.625,1.625,0,1,0,3.25,0v-.952A1.625,1.625,0,0,0,119.493,45.094Z" transform="translate(-38.226 -11.765)" fill="#12263f"/>
        <path id="Trazado_802265" data-name="Trazado 802265" d="M109.583,45.094a1.625,1.625,0,0,0-1.625,1.625v.952a1.625,1.625,0,1,0,3.25,0v-.952A1.625,1.625,0,0,0,109.583,45.094Z" transform="translate(-34.712 -11.765)" fill="#12263f"/>
        <path id="Trazado_802266" data-name="Trazado 802266" d="M119.493,54.928a1.625,1.625,0,0,0-1.625,1.625v.952a1.625,1.625,0,0,0,3.25,0v-.952A1.625,1.625,0,0,0,119.493,54.928Z" transform="translate(-38.226 -15.252)" fill="#12263f"/>
        <path id="Trazado_802267" data-name="Trazado 802267" d="M109.583,54.928a1.625,1.625,0,0,0-1.625,1.625v.952a1.625,1.625,0,0,0,3.25,0v-.952A1.625,1.625,0,0,0,109.583,54.928Z" transform="translate(-34.712 -15.252)" fill="#12263f"/>
        <path id="Trazado_802268" data-name="Trazado 802268" d="M44.994,46.214A1.354,1.354,0,1,1,43.71,48a1.625,1.625,0,0,0-3.078,1.041,4.6,4.6,0,0,0,2.737,2.829v1a1.625,1.625,0,1,0,3.25,0v-1a4.6,4.6,0,0,0-1.625-8.91,1.354,1.354,0,1,1,1.1-2.137,1.625,1.625,0,1,0,2.647-1.885A4.614,4.614,0,0,0,46.618,37.3v-1.28a1.625,1.625,0,0,0-3.25,0V37.3a4.6,4.6,0,0,0,1.625,8.91Z" transform="translate(-10.752 -7.972)" fill="#12263f"/>
        <circle id="Elipse_8327" data-name="Elipse 8327" cx="1.828" cy="1.828" r="1.828" transform="translate(41.342 60.103)" fill="#12263f"/>
        <circle id="Elipse_8328" data-name="Elipse 8328" cx="1.828" cy="1.828" r="1.828" transform="translate(35.655 60.103)" fill="#12263f"/>
      </g>
    </g>
  </g>
</svg>
