<svg xmlns="http://www.w3.org/2000/svg" width="141" height="141" viewBox="0 0 141 141">
  <g id="Grupo_1067340" data-name="Grupo 1067340" transform="translate(-729 -4068)">
    <g id="Grupo_1067338" data-name="Grupo 1067338">
      <g id="Trazado_802269" data-name="Trazado 802269" transform="translate(729 4068)" fill="#fff">
        <path d="M 70.5 139 C 61.25167846679688 139 52.28105926513672 137.1891632080078 43.83731842041016 133.6177673339844 C 39.77883911132812 131.9011535644531 35.86428070068359 129.7763977050781 32.20240020751953 127.3024597167969 C 28.57476043701172 124.851676940918 25.1634407043457 122.0370788574219 22.06318092346191 118.9368209838867 C 18.96291923522949 115.8365631103516 16.14831924438477 112.4252395629883 13.69754028320312 108.7975997924805 C 11.22360038757324 105.1357192993164 9.09883975982666 101.2211608886719 7.382239818572998 97.16268157958984 C 3.810839891433716 88.71894073486328 2 79.74832153320312 2 70.5 C 2 61.25167846679688 3.810839891433716 52.28105926513672 7.382239818572998 43.83731842041016 C 9.09883975982666 39.77883911132812 11.22360038757324 35.86428070068359 13.69754028320312 32.20240020751953 C 16.14831924438477 28.57476043701172 18.96291923522949 25.1634407043457 22.06318092346191 22.06318092346191 C 25.1634407043457 18.96291923522949 28.57476043701172 16.14831924438477 32.20240020751953 13.69754028320312 C 35.86428070068359 11.22360038757324 39.77883911132812 9.09883975982666 43.83731842041016 7.382239818572998 C 52.28105926513672 3.810839891433716 61.25167846679688 2 70.5 2 C 79.74832153320312 2 88.71894073486328 3.810839891433716 97.16268157958984 7.382239818572998 C 101.2211608886719 9.09883975982666 105.1357192993164 11.22360038757324 108.7975997924805 13.69754028320312 C 112.4252395629883 16.14831924438477 115.8365631103516 18.96291923522949 118.9368209838867 22.06318092346191 C 122.0370788574219 25.1634407043457 124.851676940918 28.57476043701172 127.3024597167969 32.20240020751953 C 129.7763977050781 35.86428070068359 131.9011535644531 39.77883911132812 133.6177673339844 43.83731842041016 C 137.1891632080078 52.28105926513672 139 61.25167846679688 139 70.5 C 139 79.74832153320312 137.1891632080078 88.71894073486328 133.6177673339844 97.16268157958984 C 131.9011535644531 101.2211608886719 129.7763977050781 105.1357192993164 127.3024597167969 108.7975997924805 C 124.851676940918 112.4252395629883 122.0370788574219 115.8365631103516 118.9368209838867 118.9368209838867 C 115.8365631103516 122.0370788574219 112.4252395629883 124.851676940918 108.7975997924805 127.3024597167969 C 105.1357192993164 129.7763977050781 101.2211608886719 131.9011535644531 97.16268157958984 133.6177673339844 C 88.71894073486328 137.1891632080078 79.74832153320312 139 70.5 139 Z" stroke="none"/>
        <path d="M 70.5 4 C 61.52080535888672 4 52.81230163574219 5.7576904296875 44.61643218994141 9.224258422851562 C 40.67688751220703 10.89054870605469 36.87689208984375 12.95315551757812 33.322021484375 15.35478210449219 C 29.79987335205078 17.73430633544922 26.48765563964844 20.46715545654297 23.47740936279297 23.47740936279297 C 20.46715545654297 26.48765563964844 17.73430633544922 29.79987335205078 15.35478210449219 33.322021484375 C 12.95315551757812 36.87689208984375 10.89054870605469 40.67688751220703 9.224258422851562 44.61643218994141 C 5.7576904296875 52.81230163574219 4 61.52080535888672 4 70.5 C 4 79.47919464111328 5.7576904296875 88.18769836425781 9.224258422851562 96.38356018066406 C 10.89054870605469 100.3231048583984 12.95315551757812 104.1231079101562 15.35478210449219 107.677978515625 C 17.73430633544922 111.2001342773438 20.46715545654297 114.5123443603516 23.47740936279297 117.5225830078125 C 26.48765563964844 120.5328521728516 29.79987335205078 123.2656936645508 33.322021484375 125.6452178955078 C 36.87689208984375 128.0468444824219 40.67688751220703 130.1094512939453 44.61643218994141 131.7757415771484 C 52.81230163574219 135.2423095703125 61.52080535888672 137 70.5 137 C 79.47919464111328 137 88.18769836425781 135.2423095703125 96.38356018066406 131.7757415771484 C 100.3231048583984 130.1094512939453 104.1231079101562 128.0468444824219 107.677978515625 125.6452178955078 C 111.2001342773438 123.2656936645508 114.5123443603516 120.5328521728516 117.5225830078125 117.5225830078125 C 120.5328521728516 114.5123443603516 123.2656936645508 111.2001342773438 125.6452178955078 107.677978515625 C 128.0468444824219 104.1231079101562 130.1094512939453 100.3231048583984 131.7757415771484 96.38356018066406 C 135.2423095703125 88.18769836425781 137 79.47919464111328 137 70.5 C 137 61.52080535888672 135.2423095703125 52.81230163574219 131.7757415771484 44.61643218994141 C 130.1094512939453 40.67688751220703 128.0468444824219 36.87689208984375 125.6452178955078 33.322021484375 C 123.2656936645508 29.79987335205078 120.5328521728516 26.48765563964844 117.5225830078125 23.47740936279297 C 114.5123443603516 20.46715545654297 111.2001342773438 17.73430633544922 107.677978515625 15.35478210449219 C 104.1231079101562 12.95315551757812 100.3231048583984 10.89054870605469 96.38356018066406 9.224258422851562 C 88.18769836425781 5.7576904296875 79.47919464111328 4 70.5 4 M 70.5 0 C 109.4360656738281 0 141 31.56393432617188 141 70.5 C 141 109.4360656738281 109.4360656738281 141 70.5 141 C 31.56393432617188 141 0 109.4360656738281 0 70.5 C 0 31.56393432617188 31.56393432617188 0 70.5 0 Z" stroke="none" fill="#288640"/>
      </g>
      <g id="resolucion-de-problemas" transform="translate(746.458 4086.502)">
        <g id="Grupo_1065969" data-name="Grupo 1065969" transform="translate(7.785 0)">
          <path id="Trazado_802271" data-name="Trazado 802271" d="M113.237,86.556a8.689,8.689,0,0,0-9.836-2.029V76.313a2.542,2.542,0,0,0-2.539-2.539h-8a2.554,2.554,0,0,0-1.824.772,2.506,2.506,0,0,0-.712,1.836c0,.056,0,.112,0,.168a5.636,5.636,0,0,1-11.272,0c0-.056,0-.112,0-.168a2.507,2.507,0,0,0-.712-1.837,2.554,2.554,0,0,0-1.824-.772h-8a2.542,2.542,0,0,0-2.539,2.539V84.7a2.537,2.537,0,0,0,.826,1.871,2.565,2.565,0,0,0,1.96.655c.173-.016.351-.024.527-.024a5.636,5.636,0,0,1,.352,11.261,5.8,5.8,0,0,1-.9-.016,2.515,2.515,0,0,0-1.928.643,2.553,2.553,0,0,0-.835,1.886v7.671a2.542,2.542,0,0,0,2.539,2.539h8.214a8.685,8.685,0,0,0,7.944,12.171c.206,0,.413-.007.62-.021a8.689,8.689,0,0,0,7.344-12.15h8.212a2.542,2.542,0,0,0,2.539-2.539v-8.212a8.684,8.684,0,0,0,9.836-13.879Zm-.726,6.326a5.641,5.641,0,0,1-5.227,5.221h0a5.588,5.588,0,0,1-3.579-.973,2.134,2.134,0,0,0-3.35,1.75v9.259H91.095a2.134,2.134,0,0,0-1.75,3.35,5.636,5.636,0,1,1-9.29-.014,2.131,2.131,0,0,0-1.76-3.337H69.036v-6.623c.266.008.535,0,.8-.012a8.683,8.683,0,0,0-.8-17.345V76.82h6.981a8.683,8.683,0,0,0,17.358,0h6.981v9.259a2.131,2.131,0,0,0,3.336,1.76,5.636,5.636,0,0,1,8.82,5.042Z" transform="translate(-23.06 -19.361)" fill="#12263f"/>
          <path id="Trazado_802272" data-name="Trazado 802272" d="M43.018,62.523,45.6,55.5a25.347,25.347,0,0,0,7.2-6.162,1.523,1.523,0,0,0-2.377-1.905,22.146,22.146,0,0,1-12.224,7.745V42.583H41.18a6.034,6.034,0,1,0-6.033-6.034v2.987h-4.17V36.549a6.034,6.034,0,1,0-6.033,6.034H27.93V55.174A22.229,22.229,0,1,1,45.008,14.8,18.11,18.11,0,0,0,55.269,34.566a22.077,22.077,0,0,1-1.506,7.094A1.523,1.523,0,1,0,56.6,42.774a25.078,25.078,0,0,0,1.653-7.142,18.13,18.13,0,0,0,9.7-.164v8.594a2.759,2.759,0,0,0,2.755,2.755H86.729a2.759,2.759,0,0,0,2.755-2.755V39.2a1.523,1.523,0,1,0-3.047,0v4.57H71V34.252a18.237,18.237,0,0,0,6.745-5.918h8.692v3.758a1.523,1.523,0,1,0,3.047,0V28.043a2.759,2.759,0,0,0-2.755-2.755h-7.3A18.106,18.106,0,1,0,45.857,11.753a25.27,25.27,0,1,0-25.34,43.728l2.589,7.043a3.558,3.558,0,0,0-2.593,3.419V71.9a3.557,3.557,0,0,0,3.047,3.514v3.716A2.542,2.542,0,0,0,26.1,81.671h.014v1.443a4.575,4.575,0,0,0,4.57,4.57h4.759a4.575,4.575,0,0,0,4.57-4.57V81.671h.014a2.542,2.542,0,0,0,2.539-2.539V75.417A3.557,3.557,0,0,0,45.612,71.9v-5.96a3.558,3.558,0,0,0-2.593-3.419ZM38.194,36.549a2.987,2.987,0,1,1,2.987,2.987H38.194Zm24.618-33.5a15.06,15.06,0,1,1-15.06,15.06A15.077,15.077,0,0,1,62.812,3.047ZM38.194,58.3a25.135,25.135,0,0,0,3.495-.987l-1.866,5.077H38.194ZM30.977,42.583h4.17V55.674c-.689.064-1.384.1-2.085.1s-1.4-.034-2.085-.1V42.583Zm0,16.15c.688.056,1.383.087,2.085.087s1.4-.029,2.085-.086v3.654h-4.17Zm-6.033-19.2a2.987,2.987,0,1,1,2.987-2.987v2.987ZM27.93,58.3v4.092H26.3L24.433,57.3A25.056,25.056,0,0,0,27.93,58.3Zm9.034,24.819a1.525,1.525,0,0,1-1.523,1.523H30.683a1.525,1.525,0,0,1-1.523-1.523V81.671h7.806Zm5.6-11.212a.508.508,0,0,1-.508.508H37.385a1.523,1.523,0,0,0,0,3.047h2.133v3.167H26.606V75.457h3.67a1.523,1.523,0,0,0,0-3.047H24.067a.508.508,0,0,1-.508-.508v-5.96a.508.508,0,0,1,.508-.508h17.99a.508.508,0,0,1,.508.508Z" transform="translate(-7.785 0)" fill="#12263f"/>
          <path id="Trazado_802273" data-name="Trazado 802273" d="M76.114,29.977a1.523,1.523,0,0,0,1.146.542h.02a1.523,1.523,0,0,0,1.14-.513L88.4,18.748a1.523,1.523,0,0,0-2.28-2.021l-8.81,9.939-5.68-6.745A1.523,1.523,0,1,0,69.3,21.883Z" transform="translate(-23.835 -4.255)" fill="#12263f"/>
        </g>
      </g>
    </g>
  </g>
</svg>
