<svg xmlns="http://www.w3.org/2000/svg" xmlns:xlink="http://www.w3.org/1999/xlink" width="178.631" height="232.946" viewBox="0 0 178.631 232.946">
  <defs>
    <clipPath id="clip-path">
      <rect id="Rectángulo_374617" data-name="Rectángulo 374617" width="178.631" height="232.946" fill="none"/>
    </clipPath>
  </defs>
  <g id="Grupo_1066171" data-name="Grupo 1066171" transform="translate(190 157.411)">
    <g id="Grupo_1066170" data-name="Grupo 1066170" transform="translate(-190 -157.411)" clip-path="url(#clip-path)">
      <path id="Trazado_803322" data-name="Trazado 803322" d="M195.959,170.084s10.861,5.853,14.164,16.556c2.463,7.978,3.4,24.4,3.839,30.766s2.382,26.8,2.382,26.8l-17.454,1.178L193.7,213.1Z" transform="translate(-81.999 -72.001)" fill="#cc675f"/>
      <path id="Trazado_803323" data-name="Trazado 803323" d="M192.258,212.831l21.6-7.225s-1.522-22.9-7.41-31.538c-4.011-5.884-14.274-9.013-14.274-9.013Z" transform="translate(-81.351 -69.871)" fill="#e5e9ea"/>
      <path id="Trazado_803324" data-name="Trazado 803324" d="M106.816,145.407c-.577,0-28.852,9.383-28.852,9.383l-.016,44.342-6.731,50.049,16.641,13.692s57.062-16.383,57.643-16.83-3.3-18.331-3.3-18.907.193-9.616.193-9.616a30.393,30.393,0,0,0,4.808-10.561c1.538-6.361,0-16.553,0-16.553l-6.231-33.669-4.154-1.227Z" transform="translate(-30.148 -61.554)" fill="#e5e9ea"/>
      <path id="Trazado_803325" data-name="Trazado 803325" d="M200.446,212.338a1.126,1.126,0,0,1,.114.279l.272.82c.119.356.254.8.382,1.313s.3,1.1.43,1.76c.143.656.294,1.376.409,2.158.142.777.228,1.617.331,2.5a41.7,41.7,0,0,1-.446,11.518c-.171.871-.322,1.7-.524,2.466-.175.77-.381,1.477-.574,2.12-.178.648-.393,1.217-.564,1.721s-.337.933-.483,1.278l-.334.8a1.168,1.168,0,0,1-.135.269,1.148,1.148,0,0,1,.079-.292l.281-.815c.129-.351.281-.782.433-1.291s.356-1.078.519-1.727c.179-.644.373-1.349.536-2.117.19-.762.33-1.59.494-2.457a44.1,44.1,0,0,0,.443-11.444c-.1-.878-.171-1.713-.3-2.488-.1-.779-.242-1.5-.371-2.153-.113-.659-.268-1.243-.384-1.762s-.231-.961-.332-1.321l-.217-.834a1.161,1.161,0,0,1-.057-.3" transform="translate(-84.378 -89.888)" fill="#263238"/>
      <path id="Trazado_803326" data-name="Trazado 803326" d="M81.431,3.706A6.606,6.606,0,0,0,75.784,2.1a3.786,3.786,0,0,1-2.424.084c-.527-.27-.832-.824-1.24-1.252a3.346,3.346,0,0,0-4.811.187,3.974,3.974,0,0,1-.884.995c-1.541.941-3.5-1.936-5.03-.98a3.793,3.793,0,0,1,1.868,1.28,1.719,1.719,0,0,1-.055,2.12c-1.405,1.409-4.051-1.361-5.641-.165-.858.645-.881,2.176-1.9,2.5a3.636,3.636,0,0,1-1.236-.009,2.752,2.752,0,0,0-2.763,2.552c-.042,1.191.649,2.6-.186,3.446a2.574,2.574,0,0,1-2.092.439,7.155,7.155,0,0,0,.981,3.084A4.311,4.311,0,0,0,49.3,22.261a9.2,9.2,0,0,0-2.315,2.7,3.206,3.206,0,0,0,.2,3.383,2.91,2.91,0,0,1,.5.641,1.609,1.609,0,0,1,.059.868,14.8,14.8,0,0,0-.461,3.357c.108,1.129,1.029,2.313,2.149,2.142.261-.04.545-.147.776-.017a.748.748,0,0,1,.305.495,7.7,7.7,0,0,1,0,2.433,3.251,3.251,0,0,0,.519,2.327,1.392,1.392,0,0,0,2.109.115q-.358,1.919-.717,3.84c-.142.761-.236,1.675.345,2.187.761.671,2.013.02,2.5-.871s.56-1.964,1.069-2.842a6.036,6.036,0,0,0,.616-1.075c.1-.311.12-.676.358-.9.479-.452,1.306.2,1.28.862a3.476,3.476,0,0,1-.892,1.728,1.675,1.675,0,0,0-.293,1.829c.18.262.484.42.657.687.6.923-.746,1.948-.84,3.044a2.652,2.652,0,0,0,1.175,2.03c.748.652,2.141,1.127,2.523.211a8.929,8.929,0,0,0,.149-1.017,2.5,2.5,0,0,1,.72-.954,5.156,5.156,0,0,0,1.358-2.631c-.766,1.085-1.555,2.506-.885,3.653a5.515,5.515,0,0,0,1.178,1.167c.806.733,1.342,1.723,2.138,2.468a2.542,2.542,0,0,0,2.968.612,2.451,2.451,0,0,0,4.258,2.16,2.154,2.154,0,0,1,.628-.637,1.745,1.745,0,0,1,.957-.039,5.307,5.307,0,0,0,4.986-2.393l-.994-.279a12.354,12.354,0,0,0,5.378-1.975c1.516-1.193,2.4-3.425,1.46-5.109-.408-.729-1.144-1.457-.885-2.251.179-.548.765-.834,1.295-1.061l6.65-2.845a6.391,6.391,0,0,0,2.88-1.922,2.2,2.2,0,0,0-.378-3.094,6.269,6.269,0,0,1,2.192-2.709c1.086-.754,2.386-1.146,3.506-1.851a3.578,3.578,0,0,0,1.934-3.218c-.17-1.312-2.055-2.211-2.9-1.192.05-2,3.578-2.353,3.751-4.342.141-1.616-1.961-2.312-3.1-3.471.178-.57.723-.964.918-1.528.41-1.184-.862-2.257-2.026-2.72s-2.576-.918-2.93-2.119c-.363-1.229.615-2.712-.121-3.761a1.416,1.416,0,0,0-1.89-.34c-1.059-2.228-5.252-.223-6.646-2.257a.887.887,0,0,1-.183-.545.947.947,0,0,1,.19-.462,9.975,9.975,0,0,1,1.8-1.577,1.941,1.941,0,0,0,.741-2.114c-.334-.727-1.749-.61-1.68.189a1.762,1.762,0,0,0-2.644.852A1.9,1.9,0,0,0,83.3,2.066a5.559,5.559,0,0,0-1.57,2.05" transform="translate(-19.729 0)" fill="#263238"/>
      <path id="Trazado_803327" data-name="Trazado 803327" d="M91.009,43.883c.57-3.318,2.881-6.085,5.471-8.236a8.612,8.612,0,0,1,3.667-2.028,3.616,3.616,0,0,1,3.752,1.336l-.093,2.36c.455,3.725-2.3,6.989-3.525,10.535-.533,1.542-.944,3.385-2.413,4.095a3.505,3.505,0,0,1-2.507.082c-3.225-.966-4.921-4.827-4.351-8.146" transform="translate(-38.48 -14.197)" fill="#455a64"/>
      <path id="Trazado_803328" data-name="Trazado 803328" d="M90.629,58.53a7.526,7.526,0,0,1,.4-9.641c-1.423-1.689-1-4.368.348-6.115a14.727,14.727,0,0,1,5.379-3.767,10.131,10.131,0,0,1,11.6-7.718c2.514-3.923,8.078-4.68,12.584-3.5a11.912,11.912,0,0,0,3.341.634,19.321,19.321,0,0,0,2.468-.411c4.532-.736,9.135,2.342,11.024,6.526a8.412,8.412,0,0,0,1.02,1.943,11.411,11.411,0,0,0,2.3,1.735,7.266,7.266,0,0,1,2.93,5.294c.123,1.765-.388,3.655.4,5.239.4.794,1.086,1.424,1.4,2.254.908,2.4-1.714,4.958-1.147,7.464.116.512.36.984.517,1.484a4.483,4.483,0,0,1-.187,3.141,6.441,6.441,0,0,0-.925,2.28A7.291,7.291,0,0,0,144.5,67.2c.349,1.5-2.738,7.384-4.014,8.238l-38.829,1.413a7.26,7.26,0,0,1-5.787-6.095,2.652,2.652,0,0,0-.4-1.418,3.1,3.1,0,0,0-1.079-.66c-2.537-1.274-2.934-4.7-2.748-7.533a3.458,3.458,0,0,0-.054-1.185,4.337,4.337,0,0,0-.957-1.43" transform="translate(-37.708 -11.549)" fill="#263238"/>
      <path id="Trazado_803329" data-name="Trazado 803329" d="M110.954,65.451c-.3-6.871,3.791-14.887,10.527-18.435a25.685,25.685,0,0,1,9.859-2.669,15.738,15.738,0,0,1,9.212,1.669c2.154.445,10.2,7.412,10.817,15.2.69,8.647,1.192,19.231.274,25.707-1.845,13.021-11.771,14.84-11.771,14.84,0-.02.4,8.936.4,8.936l-27.31.254Z" transform="translate(-46.963 -18.714)" fill="#cc675f"/>
      <path id="Trazado_803330" data-name="Trazado 803330" d="M147.4,113.538c.04-.682,0-2.176.452-2.622.9-.89,2.386-.239,3.97.244,1.195.364,2.593.634,2.18,1.727l-.947,1.87c-.519.832-.829,1.711-1.8,1.866a3.526,3.526,0,0,1-.424-.029,3.859,3.859,0,0,1-2.241-1.063,2.59,2.59,0,0,1-1.194-1.994" transform="translate(-62.396 -46.767)" fill="#9d4841"/>
      <path id="Trazado_803331" data-name="Trazado 803331" d="M170.5,91.807a1.666,1.666,0,0,1-1.578,1.708,1.593,1.593,0,0,1-1.742-1.473,1.666,1.666,0,0,1,1.575-1.708,1.594,1.594,0,0,1,1.744,1.473" transform="translate(-70.77 -38.239)" fill="#263238"/>
      <path id="Trazado_803332" data-name="Trazado 803332" d="M171.291,81.17c-.2.221-1.48-.691-3.273-.657-1.791.009-3.091.953-3.289.737-.1-.1.107-.491.672-.918a4.576,4.576,0,0,1,2.628-.858,4.391,4.391,0,0,1,2.609.794c.558.414.751.8.652.9" transform="translate(-69.724 -33.643)" fill="#263238"/>
      <path id="Trazado_803333" data-name="Trazado 803333" d="M157.551,96.311a11.892,11.892,0,0,1,2.9-.574c.456-.055.888-.153.96-.467a2.33,2.33,0,0,0-.328-1.351l-1.412-3.463c-1.962-4.93-3.391-8.987-3.192-9.064s1.952,3.856,3.914,8.786c.473,1.216.925,2.375,1.355,3.484a2.65,2.65,0,0,1,.268,1.793,1.151,1.151,0,0,1-.742.682,3.121,3.121,0,0,1-.776.121,11.636,11.636,0,0,1-2.95.053" transform="translate(-66.235 -34.455)" fill="#263238"/>
      <path id="Trazado_803334" data-name="Trazado 803334" d="M148.286,140.813a33.045,33.045,0,0,1-17.47-4.349s4.625,8.956,17.6,7.523Z" transform="translate(-55.378 -57.768)" fill="#9d4841"/>
      <path id="Trazado_803335" data-name="Trazado 803335" d="M169.819,69.691c-.294.443-1.671.173-3.273.333-1.606.108-2.923.6-3.282.216-.16-.19.008-.619.556-1.069a5.1,5.1,0,0,1,5.281-.443c.612.352.844.748.717.962" transform="translate(-69.089 -28.867)" fill="#263238"/>
      <path id="Trazado_803336" data-name="Trazado 803336" d="M139.5,93.145a1.666,1.666,0,0,0,1.695,1.591,1.593,1.593,0,0,0,1.634-1.592,1.667,1.667,0,0,0-1.693-1.592,1.594,1.594,0,0,0-1.635,1.593" transform="translate(-59.053 -38.756)" fill="#263238"/>
      <path id="Trazado_803337" data-name="Trazado 803337" d="M133.6,82.929c.218.206,1.428-.795,3.218-.887,1.787-.118,3.15.732,3.333.5.091-.1-.142-.482-.735-.868a4.573,4.573,0,0,0-2.683-.67,4.388,4.388,0,0,0-2.547.977c-.527.452-.693.855-.586.946" transform="translate(-56.543 -34.289)" fill="#263238"/>
      <path id="Trazado_803338" data-name="Trazado 803338" d="M132.522,72.436c.374.387,1.733-.109,3.392-.219,1.656-.161,3.082.107,3.382-.336.131-.215-.113-.61-.748-.961a5.133,5.133,0,0,0-2.8-.516,5.063,5.063,0,0,0-2.663.964c-.564.449-.734.879-.568,1.069" transform="translate(-56.074 -29.796)" fill="#263238"/>
      <path id="Trazado_803339" data-name="Trazado 803339" d="M108.283,99.779c-.018-.967-1.174-3.229-2.132-3.361-2.558-.355-7.151-.074-7.086,6.4.089,8.855,8.962,6.939,8.975,6.685.01-.2.307-6.388.243-9.728" transform="translate(-41.936 -40.774)" fill="#cc675f"/>
      <path id="Trazado_803340" data-name="Trazado 803340" d="M107.409,108.49c-.039-.028-.153.11-.412.232a1.544,1.544,0,0,1-1.153.035c-.939-.333-1.742-1.811-1.8-3.407a5.1,5.1,0,0,1,.409-2.213,1.781,1.781,0,0,1,1.149-1.2.786.786,0,0,1,.915.413c.122.247.066.424.114.439.025.022.189-.15.114-.515a.983.983,0,0,0-.354-.552,1.167,1.167,0,0,0-.855-.217,2.168,2.168,0,0,0-1.6,1.39,5.231,5.231,0,0,0-.51,2.474c.074,1.784,1,3.444,2.289,3.8a1.653,1.653,0,0,0,1.409-.249c.272-.221.316-.42.285-.435" transform="translate(-43.781 -42.967)" fill="#9d4841"/>
      <path id="Trazado_803341" data-name="Trazado 803341" d="M150.085,58.229a5.151,5.151,0,0,1-2.9-4.7c-1.18.374-2.411-1.133-3.121-2.147s-1.566-1.518-1.535-2.755a1.4,1.4,0,0,0-.1-.717c-.185-.336-.608-.44-.977-.548a5.933,5.933,0,0,1-3.978-4.055,12.542,12.542,0,0,1-6.05,1.107,4.8,4.8,0,0,1-8.122-.212,4.3,4.3,0,0,1-2.841,2.171,12.725,12.725,0,0,1-3.669.264,5.078,5.078,0,0,1-3.242,5.809c-.313.1-.676.2-.816.5a1.282,1.282,0,0,0,.154.984,4,4,0,0,1-2.589,5.135,2.981,2.981,0,0,1-.187,4.675c-.318.2-.735.442-.679.814a.846.846,0,0,0,.2.374,5.8,5.8,0,0,1,1.447,2.9,2.14,2.14,0,0,1-1.713,2.4,2.837,2.837,0,0,1,1.159,1.92c.027.769-.738,1.567-1.461,1.3-.307-.112-4.732-.9-4.93-1.163-2.564-3.357.521-7.17.7-11.391a27.455,27.455,0,0,1,3.619-12.028,20.078,20.078,0,0,1,3.07-4.322,26.754,26.754,0,0,1,4.806-3.669,24.424,24.424,0,0,1,7.044-3.51c4.758-1.21,9.753.439,14.246,2.42a20.819,20.819,0,0,1,4.86,2.752,18.852,18.852,0,0,1,4.145,5.222,23.477,23.477,0,0,1,3.363,9.008" transform="translate(-43.653 -15.646)" fill="#263238"/>
      <path id="Trazado_803342" data-name="Trazado 803342" d="M145.753,50.911a3.384,3.384,0,0,0-.495-.941c-.193-.291-.464-.629-.723-1.064a4.13,4.13,0,0,1-.527-1.645,12.823,12.823,0,0,1,0-2.191,9.727,9.727,0,0,0-.118-2.627,7.375,7.375,0,0,0-1.216-2.768,7.261,7.261,0,0,0-1.112-1.233,10.9,10.9,0,0,0-1.418-1.014,5.492,5.492,0,0,1-1.367-1.136,7.169,7.169,0,0,1-.87-1.651,11.88,11.88,0,0,0-5.694-5.958,10.556,10.556,0,0,0-2.146-.761,9.51,9.51,0,0,0-2.332-.22,10.979,10.979,0,0,0-1.191.117c-.4.069-.784.16-1.174.236A5.707,5.707,0,0,1,123,28.1c-.8-.141-1.578-.412-2.4-.6a15.548,15.548,0,0,0-5.113-.371,13.44,13.44,0,0,0-2.588.527,8.73,8.73,0,0,0-4.4,3.025l-.32.442.14-.058A10.275,10.275,0,0,0,96.566,38.89l.069-.09a28.055,28.055,0,0,0-3.073,1.7,9.356,9.356,0,0,0-2.491,2.315,6.07,6.07,0,0,0-1.094,3.078,4.18,4.18,0,0,0,.9,2.977l.005-.148A7.332,7.332,0,0,0,88.932,53.3a7.509,7.509,0,0,0,1,4.383,7.292,7.292,0,0,0,.6.865,9.6,9.6,0,0,1,.625.779,1.9,1.9,0,0,1,.332.862,5.442,5.442,0,0,1-.007.92,14.518,14.518,0,0,0,.158,3.359,7.041,7.041,0,0,0,.92,2.541,4.346,4.346,0,0,0,1.4,1.411c.463.293.869.4,1.1.562a2,2,0,0,1,.327.261,1.025,1.025,0,0,0-.309-.289c-.227-.172-.634-.294-1.08-.59a4.326,4.326,0,0,1-1.357-1.406,6.984,6.984,0,0,1-.878-2.511,14.53,14.53,0,0,1-.129-3.327,5.555,5.555,0,0,0,.013-.947,2.056,2.056,0,0,0-.352-.937,9.632,9.632,0,0,0-.63-.8,7.112,7.112,0,0,1-.584-.846,7.339,7.339,0,0,1-.958-4.277,7.132,7.132,0,0,1,1.91-4.445l.07-.072-.065-.076a3.96,3.96,0,0,1-.841-2.821,5.842,5.842,0,0,1,1.059-2.953A9.113,9.113,0,0,1,93.7,40.7a27.872,27.872,0,0,1,3.049-1.676L96.8,39l.012-.062a10.024,10.024,0,0,1,11.446-7.612l.085.018.055-.076.309-.427a8.476,8.476,0,0,1,4.269-2.932,13.259,13.259,0,0,1,2.533-.517,15.307,15.307,0,0,1,5.027.36c.807.183,1.6.456,2.416.6a6.054,6.054,0,0,0,1.241.1,7.3,7.3,0,0,0,1.219-.156c.4-.079.783-.17,1.168-.238a10.808,10.808,0,0,1,1.157-.116,9.271,9.271,0,0,1,2.27.209,10.319,10.319,0,0,1,2.1.738,11.687,11.687,0,0,1,5.607,5.829,7.336,7.336,0,0,0,.9,1.692,5.66,5.66,0,0,0,1.419,1.171,10.7,10.7,0,0,1,1.4.991,7.1,7.1,0,0,1,1.092,1.2,7.231,7.231,0,0,1,1.208,2.7,9.648,9.648,0,0,1,.138,2.59,12.784,12.784,0,0,0,.025,2.21,4.176,4.176,0,0,0,.562,1.673c.27.437.548.769.747,1.054a5.2,5.2,0,0,1,.419.669c.082.158.114.245.12.242" transform="translate(-37.639 -11.456)" fill="#455a64"/>
      <path id="Trazado_803343" data-name="Trazado 803343" d="M129.657,29.819c.014.02.231-.138.657-.358a5.965,5.965,0,0,1,1.919-.6,5.593,5.593,0,0,1,2.919.367,5.775,5.775,0,0,1,2.7,2.348,4.87,4.87,0,0,1,.46.993,1.107,1.107,0,0,1-.046.934l-.21.305.356-.108a3.662,3.662,0,0,1,2.744.273,3.535,3.535,0,0,1,1.533,1.609,3.88,3.88,0,0,1,.374,1.452c.019.354-.005.55.015.552s.02-.046.037-.14a2.457,2.457,0,0,0,.037-.414,3.7,3.7,0,0,0-1.891-3.258,3.858,3.858,0,0,0-2.927-.323l.145.2a1.352,1.352,0,0,0,.085-1.156,5.053,5.053,0,0,0-.484-1.054A5.931,5.931,0,0,0,135.246,29a5.649,5.649,0,0,0-3.04-.326,5.543,5.543,0,0,0-1.942.7,3.788,3.788,0,0,0-.463.316c-.1.08-.15.126-.144.133" transform="translate(-54.887 -12.105)" fill="#455a64"/>
      <path id="Trazado_803344" data-name="Trazado 803344" d="M105.088,48.828c-.011.012.1.127.315.31a5.745,5.745,0,0,0,1.016.676,4.233,4.233,0,0,0,1.777.5,3.161,3.161,0,0,0,2.184-.708l-.2-.026.267.359c.1.116.2.227.309.343A5.364,5.364,0,0,0,113,51.611a5.5,5.5,0,0,0,2.115.224,4.859,4.859,0,0,0,1.389-.345,1.732,1.732,0,0,0,.457-.256,7.661,7.661,0,0,1-1.86.413,5.609,5.609,0,0,1-2.026-.27,5.28,5.28,0,0,1-2.124-1.286c-.1-.11-.2-.214-.292-.324l-.254-.337-.089-.119-.107.093a2.976,2.976,0,0,1-2.005.672,4.247,4.247,0,0,1-1.706-.419c-.912-.438-1.38-.867-1.408-.828" transform="translate(-44.486 -20.669)" fill="#455a64"/>
      <path id="Trazado_803345" data-name="Trazado 803345" d="M97.25,62.545c-.009,0,0,.058.025.163a1.519,1.519,0,0,0,.2.424,2.364,2.364,0,0,0,1.446.92,4.51,4.51,0,0,0,2.524-.324,14.432,14.432,0,0,0,1.386-.579,2.42,2.42,0,0,0,1.2-1.138l.052-.144-.206.067a10.14,10.14,0,0,0,2.656,1.525,4.559,4.559,0,0,0,2.491.208,3.289,3.289,0,0,0,1.518-.726,1.974,1.974,0,0,0,.314-.334c.062-.084.09-.131.084-.137s-.155.157-.462.391a3.427,3.427,0,0,1-1.489.623,4.5,4.5,0,0,1-2.373-.255,10.367,10.367,0,0,1-2.579-1.509l-.144-.108-.064.175c-.014.037-.029.078-.044.119a2.188,2.188,0,0,1-1.075,1.009c-.446.228-.916.408-1.352.58a4.445,4.445,0,0,1-2.4.37,2.349,2.349,0,0,1-1.4-.8,3.771,3.771,0,0,1-.314-.525" transform="translate(-41.167 -26.083)" fill="#455a64"/>
      <path id="Trazado_803346" data-name="Trazado 803346" d="M79.746,8.7c0,.018.153,0,.422.067a2.012,2.012,0,0,1,1,.619,2.762,2.762,0,0,1,.7,1.678,8.105,8.105,0,0,1-.284,2.421l-.032.143.148-.007a5.038,5.038,0,0,1,3.081.877,3.916,3.916,0,0,1,1.738,3.067,3.633,3.633,0,0,1-1.231,2.975l-.294.239.379-.01a4.57,4.57,0,0,1,3.385,1.411,4.375,4.375,0,0,1,1.184,2.7,4.755,4.755,0,0,1-.26,1.962c-.159.439-.294.66-.275.671s.044-.048.11-.153a3.258,3.258,0,0,0,.247-.486,4.571,4.571,0,0,0,.341-2,4.5,4.5,0,0,0-1.186-2.837,4.764,4.764,0,0,0-3.555-1.517l.085.228a3.87,3.87,0,0,0,1.336-3.186,3.979,3.979,0,0,0-.561-1.9,4.47,4.47,0,0,0-1.3-1.368,5.229,5.229,0,0,0-3.239-.891l.116.136a8.049,8.049,0,0,0,.247-2.485,2.86,2.86,0,0,0-.787-1.75,2,2,0,0,0-1.08-.6,1.27,1.27,0,0,0-.326-.018c-.073.006-.111.012-.11.018" transform="translate(-33.758 -3.675)" fill="#455a64"/>
      <path id="Trazado_803347" data-name="Trazado 803347" d="M52.987,41.019c0,.006.047.035.146.082a4.656,4.656,0,0,0,.446.194,6.278,6.278,0,0,0,1.791.37,7,7,0,0,0,2.776-.387,6.709,6.709,0,0,0,2.949-2.012l-.2-.013A5.636,5.636,0,0,0,64.93,41.91,4.274,4.274,0,0,0,69.3,39.481l-.23-.005a3.542,3.542,0,0,0,1.094,1.483,4.716,4.716,0,0,0,1.468.794,6.5,6.5,0,0,0,2.7.231,12.892,12.892,0,0,0,1.734-.315,3.274,3.274,0,0,0,.6-.178,4.218,4.218,0,0,0-.62.1,16.481,16.481,0,0,1-1.731.243,6.526,6.526,0,0,1-2.62-.277,3.838,3.838,0,0,1-2.4-2.166l-.111-.3-.119.29a4.041,4.041,0,0,1-4.109,2.259A5.425,5.425,0,0,1,61.1,39.121l-.092-.144-.11.131a6.562,6.562,0,0,1-2.827,1.972,7.02,7.02,0,0,1-2.7.433,8.228,8.228,0,0,1-2.39-.494" transform="translate(-22.431 -16.5)" fill="#455a64"/>
      <path id="Trazado_803348" data-name="Trazado 803348" d="M69.519,58.7c-.006,0,.014.069.106.159a.913.913,0,0,0,.506.214,4.093,4.093,0,0,0,1.95-.363A4.807,4.807,0,0,0,74.3,56.786a4.918,4.918,0,0,0,.585-3.534l0-.027-.189.149a5.758,5.758,0,0,0,3.558.421,6.4,6.4,0,0,0,2.668-1.212,7.121,7.121,0,0,0,1.39-1.4,2.6,2.6,0,0,0,.384-.612A10.646,10.646,0,0,1,80.8,52.431a6.425,6.425,0,0,1-2.6,1.123,5.6,5.6,0,0,1-3.4-.42l-.24-.115.051.264.005.026A4.66,4.66,0,0,1,72,58.538a4.285,4.285,0,0,1-1.862.432.9.9,0,0,1-.623-.27" transform="translate(-29.429 -21.408)" fill="#455a64"/>
      <path id="Trazado_803349" data-name="Trazado 803349" d="M108.571,8.634a7.527,7.527,0,0,1,.453,2.712,5.966,5.966,0,0,1-3.454,5.245,6.054,6.054,0,0,1-2.014.562l-.163.016.051.155a7.758,7.758,0,0,1,.378,2.853,7.9,7.9,0,0,1-.461,2.256,5.622,5.622,0,0,1-.347.8.666.666,0,0,1-.461.369.44.44,0,0,1-.358-.1c-.064-.062-.076-.113-.087-.109s-.009.057.052.14a.474.474,0,0,0,.4.16.754.754,0,0,0,.565-.389,5.3,5.3,0,0,0,.393-.807,7.692,7.692,0,0,0,.531-2.3,7.776,7.776,0,0,0-.357-2.949l-.112.17a6.219,6.219,0,0,0,2.106-.58,6.286,6.286,0,0,0,2.744-2.529,6.2,6.2,0,0,0,.783-2.951,5.983,5.983,0,0,0-.322-2.033,4.351,4.351,0,0,0-.219-.516c-.058-.114-.092-.172-.1-.168" transform="translate(-43.224 -3.655)" fill="#455a64"/>
      <path id="Trazado_803350" data-name="Trazado 803350" d="M10.639,340.9s13.214,17.452,24.184,21.441,68.928,0,68.928,0l-2.858-27.675-47.621-2.742Z" transform="translate(-4.504 -140.513)" fill="#263238"/>
      <path id="Trazado_803351" data-name="Trazado 803351" d="M177.033,246.479s-4.586-8.5-6.377-11.6c-2.672-4.635-9.448-5.327-9.448-5.327l5.274,22.178Z" transform="translate(-68.243 -97.174)" fill="#92df98"/>
      <path id="Trazado_803352" data-name="Trazado 803352" d="M132.206,146.556c7.352.187,12.682,9.487,13.116,16.838a119.047,119.047,0,0,1-.435,14.78c-.47,8.2-3.7,13.346-9.741,13.844-.359,6.24.013,15.42-11.173,16.623-6.159,0-11.851-4.889-12.134-11.041v-2.969s-.349-6.461-.509-11.416c-.077-2.368-.537-10.2-.633-16.532-.121-8.01,1.8-17.545,12.45-19.58a36.769,36.769,0,0,1,5.346-.517c1.334-.053,2.57-.061,3.712-.032" transform="translate(-46.859 -62.033)" fill="#cc675f"/>
      <path id="Trazado_803353" data-name="Trazado 803353" d="M107.431,185.445c-.163-.072-6.592-2-6.432,4.572s6.729,5.057,6.736,4.869-.3-9.441-.3-9.441" transform="translate(-42.754 -78.368)" fill="#cc675f"/>
      <path id="Trazado_803354" data-name="Trazado 803354" d="M106.893,194.018c-.029-.021-.112.082-.3.176a1.145,1.145,0,0,1-.856.038,2.834,2.834,0,0,1-1.374-2.51,3.785,3.785,0,0,1,.28-1.648,1.323,1.323,0,0,1,.84-.9.583.583,0,0,1,.684.3c.092.182.054.314.089.324.018.016.138-.114.078-.384a.729.729,0,0,0-.269-.405.864.864,0,0,0-.637-.152,1.609,1.609,0,0,0-1.172,1.048,3.888,3.888,0,0,0-.352,1.842,2.975,2.975,0,0,0,1.74,2.8,1.225,1.225,0,0,0,1.043-.2c.2-.167.231-.315.208-.326" transform="translate(-43.982 -79.943)" fill="#9d4841"/>
      <path id="Trazado_803355" data-name="Trazado 803355" d="M161.533,187.181a1.536,1.536,0,0,1-1.464,1.566,1.469,1.469,0,0,1-1.6-1.367,1.536,1.536,0,0,1,1.462-1.566,1.469,1.469,0,0,1,1.6,1.368" transform="translate(-67.084 -78.658)" fill="#263238"/>
      <path id="Trazado_803356" data-name="Trazado 803356" d="M160.956,180.384c-.188.2-1.361-.646-3.013-.623-1.651,0-2.854.862-3.036.661-.089-.088.1-.452.625-.842a4.216,4.216,0,0,1,2.427-.777,4.05,4.05,0,0,1,2.4.746c.512.385.689.745.6.836" transform="translate(-65.567 -75.691)" fill="#263238"/>
      <path id="Trazado_803357" data-name="Trazado 803357" d="M138.307,187.668a1.535,1.535,0,0,1-1.464,1.565,1.468,1.468,0,0,1-1.6-1.367,1.536,1.536,0,0,1,1.462-1.566,1.47,1.47,0,0,1,1.6,1.368" transform="translate(-57.252 -78.864)" fill="#263238"/>
      <path id="Trazado_803358" data-name="Trazado 803358" d="M136.582,180.834c-.189.2-1.363-.646-3.014-.623-1.65,0-2.854.862-3.036.661-.089-.088.1-.452.625-.842a4.209,4.209,0,0,1,2.427-.777,4.049,4.049,0,0,1,2.4.746c.511.385.688.745.6.836" transform="translate(-55.249 -75.882)" fill="#263238"/>
      <path id="Trazado_803359" data-name="Trazado 803359" d="M135.949,170.324c-.225.428-1.682.181-3.36.309-1.684.084-3.058.511-3.385.117-.146-.191.047-.588.6-.987a5.09,5.09,0,0,1,2.572-.832,5.547,5.547,0,0,1,2.735.5c.645.324.932.69.835.9" transform="translate(-54.676 -71.508)" fill="#263238"/>
      <path id="Trazado_803360" data-name="Trazado 803360" d="M161.969,169.546c-.271.432-1.63.06-3.252.065-1.62-.041-2.988.3-3.249-.137-.115-.212.121-.613.7-.989a5.005,5.005,0,0,1,5.116.057c.574.389.8.8.682,1" transform="translate(-65.802 -71.038)" fill="#263238"/>
      <path id="Trazado_803361" data-name="Trazado 803361" d="M142.976,223.759a30.28,30.28,0,0,1-13.818-2.255s1.962,5.788,13.693,5.307c.028-1.059.128-2.267.126-3.051" transform="translate(-54.676 -93.768)" fill="#9d4841"/>
      <path id="Trazado_803362" data-name="Trazado 803362" d="M146.57,188.363c.1-.05.386.3.76.894.187.3.4.661.619,1.069l.34.644a3.268,3.268,0,0,1,.347.806,1.358,1.358,0,0,1-.156,1.065,1.518,1.518,0,0,1-.764.587,1.757,1.757,0,0,1-.815.089,2.184,2.184,0,0,1-.633-.194c-.69-.363-.95-.724-.9-.809.061-.112.487.093,1.1.26a1.405,1.405,0,0,0,.964-.053.815.815,0,0,0,.359-.307.583.583,0,0,0,.04-.446,3.145,3.145,0,0,0-.265-.631l-.3-.668c-.186-.428-.342-.819-.463-1.152-.241-.666-.339-1.1-.236-1.153" transform="translate(-61.535 -79.737)" fill="#263238"/>
      <path id="Trazado_803363" data-name="Trazado 803363" d="M120.3,149.981c4.135.83,9.827,1.966,11.963,1.555a12.489,12.489,0,0,0,5.428-2.256l.381.364c1.155-.576-2.308-3.96-5.145-5.126-4.288-1.762-10.835-2.849-14.79-1.837-4.761,1.219-8.718,3.36-11.11,7.278a23.4,23.4,0,0,0-3.158,12.96c.042,1.366.028,3.2.833,4.352,0,0,3.094-.492,3.094,1.586,0,.72.093,3.746.637,4.271,1.3,1.257,2.9.078,3.637-1.105,1.57-2.527,1.746-5.545,1.886-8.441a17.13,17.13,0,0,0-.447-6.139c-.348-1.076-.962-3.683.45-5.323,0,0,1.4-3.133,6.342-2.139" transform="translate(-43.966 -60.236)" fill="#263238"/>
      <path id="Trazado_803364" data-name="Trazado 803364" d="M143.962,202.774c.017.076-.275.232-.8.289a3.761,3.761,0,0,1-3.522-1.759c-.27-.454-.319-.782-.249-.813.151-.082.747,1.021,2.03,1.653a12.2,12.2,0,0,0,2.541.63" transform="translate(-58.995 -84.871)" fill="#263238"/>
      <path id="Trazado_803365" data-name="Trazado 803365" d="M92.8,227.511l7.937-1.381c-.344.094,12.318,12.9,23.32,1.241l4.664.731s9.468,26.1,10.187,30.72,5.135,19.564,5.135,19.564-19.307,7.65-25.879,7.342-33.7,3.209-33.7,3.209l8.432-47.06Z" transform="translate(-35.758 -95.726)" fill="#92df98"/>
      <path id="Trazado_803366" data-name="Trazado 803366" d="M241.7,285.43l3.947-7.646,12.481-5.672h15.148l-7.618,6.659Z" transform="translate(-102.315 -115.191)" fill="#e0e0e0"/>
      <path id="Trazado_803367" data-name="Trazado 803367" d="M172.309,253.4l-2.092,1.477,40.725,20.831s2.708-.951,2.863-3.129-3.8-5.079-16.551-9.68c-4.394-1.586-24.945-9.5-24.945-9.5" transform="translate(-72.057 -107.269)" fill="#ebebeb"/>
      <path id="Trazado_803368" data-name="Trazado 803368" d="M238.918,277.306a11.5,11.5,0,0,1,5.152-5.53c4.064-2.348,9.934-4.245,17.521-4.425a45.647,45.647,0,0,0,12.193-1.716l.9,2.71s-10.837,2.619-13.908,2.258-15.039,3.56-17.418,7.757-3.535,5.067-3.535,5.067l-3.522-2.541Z" transform="translate(-100.033 -112.45)" fill="#ebebeb"/>
      <path id="Trazado_803369" data-name="Trazado 803369" d="M145.566,255.371l-31.822,26.914,38.224,19.03h5.837l35.623-15.392,32.54-22.456v-1.694l-33.693,11.11a2.149,2.149,0,0,0-1.336,1.24,2.563,2.563,0,0,1-2.387,1.634,3.225,3.225,0,0,1-3.255-2.31Z" transform="translate(-48.151 -108.105)" fill="#59bee2"/>
      <path id="Trazado_803370" data-name="Trazado 803370" d="M179.48,314.65c-.052-.064,7.4-6.252,16.647-13.819s16.787-13.652,16.84-13.588-7.4,6.251-16.649,13.821-16.785,13.651-16.838,13.587" transform="translate(-75.978 -121.596)" fill="#263238"/>
      <path id="Trazado_803371" data-name="Trazado 803371" d="M190.02,315.91c-.051-.066,7.463-5.933,16.781-13.1s16.915-12.933,16.966-12.867-7.462,5.932-16.783,13.106-16.913,12.931-16.964,12.866" transform="translate(-80.44 -122.738)" fill="#263238"/>
      <path id="Trazado_803372" data-name="Trazado 803372" d="M174.929,316.7c.748-.5,35.653-9.141,47.62-11.884s18.45-5.485,25.68,2.493,4.488,10.471,0,20.694-21.94,18.45-32.661,20.693-36.65,0-36.65,0v-17.2Z" transform="translate(-74.052 -127.862)" fill="#263238"/>
      <path id="Trazado_803373" data-name="Trazado 803373" d="M176.472,341.377a.7.7,0,0,1,.1-.134l.329-.374,1.29-1.415c1.129-1.221,2.767-2.985,4.877-5.083a84.218,84.218,0,0,1,7.817-6.939,48.32,48.32,0,0,1,11.005-6.511,57.443,57.443,0,0,1,12.32-3.462c3.885-.649,7.42-.967,10.387-1.168s5.373-.284,7.035-.339l1.914-.051.5-.005a.715.715,0,0,1,.17.009.694.694,0,0,1-.168.022l-.5.035-1.911.107c-1.66.091-4.063.211-7.026.434s-6.486.567-10.355,1.229a58.135,58.135,0,0,0-12.25,3.466,48.76,48.76,0,0,0-10.953,6.454,87.548,87.548,0,0,0-7.836,6.87c-2.125,2.076-3.787,3.816-4.942,5.013l-1.331,1.377-.351.353a.729.729,0,0,1-.127.114" transform="translate(-74.705 -133.727)" fill="#455a64"/>
      <path id="Trazado_803374" data-name="Trazado 803374" d="M70.09,304.882s12.358,9.259,20.59,9.217a11.787,11.787,0,0,0,4.8-1.186c2.059-1.144,7.191-3.51,7.191-3.51s9.955-1.39,9.892-4.154c0,0,2.073-.879,2.01-2.2a1.773,1.773,0,0,0-2.073-1.7c-.942.063-12.817.5-12.817.5s11.121-.817,11.56-1.445a1.062,1.062,0,0,0,.155-.356,1.616,1.616,0,0,0-1.187-1.883,27.619,27.619,0,0,0-6.225-.823c-3.137-.131-5.873-.1-5.873-.1s-4.551-1.615-5.78-1.519c-2.583.2-15.863,1.165-15.863,1.165" transform="translate(-29.671 -125.187)" fill="#cc675f"/>
      <path id="Trazado_803375" data-name="Trazado 803375" d="M76.469,296.82s.132-.021.39-.046l1.146-.1,4.382-.354,6.881-.533,2.07-.159c.358-.024.712-.062,1.089-.075a5.49,5.49,0,0,1,1.131.149,43.043,43.043,0,0,1,4.592,1.362l-.041-.007c3.765.15,7.987-.239,12.4,1.009a1.787,1.787,0,0,1,1.055,1.4,1.465,1.465,0,0,1-.188.916.823.823,0,0,1-.45.257c-.144.042-.287.078-.431.109-1.147.238-2.314.37-3.5.509-2.37.265-4.809.478-7.3.67l-.016-.3,8.712-.344,2.615-.1,1.3-.051a2.783,2.783,0,0,1,1.336.178,1.74,1.74,0,0,1,.948.977,2.341,2.341,0,0,1,.136.668,1.533,1.533,0,0,1-.138.685,2.735,2.735,0,0,1-.856,1.007,5.565,5.565,0,0,1-1.107.66l.09-.14a1.83,1.83,0,0,1-.728,1.349,6.048,6.048,0,0,1-1.242.795,17.187,17.187,0,0,1-2.677,1,41.467,41.467,0,0,1-5.374,1.15l.039-.012c-2.382,1.107-4.679,2.178-6.815,3.3a9.877,9.877,0,0,1-3.354,1.191,13.539,13.539,0,0,1-1.7.2c-.57,0-1.122-.061-1.67-.088a24.16,24.16,0,0,1-5.9-1.623,46.009,46.009,0,0,1-4.736-2.222,71.2,71.2,0,0,1-6.316-3.844c-.709-.486-1.246-.871-1.6-1.136l-.4-.306a.987.987,0,0,1-.131-.111.941.941,0,0,1,.145.092l.416.287,1.629,1.1c1.434.94,3.551,2.289,6.346,3.769a46.629,46.629,0,0,0,4.732,2.183,24.078,24.078,0,0,0,5.853,1.58c.536.024,1.085.08,1.633.08a13.3,13.3,0,0,0,1.672-.2,9.641,9.641,0,0,0,3.276-1.176c2.146-1.131,4.438-2.206,6.821-3.32l.017-.008.022,0a41.356,41.356,0,0,0,5.331-1.152,16.984,16.984,0,0,0,2.628-.987,5.8,5.8,0,0,0,1.179-.754,1.55,1.55,0,0,0,.626-1.121v-.1l.089-.043a3.669,3.669,0,0,0,1.806-1.516,1.232,1.232,0,0,0,.112-.548,2.051,2.051,0,0,0-.116-.576,1.435,1.435,0,0,0-.789-.81,2.478,2.478,0,0,0-1.2-.153l-1.3.051-2.618.1-8.718.34-.017-.3c2.492-.189,4.93-.4,7.295-.66,1.179-.137,2.351-.268,3.471-.5.14-.029.276-.063.409-.1s.271-.091.3-.14a1.2,1.2,0,0,0,.147-.734,1.514,1.514,0,0,0-.892-1.185,17.168,17.168,0,0,0-3.188-.649c-1.067-.134-2.122-.211-3.156-.258l-5.941-.116H98.09l-.018-.006a43.058,43.058,0,0,0-4.557-1.375,5.326,5.326,0,0,0-1.081-.15c-.356.01-.725.047-1.079.068l-2.071.146-6.886.478-4.387.29-1.148.067c-.26.013-.393.011-.393.011" transform="translate(-29.671 -125.114)" fill="#9d4841"/>
      <path id="Trazado_803376" data-name="Trazado 803376" d="M132.593,312.43a2.46,2.46,0,0,1-.612.083l-1.671.124c-1.411.1-3.358.243-5.508.421s-4.1.329-5.515.407c-.707.039-1.279.064-1.675.073a2.455,2.455,0,0,1-.617-.017,2.447,2.447,0,0,1,.609-.1l1.667-.167,5.507-.494c2.152-.179,4.107-.289,5.522-.334.708-.021,1.281-.032,1.677-.028a2.432,2.432,0,0,1,.616.033" transform="translate(-49.527 -132.245)" fill="#9d4841"/>
      <path id="Trazado_803377" data-name="Trazado 803377" d="M121.012,319.168a31.72,31.72,0,0,1-4.228.772c-1.17.188-2.22.389-2.978.553a6.609,6.609,0,0,1-1.238.234,15.384,15.384,0,0,1,4.168-1.084c1.175-.19,2.243-.314,3.016-.4a5.553,5.553,0,0,1,1.261-.078" transform="translate(-47.652 -135.104)" fill="#9d4841"/>
      <path id="Trazado_803378" data-name="Trazado 803378" d="M151.622,116.474a1.5,1.5,0,0,1-.592.08,3.779,3.779,0,0,1-1.594-.352,3.866,3.866,0,0,1-1.791-1.635,4.111,4.111,0,0,1-.384-2.939,4,4,0,0,1,.27-.752,1.216,1.216,0,0,1,.559-.616,1.319,1.319,0,0,1,.8-.024c.234.05.458.1.678.159.877.227,1.648.483,2.292.708s1.156.43,1.506.58a2.15,2.15,0,0,1,.532.265c-.016.041-.809-.24-2.1-.643-.648-.2-1.423-.432-2.291-.641-.217-.051-.441-.1-.668-.147a1.062,1.062,0,0,0-.62.013c-.349.168-.528.71-.657,1.171a3.916,3.916,0,0,0,.336,2.735,3.759,3.759,0,0,0,1.639,1.576,4.1,4.1,0,0,0,1.507.427,4.811,4.811,0,0,1,.587.037" transform="translate(-62.29 -46.644)" fill="#263238"/>
      <path id="Trazado_803379" data-name="Trazado 803379" d="M60.8,162.927a17.664,17.664,0,0,0-12.684,10.655c-3.552,9.132-12.72,47.86-13.735,51.919s-2.041,12.14,2.493,15.678c5.015,3.914,20.3,9.272,20.3,9.272l5.725-9.9-9.136-11.377s8.562-23.633,9.069-27.438S60.8,162.927,60.8,162.927" transform="translate(-14.185 -68.971)" fill="#cc675f"/>
      <path id="Trazado_803380" data-name="Trazado 803380" d="M88.225,287.73a1.625,1.625,0,0,1-.332-.055l-.949-.209-3.549-.832.029,0-13.945,1.1-.077.006-.05-.061-2.412-2.988-6.632-8.251.018.018a9.7,9.7,0,0,0-4.4-2.074,9.59,9.59,0,0,0-3.788.052,10.079,10.079,0,0,0-2.329.807c-.513.254-.773.419-.784.4a.934.934,0,0,1,.182-.136c.122-.085.311-.2.564-.34a9.332,9.332,0,0,1,2.333-.887,9.577,9.577,0,0,1,3.861-.115,9.843,9.843,0,0,1,4.526,2.085l.01.008.009.011,6.658,8.229,2.409,2.99-.126-.054,13.953-.988h.016l.014,0,3.528.916.937.257a1.643,1.643,0,0,1,.319.106" transform="translate(-20.756 -116.001)" fill="#9d4841"/>
      <path id="Trazado_803381" data-name="Trazado 803381" d="M40.21,197.458l24.309,8.558,5.195-7.174-3.98-37.173S55.78,162.728,51.354,172.1c-4.643,9.836-11.144,25.353-11.144,25.353" transform="translate(-17.022 -68.439)" fill="#e5e9ea"/>
      <path id="Trazado_803382" data-name="Trazado 803382" d="M40.209,215.21a2.93,2.93,0,0,1,.466.129l1.317.426,4.825,1.619L62.7,222.831l2.705.937-.193.1c1.419-5.7,2.678-10.756,3.59-14.419.906-3.637,1.424-5.85,1.424-5.85a.305.305,0,0,1,0,.1c-.007.069-.015.175-.037.31-.048.268-.118.664-.226,1.171-.209,1.017-.541,2.485-.966,4.311-.849,3.651-2.078,8.725-3.5,14.444l-.04.158-.153-.053-2.706-.935-15.852-5.531-4.793-1.709-1.3-.479a2.9,2.9,0,0,1-.446-.186" transform="translate(-17.021 -86.191)" fill="#263238"/>
      <path id="Trazado_803383" data-name="Trazado 803383" d="M203.115,310.7a7.949,7.949,0,0,1,9.706,9.253c-.04.182-.086.365-.138.55-1.886,6.684-15.7,19.079-18.478,20.851s-22.408,8.481-22.408,8.481L169.76,331.4s20.327-12.78,25.883-17.182a19.068,19.068,0,0,1,7.472-3.513" transform="translate(-71.863 -131.434)" fill="#cc675f"/>
      <path id="Trazado_803384" data-name="Trazado 803384" d="M203.115,310.7a7.949,7.949,0,0,1,9.706,9.253c-.04.182-.086.365-.138.55-1.886,6.684-15.7,19.079-18.478,20.851s-22.408,8.481-22.408,8.481L169.76,331.4s20.327-12.78,25.883-17.182A19.068,19.068,0,0,1,203.115,310.7Z" transform="translate(-71.863 -131.434)" fill="none" stroke="#9d4841" stroke-miterlimit="10" stroke-width="1"/>
      <path id="Trazado_803385" data-name="Trazado 803385" d="M231.294,355.611c-1.878-2.223-4.333-1.968-7.188-1.254-2.289.572-6.546,1.3-8.869,1.712-4.751.834-10.29-.945-14.39-3.486l-9.075,11.473a18.979,18.979,0,0,1,11.434,3.837c2.117,1.609,3.91,4.122,6.568,4.052a8.961,8.961,0,0,0,5.42-1.827c1.722-1.576,4.8-2.221,7.165-2.308,5.573-.205,7.25-1.332,9.037-3.656,1.848-2.4,1.05-7.178-.1-8.543" transform="translate(-81.182 -149.257)" fill="#cc675f"/>
      <path id="Trazado_803386" data-name="Trazado 803386" d="M92.263,324.28c.843,0,22.568-7.883,30.3-8.38,5.478-.352,12.769,5.314,21.791,10.994,10.915,6.871,22.347,14,22.18,14.253-.3.457-8.082,11.741-8.082,11.741l-30.617-15.344-10.7,1.276c-8.114-.091-24.873-14.54-24.873-14.54" transform="translate(-39.057 -133.721)" fill="#cc675f"/>
      <path id="Trazado_803387" data-name="Trazado 803387" d="M92.263,324.3s.086-.037.258-.1l.766-.252,2.954-.942L107.12,319.6l7.522-2.339a33.467,33.467,0,0,1,8.947-1.332c.4.006.8,0,1.211.047a7.462,7.462,0,0,1,1.216.249,21.379,21.379,0,0,1,2.325.887c1.53.679,3.037,1.479,4.551,2.325q1.134.639,2.266,1.325c.752.469,1.487.961,2.239,1.445l4.56,2.965,15.44,10.053.005,0,.006.005a39.559,39.559,0,0,0,6.1,4.007,13.283,13.283,0,0,0,6.433,1.224c1.053,0,2.056-.1,3.063-.143a12.1,12.1,0,0,0,2.819-.287c1.793-.374,3.417-.881,4.91-1.257a19.716,19.716,0,0,1,4.069-.7,5.629,5.629,0,0,1,3,.588,3.811,3.811,0,0,1,1.377,1.324,4.5,4.5,0,0,1,.307.586c-.012.006-.112-.2-.347-.56a3.863,3.863,0,0,0-1.383-1.269,5.571,5.571,0,0,0-2.951-.534,19.857,19.857,0,0,0-4.03.736c-1.487.386-3.1.9-4.912,1.292a12.247,12.247,0,0,1-2.864.306c-.968.046-2,.149-3.057.158a20.417,20.417,0,0,1-3.264-.188,10.045,10.045,0,0,1-3.292-1.04,39.565,39.565,0,0,1-6.155-4.022l.012.009-15.449-10.035-4.559-2.966c-.75-.484-1.492-.98-2.233-1.443s-1.5-.9-2.255-1.322c-1.507-.844-3.007-1.644-4.522-2.319a21.074,21.074,0,0,0-2.289-.879,7.163,7.163,0,0,0-1.16-.24c-.39-.044-.794-.043-1.187-.049a33.377,33.377,0,0,0-8.877,1.295l-7.526,2.3-10.91,3.318-2.971.888-.774.224c-.175.048-.267.066-.267.066" transform="translate(-39.057 -133.741)" fill="#9d4841"/>
      <path id="Trazado_803388" data-name="Trazado 803388" d="M112.549,260.958l-17.873,3.168-.787-17.7-4.63-15.675c.19-.174-7.939,5.452-8.3,15.214-.231,6.247-.218,13.743-.094,16.589s.408,8.888,2.573,10.868,6.08,3.053,9.925,2.435a93.844,93.844,0,0,0,10.117-2.435l12.238-3.782Z" transform="translate(-34.195 -97.682)" fill="#cc675f"/>
      <path id="Trazado_803389" data-name="Trazado 803389" d="M112.44,260.843s.076.18.217.549l.623,1.654c.549,1.479,1.355,3.649,2.4,6.456l.027.072-.074.023-10.345,3.23c-2.015.644-4.194,1.279-6.515,1.863-1.161.292-2.359.574-3.594.827a20.86,20.86,0,0,1-3.847.524,13.744,13.744,0,0,1-4.03-.5,10.327,10.327,0,0,1-3.779-1.886,4.808,4.808,0,0,1-1.332-1.745,12.5,12.5,0,0,1-.723-2.095,29.017,29.017,0,0,1-.679-4.451c-.253-3.032-.264-6.154-.266-9.339s.051-6.44.165-9.746a18.844,18.844,0,0,1,2.488-8.994,22.568,22.568,0,0,1,2.639-3.724q.742-.852,1.554-1.621.406-.383.829-.743l.43-.351.22-.17.113-.083.059-.041.031-.021.018-.012a.207.207,0,0,1,.044-.02.106.106,0,0,1,.037-.007c.093-.089.2.326.1.255l.04-.147c1.635,5.553,3.184,10.814,4.616,15.679l0,.016v.016c.287,6.7.542,12.673.757,17.7l-.118-.094,13.169-2.281,3.515-.6.9-.149c.2-.032.3-.042.3-.042s-.109.027-.316.067l-.916.174-3.527.651-13.1,2.375-.112.021-.005-.115c-.232-5.027-.509-11-.818-17.7l.005.031L89.01,230.679l.089-.095c-.021.011.047.118.053.059a.355.355,0,0,0,.018.07c.03.084.056.042.046.051l-.01.006-.025.017-.054.037-.108.08-.215.165-.422.346q-.417.354-.817.734c-.533.5-1.044,1.04-1.532,1.6a22.3,22.3,0,0,0-2.6,3.677,18.548,18.548,0,0,0-2.447,8.859c-.114,3.3-.161,6.554-.168,9.737s.009,6.3.257,9.314a28.875,28.875,0,0,0,.666,4.406,6.669,6.669,0,0,0,1.956,3.7,10.061,10.061,0,0,0,3.675,1.841,13.51,13.51,0,0,0,3.953.5,20.737,20.737,0,0,0,3.8-.509c1.232-.248,2.427-.525,3.586-.813,2.321-.576,4.49-1.2,6.51-1.834l10.363-3.17-.047.1-2.31-6.447-.594-1.68c-.133-.38-.2-.582-.2-.582" transform="translate(-34.086 -97.566)" fill="#9d4841"/>
      <path id="Trazado_803390" data-name="Trazado 803390" d="M75.305,256.844H94.024l-3.943-28.555s-5.834-.48-9.107,6.066c-3.962,7.924-5.669,22.489-5.669,22.489" transform="translate(-31.878 -96.637)" fill="#92df98"/>
      <path id="Trazado_803391" data-name="Trazado 803391" d="M101.868,288.618a8.591,8.591,0,0,1-.975.336,6.408,6.408,0,0,0-3.521,3.225,8.459,8.459,0,0,1-.42.941,2.33,2.33,0,0,1,.225-1.026,5.676,5.676,0,0,1,3.649-3.342,2.324,2.324,0,0,1,1.041-.134" transform="translate(-41.038 -122.171)" fill="#9d4841"/>
      <path id="Trazado_803392" data-name="Trazado 803392" d="M135.363,277.168a50.608,50.608,0,0,1,4.242-3.679,19.929,19.929,0,0,0,3.515-4.15,2.065,2.065,0,0,1,.874,1.946c-.247,1.172-2.324,4.479-2.112,5.031a3.066,3.066,0,0,0,1.985,1.177c.326-.074,8.132-1.6,8.626-.941s.492,1.776-.306,2.044-5.188.585-5.057,1.156,5.657.339,5.906,1.054a1.263,1.263,0,0,1-.888,1.748c-.834.1-5,.284-4.969.792s4.484.092,4.759.544-.291,1.354-.8,1.384-5.934.326-6.03,1.035,2.916,1.482,3.239,1.8c.422.411-.427,1.317-1.742.866-.419-.144-9.8-2.476-10.851-2.923s-.393-8.88-.393-8.88" transform="translate(-57.217 -114.018)" fill="#cc675f"/>
      <path id="Trazado_803393" data-name="Trazado 803393" d="M75.305,266.656a1.465,1.465,0,0,1,.342-.031l.981-.028,3.609-.048,11.907-.044H93.79l-.149.148c.019-4.25.036-8.033.048-10.8.019-1.336.035-2.424.046-3.221.01-.353.02-.64.027-.87a1.275,1.275,0,0,1,.028-.3,1.211,1.211,0,0,1,.029.3c.007.23.016.518.027.871.012.8.027,1.886.046,3.221.012,2.769.029,6.553.048,10.8v.148h-1.8l-11.907-.044-3.609-.048-.981-.028a1.49,1.49,0,0,1-.342-.03" transform="translate(-31.878 -106.449)" fill="#263238"/>
      <path id="Trazado_803394" data-name="Trazado 803394" d="M192.484,369.717c-1.638-2.4-4.635-3.539-7.529-3.773s-5.786.3-8.678.544-5.933.177-8.514-1.151c-1.616-.83-2.972-2.116-4.62-2.879-2.524-1.169-7.636-.292-11.935,3.1a31.66,31.66,0,0,1-9.471-2.936l-2.195,14.817c11.765,1.7,26.615,3.811,39.775,7.143,1.795.454,6.364,1.624,8.215,1.6s4.807.226,5.973-1.212c1.265-1.558,1.573-3.954,1.658-5.958a16.925,16.925,0,0,0-2.679-9.287" transform="translate(-59.071 -153.23)" fill="#455a64"/>
      <path id="Trazado_803395" data-name="Trazado 803395" d="M36.054,304.66s-24.433-16.954-32.412-5.485-.848,22.962,2.493,26.178c6.732,6.482,30.417,16.7,44.628,20.943s32.162,3.989,32.162,3.989l7.23-14.71s-45.625-23.685-54.1-30.916" transform="translate(0 -124.962)" fill="#263238"/>
      <path id="Trazado_803396" data-name="Trazado 803396" d="M74.865,376.867a2.527,2.527,0,0,1-.449-.072l-1.274-.263c-1.105-.235-2.7-.589-4.669-1.05-3.934-.924-9.359-2.272-15.229-4.18-2.932-.965-5.689-1.993-8.163-3.009-1.229-.528-2.4-1.016-3.475-1.532-1.084-.49-2.074-.988-2.973-1.45-.909-.445-1.7-.9-2.4-1.291s-1.3-.736-1.781-1.036l-1.107-.685a2.6,2.6,0,0,1-.375-.256,2.534,2.534,0,0,1,.407.2l1.134.636c.488.283,1.089.623,1.8.99s1.507.817,2.42,1.248c.9.449,1.9.935,2.981,1.414,1.073.5,2.248.982,3.476,1.5,2.474,1,5.226,2.017,8.152,2.979,5.858,1.9,11.267,3.283,15.186,4.259l4.646,1.142,1.262.318a2.564,2.564,0,0,1,.435.131" transform="translate(-13.954 -153.262)" fill="#455a64"/>
    </g>
  </g>
</svg>
